<svg width="350" height="447" viewBox="0 0 350 447" fill="none" xmlns="http://www.w3.org/2000/svg">
<mask id="mask0_2225_362" style="mask-type:luminance" maskUnits="userSpaceOnUse" x="153" y="388" width="57" height="42">
<path d="M153.436 400.329L202.146 388.665L209.239 418.288L160.529 429.952L153.436 400.329Z" fill="white"/>
</mask>
<g mask="url(#mask0_2225_362)">
<path d="M201.391 389.661L205.933 408.937C206.478 411.211 204.732 413.96 200.592 416.752C192.243 422.358 177.392 425.914 167.335 424.715C162.31 424.118 159.422 422.405 158.877 420.131L154.335 400.855C154.88 403.129 157.698 404.858 162.793 405.439C172.85 406.638 187.701 403.082 196.05 397.476C200.19 394.684 201.936 391.935 201.391 389.661Z" fill="#414042"/>
</g>
<path d="M192.93 385.071C202.982 386.271 204.327 391.886 196.048 397.475C187.699 403.081 172.848 406.637 162.792 405.439C152.739 404.239 151.395 398.624 159.744 393.018C168.023 387.429 182.948 383.855 192.93 385.071Z" fill="#58595B"/>
<path d="M208.239 320.687L221.936 378.503C223.535 385.181 220.743 392.989 213.161 400.217C197.862 414.774 169.01 421.682 148.709 415.65C138.51 412.607 132.328 406.874 130.768 400.029L117.072 342.217C118.705 349.039 124.817 354.789 135.012 357.834C155.319 363.87 184.167 356.962 199.464 342.401C207.052 335.176 209.856 327.439 208.239 320.687Z" fill="#414042"/>
<path d="M190.315 305.14C210.622 311.176 214.761 327.845 199.463 342.402C184.166 356.963 155.318 363.87 135.011 357.835C114.709 351.802 110.566 335.135 125.863 320.573C141.143 305.943 169.995 299.034 190.315 305.14Z" fill="#414042"/>
<path d="M216.222 202.148L216.365 193.321C216.376 192.116 217.413 191.117 218.618 191.128L219.079 191.17C220.284 191.18 221.338 190.256 221.336 188.975C221.347 187.771 220.417 186.717 219.143 186.723L175.144 185.909C173.939 185.898 172.886 186.828 172.887 188.103L172.592 205.682C172.576 206.888 173.507 207.946 174.786 207.939L218.779 208.749C219.985 208.765 221.043 207.834 221.036 206.555C221.047 205.35 220.117 204.297 218.843 204.303L218.381 204.261C217.193 204.32 216.211 203.353 216.222 202.148Z" fill="#9B887D"/>
<path d="M177.039 203.602L177.287 190.372L216.883 191.122L216.64 204.345L177.039 203.602Z" fill="#E4DBD7"/>
<path d="M216.602 181.468L216.728 174.45C216.72 173.476 217.507 172.684 218.498 172.746L219.79 172.814C220.765 172.806 221.57 172.089 221.562 171.114C221.554 170.139 220.836 169.33 219.862 169.342L174.958 168.519C173.983 168.527 173.179 169.245 173.186 170.219L172.958 184.327C172.966 185.302 173.688 186.106 174.663 186.098L219.562 186.922C220.537 186.914 221.341 186.197 221.333 185.217C221.325 184.243 220.607 183.438 219.632 183.446L218.341 183.382C217.332 183.246 216.598 182.372 216.602 181.468Z" fill="#B3135E"/>
<path d="M177.4 181.605L177.568 172.841L217.164 173.585L216.996 182.355L177.4 181.605Z" fill="#E4DBD7"/>
<path d="M173.998 152.895L173.859 161.721C173.844 162.927 172.807 163.926 171.603 163.915L171.141 163.874C169.936 163.863 168.882 164.787 168.889 166.066C168.873 167.272 169.803 168.326 171.082 168.319L215.076 169.134C216.281 169.145 217.339 168.214 217.333 166.94L217.633 149.36C217.644 148.155 216.713 147.097 215.439 147.103L171.511 146.277C170.305 146.262 169.252 147.191 169.259 148.47C169.243 149.676 170.172 150.729 171.451 150.722L171.908 150.765C173.096 150.706 174.009 151.69 173.998 152.895Z" fill="#705647"/>
<path d="M173.36 163.897L173.609 150.672L213.205 151.417L212.961 164.641L173.36 163.897Z" fill="#E4DBD7"/>
<path d="M217.119 177.963L216.657 177.922L177.496 177.23L177.42 181.605L216.581 182.297L217.038 182.34L217.119 177.963Z" fill="#EAE2DE" fill-opacity="0.102"/>
<path d="M208.276 95.5385L206.233 87.0087C205.944 85.8021 206.647 84.6574 207.858 84.3674L208.285 84.2651C209.491 83.9762 210.194 82.8316 209.905 81.6249C209.615 80.4137 208.47 79.7113 207.264 80.0002L164.484 90.2437C163.273 90.5337 162.571 91.6784 162.861 92.8897L166.961 110.014C167.251 111.226 168.396 111.928 169.607 111.638L212.386 101.394C213.593 101.106 214.295 99.9609 214.005 98.7496C213.716 97.543 212.572 96.8406 211.365 97.1295L210.938 97.2318C209.71 97.4522 208.566 96.7498 208.276 95.5385Z" fill="#9B887D"/>
<path d="M167.635 94L206.149 84.7777L209.229 97.6421L170.715 106.864L167.635 94Z" fill="#E4DBD7"/>
<path d="M169.551 102.633L208.279 93.3599L209.3 97.6249L170.572 106.898L169.551 102.633Z" fill="#EAE2DE" fill-opacity="0.102"/>
<path d="M138.194 89.0271L136.56 82.2051C136.338 81.277 136.931 80.3106 137.855 80.0895L139.135 79.7828C140.059 79.5616 140.652 78.5953 140.43 77.6671C140.209 76.7436 139.242 76.1506 138.319 76.3717L94.6856 86.8197C93.7621 87.0408 93.1691 88.0072 93.3903 88.9307L96.6751 102.649C96.8962 103.573 97.8637 104.17 98.7872 103.949L142.42 93.5011C143.344 93.2799 143.936 92.3089 143.715 91.3854C143.493 90.4619 142.527 89.8689 141.604 90.09L140.323 90.3968C139.381 90.5436 138.415 89.9507 138.194 89.0271Z" fill="#B3135E"/>
<path d="M98.0488 89.5474L136.563 80.3251L139.03 90.6278L100.516 99.85L98.0488 89.5474Z" fill="#E4DBD7"/>
<path d="M99.625 96.4561L138.353 87.1827L139.17 90.5937L100.442 99.8671L99.625 96.4561Z" fill="#EAE2DE" fill-opacity="0.102"/>
<path d="M172.2 132.51L173.34 137.272C173.493 137.912 173.058 138.615 172.417 138.769L171.494 138.99C170.858 139.142 170.424 139.849 170.576 140.485C170.729 141.126 171.437 141.56 172.073 141.408L202.633 134.09C203.268 133.938 203.703 133.23 203.549 132.59L201.252 122.997C201.099 122.357 200.393 121.927 199.757 122.08L169.197 129.397C168.561 129.549 168.126 130.252 168.279 130.893C168.433 131.533 169.139 131.963 169.775 131.81L170.698 131.589C171.339 131.436 172.046 131.87 172.2 132.51Z" fill="#B3135E"/>
<path d="M171.627 131.367L198.558 124.919L200.277 132.098L173.346 138.547L171.627 131.367Z" fill="#E4DBD7"/>
<path d="M171.553 131.384L198.697 124.885L199.259 127.233L172.115 133.733L171.553 131.384Z" fill="#EAE2DE" fill-opacity="0.102"/>
<path d="M219.462 54.3861L222.056 50.1583C222.434 49.5428 223.144 49.3728 223.759 49.7504L224.553 50.2375C225.169 50.6152 225.879 50.4452 226.256 49.8297C226.639 49.2131 226.469 48.5031 225.847 48.1219L199.076 31.6905C198.456 31.314 197.746 31.484 197.368 32.0995L192.233 40.4688C191.855 41.0842 192.025 41.7943 192.641 42.172L219.418 58.6068C220.033 58.9845 220.748 58.8133 221.125 58.1979C221.503 57.5824 221.332 56.8677 220.717 56.49L219.923 56.003C219.251 55.7173 219.08 55.0026 219.462 54.3861Z" fill="#B3135E"/>
<path d="M195.466 41.1225L199.322 34.8308L222.929 49.3162L219.068 55.609L195.466 41.1225Z" fill="#E4DBD7"/>
<path d="M256.641 138.44L251.23 137.483C250.451 137.365 249.981 136.653 250.094 135.876L250.3 134.85C250.413 134.072 249.942 133.356 249.165 133.242C248.382 133.131 247.67 133.6 247.557 134.378L241.523 168.812C241.41 169.59 241.881 170.307 242.664 170.419L253.491 172.335C254.269 172.448 254.981 171.979 255.094 171.201L261.128 136.767C261.24 135.984 260.77 135.272 259.992 135.159C259.208 135.043 258.498 135.517 258.385 136.295L258.179 137.321C258.135 138.082 257.423 138.552 256.641 138.44Z" fill="#B3135E"/>
<path d="M244.632 167.248L249.975 136.876L258.104 138.305L252.767 168.681L244.632 167.248Z" fill="#E4DBD7"/>
<path d="M192.199 231.424L186.769 232.273C186.041 232.369 185.318 231.87 185.221 231.137L185.053 230.127C184.952 229.401 184.233 228.896 183.506 228.996C182.778 229.092 182.275 229.816 182.375 230.543L187.792 265.091C187.887 265.819 188.612 266.322 189.338 266.222L200.203 264.523C200.929 264.423 201.434 263.703 201.334 262.977L195.917 228.429C195.817 227.702 195.097 227.197 194.369 227.293C193.638 227.394 193.139 228.118 193.235 228.845L193.403 229.855C193.429 230.6 192.93 231.323 192.199 231.424Z" fill="#B3135E"/>
<path d="M190.094 262.631L185.326 232.163L193.48 230.887L198.253 261.355L190.094 262.631Z" fill="#E4DBD7"/>
<path d="M89.812 144.269L81.2171 142.269C80.0354 142.027 79.3029 140.853 79.5439 139.667L79.6718 139.259C79.9139 138.077 79.1802 136.898 77.9985 136.656C76.8111 136.411 75.6325 137.144 75.3915 138.331L65.5189 181.201C65.2768 182.383 66.0105 183.561 67.1968 183.802L84.3653 187.734C85.5516 187.975 86.7303 187.241 86.9713 186.055L96.8403 143.19C97.0813 142.004 96.3534 140.829 95.166 140.583C93.9797 140.342 92.8057 141.075 92.5601 142.262L92.4357 142.665C92.1901 143.852 91.0161 144.585 89.812 144.269Z" fill="#9B887D"/>
<path d="M70.2825 179.996L79.1508 141.394L92.0395 144.358L83.1759 182.959L70.2825 179.996Z" fill="#E4DBD7"/>
<path d="M275.71 183.247L271.187 178.167C270.572 177.485 270.622 176.423 271.283 175.74L271.531 175.528C272.213 174.913 272.328 173.836 271.627 173.101C271.014 172.423 269.935 172.304 269.2 173.005L243.843 195.76C243.166 196.374 243.046 197.452 243.752 198.186L252.864 208.331C253.478 209.008 254.561 209.126 255.291 208.427L280.648 185.671C281.33 185.057 281.444 183.974 280.744 183.244C280.129 182.562 279.052 182.447 278.317 183.148L278.068 183.36C277.403 184.044 276.324 183.924 275.71 183.247Z" fill="#EBE564"/>
<path d="M247.497 197.166L270.287 176.723L277.115 184.338L254.327 204.785L247.497 197.166Z" fill="#E4DBD7"/>
<path d="M137.506 310.498L139.169 307.092C139.441 306.649 139.99 306.444 140.415 306.641L141.176 306.989C141.613 307.258 142.237 307.035 142.418 306.54C142.689 306.097 142.463 305.479 141.967 305.293L119.499 294.294C119.061 294.021 118.438 294.249 118.256 294.739L114.979 301.461C114.712 301.903 114.935 302.527 115.429 302.707L137.897 313.707C138.34 313.979 138.964 313.756 139.145 313.261C139.412 312.819 139.189 312.195 138.694 312.014L137.935 311.671C137.461 311.559 137.234 310.936 137.506 310.498Z" fill="#705647"/>
<path d="M117.537 301.777L120.013 296.724L139.77 306.385L137.301 311.441L117.537 301.777Z" fill="#E4DBD7"/>
<path d="M143.122 188.994L136.736 191.2C135.829 191.49 134.896 191.037 134.601 190.131L134.121 188.744C133.826 187.838 132.823 187.401 131.986 187.675C131.08 187.971 130.643 188.973 130.917 189.811L145.545 232.374C145.836 233.281 146.843 233.717 147.679 233.438L160.447 229.032C161.353 228.736 161.79 227.734 161.516 226.897L146.888 184.333C146.597 183.426 145.59 182.99 144.754 183.269C143.847 183.56 143.416 184.566 143.689 185.398L144.169 186.79C144.481 187.765 144.028 188.703 143.122 188.994Z" fill="#705647"/>
<path d="M134.983 191.3L144.592 188.003L157.448 225.466L147.84 228.762L134.983 191.3Z" fill="#E4DBD7"/>
<path d="M130.888 259.03L127.905 265.078C127.509 265.924 126.458 266.249 125.613 265.853L124.324 265.185C123.477 264.784 122.502 265.096 122.031 265.96C121.631 266.806 121.943 267.782 122.806 268.252L163.23 288.029C164.076 288.43 165.053 288.122 165.522 287.254L171.476 275.087C171.875 274.236 171.563 273.261 170.7 272.79L130.276 253.013C129.43 252.613 128.45 252.926 127.984 253.788C127.583 254.635 127.89 255.611 128.758 256.081L130.042 256.75C130.963 257.133 131.289 258.183 130.888 259.03Z" fill="#705647"/>
<path d="M126.807 266.371L131.266 257.246L166.846 274.645L162.387 283.77L126.807 266.371Z" fill="#E4DBD7"/>
<path d="M95.6781 205.163L68.7542 216.046C67.1717 216.65 66.4777 218.465 67.0657 219.978L79.8861 251.551C80.4918 253.138 82.3103 253.826 83.8231 253.238L110.744 242.361C112.331 241.756 113.019 239.937 112.431 238.424L99.6152 206.85C99.0105 205.268 97.2606 204.558 95.6781 205.163Z" fill="#B3135E"/>
<path d="M69.417 219.116L72.027 225.631L82.1631 250.707C82.7678 252.289 84.5873 252.982 86.1001 252.394L83.7725 253.33C82.1854 253.935 80.4401 253.225 79.8355 251.642L67.0151 220.069C66.4604 218.695 66.991 217.141 68.2403 216.395L69.417 219.116Z" fill="#87806A"/>
<path d="M111.187 235.415L82.6273 246.988C80.4388 247.89 79.3683 250.325 80.2701 252.514L80.8403 253.952C81.7375 256.142 84.1726 257.212 86.3621 256.315L114.921 244.741L111.187 235.415Z" fill="#F9F7D7"/>
<path d="M82.8417 248.212C81.4727 248.766 80.9005 250.782 81.7346 252.688C82.4944 254.611 84.2545 255.691 85.6978 255.12L114.524 243.408C114.124 242.375 113.66 241.358 113.261 240.33C112.724 239.03 112.188 237.731 111.667 236.501C102.092 240.448 92.4303 244.341 82.8417 248.212Z" fill="#E4DBD7"/>
<path d="M96.1944 211.727L75.304 220.184C74.686 220.411 74.3381 221.171 74.652 221.847L77.0213 227.663C77.2443 228.287 78.0047 228.635 78.6803 228.321L99.5696 219.86C100.193 219.637 100.537 218.877 100.227 218.201L97.8569 212.379C97.5608 211.778 96.8181 211.504 96.1944 211.727Z" fill="white"/>
<path d="M107.696 236.853C108.939 240.162 109.617 243.606 109.582 246.922L114.993 244.724L111.184 235.415L107.696 236.853Z" fill="black" fill-opacity="0.2"/>
<path d="M109.131 245.677L85.9131 255.069C83.7247 255.971 81.2897 254.9 80.3878 252.712L80.8902 253.867C81.7921 256.056 84.2271 257.126 86.4155 256.225L109.634 246.833C109.6 243.538 109.009 240.147 107.752 236.763L107.678 236.78C108.624 239.788 109.125 242.823 109.131 245.677Z" fill="black" fill-opacity="0.2"/>
<path d="M251.061 63.6554L228.426 81.7744C227.102 82.8423 226.869 84.6988 227.937 86.0231L249.172 112.573C250.24 113.898 252.101 114.129 253.421 113.062L276.056 94.9433C277.379 93.8708 277.612 92.0143 276.544 90.69L255.308 64.1398C254.31 62.7988 252.379 62.584 251.061 63.6554Z" fill="#B3135E"/>
<path d="M229.882 84.4278L234.277 89.9161L251.204 111.035C252.272 112.36 254.132 112.587 255.452 111.52L253.508 113.114C252.183 114.182 250.327 113.949 249.255 112.631L228.024 86.0748C227.078 84.952 227.2 83.2691 228.149 82.2125L229.882 84.4278Z" fill="#87806A"/>
<mask id="mask1_2225_362" style="mask-type:luminance" maskUnits="userSpaceOnUse" x="244" y="86" width="41" height="33">
<path d="M244.77 94.563L278.61 86.4598L284.3 110.221L250.459 118.324L244.77 94.563Z" fill="white"/>
</mask>
<g mask="url(#mask1_2225_362)">
<path d="M274.576 88.157L250.494 107.447C248.673 108.938 248.397 111.556 249.815 113.4L250.777 114.592C252.265 116.42 254.886 116.69 256.726 115.273L280.807 95.9832L274.576 88.157Z" fill="#F9F7D7"/>
</g>
<mask id="mask2_2225_362" style="mask-type:luminance" maskUnits="userSpaceOnUse" x="246" y="87" width="39" height="30">
<path d="M246.246 95.4658L278.899 87.6471L284.02 109.032L251.367 116.851L246.246 95.4658Z" fill="white"/>
</mask>
<g mask="url(#mask2_2225_362)">
<path d="M251.121 108.499C249.924 109.463 250.048 111.538 251.344 113.181C252.636 114.824 254.634 115.322 255.849 114.433L280.126 95.0175C279.392 94.1433 278.726 93.2477 277.992 92.3735C277.131 91.2989 276.276 90.2279 275.416 89.1579C267.272 95.6176 259.196 102.056 251.121 108.499Z" fill="#E4DBD7"/>
</g>
<path d="M253.422 69.7779L235.825 83.8347C235.257 84.27 235.214 85.0312 235.65 85.6038L239.605 90.5207C240.045 91.0875 240.806 91.131 241.379 90.6946L258.975 76.6378C259.543 76.2025 259.585 75.4367 259.15 74.8687L255.195 69.9518C254.754 69.3803 253.993 69.3368 253.422 69.7779Z" fill="white"/>
<mask id="mask3_2225_362" style="mask-type:luminance" maskUnits="userSpaceOnUse" x="270" y="86" width="12" height="16">
<path d="M270.91 88.3032L278.614 86.4585L281.743 99.5271L274.039 101.372L270.91 88.3032Z" fill="white"/>
</mask>
<g mask="url(#mask3_2225_362)">
<path d="M271.609 90.5205C273.795 93.378 275.361 96.4573 276.271 99.6204L280.807 95.9826L274.576 88.1564L271.609 90.5205Z" fill="black" fill-opacity="0.2"/>
</g>
<path d="M275.501 98.6037L255.961 114.255C254.139 115.746 251.43 115.418 250.012 113.574L250.781 114.592C252.269 116.419 254.89 116.69 256.729 115.273L276.275 99.6206C275.296 96.4742 273.729 93.3949 271.613 90.5207L271.543 90.5374C273.36 93.1053 274.682 95.7968 275.501 98.6037Z" fill="black" fill-opacity="0.2"/>
<path d="M150.017 128.052L120.982 126.962C119.316 126.909 117.903 128.224 117.851 129.89L116.593 163.858C116.54 165.524 117.855 166.937 119.521 166.989L148.556 168.079C150.222 168.132 151.635 166.817 151.687 165.151L152.929 131.113C152.928 129.533 151.683 128.104 150.017 128.052Z" fill="#EBE564"/>
<path d="M120.348 129.97L120.067 136.951L119.09 163.937C119.038 165.603 120.352 167.016 122.018 167.068L119.521 166.989C117.855 166.937 116.541 165.524 116.593 163.858L117.835 129.821C117.847 128.316 118.993 127.139 120.448 126.943L120.348 129.97Z" fill="#87806A"/>
<path d="M151.756 161.979L120.98 160.854C118.623 160.742 116.655 162.567 116.543 164.925L116.461 166.446C116.348 168.804 118.169 170.772 120.525 170.88L151.301 172.005L151.756 161.979Z" fill="#F9F7D7"/>
<path d="M120.664 162.059C119.142 161.972 117.883 163.623 117.777 165.68C117.665 167.733 118.835 169.484 120.362 169.57L151.438 170.697C151.465 169.562 151.493 168.426 151.538 167.365C151.589 165.999 151.618 164.564 151.67 163.202C141.361 162.815 130.978 162.445 120.664 162.059Z" fill="#F7F5CE"/>
<path d="M147.743 134.23L125.224 133.386C124.533 133.325 123.925 133.922 123.934 134.597L123.713 140.887C123.653 141.578 124.25 142.186 124.925 142.177L147.427 142.952C148.114 143.013 148.722 142.416 148.712 141.741L148.933 135.451C149.01 134.83 148.413 134.222 147.743 134.23Z" fill="white"/>
<path d="M147.963 161.832C147.77 165.412 146.92 168.77 145.611 171.787L151.441 171.972L151.826 161.962L147.963 161.832Z" fill="black" fill-opacity="0.2"/>
<path d="M145.609 170.512L120.593 169.588C118.236 169.476 116.41 167.508 116.524 165.155L116.46 166.446C116.348 168.804 118.168 170.772 120.525 170.88L145.541 171.804C146.845 168.788 147.695 165.43 147.892 161.849L147.818 161.867C147.576 164.933 146.768 167.83 145.609 170.512Z" fill="black" fill-opacity="0.2"/>
<path d="M173.498 28.4228L144.459 27.334C142.792 27.2815 141.38 28.5962 141.327 30.2624L140.086 64.2997C140.033 65.9659 141.348 67.3783 143.014 67.4308L172.054 68.5196C173.72 68.5721 175.133 67.2574 175.185 65.5912L176.352 31.5717C176.405 29.9055 175.159 28.4718 173.498 28.4228Z" fill="#705647"/>
<path d="M143.83 30.3408L143.544 37.3231L142.572 64.3085C142.52 65.9747 143.834 67.3871 145.5 67.4396L142.999 67.3615C141.333 67.309 140.018 65.8966 140.07 64.2304L141.312 30.1931C141.328 28.6828 142.475 27.5101 143.929 27.3093L143.83 30.3408Z" fill="#87806A"/>
<path d="M175.233 62.346L144.459 61.226C142.106 61.1123 140.138 62.9377 140.025 65.2908L139.939 66.8177C139.825 69.1708 141.65 71.1381 144.008 71.2507L174.853 72.3587L175.233 62.346Z" fill="#F9F7D7"/>
<path d="M144.144 62.4242C142.623 62.3419 141.365 63.9926 141.254 66.0506C141.147 68.1029 142.317 69.8541 143.839 69.9411L174.913 71.0629C174.942 69.9324 174.974 68.7961 175.019 67.7351C175.065 66.3698 175.099 64.9338 175.15 63.5673C164.836 63.1811 154.453 62.8115 144.144 62.4242Z" fill="#F7F5CE"/>
<path d="M171.217 34.6018L148.698 33.7572C148.011 33.696 147.399 34.2941 147.413 34.9679L147.192 41.2575C147.131 41.9491 147.728 42.5569 148.398 42.5439L170.918 43.3931C171.609 43.4532 172.217 42.8562 172.207 42.1813L172.429 35.8917C172.489 35.2001 171.892 34.5923 171.217 34.6018Z" fill="white"/>
<path d="M171.445 62.2035C171.248 65.7838 170.398 69.1424 169.094 72.1584L174.923 72.3426L175.303 62.3299L171.445 62.2035Z" fill="black" fill-opacity="0.2"/>
<path d="M169.089 70.8839L144.073 69.9601C141.72 69.8464 139.894 67.8791 140.007 65.5214L139.939 66.8182C139.826 69.1713 141.651 71.1386 144.009 71.2512L169.025 72.175C170.329 69.159 171.179 65.8004 171.372 62.2212L171.302 62.2379C171.059 65.2992 170.252 68.201 169.089 70.8839Z" fill="black" fill-opacity="0.2"/>
<path d="M228.945 202.257C231.442 225.555 225.213 248.167 212.553 266.527C204.247 278.585 200.907 293.512 204.028 307.794C204.114 308.152 204.215 308.574 204.3 308.931L204.522 309.855C205.305 313.127 205.644 316.426 205.504 319.615L205.521 319.685C205.282 320.571 204.989 321.539 204.68 322.443C204.115 323.854 203.394 325.228 202.599 326.621C201.124 328.927 199.276 331.249 196.893 333.552C181.595 348.108 152.748 355.016 132.446 348.984C131.155 348.615 129.918 348.161 128.841 347.742C128.593 347.649 128.259 347.503 128.012 347.415C127.166 347.014 126.406 346.671 125.629 346.254C123.655 345.225 121.947 344.054 120.523 342.82C118.27 339.375 116.59 335.493 115.587 331.303L115.331 330.235C115.042 329.029 114.7 327.908 114.336 326.715C110.281 313.858 101.496 302.889 89.4527 296.529C64.9118 283.469 46.1138 259.863 40.4023 230.048C31.1299 181.918 60.4726 134.086 107.556 120.486C116.55 117.881 125.584 116.694 134.447 116.677L125.118 154.604L151.241 142.264L144.479 164.845L176.687 149.694L175.105 196.738L187.194 168.146L201.814 189.67L206.143 171.047L228.945 202.257Z" fill="#FFDD79" fill-opacity="0.75"/>
</svg>
