<svg width="223" height="206" viewBox="0 0 223 206" fill="none" xmlns="http://www.w3.org/2000/svg">
<path fill-rule="evenodd" clip-rule="evenodd" d="M77.3944 78.1243C77.2339 78.0123 77.2006 77.7912 77.3096 77.6307C77.4216 77.4702 77.6427 77.4369 77.8032 77.5459C77.8032 77.5459 108.008 98.9198 126.801 111.33C126.968 111.439 127.01 111.66 126.901 111.82C126.792 111.984 126.571 112.026 126.411 111.917C107.614 99.5043 77.3944 78.1243 77.3944 78.1243Z" fill="#885144"/>
<path fill-rule="evenodd" clip-rule="evenodd" d="M115.89 183.246C115.775 183.664 121.265 189.496 122.476 194.966C123.688 200.435 123.851 203.43 122.119 204.871C120.378 206.313 116.274 205.392 113.894 202.997C111.511 200.595 110.802 194.084 111.471 191.843C112.147 189.602 115.89 183.246 115.89 183.246ZM90.0098 173.174L94.628 181.06C94.628 181.06 94.6643 184.851 93.883 188.939C93.0987 193.024 92.9412 195.329 89.0165 194.59C85.0948 193.848 80.943 191.195 81.0672 188.358C81.1913 185.523 83.405 179.657 84.9525 177.795C86.506 175.936 90.0098 173.174 90.0098 173.174Z" fill="#283F63"/>
<path fill-rule="evenodd" clip-rule="evenodd" d="M124.101 167.345C124.101 167.345 143.912 162.242 140.063 167.012C136.211 171.781 123.84 186.005 122.523 188.161C121.206 190.318 123.174 196.968 122.656 197.682C122.135 198.397 119.355 198.143 117.269 196.856C115.185 195.566 114.068 190.021 114.462 187.94C114.852 185.86 115.967 182.683 118.353 177.405C120.739 172.126 124.101 167.345 124.101 167.345ZM106.851 154.244C107.109 154.147 124.407 160.637 115.815 165.373C107.224 170.113 97.7089 177.102 95.9192 179.473C94.1325 181.835 94.3172 186.992 93.4541 187.977C92.588 188.961 87.7518 187.416 87.2642 184.503C86.7767 181.587 87.7094 176.324 89.3356 174.083C90.9648 171.842 94.9319 166.897 99.0171 162.29C103.096 157.681 106.851 154.244 106.851 154.244Z" fill="#FAB48C"/>
<path fill-rule="evenodd" clip-rule="evenodd" d="M3.2168 61.5231C3.2168 61.5231 6.42984 72.4281 6.85986 73.267C7.28989 74.1058 11.0117 75.2657 11.0117 75.2657L8.45276 78.1244L13.3314 79.7385C13.3314 79.7385 11.157 81.7553 10.7755 82.0673C10.3939 82.3731 24.6603 85.8072 35.4684 88.6781C46.2734 91.552 61.2697 95.3586 62.4961 95.0254C63.7196 94.6923 88.037 71.5317 105.029 47.2083C105.029 47.2083 120.731 64.5908 145.209 72.4887C145.209 72.4887 212.634 53.1226 214.166 52.1202C215.693 51.1178 212.601 50.7726 204.006 47.8442C204.006 47.8442 216.41 46.5633 219.781 45.1036L221.334 28.3358C221.334 28.3358 166.64 18.4726 129.864 2.07422L116.509 4.89056C116.5 4.8845 51.034 52.2807 3.2168 61.5231Z" fill="#FFF0E0"/>
<path fill-rule="evenodd" clip-rule="evenodd" d="M185.186 50.5816C185.28 50.4121 185.498 50.3485 185.668 50.4484C185.834 50.5453 185.898 50.7573 185.801 50.9269C185.801 50.9269 175.181 69.8054 168.948 79.4688C168.842 79.6323 168.624 79.6747 168.461 79.5748C168.294 79.4688 168.252 79.2507 168.352 79.0872C174.581 69.439 185.186 50.5816 185.186 50.5816ZM117.758 25.7918C117.712 25.601 117.83 25.4163 118.021 25.3709C118.212 25.3255 118.4 25.4466 118.445 25.6374C118.445 25.6374 129.995 76.4465 137.075 106.415C137.121 106.606 137.003 106.796 136.812 106.842C136.621 106.887 136.433 106.772 136.388 106.581C129.308 76.607 117.758 25.7918 117.758 25.7918Z" fill="#885144"/>
<path fill-rule="evenodd" clip-rule="evenodd" d="M99.1005 36.413C98.9582 36.5402 98.7311 36.5342 98.6008 36.3858C98.4736 36.2404 98.4827 36.0193 98.6281 35.8891C108.291 27.1585 118.352 16.8773 127.994 4.98816C128.118 4.83674 128.342 4.81554 128.49 4.93668C128.642 5.06084 128.666 5.28191 128.545 5.43332C118.869 17.3558 108.788 27.6612 99.1005 36.413ZM44.7452 74.8606C44.5726 74.9423 44.3606 74.8727 44.2758 74.694C44.191 74.5214 44.2607 74.3094 44.4394 74.2246C44.4394 74.2246 63.6783 64.9156 87.7383 45.2497C87.8897 45.1255 88.1107 45.1467 88.2349 45.2981C88.3591 45.4495 88.3379 45.6706 88.1865 45.7948C64.0508 65.5212 44.7452 74.8606 44.7452 74.8606ZM47.8947 68.3466C47.7221 68.4375 47.5101 68.3709 47.4192 68.1952C47.3314 68.0226 47.398 67.8106 47.5706 67.7228C47.5706 67.7228 66.2069 58.1079 88.8799 39.5928C89.0283 39.4686 89.2524 39.4928 89.3766 39.6412C89.5007 39.7926 89.4765 40.0137 89.3281 40.1379C66.5885 58.7075 47.8947 68.3466 47.8947 68.3466ZM155.297 16.3534C155.121 16.2747 155.046 16.0597 155.13 15.884C155.215 15.7054 155.421 15.6297 155.6 15.7145C155.6 15.7145 183.969 28.9785 214.376 33.9873C214.567 34.0176 214.701 34.1993 214.664 34.3962C214.637 34.5839 214.452 34.7172 214.261 34.6869C183.754 29.6629 155.297 16.3534 155.297 16.3534ZM123.927 14.3396C88.3591 60.3065 39.5274 83.4792 39.5274 83.4792C39.4608 83.5094 39.3821 83.5216 39.3064 83.5064C36.5657 82.9583 11.467 75.7872 11.467 75.7872C11.2793 75.7327 11.1702 75.5389 11.2217 75.3481C11.2762 75.1604 11.4701 75.0513 11.6578 75.1028C11.6578 75.1028 33.81 81.4381 38.7249 82.6433C37.6378 79.9421 33.8826 69.0886 33.8826 69.0886C33.819 68.9008 33.916 68.701 34.0976 68.6404C34.2793 68.5768 34.4853 68.6767 34.5458 68.8584C34.5458 68.8584 38.7219 80.9445 39.5123 82.6978C43.8125 80.5962 95.2031 54.8101 129.366 5.74221C129.478 5.58171 129.699 5.54234 129.859 5.65439C129.862 5.65742 129.868 5.66347 129.871 5.66347C129.92 5.67256 129.965 5.68467 130.008 5.71193C130.008 5.71193 130.089 5.76038 130.241 5.85729C130.271 5.87243 130.301 5.8906 130.329 5.9118C130.329 5.9118 130.338 5.92088 130.359 5.93905C133.572 7.95591 157.959 23.1793 174.812 30.2171C192.885 37.7606 219.11 44.2745 219.11 44.2745C219.301 44.323 219.413 44.5138 219.361 44.6985C219.319 44.8863 219.128 45.0044 218.94 44.9559C218.94 44.9559 192.654 38.4269 174.542 30.8651C161.793 25.5414 144.74 15.5449 135.758 10.0909C143.181 15.7296 156.763 25.7624 167.192 31.8433C182.294 40.6496 203.353 47.2181 203.353 47.2181C203.535 47.2756 203.641 47.4755 203.587 47.6632C203.526 47.848 203.326 47.9509 203.144 47.8934C203.144 47.8934 182.007 41.2977 166.841 32.455C152.157 23.894 131.228 7.51378 129.956 6.51443C129.88 6.46598 129.817 6.42661 129.768 6.39633C129.063 7.40173 128.354 8.40107 127.639 9.38528C127.636 9.40345 127.627 9.41556 127.618 9.43373C126.864 10.7783 126.089 12.1138 125.292 13.4402C117.752 26.7951 105.793 46.9213 105.793 46.9213C105.696 47.0909 105.478 47.1424 105.309 47.0454C105.142 46.9485 105.088 46.7305 105.184 46.5639C105.184 46.5639 111.798 35.4318 118.285 24.2422C91.5751 62.502 52.7642 89.4995 52.3826 89.6902C52.3251 89.7145 52.2373 89.7478 52.104 89.7478C51.9496 89.7508 51.6922 89.7235 51.35 89.663C49.5542 89.3511 45.1056 88.1488 40.0301 86.6892C33.7131 84.8722 13.814 80.2146 13.814 80.2146C13.6232 80.1692 13.5081 79.9784 13.5505 79.7876C13.5959 79.5968 13.7867 79.4818 13.9775 79.5272C13.9775 79.5272 33.9008 84.1878 40.23 86.0108C45.2721 87.4614 49.6905 88.6606 51.4741 88.9665C51.7467 89.0149 52.0283 89.0331 52.101 89.0361C53.4849 88.1549 97.9286 56.939 123.927 14.3396Z" fill="#E4B53C"/>
<mask id="mask0_2280_313" style="mask-type:luminance" maskUnits="userSpaceOnUse" x="0" y="0" width="223" height="71">
<path d="M0 0H222.26V70.3933H0V0Z" fill="white"/>
</mask>
<g mask="url(#mask0_2280_313)">
<path fill-rule="evenodd" clip-rule="evenodd" d="M0.455968 60.6216C0.0259472 60.7942 12.7176 64.7492 19.2951 66.6449C25.8726 68.5376 34.1763 70.3304 34.8486 70.1941C35.5178 70.0548 67.1547 54.3076 95.5088 30.1083C123.863 5.91503 125.801 3.3349 126.888 3.09566C127.975 2.85643 129.108 2.55662 129.914 2.89882C130.722 3.24102 153.123 12.4774 173.848 18.8429C194.577 25.2115 221.042 29.8024 221.611 29.5389C222.183 29.2725 222.444 26.0806 222.074 25.7657C221.702 25.4507 195.607 22.0015 174.802 15.6692C154.001 9.34914 132.373 1.03944 130.952 0.65181C129.532 0.261157 127.409 0.461027 119.79 2.11449C112.228 3.74978 86.2301 10.6392 72.3483 12.0989C72.1544 12.117 71.9758 12.2109 71.8425 12.3563C70.5131 13.7977 62.7969 21.9772 50.6443 31.2711C35.6693 42.7182 16.1093 54.2137 0.455968 60.6216Z" fill="#368A83"/>
</g>
<path fill-rule="evenodd" clip-rule="evenodd" d="M143.205 103.714C143.205 103.714 132.561 103.148 129.472 104.635C126.386 106.119 115.384 118.526 111.49 123.295C107.598 128.068 105.27 132.341 112.271 139.53C119.27 146.722 152.415 112.006 152.415 112.006L143.205 103.714Z" fill="#E4B53C"/>
<path fill-rule="evenodd" clip-rule="evenodd" d="M137.204 74.6326C137.204 74.6326 133.364 75.3806 129.793 80.6166C126.22 85.8495 126.465 88.0511 121.429 88.1723C116.396 88.2964 111.16 87.8391 107.547 91.3308C103.931 94.8194 106.827 92.533 111.417 92.739C111.417 92.739 108.731 94.3046 107.408 98.8259C106.088 103.347 106.942 101.573 110.594 100.143C114.243 98.7138 117.695 100.449 121.617 102.472C125.532 104.495 132.14 103.414 134.814 95.9914C134.814 95.9914 134.863 102.511 144.756 107.214C154.653 111.92 171.178 103.159 171.178 103.159L172.853 94.3591C172.853 94.3591 175.787 88.3176 175.572 85.6285C175.357 82.9272 174.622 77.8275 171.375 74.1754C168.571 71.0229 165.285 68.6426 157.463 67.8098C149.644 66.971 141.861 68.7062 137.204 74.6326Z" fill="#283F63"/>
<path fill-rule="evenodd" clip-rule="evenodd" d="M136.689 75.2928C136.801 75.1323 137.022 75.099 137.183 75.208C137.343 75.3201 137.379 75.5412 137.267 75.7017C137.267 75.7017 132.719 82.1338 134.866 94.9708C134.899 95.1616 134.769 95.3433 134.578 95.3797C134.387 95.41 134.206 95.2828 134.169 95.092C131.962 81.8976 136.689 75.2928 136.689 75.2928Z" fill="#E4B53C"/>
<path fill-rule="evenodd" clip-rule="evenodd" d="M180.078 104.207C180.078 104.207 187.043 102.121 190.559 101.115C194.078 100.107 195.901 99.2134 196.501 98.5472C197.094 97.881 198.3 95.7521 199.472 93.817C200.653 91.8849 202.887 89.4804 204.223 89.7318C204.223 89.7318 204.965 88.8445 205.825 89.2715C206.685 89.6924 206.276 90.8008 206.276 90.8008C206.276 90.8008 207.269 90.9613 207.133 92.4482C207 93.929 205.08 97.6236 204.707 99.2801C204.326 101.012 205.683 99.2861 206.761 98.7077C208.505 97.7659 209.565 98.7864 208.811 99.7101C208.126 100.534 206.855 101.881 205.244 103.656C203.632 105.431 201.64 105.852 198.954 106.575C196.271 107.299 187.637 112.623 180.181 115.164C172.719 117.695 180.078 104.207 180.078 104.207Z" fill="#FAB48C"/>
<path fill-rule="evenodd" clip-rule="evenodd" d="M203.805 89.7864C203.926 89.635 204.153 89.6138 204.299 89.738C204.453 89.8621 204.474 90.0832 204.356 90.2346C204.356 90.2346 202.706 92.2575 201.304 94.9528C201.21 95.1254 201.004 95.192 200.828 95.1042C200.653 95.0163 200.589 94.8044 200.674 94.6287C202.121 91.8608 203.805 89.7864 203.805 89.7864ZM205.692 90.7797C205.825 90.6465 206.049 90.6495 206.182 90.7888C206.316 90.9251 206.316 91.1522 206.173 91.2885C206.173 91.2885 205.147 92.2878 203.266 96.0853C203.172 96.258 202.963 96.3337 202.791 96.2458C202.612 96.155 202.542 95.946 202.627 95.7704C204.599 91.8094 205.692 90.7797 205.692 90.7797Z" fill="#E4B53C"/>
<path fill-rule="evenodd" clip-rule="evenodd" d="M118.016 109.267C118.016 109.267 111.175 109.694 107.896 109.601C104.619 109.507 101.127 109.601 101.127 109.601C101.127 109.601 100.891 107.499 99.686 106.275C98.4777 105.049 97.6903 104.513 96.4548 103.386C95.2192 102.26 94.5318 101.145 93.8565 101.327C93.1812 101.509 92.8087 103.638 93.7717 105.222C94.7347 106.811 94.4743 106.927 93.3387 106.381C92.091 105.785 89.1414 103.623 88.1602 103.099C87.176 102.575 85.8193 102.872 86.6218 104.216C86.6218 104.216 85.7345 103.701 85.25 104.319C84.7685 104.934 85.8617 106.451 85.8617 106.451C85.8617 106.451 84.9532 105.915 84.7201 106.563C84.4839 107.211 85.0471 108.38 86.4886 110.079C86.4886 110.079 85.4893 109.325 85.0259 109.858C84.5596 110.391 85.4378 111.424 86.7945 112.947C88.1511 114.467 90.065 115.615 90.9099 116.405C91.7548 117.196 95.7855 119.276 99.7254 118.319C99.7254 118.319 103.953 118.649 107.284 119.324C110.615 120 118.237 121.22 118.571 121.235C118.904 121.25 121.638 115.354 118.016 109.267Z" fill="#FAB48C"/>
<path fill-rule="evenodd" clip-rule="evenodd" d="M86.3338 110.374C86.1945 110.237 86.1945 110.013 86.3338 109.874C86.47 109.735 86.6911 109.735 86.8334 109.874C86.8334 109.874 88.4445 111.479 89.4529 112.209C89.6074 112.327 89.6437 112.548 89.5317 112.702C89.4166 112.857 89.1955 112.893 89.038 112.781C87.9963 112.027 86.3338 110.374 86.3338 110.374ZM85.822 107.03C85.6796 106.891 85.6796 106.67 85.8189 106.528C85.9552 106.391 86.1763 106.385 86.3186 106.525C86.3186 106.525 89.0653 109.199 90.8793 110.537C91.0337 110.652 91.07 110.876 90.955 111.031C90.8399 111.185 90.6188 111.222 90.4644 111.107C88.6141 109.75 85.822 107.03 85.822 107.03ZM86.5427 104.638C86.4095 104.496 86.4186 104.275 86.5579 104.141C86.7002 104.008 86.9273 104.017 87.0606 104.16C87.0606 104.16 89.0926 106.334 92.0997 108.578C92.2541 108.693 92.2905 108.914 92.1693 109.068C92.0543 109.226 91.8332 109.256 91.6787 109.141C88.6141 106.855 86.5427 104.638 86.5427 104.638ZM94.277 107.703C94.2831 107.509 94.4466 107.351 94.6374 107.357C94.8312 107.36 94.9887 107.521 94.9826 107.718C94.9826 107.718 94.8948 111.328 97.7112 113.063C97.8747 113.163 97.9292 113.381 97.8262 113.55C97.7233 113.714 97.5083 113.768 97.3417 113.665C94.1922 111.727 94.277 107.703 94.277 107.703ZM100.897 109.98C100.882 109.783 101.033 109.62 101.23 109.607C101.424 109.598 101.587 109.744 101.603 109.938L101.721 112.082C101.736 112.275 101.584 112.442 101.388 112.454C101.194 112.463 101.03 112.318 101.015 112.121L100.897 109.98Z" fill="#E4B53C"/>
<path fill-rule="evenodd" clip-rule="evenodd" d="M169.743 104.495C169.743 104.495 179.991 102.672 180.718 102.993C181.445 103.311 182.277 106.936 181.978 110.848C181.681 114.761 180.815 117.862 180.521 118.186C180.23 118.51 170.085 122.208 164.092 126.187C158.102 130.166 161.412 109.307 169.743 104.495Z" fill="#FFF0E0"/>
<path fill-rule="evenodd" clip-rule="evenodd" d="M134.179 109.035C134.179 109.035 138.664 106.682 145.386 106.373C152.1 106.061 167.96 105.389 167.96 105.389C167.96 105.389 169.198 109.522 167.938 117.768C166.679 126.018 162.627 131.375 158.772 139.927C154.917 148.479 152.106 154.481 150.744 158.633C149.387 162.784 148.908 167.066 148.312 167.442C147.718 167.82 139.139 168.456 134.176 169.477C129.212 170.504 126.478 171.227 119.688 168.275C112.896 165.322 108.771 162.787 106.345 157.679C103.917 152.567 101.109 146.313 101.155 145.653C101.197 144.993 109.813 139.966 114.286 135.866C118.755 131.771 127.465 122.629 127.465 122.629L134.179 109.035Z" fill="#885144"/>
<path fill-rule="evenodd" clip-rule="evenodd" d="M148.635 108.262C150.791 107.947 161.672 110.709 161.672 110.709C161.672 110.709 157.118 115.812 153.263 114.715C149.414 113.619 148.635 108.262 148.635 108.262ZM117.465 108.616C117.825 108.177 126.504 108.94 132.361 108.165C138.215 107.387 140.111 107.117 140.895 107.777C141.679 108.438 141.667 113.931 139.326 118.428C136.982 122.928 133.279 125.375 129.593 126.386C125.911 127.398 126.38 126.359 124.185 125.726C121.989 125.09 117.265 125.317 117.353 124.376C117.444 123.437 118.155 119.512 118.295 115.863C118.428 112.214 117.101 109.055 117.465 108.616Z" fill="#FFF0E0"/>
<path fill-rule="evenodd" clip-rule="evenodd" d="M151.468 122.217C151.268 121.865 150.935 121.326 150.544 120.824C150.151 120.318 149.705 119.842 149.272 119.715C148.903 119.609 148.561 119.752 148.282 120C147.794 120.439 147.473 121.196 147.47 121.832C147.47 122.271 147.788 122.529 148.379 122.616C149.085 122.728 150.111 122.607 151.468 122.217ZM155.774 121.378C155.704 121.287 155.583 121.242 155.447 121.214C155.25 121.178 155.017 121.187 154.76 121.232C154.018 121.366 153.13 121.796 152.488 122.413C152.755 122.653 153.209 123.025 153.712 123.295C154.172 123.543 154.678 123.725 155.096 123.531C156.119 123.052 156.259 121.996 155.774 121.378ZM152.643 123.446C152.861 124.503 153.027 126.217 152.558 128.331C152.513 128.522 152.328 128.64 152.137 128.597C151.946 128.552 151.825 128.364 151.871 128.173C152.388 125.86 152.089 124.049 151.859 123.161C150.066 125.29 147.077 127.495 147.077 127.495C146.919 127.61 146.698 127.577 146.583 127.419C146.468 127.265 146.504 127.044 146.659 126.929C146.659 126.929 149.254 125.021 151.005 123.068C149.515 123.428 148.437 123.431 147.776 123.192C147.098 122.95 146.771 122.471 146.774 121.832C146.774 121.011 147.192 120.033 147.822 119.476C148.288 119.058 148.863 118.858 149.481 119.04C149.902 119.164 150.344 119.512 150.747 119.961C151.307 120.572 151.801 121.366 152.074 121.844C152.967 121.03 154.221 120.515 155.126 120.491C155.668 120.478 156.098 120.642 156.337 120.945C157.055 121.862 156.931 123.455 155.402 124.17C154.799 124.452 154.054 124.276 153.388 123.922C153.118 123.779 152.864 123.61 152.643 123.446Z" fill="#FFF0E0"/>
<path fill-rule="evenodd" clip-rule="evenodd" d="M143.071 93.6931C143.071 93.6931 141.803 90.8102 139.507 91.2008C137.209 91.5915 135.943 94.6652 136.503 97.4028C137.066 100.143 139.177 102.442 141.697 100.946C141.697 100.946 143.935 107.717 152.011 110.428C160.533 113.283 166.402 109.81 169.778 106.306C173.788 102.145 173.176 98.8382 173.055 96.355C172.937 93.8718 173.37 91.2735 173.167 90.2106C172.958 89.1507 170.623 82.452 166.868 78.491C166.868 78.491 167.141 82.8487 166.892 83.7088C166.641 84.5688 165.142 84.4749 165.142 84.4749C165.142 84.4749 164.978 81.0953 163.758 77.7188C163.758 77.7188 163.413 83.5846 162.955 84.2084C162.501 84.8353 160.287 84.3962 160.287 84.3962C160.287 84.3962 160.811 82.0008 160.751 80.953C160.687 79.9082 159.376 83.624 158.186 84.3508C157.565 84.7323 147.544 85.3017 146.515 85.8256C145.473 86.3404 143.68 89.938 143.071 93.6931Z" fill="#FAB48C"/>
<path fill-rule="evenodd" clip-rule="evenodd" d="M141.473 95.0555C141.572 95.2191 141.524 95.4371 141.354 95.5431C141.191 95.6461 140.973 95.5976 140.867 95.428C140.867 95.428 140.722 95.1979 140.491 95.0253C140.313 94.892 140.064 94.7891 139.795 94.9768C139.459 95.21 139.31 95.5916 139.289 96.0216C139.268 96.5091 139.398 97.0573 139.643 97.5539C139.795 97.8689 139.958 98.0354 140.149 98.0839C140.443 98.1565 140.734 97.9385 140.979 97.6962C141.115 97.5569 141.339 97.5539 141.479 97.6902C141.618 97.8295 141.621 98.0506 141.485 98.1929C141.064 98.6168 140.503 98.8924 139.989 98.7743C139.643 98.6895 139.289 98.4321 139.014 97.8628C138.659 97.133 138.505 96.3062 138.632 95.6218C138.729 95.1191 138.977 94.6861 139.398 94.3984C139.989 93.9896 140.528 94.1682 140.921 94.462C141.258 94.7133 141.473 95.0555 141.473 95.0555Z" fill="#E4B53C"/>
<path fill-rule="evenodd" clip-rule="evenodd" d="M160.545 93.9072C160.611 93.7255 160.811 93.6255 160.999 93.6891C161.181 93.7557 161.278 93.9556 161.214 94.1403C161.214 94.1403 161.078 94.528 161.066 94.9035C161.06 95.0095 161.066 95.1185 161.09 95.2093C161.105 95.2638 161.126 95.3123 161.166 95.3426C161.269 95.4243 161.393 95.4455 161.514 95.4667C161.632 95.491 161.756 95.5031 161.871 95.5243C162.277 95.606 162.634 95.7635 162.807 96.3601C163.101 97.3443 162.441 98.2255 161.481 98.8524C161.317 98.9584 161.099 98.913 160.993 98.7494C160.887 98.5859 160.932 98.3679 161.096 98.2619C161.459 98.0226 161.783 97.7471 161.983 97.4321C162.153 97.1656 162.226 96.8749 162.135 96.56C162.041 96.239 161.805 96.2269 161.581 96.1935C161.281 96.1511 160.984 96.1027 160.733 95.9058C160.506 95.7332 160.39 95.4577 160.36 95.1427C160.312 94.5855 160.545 93.9072 160.545 93.9072Z" fill="#283F63"/>
<path fill-rule="evenodd" clip-rule="evenodd" d="M165.691 86.795C165.485 86.9373 165.2 86.8858 165.055 86.6769C164.912 86.4679 164.964 86.1802 165.173 86.0379C165.173 86.0379 167.135 84.7084 169.046 85.7714C169.267 85.8955 169.349 86.1742 169.222 86.3982C169.098 86.6193 168.819 86.6981 168.598 86.5739C167.165 85.7774 165.691 86.795 165.691 86.795ZM151.882 87.6611C151.679 87.8064 151.391 87.764 151.246 87.5551C151.097 87.3522 151.143 87.0614 151.346 86.9161C151.346 86.9161 153.741 85.196 156.4 85.9925C156.642 86.0651 156.781 86.3225 156.706 86.5648C156.633 86.8101 156.376 86.9464 156.133 86.8767C153.898 86.2014 151.882 87.6611 151.882 87.6611Z" fill="#283F63"/>
<path fill-rule="evenodd" clip-rule="evenodd" d="M167.5 87.9722C165.293 87.9722 163.509 89.8467 163.509 92.1513C163.509 94.4528 165.293 96.3273 167.5 96.3273C169.705 96.3273 171.492 94.4528 171.492 92.1513C171.489 89.8467 169.705 87.9722 167.5 87.9722ZM154.618 88.375C152.256 88.375 150.339 90.3222 150.339 92.7206C150.339 95.119 152.256 97.0693 154.618 97.0693C156.983 97.0693 158.9 95.119 158.9 92.7206C158.894 90.3252 156.98 88.375 154.618 88.375ZM149.676 92.0392L143.059 92.2512C142.862 92.2573 142.699 92.1059 142.695 91.909C142.689 91.7152 142.841 91.5517 143.038 91.5456L149.824 91.3306C150.424 89.2168 152.344 87.6694 154.615 87.6694C156.774 87.6694 158.615 89.0624 159.309 91.0157C159.809 90.7613 161.429 90.0739 162.985 90.7976C163.548 88.7565 165.362 87.2666 167.5 87.2666C169.529 87.2666 171.262 88.6112 171.919 90.4918L173.748 90.3494C173.942 90.3343 174.111 90.4766 174.123 90.6735C174.139 90.8673 173.996 91.0369 173.799 91.049L172.107 91.1792C172.167 91.4941 172.197 91.8182 172.197 92.1513C172.197 94.8525 170.093 97.0329 167.5 97.0329C164.914 97.0329 162.804 94.8465 162.804 92.1513C162.804 91.9332 162.816 91.7243 162.843 91.5153C161.25 90.6492 159.521 91.7031 159.521 91.7031C159.515 91.7061 159.512 91.7061 159.509 91.7122C159.572 92.0392 159.609 92.3754 159.609 92.7206C159.609 95.5127 157.374 97.7749 154.624 97.7749C151.874 97.7749 149.636 95.5127 149.636 92.7206C149.633 92.4905 149.645 92.2603 149.676 92.0392Z" fill="#283F63"/>
<path fill-rule="evenodd" clip-rule="evenodd" d="M168.141 89.502C168.868 89.502 169.464 90.1954 169.464 91.0494C169.464 91.9064 168.868 92.5969 168.141 92.5969C167.414 92.5969 166.821 91.9064 166.821 91.0494C166.821 90.1985 167.408 89.502 168.141 89.502ZM155.322 90.0561C156.094 90.0561 156.724 90.792 156.724 91.6975C156.724 92.603 156.097 93.3388 155.322 93.3388C154.55 93.3388 153.92 92.603 153.92 91.6975C153.92 90.792 154.55 90.0561 155.322 90.0561Z" fill="#283F63"/>
<path fill-rule="evenodd" clip-rule="evenodd" d="M154.848 102.748C154.706 102.239 154.645 101.715 154.666 101.203C154.678 100.982 157.431 101.47 159.83 101.476C163.115 101.479 165.047 100.831 165.214 101.143C165.329 101.351 164.932 103.701 163.591 105.364C162.934 106.182 162.046 106.833 160.88 106.984C157.958 107.357 155.523 105.17 154.848 102.748Z" fill="#283F63"/>
<path fill-rule="evenodd" clip-rule="evenodd" d="M163.588 105.364C162.931 106.182 162.044 106.833 160.878 106.984C157.959 107.357 155.521 105.17 154.846 102.747C156.499 102.496 160.887 102.193 163.588 105.364Z" fill="#E4B53C"/>
</svg>
