<svg width="83" height="164" viewBox="0 0 83 164" fill="none" xmlns="http://www.w3.org/2000/svg">
<path d="M52.7974 146.41C53.1084 147.119 53.4943 147.812 53.9373 148.487C54.0476 148.656 54.1618 148.824 54.2779 148.991C54.398 149.153 54.526 149.308 54.654 149.466C54.9119 149.777 55.1816 150.082 55.4632 150.381C55.7447 150.678 56.0361 150.968 56.3354 151.251C56.485 151.393 56.6366 151.537 56.7922 151.669C56.9497 151.799 57.1111 151.927 57.2726 152.053C57.9183 152.557 58.5878 153.023 59.2631 153.455C59.5348 152.858 59.5269 152.055 59.2828 151.058C59.0426 150.056 58.5444 148.893 57.8967 147.483C57.5659 146.788 57.2017 146.089 56.8099 145.398C56.6189 145.049 56.4319 144.685 56.2291 144.337C56.0302 143.988 55.8235 143.644 55.6108 143.305C55.4002 142.966 55.1836 142.634 54.9611 142.309C54.7485 141.972 54.5319 141.639 54.3114 141.317C53.8664 140.677 53.3919 140.086 52.9155 139.529C52.3839 140.275 52.0531 141.267 52.0059 142.439C51.9822 143.025 52.0295 143.656 52.1555 144.325C52.2815 144.994 52.4804 145.709 52.7974 146.41Z" fill="#F5D06F"/>
<path d="M44.7081 138.73C44.7455 138.929 44.7849 139.131 44.8322 139.328C44.8834 139.523 44.9385 139.716 44.9995 139.909C45.1196 140.297 45.2574 140.681 45.413 141.059C45.5685 141.439 45.7398 141.813 45.9268 142.183C46.0214 142.366 46.1178 142.551 46.2182 142.732C46.3226 142.908 46.4348 143.081 46.547 143.252C46.9999 143.937 47.5019 144.595 48.0394 145.213C48.3052 145.53 48.5966 145.814 48.8919 146.089C49.1873 146.365 49.4885 146.631 49.7957 146.883C50.7545 145.432 50.7112 143.053 50.0103 139.927C49.9197 139.543 49.8153 139.159 49.7051 138.777C49.6007 138.389 49.4924 137.995 49.3723 137.609C49.1321 136.838 48.8664 136.076 48.5553 135.359C48.2659 134.617 47.9508 133.898 47.6004 133.227C47.4291 132.888 47.2401 132.567 47.0589 132.244C46.8817 131.917 46.6888 131.61 46.4939 131.311C45.7477 132.085 45.1551 133.134 44.8085 134.406C44.4738 135.666 44.4207 137.121 44.7081 138.73Z" fill="#F5D06F"/>
<path d="M37.7369 130.169C37.7329 130.589 37.7507 131.008 37.7861 131.427C37.8058 131.638 37.8274 131.847 37.857 132.055C37.8885 132.262 37.9278 132.463 37.9712 132.668C38.1464 133.477 38.3945 134.274 38.7016 135.05C38.7804 135.243 38.8611 135.436 38.9457 135.627C39.0363 135.812 39.1308 135.993 39.2273 136.174C39.4242 136.536 39.6329 136.889 39.8534 137.233C40.2983 137.919 40.7709 138.582 41.3222 139.149C41.6706 138.763 41.966 138.31 42.2121 137.797C42.4582 137.283 42.6511 136.712 42.8126 136.072C43.1256 134.802 43.2516 133.321 43.1906 131.693C43.1237 128.374 42.3716 125.182 41.141 122.686C40.1901 123.424 39.3494 124.448 38.737 125.716C38.4299 126.352 38.1799 127.047 38.0007 127.799C37.8392 128.535 37.7447 129.33 37.7369 130.169Z" fill="#F5D06F"/>
<path d="M31.9519 120.878C31.7963 121.721 31.7274 122.575 31.7372 123.428C31.7412 123.64 31.7491 123.853 31.7609 124.066C31.7747 124.276 31.8022 124.481 31.8298 124.69C31.8869 125.103 31.9637 125.515 32.0562 125.92C32.1507 126.328 32.259 126.729 32.383 127.125C32.446 127.322 32.511 127.521 32.5839 127.712C32.6606 127.901 32.7414 128.088 32.826 128.275C33.1647 129.015 33.5584 129.722 33.9955 130.378C34.9012 129.624 35.6533 128.57 36.2381 127.293C36.8307 126.009 37.2225 124.53 37.5158 122.845C37.6478 122.012 37.7245 121.187 37.7482 120.384C37.7954 119.563 37.7974 118.758 37.7423 117.986C37.7147 117.6 37.6793 117.218 37.6182 116.852C37.5769 116.474 37.5198 116.105 37.4509 115.747C37.313 115.029 37.1103 114.357 36.8701 113.719C35.7281 114.365 34.6708 115.3 33.8085 116.503C33.3793 117.104 32.9973 117.773 32.6803 118.506C32.3633 119.238 32.0995 120.041 31.9519 120.878Z" fill="#F5D06F"/>
<path d="M27.4457 110.986C27.2803 111.402 27.1602 111.815 27.0559 112.232C26.9535 112.65 26.8708 113.071 26.8098 113.496C26.7468 113.92 26.7054 114.345 26.6838 114.77C26.6719 114.983 26.6641 115.195 26.6641 115.408C26.67 115.617 26.6818 115.826 26.6975 116.032C26.7605 116.863 26.8964 117.684 27.0952 118.478C27.1878 118.877 27.3236 119.257 27.4713 119.629C27.617 120.001 27.7784 120.366 27.9537 120.716C30.1509 119.369 31.8579 116.78 32.9841 113.528C33.118 113.124 33.2361 112.723 33.3385 112.321C33.4507 111.917 33.557 111.512 33.6437 111.11C33.8169 110.311 33.9311 109.525 33.9823 108.763C34.0591 107.991 34.0709 107.247 34.0177 106.534C33.9921 106.176 33.9488 105.828 33.8917 105.489C33.8484 105.143 33.7894 104.806 33.7145 104.479C32.4308 104.979 31.1747 105.778 30.0702 106.873C28.9913 107.956 28.0836 109.332 27.4457 110.986Z" fill="#F5D06F"/>
<path d="M24.3 100.64C23.3825 102.193 22.9336 103.861 22.7446 105.542C22.6895 105.966 22.6934 106.375 22.6973 106.789C22.7072 107.202 22.7328 107.612 22.7781 108.017C22.8234 108.421 22.8844 108.822 22.9631 109.214C22.9828 109.313 23.0045 109.411 23.0261 109.508C23.0537 109.602 23.0813 109.699 23.1088 109.793C23.164 109.982 23.225 110.169 23.288 110.354C23.9141 110.086 24.5225 109.734 25.1072 109.313C25.3986 109.102 25.6841 108.874 25.9637 108.627C26.1035 108.505 26.2413 108.379 26.3771 108.248C26.5169 108.116 26.6547 107.98 26.7906 107.84C27.8754 106.724 28.8579 105.363 29.6435 103.841C30.051 103.077 30.4094 102.304 30.6909 101.542C30.9764 100.78 31.1772 100.031 31.3702 99.2833C31.4607 98.9092 31.5336 98.541 31.5887 98.1788C31.6399 97.8165 31.6714 97.4582 31.6852 97.1077L31.693 96.8459L31.7068 96.582C31.7127 96.4068 31.7167 96.2335 31.7127 96.0623C31.7088 95.7197 31.6871 95.383 31.6458 95.0542C30.2617 95.3771 28.8697 95.9953 27.5919 96.9246C27.273 97.1589 26.9599 97.4109 26.6567 97.6826C26.5051 97.8185 26.3535 97.9583 26.2098 98.104C26.068 98.2497 25.9282 98.3993 25.7924 98.5529C25.245 99.1691 24.7469 99.8661 24.3 100.64Z" fill="#F5D06F"/>
<path d="M22.5287 90.0003C21.9814 90.7012 21.5069 91.4533 21.117 92.231C20.7567 93.0068 20.4752 93.814 20.2684 94.6311C20.1641 95.0386 20.0794 95.4501 20.0145 95.8616C19.9633 96.2711 19.9357 96.6787 19.9259 97.0843C19.9062 97.8954 19.9593 98.6987 20.0853 99.4705C21.4498 99.1024 22.8063 98.3975 24.0723 97.4426C24.7062 96.9622 25.3166 96.4208 25.8954 95.8262C26.4723 95.2316 27.0059 94.5838 27.5453 93.8809C28.6066 92.4791 29.3232 91.0497 29.8843 89.6302C30.0182 89.2758 30.1324 88.9234 30.2269 88.5729C30.3254 88.2225 30.3884 87.8759 30.473 87.5294C30.6187 86.8383 30.6778 86.1591 30.664 85.4976C29.2307 85.6255 27.758 86.0429 26.3561 86.7852C25.6552 87.1553 24.976 87.6082 24.3184 88.1437C23.9856 88.4134 23.6844 88.7009 23.3871 89.01C23.0898 89.3191 22.8024 89.6479 22.5287 90.0003Z" fill="#F5D06F"/>
<path d="M22.1486 79.2191C21.5166 79.8393 20.9515 80.5166 20.4613 81.2353C20.2092 81.5936 19.9986 81.9637 19.8056 82.3398C19.6107 82.7158 19.4355 83.1017 19.278 83.4916C19.1224 83.8814 18.9826 84.2752 18.8645 84.6748C18.8035 84.8717 18.7483 85.0726 18.6991 85.2734C18.6558 85.4722 18.6204 85.6731 18.5869 85.8719C18.4609 86.6713 18.4097 87.4726 18.4333 88.2523C19.8627 88.077 21.3256 87.5691 22.7235 86.7992C24.1233 86.0275 25.4287 84.9997 26.673 83.7593C27.2833 83.1391 27.8208 82.4993 28.2875 81.8476C28.7619 81.1978 29.1892 80.5363 29.5239 79.8708C30.1677 78.536 30.6639 77.1971 30.7721 75.8819C29.3388 75.8111 27.8366 76.0217 26.356 76.5632C25.6177 76.8349 24.8833 77.1873 24.1706 77.6283C23.8142 77.8488 23.4578 78.091 23.1212 78.3568C22.7884 78.6206 22.4636 78.91 22.1486 79.2191Z" fill="#F5D06F"/>
<path d="M23.1559 68.4825C22.4648 69.0101 21.8269 69.6047 21.252 70.2485C20.9665 70.5694 20.6889 70.9022 20.4428 71.2487C20.2065 71.5952 19.986 71.9516 19.7813 72.3178C19.3757 73.0463 19.0331 73.8062 18.7752 74.578C18.5488 75.3518 18.3913 76.1374 18.3125 76.9131C19.7517 76.9367 21.2678 76.6355 22.7483 76.0645C23.4906 75.779 24.2191 75.4286 24.9259 75.0132C25.6524 74.6017 26.3592 74.1291 27.0286 73.5995C27.3633 73.3337 27.6803 73.06 27.9796 72.7824C28.2788 72.5029 28.5545 72.2154 28.84 71.928C29.3952 71.3511 29.8894 70.7545 30.2871 70.1383C30.673 69.52 31.0471 68.8999 31.3286 68.2659C31.4704 67.9489 31.5924 67.6299 31.6948 67.3071C31.7992 66.9881 31.874 66.6632 31.9626 66.3443C31.2715 66.2104 30.5529 66.1454 29.8146 66.1553C29.0802 66.1651 28.3419 66.2517 27.5917 66.4211C26.8436 66.5924 26.0915 66.8444 25.3453 67.185C24.9731 67.3543 24.601 67.5473 24.2329 67.7638C23.8647 67.9784 23.4945 68.2167 23.1559 68.4825Z" fill="#F5D06F"/>
<path d="M25.5701 57.9609C25.3811 58.0672 25.1921 58.1775 25.009 58.2936C24.8298 58.4098 24.6565 58.5319 24.4853 58.6579C24.1427 58.9099 23.8139 59.1776 23.4969 59.4612C23.1799 59.7427 22.8767 60.04 22.5873 60.3471C22.2979 60.6563 22.0163 60.9752 21.78 61.3119C21.2937 61.9813 20.8704 62.6901 20.5121 63.4186C20.4215 63.6017 20.3388 63.7848 20.2562 63.9698C20.1774 64.1549 20.1164 64.342 20.0514 64.531C19.9254 64.907 19.8191 65.285 19.7305 65.665C21.1264 65.8836 22.6404 65.791 24.1446 65.4268C24.5227 65.3343 24.8928 65.224 25.2748 65.1019C25.6567 64.9779 26.0387 64.8401 26.4167 64.6845C27.1747 64.3735 27.9111 63.9974 28.6159 63.5564C28.9723 63.3378 29.2991 63.1055 29.6299 62.8692C29.9646 62.633 30.2816 62.3888 30.5808 62.1368C31.1813 61.6328 31.709 61.0953 32.1717 60.5322C32.6619 59.979 33.0675 59.3962 33.4081 58.7937C33.5794 58.4945 33.7192 58.1834 33.8669 57.8782C34.0165 57.573 34.1464 57.2639 34.2587 56.9509C32.9809 56.5138 31.5672 56.3346 30.0748 56.4764C28.6002 56.6221 27.0861 57.1064 25.5701 57.9609Z" fill="#F5D06F"/>
<path d="M29.3503 47.8081C28.9664 47.9774 28.5864 48.1645 28.2162 48.3692C28.0311 48.4716 27.848 48.5779 27.6689 48.6882C27.4956 48.8024 27.3243 48.9205 27.155 49.0406C26.4817 49.5269 25.8477 50.0743 25.2649 50.6669C25.1212 50.8165 24.9775 50.9662 24.8396 51.1197C24.7077 51.2772 24.5797 51.4367 24.4557 51.5982C24.2057 51.9211 23.9714 52.2538 23.7528 52.5924C23.3197 53.2737 22.922 53.9726 22.666 54.709C23.3177 54.9078 24.0088 55.0318 24.7195 55.085C25.0759 55.1126 25.4382 55.1204 25.8024 55.1106C26.1706 55.1027 26.5466 55.0791 26.9227 55.0397C28.4308 54.8743 29.9744 54.4392 31.4215 53.7304C32.1697 53.3859 32.8568 52.9882 33.4809 52.5511C33.794 52.3306 34.0893 52.1002 34.3689 51.862C34.6623 51.6257 34.9438 51.3855 35.2076 51.1335C35.7373 50.6315 36.1802 50.0821 36.576 49.5112C36.9953 48.954 37.3478 48.3653 37.6352 47.755C36.5051 47.186 35.2155 46.8611 33.8058 46.8434C33.1029 46.8355 32.3666 46.9044 31.6125 47.058C30.8761 47.2214 30.1201 47.4695 29.3503 47.8081Z" fill="#F5D06F"/>
<path d="M34.4317 38.1661C33.6717 38.4319 32.9196 38.7666 32.197 39.1643C32.0159 39.2647 31.8348 39.3671 31.6595 39.4734C31.4843 39.5837 31.3189 39.6979 31.1516 39.816C30.8169 40.0542 30.492 40.3043 30.177 40.5661C29.862 40.828 29.5568 41.1036 29.2634 41.3872C29.1177 41.5309 28.9701 41.6746 28.8342 41.8242C28.7004 41.9758 28.5704 42.1294 28.4424 42.285C27.9345 42.9091 27.4797 43.5667 27.0918 44.242C28.2593 44.7834 29.6257 45.0551 31.0571 45.0551C32.4924 45.0551 33.969 44.7736 35.4634 44.2381C36.2017 43.9644 36.8928 43.6336 37.5287 43.2497C38.1902 42.8815 38.8045 42.4681 39.3538 42.0034C39.6275 41.7711 39.8835 41.523 40.1355 41.273C40.3934 41.0269 40.6395 40.7729 40.8718 40.5091C41.1041 40.2452 41.3227 39.9716 41.5255 39.69C41.6279 39.5502 41.7263 39.4065 41.8208 39.2608C41.9133 39.1171 42.0039 38.9694 42.1024 38.8276C41.6279 38.5028 41.0982 38.2271 40.5351 38.0263C39.9721 37.8235 39.3656 37.6857 38.7199 37.6227C38.0741 37.5577 37.3889 37.5656 36.6683 37.6503C35.9497 37.7369 35.1818 37.8944 34.4317 38.1661Z" fill="#F5D06F"/>
<path d="M40.7598 29.186C40.5708 29.2332 40.3798 29.2844 40.1888 29.3396C40.0018 29.3986 39.8207 29.4656 39.6356 29.5325C39.2654 29.6703 38.8992 29.8239 38.535 29.9912C38.1707 30.1586 37.8065 30.3397 37.4501 30.5347C37.271 30.6311 37.0938 30.7315 36.9166 30.8359C36.7414 30.9383 36.5779 31.0544 36.4106 31.1686C35.7432 31.6293 35.1052 32.1393 34.5106 32.6846C34.363 32.8225 34.2134 32.9583 34.0755 33.102C33.9397 33.2477 33.8058 33.3954 33.6759 33.545C33.414 33.8443 33.1659 34.1514 32.9336 34.4645C33.9298 35.1004 35.1486 35.4922 36.4657 35.6123C36.7965 35.6419 37.1312 35.6537 37.4718 35.6497C37.8144 35.6478 38.1707 35.634 38.5212 35.5985C39.23 35.5277 39.9506 35.3879 40.6692 35.1713C41.0295 35.063 41.376 34.9331 41.7226 34.7972C42.073 34.6673 42.4156 34.5196 42.7464 34.3601C43.4138 34.0412 44.0183 33.6474 44.5971 33.2221C45.1937 32.8106 45.7449 32.3499 46.2529 31.8479C46.3789 31.7219 46.5049 31.5959 46.625 31.464L46.8002 31.2631L46.9833 31.0682C47.2216 30.8083 47.45 30.5366 47.6685 30.259C46.9184 29.5857 45.9556 29.1269 44.7881 28.9222C43.6264 28.7253 42.2857 28.808 40.7598 29.186Z" fill="#F5D06F"/>
<path d="M48.2511 21.0118C47.8888 21.0906 47.5206 21.1812 47.1505 21.2855C46.7803 21.3918 46.4003 21.5021 46.042 21.6497C45.3175 21.9352 44.589 22.2719 43.8763 22.6519C43.1517 23.0201 42.4922 23.4827 41.8464 23.9631C41.5235 24.2053 41.2104 24.4554 40.9072 24.7133C40.7576 24.8432 40.606 24.9732 40.4623 25.109C40.3225 25.2468 40.1847 25.3886 40.0508 25.5304C40.8541 26.2076 41.8858 26.6447 43.0887 26.8554C43.6873 26.9578 44.3212 26.9952 44.9788 26.9597C45.3057 26.942 45.6404 26.9066 45.977 26.8534C46.3176 26.8022 46.6524 26.7215 47.0107 26.6447C47.7214 26.4793 48.4007 26.2391 49.0544 25.9418C49.3832 25.7942 49.6962 25.6209 50.0171 25.4555C50.34 25.2902 50.657 25.109 50.9641 24.9161C51.2713 24.7231 51.5666 24.5125 51.858 24.2919C52.1494 24.0754 52.4211 23.8312 52.7105 23.6088C53.2756 23.148 53.817 22.6578 54.3073 22.1183C53.7658 21.4903 52.994 21.0748 51.9742 20.872C51.4662 20.7716 50.8972 20.7264 50.2691 20.7382C49.645 20.7559 48.9795 20.8563 48.2511 21.0118Z" fill="#F5D06F"/>
<path d="M56.8 13.7405C56.1089 13.8881 55.3863 14.0752 54.652 14.3055C54.4689 14.3626 54.2838 14.4217 54.0987 14.4827L53.8191 14.5772C53.7286 14.6107 53.638 14.6481 53.5474 14.6855C53.1852 14.8332 52.819 14.9887 52.4547 15.1521C52.0905 15.3156 51.7282 15.4888 51.3679 15.6699C51.0096 15.853 50.6473 16.0362 50.3106 16.2527C49.6274 16.676 48.9659 17.1289 48.3438 17.6073C48.9364 18.2511 49.8086 18.7099 50.854 18.9205C51.3797 19.0268 51.9428 19.0662 52.5414 19.0347C52.8386 19.015 53.1556 18.9973 53.4785 18.956C53.7994 18.9127 54.1302 18.8536 54.4669 18.7729C54.8036 18.6941 55.1383 18.5996 55.469 18.4854C55.6344 18.4283 55.7978 18.3653 55.9613 18.3003L56.2074 18.198L56.4574 18.1015C57.1209 17.8337 57.7726 17.5069 58.4085 17.1308C59.0307 16.7351 59.6686 16.3433 60.279 15.9003C60.5822 15.6798 60.8834 15.4494 61.1768 15.2112C61.3224 15.0911 61.4681 14.9671 61.6119 14.843C61.7556 14.721 61.9033 14.6068 62.047 14.4847C61.7005 13.9826 61.0862 13.6538 60.2199 13.5436C59.7828 13.4806 59.2788 13.4648 58.7078 13.4944C58.4223 13.5101 58.1191 13.5357 57.8002 13.5751C57.4792 13.6125 57.1426 13.6597 56.8 13.7405Z" fill="#F5D06F"/>
<path d="M66.3211 7.51081C65.6418 7.64075 64.9449 7.84551 64.2203 8.06209C63.8581 8.17037 63.4899 8.2826 63.1197 8.40073C62.9307 8.46176 62.7437 8.52083 62.5586 8.58186C62.3696 8.6429 62.1826 8.70787 61.9995 8.78466C60.5248 9.36941 59.0029 10.0053 57.668 10.846C58.0598 11.3855 58.7508 11.7655 59.6467 11.9073C60.0936 11.9683 60.6075 12.0037 61.1647 11.9624C61.7218 11.923 62.3263 11.8206 62.9701 11.6356C63.606 11.4387 64.2754 11.23 64.939 10.9465C65.6084 10.6767 66.262 10.3085 66.9334 9.95022C67.2701 9.77105 67.6087 9.58795 67.9415 9.38516C68.2722 9.18236 68.603 8.96973 68.9318 8.74922C69.5835 8.29638 70.2549 7.88292 70.9007 7.43008C70.7175 7.13279 70.249 7.01268 69.4811 7.02253C69.0952 7.01859 68.6463 7.07963 68.1206 7.16429C67.5949 7.24895 66.9984 7.36905 66.3211 7.51081Z" fill="#F5D06F"/>
<path d="M48.4417 152.577C49.2765 152.653 50.1093 152.797 50.9323 152.992C51.1371 153.039 51.3418 153.09 51.5466 153.146C51.7553 153.197 51.964 153.248 52.1707 153.303C52.5861 153.411 52.9976 153.533 53.4052 153.665C53.8108 153.799 54.2144 153.943 54.6101 154.097C54.8109 154.175 55.0078 154.254 55.2047 154.333C55.4055 154.406 55.6044 154.482 55.8032 154.561C56.5928 154.874 57.3586 155.223 58.093 155.595C57.7367 156.142 57.0515 156.554 56.0238 156.823C55.5079 156.959 54.9074 157.062 54.2203 157.127C53.5273 157.198 52.7653 157.203 51.9207 157.16C51.076 157.117 50.1881 157.032 49.2765 156.906C48.3767 156.764 47.4691 156.556 46.5536 156.314C46.0948 156.193 45.638 156.061 45.1813 155.92C44.7343 155.768 44.2913 155.601 43.8503 155.428C42.9781 155.071 42.1197 154.683 41.3164 154.246C41.9169 153.575 42.8856 153.057 44.1043 152.764C44.7127 152.616 45.3841 152.527 46.1086 152.498C46.8351 152.464 47.603 152.508 48.4417 152.577Z" fill="#F5D06F"/>
<path d="M38.3899 145.435C38.6025 145.475 38.8132 145.522 39.0259 145.569C39.2424 145.612 39.457 145.66 39.6716 145.713C40.0989 145.815 40.5222 145.931 40.9416 146.063C41.3589 146.195 41.7704 146.343 42.1741 146.5C42.3768 146.581 42.5777 146.664 42.7765 146.75C42.9793 146.831 43.1841 146.914 43.3829 146.998C44.1862 147.343 44.962 147.733 45.7003 148.16C46.0645 148.379 46.4386 148.583 46.8009 148.802C47.1631 149.019 47.5136 149.245 47.8562 149.479C47.295 150.139 46.4248 150.625 45.2337 150.907C44.0346 151.202 42.5599 151.235 40.7742 151.023C40.3292 150.968 39.8764 150.897 39.4196 150.812C38.9707 150.72 38.5218 150.607 38.067 150.483C37.1613 150.231 36.238 149.934 35.3382 149.57C34.4561 149.19 33.5918 148.751 32.755 148.276C32.3396 148.034 31.9242 147.792 31.5304 147.526C31.1426 147.256 30.7724 146.971 30.4121 146.681C31.2272 145.981 32.3711 145.512 33.7237 145.305C35.0901 145.085 36.6888 145.104 38.3899 145.435Z" fill="#F5D06F"/>
<path d="M29.4933 136.762C29.9304 136.886 30.3596 137.024 30.781 137.18C30.9916 137.257 31.2003 137.339 31.409 137.424C31.6177 137.507 31.8304 137.587 32.0371 137.676C32.8699 138.023 33.6673 138.426 34.4253 138.875C34.6143 138.987 34.7994 139.101 34.9845 139.22C35.1735 139.332 35.3605 139.448 35.5456 139.564C35.9157 139.8 36.2721 140.047 36.6186 140.3C37.3156 140.808 37.9476 141.372 38.5796 141.909C38.1937 142.258 37.735 142.555 37.2053 142.791C36.6757 143.029 36.0693 143.21 35.4117 143.311C34.0906 143.512 32.4899 143.449 30.651 143.051C29.7512 142.834 28.8357 142.549 27.9379 142.189C27.4871 142.009 27.0382 141.815 26.5912 141.604C26.1541 141.387 25.7289 141.149 25.3056 140.901C24.4629 140.401 23.634 139.856 22.8701 139.251C22.1278 138.629 21.4309 137.967 20.7949 137.276C21.8109 136.623 23.1221 136.245 24.6027 136.16C25.343 136.119 26.1246 136.148 26.9318 136.256C27.7568 136.353 28.6192 136.516 29.4933 136.762Z" fill="#F5D06F"/>
<path d="M21.9543 126.786C22.8324 127.131 23.6692 127.536 24.4567 127.995C24.6536 128.109 24.8485 128.227 25.0395 128.347C25.2324 128.467 25.4293 128.586 25.6203 128.71C26.0042 128.954 26.3744 129.21 26.7307 129.477C27.0891 129.745 27.4356 130.023 27.7664 130.308C27.9317 130.452 28.0932 130.6 28.2546 130.745C28.42 130.889 28.5834 131.035 28.7429 131.18C29.3769 131.771 29.9557 132.395 30.4755 133.043C29.5049 133.708 28.2783 134.116 26.8252 134.209C25.3801 134.295 23.6692 134.092 21.8677 133.443C20.962 133.122 20.0662 132.718 19.19 132.248C18.3355 131.761 17.5106 131.202 16.7211 130.594C16.3293 130.287 15.9375 129.97 15.5713 129.635C15.2169 129.292 14.8743 128.94 14.5455 128.576C13.8918 127.847 13.2815 127.087 12.7637 126.296C13.943 125.752 15.3921 125.52 16.9632 125.603C17.7488 125.644 18.5659 125.764 19.3987 125.963C20.2335 126.16 21.0663 126.449 21.9543 126.786Z" fill="#F5D06F"/>
<path d="M15.9871 115.724C16.3947 115.96 16.814 116.198 17.2157 116.45C17.6193 116.704 18.0071 116.97 18.3793 117.248C18.7533 117.523 19.1136 117.813 19.4562 118.11C19.6295 118.26 19.7968 118.411 19.9622 118.565C20.1355 118.716 20.3028 118.868 20.4682 119.024C21.1258 119.644 21.7243 120.297 22.2599 120.979C22.5198 121.323 22.7895 121.662 23.0395 122.006C23.2896 122.351 23.5219 122.703 23.7385 123.06C22.5887 123.631 21.2164 123.916 19.6669 123.847C18.8951 123.814 18.0701 123.696 17.2413 123.461C16.4084 123.231 15.5362 122.906 14.6502 122.471C14.2073 122.253 13.7702 122.014 13.339 121.756C12.9196 121.495 12.514 121.211 12.1144 120.91C11.317 120.311 10.557 119.642 9.84821 118.921C9.49775 118.561 9.18076 118.177 8.87362 117.787C8.56648 117.395 8.27509 116.992 7.99945 116.582C7.72381 116.173 7.46392 115.755 7.22175 115.332C6.9973 114.903 6.79057 114.47 6.60156 114.033C7.92266 113.637 9.44065 113.599 11.0256 113.897C12.6381 114.182 14.3333 114.793 15.9871 115.724Z" fill="#F5D06F"/>
<path d="M11.7656 103.836C12.1554 104.123 12.5295 104.423 12.8898 104.732C13.069 104.887 13.2481 105.045 13.4253 105.2C13.6045 105.358 13.7797 105.517 13.951 105.681C14.6362 106.33 15.2544 107.016 15.8057 107.728C16.0734 108.087 16.3589 108.443 16.6149 108.805C16.8748 109.167 17.115 109.538 17.3394 109.91C17.5639 110.284 17.7686 110.662 17.9576 111.042L18.0955 111.329C18.1427 111.424 18.19 111.518 18.2372 111.613C18.3298 111.802 18.4184 111.991 18.503 112.182C17.8553 112.398 17.1642 112.534 16.4318 112.583C16.0675 112.609 15.6915 112.611 15.3095 112.591C15.1166 112.583 14.9236 112.568 14.7268 112.546C14.5358 112.522 14.3409 112.495 14.144 112.459C12.5807 112.186 10.9013 111.524 9.21199 110.42C8.38901 109.861 7.62509 109.213 6.90252 108.506C6.18586 107.797 5.50266 107.027 4.94744 106.198C4.65999 105.785 4.39026 105.362 4.13824 104.929C3.8882 104.495 3.65784 104.052 3.44324 103.605C3.39205 103.493 3.33889 103.381 3.2877 103.269C3.23848 103.157 3.19516 103.042 3.14988 102.928C3.06128 102.7 2.97662 102.471 2.89787 102.241C2.73839 101.782 2.60057 101.32 2.48047 100.857C3.8882 100.648 5.43769 100.821 7.00884 101.333C7.40261 101.461 7.79638 101.611 8.19015 101.78C8.38704 101.865 8.57998 101.956 8.78081 102.052C8.98163 102.145 9.18245 102.245 9.38328 102.349C10.1885 102.765 10.984 103.263 11.7656 103.836Z" fill="#F5D06F"/>
<path d="M9.37744 91.4253C10.0823 92.1026 10.7123 92.8193 11.2833 93.5615C11.8818 94.2999 12.4115 95.0657 12.8682 95.8474C13.0986 96.2372 13.3092 96.6329 13.5022 97.0307C13.7109 97.4264 13.9058 97.8241 14.0791 98.2238C14.4276 99.0251 14.6993 99.8343 14.8961 100.644C13.5042 100.896 11.9881 100.807 10.4288 100.319C9.64915 100.075 8.85964 99.73 8.06816 99.2811C7.28061 98.8302 6.48126 98.2769 5.74884 97.6036C4.27023 96.2608 2.99638 94.6129 2.13402 92.8094C1.91154 92.3586 1.70678 91.8998 1.51974 91.4352C1.33664 90.9705 1.15747 90.5 1.0354 90.0255C0.779452 89.0765 0.608161 88.1157 0.515625 87.1667C1.9588 87.1568 3.48466 87.5467 4.98296 88.2752C5.73506 88.6414 6.47535 89.0903 7.20186 89.6159C7.56019 89.8817 7.93624 90.1633 8.30048 90.4645C8.66669 90.7658 9.02502 91.0867 9.37744 91.4253Z" fill="#F5D06F"/>
<path d="M8.86061 78.7994C9.46307 79.5672 9.9927 80.3646 10.4514 81.1797C10.5637 81.3845 10.6739 81.5893 10.7861 81.792C10.9003 81.9988 11.0106 82.2055 11.1169 82.4122C11.3295 82.8257 11.5225 83.2431 11.6977 83.6625C11.871 84.0799 12.0285 84.5012 12.1663 84.9225C12.2352 85.1312 12.3002 85.3419 12.3593 85.5545C12.4242 85.7632 12.4912 85.9739 12.5502 86.1846C12.7865 87.0253 12.9479 87.862 13.0306 88.6909C11.5953 88.7441 10.0774 88.4428 8.58103 87.7419C7.0906 87.039 5.5864 85.9345 4.32436 84.3968C3.68448 83.627 3.11351 82.7942 2.61342 81.9121C2.48545 81.6916 2.3811 81.4692 2.27478 81.2427C2.17043 81.0163 2.07002 80.7879 1.97552 80.5576C1.78454 80.0969 1.61521 79.6263 1.46361 79.1518C1.16041 78.2009 0.918239 77.2243 0.823734 76.2497C0.713478 75.2751 0.674101 74.3006 0.725291 73.3516C2.14877 73.5425 3.59785 74.143 4.98196 75.0723C5.67106 75.539 6.34441 76.0863 6.98822 76.7085C7.31111 77.0215 7.61826 77.3503 7.9313 77.7008C8.25026 78.0493 8.56134 78.4155 8.86061 78.7994Z" fill="#F5D06F"/>
<path d="M10.211 66.2301C10.6875 67.0748 11.097 67.9371 11.4357 68.8074C11.607 69.2425 11.7507 69.6796 11.8924 70.1167C12.0421 70.5577 12.176 70.9967 12.2902 71.4358C12.5205 72.3139 12.6701 73.1861 12.7607 74.0485C12.8788 74.9128 12.9281 75.7653 12.8985 76.5962C11.4691 76.4485 10.0063 75.9386 8.62415 75.0349C7.93308 74.582 7.25973 74.0307 6.6297 73.381C6.02132 72.7313 5.45035 71.9831 4.93451 71.1326C4.67462 70.7073 4.43639 70.2702 4.21982 69.8194C4.00324 69.3705 3.79651 68.9078 3.64294 68.4392C3.32399 67.504 3.07394 66.5314 2.92628 65.5489C2.75893 64.5645 2.73727 63.5781 2.77665 62.6015C2.7983 62.1133 2.83768 61.6269 2.89675 61.1465C2.95581 60.6681 3.02472 60.1917 3.14285 59.7329C3.82014 59.9259 4.48365 60.2192 5.12352 60.6012C5.76734 60.9851 6.40131 61.4596 7.00378 62.0148C7.60428 62.57 8.17919 63.204 8.71275 63.9089C8.98248 64.2613 9.2404 64.6314 9.48651 65.0193C9.73458 65.4052 9.96691 65.8088 10.211 66.2301Z" fill="#F5D06F"/>
<path d="M13.444 54.0197C13.5207 54.2402 13.5956 54.4627 13.6645 54.6852C13.7393 54.9116 13.8121 55.138 13.8791 55.3625C14.0149 55.8153 14.1311 56.2682 14.2335 56.721C14.3339 57.1719 14.4166 57.6247 14.4835 58.0756C14.5504 58.5245 14.5938 58.9714 14.6489 59.4223C14.7473 60.322 14.7769 61.208 14.7414 62.0743C14.7316 62.2889 14.7178 62.5035 14.7001 62.7181C14.6843 62.9308 14.6765 63.1454 14.6568 63.358C14.6213 63.7813 14.5682 64.1987 14.4973 64.6082C13.127 64.2637 11.7744 63.5549 10.5615 62.472C10.2603 62.2003 9.95908 61.905 9.68344 61.588C9.4078 61.273 9.14594 60.9324 8.8959 60.5701C8.39384 59.8436 7.95281 59.0265 7.5807 58.1189C7.3976 57.666 7.22434 57.1994 7.09439 56.7289C6.96642 56.2603 6.86207 55.7838 6.77937 55.3014C6.61202 54.3367 6.52736 53.3503 6.52933 52.3639C6.56083 51.3874 6.68881 50.4167 6.87979 49.4658C6.97823 48.9913 7.08258 48.5168 7.22827 48.062C7.37594 47.6052 7.54132 47.1583 7.72246 46.7231C8.95299 47.2784 10.0713 48.2175 11.0242 49.4539C11.9909 50.6963 12.8336 52.2478 13.444 54.0197Z" fill="#F5D06F"/>
<path d="M18.4845 42.4717C18.5632 42.9265 18.6262 43.3794 18.6715 43.8342C18.6932 44.0606 18.7129 44.287 18.7266 44.5134C18.7483 44.7438 18.766 44.9722 18.7818 45.2006C18.8369 46.1161 18.829 47.0218 18.7601 47.9058C18.7424 48.1282 18.7207 48.3488 18.6971 48.5673C18.6794 48.7898 18.6577 49.0083 18.6341 49.2288C18.5849 49.6659 18.5219 50.0991 18.4431 50.5224C18.2896 51.3749 18.0454 52.1841 17.8111 52.9795C17.1791 52.7196 16.5668 52.3711 15.986 51.934C15.6966 51.7155 15.415 51.4733 15.1433 51.2115C14.8736 50.9496 14.6196 50.6681 14.3774 50.3649C13.8931 49.7565 13.4619 49.0635 13.0937 48.2877C12.7295 47.51 12.4204 46.6477 12.2196 45.7144C12.0325 44.7891 11.94 43.8361 11.9341 42.8753C11.9302 42.393 11.9498 41.9106 11.9872 41.4282C12.0384 40.9498 12.1152 40.4753 12.2078 40.0028C12.3948 39.0577 12.6704 38.1284 13.0111 37.2346C13.3792 36.3525 13.8143 35.5039 14.2967 34.7046C15.3658 35.3878 16.2636 36.4313 16.9606 37.7465C17.311 38.406 17.6064 39.1306 17.8544 39.9162C18.1183 40.7116 18.3309 41.5661 18.4845 42.4717Z" fill="#F5D06F"/>
<path d="M25.1807 31.8659C25.1729 32.7578 25.1118 33.6516 24.9898 34.5297C24.9583 34.7502 24.9248 34.9688 24.8874 35.1873C24.8539 35.4059 24.8224 35.6283 24.785 35.8489C24.7102 36.2879 24.6216 36.723 24.5192 37.1522C24.4168 37.5815 24.3026 38.0028 24.1727 38.4182C24.1077 38.6249 24.0408 38.8317 23.9738 39.0364C23.9108 39.2432 23.8459 39.4499 23.775 39.6527C23.4974 40.4678 23.1666 41.2455 22.7827 41.9779C21.6781 41.3203 20.7075 40.328 19.9869 39.0266C19.6286 38.3769 19.3313 37.6504 19.1108 36.853C18.8804 36.0477 18.7741 35.1991 18.7505 34.2816C18.7268 33.3642 18.7997 32.4349 18.9552 31.5075C19.1364 30.5979 19.4021 29.6903 19.7428 28.8102C19.916 28.3692 20.1031 27.9341 20.3118 27.5108C20.5323 27.0934 20.7685 26.6838 21.0166 26.2842C21.2667 25.8845 21.5285 25.4946 21.8042 25.1166C21.942 24.9276 22.0818 24.7425 22.2255 24.5594C22.3672 24.3744 22.511 24.1952 22.6685 24.0259C23.1056 24.4059 23.4757 24.8587 23.8006 25.3923C24.1254 25.9239 24.3932 26.5263 24.6039 27.1918C24.8145 27.8573 24.9681 28.5838 25.0606 29.3634C25.1571 30.1431 25.1788 30.9681 25.1807 31.8659Z" fill="#F5D06F"/>
<path d="M33.3705 22.4589C33.3232 22.6656 33.274 22.8704 33.2189 23.0752C33.1677 23.2839 33.1185 23.4945 33.0614 23.7032C32.9531 24.1226 32.8291 24.538 32.6952 24.9495C32.5593 25.363 32.4156 25.7725 32.2561 26.1761C32.1774 26.3789 32.0966 26.5797 32.012 26.7786C31.9293 26.9814 31.8466 27.1822 31.7659 27.385C31.4312 28.1883 31.0512 28.966 30.6298 29.7063C30.5216 29.8894 30.4152 30.0725 30.3089 30.2556C30.2046 30.4406 30.0983 30.6238 29.99 30.8029C29.7734 31.1632 29.545 31.5117 29.3068 31.8484C28.3932 31.1002 27.6569 30.0429 27.2099 28.7218C27.0977 28.3911 27.0052 28.0446 26.9304 27.6823C26.8595 27.322 26.8181 26.9538 26.7945 26.5679C26.7492 25.8001 26.7925 24.9751 26.9363 24.1029C27.0091 23.6698 27.0977 23.2287 27.2198 22.8015C27.3458 22.3762 27.4954 21.9529 27.6628 21.5335C27.8282 21.1142 28.0191 20.7007 28.2278 20.2951C28.4365 19.8876 28.657 19.482 28.9051 19.0941C29.927 17.5683 31.1536 16.1212 32.6046 15.0127C33.2583 15.7845 33.6323 16.8181 33.7406 18.0625C33.7899 18.6787 33.8036 19.3796 33.7406 20.114C33.6835 20.8523 33.5595 21.6359 33.3705 22.4589Z" fill="#F5D06F"/>
<path d="M42.8383 14.473C42.665 14.8392 42.4839 15.2054 42.2909 15.5677C42.098 15.9339 41.8873 16.2883 41.6865 16.6644C41.277 17.4027 40.8281 18.1292 40.3437 18.8301C39.8496 19.5212 39.3711 20.2398 38.8415 20.8994C38.5797 21.2321 38.3099 21.553 38.0323 21.8661C37.8945 22.0216 37.7527 22.1732 37.611 22.3248C37.4751 22.4823 37.3373 22.6339 37.1975 22.7836C36.4986 22.0137 36.0005 20.9446 35.8705 19.7043C35.8016 19.0821 35.8154 18.4088 35.9217 17.6941C35.9749 17.3357 36.0516 16.9695 36.154 16.5915C36.2564 16.2174 36.3745 15.8236 36.5399 15.4437C36.8589 14.6778 37.2743 13.9296 37.7547 13.2011C37.9988 12.8408 38.2489 12.4746 38.5344 12.136C38.8179 11.7973 39.1172 11.4666 39.4302 11.1456C39.7432 10.8247 40.074 10.5156 40.4107 10.2144C40.7533 9.91708 41.0919 9.61388 41.464 9.35202C42.2004 8.82043 42.9604 8.32231 43.744 7.88916C44.1771 8.60189 44.2913 9.5174 44.1279 10.6219C44.0452 11.1732 43.8916 11.7678 43.6691 12.4037C43.4506 13.0417 43.1828 13.7465 42.8383 14.473Z" fill="#F5D06F"/>
<path d="M53.3265 8.08973C52.8441 8.68629 52.3244 9.29073 51.7691 9.88336C51.6274 10.031 51.4876 10.1807 51.3478 10.3263L51.1312 10.5469L50.9186 10.7752C50.6351 11.0804 50.3437 11.3817 50.0464 11.679C49.7491 11.9762 49.4459 12.2676 49.1368 12.5531C48.8296 12.8386 48.5107 13.1103 48.2055 13.4017C47.5853 13.9687 46.9494 14.5062 46.2977 14.9965C45.8173 14.268 45.6047 13.3072 45.7425 12.1948C45.8094 11.6376 45.9689 11.0489 46.2209 10.4307C46.343 10.1176 46.5044 9.81838 46.6856 9.50533C46.8687 9.19622 47.0774 8.88121 47.3097 8.56225C47.7763 7.93025 48.3138 7.30415 48.934 6.74303C49.5601 6.18978 50.2452 5.6641 50.9698 5.17582C51.6904 4.67967 52.4878 4.27605 53.2911 3.89606C54.1003 3.52395 54.9114 3.15971 55.758 2.90967C55.9805 3.48064 55.8506 4.17367 55.4371 5.04391C55.2304 5.47902 54.9469 5.94958 54.5925 6.45755C54.4153 6.70956 54.2204 6.97142 54.0077 7.24115C53.7852 7.52073 53.5569 7.80227 53.3265 8.08973Z" fill="#F5D06F"/>
<mask id="mask0_2229_219" style="mask-type:luminance" maskUnits="userSpaceOnUse" x="55" y="0" width="14" height="9">
<path d="M55.9102 0H68.5108V8.99373H55.9102V0Z" fill="white"/>
</mask>
<g mask="url(#mask0_2229_219)">
<path d="M64.5845 3.50863C63.9741 3.89059 63.346 4.33358 62.6865 4.76673C62.3557 4.98527 62.021 5.20381 61.6784 5.42039C61.5052 5.53064 61.3339 5.63696 61.1626 5.74722C60.9874 5.85354 60.8141 5.95986 60.6428 6.07799C59.2705 6.99941 57.8076 7.84208 56.4039 8.65719C56.1361 8.04684 56.1656 7.24946 56.5574 6.36347C56.7484 5.9126 57.0477 5.47158 57.4375 5.01284C57.8293 4.55606 58.3156 4.08747 58.9023 3.62676C59.4851 3.15817 60.1624 2.76834 60.8791 2.39426C61.2374 2.20722 61.6095 2.03002 61.9934 1.8666C62.1844 1.78194 62.3774 1.70122 62.5742 1.62247C62.6707 1.58309 62.7692 1.54371 62.8696 1.5063L63.1728 1.40392C63.5784 1.27201 63.9899 1.14207 64.4092 1.02787C64.8286 0.915647 65.2519 0.811297 65.6772 0.716792C66.5198 0.508093 67.3979 0.399807 68.2485 0.289551C68.2977 0.636069 67.9866 1.04165 67.3566 1.55159C67.0376 1.79573 66.6517 2.09893 66.191 2.42773C65.7284 2.75653 65.1909 3.11092 64.5845 3.50863Z" fill="#F5D06F"/>
</g>
<mask id="mask1_2229_219" style="mask-type:luminance" maskUnits="userSpaceOnUse" x="14" y="10" width="69" height="154">
<path d="M14.9551 10.5059H82.6266V163.141H14.9551V10.5059Z" fill="white"/>
</mask>
<g mask="url(#mask1_2229_219)">
<path d="M55.7259 10.5137C48.6065 14.8392 42.1486 20.2359 36.626 26.4555C31.1152 32.6909 26.5711 39.7591 23.1531 47.3254L22.5329 48.7528L22.2238 49.4675C22.1214 49.7057 22.0132 49.942 21.9246 50.1861L20.8102 53.0921C20.4676 54.0707 20.1467 55.0571 19.8159 56.0415C19.6407 56.5298 19.5048 57.0299 19.3611 57.528L18.9319 59.0223C17.8274 63.0211 17.0221 67.0966 16.5161 71.2096L16.1913 74.3007L16.0042 77.4036C15.9629 77.9194 15.9629 78.4372 15.953 78.955L15.9274 80.5085L15.9097 81.6721L15.9196 82.0599L15.9629 83.6133L16.0042 85.1648C16.0062 85.4247 16.0318 85.6806 16.0495 85.9405L16.1066 86.7143L16.2168 88.2618L16.2739 89.0375C16.2956 89.2935 16.331 89.5514 16.3586 89.8074C16.4826 90.8351 16.5949 91.8648 16.7248 92.8906L17.221 95.9541C17.9613 100.024 18.9988 104.038 20.3258 107.954C21.6529 111.868 23.2555 115.694 25.1732 119.356C28.9868 126.69 33.8657 133.471 39.6384 139.395C45.4248 145.303 52.0717 150.371 59.3151 154.4C66.5743 158.404 74.428 161.326 82.5594 163.141C74.3493 161.73 66.338 159.013 58.9194 155.132C51.5184 151.22 44.7121 146.166 38.8036 140.214C32.9088 134.244 27.9453 127.363 24.0962 119.911C22.1608 116.188 20.5523 112.3 19.2312 108.322C17.9101 104.341 16.8902 100.266 16.1755 96.1353L15.701 93.0284C15.5789 91.9889 15.4746 90.9473 15.3604 89.9058C15.3348 89.6459 15.3013 89.386 15.2816 89.1242L15.134 86.7734L15.0867 85.9898C15.071 85.7279 15.0493 85.466 15.0493 85.2042L14.9962 82.0639L14.9883 81.6721L15.0651 78.9255C15.0808 78.4038 15.0848 77.88 15.134 77.3583L15.3584 74.2278L15.7227 71.1111C16.2818 66.9627 17.1442 62.8596 18.3078 58.8451L18.7586 57.3449C18.9083 56.8448 19.054 56.3408 19.2351 55.8505C19.5816 54.8661 19.9163 53.8758 20.2727 52.8933L21.4323 49.9833C21.5229 49.7372 21.6351 49.5029 21.7415 49.2627L22.7042 47.1206C26.2364 39.5504 30.8868 32.5117 36.4744 26.3216C42.0758 20.1433 48.5848 14.8018 55.7259 10.5137Z" fill="#F5D06F"/>
</g>
<mask id="mask2_2229_219" style="mask-type:luminance" maskUnits="userSpaceOnUse" x="60" y="0" width="23" height="8">
<path d="M60.9531 0H82.1223V7.48165H60.9531V0Z" fill="white"/>
</mask>
<g mask="url(#mask2_2229_219)">
<path d="M71.1107 2.55756C70.0692 2.87061 69.0611 3.20729 68.1003 3.54987C67.9802 3.59318 67.8621 3.6365 67.742 3.67981C67.6259 3.72903 67.5097 3.77629 67.3955 3.82551C67.1671 3.92395 66.9407 4.02239 66.7162 4.11887C66.2713 4.31772 65.8381 4.51657 65.4247 4.72134C65.216 4.82175 65.0132 4.92413 64.8143 5.02848C64.6135 5.12889 64.4206 5.23324 64.2355 5.3494C63.8614 5.57385 63.507 5.7983 63.1703 6.02669C62.5009 6.48149 61.9044 6.92645 61.4082 7.38717C62.0737 7.26707 62.8061 7.10956 63.572 6.88511C63.9559 6.77288 64.3497 6.64491 64.7533 6.50315C64.9541 6.4303 65.1608 6.36336 65.3715 6.29642C65.5822 6.22948 65.7948 6.15663 66.0094 6.08181C66.4386 5.93218 66.8737 5.7668 67.3187 5.59157C67.5412 5.501 67.7656 5.41044 67.9921 5.3179C68.1063 5.27262 68.2185 5.22536 68.3327 5.17614C68.4488 5.1348 68.565 5.08951 68.6812 5.04423C69.6164 4.68786 70.5791 4.29606 71.5616 3.86291C72.5598 3.47702 73.5285 3.08325 74.4617 2.70326C74.9264 2.50047 75.393 2.3469 75.8458 2.17954C76.2947 2.01613 76.7377 1.85468 77.1709 1.69717C77.3855 1.62039 77.5981 1.54557 77.8088 1.47075C78.0194 1.39791 78.2242 1.31718 78.429 1.26009C78.8405 1.13605 79.2382 1.01989 79.6201 0.9116C80.386 0.693057 81.0909 0.509953 81.7248 0.364258C81.0909 0.509953 80.3762 0.649742 79.5906 0.783624C79.1988 0.852534 78.7873 0.919475 78.362 0.986416C77.9367 1.05533 77.5016 1.1518 77.0488 1.23449C76.592 1.32112 76.1254 1.40972 75.6529 1.50029C75.1764 1.59479 74.6783 1.66961 74.188 1.79562C73.1977 2.03385 72.166 2.28192 71.1107 2.55756Z" fill="#F5D06F"/>
</g>
</svg>
