<svg width="84" height="165" viewBox="0 0 84 165" fill="none" xmlns="http://www.w3.org/2000/svg">
<path d="M35.0773 154.158C33.3835 154.317 31.7137 154.761 30.0478 155.277C29.6338 155.412 29.2258 155.559 28.8237 155.717C28.6207 155.794 28.4217 155.874 28.2227 155.957C28.0197 156.035 27.8167 156.113 27.6156 156.19C26.8155 156.509 26.0373 156.863 25.293 157.241C25.6552 157.792 26.3478 158.206 27.3907 158.479C28.4297 158.746 29.8428 158.911 31.5485 158.807C32.4063 158.762 33.3079 158.674 34.2314 158.545C35.139 158.39 36.0644 158.183 36.9919 157.936C37.4537 157.81 37.9234 157.681 38.3791 157.532C38.8329 157.372 39.2827 157.205 39.7286 157.028C40.1724 156.847 40.6083 156.656 41.0402 156.457C41.2551 156.357 41.4681 156.254 41.6771 156.15C41.7825 156.099 41.89 156.045 41.9935 155.993C42.093 155.935 42.1945 155.88 42.296 155.822C41.9875 155.48 41.5935 155.183 41.1218 154.936C40.6461 154.684 40.0908 154.481 39.4738 154.333C38.8548 154.186 38.1741 154.096 37.4417 154.069C37.0735 154.055 36.6934 154.055 36.3013 154.073C36.1042 154.081 35.9072 154.098 35.7022 154.11C35.4972 154.122 35.2882 154.138 35.0773 154.158Z" fill="#F5D06F"/>
<path d="M45.2592 146.89C44.4033 147.069 43.5196 147.266 42.6758 147.538C42.2518 147.672 41.8359 147.821 41.4239 147.984C41.0139 148.145 40.6138 148.327 40.2018 148.496C39.3878 148.846 38.6016 149.242 37.8533 149.676C37.6662 149.783 37.4811 149.895 37.298 150.008C37.1089 150.114 36.9238 150.223 36.7407 150.333C36.3725 150.554 36.0162 150.783 35.6699 151.019C36.7944 152.343 39.2405 153.02 42.8469 152.56C43.2967 152.5 43.7585 152.433 44.2162 152.341C44.67 152.241 45.1258 152.128 45.5876 152.001C46.0473 151.873 46.5091 151.732 46.9728 151.577C47.4345 151.423 47.8983 151.256 48.3501 151.065C49.2417 150.673 50.1195 150.231 50.9693 149.746C51.1803 149.624 51.3893 149.501 51.5982 149.375C51.7017 149.31 51.8052 149.246 51.9067 149.182L52.2033 148.979C52.5974 148.705 52.9735 148.414 53.3378 148.12C52.5118 147.415 51.3534 146.943 49.9841 146.738C49.3034 146.641 48.5411 146.583 47.751 146.607C46.9549 146.629 46.121 146.72 45.2592 146.89Z" fill="#F5D06F"/>
<path d="M54.2655 138.069C53.8217 138.194 53.3858 138.338 52.9579 138.497C52.526 138.652 52.12 138.835 51.6921 139.006C50.8482 139.363 50.0401 139.773 49.2719 140.228C48.5155 140.696 47.7513 141.164 47.0527 141.685C46.7004 141.944 46.3601 142.213 46.0337 142.489C45.8704 142.629 45.7092 142.768 45.552 142.909C45.3868 143.047 45.2276 143.184 45.0684 143.323C45.4604 143.676 45.9242 143.974 46.4616 144.213C47.0029 144.454 47.604 144.625 48.2747 144.724C48.9455 144.826 49.6858 144.858 50.4919 144.814C50.8939 144.794 51.3119 144.752 51.7498 144.693C51.9667 144.663 52.1876 144.627 52.4125 144.587C52.6414 144.547 52.8683 144.499 53.0952 144.444C54.0048 144.219 54.9362 143.928 55.8458 143.56C56.2996 143.375 56.7633 143.182 57.2032 142.961C57.643 142.736 58.0789 142.495 58.5068 142.243C58.9347 141.988 59.3587 141.721 59.7707 141.442C59.9776 141.301 60.1826 141.16 60.3837 141.014C60.4872 140.941 60.5867 140.867 60.6842 140.794L60.9688 140.559C61.7211 139.926 62.4277 139.253 63.0726 138.551C62.0436 137.894 60.7121 137.516 59.2154 137.436C58.465 137.396 57.6729 137.43 56.8529 137.543C56.4489 137.603 56.013 137.663 55.5811 137.75C55.1472 137.838 54.7093 137.943 54.2655 138.069Z" fill="#F5D06F"/>
<path d="M61.8876 127.926C60.9959 128.277 60.1481 128.692 59.35 129.158C59.1529 129.276 58.9559 129.397 58.7628 129.518L58.4742 129.706L58.1816 129.893C57.7916 130.141 57.4154 130.402 57.0532 130.675C56.6929 130.946 56.3406 131.228 56.0063 131.521C55.6679 131.811 55.3515 132.118 55.025 132.412C54.3782 133.011 53.7911 133.644 53.2656 134.303C54.2508 134.972 55.4908 135.382 56.9636 135.469C57.7 135.513 58.4941 135.477 59.342 135.352C59.7679 135.292 60.1958 135.201 60.6317 135.085C61.0696 134.97 61.5194 134.833 61.9811 134.669C62.8947 134.339 63.8142 133.933 64.6879 133.445C65.5497 132.948 66.3876 132.381 67.1877 131.758C67.3887 131.602 67.5858 131.443 67.7788 131.282L68.0694 131.035C68.165 130.951 68.2525 130.864 68.3421 130.778C68.7023 130.43 69.0487 130.07 69.381 129.702C69.7154 129.331 70.0338 128.953 70.3364 128.567C70.6389 128.179 70.9315 127.789 71.1783 127.379C70.5772 127.104 69.9144 126.913 69.2079 126.802C68.4973 126.692 67.7291 126.654 66.935 126.7C66.1388 126.746 65.3109 126.869 64.469 127.076C64.047 127.18 63.6211 127.301 63.1932 127.445C62.9802 127.516 62.7653 127.594 62.5503 127.675C62.3354 127.757 62.1085 127.837 61.8876 127.926Z" fill="#F5D06F"/>
<path d="M67.8941 116.675C67.0662 117.155 66.2342 117.668 65.4799 118.234C65.1017 118.516 64.7395 118.809 64.3892 119.113C64.2161 119.264 64.0449 119.42 63.8777 119.577L63.6309 119.812L63.3762 120.047C62.0387 121.307 60.9739 122.722 60.0723 124.153C61.2366 124.728 62.6258 125.01 64.1962 124.935C64.5843 124.915 64.9923 124.877 65.4003 124.807C65.8043 124.738 66.2183 124.646 66.6422 124.527C67.4861 124.292 68.3698 123.958 69.2654 123.512C69.4923 123.402 69.7132 123.285 69.9362 123.163C70.1571 123.042 70.378 122.917 70.587 122.781C71.0069 122.511 71.4209 122.222 71.8249 121.916C72.629 121.303 73.4092 120.626 74.1138 119.887C74.8024 119.145 75.4194 118.339 75.9807 117.509C76.12 117.3 76.2553 117.089 76.3887 116.878C76.4524 116.771 76.5161 116.665 76.5818 116.56C76.6395 116.45 76.6972 116.343 76.7549 116.233C76.9818 115.797 77.1928 115.356 77.3838 114.914C76.0464 114.518 74.5099 114.488 72.9057 114.796C72.1116 114.954 71.2597 115.178 70.4218 115.493C69.5779 115.805 68.732 116.201 67.8941 116.675Z" fill="#F5D06F"/>
<path d="M72.1306 104.596C71.7365 104.891 71.3583 105.195 70.9941 105.51C70.813 105.669 70.6359 105.828 70.4607 105.991C70.2876 106.154 70.1064 106.316 69.9333 106.481C69.2407 107.142 68.6137 107.84 68.0545 108.565C67.9171 108.746 67.7798 108.929 67.6504 109.114C67.5171 109.297 67.3837 109.482 67.2484 109.665C66.9877 110.034 66.7409 110.408 66.514 110.788C66.2871 111.166 66.0801 111.55 65.891 111.938C65.7935 112.131 65.7039 112.326 65.6183 112.521C65.5228 112.713 65.4332 112.906 65.3477 113.099C67.9788 113.968 71.3205 113.527 74.7339 111.262C75.5579 110.688 76.34 110.032 77.0665 109.309C77.4307 108.949 77.781 108.573 78.1174 108.183C78.4378 107.787 78.7423 107.379 79.0329 106.959C79.3215 106.537 79.5942 106.107 79.8509 105.667C80.1037 105.227 80.3385 104.777 80.5515 104.323C80.9476 103.406 81.27 102.466 81.5128 101.529C80.0898 101.322 78.5194 101.505 76.9312 102.033C76.135 102.297 75.3369 102.648 74.5428 103.077C73.7288 103.503 72.9227 104.013 72.1306 104.596Z" fill="#F5D06F"/>
<mask id="mask0_2229_220" style="mask-type:luminance" maskUnits="userSpaceOnUse" x="68" y="87" width="16" height="15">
<path d="M68.9434 87.561H83.4426V101.535H68.9434V87.561Z" fill="white"/>
</mask>
<g mask="url(#mask0_2229_220)">
<path d="M74.5001 91.9951C73.7896 92.6857 73.1467 93.4142 72.5755 94.1705C72.2989 94.5507 71.9983 94.9308 71.7336 95.3189C71.4669 95.707 71.2162 96.1011 70.9853 96.4991C70.0877 98.0934 69.3373 99.7294 68.9492 101.373C70.3544 101.622 71.8909 101.525 73.4692 101.023C74.2593 100.77 75.0574 100.418 75.8575 99.9583C76.2536 99.7274 76.6616 99.4726 77.0477 99.186C77.4318 98.8994 77.812 98.587 78.1882 98.2446C78.9425 97.56 79.6252 96.7957 80.2501 95.9777C80.5705 95.5697 80.8353 95.1418 81.098 94.7039C81.3587 94.268 81.6015 93.8182 81.8264 93.3605C82.2703 92.4449 82.6743 91.4975 82.9191 90.5322C83.1758 89.567 83.349 88.5917 83.4425 87.6304C81.9856 87.6264 80.4432 88.0304 78.9246 88.7768C78.1663 89.151 77.4179 89.6107 76.6835 90.1481C76.3113 90.4188 75.961 90.7074 75.5888 91.0139C75.2206 91.3224 74.8564 91.6488 74.5001 91.9951Z" fill="#F5D06F"/>
</g>
<mask id="mask1_2229_220" style="mask-type:luminance" maskUnits="userSpaceOnUse" x="70" y="73" width="14" height="17">
<path d="M70.3145 73.2905H83.4962V89.595H70.3145V73.2905Z" fill="white"/>
</mask>
<g mask="url(#mask1_2229_220)">
<path d="M74.9647 79.1817C74.3577 79.9639 73.8223 80.7759 73.3585 81.6039C73.2451 81.8128 73.1336 82.0198 73.0262 82.2288L72.8689 82.5433L72.7057 82.8577C72.4928 83.2797 72.2977 83.7036 72.1206 84.1295C71.7623 84.9814 71.4956 85.8392 71.2767 86.693C71.0359 87.5469 70.8727 88.3987 70.7891 89.2386C72.242 89.2864 73.7765 88.9719 75.2891 88.2514C76.0454 87.8932 76.7978 87.4314 77.5282 86.8622C78.2427 86.295 78.9234 85.6203 79.5722 84.8381C79.8966 84.446 80.2032 84.038 80.4917 83.616C80.635 83.4051 80.7764 83.1901 80.9097 82.9712C81.045 82.7542 81.1784 82.5333 81.2918 82.3084C81.7556 81.4108 82.1377 80.4674 82.4442 79.5021C82.5955 79.0165 82.7328 78.5289 82.8423 78.0353C82.9358 77.5437 83.0134 77.0481 83.0692 76.5545C83.1766 75.5653 83.2165 74.5741 83.1607 73.6108C81.7237 73.8139 80.2589 74.4289 78.8637 75.3802C78.1671 75.8559 77.4884 76.4152 76.8396 77.0521C76.1867 77.687 75.5837 78.3995 74.9647 79.1817Z" fill="#F5D06F"/>
</g>
<path d="M73.528 66.4363C73.0484 67.2941 72.6384 68.1738 72.298 69.0575C72.1269 69.5013 71.9756 69.9452 71.8423 70.389L71.7447 70.7234L71.6432 71.0577C71.5756 71.2806 71.5139 71.5055 71.4561 71.7285C71.2253 72.6201 71.07 73.5078 70.9864 74.3835C70.9765 74.493 70.9685 74.6024 70.9606 74.7099C70.9486 74.8194 70.9367 74.9289 70.9267 75.0383C70.9048 75.2553 70.8889 75.4722 70.877 75.6872C70.8531 76.119 70.8491 76.547 70.865 76.9689C72.31 76.8117 73.7868 76.2862 75.182 75.3607C75.8766 74.899 76.5732 74.3357 77.1782 73.673C77.7932 73.0122 78.3664 72.2479 78.8879 71.3821C79.9567 69.6506 80.5717 67.7041 80.8881 65.7058C80.924 65.457 80.9618 65.2063 80.9817 64.9555C80.9996 64.7067 81.0115 64.4579 81.0215 64.2091C81.0374 63.7096 81.0354 63.21 81.0115 62.7144C80.9618 61.7252 80.8623 60.7401 80.6175 59.8086C79.9348 60.0076 79.2641 60.3082 78.6192 60.7002C78.2968 60.8953 77.9783 61.1142 77.6698 61.3551C77.3574 61.5939 77.0449 61.8586 76.7424 62.1412C75.5283 63.2737 74.4296 64.7286 73.528 66.4363Z" fill="#F5D06F"/>
<path d="M70.1592 54.0665C70.002 54.5183 69.8746 54.9701 69.7393 55.4299C69.6059 55.8876 69.4885 56.3494 69.387 56.8091C69.186 57.7307 69.0626 58.6462 68.9909 59.5518C68.8954 60.4653 68.8695 61.3649 68.9073 62.2426C68.9232 62.6825 68.971 63.1124 69.0128 63.5423C69.0486 63.9722 69.1044 64.3961 69.176 64.8121C70.5593 64.4559 71.9246 63.7294 73.1466 62.6228C73.7577 62.0695 74.303 61.4266 74.8085 60.6882C75.3121 59.9478 75.7539 59.1159 76.1281 58.1924C76.2216 57.9615 76.3092 57.7267 76.3908 57.4918C76.4704 57.257 76.5361 57.0201 76.5998 56.7833C76.7272 56.3056 76.8307 55.822 76.9123 55.3304C76.9959 54.8407 77.0576 54.3452 77.0954 53.8476C77.1352 53.35 77.165 52.8445 77.1372 52.3509C77.0536 50.3745 76.6595 48.3922 75.8932 46.6348C74.6533 47.204 73.5268 48.1653 72.5734 49.4252C72.3306 49.7396 72.1077 50.072 71.8828 50.4263C71.6559 50.7805 71.441 51.1527 71.2379 51.5428C70.8279 52.321 70.4657 53.1649 70.1592 54.0665Z" fill="#F5D06F"/>
<path d="M64.9735 42.3834C64.8959 42.8451 64.8362 43.3069 64.7924 43.7666C64.7705 43.9975 64.7546 44.2264 64.7407 44.4572L64.7228 44.8016L64.7009 45.1499C64.6491 46.0793 64.6631 46.9989 64.7367 47.8965C64.7546 48.1214 64.7765 48.3443 64.8024 48.5672L64.8462 48.8996C64.8581 49.011 64.8701 49.1225 64.882 49.232C64.9337 49.6778 65.0014 50.1157 65.081 50.5475C65.1626 50.9774 65.2621 51.3994 65.3756 51.8134C65.487 52.2274 65.6224 52.6294 65.7438 53.0334C66.3807 52.7667 66.9997 52.4085 67.5828 51.9626C68.166 51.5168 68.6994 50.9854 69.187 50.3664C69.6726 49.7474 70.1065 49.0409 70.4727 48.2488C70.6558 47.8547 70.823 47.4387 70.9703 47.0008C71.0459 46.7819 71.1136 46.559 71.1753 46.3321C71.239 46.1032 71.2848 45.8743 71.3325 45.6395C71.5156 44.7001 71.6052 43.7308 71.6072 42.7555C71.6072 42.5107 71.5992 42.2659 71.5913 42.0211C71.5813 41.7763 71.5634 41.5295 71.5336 41.2907C71.4758 40.809 71.3982 40.3254 71.3007 39.8457C71.2032 39.3661 71.0837 38.8924 70.9424 38.4227C70.8011 37.9569 70.6578 37.4872 70.4608 37.0454C70.0826 36.1537 69.6408 35.2939 69.1452 34.4839C68.0704 35.1845 67.1708 36.2473 66.4742 37.5848C66.1239 38.2535 65.8274 38.9939 65.5866 39.79C65.4691 40.1861 65.3437 40.61 65.2402 41.0419C65.1367 41.4758 65.0472 41.9236 64.9735 42.3834Z" fill="#F5D06F"/>
<path d="M58.1062 31.6676C58.1201 32.5732 58.1898 33.4788 58.3191 34.3704C58.351 34.5933 58.3868 34.8143 58.4246 35.0352L58.4883 35.3656L58.546 35.7019C58.6236 36.1478 58.7152 36.5876 58.8207 37.0235C58.9262 37.4574 59.0476 37.8853 59.1789 38.3052C59.3103 38.7272 59.4635 39.1352 59.5989 39.5531C59.8855 40.3771 60.2258 41.1673 60.6159 41.9077C61.7285 41.2349 62.7057 40.2219 63.4222 38.8983C63.7825 38.2376 64.077 37.4972 64.294 36.6871C64.5129 35.8731 64.6124 35.0133 64.6323 34.0818C64.6403 33.6161 64.6244 33.1484 64.5866 32.6787C64.5667 32.4438 64.5428 32.209 64.5129 31.9741C64.4831 31.7373 64.4472 31.5024 64.3975 31.2735C64.2044 30.352 63.9337 29.4325 63.5815 28.5389C63.4919 28.316 63.3984 28.095 63.3028 27.8761C63.2531 27.7666 63.2053 27.6572 63.1516 27.5477L62.9864 27.2312C62.7615 26.8093 62.5206 26.3953 62.2659 25.9913C62.0111 25.5873 61.7404 25.1912 61.4598 24.8091C61.3205 24.618 61.1772 24.4309 61.0299 24.2458C60.8866 24.0587 60.7254 23.8875 60.5702 23.7124C60.1343 24.0985 59.7561 24.5662 59.4397 25.1016C59.1252 25.637 58.8525 26.254 58.6455 26.9287C58.4385 27.6034 58.2893 28.3418 58.1997 29.134C58.1559 29.528 58.1281 29.938 58.1141 30.36C58.1062 30.569 58.1042 30.7819 58.1062 30.9989C58.1062 31.2158 58.1002 31.4427 58.1062 31.6676Z" fill="#F5D06F"/>
<path d="M49.7237 22.1878C49.7735 22.3968 49.8252 22.6058 49.881 22.8128L49.9685 23.1252L50.0521 23.4437C50.1676 23.8656 50.2949 24.2876 50.4343 24.7055C50.5736 25.1235 50.7248 25.5375 50.8881 25.9475C50.9677 26.1505 51.0532 26.3555 51.1408 26.5565C51.2284 26.7575 51.318 26.9586 51.4015 27.1636C51.7459 27.9796 52.138 28.7657 52.5679 29.5141C53.0117 30.2525 53.4376 30.9969 53.9272 31.6736C54.8487 30.9133 55.5851 29.8365 56.025 28.4931C56.2519 27.8184 56.3833 27.0919 56.4191 26.3117C56.4609 25.5315 56.4091 24.6956 56.2579 23.8139C56.1166 22.9202 55.8399 22.0664 55.4936 21.2166C55.3244 20.7906 55.1274 20.3727 54.9144 19.9607C54.8069 19.7557 54.6955 19.5507 54.58 19.3477C54.5223 19.2462 54.4646 19.1447 54.4029 19.0451L54.2099 18.7546C53.6924 17.9803 53.1092 17.236 52.4823 16.5354C52.327 16.3602 52.1678 16.1871 52.0046 16.0179C51.8414 15.8507 51.6643 15.6955 51.4931 15.5382C51.1448 15.2278 50.7885 14.9272 50.4263 14.6406C49.7735 15.4248 49.4053 16.4777 49.3058 17.7395C49.2779 18.056 49.2759 18.3804 49.2779 18.7287C49.2779 19.077 49.2938 19.4392 49.3277 19.8114C49.3933 20.5598 49.5247 21.3539 49.7237 22.1878Z" fill="#F5D06F"/>
<path d="M40.0546 14.161C40.4069 14.9014 40.8149 15.6338 41.2468 16.3663C41.6688 17.1146 42.1285 17.849 42.6261 18.5576C42.7495 18.7347 42.8749 18.9099 43.0043 19.085C43.1316 19.2562 43.263 19.4293 43.3844 19.6085C43.6392 19.9607 43.8999 20.3051 44.1686 20.6414C44.4373 20.9758 44.7139 21.3022 44.9965 21.6167C45.2792 21.9311 45.5757 22.2297 45.8544 22.5382C46.2066 22.1441 46.5032 21.6784 46.7301 21.1509C46.953 20.6255 47.1003 20.0483 47.164 19.4154C47.2277 18.7825 47.2078 18.0998 47.0943 17.3753C47.0366 17.0151 46.955 16.6409 46.8495 16.2608C46.7978 16.0697 46.738 15.8767 46.6724 15.6816C46.6027 15.4905 46.5271 15.2995 46.4455 15.1044C45.7728 13.5639 44.7696 12.0473 43.472 10.7676C43.1515 10.4451 42.8152 10.1327 42.4709 9.83015C42.2977 9.67888 42.1226 9.52961 41.9454 9.38233C41.7683 9.23704 41.5792 9.10568 41.3921 8.97034C40.6418 8.43495 39.8676 7.9334 39.0694 7.49951C38.6395 8.22398 38.5321 9.15146 38.7072 10.27C38.7968 10.8273 38.958 11.4303 39.1889 12.0732C39.2466 12.2324 39.3103 12.3936 39.374 12.5628C39.4376 12.732 39.5053 12.9051 39.577 13.0803C39.7203 13.4306 39.8795 13.7908 40.0546 14.161Z" fill="#F5D06F"/>
<path d="M29.359 7.77233C29.8525 8.3734 30.3859 8.98044 30.9532 9.57952C31.2378 9.87807 31.5343 10.1686 31.8289 10.4712C32.1195 10.7777 32.416 11.0802 32.7206 11.3807C33.0231 11.6793 33.3336 11.9738 33.65 12.2604C33.8073 12.4037 33.9665 12.547 34.1257 12.6864C34.2869 12.8257 34.4501 12.963 34.6054 13.1083C35.2383 13.6815 35.8871 14.2209 36.5539 14.7145C37.0315 13.9741 37.2365 12.9988 37.0873 11.8723C37.0136 11.3091 36.8464 10.712 36.5857 10.089C36.317 9.47404 35.9369 8.85306 35.4612 8.2102C35.2224 7.88777 34.9636 7.57132 34.687 7.26481C34.4083 6.9583 34.1158 6.65379 33.7933 6.38112C33.1544 5.82384 32.4539 5.29641 31.7135 4.8068C31.3453 4.56 30.9631 4.32913 30.5611 4.12413C30.163 3.91714 29.757 3.71811 29.347 3.53102C28.937 3.33995 28.523 3.16083 28.1071 2.99364C27.8961 2.91005 27.6871 2.82845 27.4781 2.75481C27.2632 2.68315 27.0482 2.61548 26.8353 2.5498C26.6143 3.13495 26.7576 3.82558 27.1856 4.70728C27.4005 5.14515 27.6911 5.62083 28.0553 6.13034C28.2364 6.3851 28.4374 6.64981 28.6564 6.92049C28.8733 7.19515 29.1161 7.46384 29.359 7.77233Z" fill="#F5D06F"/>
<mask id="mask2_2229_220" style="mask-type:luminance" maskUnits="userSpaceOnUse" x="13" y="0" width="14" height="9">
<path d="M13.7559 0H26.4937V8.58214H13.7559V0Z" fill="white"/>
</mask>
<g mask="url(#mask2_2229_220)">
<path d="M17.8924 3.22826C18.0496 3.32578 18.2068 3.42529 18.3621 3.52481C18.5233 3.62233 18.6845 3.72185 18.8437 3.83331C19.1662 4.04826 19.4946 4.2652 19.8329 4.48413C20.5036 4.922 21.2082 5.3519 21.9187 5.78976C22.6213 6.24753 23.3398 6.69933 24.0683 7.12326C24.2534 7.22875 24.4345 7.33224 24.6176 7.43574L24.8922 7.58899L25.1609 7.75219C25.5212 7.96316 25.8814 8.17214 26.2437 8.36918C26.5084 7.7502 26.4705 6.94214 26.0645 6.04651C26.0128 5.93705 25.957 5.82161 25.8953 5.70816C25.8297 5.5987 25.76 5.48525 25.6844 5.37379C25.5311 5.14889 25.356 4.922 25.155 4.69112C24.7529 4.23136 24.2553 3.76165 23.6563 3.29792C23.505 3.18447 23.3518 3.07102 23.1925 2.95957C23.0333 2.84811 22.8661 2.75059 22.6969 2.64908C22.3586 2.44806 22.0043 2.25301 21.6381 2.06991C21.2719 1.88083 20.8937 1.70568 20.5036 1.54049C20.1135 1.37728 19.7175 1.21209 19.3015 1.0867C17.6516 0.551311 15.8822 0.179126 14.1407 0C14.0969 0.352282 14.4173 0.762282 15.0602 1.26981C15.2214 1.39918 15.4045 1.52656 15.6016 1.67384C15.8006 1.82311 16.0175 1.98034 16.2524 2.14554C16.7261 2.47393 17.2754 2.8302 17.8924 3.22826Z" fill="#F5D06F"/>
</g>
<path d="M30.6629 147.933C30.028 149.36 29.1165 150.775 27.9601 151.959C27.6755 152.26 27.379 152.554 27.0744 152.843C26.9212 152.986 26.7679 153.128 26.6127 153.267C26.4535 153.402 26.2903 153.53 26.1271 153.657C25.4703 154.168 24.7916 154.642 24.1049 155.078C23.8322 154.475 23.8382 153.663 24.087 152.656C24.3338 151.647 24.8354 150.461 25.4941 149.032C25.8305 148.329 26.2007 147.622 26.5968 146.924C26.9729 146.195 27.3809 145.485 27.8128 144.8C28.0258 144.456 28.2507 144.123 28.4696 143.787C28.6846 143.443 28.9055 143.108 29.1284 142.782C29.3553 142.458 29.5882 142.145 29.825 141.845C29.9444 141.693 30.0639 141.546 30.1833 141.401L30.3664 141.186L30.5415 140.965C30.8082 141.337 31.0311 141.781 31.1904 142.278C31.3476 142.77 31.4431 143.317 31.467 143.91C31.4909 144.506 31.4411 145.142 31.3138 145.819C31.2501 146.158 31.1645 146.506 31.059 146.862C31.0053 147.039 30.9495 147.222 30.8839 147.399C30.8162 147.575 30.7425 147.754 30.6629 147.933Z" fill="#F5D06F"/>
<path d="M38.8571 140.123C38.7197 140.947 38.457 141.715 38.1465 142.489C37.9873 142.874 37.8141 143.252 37.6231 143.626C37.434 143.998 37.233 144.372 36.9981 144.715C36.5404 145.407 36.0288 146.074 35.4835 146.703C35.3462 146.86 35.2069 147.015 35.0675 147.167C34.9203 147.312 34.773 147.453 34.6217 147.595C34.3232 147.873 34.0167 148.142 33.7062 148.401C33.2225 147.67 32.9857 146.695 32.9678 145.519C32.9638 145.226 32.9718 144.92 32.9956 144.601C33.0136 144.279 33.0414 143.936 33.0852 143.588C33.1688 142.89 33.3002 142.139 33.4892 141.361C33.5808 140.969 33.6903 140.587 33.7977 140.193C33.8992 139.797 34.0127 139.401 34.1341 139.008C34.3749 138.226 34.6496 137.46 34.962 136.726C35.5392 135.213 36.2677 133.846 37.0479 132.62C37.8022 133.402 38.4053 134.461 38.7536 135.744C38.9347 136.395 39.0242 137.072 39.0441 137.804C39.064 138.535 39.0043 139.311 38.8571 140.123Z" fill="#F5D06F"/>
<path d="M45.9151 131.425C45.9867 134.851 44.4463 138.155 42.2908 140.539C40.8996 138.995 40.2786 136.296 40.392 132.992C40.406 132.152 40.4597 131.312 40.5712 130.506C40.6229 130.1 40.6965 129.706 40.7642 129.306C40.8259 128.902 40.9015 128.504 40.9871 128.114C41.1543 127.333 41.3752 126.593 41.62 125.88C41.8549 125.16 42.1375 124.483 42.4639 123.86C43.4272 124.603 44.2791 125.636 44.9 126.917C45.2085 127.558 45.4613 128.261 45.6424 129.021C45.8196 129.777 45.9051 130.574 45.9151 131.425Z" fill="#F5D06F"/>
<path d="M51.7608 121.985C51.92 122.835 51.9877 123.701 51.9757 124.563C51.9737 124.78 51.9658 124.995 51.9538 125.21L51.9299 125.532C51.92 125.637 51.9061 125.743 51.8921 125.846C51.8324 126.266 51.7548 126.682 51.6593 127.094C51.5657 127.506 51.4543 127.914 51.3269 128.314C51.1995 128.714 51.0642 129.115 50.887 129.485C50.5427 130.235 50.1427 130.952 49.7008 131.618C48.7813 130.86 48.019 129.793 47.4279 128.503C47.1313 127.857 46.8766 127.156 46.6696 126.408C46.5681 126.038 46.4666 125.645 46.373 125.241C46.2815 124.837 46.1999 124.425 46.1302 124.001C45.9949 123.158 45.9272 122.33 45.8894 121.508C45.8396 120.676 45.8416 119.862 45.8954 119.079C45.9212 118.687 45.973 118.309 46.0148 117.925C46.0586 117.545 46.1143 117.171 46.186 116.809C46.2556 116.444 46.3412 116.092 46.4407 115.75C46.5402 115.405 46.6596 115.079 46.7651 114.747C47.3403 115.071 47.8996 115.469 48.429 115.941C48.9564 116.412 49.4361 116.95 49.874 117.559C50.3098 118.166 50.696 118.841 51.0164 119.581C51.1776 119.951 51.3229 120.337 51.4483 120.739C51.5777 121.143 51.6871 121.561 51.7608 121.985Z" fill="#F5D06F"/>
<path d="M56.2886 111.928C56.627 112.77 56.8181 113.614 56.9454 114.472C57.0071 114.902 57.0489 115.332 57.0708 115.764C57.0808 115.979 57.0867 116.193 57.0887 116.408C57.0887 116.516 57.0907 116.623 57.0867 116.731L57.0668 117.047C57.0012 117.887 56.8638 118.719 56.6608 119.525C56.6091 119.726 56.5553 119.923 56.4956 120.122C56.4399 120.319 56.3623 120.508 56.2906 120.698C56.1414 121.074 55.9782 121.442 55.801 121.8C54.6904 121.125 53.6953 120.128 52.8494 118.896C52.6345 118.588 52.4374 118.269 52.2364 117.929C52.0374 117.589 51.8443 117.234 51.6632 116.868C51.299 116.138 50.9706 115.354 50.7019 114.538C50.6322 114.335 50.5705 114.13 50.5088 113.927C50.4491 113.722 50.3934 113.517 50.3337 113.314C50.2163 112.902 50.1108 112.494 50.0252 112.088C49.8461 111.277 49.7426 110.485 49.6789 109.711C49.5037 108.141 49.663 106.702 49.9356 105.362C51.2353 105.866 52.5051 106.668 53.6256 107.771C54.1929 108.326 54.6805 108.941 55.1323 109.635C55.5781 110.328 55.9662 111.092 56.2886 111.928Z" fill="#F5D06F"/>
<path d="M59.4453 101.42C59.6702 101.812 59.8732 102.21 60.0563 102.618C60.1479 102.823 60.2335 103.028 60.3151 103.235C60.3947 103.442 60.4584 103.647 60.5221 103.854C60.7728 104.684 60.94 105.533 61.0316 106.383C61.0555 106.596 61.0714 106.809 61.0853 107.022C61.0993 107.235 61.0933 107.442 61.0913 107.651C61.0813 108.069 61.0555 108.485 61.0077 108.895C60.9639 109.305 60.9002 109.711 60.8206 110.109C60.7808 110.308 60.735 110.505 60.6873 110.702C60.6295 110.893 60.5678 111.084 60.5022 111.271C59.2304 110.73 58.0561 109.866 56.9455 108.736C55.8449 107.609 54.8637 106.238 54.0536 104.696C53.6317 103.919 53.2754 103.141 52.9908 102.371C52.8475 101.985 52.7221 101.603 52.6126 101.222C52.4892 100.838 52.3798 100.456 52.2902 100.08C52.2007 99.7039 52.127 99.3297 52.0733 98.9615C52.0195 98.5953 51.9897 98.2351 51.9738 97.8768C51.9101 97.1563 51.918 96.4597 52.0016 95.793C53.4048 96.1134 54.8099 96.7324 56.1016 97.6698C56.7485 98.1375 57.3694 98.6869 57.9387 99.3138C58.49 99.9368 58.9955 100.637 59.4453 101.42Z" fill="#F5D06F"/>
<path d="M61.1993 90.6163C61.7546 91.3268 62.2323 92.0851 62.6283 92.8733C62.8373 93.2693 62.9846 93.6674 63.1299 94.0734C63.2732 94.4794 63.3986 94.8894 63.5021 95.3034C63.9539 96.9633 63.9459 98.6431 63.7011 100.211C62.3178 99.8452 60.9465 99.1387 59.6668 98.1734C59.0259 97.6918 58.4069 97.1464 57.8238 96.5473C57.5292 96.2448 57.2525 95.9323 56.9699 95.6059C56.6833 95.2755 56.4047 94.9332 56.138 94.5809C55.6006 93.8724 55.1528 93.1559 54.7687 92.4394C54.5875 92.0811 54.3845 91.7189 54.2173 91.3586C54.0462 90.9984 53.8929 90.6382 53.7596 90.2779C53.4869 89.5614 53.3197 88.8548 53.1505 88.1503C53.0053 87.4497 52.9436 86.7611 52.9595 86.0903C54.4104 86.2117 55.8971 86.6277 57.3142 87.3741C58.0228 87.7463 58.7114 88.202 59.3742 88.7434C59.7026 89.0121 60.037 89.3047 60.3335 89.6171C60.634 89.9296 60.9246 90.262 61.1993 90.6163Z" fill="#F5D06F"/>
<path d="M61.5342 79.6756C62.1731 80.3006 62.7423 80.9853 63.2399 81.7117C63.3633 81.8928 63.4827 82.0779 63.6001 82.265L63.7713 82.5456C63.823 82.6392 63.8708 82.7347 63.9206 82.8303C64.1176 83.2104 64.2947 83.6005 64.452 83.9946C64.7664 84.7847 65.0192 85.5968 65.1685 86.4088C65.2978 87.2189 65.3476 88.0309 65.3257 88.821C63.8788 88.6519 62.4 88.1424 60.9888 87.3701C60.2823 86.982 59.5917 86.5302 58.9329 86.0167C58.2562 85.5032 57.5914 84.93 56.9764 84.3051C56.6679 83.9926 56.3793 83.6741 56.1067 83.3517C55.9713 83.1905 55.84 83.0293 55.7126 82.8661C55.5872 82.7009 55.4638 82.5377 55.3384 82.3745C54.8388 81.7177 54.4209 81.047 54.0785 80.3742C53.9074 80.0359 53.7581 79.6975 53.6228 79.3612C53.4715 79.0228 53.3382 78.6865 53.2267 78.3481C53.0058 77.6734 52.8585 77.0007 52.8008 76.3339C54.2497 76.2543 55.7663 76.4593 57.263 77.0027C58.0094 77.2734 58.7518 77.6296 59.4703 78.0735C60.1907 78.5173 60.9092 79.0487 61.5342 79.6756Z" fill="#F5D06F"/>
<path d="M60.4539 68.7864C61.1525 69.3198 61.7973 69.9189 62.3785 70.5697C62.6711 70.8941 62.9437 71.2325 63.2025 71.5808C63.2662 71.6683 63.3299 71.7559 63.3916 71.8435L63.5627 72.1122C63.6742 72.2933 63.7817 72.4764 63.8851 72.6595C64.2971 73.3979 64.6395 74.1682 64.9062 74.9503L65.0037 75.2429C65.0316 75.3424 65.0554 75.44 65.0793 75.5395C65.1291 75.7365 65.1729 75.9335 65.2127 76.1326C65.2903 76.5267 65.35 76.9227 65.3898 77.3168C63.9369 77.3486 62.4044 77.0481 60.9077 76.4789C60.5335 76.3356 60.1633 76.1764 59.7951 75.9992C59.61 75.9117 59.4309 75.8181 59.2458 75.7226C59.0607 75.629 58.8736 75.5275 58.6905 75.424C57.9561 75.0101 57.2416 74.5344 56.5649 73.999C55.2413 72.9242 54.0611 71.75 53.253 70.504C53.1475 70.3488 53.058 70.1916 52.9584 70.0363C52.8569 69.8791 52.7614 69.7238 52.6698 69.5646C52.4887 69.2501 52.3255 68.9317 52.1822 68.6113C51.8897 67.9704 51.7046 67.3116 51.5234 66.6667C52.22 66.5274 52.9465 66.4578 53.6929 66.4637C54.065 66.4657 54.4432 66.4876 54.8233 66.5294C55.1995 66.5732 55.5737 66.6369 55.9518 66.7205C57.4645 67.0568 58.995 67.7315 60.4539 68.7864Z" fill="#F5D06F"/>
<path d="M57.9298 58.1284C58.31 58.3454 58.6941 58.5743 59.0404 58.829C59.3867 59.0818 59.7211 59.3525 60.0435 59.6371C60.6824 60.2083 61.2775 60.8352 61.795 61.504C62.2886 62.1827 62.7205 62.8992 63.0827 63.6396C63.2618 64.0078 63.435 64.3819 63.5683 64.7621C63.6957 65.1422 63.8032 65.5264 63.8928 65.9125C62.4836 66.1414 60.9551 66.0558 59.4345 65.6916C57.896 65.3293 56.3197 64.7064 54.8986 63.8187C54.7195 63.7092 54.5463 63.5958 54.3752 63.4784C54.202 63.3649 54.0249 63.2495 53.8577 63.1301C53.5193 62.8912 53.1989 62.6464 52.8944 62.3897C52.5919 62.1369 52.3073 61.8722 52.0386 61.6015C51.7679 61.3328 51.5271 61.0502 51.2703 60.7735C50.7727 60.2143 50.3627 59.6232 50.0184 59.0141C49.9308 58.8609 49.8512 58.7076 49.7736 58.5524C49.698 58.3971 49.6104 58.2459 49.5368 58.0906C49.3835 57.7801 49.2522 57.4677 49.1367 57.1492C50.4264 56.6994 51.8535 56.5123 53.3601 56.6477C53.7363 56.6835 54.1224 56.7352 54.4986 56.8149C54.8747 56.8925 55.2529 56.994 55.635 57.1174C56.3953 57.3622 57.1636 57.6985 57.9298 58.1284Z" fill="#F5D06F"/>
<path d="M54.0236 47.8526C54.4137 48.0218 54.7979 48.2109 55.174 48.4159C55.3591 48.5194 55.5462 48.6269 55.7293 48.7383L56 48.9075C56.0896 48.9672 56.1751 49.0269 56.2607 49.0886C56.9414 49.5782 57.5843 50.1315 58.1774 50.7306C58.3247 50.8799 58.4699 51.0331 58.6093 51.1884L58.8202 51.4232L59.0113 51.666C59.2661 51.9925 59.5029 52.3308 59.7258 52.6731C59.9487 53.0175 60.1557 53.3677 60.3448 53.724C60.5359 54.0803 60.715 54.4385 60.8464 54.8127C60.1876 55.0177 59.491 55.1471 58.7725 55.2028C58.052 55.2625 57.2937 55.2526 56.5354 55.1729C55.7731 55.0933 55.0029 54.9441 54.2386 54.7271C53.8564 54.6176 53.4763 54.4923 53.1001 54.349C52.913 54.2773 52.726 54.2017 52.5409 54.1201C52.3558 54.0385 52.1607 53.9589 51.9736 53.8713C51.2173 53.523 50.5207 53.1249 49.8898 52.6831C49.7306 52.5716 49.5773 52.4582 49.4261 52.3427C49.2768 52.2253 49.1315 52.1059 48.9782 51.9905C48.6777 51.7556 48.3931 51.5108 48.1264 51.256C47.8577 51.0033 47.6109 50.7366 47.382 50.4619C47.1472 50.1892 46.9442 49.9007 46.7252 49.622C46.2993 49.0568 45.9391 48.4617 45.6465 47.8407C46.7829 47.2575 48.0846 46.9232 49.5077 46.8993C50.2202 46.8873 50.9606 46.955 51.7268 47.1063C52.1149 47.1779 52.4831 47.2854 52.8673 47.4088C53.2494 47.5342 53.6355 47.6815 54.0236 47.8526Z" fill="#F5D06F"/>
<path d="M48.8012 38.1041C49.5715 38.3708 50.3318 38.7072 51.0662 39.1072C51.2493 39.2067 51.4304 39.3122 51.6135 39.4197L51.8822 39.5829L52.137 39.7581C52.4753 39.9969 52.8057 40.2497 53.1262 40.5144C53.4446 40.7791 53.7551 41.0577 54.0536 41.3443C54.3502 41.6349 54.6467 41.9255 54.8995 42.2459C55.417 42.8769 55.8807 43.5416 56.2768 44.2263C55.0985 44.7836 53.7193 45.0662 52.2743 45.0721C51.5498 45.0741 50.8114 45.0085 50.0711 44.8711C49.7068 44.7975 49.3187 44.7219 48.9386 44.6223C48.5604 44.5208 48.1823 44.4034 47.8081 44.2681C47.4339 44.1307 47.0717 43.9795 46.7234 43.8123C46.5482 43.7307 46.3771 43.6431 46.2099 43.5536C46.0427 43.462 45.8735 43.3704 45.7063 43.2789C45.0356 42.9087 44.4126 42.4907 43.8534 42.023C43.716 41.9036 43.5787 41.7842 43.4474 41.6608L43.2503 41.4737L43.0513 41.2906C42.7866 41.0418 42.5378 40.7851 42.3009 40.5184C42.0641 40.2517 41.8432 39.975 41.6342 39.6904C41.5307 39.5471 41.4292 39.4038 41.3337 39.2565C41.2381 39.1092 41.1326 38.9699 41.0371 38.8246C41.5148 38.4902 42.0442 38.2136 42.6194 37.9986C43.1946 37.7857 43.8016 37.6483 44.4544 37.5787C45.1073 37.509 45.7999 37.515 46.5283 37.5986C46.8926 37.6404 47.2647 37.7021 47.6469 37.7837C47.8379 37.8255 48.031 37.8713 48.226 37.923C48.4211 37.9748 48.6062 38.0384 48.8012 38.1041Z" fill="#F5D06F"/>
<path d="M42.3062 29.0462C42.4992 29.094 42.6923 29.1458 42.8853 29.2015L43.1739 29.2871L43.4546 29.3886C43.8287 29.5259 44.2009 29.6792 44.5711 29.8483C44.9413 30.0155 45.3095 30.1966 45.6718 30.3937C45.8529 30.4912 46.034 30.5907 46.2131 30.6962C46.3942 30.7997 46.5694 30.9072 46.7366 31.0266C48.082 31.958 49.3558 33.0627 50.2813 34.3484C49.2821 34.9972 48.0521 35.3993 46.7206 35.5266C46.0638 35.5864 45.3513 35.5983 44.6348 35.5306C43.9183 35.463 43.1899 35.3236 42.4614 35.1047C41.7429 34.8798 41.0184 34.6231 40.3477 34.2986C39.667 33.9822 39.064 33.5762 38.4609 33.1582C37.2449 32.3342 36.2278 31.2833 35.3242 30.1747C36.0765 29.4881 37.0458 29.0184 38.2261 28.8054C38.5186 28.7537 38.8331 28.7119 39.1476 28.6979C39.46 28.684 39.7904 28.686 40.1288 28.7059C40.8095 28.7457 41.5359 28.8572 42.3062 29.0462Z" fill="#F5D06F"/>
<path d="M34.6378 20.8147C35.3702 20.9719 36.1365 21.171 36.8829 21.4436C37.6213 21.7302 38.3597 22.0686 39.0841 22.4487C39.2652 22.5443 39.4464 22.6418 39.6255 22.7433C39.8046 22.8428 39.9837 22.9463 40.1509 23.0598C40.4932 23.2847 40.8296 23.5175 41.156 23.7623C41.4844 24.0051 41.8029 24.2579 42.1114 24.5186C42.4199 24.7794 42.7224 25.0441 42.9911 25.3367C42.591 25.679 42.1273 25.9676 41.6138 26.1925C41.1003 26.4194 40.5271 26.5945 39.924 26.7C39.319 26.8075 38.6781 26.8473 38.0153 26.8154C37.683 26.8015 37.3446 26.7657 37.0023 26.7139C36.8311 26.6881 36.6599 26.6562 36.4868 26.6184C36.3077 26.5886 36.1285 26.5527 35.9494 26.5109C34.5084 26.1885 33.2028 25.5377 31.929 24.7873C31.6165 24.5923 31.314 24.3793 31.0195 24.1584C30.8722 24.0469 30.7269 23.9335 30.5836 23.8161C30.4403 23.7006 30.289 23.5932 30.1457 23.4757C29.5685 23.012 29.0152 22.5184 28.5137 21.9751C29.057 21.3362 29.8332 20.9102 30.8642 20.6993C31.3777 20.5938 31.9529 20.544 32.5898 20.554C32.747 20.558 32.9122 20.5619 33.0754 20.5739C33.2386 20.5898 33.4058 20.6077 33.575 20.6316C33.9153 20.6754 34.2696 20.7371 34.6378 20.8147Z" fill="#F5D06F"/>
<path d="M25.902 13.5143C26.6026 13.6596 27.335 13.8467 28.0813 14.0716C28.4535 14.189 28.8357 14.3045 29.2079 14.4458C29.5761 14.5931 29.9482 14.7483 30.3184 14.9115C30.6886 15.0767 31.0588 15.2499 31.425 15.431C31.6081 15.5225 31.7893 15.6161 31.9724 15.7096C32.1535 15.8032 32.3346 15.9007 32.5058 16.0102C33.2004 16.4361 33.8751 16.8899 34.508 17.3715C33.9149 18.0283 33.0372 18.498 31.9803 18.717C31.4509 18.8264 30.8797 18.8702 30.2727 18.8424C29.6596 18.8244 29.0009 18.7528 28.3182 18.5936C27.9759 18.514 27.6355 18.4204 27.2992 18.307C26.9648 18.1915 26.6344 18.0562 26.2941 17.9288C25.6174 17.6621 24.9546 17.3337 24.3077 16.9575C23.6728 16.5595 23.016 16.1754 22.3971 15.7275C22.0866 15.5066 21.7801 15.2757 21.4795 15.0369C21.3303 14.9135 21.183 14.7901 21.0357 14.6667C20.8844 14.5513 20.7352 14.4319 20.5879 14.3105C20.9322 13.8029 21.5572 13.4586 22.4329 13.3412C22.8747 13.2755 23.3843 13.2556 23.9634 13.2815C24.254 13.2954 24.5605 13.3213 24.8829 13.3571C25.2054 13.3969 25.5537 13.4347 25.902 13.5143Z" fill="#F5D06F"/>
<path d="M16.1746 7.28852C16.3498 7.32634 16.5229 7.36216 16.6961 7.39799C16.8732 7.43381 17.0523 7.47362 17.2275 7.52536C17.5817 7.61891 17.944 7.7224 18.3122 7.82988C19.0466 8.04284 19.8129 8.26774 20.5732 8.53842C22.0718 9.12556 23.6263 9.75051 24.9856 10.5944C24.5935 11.1417 23.8989 11.5318 22.9914 11.6791C22.8779 11.699 22.7605 11.7129 22.6411 11.7249C22.5177 11.7388 22.3923 11.7508 22.2629 11.7567C22.0062 11.7707 21.7355 11.7707 21.4529 11.7527C20.8876 11.7149 20.2746 11.6154 19.6198 11.4323C19.4566 11.3885 19.2934 11.3368 19.1302 11.283C18.961 11.2313 18.7938 11.1795 18.6286 11.1278C18.2903 11.0163 17.9539 10.8929 17.6156 10.7536C17.2752 10.6143 16.9369 10.461 16.6005 10.2899C16.2622 10.1227 15.9278 9.93163 15.5815 9.76245C15.2392 9.58532 14.8929 9.40022 14.5545 9.19721C14.2162 8.99619 13.8778 8.78323 13.5414 8.56231C13.3743 8.45085 13.2071 8.33939 13.0399 8.22794C12.8727 8.11648 12.7015 8.01498 12.5344 7.9075C12.198 7.69056 11.8616 7.46964 11.5312 7.24473C11.7144 6.9442 12.188 6.8208 12.9663 6.8208C13.1593 6.82478 13.3763 6.82677 13.6051 6.85265C13.834 6.87653 14.0808 6.91235 14.3475 6.95415C14.8809 7.03575 15.488 7.15119 16.1746 7.28852Z" fill="#F5D06F"/>
<mask id="mask3_2229_220" style="mask-type:luminance" maskUnits="userSpaceOnUse" x="0" y="10" width="69" height="155">
<path d="M0.466797 10.1108H68.7876V164.918H0.466797V10.1108Z" fill="white"/>
</mask>
<g mask="url(#mask3_2229_220)">
<path d="M26.9554 10.2461C34.2399 14.5312 40.8915 19.8911 46.6255 26.1147C52.3337 32.3622 57.1143 39.4596 60.7506 47.1163L62.0602 50.0122L63.2464 52.9638C63.9828 54.9501 64.6954 56.9483 65.2825 58.9884C66.4906 63.0526 67.3942 67.2103 67.9893 71.4138L68.3615 74.5764L68.4053 74.9724L68.4351 75.3685L68.4929 76.1646L68.666 78.547C68.6899 78.8117 68.6859 79.0764 68.6959 79.3411L68.7416 80.9334L68.7854 82.5256L68.7576 84.1198C68.7576 86.2454 68.6083 88.3651 68.453 90.4848L68.1127 93.6553C68.0888 93.92 68.043 94.1807 68.0032 94.4435L67.8838 95.2316L67.643 96.8079C66.9404 101.001 65.9234 105.143 64.6038 109.188L64.0883 110.698L63.8296 111.453L63.7002 111.831L63.5549 112.201L62.3946 115.174L61.1029 118.094L60.9417 118.458C60.8859 118.58 60.8242 118.697 60.7665 118.817L60.4123 119.533L59.7037 120.962C57.7672 124.752 55.542 128.394 53.0581 131.849L52.1147 133.137L51.641 133.78C51.4818 133.993 51.3106 134.198 51.1474 134.405L50.1483 135.65L49.6507 136.273C49.4836 136.482 49.3184 136.689 49.1392 136.886L47.0395 139.291L44.8402 141.603C38.8614 147.658 31.965 152.799 24.4576 156.777C16.9323 160.72 8.80992 163.485 0.476562 164.918C8.72832 163.081 16.6935 160.103 24.0576 156.039C31.4037 151.941 38.1369 146.786 43.9923 140.775L46.1478 138.483L48.2078 136.104C48.3829 135.909 48.5461 135.704 48.7093 135.497L50.1782 133.652C50.3414 133.445 50.5066 133.244 50.6658 133.035L51.1295 132.398L52.057 131.129C54.5011 127.721 56.6944 124.135 58.615 120.405L59.3156 118.998L59.6679 118.293C59.7256 118.176 59.7873 118.06 59.841 117.941L60.0023 117.583L61.284 114.711L62.4463 111.785L62.5916 111.421L62.721 111.048L62.9797 110.306L63.4972 108.819C64.8227 104.841 65.8557 100.763 66.5862 96.6288L66.8369 95.0744L66.9643 94.2982C67.0041 94.0394 67.0519 93.7807 67.0778 93.518L67.442 90.3912C67.6151 88.2994 67.7863 86.2037 67.8082 84.1019C67.8997 79.9024 67.7127 75.6929 67.1852 71.5193C66.6459 67.3496 65.8 63.2197 64.6536 59.1715C64.0963 57.1414 63.4116 55.1491 62.7051 53.1668L61.5646 50.2211L60.2988 47.3273C56.776 39.6726 52.1008 32.5453 46.4722 26.252C40.8178 19.9866 34.218 14.569 26.9554 10.2461Z" fill="#F5D06F"/>
</g>
<mask id="mask4_2229_220" style="mask-type:luminance" maskUnits="userSpaceOnUse" x="0" y="0" width="22" height="8">
<path d="M0 0H21.3996V7.56311H0V0Z" fill="white"/>
</mask>
<g mask="url(#mask4_2229_220)">
<path d="M10.8241 3.64438C11.8252 4.0703 12.8064 4.46239 13.7578 4.81666C14.2375 4.98385 14.6912 5.18288 15.145 5.35404C15.5988 5.52919 16.0426 5.69239 16.4805 5.83967C16.9144 5.99293 17.3483 6.11632 17.7583 6.25564C18.1683 6.39696 18.5703 6.52234 18.9604 6.63181C19.7406 6.85472 20.479 7.01196 21.1597 7.12142C20.6482 6.66564 20.0411 6.21584 19.3565 5.76006C19.0142 5.53317 18.6519 5.30826 18.2718 5.08336C17.8916 4.85846 17.4796 4.6654 17.0577 4.45841C16.6358 4.2554 16.1939 4.05836 15.7421 3.86132C15.2863 3.66826 14.8226 3.46127 14.331 3.29807C13.3518 2.95972 12.3288 2.62734 11.2679 2.31884C10.1932 2.05015 9.14429 1.80734 8.1372 1.57646C8.01181 1.5486 7.88842 1.51875 7.76303 1.49088C7.63764 1.467 7.51225 1.4471 7.38686 1.42321C7.13807 1.37943 6.89327 1.33564 6.64846 1.29185C6.16681 1.20428 5.69511 1.12069 5.22938 1.0371C4.76963 0.955493 4.32778 0.861949 3.8939 0.79826C3.462 0.734571 3.04404 0.670881 2.64598 0.605202C1.84787 0.473842 1.11943 0.340493 0.476562 0.201172C1.11943 0.340493 1.83792 0.521609 2.61812 0.734571C3.00623 0.840056 3.41025 0.953503 3.82822 1.07491C4.03919 1.13064 4.24817 1.20826 4.46113 1.27991C4.67608 1.35554 4.89103 1.42918 5.10997 1.50481C5.55181 1.66006 6.00361 1.81928 6.46137 1.9785C6.69225 2.0621 6.92511 2.1437 7.15997 2.2253C7.27739 2.26909 7.39681 2.31088 7.51424 2.35268C7.63366 2.40244 7.75108 2.44821 7.8705 2.49598C8.81987 2.87414 9.80706 3.26224 10.8241 3.64438Z" fill="#F5D06F"/>
</g>
</svg>
