<svg width="1478" height="931" viewBox="0 0 1478 931" fill="none" xmlns="http://www.w3.org/2000/svg">
<path d="M0 0C0 0 437.991 122.525 722 122.525C1006.01 122.525 1444 0 1444 0V931C1444 931 1005.78 852.372 722 852.372C438.219 852.372 0 931 0 931V0Z" fill="#FFC40C"/>
<path d="M104.774 247.787C105.547 244.325 106.476 240.904 107.546 237.528C103.795 236.461 100.187 234.861 96.4301 233.792C95.8328 235.983 95.032 238.692 94.3098 240.854L87.5852 260.99C86.96 262.863 87.1817 264.902 88.1934 266.577C89.9488 269.483 93.6301 270.618 96.7906 269.226L97.1169 269.082C99.1377 268.192 100.617 266.402 101.095 264.268L104.774 247.787Z" fill="#CB9D10"/>
<path d="M139.853 170.643C137.535 164.028 131.9 158.933 125.029 157.249L124.586 157.141C115.216 154.84 106.906 158.223 101.72 166.31L140.974 177.06C140.866 175.314 140.48 172.432 139.853 170.643Z" fill="#CB9D10"/>
<path d="M134.422 192.711C138.711 187.815 141.312 182.048 140.936 175.95L102.254 165.512C98.8978 170.27 97.289 176.412 98.2685 182.699C99.136 188.27 100.529 195.031 100.566 200.698L122.439 206.528C125.739 201.94 130.698 196.962 134.422 192.711Z" fill="#CB9D10"/>
<path d="M100.569 199.335C100.568 199.481 100.573 199.628 100.573 199.774L100.551 203.252C100.491 213.738 99.0512 224.182 96.2853 234.321L106.931 239.523C110.401 228.584 116.021 216.147 122.44 206.527C122.699 206.137 122.968 205.755 123.241 205.376L100.569 199.335Z" fill="#CB9D10"/>
<path d="M106.609 204.731C106.595 203.514 104.679 203.486 104.693 204.712C104.749 209.468 104.319 214.232 103.38 218.911C103.278 219.414 103.49 219.934 104.02 220.085C104.481 220.215 105.113 219.941 105.215 219.434C106.19 214.585 106.669 209.66 106.609 204.731Z" fill="#FFC40C"/>
<path d="M115.217 206.755C112.484 211.153 110.11 215.757 108.094 220.513C107.892 220.988 108.278 221.556 108.735 221.686C109.276 221.84 109.727 221.513 109.93 221.035C111.879 216.437 114.199 211.995 116.84 207.743C117.491 206.695 115.868 205.707 115.217 206.755Z" fill="#FFC40C"/>
<path d="M108.043 226.663C106.195 225.642 104.159 225.042 102.038 224.883C101.539 224.846 101.047 225.335 101.056 225.823C101.068 226.365 101.457 226.742 101.993 226.781C103.717 226.911 105.507 227.448 107.021 228.285C107.456 228.525 108.081 228.429 108.344 227.967C108.592 227.533 108.51 226.92 108.043 226.663Z" fill="#FFC40C"/>
<path d="M105.839 230.994C104.199 230.374 102.503 229.966 100.762 229.715C100.266 229.644 99.7708 230.19 99.7813 230.656C99.7927 231.226 100.184 231.538 100.716 231.614C100.544 231.589 100.818 231.631 100.85 231.635C100.963 231.655 101.077 231.672 101.189 231.693C101.382 231.725 101.574 231.763 101.765 231.802C102.166 231.882 102.564 231.975 102.957 232.077C103.748 232.283 104.523 232.531 105.286 232.819C105.753 232.996 106.36 232.638 106.48 232.167C106.616 231.633 106.34 231.184 105.839 230.994Z" fill="#FFC40C"/>
<path d="M104.192 174.317C100.884 173.376 98.859 180.03 102.172 180.972C105.48 181.915 107.505 175.26 104.192 174.317Z" fill="#F4E8C1"/>
<path d="M115.232 179.688C115.266 179.136 115.182 178.625 114.98 178.154C114.854 177.946 114.728 177.739 114.603 177.53C114.287 177.14 113.896 176.879 113.433 176.744L113.246 176.691C112.896 176.574 112.54 176.569 112.176 176.672C111.82 176.704 111.481 176.835 111.156 177.067C110.823 177.271 110.547 177.547 110.328 177.896C110.057 178.213 109.865 178.583 109.751 179.007C109.699 179.286 109.648 179.564 109.597 179.843C109.563 180.394 109.648 180.905 109.849 181.376C109.975 181.585 110.1 181.793 110.226 182C110.543 182.39 110.933 182.652 111.396 182.786L111.584 182.84C111.933 182.956 112.289 182.963 112.653 182.859C113.009 182.826 113.349 182.695 113.671 182.465C114.006 182.259 114.282 181.983 114.501 181.634C114.772 181.318 114.964 180.947 115.079 180.523C115.13 180.245 115.181 179.966 115.232 179.688Z" fill="#F4E8C1"/>
<path d="M124.265 179.912C121.243 178.295 117.753 184.566 120.779 186.185C123.801 187.801 127.291 181.531 124.265 179.912Z" fill="#F4E8C1"/>
<path d="M133.562 180.861C130.203 180.109 128.527 187.025 131.892 187.775C135.25 188.528 136.926 181.612 133.562 180.861Z" fill="#F4E8C1"/>
<path d="M117.705 277.359C119.543 274.326 122.095 270.734 124.19 267.878C120.976 265.669 117.183 264.107 113.965 261.894C112.697 263.779 111.378 265.633 110.004 267.449L97.1921 284.38C95.9998 285.955 95.5584 287.956 95.981 289.866C96.7163 293.18 99.842 295.431 103.285 295.122L103.639 295.09C105.839 294.892 107.814 293.667 108.948 291.798L117.705 277.359Z" fill="#CB9D10"/>
<path d="M175.492 215.768C175.409 208.762 171.698 202.135 165.725 198.345L165.338 198.1C157.192 192.931 147.502 194.535 140.866 199.384L174.557 221.792C175.012 220.103 175.514 217.662 175.492 215.768Z" fill="#CB9D10"/>
<path d="M163.294 234.944C168.926 231.674 173.234 227.041 174.827 221.145L141.503 198.904C136.8 202.339 133.313 207.646 132.231 213.914C131.271 219.469 130.729 225.448 128.954 230.828L148.647 243.374C153.24 240.082 158.407 237.783 163.294 234.944Z" fill="#CB9D10"/>
<path d="M129.091 230.41C129.044 230.55 129.001 230.689 128.953 230.828L127.822 234.116C124.411 244.03 119.708 253.465 113.846 262.189C117.064 264.402 120.279 266.611 123.492 268.819C130.278 259.563 138.36 251.271 147.52 244.207C147.891 243.921 151.578 241.478 151.957 241.206L129.091 230.41Z" fill="#CB9D10"/>
<path d="M133.089 237.45C133.466 236.293 131.658 235.654 131.28 236.82C129.81 241.344 127.882 245.72 125.495 249.852C125.238 250.297 125.273 250.857 125.726 251.169C126.12 251.44 126.808 251.381 127.067 250.933C129.541 246.652 131.569 242.139 133.089 237.45Z" fill="#FFC40C"/>
<path d="M140.601 242.115C136.605 245.411 132.884 249.013 129.451 252.875C129.108 253.261 129.291 253.921 129.684 254.192C130.147 254.509 130.681 254.344 131.024 253.956C134.342 250.222 137.96 246.755 141.825 243.57C142.776 242.784 141.554 241.329 140.601 242.115Z" fill="#FFC40C"/>
<path d="M127.44 258.687C126.014 257.128 124.276 255.91 122.317 255.083C121.855 254.888 121.233 255.194 121.087 255.661C120.923 256.177 121.171 256.658 121.667 256.867C123.26 257.54 124.786 258.62 125.953 259.895C126.288 260.262 126.91 260.372 127.308 260.019C127.681 259.687 127.799 259.08 127.44 258.687Z" fill="#FFC40C"/>
<path d="M123.96 262.084C122.603 260.972 121.127 260.046 119.558 259.252C119.109 259.026 118.467 259.386 118.328 259.829C118.155 260.373 118.426 260.794 118.907 261.037C118.752 260.958 118.998 261.084 119.027 261.1C119.129 261.153 119.229 261.207 119.33 261.261C119.502 261.355 119.672 261.45 119.843 261.549C120.196 261.754 120.543 261.967 120.885 262.19C121.567 262.637 122.222 263.121 122.853 263.636C123.239 263.954 123.929 263.808 124.193 263.402C124.493 262.937 124.375 262.424 123.96 262.084Z" fill="#FFC40C"/>
<path d="M140.522 207.864C137.689 205.917 133.642 211.573 136.481 213.525C139.314 215.472 143.361 209.814 140.522 207.864Z" fill="#F4E8C1"/>
<path d="M150.426 215.048C150.725 214.407 150.886 213.782 150.912 213.174C150.887 212.896 150.862 212.619 150.837 212.342C150.711 211.801 150.449 211.393 150.053 211.119L149.891 211.007C149.601 210.781 149.25 210.684 148.839 210.713C148.47 210.663 148.07 210.731 147.637 210.923C147.206 211.08 146.799 211.337 146.414 211.694C145.992 212 145.623 212.388 145.307 212.859C145.122 213.177 144.937 213.493 144.751 213.808C144.453 214.451 144.292 215.076 144.266 215.682C144.29 215.961 144.315 216.239 144.339 216.516C144.466 217.057 144.729 217.465 145.125 217.739L145.285 217.85C145.576 218.077 145.928 218.174 146.34 218.143C146.708 218.195 147.109 218.125 147.541 217.934C147.972 217.778 148.379 217.521 148.763 217.164C149.185 216.858 149.554 216.469 149.871 215.997C150.057 215.681 150.241 215.365 150.426 215.048Z" fill="#F4E8C1"/>
<path d="M157.754 219.573C155.409 217.076 150.095 221.901 152.445 224.401C154.793 226.898 160.106 222.073 157.754 219.573Z" fill="#F4E8C1"/>
<path d="M166.264 223.44C163.321 221.656 159.523 227.673 162.472 229.459C165.415 231.244 169.214 225.228 166.264 223.44Z" fill="#F4E8C1"/>
<path d="M170.384 203.583C166.791 204.099 162.195 201.457 161.769 197.671C161.605 196.206 159.337 196.521 159.502 197.988C160.066 203.019 165.901 206.538 170.703 205.851C172.161 205.641 171.847 203.374 170.384 203.583Z" fill="#F4E8C1"/>
<path d="M155.049 196.282C153.686 195.721 152.813 197.837 154.179 198.399C155.541 198.958 156.414 196.843 155.049 196.282Z" fill="#F4E8C1"/>
<path d="M157.343 201.297C155.981 200.737 155.109 202.851 156.474 203.412C157.837 203.973 158.71 201.858 157.343 201.297Z" fill="#F4E8C1"/>
<path d="M162.392 205.758C161.03 205.198 160.157 207.312 161.522 207.873C162.886 208.434 163.757 206.319 162.392 205.758Z" fill="#F4E8C1"/>
<path d="M168.062 208.367C166.7 207.807 165.827 209.923 167.192 210.484C168.555 211.044 169.428 208.929 168.062 208.367Z" fill="#F4E8C1"/>
<path d="M173.706 209.002C172.344 208.442 171.471 210.558 172.836 211.119C174.2 211.679 175.073 209.563 173.706 209.002Z" fill="#F4E8C1"/>
<path d="M130.671 160.017C126.691 161.094 122.667 160.143 119.617 157.361C118.525 156.367 117.132 158.184 118.214 159.17C121.66 162.312 126.488 163.503 130.989 162.283C132.392 161.903 132.095 159.631 130.671 160.017Z" fill="#F4E8C1"/>
<path d="M114.436 159.726C114.459 159.526 114.433 159.333 114.355 159.147C114.306 159.062 114.258 158.978 114.209 158.894C114.083 158.731 113.925 158.608 113.735 158.53L113.644 158.492C113.5 158.428 113.351 158.401 113.198 158.416C113.049 158.405 112.905 158.431 112.767 158.495C112.624 158.548 112.505 158.631 112.408 158.744C112.29 158.844 112.205 158.968 112.15 159.115C112.123 159.214 112.098 159.314 112.073 159.412C112.048 159.613 112.076 159.804 112.152 159.991C112.2 160.076 112.251 160.16 112.299 160.245C112.425 160.408 112.583 160.529 112.774 160.609L112.865 160.647C113.008 160.711 113.156 160.737 113.31 160.723C113.459 160.734 113.601 160.708 113.74 160.643C113.882 160.59 114.004 160.506 114.099 160.394C114.217 160.295 114.304 160.171 114.358 160.022C114.384 159.924 114.41 159.825 114.436 159.726Z" fill="#F4E8C1"/>
<path d="M118.242 162.171C116.878 161.611 116.008 163.726 117.373 164.287C118.736 164.847 119.607 162.732 118.242 162.171Z" fill="#F4E8C1"/>
<path d="M125.1 164.463C123.736 163.903 122.863 166.019 124.23 166.58C125.592 167.14 126.465 165.024 125.1 164.463Z" fill="#F4E8C1"/>
<path d="M130.467 164.985C129.104 164.425 128.231 166.539 129.598 167.101C130.96 167.66 131.832 165.546 130.467 164.985Z" fill="#F4E8C1"/>
<path d="M135.92 164.278C134.556 163.718 133.685 165.833 135.05 166.393C136.414 166.954 137.285 164.839 135.92 164.278Z" fill="#F4E8C1"/>
<path d="M1406.3 579.729C1403.63 577.393 1401.08 574.939 1398.62 572.384C1395.89 575.166 1392.76 577.567 1390.02 580.354C1391.66 581.928 1393.65 583.928 1395.21 585.597L1409.67 601.141C1411.01 602.587 1412.91 603.369 1414.86 603.283C1418.25 603.133 1421.01 600.444 1421.3 597.003L1421.33 596.648C1421.52 594.447 1420.66 592.291 1419.01 590.85L1406.3 579.729Z" fill="#CB9D10"/>
<path d="M1355.37 511.997C1348.46 510.865 1341.28 513.372 1336.52 518.598L1336.21 518.935C1329.7 526.06 1328.69 534.976 1333.31 543.4L1361.54 514.085C1359.96 513.344 1357.24 512.302 1355.37 511.997Z" fill="#CB9D10"/>
<path d="M1372.15 527.33C1369.9 521.22 1366.09 516.176 1360.55 513.586L1332.87 542.549C1335.44 547.773 1340.06 552.126 1346.05 554.277C1351.35 556.182 1357.96 558.197 1362.95 560.877L1378.54 544.466C1376.09 539.372 1374.1 532.635 1372.15 527.33Z" fill="#CB9D10"/>
<path d="M1361.75 560.223C1361.88 560.294 1362.01 560.359 1362.14 560.43L1365.18 562.114C1374.36 567.187 1382.84 573.452 1390.42 580.735L1400.08 573.879C1392.14 565.596 1383.91 554.707 1378.54 544.466C1378.32 544.051 1378.11 543.632 1377.91 543.211L1361.75 560.223Z" fill="#CB9D10"/>
<path d="M1369.38 557.504C1368.31 556.934 1367.37 558.603 1368.45 559.177C1372.65 561.405 1376.63 564.063 1380.29 567.128C1380.68 567.459 1381.24 567.522 1381.62 567.129C1381.96 566.786 1382.02 566.099 1381.62 565.767C1377.83 562.59 1373.74 559.811 1369.38 557.504Z" fill="#FFC40C"/>
<path d="M1375.28 550.915C1377.83 555.42 1380.74 559.708 1383.95 563.756C1384.27 564.16 1384.95 564.094 1385.29 563.755C1385.68 563.353 1385.61 562.801 1385.29 562.393C1382.18 558.481 1379.39 554.317 1376.93 549.963C1376.32 548.89 1374.67 549.841 1375.28 550.915Z" fill="#FFC40C"/>
<path d="M1389.32 566.746C1387.54 567.879 1386.04 569.379 1384.89 571.165C1384.61 571.585 1384.81 572.251 1385.24 572.477C1385.72 572.726 1386.24 572.565 1386.53 572.114C1387.47 570.662 1388.8 569.347 1390.26 568.419C1390.68 568.152 1390.89 567.558 1390.61 567.105C1390.35 566.68 1389.77 566.459 1389.32 566.746Z" fill="#FFC40C"/>
<path d="M1392.07 570.754C1390.74 571.897 1389.57 573.19 1388.52 574.599C1388.22 575.001 1388.46 575.696 1388.87 575.91C1389.38 576.173 1389.84 575.979 1390.16 575.549C1390.06 575.687 1390.23 575.467 1390.25 575.441C1390.32 575.351 1390.39 575.26 1390.46 575.171C1390.58 575.017 1390.7 574.867 1390.83 574.717C1391.09 574.404 1391.36 574.099 1391.64 573.802C1392.2 573.207 1392.79 572.645 1393.41 572.113C1393.79 571.789 1393.76 571.083 1393.41 570.753C1393 570.378 1392.48 570.405 1392.07 570.754Z" fill="#FFC40C"/>
<path d="M1341.53 545.063C1339.12 547.517 1343.99 552.48 1346.4 550.023C1348.81 547.57 1343.94 542.606 1341.53 545.063Z" fill="#F4E8C1"/>
<path d="M1351.52 537.942C1351.06 537.649 1350.57 537.478 1350.06 537.43C1349.81 537.44 1349.57 537.452 1349.33 537.462C1348.84 537.553 1348.42 537.771 1348.08 538.113L1347.94 538.252C1347.67 538.502 1347.5 538.813 1347.41 539.182C1347.27 539.51 1347.22 539.871 1347.27 540.266C1347.29 540.656 1347.4 541.031 1347.6 541.39C1347.75 541.779 1347.99 542.125 1348.3 542.429C1348.52 542.607 1348.74 542.786 1348.96 542.964C1349.43 543.257 1349.92 543.428 1350.43 543.477C1350.67 543.466 1350.92 543.456 1351.16 543.445C1351.65 543.354 1352.07 543.136 1352.41 542.794L1352.54 542.655C1352.81 542.404 1352.99 542.095 1353.07 541.725C1353.22 541.397 1353.26 541.036 1353.22 540.643C1353.2 540.25 1353.08 539.876 1352.88 539.516C1352.74 539.127 1352.5 538.781 1352.18 538.477C1351.96 538.299 1351.74 538.121 1351.52 537.942Z" fill="#F4E8C1"/>
<path d="M1356.05 530.119C1353.18 531.997 1357.02 538.064 1359.89 536.183C1362.75 534.303 1358.92 528.237 1356.05 530.119Z" fill="#F4E8C1"/>
<path d="M1361.33 522.412C1359.06 525.001 1364.33 529.783 1366.6 527.189C1368.87 524.601 1363.6 519.818 1361.33 522.412Z" fill="#F4E8C1"/>
<path d="M1438.46 582.534C1436.68 579.468 1434.74 575.508 1433.24 572.302C1429.76 574.066 1426.57 576.648 1423.09 578.414C1424.14 580.429 1425.13 582.475 1426.07 584.551L1434.8 603.905C1435.61 605.706 1437.16 607.051 1439.04 607.595C1442.3 608.536 1445.77 606.87 1447.15 603.699L1447.29 603.373C1448.17 601.346 1448.04 599.026 1446.94 597.135L1438.46 582.534Z" fill="#CB9D10"/>
<path d="M1412.05 502.313C1405.86 499.031 1398.27 499.117 1392.08 502.546L1391.68 502.768C1383.24 507.445 1380.01 516.72 1381.09 524.868L1416.89 506.018C1415.63 504.81 1413.73 503.201 1412.05 502.313Z" fill="#CB9D10"/>
<path d="M1423.05 522.204C1422.87 515.693 1420.87 509.692 1416.45 505.471L1380.97 524.079C1381.74 529.852 1384.73 535.455 1389.71 539.405C1394.13 542.908 1399.12 546.246 1402.99 550.381L1423.44 539.098C1422.74 533.489 1423.2 527.853 1423.05 522.204Z" fill="#CB9D10"/>
<path d="M1402.69 550.061C1402.79 550.168 1402.89 550.273 1402.99 550.382L1405.34 552.949C1412.41 560.69 1418.44 569.336 1423.29 578.66C1426.78 576.894 1430.25 575.129 1433.73 573.366C1428.85 562.977 1425.44 551.911 1423.63 540.487C1423.55 540.024 1423.17 535.618 1423.12 535.155L1402.69 550.061Z" fill="#CB9D10"/>
<path d="M1410.79 549.921C1409.95 549.037 1408.52 550.318 1409.37 551.208C1412.63 554.664 1415.55 558.452 1418.04 562.527C1418.31 562.965 1418.81 563.202 1419.3 562.954C1419.73 562.737 1420.01 562.105 1419.74 561.664C1417.17 557.442 1414.17 553.501 1410.79 549.921Z" fill="#FFC40C"/>
<path d="M1418.48 545.56C1419.46 550.647 1420.84 555.638 1422.59 560.501C1422.76 560.987 1423.43 561.142 1423.85 560.928C1424.35 560.672 1424.46 560.125 1424.29 559.638C1422.6 554.937 1421.29 550.1 1420.34 545.183C1420.11 543.972 1418.24 544.347 1418.48 545.56Z" fill="#FFC40C"/>
<path d="M1426.73 565.049C1424.68 565.555 1422.77 566.497 1421.11 567.822C1420.72 568.133 1420.69 568.826 1421.03 569.178C1421.4 569.568 1421.94 569.581 1422.36 569.246C1423.72 568.169 1425.4 567.347 1427.08 566.933C1427.56 566.815 1427.95 566.321 1427.83 565.803C1427.72 565.316 1427.24 564.922 1426.73 565.049Z" fill="#FFC40C"/>
<path d="M1428.04 569.73C1426.42 570.389 1424.9 571.242 1423.45 572.239C1423.04 572.524 1423.04 573.261 1423.37 573.595C1423.76 574.008 1424.26 573.971 1424.7 573.664C1424.56 573.763 1424.79 573.608 1424.82 573.59C1424.91 573.526 1425.01 573.463 1425.1 573.401C1425.27 573.295 1425.43 573.191 1425.6 573.089C1425.95 572.877 1426.3 572.674 1426.66 572.481C1427.38 572.095 1428.12 571.752 1428.88 571.445C1429.34 571.258 1429.54 570.583 1429.31 570.156C1429.05 569.671 1428.54 569.529 1428.04 569.73Z" fill="#FFC40C"/>
<path d="M1388.37 529.231C1385.3 530.786 1388.33 537.046 1391.41 535.489C1394.47 533.934 1391.44 527.672 1388.37 529.231Z" fill="#F4E8C1"/>
<path d="M1399.42 523.975C1399 523.406 1398.53 522.965 1398.01 522.651C1397.75 522.54 1397.5 522.429 1397.24 522.318C1396.7 522.17 1396.22 522.205 1395.79 522.421L1395.62 522.51C1395.28 522.656 1395.02 522.918 1394.85 523.293C1394.63 523.593 1394.5 523.977 1394.46 524.449C1394.39 524.902 1394.42 525.383 1394.55 525.891C1394.62 526.408 1394.78 526.918 1395.05 527.421C1395.24 527.735 1395.43 528.049 1395.61 528.363C1396.03 528.933 1396.51 529.374 1397.03 529.687C1397.28 529.799 1397.54 529.91 1397.79 530.022C1398.33 530.169 1398.81 530.134 1399.24 529.918L1399.42 529.83C1399.76 529.683 1400.01 529.421 1400.18 529.044C1400.4 528.746 1400.53 528.36 1400.57 527.89C1400.64 527.436 1400.61 526.956 1400.48 526.448C1400.41 525.93 1400.25 525.421 1399.99 524.916C1399.8 524.602 1399.61 524.289 1399.42 523.975Z" fill="#F4E8C1"/>
<path d="M1406.9 519.707C1403.59 520.572 1405.28 527.546 1408.6 526.68C1411.91 525.815 1410.22 518.84 1406.9 519.707Z" fill="#F4E8C1"/>
<path d="M1414.37 514.088C1411.4 515.819 1414.86 522.033 1417.84 520.3C1420.82 518.571 1417.35 512.355 1414.37 514.088Z" fill="#F4E8C1"/>
<path d="M1398.91 500.964C1397.64 504.365 1393.12 507.136 1389.59 505.697C1388.23 505.139 1387.42 507.282 1388.79 507.839C1393.47 509.753 1399.36 506.315 1401.05 501.77C1401.57 500.39 1399.43 499.579 1398.91 500.964Z" fill="#F4E8C1"/>
<path d="M1385.16 510.93C1384.01 511.859 1385.45 513.638 1386.6 512.708C1387.74 511.78 1386.3 510 1385.16 510.93Z" fill="#F4E8C1"/>
<path d="M1390.66 511.318C1389.52 512.245 1390.95 514.024 1392.1 513.094C1393.25 512.165 1391.81 510.387 1390.66 511.318Z" fill="#F4E8C1"/>
<path d="M1396.99 509.022C1395.85 509.949 1397.29 511.728 1398.43 510.798C1399.58 509.869 1398.14 508.092 1396.99 509.022Z" fill="#F4E8C1"/>
<path d="M1402 505.292C1400.86 506.22 1402.3 507.999 1403.44 507.07C1404.59 506.141 1403.15 504.361 1402 505.292Z" fill="#F4E8C1"/>
<path d="M1405.26 500.642C1404.11 501.57 1405.55 503.35 1406.7 502.42C1407.84 501.491 1406.4 499.711 1405.26 500.642Z" fill="#F4E8C1"/>
<path d="M1341.65 514.969C1340.69 518.98 1337.93 522.057 1334.02 523.402C1332.63 523.885 1333.56 525.978 1334.94 525.5C1339.35 523.979 1342.7 520.311 1343.79 515.775C1344.13 514.361 1341.99 513.534 1341.65 514.969Z" fill="#F4E8C1"/>
<path d="M1333.62 529.083C1333.46 528.967 1333.27 528.897 1333.07 528.878C1332.98 528.879 1332.88 528.881 1332.78 528.884C1332.58 528.916 1332.39 528.997 1332.23 529.126L1332.16 529.188C1332.03 529.283 1331.94 529.401 1331.88 529.542C1331.8 529.668 1331.75 529.807 1331.74 529.959C1331.72 530.11 1331.73 530.254 1331.79 530.393C1331.82 530.545 1331.89 530.679 1331.99 530.798C1332.06 530.868 1332.14 530.938 1332.21 531.007C1332.38 531.126 1332.56 531.193 1332.76 531.215C1332.86 531.213 1332.95 531.209 1333.05 531.208C1333.26 531.176 1333.44 531.095 1333.6 530.966L1333.68 530.904C1333.8 530.809 1333.9 530.691 1333.96 530.549C1334.04 530.424 1334.08 530.286 1334.09 530.134C1334.11 529.983 1334.1 529.837 1334.05 529.699C1334.01 529.548 1333.95 529.413 1333.84 529.294C1333.77 529.224 1333.69 529.154 1333.62 529.083Z" fill="#F4E8C1"/>
<path d="M1337.59 526.914C1336.44 527.843 1337.88 529.62 1339.03 528.69C1340.17 527.761 1338.73 525.984 1337.59 526.914Z" fill="#F4E8C1"/>
<path d="M1342.88 521.99C1341.74 522.919 1343.18 524.698 1344.33 523.768C1345.47 522.84 1344.03 521.06 1342.88 521.99Z" fill="#F4E8C1"/>
<path d="M1345.91 517.527C1344.77 518.456 1346.21 520.234 1347.35 519.303C1348.5 518.375 1347.06 516.597 1345.91 517.527Z" fill="#F4E8C1"/>
<path d="M1347.9 512.402C1346.76 513.33 1348.2 515.108 1349.34 514.178C1350.49 513.249 1349.05 511.472 1347.9 512.402Z" fill="#F4E8C1"/>
<path d="M1266.69 179.917C1265.62 180.035 1264.03 180.291 1262.43 180.355C1261.52 180.391 1260.53 180.285 1259.7 179.94C1257.94 179.203 1257.71 178.675 1258.18 176.85C1258.85 174.275 1259.56 171.715 1260.3 169.16C1260.51 168.439 1260.79 167.714 1261.18 167.072C1261.85 165.944 1262.8 165.636 1263.79 166.488C1265.36 167.834 1266.87 169.313 1268.15 170.93C1269.57 172.7 1270.7 174.688 1271.95 176.582C1272.11 176.819 1272.29 177.044 1272.43 177.291C1273.26 178.757 1272.84 179.739 1271.22 179.892C1269.9 180.017 1268.57 179.917 1266.69 179.917H1266.69ZM1262.8 167.973C1261.36 171.062 1260.9 174.102 1260.27 177.219C1262.05 177.398 1263.59 177.344 1265.01 177.751C1266.68 178.232 1268.1 177.831 1269.83 177.311C1267.55 174.109 1266.41 170.346 1262.8 167.973Z" fill="#CB9D10"/>
<path d="M1231.44 204.259C1230.99 205.705 1230.4 207.194 1230.09 208.74C1229.62 211.059 1229.37 213.418 1229.01 215.757C1228.84 216.909 1228.22 217.361 1227.29 216.987C1224.32 215.787 1221.35 214.597 1218.41 213.332C1217.37 212.888 1216.36 212.325 1215.45 211.657C1213.4 210.154 1213.52 208.224 1215.83 207.345C1219.89 205.797 1223.92 204.103 1228.26 203.408C1229.37 203.23 1230.54 202.979 1231.44 204.259ZM1226.98 213.916C1227.58 211.339 1228.15 208.917 1228.72 206.465C1225.62 206.124 1218.42 208.217 1216.58 209.997C1219.79 211.726 1222.95 213.334 1226.98 213.916Z" fill="#CB9D10"/>
<path d="M1303.25 199.494C1304.14 196.772 1304.31 196.686 1306.94 196.741C1310.26 196.813 1313.57 197.052 1316.75 198.065C1318.35 198.578 1319.9 199.332 1321.38 200.154C1322.43 200.736 1322.51 201.659 1321.7 202.534C1319.89 204.499 1317.9 206.239 1315.14 206.772C1313.18 207.15 1311.29 207.664 1309.57 208.785C1308.59 209.428 1308 209.198 1307.5 208.193C1306.07 205.314 1304.67 202.418 1303.25 199.491V199.494ZM1305.3 199.031C1305.98 201.5 1307.92 204.595 1309.57 205.962C1311.38 205.425 1313.18 204.85 1315 204.358C1316.62 203.92 1317.85 203.022 1319.05 201.406C1314.53 199.19 1309.98 199.066 1305.3 199.032V199.031Z" fill="#CB9D10"/>
<path d="M1258.69 249.453C1259.21 249.412 1259.8 249.207 1260.28 249.357C1262.57 250.07 1264.92 250.117 1267.28 250.177C1268.69 250.214 1270.24 250.14 1271.02 251.662C1271.8 253.197 1270.72 254.322 1270 255.538C1268.31 258.379 1266.69 261.26 1265.05 264.126C1264.91 264.371 1264.85 264.708 1264.65 264.868C1264.16 265.25 1263.58 265.858 1263.1 265.802C1262.62 265.746 1262.06 265.076 1261.81 264.544C1260.53 261.702 1259.31 258.836 1259.2 255.632C1259.17 254.802 1258.86 253.973 1258.62 253.162C1258.27 251.96 1258.1 250.777 1258.69 249.455L1258.69 249.453ZM1268.68 252.837C1265.91 252.454 1263.54 252.126 1260.84 251.753C1262.35 255.037 1261.16 258.628 1263.44 261.79C1265.21 258.77 1266.85 255.964 1268.68 252.836V252.837Z" fill="#CB9D10"/>
<path d="M1299.69 257.619C1299.75 259.468 1298.7 260.286 1297.12 259.786C1296.59 259.618 1296.06 259.354 1295.62 259.016C1292.39 256.55 1289.15 254.094 1285.98 251.552C1284.37 250.262 1284.47 249.047 1286.18 247.98C1288.42 246.573 1290.65 245.137 1292.99 243.89C1295.17 242.723 1296.21 243.27 1296.95 245.678C1297.08 246.13 1297.24 246.591 1297.28 247.055C1297.57 250.186 1298.29 253.211 1299.34 256.169C1299.53 256.699 1299.61 257.268 1299.69 257.619ZM1287.6 249.297C1289.84 251.947 1292.95 254.235 1295.96 255.532C1296.33 253.848 1295.41 252.409 1295.14 250.876C1294.86 249.255 1295.2 247.483 1294.04 245.783C1291.92 246.938 1289.88 248.055 1287.6 249.296V249.297Z" fill="#CB9D10"/>
<path d="M1300.79 174.768C1300.47 176.604 1300.13 178.661 1299.75 180.713C1299.21 183.697 1298.68 186.683 1298.07 189.655C1297.66 191.681 1296.71 192.126 1294.8 191.273C1294.2 191.004 1293.65 190.619 1293.07 190.283C1291.44 189.325 1289.81 188.377 1288.19 187.402C1287.54 187.014 1286.88 186.62 1286.3 186.14C1284.57 184.702 1284.39 183.581 1286.01 182.138C1289.25 179.245 1291.92 175.704 1295.74 173.461C1296.31 173.125 1296.83 172.7 1297.42 172.393C1299.64 171.229 1300.89 172.039 1300.79 174.769L1300.79 174.768ZM1287.06 184.022C1289.62 186.322 1292.72 186.792 1295.48 188.703C1296.78 183.688 1297.88 179.052 1298.78 174.05C1293.89 176.399 1290.97 180.467 1287.06 184.022H1287.06Z" fill="#CB9D10"/>
<path d="M1246.69 183.435C1246.05 183.951 1245.56 184.361 1245.06 184.76C1243.57 185.936 1242.09 187.12 1240.59 188.278C1239.63 189.026 1238.66 189.787 1237.63 190.446C1236.18 191.379 1235.58 191.283 1234.38 190.101C1234.12 189.835 1233.83 189.561 1233.64 189.24C1232.11 186.623 1230.59 183.996 1229.08 181.363C1228.89 181.038 1228.77 180.665 1228.68 180.301C1228.18 178.392 1229.07 177.367 1231.06 177.579C1231.52 177.628 1232.03 177.704 1232.42 177.932C1234.29 179.018 1236.34 179.27 1238.44 179.451C1241.26 179.695 1243.71 180.939 1246.06 182.417C1246.27 182.55 1246.36 182.88 1246.69 183.434V183.435ZM1231.03 179.574C1230.96 179.955 1230.85 180.176 1230.92 180.29C1232.43 182.804 1233.95 185.311 1235.49 187.804C1235.63 188.015 1235.94 188.114 1236.39 188.414C1238.35 186.518 1240 184.106 1243.43 183.464C1242.42 182.843 1241.93 182.376 1241.35 182.216C1239.89 181.813 1238.39 181.571 1236.93 181.218C1235.37 180.845 1233.83 180.424 1232.29 180.008C1231.87 179.896 1231.47 179.728 1231.03 179.574H1231.03Z" fill="#CB9D10"/>
<path d="M1233.35 229.763C1235.26 233.27 1236.99 236.413 1238.68 239.58C1238.93 240.061 1239.09 240.656 1239.1 241.2C1239.14 243.43 1238.44 244.039 1236.18 243.865C1234.48 243.734 1232.78 243.494 1231.08 243.493C1229.77 243.49 1228.46 243.774 1227.16 243.944C1225.85 244.114 1224.53 244.463 1223.23 244.442C1221.1 244.406 1220.33 243.064 1221.28 241.2C1221.71 240.361 1222.21 239.499 1222.87 238.855C1225.6 236.221 1228.39 233.648 1231.19 231.096C1231.73 230.609 1232.44 230.314 1233.35 229.763ZM1231.14 234.989C1227.5 237.098 1224.52 239.957 1223.75 242.032C1225.74 242.481 1227.4 241.223 1229.25 241.046C1231.07 240.872 1232.92 241.804 1235.07 240.877C1233.72 238.857 1232.49 237.01 1231.14 234.989H1231.14Z" fill="#CB9D10"/>
<mask id="mask0_2273_106" style="mask-type:luminance" maskUnits="userSpaceOnUse" x="1303" y="220" width="21" height="14">
<path d="M1303.38 220.009H1323.09V233.935H1303.38V220.009Z" fill="white"/>
</mask>
<g mask="url(#mask0_2273_106)">
<path d="M1303.51 233.642C1303.94 232.413 1304.09 231.657 1304.45 231.017C1305.81 228.575 1306.5 225.938 1306.92 223.205C1307 222.739 1307.07 222.265 1307.21 221.819C1307.68 220.372 1308.35 219.933 1309.78 220.42C1311.47 221 1313.17 221.658 1314.75 222.496C1317.7 224.064 1320.15 226.301 1322.39 228.762C1322.72 229.127 1323.05 229.919 1322.87 230.224C1322.6 230.699 1321.9 231.217 1321.38 231.216C1316.01 231.209 1310.95 232.983 1305.73 233.827C1305.16 233.919 1304.54 233.738 1303.51 233.643L1303.51 233.642ZM1318.59 228.763C1315.95 225.71 1312.99 223.534 1309 222.58C1308.63 224.06 1308.36 225.443 1307.94 226.78C1307.5 228.184 1306.92 229.545 1306.28 231.237C1310.62 230.845 1314.5 229.814 1318.59 228.763H1318.59Z" fill="#CB9D10"/>
</g>
<path d="M1235.23 225.435C1233.83 224.618 1233.63 223.371 1233.74 222.124C1234.19 217.115 1234.35 212.038 1235.32 207.125C1236.19 202.759 1238.31 198.809 1241.23 195.263C1245.27 190.37 1250.42 187.48 1256.29 185.489C1263.77 182.954 1271.03 183.712 1278.24 186.457C1279.3 186.862 1280.36 187.276 1281.41 187.728C1284.65 189.132 1287.66 190.833 1290.18 193.419C1293.09 196.408 1296.03 199.292 1298.23 202.933C1300.61 206.879 1301.63 211.146 1302.23 215.587C1302.42 216.99 1302.41 218.42 1302.48 219.839C1302.74 225.056 1300.58 229.401 1297.71 233.559C1295.27 237.103 1291.93 239.418 1288.32 241.639C1283.3 244.736 1277.86 246.082 1272.13 246.341C1267.2 246.564 1262.2 246.387 1257.69 243.991C1254.45 242.268 1251.04 240.732 1248.67 237.727C1248.55 237.578 1248.36 237.477 1248.27 237.316C1245.44 232.049 1242.33 226.876 1243.13 220.484C1243.62 216.551 1244.97 213.034 1247.13 209.668C1249.76 205.597 1253.23 202.822 1257.5 200.667C1261.85 198.464 1266.3 197.676 1271 198.756C1275.07 199.692 1278.94 201.236 1282.47 203.55C1285.76 205.705 1287.19 208.883 1287.59 212.642C1287.97 216.165 1286.99 219.419 1285.49 222.536C1284.8 223.99 1283.94 225.367 1283.13 226.767C1281.97 228.788 1280.25 230.182 1278.34 231.519C1273.96 234.59 1269.38 234.831 1264.54 233.056C1260.36 231.525 1257.9 228.445 1256.96 224.157C1256.1 220.264 1257.59 217.08 1260.18 214.287C1260.37 214.081 1260.64 213.946 1260.83 213.74C1263.69 210.689 1267.25 210.783 1270.87 211.622C1272.86 212.082 1274.48 213.28 1275.34 215.278C1275.86 216.499 1275.82 217.689 1275.21 218.848C1274.74 219.734 1273.87 220.129 1273.09 219.802C1272.2 219.432 1272.1 218.751 1272.45 217.925C1272.95 216.762 1272.3 216.1 1271.36 215.676C1267.44 213.914 1264.43 214.593 1261.91 218.141C1259.92 220.947 1260.68 225.287 1263.64 227.273C1267.06 229.572 1270.77 230.075 1274.64 228.191C1277.13 226.98 1279.05 225.274 1280.04 222.629C1280.71 220.857 1281.46 219.114 1282.05 217.315C1282.72 215.259 1282.44 213.188 1281.89 211.131C1281.55 209.88 1280.93 208.808 1279.87 208.119C1275.78 205.474 1271.55 203.188 1266.53 202.892C1264.68 202.782 1262.91 203.065 1261.26 203.823C1259.28 204.731 1257.36 205.788 1255.42 206.793C1255.17 206.923 1254.93 207.095 1254.74 207.298C1249.85 212.445 1246.74 218.392 1248.55 225.599C1249.72 230.277 1252.03 234.451 1256.57 237.234C1261.81 240.449 1267.34 241.158 1273.21 240.687C1275 240.545 1276.79 240.262 1278.54 239.867C1279.91 239.556 1281.32 239.142 1282.54 238.478C1285.04 237.124 1287.44 235.585 1289.87 234.09C1290.93 233.435 1291.76 232.588 1292.36 231.432C1293.02 230.178 1293.91 229.045 1294.74 227.891C1296.53 225.402 1297.16 222.607 1297.18 219.578C1297.22 213.413 1295.83 207.68 1292.01 202.761C1289.32 199.308 1286.41 195.856 1282.65 193.687C1275.7 189.686 1268.18 187.351 1260.01 189.156C1251.59 191.02 1245.1 195.634 1241.21 203.461C1239.9 206.083 1238.98 208.902 1238.83 211.91C1238.66 215.227 1238.32 218.535 1238.21 221.853C1238.14 223.845 1237.45 225.129 1235.22 225.437L1235.23 225.435Z" fill="#CB9D10"/>
<path d="M441.686 618.917C440.623 619.035 439.03 619.291 437.43 619.355C436.523 619.391 435.532 619.285 434.705 618.94C432.936 618.203 432.714 617.675 433.184 615.85C433.845 613.275 434.563 610.715 435.301 608.16C435.509 607.439 435.793 606.714 436.177 606.072C436.852 604.944 437.797 604.636 438.792 605.488C440.364 606.834 441.866 608.313 443.154 609.93C444.565 611.7 445.699 613.688 446.955 615.582C447.112 615.819 447.291 616.044 447.431 616.291C448.255 617.757 447.844 618.739 446.22 618.892C444.902 619.017 443.565 618.917 441.687 618.917H441.686ZM437.797 606.973C436.359 610.062 435.896 613.102 435.269 616.219C437.048 616.398 438.594 616.344 440.008 616.751C441.68 617.232 443.105 616.831 444.831 616.311C442.546 613.109 441.408 609.346 437.797 606.973Z" fill="#CB9D10"/>
<path d="M406.437 643.259C405.991 644.705 405.395 646.194 405.086 647.74C404.624 650.059 404.37 652.418 404.013 654.757C403.839 655.909 403.222 656.361 402.293 655.987C399.325 654.787 396.351 653.597 393.409 652.332C392.373 651.888 391.359 651.325 390.45 650.657C388.403 649.154 388.519 647.224 390.826 646.345C394.888 644.797 398.923 643.103 403.259 642.408C404.37 642.23 405.537 641.979 406.437 643.259ZM401.983 652.916C402.582 650.339 403.148 647.917 403.72 645.465C400.623 645.124 393.422 647.217 391.58 648.997C394.792 650.726 397.955 652.334 401.983 652.916Z" fill="#CB9D10"/>
<path d="M478.246 638.494C479.143 635.772 479.312 635.686 481.935 635.741C485.261 635.813 488.569 636.052 491.747 637.065C493.354 637.578 494.904 638.332 496.382 639.154C497.428 639.736 497.514 640.659 496.704 641.534C494.886 643.499 492.904 645.239 490.138 645.772C488.184 646.15 486.286 646.664 484.573 647.785C483.589 648.428 482.998 648.198 482.499 647.193C481.067 644.314 479.672 641.418 478.246 638.491V638.494ZM480.3 638.031C480.978 640.5 482.92 643.595 484.569 644.962C486.375 644.425 488.179 643.85 490.004 643.358C491.621 642.92 492.853 642.022 494.045 640.406C489.531 638.19 484.978 638.066 480.3 638.032V638.031Z" fill="#CB9D10"/>
<path d="M433.69 688.453C434.21 688.412 434.8 688.207 435.279 688.357C437.572 689.07 439.921 689.117 442.283 689.177C443.69 689.214 445.241 689.14 446.017 690.662C446.8 692.197 445.72 693.322 444.997 694.538C443.31 697.379 441.691 700.26 440.047 703.126C439.906 703.371 439.849 703.708 439.648 703.868C439.164 704.25 438.581 704.858 438.105 704.802C437.624 704.746 437.057 704.076 436.815 703.544C435.529 700.702 434.313 697.836 434.201 694.632C434.172 693.802 433.858 692.973 433.62 692.162C433.267 690.96 433.1 689.777 433.691 688.455L433.69 688.453ZM443.68 691.837C440.91 691.454 438.54 691.126 435.837 690.753C437.347 694.037 436.162 697.628 438.441 700.79C440.208 697.77 441.85 694.964 443.68 691.836V691.837Z" fill="#CB9D10"/>
<path d="M474.691 696.619C474.745 698.468 473.7 699.286 472.125 698.786C471.593 698.618 471.06 698.354 470.617 698.016C467.387 695.55 464.149 693.094 460.978 690.552C459.372 689.262 459.473 688.047 461.178 686.98C463.42 685.573 465.654 684.137 467.986 682.89C470.171 681.723 471.211 682.27 471.947 684.678C472.085 685.13 472.236 685.591 472.279 686.055C472.566 689.186 473.292 692.211 474.34 695.169C474.528 695.699 474.608 696.268 474.691 696.619ZM462.602 688.297C464.842 690.947 467.952 693.235 470.963 694.532C471.331 692.848 470.413 691.409 470.145 689.876C469.859 688.255 470.199 686.483 469.037 684.783C466.922 685.938 464.878 687.055 462.602 688.296V688.297Z" fill="#CB9D10"/>
<path d="M475.792 613.768C475.473 615.604 475.127 617.661 474.752 619.713C474.208 622.697 473.676 625.683 473.071 628.655C472.657 630.681 471.712 631.126 469.799 630.273C469.195 630.004 468.645 629.619 468.075 629.283C466.444 628.325 464.808 627.377 463.185 626.402C462.539 626.014 461.881 625.62 461.302 625.14C459.571 623.702 459.39 622.581 461.007 621.138C464.251 618.245 466.92 614.704 470.741 612.461C471.312 612.125 471.832 611.7 472.417 611.393C474.639 610.229 475.893 611.039 475.791 613.769L475.792 613.768ZM462.061 623.022C464.623 625.322 467.717 625.792 470.477 627.703C471.779 622.688 472.876 618.052 473.783 613.05C468.887 615.399 465.974 619.467 462.06 623.022H462.061Z" fill="#CB9D10"/>
<path d="M421.691 622.435C421.053 622.951 420.558 623.361 420.055 623.76C418.571 624.936 417.092 626.12 415.595 627.278C414.628 628.026 413.662 628.787 412.634 629.446C411.175 630.379 410.581 630.283 409.384 629.101C409.115 628.835 408.83 628.561 408.642 628.24C407.108 625.623 405.587 622.996 404.081 620.363C403.895 620.038 403.773 619.665 403.677 619.301C403.183 617.392 404.072 616.367 406.058 616.579C406.523 616.628 407.03 616.704 407.422 616.932C409.29 618.018 411.343 618.27 413.438 618.451C416.256 618.695 418.711 619.939 421.058 621.417C421.269 621.55 421.356 621.88 421.691 622.434V622.435ZM406.027 618.574C405.963 618.955 405.849 619.176 405.917 619.29C407.426 621.804 408.947 624.311 410.493 626.804C410.625 627.015 410.937 627.114 411.39 627.414C413.353 625.518 415 623.106 418.428 622.464C417.42 621.843 416.927 621.376 416.349 621.216C414.893 620.813 413.395 620.571 411.926 620.218C410.374 619.845 408.834 619.424 407.291 619.008C406.873 618.896 406.471 618.728 406.028 618.574H406.027Z" fill="#CB9D10"/>
<path d="M408.348 668.763C410.259 672.27 411.991 675.413 413.678 678.58C413.934 679.061 414.089 679.656 414.098 680.2C414.136 682.43 413.439 683.039 411.178 682.865C409.479 682.734 407.78 682.494 406.08 682.493C404.772 682.49 403.463 682.774 402.157 682.944C400.845 683.114 399.535 683.463 398.229 683.442C396.102 683.406 395.334 682.064 396.281 680.2C396.706 679.361 397.207 678.499 397.873 677.855C400.6 675.221 403.387 672.648 406.193 670.096C406.728 669.609 407.44 669.314 408.348 668.763ZM406.144 673.989C402.502 676.098 399.515 678.957 398.751 681.032C400.739 681.481 402.4 680.223 404.245 680.046C406.069 679.872 407.921 680.804 410.071 679.877C408.723 677.857 407.491 676.01 406.143 673.989H406.144Z" fill="#CB9D10"/>
<mask id="mask1_2273_106" style="mask-type:luminance" maskUnits="userSpaceOnUse" x="478" y="659" width="21" height="14">
<path d="M478.375 659.009H498.093V672.935H478.375V659.009Z" fill="white"/>
</mask>
<g mask="url(#mask1_2273_106)">
<path d="M478.513 672.642C478.941 671.413 479.092 670.657 479.449 670.017C480.807 667.575 481.505 664.938 481.924 662.205C481.995 661.739 482.069 661.265 482.213 660.819C482.681 659.372 483.348 658.933 484.777 659.42C486.473 660 488.166 660.658 489.746 661.496C492.699 663.064 495.152 665.301 497.388 667.762C497.721 668.127 498.049 668.919 497.874 669.224C497.602 669.699 496.897 670.217 496.376 670.216C491.008 670.209 485.949 671.983 480.733 672.827C480.158 672.919 479.539 672.738 478.512 672.643L478.513 672.642ZM493.593 667.763C490.945 664.71 487.993 662.534 484.003 661.58C483.635 663.06 483.358 664.443 482.938 665.78C482.497 667.184 481.918 668.545 481.282 670.237C485.618 669.845 489.5 668.814 493.591 667.763H493.593Z" fill="#CB9D10"/>
</g>
<path d="M410.226 664.435C408.831 663.618 408.632 662.371 408.743 661.124C409.19 656.115 409.35 651.038 410.322 646.125C411.186 641.759 413.311 637.809 416.234 634.263C420.269 629.37 425.422 626.48 431.293 624.489C438.767 621.954 446.033 622.712 453.24 625.457C454.302 625.862 455.365 626.276 456.408 626.728C459.648 628.132 462.659 629.833 465.178 632.419C468.09 635.408 471.033 638.292 473.231 641.933C475.613 645.879 476.625 650.146 477.228 654.587C477.418 655.99 477.414 657.42 477.484 658.839C477.741 664.056 475.583 668.401 472.712 672.559C470.267 676.103 466.929 678.418 463.325 680.639C458.3 683.736 452.858 685.082 447.128 685.341C442.197 685.564 437.204 685.387 432.694 682.991C429.454 681.268 426.04 679.732 423.667 676.727C423.549 676.578 423.36 676.477 423.274 676.316C420.442 671.049 417.335 665.876 418.129 659.484C418.618 655.551 419.965 652.034 422.134 648.668C424.756 644.597 428.233 641.822 432.496 639.667C436.85 637.464 441.304 636.676 446 637.756C450.072 638.692 453.941 640.236 457.472 642.55C460.757 644.705 462.188 647.883 462.592 651.642C462.971 655.165 461.989 658.419 460.495 661.536C459.799 662.99 458.94 664.367 458.134 665.767C456.971 667.788 455.255 669.182 453.344 670.519C448.957 673.59 444.376 673.831 439.538 672.056C435.364 670.525 432.899 667.445 431.955 663.157C431.1 659.264 432.586 656.08 435.178 653.287C435.37 653.081 435.64 652.946 435.832 652.74C438.686 649.689 442.254 649.783 445.875 650.622C447.863 651.082 449.479 652.28 450.339 654.278C450.864 655.499 450.821 656.689 450.207 657.848C449.737 658.734 448.868 659.129 448.087 658.802C447.204 658.432 447.1 657.751 447.453 656.925C447.954 655.762 447.297 655.1 446.356 654.676C442.443 652.914 439.429 653.593 436.911 657.141C434.919 659.947 435.68 664.287 438.636 666.273C442.06 668.572 445.771 669.075 449.64 667.191C452.128 665.98 454.051 664.274 455.044 661.629C455.709 659.857 456.462 658.114 457.049 656.315C457.72 654.259 457.438 652.188 456.888 650.131C456.552 648.88 455.933 647.808 454.869 647.119C450.782 644.474 446.553 642.188 441.528 641.892C439.676 641.782 437.91 642.065 436.256 642.823C434.275 643.731 432.361 644.788 430.425 645.793C430.175 645.923 429.931 646.095 429.737 646.298C424.848 651.445 421.741 657.392 423.547 664.599C424.719 669.277 427.031 673.451 431.566 676.234C436.807 679.449 442.342 680.158 448.214 679.687C450 679.545 451.79 679.262 453.54 678.867C454.913 678.556 456.316 678.142 457.544 677.478C460.044 676.124 462.445 674.585 464.867 673.09C465.927 672.435 466.763 671.588 467.364 670.432C468.017 669.178 468.908 668.045 469.739 666.891C471.528 664.402 472.163 661.607 472.183 658.578C472.223 652.413 470.825 646.68 467.005 641.761C464.323 638.308 461.414 634.856 457.647 632.687C450.699 628.686 443.179 626.351 435.015 628.156C426.59 630.02 420.103 634.634 416.208 642.461C414.904 645.083 413.981 647.902 413.828 650.91C413.661 654.227 413.319 657.535 413.207 660.853C413.138 662.845 412.447 664.129 410.224 664.437L410.226 664.435Z" fill="#CB9D10"/>
</svg>
