<svg width="1446" height="1029" viewBox="0 0 1446 1029" fill="none" xmlns="http://www.w3.org/2000/svg">
<path d="M0.419922 12.5C0.419922 12.5 221.481 98.721 404.594 116.53C601.176 135.648 777.144 43.0282 981.171 12.5264C1169.7 -15.658 1444.22 12.5264 1444.22 12.5264V1029C1444.22 1029 1316.42 925.517 1153.06 913.174C752.276 882.891 364.42 1128.5 0 975.5L0.419922 12.5Z" fill="#74C4DF"/>
<path d="M1123.17 669.947C1121.5 671.514 1118.77 671.361 1116.62 671.713C1108.33 672.608 1097.18 670.643 1093.55 662.171C1092.33 659.077 1094.11 653.31 1097.34 651.55C1097.85 651.193 1098.4 650.912 1098.98 650.69C1100 650.289 1101.09 650.105 1102.16 650.077C1102.34 650.062 1102.5 650.075 1102.68 650.079C1102.9 650.096 1103.13 650.086 1103.34 650.093C1103.79 650.118 1104.22 650.16 1104.67 650.222C1105.23 650.32 1105.8 650.446 1106.34 650.635C1112.45 652.077 1117.75 659.71 1121.02 664.278C1121.87 665.963 1124.26 667.986 1123.17 669.947Z" fill="#409CBA"/>
<path d="M1138.34 643.307C1137.25 645.304 1134.59 646.013 1132.66 647.017C1125.05 650.432 1113.84 652.025 1107.76 645.098C1105.64 642.523 1105.55 636.495 1108.08 633.824C1108.47 633.338 1108.9 632.883 1109.39 632.497C1110.24 631.798 1111.22 631.284 1112.22 630.918C1112.38 630.866 1112.55 630.814 1112.71 630.772C1112.93 630.705 1113.14 630.629 1113.36 630.581C1113.78 630.475 1114.22 630.371 1114.65 630.293C1115.21 630.207 1115.79 630.15 1116.37 630.167C1122.63 629.65 1130.03 635.261 1134.55 638.589C1135.88 639.924 1138.77 641.103 1138.34 643.307Z" fill="#409CBA"/>
<path d="M1145.2 616.559C1144.53 618.745 1142.07 619.947 1140.39 621.31C1133.61 626.169 1122.93 629.958 1115.6 624.362C1113.01 622.268 1111.72 616.378 1113.67 613.249C1113.96 612.7 1114.29 612.173 1114.69 611.697C1115.39 610.849 1116.24 610.158 1117.16 609.593C1117.3 609.503 1117.46 609.422 1117.61 609.342C1117.81 609.238 1118 609.123 1118.19 609.028C1118.6 608.837 1119 608.647 1119.41 608.494C1119.95 608.305 1120.51 608.136 1121.07 608.032C1127.11 606.283 1135.47 610.319 1140.56 612.677C1142.13 613.737 1145.2 614.321 1145.2 616.559Z" fill="#409CBA"/>
<path d="M1149.78 592.823C1149.11 595.009 1146.65 596.212 1144.96 597.575C1138.18 602.434 1127.51 606.223 1120.17 600.627C1117.59 598.533 1116.29 592.633 1118.25 589.514C1118.52 588.955 1118.86 588.438 1119.26 587.962C1119.95 587.112 1120.81 586.413 1121.72 585.848C1121.87 585.758 1122.02 585.677 1122.18 585.597C1122.38 585.492 1122.57 585.378 1122.76 585.282C1123.16 585.092 1123.57 584.912 1123.98 584.749C1124.51 584.551 1125.08 584.391 1125.64 584.287C1131.67 582.528 1140.04 586.574 1145.12 588.932C1146.69 589.982 1149.77 590.576 1149.77 592.814L1149.78 592.823Z" fill="#409CBA"/>
<path d="M1143.16 563.931C1140.02 571.665 1133.02 580.568 1123.84 579.757C1120.53 579.375 1116.3 575.074 1116.27 571.399C1116.21 570.786 1116.22 570.161 1116.29 569.55C1116.43 568.456 1116.79 567.415 1117.27 566.457C1117.34 566.306 1117.42 566.155 1117.51 566.006C1117.63 565.821 1117.73 565.617 1117.83 565.423C1118.07 565.045 1118.31 564.668 1118.58 564.32C1118.93 563.867 1119.32 563.428 1119.74 563.036C1123.91 558.327 1133.13 557.273 1138.69 556.537C1140.59 556.59 1143.5 555.44 1144.7 557.337C1145.3 559.546 1143.86 561.876 1143.17 563.932L1143.16 563.931Z" fill="#409CBA"/>
<path d="M1110.53 574.063C1109.85 574.886 1109.03 575.624 1108.07 576.177C1107.54 576.496 1106.98 576.756 1106.38 576.941C1103.01 578.397 1097.37 576.226 1095.69 573.354C1091.27 565.255 1096.64 555.278 1102.47 549.315C1104.07 547.854 1105.64 545.617 1107.9 545.273C1110.12 545.627 1110.23 548.748 1111.02 550.465C1112.58 555.851 1115.3 564.741 1112.65 570.432C1112.45 570.978 1112.21 571.512 1111.93 572.006C1111.71 572.385 1111.47 572.763 1111.22 573.131C1111.09 573.314 1110.95 573.487 1110.82 573.662C1110.72 573.801 1110.62 573.941 1110.51 574.07L1110.53 574.063Z" fill="#409CBA"/>
<path d="M1086.38 574.981C1085.7 575.804 1084.88 576.542 1083.92 577.104C1083.39 577.423 1082.82 577.674 1082.23 577.869C1078.85 579.314 1073.22 577.153 1071.54 574.281C1067.12 566.182 1072.49 556.206 1078.32 550.243C1079.92 548.782 1081.49 546.544 1083.75 546.201C1085.97 546.554 1086.08 549.675 1086.88 551.384C1088.44 556.77 1091.15 565.65 1088.51 571.351C1088.31 571.897 1088.06 572.421 1087.79 572.925C1087.57 573.304 1087.33 573.682 1087.08 574.05C1086.96 574.224 1086.81 574.406 1086.68 574.581C1086.58 574.72 1086.47 574.85 1086.37 574.989L1086.38 574.981Z" fill="#409CBA"/>
<path d="M1062.57 579.196C1062.11 579.621 1061.61 579.97 1061.07 580.278C1058.04 582.377 1052.09 581.361 1049.88 578.881C1043.94 571.826 1047.21 560.981 1051.76 553.981C1053.04 552.228 1054.14 549.715 1056.28 548.939C1058.52 548.844 1059.25 551.882 1060.37 553.404C1062.97 558.372 1067.39 566.536 1065.93 572.648C1065.85 573.231 1065.71 573.782 1065.55 574.331C1065.4 574.762 1065.24 575.155 1065.06 575.565C1064.98 575.761 1064.86 575.964 1064.78 576.17C1064.7 576.32 1064.64 576.481 1064.56 576.632C1064.05 577.568 1063.39 578.457 1062.57 579.196Z" fill="#409CBA"/>
<path d="M1041.91 588.198C1039.68 591.122 1033.71 592.001 1030.84 590.327C1023.01 585.448 1022.77 574.123 1024.91 566.073C1025.59 564.017 1025.85 561.283 1027.65 559.874C1029.74 559.086 1031.38 561.752 1032.93 562.855C1036.95 566.78 1043.68 573.168 1044.18 579.44C1044.28 580.009 1044.33 580.584 1044.34 581.156C1044.33 581.606 1044.31 582.037 1044.26 582.485C1044.25 582.705 1044.19 582.922 1044.17 583.15C1044.15 583.314 1044.12 583.496 1044.09 583.66C1043.9 584.713 1043.55 585.764 1043 586.716C1042.69 587.254 1042.32 587.76 1041.9 588.207L1041.91 588.198Z" fill="#409CBA"/>
<path d="M1026.81 599.096C1026.5 602.755 1021.93 606.697 1018.59 606.82C1009.36 606.888 1003.11 597.453 1000.62 589.482C1000.09 587.37 998.848 584.927 999.628 582.786C1000.98 580.993 1003.79 582.377 1005.68 582.484C1011.17 583.659 1020.28 585.459 1024.06 590.48C1024.46 590.906 1024.79 591.373 1025.1 591.839C1025.34 592.217 1025.55 592.601 1025.75 592.994C1025.86 593.195 1025.93 593.403 1026.04 593.605C1026.12 593.758 1026.18 593.91 1026.25 594.072C1026.65 595.061 1026.92 596.131 1026.97 597.239C1027 597.858 1026.95 598.471 1026.84 599.089L1026.81 599.096Z" fill="#409CBA"/>
<path d="M1015.7 623.2C1015.31 623.631 1014.87 624.011 1014.4 624.344C1013.56 624.943 1012.63 625.35 1011.66 625.617C1011.51 625.661 1011.35 625.695 1011.19 625.729C1010.99 625.768 1010.78 625.826 1010.58 625.875C1010.18 625.946 1009.77 626.007 1009.36 626.049C1008.84 626.092 1008.29 626.096 1007.76 626.056C1001.91 626.116 995.412 620.417 991.426 617.029C990.276 615.689 987.668 614.403 988.217 612.392C989.367 610.601 991.879 610.139 993.727 609.323C1001.03 606.649 1011.54 605.913 1016.73 612.764C1018.54 615.286 1018.22 620.897 1015.7 623.209L1015.7 623.2Z" fill="#409CBA"/>
<path d="M1016.78 645.021C1016.61 645.165 1016.45 645.308 1016.28 645.452C1015.93 645.72 1015.58 645.988 1015.21 646.236C1014.73 646.54 1014.23 646.833 1013.7 647.05C1008.23 650.067 999.227 647.99 993.773 646.818C992.011 646.141 988.909 646.254 988.412 644.08C988.585 641.809 990.705 640.093 992.041 638.4C997.55 632.2 1007.07 626.187 1015.42 630.001C1018.4 631.471 1020.94 636.904 1019.72 640.356C1019.57 640.952 1019.37 641.535 1019.09 642.085C1018.6 643.069 1017.91 643.929 1017.16 644.663C1017.03 644.773 1016.91 644.893 1016.77 644.993L1016.78 645.021Z" fill="#409CBA"/>
<path d="M1029.22 664.938C1025.09 669.641 1015.92 670.737 1010.4 671.475C1008.52 671.442 1005.63 672.593 1004.43 670.715C1003.83 668.524 1005.24 666.201 1005.92 664.145C1009 656.443 1015.92 647.561 1025.06 648.324C1028.35 648.695 1032.58 652.949 1032.62 656.598C1032.68 657.211 1032.68 657.828 1032.61 658.439C1032.48 659.525 1032.14 660.567 1031.66 661.525C1031.59 661.675 1031.51 661.826 1031.42 661.976C1031.3 662.16 1031.2 662.364 1031.1 662.559C1030.86 662.928 1030.62 663.305 1030.36 663.653C1030.01 664.106 1029.64 664.547 1029.22 664.938Z" fill="#409CBA"/>
<path d="M1048.92 676.707C1046.99 682.692 1038.96 687.355 1034.16 690.257C1032.41 690.98 1030.2 693.196 1028.35 691.949C1026.92 690.164 1027.29 687.449 1027.09 685.289C1026.87 676.948 1029.69 665.986 1038.44 663.045C1041.63 662.073 1047.22 664.305 1048.73 667.661C1049.04 668.2 1049.28 668.78 1049.45 669.373C1049.77 670.419 1049.87 671.531 1049.81 672.586C1049.81 672.761 1049.79 672.934 1049.76 673.107C1049.74 673.336 1049.73 673.565 1049.7 673.775C1049.63 674.211 1049.56 674.648 1049.46 675.082C1049.31 675.633 1049.15 676.182 1048.91 676.716L1048.92 676.707Z" fill="#409CBA"/>
<path d="M1064.88 697.602C1063.67 699.056 1062.76 702.043 1060.53 701.818C1058.43 700.912 1057.49 698.336 1056.32 696.515C1052.22 689.251 1049.61 678.233 1055.97 671.546C1058.33 669.194 1064.34 668.557 1067.22 670.821C1067.75 671.156 1068.22 671.552 1068.66 671.999C1069.42 672.785 1070.04 673.707 1070.48 674.68C1070.54 674.832 1070.62 674.985 1070.68 675.155C1070.76 675.364 1070.85 675.574 1070.94 675.773C1071.09 676.19 1071.23 676.606 1071.34 677.038C1071.47 677.591 1071.59 678.162 1071.62 678.735C1072.7 684.922 1067.8 692.807 1064.9 697.603L1064.88 697.602Z" fill="#409CBA"/>
<path d="M1097.49 688.234C1097.31 690.117 1098.24 693.097 1096.27 694.172C1094.03 694.608 1091.8 693.011 1089.81 692.177C1082.32 688.493 1073.94 680.884 1075.4 671.779C1076.02 668.511 1080.61 664.589 1084.28 664.824C1084.9 664.807 1085.52 664.854 1086.13 664.983C1087.21 665.204 1088.23 665.623 1089.15 666.171C1089.29 666.256 1089.44 666.35 1089.58 666.453C1089.76 666.587 1089.96 666.693 1090.14 666.827C1090.5 667.085 1090.85 667.351 1091.18 667.643C1091.6 668.016 1092.01 668.434 1092.38 668.876C1096.77 673.373 1097.16 682.647 1097.49 688.252L1097.49 688.234Z" fill="#409CBA"/>
<path d="M1065.95 658.773C1074.28 657.899 1080.93 651.943 1086.19 645.882C1098.59 629.14 1103.3 608.14 1106.8 588.012C1087.28 588.097 1066.38 586.225 1048.58 595.767C1037.53 601.655 1030.3 613.404 1029.73 625.864C1028.99 633.551 1032.65 640.708 1037.98 646.041C1045.11 653.573 1055.25 659.724 1065.96 658.765L1065.95 658.773ZM1090.4 649.103C1084.27 656.038 1076.37 662.34 1066.95 663.545C1050.23 665.262 1033.54 653.205 1026.52 638.582C1020.08 621.628 1029.55 601.027 1045.06 592.59C1062.52 582.929 1088.34 583.114 1107.7 585.65C1108.09 584.852 1108.71 583.895 1109.56 583.638C1112.9 585.753 1111.92 590.356 1111.45 593.652C1110.32 601.328 1108.62 608.979 1106.28 616.359C1102.5 627.865 1098.04 639.586 1090.39 649.111L1090.4 649.103Z" fill="#409CBA"/>
<path d="M1033.02 704.57C1068.09 719.622 1103.52 707.614 1127.44 679.332C1137.03 666.741 1142.62 651.571 1147.38 636.678C1152.75 618.756 1157.06 600.514 1160.86 582.187C1163.99 566.598 1166.35 550.804 1170.05 535.36C1127.24 539.228 1082.25 530.702 1041.2 546.599C1017.01 555.259 994.278 571.348 983.69 595.353C970.328 624.082 982.38 656.528 1001.63 679.46C1010.27 690.027 1020.75 698.984 1033.03 704.562L1033.02 704.57ZM1014.31 790.529C1007.97 803.119 989.879 802.41 981.162 792.85C977.879 788.825 977.104 783.057 978.774 778.185C977.252 782.074 971.483 782.748 967.709 782.736C967.709 782.736 967.709 782.736 967.681 782.743C967.681 782.743 967.663 782.741 967.644 782.74C967.644 782.74 967.634 782.748 967.616 782.747C961.446 782.396 954.363 780.382 950.488 775.307C948.848 772.659 949.153 768.908 951.053 766.456C953.209 763.905 956.964 763.676 960.054 764.087C966.766 764.931 977.817 769.614 979.088 776.957C979.046 777.267 978.979 777.547 978.893 777.826C979.321 776.689 979.883 775.59 980.577 774.584C983.079 771 986.624 767.496 991.261 767.417C999.681 767.001 1010.73 775.57 1005.26 784.424C1003.27 788.304 998.936 791.114 994.505 790.297C993.315 789.966 992.34 788.99 991.931 787.835C992.339 787.553 992.86 787.363 993.325 787.186C995.652 786.609 997.813 787.133 999.583 785.169C1003.61 780.09 1000.47 774.215 994.616 772.682C988.764 770.587 984.334 776.75 983.536 781.9C982.937 786.366 985.159 791.029 989.269 793.027C994.469 795.956 1001.65 796.035 1006.22 791.909C1011.67 785.162 1010.34 776.009 1008.49 768.181C1007.67 765.089 1005.97 762.307 1004.34 759.595C1003.92 758.541 1002 756.471 1001.09 754.771C1000.92 754.546 1000.73 754.311 1000.57 754.077C996.934 748.708 994.37 742.252 995.223 735.669C995.849 727.108 999.008 719.008 1005.56 713.247C1010.03 709.481 1015.42 705.741 1021.24 704.463C1012.85 699.449 1005.21 692.798 998.531 684.619C990.403 675.306 983.458 664.363 978.791 652.645C977.922 654.982 976.517 657.112 975.109 658.901C968.463 667.205 959.143 673.27 948.549 674.662C936.694 676.298 923.281 672.411 916.458 662.047C915.689 660.911 915.004 659.754 914.42 658.595C899.964 646.655 875.409 666.666 891.821 681.325C895.418 683.781 899.991 682.372 903.24 679.977C908.139 676.217 907.079 668.522 901.943 665.487C900.78 664.671 899.404 665.34 898.226 665.682C896.023 666.324 894.912 668.339 893.175 669.624C892.879 669.878 892.506 670.301 892.075 670.277C891.671 670.264 891.26 669.984 890.966 669.723C889.064 667.865 890.161 664.717 891.979 663.208C894.855 660.757 899.193 659.173 902.903 660.386C909.468 663.272 913.239 671.533 910.577 678.3C907.94 685.096 899.666 688.912 892.706 687.22C888.7 686.261 885.623 683.153 883.526 679.752C873.582 662.623 895.973 643.459 912.256 652.565C908.221 634.625 924.356 616.604 944.283 620.427C952.062 622.135 957.288 630.02 958.211 637.594C959.588 647.772 950.907 658.011 940.375 656.424C928.739 654.827 921.641 641.551 932.362 633.549C935.964 631.467 943.254 630.891 945.487 635.168C946.015 636.461 945.93 638.056 944.725 638.885C944.67 638.881 944.608 638.848 944.563 638.836C942.907 638.7 941.668 637.556 940.118 637.244C935.753 636.405 932.446 640.047 932.44 644.226C934.261 652.09 945.241 654.558 949.914 647.743C953.633 643.045 953.571 636.375 950.841 631.259C945.911 622.025 933.232 624.197 926.186 629.662C915.146 637.511 914.496 653.74 923.704 663.254C931.549 671.219 944.286 671.648 954.309 668.076C961.041 665.414 966.569 660.652 971.108 655.115C973.299 652.345 975.281 649.292 975.955 645.771C976.017 645.564 976.069 645.366 976.148 645.178C971.211 629.039 970.811 611.846 977.602 595.736C987.027 572.507 1007.51 555.361 1030.39 546.059C1055.89 534.407 1084.09 531.827 1111.8 531.935C1125.95 531.8 1140.09 532.189 1154.24 532.312C1158.65 532.326 1163.09 532.279 1167.48 532.466C1168.82 532.633 1170.56 532.251 1171.52 533.382C1173.66 531.336 1175.18 534.362 1175.16 536.395C1174.29 542.672 1172.82 548.895 1171.77 555.168C1170.12 564.212 1168.63 573.296 1166.86 582.323C1164.18 596.021 1160.85 609.605 1157.39 623.125C1153.23 638.994 1148.61 654.901 1140.86 669.446C1128.09 693.303 1103.77 711.04 1076.86 714.795C1058.97 717.49 1041.97 714.958 1027.02 707.611C1025.33 707.897 1023.62 708.134 1022.05 708.87C1013.17 712.741 1005.06 719.764 1002.15 729.246C998.979 738.93 1000.8 747.549 1008.05 754.824C1014.99 762.314 1025.84 767.921 1036.03 764.464C1050.95 758.964 1048.11 738.611 1035.3 732.348C1029.02 729.337 1021.17 734.906 1021.69 741.768C1022.99 751.158 1035.31 748.968 1030.01 739.568C1029.39 738.149 1029.83 737.225 1031.29 736.747C1034.67 735.624 1037.51 739.036 1037.67 742.187C1037.9 758.603 1016.43 757.452 1015.29 742.164C1014.67 733.95 1021.77 725.993 1030.03 725.832C1037.28 725.483 1043.49 730.396 1047.36 736.142C1052.38 743.127 1053.56 752.995 1048.98 760.489C1043.51 770.449 1030.58 772.509 1020.51 769.209C1018.38 768.511 1016.31 767.58 1014.34 766.482C1015.16 768.653 1015.72 770.896 1015.96 773.115C1016.7 778.953 1017.26 785.211 1014.29 790.546L1014.31 790.529Z" fill="#409CBA"/>
<path d="M981.656 747.551C982.883 752.469 977.029 755.696 973.166 757.215C967.314 759.208 959.999 759.994 954.529 756.75C952.009 754.909 950.893 751.316 951.727 748.342C952.762 745.161 956.163 743.543 959.178 742.769C965.718 741.04 977.719 741.229 981.655 747.569L981.656 747.551Z" fill="#409CBA"/>
<path d="M961.919 725.569C957.595 729.981 951.417 733.966 945.061 733.517C941.988 733.006 939.369 730.293 938.771 727.264C938.268 723.966 940.577 720.975 942.925 718.926C947.982 714.433 958.784 709.217 965.163 713.102C968.461 716.944 964.708 722.44 961.94 725.534L961.92 725.551L961.919 725.569Z" fill="#409CBA"/>
<path d="M942.999 702.984C941.972 709.083 939.173 715.95 933.665 719.24C930.848 720.563 927.155 719.848 924.936 717.681C922.644 715.25 922.839 711.49 923.604 708.473C925.201 701.901 931.091 691.44 938.555 691.006C943.421 692.271 943.498 698.86 943.009 702.975L942.999 702.984Z" fill="#409CBA"/>
<path d="M915.69 713.146C913.572 715.442 909.881 716.146 907.015 714.979C903.981 713.596 902.734 710.03 902.325 706.942C901.344 700.256 902.879 688.348 909.624 685.144C914.655 684.487 917.193 690.675 918.269 694.679C919.595 700.71 919.54 708.062 915.69 713.146Z" fill="#409CBA"/>
<path d="M896.705 715.267C895.553 718.171 892.363 720.156 889.265 720.094C885.938 719.886 883.498 717.002 882.002 714.282C878.677 708.394 875.848 696.724 880.993 691.316C885.412 688.91 889.973 693.686 892.426 697.023C895.844 702.182 898.482 709.105 896.696 715.257L896.705 715.267Z" fill="#409CBA"/>
<path d="M880.342 723.391C881.049 726.429 879.561 729.878 876.981 731.596C874.123 733.33 870.488 732.344 867.693 730.961C861.611 728.02 852.626 720.042 853.778 712.672C856.037 708.167 862.518 709.5 866.448 710.849C872.202 713.148 878.301 717.324 880.342 723.391Z" fill="#409CBA"/>
<path d="M870.557 748.534C868.558 751.208 864.812 751.668 861.718 751.431C854.967 750.981 843.654 746.968 841.952 739.702C842.361 734.716 848.789 733.494 852.922 733.266C852.94 733.267 852.958 733.269 852.987 733.262C859.186 733.229 866.421 734.821 870.607 739.68C872.401 742.23 872.316 745.998 870.566 748.544L870.557 748.534Z" fill="#409CBA"/>
<path d="M870.678 766.259C869.932 769.516 866.691 771.442 863.767 772.48C857.412 774.803 845.448 775.694 840.939 769.743C839.287 764.967 844.794 761.217 848.481 759.353C854.124 756.837 861.362 755.383 867.119 758.124C869.795 759.728 871.242 763.208 870.669 766.249L870.678 766.259Z" fill="#409CBA"/>
<path d="M875.215 790.406C870.568 795.318 860.257 801.464 853.577 798.146C849.943 794.609 853.222 788.801 855.694 785.482L855.714 785.465C859.632 780.7 865.445 776.19 871.816 776.078C874.928 776.316 877.769 778.788 878.628 781.763C879.412 785.009 877.374 788.177 875.214 790.425L875.215 790.406Z" fill="#409CBA"/>
<path d="M892.485 803.731C889.694 809.889 881.977 819.078 874.563 818.135C869.985 815.99 871.167 809.432 872.425 805.495C872.404 805.531 872.401 805.567 872.38 805.603L872.438 805.45C874.592 799.667 878.598 793.509 884.586 791.296C887.602 790.504 891.095 791.904 892.881 794.443C894.682 797.26 893.795 800.912 892.493 803.74L892.485 803.731Z" fill="#409CBA"/>
<path d="M914.399 805.405C915.622 812.054 914.507 824.012 907.881 827.456C902.909 828.301 900.139 822.261 898.913 818.301C897.363 812.308 897.135 804.925 900.811 799.7C902.844 797.323 906.507 796.488 909.419 797.548C912.498 798.824 913.869 802.335 914.399 805.405Z" fill="#409CBA"/>
<path d="M936.669 820.989C932.36 823.643 927.526 819.066 924.908 815.856L924.882 815.826C921.219 810.86 918.253 804.133 919.694 797.918C920.684 794.964 923.768 792.796 926.869 792.702C930.199 792.735 932.789 795.474 934.428 798.122C938.054 803.822 941.512 815.328 936.66 820.997L936.669 820.989Z" fill="#409CBA"/>
<path d="M960.14 805.894C956.717 809.601 950.84 806.501 947.449 804.124C942.564 800.326 937.872 794.619 937.595 788.235C937.768 785.127 940.144 782.215 943.097 781.289C946.321 780.421 949.542 782.38 951.84 784.48C956.863 788.997 963.279 799.145 960.138 805.912L960.14 805.894Z" fill="#409CBA"/>
<path d="M888.158 778.873C905.922 796.204 936.543 787.309 942.389 763.319C948.624 739.304 926.121 717.109 902.281 723.658C877.894 730.129 869.923 761.571 888.14 778.872L888.158 778.873ZM945.017 770.747C933.922 796.316 898.708 800.736 881.531 778.846C864.846 758.127 875.315 726.406 900.983 719.674C931.133 711.405 957.7 742.225 944.999 770.746L945.017 770.747Z" fill="#409CBA"/>
<path d="M920.283 768.14C920.864 767.642 921.42 767.113 921.95 766.555C922.423 766.03 922.861 765.483 923.263 764.915C923.628 764.363 923.965 763.8 924.276 763.225C924.56 762.639 924.836 762.043 925.077 761.426C925.289 760.816 925.473 760.213 925.63 759.599C925.774 758.929 925.889 758.266 925.959 757.59C926.009 756.93 926.041 756.27 926.036 755.607C926.014 754.942 925.944 754.283 925.847 753.631C925.725 752.931 925.567 752.229 925.444 751.786C925.423 751.702 925.392 751.626 925.362 751.532C925.155 750.871 924.9 750.235 924.626 749.597C924.309 748.928 923.954 748.275 923.617 747.743C923.387 747.376 923.194 747.011 923.012 746.62C922.981 746.544 922.95 746.468 922.919 746.392C922.895 746.344 922.872 746.278 922.857 746.239C922.798 746.051 922.738 745.862 922.679 745.673C922.575 745.592 922.48 745.502 922.386 745.412C921.611 744.708 920.936 743.902 920.151 743.206C919.685 742.802 919.199 742.415 918.692 742.064C918.106 741.66 917.508 741.283 916.88 740.949C916.827 740.927 916.791 740.906 916.748 740.875C916.748 740.875 916.748 740.875 916.739 740.865C916.452 740.769 916.163 740.692 915.866 740.605C915.542 740.507 915.198 740.425 914.873 740.345C914.212 740.193 913.549 740.078 912.891 740.01L912.855 740.007C911.941 739.919 911.031 739.895 910.119 739.908C909.269 739.936 908.408 740.008 907.568 740.146C906.933 740.264 906.297 740.399 905.676 740.573C905.044 740.773 904.41 740.992 903.801 741.258C903.237 741.519 902.688 741.836 902.166 742.165C901.451 742.607 900.77 743.089 900.17 743.587C899.648 744.035 899.151 744.513 898.68 745.02C898.197 745.554 897.741 746.099 897.329 746.675C896.946 747.226 896.608 747.79 896.287 748.373C896.278 748.381 896.266 748.408 896.265 748.426C895.951 749.038 895.683 749.662 895.431 750.305C895.198 750.951 895.009 751.608 894.848 752.277C894.735 752.784 894.651 753.284 894.594 753.796C894.539 754.39 894.521 754.987 894.522 755.585C894.551 756.278 894.628 756.965 894.714 757.644C894.857 758.428 895.018 759.214 895.245 759.977C895.467 760.694 895.726 761.395 896.024 762.081C896.332 762.74 896.671 763.373 897.047 763.991C897.459 764.63 897.9 765.244 898.379 765.842C898.844 766.384 899.348 766.892 899.863 767.392C900.407 767.866 900.962 768.314 901.528 768.734C902.132 769.14 902.756 769.528 903.403 769.863C903.971 770.145 904.55 770.401 905.14 770.631C905.741 770.833 906.353 771.027 906.958 771.174C907.665 771.321 908.374 771.448 909.095 771.531C909.754 771.581 910.414 771.613 911.078 771.609C911.752 771.577 912.429 771.509 913.108 771.423C913.752 771.316 914.389 771.162 915.01 770.988C915.709 770.765 916.4 770.514 917.086 770.217C917.573 769.987 918.035 769.727 918.498 769.45C919.127 769.047 919.721 768.622 920.3 768.16L920.283 768.14ZM929.316 767.403C927.307 770.684 924.44 773.384 921.034 775.177C917.312 777.139 913.066 778.132 908.858 777.774C905.94 777.523 903.185 776.705 900.587 775.393C898.18 774.123 896.008 772.41 894.241 770.351C893.218 769.159 892.325 767.838 891.613 766.431C889.972 763.202 889.053 759.56 889.303 755.924C889.523 752.792 890.175 749.683 891.579 746.853C892.94 744.094 894.837 741.679 896.942 739.924C897.789 739.197 898.694 738.557 899.642 737.967C900.365 737.534 901.13 737.169 901.893 736.822L901.959 736.8C902.636 736.492 903.348 736.206 904.048 735.965C904.18 735.919 904.313 735.874 904.445 735.829C904.616 735.769 904.804 735.709 904.983 735.658C905.21 735.584 905.435 735.527 905.66 735.471C905.717 735.457 905.763 735.451 905.801 735.436C906.055 735.372 906.298 735.317 906.542 735.262C906.795 735.198 907.047 735.153 907.299 735.108L907.356 735.094C907.608 735.049 907.868 735.013 908.12 734.968C908.338 734.883 908.555 734.817 908.781 734.761C908.883 734.741 908.996 734.713 909.099 734.693C909.202 734.673 909.323 734.655 909.434 734.645C909.666 734.616 909.907 734.598 910.12 734.587C910.314 734.574 910.517 734.571 910.71 734.576C910.858 734.569 910.996 734.571 911.142 734.582C911.288 734.593 911.427 734.594 911.573 734.606C912.398 734.65 913.226 734.778 914.04 734.969L914.05 734.96C914.124 734.966 914.178 734.97 914.242 734.984C914.378 735.004 914.515 735.023 914.643 735.033C914.798 735.054 914.961 735.085 915.125 735.116C915.961 735.254 916.775 735.445 917.595 735.682C917.839 735.747 918.081 735.83 918.323 735.913C918.404 735.946 918.485 735.962 918.521 735.983C919.48 736.323 920.39 736.706 921.284 737.17C923.321 738.228 925.219 739.662 926.775 741.355C927.011 741.631 927.24 741.897 927.476 742.173C927.536 742.242 927.603 742.32 927.661 742.408C927.761 742.544 927.87 742.691 927.968 742.846C928.043 742.952 928.109 743.05 928.174 743.165L928.191 743.185C928.191 743.185 928.199 743.195 928.208 743.204C928.422 743.414 928.625 743.651 928.818 743.896C929.313 744.532 929.706 745.289 930.065 746.007C930.144 746.179 930.233 746.342 930.312 746.514C930.391 746.686 930.47 746.858 930.541 747.019C930.604 747.153 930.659 747.277 930.713 747.419C930.807 747.629 930.892 747.847 930.978 748.047C930.995 748.067 930.992 748.104 931.009 748.123L931.124 748.417C931.83 750.276 932.267 752.261 932.419 754.252C932.778 758.837 931.705 763.488 929.296 767.42L929.316 767.403Z" fill="#409CBA"/>
<path d="M1334.17 416.947C1332.5 418.514 1329.77 418.361 1327.62 418.713C1319.33 419.608 1308.18 417.643 1304.55 409.171C1303.33 406.077 1305.11 400.31 1308.34 398.55C1308.85 398.193 1309.4 397.912 1309.98 397.69C1311 397.289 1312.09 397.105 1313.16 397.077C1313.34 397.062 1313.5 397.075 1313.68 397.079C1313.9 397.096 1314.13 397.086 1314.34 397.093C1314.79 397.118 1315.22 397.16 1315.67 397.222C1316.23 397.32 1316.8 397.446 1317.34 397.635C1323.45 399.077 1328.75 406.71 1332.02 411.278C1332.87 412.963 1335.26 414.986 1334.17 416.947Z" fill="#409CBA"/>
<path d="M1349.34 390.307C1348.25 392.304 1345.59 393.013 1343.66 394.017C1336.05 397.432 1324.84 399.025 1318.76 392.098C1316.64 389.523 1316.55 383.495 1319.08 380.824C1319.47 380.338 1319.9 379.883 1320.39 379.497C1321.24 378.798 1322.22 378.284 1323.22 377.918C1323.38 377.866 1323.55 377.814 1323.71 377.772C1323.93 377.705 1324.14 377.629 1324.36 377.581C1324.78 377.475 1325.22 377.371 1325.65 377.293C1326.21 377.207 1326.79 377.15 1327.37 377.167C1333.63 376.65 1341.03 382.261 1345.55 385.589C1346.88 386.924 1349.77 388.103 1349.34 390.307Z" fill="#409CBA"/>
<path d="M1356.2 363.559C1355.53 365.745 1353.07 366.947 1351.39 368.31C1344.61 373.17 1333.93 376.958 1326.6 371.362C1324.01 369.268 1322.72 363.378 1324.67 360.249C1324.96 359.7 1325.29 359.173 1325.69 358.697C1326.39 357.849 1327.24 357.158 1328.16 356.593C1328.3 356.503 1328.46 356.422 1328.61 356.342C1328.81 356.238 1329 356.123 1329.19 356.028C1329.6 355.837 1330 355.647 1330.41 355.495C1330.95 355.306 1331.51 355.136 1332.07 355.032C1338.11 353.283 1346.47 357.319 1351.56 359.677C1353.13 360.737 1356.2 361.321 1356.2 363.559Z" fill="#409CBA"/>
<path d="M1360.78 339.823C1360.11 342.009 1357.65 343.212 1355.96 344.575C1349.18 349.434 1338.51 353.223 1331.17 347.627C1328.59 345.533 1327.29 339.633 1329.25 336.514C1329.52 335.955 1329.86 335.438 1330.26 334.961C1330.95 334.112 1331.81 333.413 1332.72 332.848C1332.87 332.757 1333.02 332.677 1333.18 332.597C1333.38 332.492 1333.57 332.378 1333.76 332.282C1334.16 332.092 1334.57 331.911 1334.98 331.749C1335.51 331.55 1336.08 331.391 1336.64 331.286C1342.67 329.528 1351.04 333.574 1356.12 335.932C1357.69 336.982 1360.77 337.576 1360.77 339.813L1360.78 339.823Z" fill="#409CBA"/>
<path d="M1354.16 310.931C1351.02 318.665 1344.02 327.568 1334.84 326.757C1331.53 326.375 1327.3 322.074 1327.27 318.399C1327.21 317.786 1327.22 317.161 1327.29 316.55C1327.43 315.456 1327.79 314.415 1328.27 313.457C1328.34 313.306 1328.42 313.155 1328.51 313.006C1328.63 312.821 1328.73 312.617 1328.83 312.423C1329.07 312.045 1329.31 311.668 1329.58 311.32C1329.93 310.867 1330.32 310.428 1330.74 310.036C1334.91 305.327 1344.13 304.273 1349.69 303.537C1351.59 303.59 1354.5 302.44 1355.7 304.337C1356.3 306.546 1354.86 308.876 1354.17 310.932L1354.16 310.931Z" fill="#409CBA"/>
<path d="M1321.53 321.063C1320.85 321.886 1320.03 322.625 1319.07 323.177C1318.54 323.496 1317.98 323.757 1317.38 323.941C1314.01 325.397 1308.37 323.226 1306.69 320.354C1302.27 312.255 1307.64 302.279 1313.47 296.315C1315.07 294.854 1316.64 292.617 1318.9 292.274C1321.12 292.627 1321.23 295.748 1322.02 297.465C1323.58 302.851 1326.3 311.741 1323.65 317.432C1323.45 317.978 1323.21 318.512 1322.93 319.007C1322.71 319.386 1322.47 319.763 1322.22 320.131C1322.09 320.314 1321.95 320.487 1321.82 320.662C1321.72 320.801 1321.62 320.941 1321.51 321.07L1321.53 321.063Z" fill="#409CBA"/>
<path d="M1297.38 321.981C1296.7 322.804 1295.88 323.542 1294.92 324.104C1294.39 324.423 1293.82 324.674 1293.23 324.869C1289.85 326.314 1284.22 324.153 1282.54 321.281C1278.12 313.182 1283.49 303.206 1289.32 297.243C1290.92 295.782 1292.49 293.544 1294.75 293.201C1296.97 293.554 1297.08 296.675 1297.88 298.384C1299.44 303.77 1302.15 312.65 1299.51 318.351C1299.31 318.897 1299.06 319.421 1298.79 319.925C1298.57 320.304 1298.33 320.682 1298.08 321.05C1297.96 321.224 1297.81 321.406 1297.68 321.581C1297.58 321.72 1297.47 321.85 1297.37 321.989L1297.38 321.981Z" fill="#409CBA"/>
<path d="M1273.57 326.196C1273.11 326.621 1272.61 326.97 1272.07 327.278C1269.04 329.377 1263.09 328.361 1260.88 325.881C1254.94 318.826 1258.21 307.981 1262.76 300.981C1264.04 299.228 1265.14 296.715 1267.28 295.939C1269.52 295.844 1270.25 298.882 1271.37 300.404C1273.97 305.372 1278.39 313.536 1276.93 319.648C1276.85 320.231 1276.71 320.782 1276.55 321.331C1276.4 321.762 1276.24 322.155 1276.06 322.565C1275.98 322.761 1275.86 322.964 1275.78 323.17C1275.7 323.32 1275.64 323.481 1275.56 323.632C1275.05 324.568 1274.39 325.457 1273.57 326.196Z" fill="#409CBA"/>
<path d="M1252.91 335.198C1250.68 338.122 1244.71 339.001 1241.84 337.327C1234.01 332.448 1233.77 321.123 1235.91 313.073C1236.59 311.017 1236.85 308.283 1238.65 306.874C1240.74 306.086 1242.38 308.752 1243.93 309.855C1247.95 313.78 1254.68 320.169 1255.18 326.441C1255.28 327.009 1255.33 327.584 1255.34 328.156C1255.33 328.606 1255.31 329.037 1255.26 329.485C1255.25 329.705 1255.19 329.922 1255.17 330.15C1255.15 330.315 1255.12 330.496 1255.09 330.66C1254.9 331.713 1254.55 332.764 1254 333.716C1253.69 334.254 1253.32 334.76 1252.9 335.207L1252.91 335.198Z" fill="#409CBA"/>
<path d="M1237.81 346.097C1237.5 349.755 1232.93 353.697 1229.59 353.82C1220.36 353.889 1214.11 344.453 1211.62 336.482C1211.09 334.37 1209.85 331.928 1210.63 329.787C1211.98 327.993 1214.79 329.377 1216.68 329.485C1222.17 330.659 1231.28 332.459 1235.06 337.48C1235.46 337.906 1235.79 338.374 1236.1 338.839C1236.34 339.217 1236.55 339.601 1236.75 339.994C1236.86 340.195 1236.93 340.404 1237.04 340.605C1237.12 340.758 1237.18 340.91 1237.25 341.072C1237.65 342.061 1237.92 343.131 1237.97 344.239C1238 344.859 1237.95 345.471 1237.84 346.09L1237.81 346.097Z" fill="#409CBA"/>
<path d="M1226.7 370.2C1226.31 370.631 1225.87 371.011 1225.4 371.344C1224.56 371.943 1223.63 372.35 1222.66 372.617C1222.51 372.661 1222.35 372.695 1222.19 372.729C1221.99 372.768 1221.78 372.826 1221.58 372.875C1221.18 372.946 1220.77 373.007 1220.36 373.049C1219.84 373.092 1219.29 373.096 1218.76 373.056C1212.91 373.116 1206.41 367.417 1202.43 364.029C1201.28 362.689 1198.67 361.403 1199.22 359.392C1200.37 357.601 1202.88 357.139 1204.73 356.323C1212.03 353.649 1222.54 352.913 1227.73 359.764C1229.54 362.286 1229.22 367.897 1226.7 370.209L1226.7 370.2Z" fill="#409CBA"/>
<path d="M1227.78 392.021C1227.61 392.165 1227.45 392.308 1227.28 392.452C1226.93 392.72 1226.58 392.988 1226.21 393.236C1225.73 393.54 1225.23 393.833 1224.7 394.051C1219.23 397.067 1210.23 394.99 1204.77 393.819C1203.01 393.141 1199.91 393.254 1199.41 391.08C1199.59 388.81 1201.71 387.093 1203.04 385.4C1208.55 379.2 1218.07 373.187 1226.42 377.001C1229.4 378.471 1231.94 383.904 1230.72 387.357C1230.57 387.952 1230.37 388.535 1230.09 389.085C1229.6 390.069 1228.91 390.929 1228.16 391.663C1228.03 391.773 1227.91 391.893 1227.77 391.993L1227.78 392.021Z" fill="#409CBA"/>
<path d="M1240.22 411.938C1236.09 416.642 1226.92 417.737 1221.4 418.475C1219.52 418.442 1216.63 419.593 1215.43 417.715C1214.83 415.524 1216.24 413.201 1216.92 411.145C1220 403.443 1226.92 394.561 1236.06 395.324C1239.35 395.695 1243.58 399.95 1243.62 403.598C1243.68 404.211 1243.68 404.828 1243.61 405.439C1243.48 406.525 1243.14 407.567 1242.66 408.525C1242.59 408.676 1242.51 408.826 1242.42 408.976C1242.3 409.16 1242.2 409.364 1242.1 409.559C1241.86 409.928 1241.62 410.305 1241.36 410.653C1241.01 411.106 1240.64 411.547 1240.22 411.938Z" fill="#409CBA"/>
<path d="M1259.92 423.707C1257.99 429.692 1249.96 434.355 1245.16 437.257C1243.41 437.98 1241.2 440.196 1239.35 438.949C1237.92 437.164 1238.29 434.449 1238.09 432.289C1237.87 423.948 1240.69 412.986 1249.44 410.045C1252.63 409.073 1258.22 411.305 1259.73 414.661C1260.04 415.2 1260.28 415.78 1260.45 416.373C1260.77 417.419 1260.87 418.531 1260.81 419.586C1260.81 419.761 1260.79 419.934 1260.76 420.107C1260.74 420.336 1260.73 420.565 1260.7 420.775C1260.63 421.211 1260.56 421.648 1260.46 422.082C1260.31 422.633 1260.15 423.182 1259.91 423.716L1259.92 423.707Z" fill="#409CBA"/>
<path d="M1275.88 444.602C1274.67 446.056 1273.76 449.043 1271.53 448.818C1269.43 447.912 1268.49 445.336 1267.32 443.516C1263.22 436.251 1260.61 425.233 1266.97 418.546C1269.33 416.195 1275.34 415.557 1278.22 417.822C1278.75 418.156 1279.22 418.552 1279.66 418.999C1280.42 419.785 1281.04 420.707 1281.48 421.68C1281.54 421.832 1281.62 421.985 1281.68 422.156C1281.76 422.364 1281.85 422.574 1281.94 422.774C1282.09 423.19 1282.23 423.606 1282.34 424.038C1282.47 424.591 1282.59 425.162 1282.62 425.735C1283.7 431.922 1278.8 439.807 1275.9 444.603L1275.88 444.602Z" fill="#409CBA"/>
<path d="M1308.49 435.234C1308.31 437.117 1309.24 440.097 1307.27 441.172C1305.03 441.608 1302.8 440.011 1300.81 439.177C1293.32 435.493 1284.94 427.884 1286.4 418.779C1287.02 415.511 1291.61 411.589 1295.28 411.824C1295.9 411.807 1296.52 411.854 1297.13 411.983C1298.21 412.204 1299.23 412.623 1300.15 413.172C1300.29 413.256 1300.44 413.35 1300.58 413.453C1300.76 413.587 1300.96 413.694 1301.14 413.827C1301.5 414.085 1301.85 414.351 1302.18 414.643C1302.6 415.016 1303.01 415.434 1303.38 415.876C1307.77 420.373 1308.16 429.648 1308.49 435.252L1308.49 435.234Z" fill="#409CBA"/>
<path d="M1276.95 405.773C1285.28 404.899 1291.93 398.943 1297.19 392.882C1309.59 376.14 1314.3 355.139 1317.8 335.012C1298.28 335.097 1277.38 333.225 1259.58 342.767C1248.53 348.655 1241.3 360.403 1240.73 372.864C1239.99 380.55 1243.65 387.708 1248.98 393.04C1256.11 400.573 1266.25 406.724 1276.96 405.765L1276.95 405.773ZM1301.4 396.103C1295.27 403.038 1287.37 409.34 1277.95 410.545C1261.23 412.261 1244.54 400.205 1237.52 385.582C1231.08 368.628 1240.55 348.027 1256.06 339.59C1273.52 329.929 1299.34 330.114 1318.7 332.65C1319.09 331.851 1319.71 330.895 1320.56 330.638C1323.9 332.753 1322.92 337.355 1322.45 340.652C1321.32 348.328 1319.62 355.978 1317.28 363.359C1313.5 374.865 1309.04 386.586 1301.39 396.111L1301.4 396.103Z" fill="#409CBA"/>
<path d="M1244.02 451.57C1279.09 466.622 1314.52 454.614 1338.44 426.332C1348.03 413.741 1353.62 398.571 1358.38 383.678C1363.75 365.756 1368.06 347.514 1371.86 329.187C1374.99 313.598 1377.35 297.804 1381.05 282.36C1338.24 286.228 1293.25 277.702 1252.2 293.599C1228.01 302.259 1205.28 318.348 1194.69 342.353C1181.33 371.082 1193.38 403.528 1212.63 426.46C1221.27 437.027 1231.75 445.984 1244.03 451.562L1244.02 451.57ZM1225.31 537.529C1218.97 550.119 1200.88 549.41 1192.16 539.85C1188.88 535.825 1188.1 530.057 1189.77 525.185C1188.25 529.074 1182.48 529.748 1178.71 529.736C1178.71 529.736 1178.71 529.736 1178.68 529.743C1178.68 529.743 1178.66 529.741 1178.64 529.74C1178.64 529.74 1178.63 529.748 1178.62 529.747C1172.45 529.396 1165.36 527.382 1161.49 522.307C1159.85 519.659 1160.15 515.908 1162.05 513.456C1164.21 510.905 1167.96 510.676 1171.05 511.087C1177.77 511.931 1188.82 516.614 1190.09 523.957C1190.05 524.267 1189.98 524.547 1189.89 524.826C1190.32 523.689 1190.88 522.59 1191.58 521.584C1194.08 518 1197.62 514.496 1202.26 514.417C1210.68 514.001 1221.73 522.57 1216.26 531.424C1214.27 535.304 1209.94 538.114 1205.51 537.297C1204.31 536.966 1203.34 535.99 1202.93 534.835C1203.34 534.553 1203.86 534.363 1204.32 534.186C1206.65 533.609 1208.81 534.133 1210.58 532.169C1214.61 527.09 1211.47 521.215 1205.62 519.682C1199.76 517.587 1195.33 523.75 1194.54 528.9C1193.94 533.366 1196.16 538.029 1200.27 540.027C1205.47 542.956 1212.65 543.035 1217.22 538.909C1222.67 532.162 1221.34 523.009 1219.49 515.181C1218.67 512.089 1216.97 509.307 1215.34 506.595C1214.92 505.541 1213 503.471 1212.09 501.771C1211.92 501.546 1211.73 501.311 1211.57 501.077C1207.93 495.708 1205.37 489.252 1206.22 482.669C1206.85 474.108 1210.01 466.008 1216.56 460.247C1221.03 456.481 1226.42 452.741 1232.24 451.463C1223.85 446.449 1216.21 439.798 1209.53 431.619C1201.4 422.306 1194.46 411.363 1189.79 399.645C1188.92 401.982 1187.52 404.112 1186.11 405.901C1179.46 414.205 1170.14 420.27 1159.55 421.662C1147.69 423.298 1134.28 419.411 1127.46 409.047C1126.69 407.911 1126 406.754 1125.42 405.595C1110.96 393.655 1086.41 413.666 1102.82 428.325C1106.42 430.781 1110.99 429.372 1114.24 426.977C1119.14 423.217 1118.08 415.522 1112.94 412.487C1111.78 411.671 1110.4 412.34 1109.23 412.682C1107.02 413.324 1105.91 415.339 1104.17 416.624C1103.88 416.878 1103.51 417.301 1103.08 417.277C1102.67 417.264 1102.26 416.984 1101.97 416.723C1100.06 414.865 1101.16 411.717 1102.98 410.208C1105.86 407.757 1110.19 406.173 1113.9 407.386C1120.47 410.272 1124.24 418.533 1121.58 425.3C1118.94 432.096 1110.67 435.912 1103.71 434.22C1099.7 433.261 1096.62 430.153 1094.53 426.752C1084.58 409.623 1106.97 390.459 1123.26 399.565C1119.22 381.625 1135.36 363.604 1155.28 367.427C1163.06 369.135 1168.29 377.02 1169.21 384.594C1170.59 394.772 1161.91 405.011 1151.38 403.424C1139.74 401.827 1132.64 388.551 1143.36 380.549C1146.96 378.467 1154.25 377.891 1156.49 382.168C1157.01 383.461 1156.93 385.056 1155.72 385.885C1155.67 385.881 1155.61 385.848 1155.56 385.836C1153.91 385.7 1152.67 384.556 1151.12 384.244C1146.75 383.405 1143.45 387.047 1143.44 391.226C1145.26 399.09 1156.24 401.558 1160.91 394.743C1164.63 390.045 1164.57 383.375 1161.84 378.259C1156.91 369.025 1144.23 371.197 1137.19 376.662C1126.15 384.511 1125.5 400.74 1134.7 410.254C1142.55 418.219 1155.29 418.648 1165.31 415.076C1172.04 412.414 1177.57 407.652 1182.11 402.115C1184.3 399.345 1186.28 396.292 1186.96 392.771C1187.02 392.564 1187.07 392.366 1187.15 392.178C1182.21 376.039 1181.81 358.846 1188.6 342.736C1198.03 319.507 1218.51 302.361 1241.39 293.059C1266.89 281.407 1295.09 278.827 1322.8 278.935C1336.95 278.8 1351.09 279.189 1365.24 279.312C1369.65 279.326 1374.09 279.279 1378.48 279.466C1379.82 279.633 1381.56 279.251 1382.52 280.382C1384.66 278.336 1386.18 281.362 1386.16 283.395C1385.29 289.672 1383.82 295.895 1382.77 302.168C1381.12 311.212 1379.63 320.296 1377.86 329.323C1375.18 343.021 1371.85 356.605 1368.39 370.125C1364.23 385.994 1359.61 401.901 1351.86 416.446C1339.09 440.303 1314.77 458.04 1287.86 461.795C1269.97 464.49 1252.97 461.958 1238.02 454.611C1236.33 454.897 1234.62 455.134 1233.05 455.87C1224.17 459.741 1216.06 466.764 1213.15 476.246C1209.98 485.93 1211.8 494.549 1219.05 501.824C1225.99 509.314 1236.84 514.921 1247.03 511.464C1261.95 505.964 1259.11 485.611 1246.3 479.348C1240.02 476.337 1232.17 481.906 1232.69 488.768C1233.99 498.158 1246.31 495.968 1241.01 486.568C1240.39 485.149 1240.83 484.225 1242.29 483.747C1245.67 482.624 1248.51 486.036 1248.67 489.187C1248.9 505.603 1227.43 504.452 1226.29 489.164C1225.67 480.95 1232.77 472.993 1241.03 472.832C1248.28 472.483 1254.49 477.396 1258.36 483.142C1263.38 490.127 1264.56 499.995 1259.98 507.489C1254.51 517.449 1241.58 519.509 1231.51 516.209C1229.38 515.511 1227.31 514.58 1225.34 513.482C1226.16 515.653 1226.72 517.896 1226.96 520.115C1227.7 525.953 1228.26 532.211 1225.29 537.546L1225.31 537.529Z" fill="#409CBA"/>
<path d="M1192.66 494.551C1193.88 499.469 1188.03 502.696 1184.17 504.215C1178.31 506.208 1171 506.994 1165.53 503.75C1163.01 501.909 1161.89 498.316 1162.73 495.342C1163.76 492.161 1167.16 490.543 1170.18 489.769C1176.72 488.04 1188.72 488.229 1192.65 494.569L1192.66 494.551Z" fill="#409CBA"/>
<path d="M1172.92 472.569C1168.6 476.981 1162.42 480.966 1156.06 480.517C1152.99 480.006 1150.37 477.293 1149.77 474.264C1149.27 470.966 1151.58 467.975 1153.92 465.926C1158.98 461.433 1169.78 456.217 1176.16 460.102C1179.46 463.944 1175.71 469.44 1172.94 472.534L1172.92 472.551L1172.92 472.569Z" fill="#409CBA"/>
<path d="M1154 449.984C1152.97 456.083 1150.17 462.95 1144.66 466.24C1141.85 467.563 1138.15 466.848 1135.94 464.681C1133.64 462.25 1133.84 458.49 1134.6 455.473C1136.2 448.901 1142.09 438.44 1149.55 438.006C1154.42 439.271 1154.5 445.86 1154.01 449.975L1154 449.984Z" fill="#409CBA"/>
<path d="M1126.69 460.146C1124.57 462.442 1120.88 463.146 1118.01 461.979C1114.98 460.596 1113.73 457.03 1113.32 453.942C1112.34 447.256 1113.88 435.348 1120.62 432.144C1125.66 431.487 1128.19 437.675 1129.27 441.679C1130.59 447.71 1130.54 455.062 1126.69 460.146Z" fill="#409CBA"/>
<path d="M1107.7 462.267C1106.55 465.171 1103.36 467.156 1100.26 467.094C1096.94 466.886 1094.5 464.002 1093 461.282C1089.68 455.394 1086.85 443.724 1091.99 438.316C1096.41 435.91 1100.97 440.687 1103.43 444.023C1106.84 449.182 1109.48 456.105 1107.7 462.257L1107.7 462.267Z" fill="#409CBA"/>
<path d="M1091.34 470.391C1092.05 473.429 1090.56 476.878 1087.98 478.596C1085.12 480.33 1081.49 479.344 1078.69 477.961C1072.61 475.02 1063.63 467.042 1064.78 459.672C1067.04 455.167 1073.52 456.5 1077.45 457.849C1083.2 460.148 1089.3 464.324 1091.34 470.391Z" fill="#409CBA"/>
<path d="M1081.56 495.534C1079.56 498.208 1075.81 498.668 1072.72 498.431C1065.97 497.981 1054.65 493.968 1052.95 486.702C1053.36 481.716 1059.79 480.494 1063.92 480.266C1063.94 480.267 1063.96 480.269 1063.99 480.262C1070.19 480.229 1077.42 481.821 1081.61 486.68C1083.4 489.23 1083.32 492.998 1081.57 495.544L1081.56 495.534Z" fill="#409CBA"/>
<path d="M1081.68 513.259C1080.93 516.516 1077.69 518.442 1074.77 519.48C1068.41 521.803 1056.45 522.694 1051.94 516.743C1050.29 511.967 1055.79 508.217 1059.48 506.353C1065.12 503.837 1072.36 502.383 1078.12 505.124C1080.8 506.728 1082.24 510.208 1081.67 513.249L1081.68 513.259Z" fill="#409CBA"/>
<path d="M1086.22 537.406C1081.57 542.318 1071.26 548.464 1064.58 545.146C1060.94 541.609 1064.22 535.801 1066.69 532.482L1066.71 532.465C1070.63 527.7 1076.45 523.19 1082.82 523.078C1085.93 523.316 1088.77 525.788 1089.63 528.763C1090.41 532.009 1088.37 535.177 1086.21 537.425L1086.22 537.406Z" fill="#409CBA"/>
<path d="M1103.48 550.731C1100.69 556.889 1092.98 566.078 1085.56 565.135C1080.99 562.99 1082.17 556.432 1083.43 552.495C1083.4 552.531 1083.4 552.567 1083.38 552.603L1083.44 552.45C1085.59 546.667 1089.6 540.509 1095.59 538.296C1098.6 537.504 1102.09 538.904 1103.88 541.443C1105.68 544.26 1104.8 547.912 1103.49 550.74L1103.48 550.731Z" fill="#409CBA"/>
<path d="M1125.4 552.405C1126.62 559.054 1125.51 571.012 1118.88 574.456C1113.91 575.301 1111.14 569.261 1109.91 565.301C1108.36 559.308 1108.13 551.925 1111.81 546.7C1113.84 544.323 1117.51 543.488 1120.42 544.548C1123.5 545.824 1124.87 549.335 1125.4 552.405Z" fill="#409CBA"/>
<path d="M1147.67 567.989C1143.36 570.643 1138.53 566.066 1135.91 562.856L1135.88 562.826C1132.22 557.86 1129.25 551.133 1130.69 544.918C1131.68 541.964 1134.77 539.796 1137.87 539.702C1141.2 539.735 1143.79 542.474 1145.43 545.122C1149.05 550.822 1152.51 562.328 1147.66 567.997L1147.67 567.989Z" fill="#409CBA"/>
<path d="M1171.14 552.894C1167.72 556.601 1161.84 553.501 1158.45 551.124C1153.56 547.326 1148.87 541.619 1148.59 535.235C1148.77 532.127 1151.14 529.215 1154.1 528.289C1157.32 527.421 1160.54 529.38 1162.84 531.48C1167.86 535.997 1174.28 546.145 1171.14 552.912L1171.14 552.894Z" fill="#409CBA"/>
<path d="M1099.16 525.873C1116.92 543.204 1147.54 534.309 1153.39 510.319C1159.62 486.304 1137.12 464.109 1113.28 470.658C1088.89 477.129 1080.92 508.571 1099.14 525.872L1099.16 525.873ZM1156.02 517.747C1144.92 543.316 1109.71 547.736 1092.53 525.846C1075.85 505.127 1086.31 473.406 1111.98 466.674C1142.13 458.405 1168.7 489.225 1156 517.746L1156.02 517.747Z" fill="#409CBA"/>
<path d="M1131.28 515.14C1131.86 514.642 1132.42 514.113 1132.95 513.555C1133.42 513.03 1133.86 512.483 1134.26 511.915C1134.63 511.363 1134.97 510.8 1135.28 510.225C1135.56 509.639 1135.84 509.043 1136.08 508.426C1136.29 507.816 1136.47 507.213 1136.63 506.599C1136.77 505.929 1136.89 505.266 1136.96 504.59C1137.01 503.93 1137.04 503.27 1137.04 502.607C1137.01 501.942 1136.94 501.283 1136.85 500.631C1136.73 499.931 1136.57 499.229 1136.44 498.786C1136.42 498.702 1136.39 498.626 1136.36 498.532C1136.15 497.871 1135.9 497.235 1135.63 496.597C1135.31 495.928 1134.95 495.275 1134.62 494.743C1134.39 494.376 1134.19 494.011 1134.01 493.62C1133.98 493.544 1133.95 493.468 1133.92 493.392C1133.89 493.344 1133.87 493.278 1133.86 493.239C1133.8 493.051 1133.74 492.862 1133.68 492.673C1133.57 492.592 1133.48 492.502 1133.39 492.412C1132.61 491.708 1131.94 490.902 1131.15 490.206C1130.68 489.802 1130.2 489.415 1129.69 489.064C1129.11 488.66 1128.51 488.283 1127.88 487.949C1127.83 487.927 1127.79 487.906 1127.75 487.875C1127.75 487.875 1127.75 487.875 1127.74 487.865C1127.45 487.769 1127.16 487.692 1126.87 487.605C1126.54 487.507 1126.2 487.425 1125.87 487.345C1125.21 487.193 1124.55 487.078 1123.89 487.01L1123.85 487.007C1122.94 486.919 1122.03 486.895 1121.12 486.908C1120.27 486.936 1119.41 487.008 1118.57 487.146C1117.93 487.264 1117.3 487.399 1116.68 487.573C1116.04 487.773 1115.41 487.992 1114.8 488.258C1114.24 488.519 1113.69 488.836 1113.17 489.165C1112.45 489.607 1111.77 490.089 1111.17 490.587C1110.65 491.035 1110.15 491.513 1109.68 492.02C1109.2 492.554 1108.74 493.099 1108.33 493.675C1107.95 494.226 1107.61 494.79 1107.29 495.373C1107.28 495.381 1107.27 495.408 1107.26 495.426C1106.95 496.038 1106.68 496.662 1106.43 497.305C1106.2 497.951 1106.01 498.608 1105.85 499.277C1105.74 499.784 1105.65 500.284 1105.59 500.796C1105.54 501.39 1105.52 501.987 1105.52 502.585C1105.55 503.278 1105.63 503.965 1105.71 504.644C1105.86 505.428 1106.02 506.214 1106.25 506.977C1106.47 507.694 1106.73 508.395 1107.02 509.081C1107.33 509.74 1107.67 510.373 1108.05 510.991C1108.46 511.63 1108.9 512.244 1109.38 512.842C1109.84 513.384 1110.35 513.892 1110.86 514.392C1111.41 514.866 1111.96 515.314 1112.53 515.734C1113.13 516.14 1113.76 516.528 1114.4 516.863C1114.97 517.145 1115.55 517.401 1116.14 517.631C1116.74 517.833 1117.35 518.027 1117.96 518.174C1118.67 518.321 1119.37 518.448 1120.09 518.531C1120.75 518.581 1121.41 518.613 1122.08 518.609C1122.75 518.577 1123.43 518.509 1124.11 518.423C1124.75 518.316 1125.39 518.162 1126.01 517.988C1126.71 517.765 1127.4 517.514 1128.09 517.217C1128.57 516.987 1129.03 516.727 1129.5 516.45C1130.13 516.047 1130.72 515.622 1131.3 515.16L1131.28 515.14ZM1140.32 514.403C1138.31 517.684 1135.44 520.384 1132.03 522.177C1128.31 524.139 1124.07 525.132 1119.86 524.774C1116.94 524.523 1114.18 523.705 1111.59 522.393C1109.18 521.123 1107.01 519.41 1105.24 517.351C1104.22 516.159 1103.32 514.838 1102.61 513.431C1100.97 510.202 1100.05 506.56 1100.3 502.924C1100.52 499.792 1101.18 496.683 1102.58 493.853C1103.94 491.094 1105.84 488.679 1107.94 486.924C1108.79 486.197 1109.69 485.557 1110.64 484.967C1111.37 484.534 1112.13 484.169 1112.89 483.822L1112.96 483.8C1113.64 483.492 1114.35 483.206 1115.05 482.965C1115.18 482.919 1115.31 482.874 1115.45 482.829C1115.62 482.769 1115.8 482.709 1115.98 482.658C1116.21 482.584 1116.43 482.527 1116.66 482.471C1116.72 482.457 1116.76 482.451 1116.8 482.436C1117.05 482.372 1117.3 482.317 1117.54 482.262C1117.8 482.198 1118.05 482.153 1118.3 482.108L1118.36 482.094C1118.61 482.049 1118.87 482.013 1119.12 481.968C1119.34 481.883 1119.56 481.817 1119.78 481.761C1119.88 481.741 1120 481.713 1120.1 481.693C1120.2 481.673 1120.32 481.655 1120.43 481.645C1120.67 481.616 1120.91 481.598 1121.12 481.587C1121.31 481.574 1121.52 481.571 1121.71 481.576C1121.86 481.569 1122 481.571 1122.14 481.582C1122.29 481.593 1122.43 481.594 1122.57 481.606C1123.4 481.65 1124.23 481.778 1125.04 481.969L1125.05 481.96C1125.12 481.966 1125.18 481.97 1125.24 481.984C1125.38 482.004 1125.52 482.023 1125.64 482.033C1125.8 482.054 1125.96 482.085 1126.12 482.116C1126.96 482.254 1127.78 482.445 1128.6 482.682C1128.84 482.747 1129.08 482.83 1129.32 482.913C1129.4 482.946 1129.49 482.962 1129.52 482.983C1130.48 483.323 1131.39 483.706 1132.28 484.17C1134.32 485.228 1136.22 486.662 1137.77 488.355C1138.01 488.631 1138.24 488.897 1138.48 489.173C1138.54 489.242 1138.6 489.32 1138.66 489.408C1138.76 489.544 1138.87 489.691 1138.97 489.846C1139.04 489.952 1139.11 490.05 1139.17 490.165L1139.19 490.185C1139.19 490.185 1139.2 490.195 1139.21 490.204C1139.42 490.414 1139.62 490.651 1139.82 490.896C1140.31 491.532 1140.71 492.289 1141.07 493.007C1141.14 493.179 1141.23 493.342 1141.31 493.514C1141.39 493.686 1141.47 493.858 1141.54 494.019C1141.6 494.153 1141.66 494.277 1141.71 494.419C1141.81 494.629 1141.89 494.847 1141.98 495.047C1141.99 495.067 1141.99 495.104 1142.01 495.123L1142.12 495.417C1142.83 497.276 1143.27 499.261 1143.42 501.252C1143.78 505.837 1142.7 510.488 1140.3 514.42L1140.32 514.403Z" fill="#409CBA"/>
</svg>
