<svg width="1444" height="1038" viewBox="0 0 1444 1038" fill="none" xmlns="http://www.w3.org/2000/svg">
<path d="M0 0.584474C0 0.584474 221.223 107.302 404.312 125.111C600.868 144.229 785.627 143.285 980.812 76.5844C1155 17.059 1229 -60.9405 1443.8 76.5845V1037.56C1443.8 1037.56 1316.02 934.08 1152.68 921.737C751.948 891.455 201 1113.08 0 921.791V0.584474Z" fill="#67A545"/>
<path d="M1104.75 680.947C1103.08 682.514 1100.35 682.361 1098.2 682.713C1089.9 683.608 1078.76 681.643 1075.13 673.171C1073.91 670.077 1075.69 664.31 1078.92 662.55C1079.43 662.193 1079.98 661.912 1080.56 661.69C1081.58 661.289 1082.67 661.105 1083.74 661.077C1083.92 661.062 1084.08 661.075 1084.26 661.079C1084.48 661.096 1084.71 661.086 1084.92 661.093C1085.37 661.118 1085.8 661.16 1086.25 661.222C1086.81 661.32 1087.38 661.446 1087.92 661.635C1094.03 663.077 1099.33 670.71 1102.6 675.278C1103.45 676.963 1105.84 678.986 1104.75 680.947Z" fill="#15772C"/>
<path d="M1119.92 654.307C1118.83 656.305 1116.17 657.013 1114.24 658.017C1106.63 661.432 1095.42 663.026 1089.34 656.098C1087.22 653.523 1087.13 647.495 1089.66 644.825C1090.05 644.339 1090.48 643.884 1090.97 643.497C1091.82 642.798 1092.8 642.284 1093.8 641.919C1093.96 641.866 1094.12 641.814 1094.29 641.772C1094.51 641.705 1094.72 641.629 1094.93 641.581C1095.36 641.475 1095.8 641.371 1096.23 641.293C1096.79 641.207 1097.37 641.15 1097.95 641.167C1104.21 640.651 1111.61 646.261 1116.13 649.589C1117.46 650.925 1120.35 652.103 1119.92 654.307Z" fill="#15772C"/>
<path d="M1126.78 627.559C1126.11 629.745 1123.65 630.947 1121.97 632.31C1115.19 637.169 1104.51 640.958 1097.18 635.362C1094.59 633.268 1093.3 627.378 1095.25 624.249C1095.53 623.7 1095.87 623.173 1096.26 622.697C1096.97 621.849 1097.82 621.158 1098.74 620.593C1098.88 620.503 1099.03 620.422 1099.19 620.342C1099.39 620.238 1099.58 620.123 1099.77 620.028C1100.18 619.837 1100.58 619.647 1100.99 619.494C1101.53 619.305 1102.09 619.136 1102.65 619.032C1108.69 617.283 1117.05 621.319 1122.14 623.677C1123.71 624.737 1126.78 625.321 1126.78 627.559Z" fill="#15772C"/>
<path d="M1131.36 603.823C1130.69 606.009 1128.23 607.212 1126.54 608.575C1119.76 613.434 1109.09 617.223 1101.75 611.627C1099.17 609.533 1097.87 603.633 1099.83 600.514C1100.1 599.955 1100.44 599.438 1100.84 598.962C1101.53 598.112 1102.38 597.413 1103.3 596.848C1103.45 596.758 1103.6 596.677 1103.75 596.597C1103.96 596.492 1104.15 596.378 1104.34 596.282C1104.74 596.092 1105.15 595.912 1105.56 595.749C1106.09 595.551 1106.65 595.391 1107.22 595.287C1113.25 593.528 1121.62 597.574 1126.7 599.932C1128.27 600.982 1131.35 601.576 1131.35 603.814L1131.36 603.823Z" fill="#15772C"/>
<path d="M1124.74 574.931C1121.6 582.666 1114.6 591.568 1105.42 590.757C1102.11 590.376 1097.87 586.075 1097.85 582.399C1097.79 581.787 1097.8 581.161 1097.87 580.55C1098.01 579.456 1098.37 578.415 1098.85 577.457C1098.92 577.306 1099 577.156 1099.09 577.006C1099.21 576.822 1099.31 576.617 1099.41 576.423C1099.65 576.046 1099.89 575.668 1100.16 575.32C1100.51 574.868 1100.9 574.428 1101.32 574.036C1105.49 569.328 1114.71 568.273 1120.27 567.538C1122.17 567.59 1125.08 566.441 1126.28 568.337C1126.88 570.546 1125.44 572.876 1124.75 574.933L1124.74 574.931Z" fill="#15772C"/>
<path d="M1092.11 585.064C1091.43 585.886 1090.61 586.625 1089.65 587.177C1089.12 587.496 1088.56 587.757 1087.96 587.942C1084.59 589.397 1078.95 587.226 1077.27 584.354C1072.85 576.255 1078.22 566.279 1084.05 560.316C1085.65 558.854 1087.22 556.617 1089.48 556.274C1091.7 556.627 1091.81 559.748 1092.6 561.465C1094.16 566.851 1096.88 575.741 1094.23 581.432C1094.03 581.978 1093.79 582.512 1093.51 583.007C1093.29 583.386 1093.05 583.763 1092.8 584.131C1092.67 584.314 1092.53 584.487 1092.4 584.662C1092.3 584.801 1092.2 584.941 1092.09 585.071L1092.11 585.064Z" fill="#15772C"/>
<path d="M1067.96 585.981C1067.28 586.803 1066.45 587.542 1065.5 588.104C1064.97 588.423 1064.4 588.674 1063.81 588.868C1060.43 590.314 1054.8 588.153 1053.12 585.281C1048.7 577.182 1054.07 567.206 1059.9 561.243C1061.5 559.781 1063.07 557.544 1065.33 557.201C1067.55 557.554 1067.66 560.675 1068.46 562.384C1070.02 567.769 1072.73 576.65 1070.09 582.35C1069.89 582.897 1069.64 583.421 1069.37 583.925C1069.15 584.304 1068.91 584.682 1068.66 585.049C1068.54 585.224 1068.39 585.406 1068.26 585.58C1068.16 585.72 1068.05 585.85 1067.95 585.989L1067.96 585.981Z" fill="#15772C"/>
<path d="M1044.15 590.196C1043.69 590.621 1043.19 590.969 1042.65 591.278C1039.62 593.377 1033.67 592.36 1031.46 589.88C1025.52 582.826 1028.79 571.98 1033.34 564.98C1034.62 563.228 1035.72 560.715 1037.86 559.939C1040.1 559.843 1040.83 562.882 1041.95 564.404C1044.55 569.372 1048.97 577.536 1047.51 583.648C1047.43 584.231 1047.29 584.782 1047.13 585.331C1046.98 585.762 1046.82 586.155 1046.64 586.565C1046.56 586.761 1046.44 586.964 1046.36 587.169C1046.28 587.32 1046.22 587.481 1046.14 587.631C1045.63 588.568 1044.97 589.457 1044.15 590.196Z" fill="#15772C"/>
<path d="M1023.49 599.198C1021.26 602.122 1015.29 603.001 1012.42 601.327C1004.59 596.448 1004.35 585.123 1006.49 577.074C1007.17 575.017 1007.43 572.284 1009.23 570.874C1011.32 570.086 1012.96 572.752 1014.51 573.855C1018.52 577.781 1025.26 584.169 1025.76 590.441C1025.86 591.01 1025.9 591.584 1025.92 592.156C1025.91 592.606 1025.89 593.037 1025.84 593.485C1025.83 593.705 1025.77 593.922 1025.75 594.15C1025.73 594.315 1025.7 594.496 1025.67 594.66C1025.48 595.713 1025.13 596.764 1024.58 597.716C1024.27 598.254 1023.9 598.76 1023.48 599.207L1023.49 599.198Z" fill="#15772C"/>
<path d="M1008.39 610.097C1008.08 613.755 1003.51 617.697 1000.17 617.82C990.941 617.889 984.691 608.453 982.197 600.482C981.668 598.37 980.427 595.928 981.207 593.787C982.56 591.993 985.373 593.377 987.261 593.485C992.751 594.659 1001.86 596.459 1005.64 601.48C1006.04 601.906 1006.37 602.374 1006.68 602.84C1006.92 603.217 1007.13 603.601 1007.33 603.994C1007.44 604.195 1007.51 604.404 1007.62 604.605C1007.7 604.758 1007.76 604.911 1007.83 605.072C1008.23 606.061 1008.5 607.131 1008.55 608.239C1008.58 608.859 1008.52 609.471 1008.42 610.09L1008.39 610.097Z" fill="#15772C"/>
<path d="M997.275 634.199C996.892 634.63 996.448 635.011 995.981 635.344C995.143 635.943 994.21 636.35 993.241 636.617C993.091 636.661 992.932 636.694 992.772 636.728C992.567 636.768 992.36 636.826 992.163 636.875C991.761 636.946 991.352 637.007 990.943 637.049C990.415 637.092 989.872 637.096 989.341 637.056C983.49 637.115 976.991 631.417 973.006 628.028C971.856 626.688 969.247 625.403 969.796 623.391C970.946 621.601 973.458 621.139 975.306 620.323C982.609 617.648 993.116 616.913 998.311 623.764C1000.12 626.286 999.798 631.897 997.283 634.209L997.275 634.199Z" fill="#15772C"/>
<path d="M998.361 656.021C998.193 656.165 998.026 656.308 997.858 656.452C997.506 656.72 997.155 656.988 996.786 657.236C996.311 657.54 995.81 657.833 995.278 658.05C989.809 661.067 980.806 658.99 975.353 657.818C973.591 657.141 970.488 657.254 969.991 655.08C970.165 652.809 972.284 651.093 973.62 649.4C979.13 643.2 988.649 637.187 997.003 641.001C999.975 642.471 1002.52 647.904 1001.3 651.356C1001.15 651.952 1000.95 652.535 1000.67 653.085C1000.18 654.069 999.494 654.929 998.738 655.663C998.61 655.773 998.49 655.893 998.354 655.993L998.361 656.021Z" fill="#15772C"/>
<path d="M1010.8 675.938C1006.67 680.641 997.503 681.737 991.977 682.475C990.102 682.442 987.205 683.593 986.005 681.715C985.408 679.524 986.819 677.201 987.501 675.145C990.574 667.443 997.495 658.561 1006.63 659.324C1009.93 659.695 1014.16 663.949 1014.2 667.598C1014.26 668.211 1014.26 668.828 1014.19 669.439C1014.06 670.525 1013.72 671.567 1013.24 672.525C1013.17 672.675 1013.09 672.826 1013 672.976C1012.88 673.16 1012.78 673.364 1012.67 673.559C1012.44 673.928 1012.2 674.305 1011.94 674.653C1011.59 675.106 1011.22 675.547 1010.8 675.938Z" fill="#15772C"/>
<path d="M1030.5 687.707C1028.57 693.692 1020.54 698.355 1015.74 701.257C1013.99 701.98 1011.78 704.196 1009.92 702.949C1008.5 701.164 1008.87 698.449 1008.67 696.289C1008.45 687.948 1011.27 676.986 1020.02 674.045C1023.21 673.073 1028.8 675.305 1030.31 678.661C1030.62 679.2 1030.86 679.78 1031.03 680.373C1031.35 681.419 1031.44 682.531 1031.39 683.586C1031.39 683.761 1031.37 683.934 1031.34 684.107C1031.32 684.336 1031.31 684.565 1031.28 684.775C1031.21 685.211 1031.14 685.648 1031.04 686.082C1030.89 686.633 1030.73 687.182 1030.49 687.716L1030.5 687.707Z" fill="#15772C"/>
<path d="M1046.46 708.602C1045.24 710.056 1044.34 713.043 1042.11 712.818C1040.01 711.912 1039.07 709.336 1037.9 707.515C1033.8 700.251 1031.19 689.233 1037.55 682.546C1039.91 680.194 1045.92 679.557 1048.8 681.821C1049.33 682.156 1049.8 682.552 1050.24 682.999C1051 683.785 1051.62 684.707 1052.06 685.68C1052.12 685.832 1052.2 685.985 1052.26 686.155C1052.34 686.364 1052.43 686.574 1052.52 686.773C1052.67 687.19 1052.81 687.606 1052.92 688.038C1053.05 688.591 1053.17 689.162 1053.19 689.735C1054.28 695.922 1049.38 703.807 1046.48 708.603L1046.46 708.602Z" fill="#15772C"/>
<path d="M1079.07 699.234C1078.89 701.117 1079.82 704.097 1077.85 705.172C1075.61 705.608 1073.38 704.011 1071.39 703.177C1063.9 699.493 1055.52 691.884 1056.98 682.779C1057.6 679.511 1062.18 675.589 1065.86 675.824C1066.48 675.807 1067.1 675.854 1067.71 675.983C1068.79 676.204 1069.81 676.623 1070.73 677.171C1070.87 677.256 1071.02 677.35 1071.16 677.453C1071.34 677.587 1071.54 677.693 1071.72 677.827C1072.08 678.085 1072.42 678.351 1072.76 678.643C1073.18 679.016 1073.59 679.434 1073.96 679.876C1078.35 684.373 1078.74 693.647 1079.07 699.252L1079.07 699.234Z" fill="#15772C"/>
<path d="M1047.53 669.773C1055.86 668.899 1062.5 662.943 1067.77 656.881C1080.16 640.14 1084.88 619.139 1088.38 599.012C1068.86 599.097 1047.96 597.225 1030.16 606.767C1019.11 612.654 1011.88 624.403 1011.31 636.864C1010.57 644.55 1014.23 651.708 1019.56 657.04C1026.69 664.573 1036.83 670.724 1047.54 669.764L1047.53 669.773ZM1071.97 660.103C1065.85 667.037 1057.95 673.34 1048.53 674.545C1031.81 676.261 1015.12 664.205 1008.1 649.582C1001.66 632.628 1011.13 612.027 1026.64 603.589C1044.1 593.929 1069.92 594.114 1089.28 596.65C1089.67 595.851 1090.29 594.895 1091.14 594.638C1094.48 596.753 1093.5 601.355 1093.03 604.652C1091.9 612.328 1090.2 619.978 1087.86 627.359C1084.08 638.865 1079.62 650.585 1071.97 660.111L1071.97 660.103Z" fill="#15772C"/>
<path d="M1014.6 715.57C1049.67 730.622 1085.09 718.614 1109.02 690.332C1118.61 677.741 1124.2 662.571 1128.96 647.678C1134.33 629.756 1138.64 611.514 1142.44 593.187C1145.57 577.598 1147.93 561.804 1151.63 546.36C1108.82 550.228 1063.83 541.702 1022.78 557.599C998.594 566.259 975.858 582.348 965.269 606.353C951.907 635.082 963.96 667.528 983.211 690.46C991.851 701.027 1002.33 709.984 1014.61 715.562L1014.6 715.57ZM995.89 801.529C989.552 814.119 971.458 813.41 962.741 803.85C959.458 799.825 958.683 794.057 960.353 789.185C958.832 793.074 953.062 793.748 949.288 793.736C949.288 793.736 949.288 793.736 949.26 793.743C949.26 793.743 949.242 793.741 949.224 793.74C949.224 793.74 949.214 793.748 949.195 793.747C943.026 793.396 935.943 791.382 932.067 786.307C930.428 783.659 930.732 779.908 932.632 777.456C934.788 774.905 938.544 774.676 941.634 775.087C948.346 775.931 959.396 780.614 960.668 787.957C960.626 788.267 960.558 788.547 960.473 788.826C960.9 787.689 961.463 786.59 962.156 785.584C964.658 782 968.203 778.496 972.841 778.417C981.26 778.001 992.309 786.57 986.836 795.424C984.845 799.304 980.515 802.114 976.084 801.297C974.894 800.966 973.919 799.99 973.51 798.835C973.918 798.553 974.439 798.363 974.904 798.186C977.231 797.609 979.392 798.133 981.162 796.169C985.187 791.09 982.045 785.215 976.195 783.682C970.343 781.587 965.913 787.75 965.115 792.9C964.516 797.366 966.738 802.029 970.849 804.027C976.048 806.956 983.233 807.035 987.802 802.909C993.252 796.162 991.916 787.009 990.074 779.181C989.251 776.089 987.548 773.307 985.923 770.595C985.497 769.541 983.583 767.471 982.673 765.771C982.497 765.546 982.312 765.311 982.146 765.077C978.514 759.708 975.95 753.252 976.802 746.669C977.428 738.108 980.588 730.008 987.141 724.247C991.609 720.481 997.004 716.741 1002.82 715.463C994.428 710.449 986.787 703.798 980.11 695.619C971.982 686.306 965.037 675.363 960.371 663.645C959.502 665.982 958.096 668.112 956.689 669.901C950.042 678.205 940.722 684.27 930.129 685.662C918.274 687.298 904.861 683.411 898.038 673.047C897.268 671.911 896.583 670.754 895.999 669.595C881.544 657.655 856.989 677.666 873.4 692.325C876.997 694.781 881.57 693.372 884.819 690.977C889.719 687.217 888.658 679.522 883.522 676.487C882.36 675.671 880.983 676.34 879.806 676.682C877.602 677.324 876.491 679.339 874.754 680.624C874.458 680.878 874.085 681.301 873.654 681.277C873.25 681.264 872.839 680.984 872.546 680.723C870.644 678.865 871.74 675.717 873.559 674.208C876.434 671.757 880.772 670.173 884.482 671.386C891.048 674.272 894.818 682.533 892.156 689.3C889.52 696.096 881.246 699.912 874.285 698.22C870.28 697.261 867.202 694.153 865.105 690.752C855.161 673.623 877.552 654.459 893.835 663.565C889.8 645.625 905.935 627.604 925.863 631.427C933.641 633.135 938.868 641.02 939.79 648.594C941.168 658.772 932.486 669.011 921.955 667.424C910.319 665.827 903.221 652.551 913.941 644.549C917.544 642.467 924.834 641.891 927.067 646.168C927.594 647.461 927.509 649.056 926.304 649.885C926.249 649.881 926.187 649.848 926.142 649.836C924.486 649.7 923.248 648.556 921.697 648.244C917.332 647.405 914.025 651.047 914.019 655.226C915.84 663.09 926.82 665.558 931.493 658.743C935.212 654.045 935.151 647.375 932.42 642.259C927.49 633.025 914.812 635.197 907.765 640.662C896.725 648.511 896.075 664.74 905.284 674.254C913.128 682.219 925.866 682.648 935.889 679.076C942.62 676.414 948.149 671.652 952.687 666.115C954.878 663.345 956.861 660.292 957.535 656.771C957.596 656.564 957.648 656.366 957.727 656.178C952.79 640.039 952.39 622.846 959.181 606.736C968.606 583.507 989.084 566.361 1011.97 557.059C1037.47 545.407 1065.67 542.827 1093.38 542.935C1107.53 542.8 1121.67 543.189 1135.82 543.312C1140.23 543.326 1144.67 543.279 1149.06 543.466C1150.4 543.633 1152.14 543.251 1153.1 544.382C1155.24 542.336 1156.76 545.362 1156.74 547.395C1155.87 553.672 1154.4 559.895 1153.35 566.168C1151.7 575.212 1150.21 584.296 1148.44 593.323C1145.75 607.021 1142.43 620.605 1138.97 634.125C1134.81 649.994 1130.19 665.901 1122.43 680.446C1109.67 704.303 1085.35 722.04 1058.44 725.795C1040.55 728.49 1023.54 725.958 1008.6 718.611C1006.91 718.897 1005.2 719.134 1003.62 719.87C994.748 723.741 986.643 730.764 983.728 740.246C980.558 749.93 982.377 758.549 989.629 765.824C996.571 773.314 1007.42 778.921 1017.61 775.464C1032.53 769.964 1029.69 749.611 1016.88 743.348C1010.6 740.337 1002.75 745.906 1003.27 752.768C1004.57 762.158 1016.89 759.968 1011.59 750.568C1010.97 749.149 1011.41 748.225 1012.87 747.747C1016.25 746.624 1019.09 750.036 1019.25 753.187C1019.48 769.603 998.01 768.452 996.866 753.164C996.25 744.95 1003.35 736.993 1011.61 736.832C1018.86 736.483 1025.07 741.396 1028.94 747.142C1033.96 754.127 1035.14 763.995 1030.56 771.489C1025.09 781.449 1012.16 783.509 1002.09 780.209C999.956 779.511 997.891 778.58 995.921 777.482C996.741 779.653 997.297 781.896 997.542 784.115C998.275 789.953 998.837 796.211 995.87 801.546L995.89 801.529Z" fill="#15772C"/>
<path d="M963.236 758.551C964.462 763.469 958.609 766.696 954.745 768.215C948.894 770.208 941.578 770.994 936.108 767.75C933.588 765.909 932.472 762.316 933.307 759.342C934.341 756.161 937.743 754.543 940.757 753.769C947.298 752.04 959.299 752.229 963.234 758.569L963.236 758.551Z" fill="#15772C"/>
<path d="M943.498 736.569C939.175 740.981 932.996 744.966 926.641 744.517C923.567 744.006 920.948 741.293 920.351 738.264C919.847 734.966 922.156 731.975 924.504 729.926C929.561 725.433 940.364 720.217 946.743 724.102C950.04 727.944 946.287 733.44 943.519 736.534L943.5 736.551L943.498 736.569Z" fill="#15772C"/>
<path d="M924.578 713.984C923.551 720.083 920.753 726.95 915.244 730.24C912.427 731.563 908.734 730.848 906.515 728.681C904.224 726.25 904.419 722.49 905.183 719.473C906.78 712.901 912.671 702.44 920.134 702.006C925 703.271 925.077 709.86 924.588 713.975L924.578 713.984Z" fill="#15772C"/>
<path d="M897.269 724.146C895.151 726.442 891.46 727.146 888.594 725.979C885.56 724.596 884.313 721.03 883.904 717.942C882.923 711.256 884.458 699.348 891.203 696.144C896.234 695.487 898.773 701.675 899.848 705.679C901.174 711.71 901.119 719.062 897.269 724.146Z" fill="#15772C"/>
<path d="M878.284 726.267C877.132 729.171 873.942 731.156 870.844 731.094C867.518 730.886 865.077 728.002 863.581 725.282C860.256 719.394 857.427 707.724 862.572 702.316C866.991 699.91 871.553 704.686 874.005 708.023C877.423 713.182 880.062 720.105 878.275 726.257L878.284 726.267Z" fill="#15772C"/>
<path d="M861.921 734.391C862.628 737.429 861.141 740.878 858.56 742.596C855.703 744.33 852.067 743.344 849.273 741.961C843.19 739.02 834.205 731.042 835.357 723.672C837.616 719.167 844.098 720.5 848.027 721.849C853.781 724.148 859.88 728.324 861.921 734.391Z" fill="#15772C"/>
<path d="M852.137 759.534C850.137 762.208 846.392 762.668 843.298 762.432C836.546 761.981 825.233 757.968 823.532 750.703C823.94 745.716 830.368 744.494 834.501 744.266C834.519 744.268 834.538 744.269 834.566 744.262C840.765 744.229 848 745.822 852.187 750.68C853.981 753.23 853.896 756.998 852.145 759.544L852.137 759.534Z" fill="#15772C"/>
<path d="M852.257 777.259C851.511 780.517 848.271 782.442 845.346 783.48C838.991 785.803 827.027 786.695 822.519 780.743C820.867 775.967 826.374 772.217 830.061 770.353C835.704 767.837 842.941 766.383 848.698 769.124C851.375 770.728 852.822 774.208 852.249 777.249L852.257 777.259Z" fill="#15772C"/>
<path d="M856.795 801.406C852.148 806.318 841.836 812.464 835.156 809.146C831.522 805.609 834.801 799.801 837.274 796.482L837.293 796.465C841.211 791.7 847.025 787.19 853.395 787.078C856.508 787.316 859.348 789.788 860.208 792.764C860.991 796.009 858.954 799.177 856.793 801.425L856.795 801.406Z" fill="#15772C"/>
<path d="M874.064 814.731C871.274 820.889 863.556 830.078 856.143 829.135C851.565 826.99 852.747 820.432 854.005 816.496C853.984 816.531 853.981 816.568 853.96 816.603L854.017 816.451C856.171 810.667 860.177 804.509 866.165 802.296C869.181 801.505 872.674 802.904 874.46 805.443C876.261 808.26 875.375 811.912 874.072 814.741L874.064 814.731Z" fill="#15772C"/>
<path d="M895.978 816.405C897.201 823.054 896.086 835.012 889.461 838.456C884.489 839.301 881.718 833.261 880.492 829.301C878.942 823.308 878.714 815.925 882.391 810.7C884.423 808.323 888.087 807.488 890.998 808.548C894.077 809.824 895.448 813.335 895.978 816.405Z" fill="#15772C"/>
<path d="M918.249 831.989C913.94 834.643 909.105 830.066 906.487 826.856L906.462 826.826C902.799 821.86 899.832 815.133 901.273 808.918C902.263 805.964 905.347 803.796 908.448 803.702C911.779 803.735 914.368 806.474 916.008 809.122C919.633 814.822 923.091 826.328 918.239 831.997L918.249 831.989Z" fill="#15772C"/>
<path d="M941.719 816.894C938.296 820.601 932.419 817.501 929.028 815.124C924.144 811.326 919.451 805.618 919.174 799.235C919.347 796.127 921.724 793.215 924.676 792.289C927.901 791.421 931.121 793.38 933.419 795.479C938.442 799.997 944.858 810.145 941.718 816.912L941.719 816.894Z" fill="#15772C"/>
<path d="M869.738 789.873C887.502 807.204 918.123 798.309 923.968 774.319C930.203 750.304 907.701 728.109 883.86 734.658C859.473 741.129 851.502 772.571 869.72 789.872L869.738 789.873ZM926.596 781.747C915.502 807.316 880.287 811.736 863.111 789.846C846.425 769.127 856.894 737.406 882.562 730.674C912.712 722.405 939.279 753.225 926.578 781.746L926.596 781.747Z" fill="#15772C"/>
<path d="M901.862 779.14C902.443 778.642 902.999 778.113 903.53 777.555C904.003 777.03 904.44 776.483 904.843 775.915C905.207 775.363 905.545 774.8 905.856 774.225C906.14 773.639 906.415 773.043 906.656 772.426C906.868 771.816 907.052 771.213 907.21 770.599C907.353 769.929 907.468 769.266 907.538 768.59C907.588 767.93 907.62 767.27 907.616 766.607C907.593 765.942 907.524 765.283 907.426 764.631C907.304 763.931 907.146 763.229 907.024 762.786C907.002 762.702 906.971 762.626 906.942 762.532C906.734 761.871 906.479 761.235 906.205 760.597C905.888 759.928 905.533 759.275 905.196 758.743C904.966 758.376 904.773 758.011 904.591 757.62C904.56 757.544 904.529 757.468 904.498 757.392C904.474 757.344 904.452 757.278 904.436 757.239C904.377 757.051 904.318 756.862 904.258 756.673C904.154 756.592 904.06 756.502 903.965 756.412C903.19 755.708 902.515 754.902 901.731 754.206C901.264 753.802 900.778 753.415 900.271 753.064C899.685 752.66 899.088 752.283 898.459 751.949C898.406 751.927 898.371 751.906 898.327 751.875C898.327 751.875 898.327 751.875 898.319 751.865C898.031 751.769 897.742 751.692 897.445 751.605C897.121 751.507 896.778 751.425 896.452 751.345C895.792 751.193 895.128 751.078 894.471 751.01L894.434 751.007C893.52 750.919 892.61 750.895 891.698 750.908C890.849 750.936 889.987 751.008 889.148 751.146C888.513 751.264 887.876 751.399 887.255 751.573C886.623 751.773 885.99 751.992 885.38 752.258C884.817 752.519 884.268 752.836 883.745 753.165C883.03 753.607 882.349 754.089 881.749 754.587C881.227 755.035 880.73 755.513 880.259 756.02C879.776 756.554 879.32 757.099 878.908 757.675C878.525 758.226 878.188 758.79 877.867 759.373C877.857 759.381 877.846 759.408 877.844 759.426C877.531 760.038 877.262 760.662 877.01 761.305C876.777 761.951 876.589 762.608 876.427 763.277C876.315 763.784 876.23 764.284 876.173 764.796C876.118 765.39 876.1 765.987 876.101 766.585C876.131 767.278 876.207 767.965 876.294 768.644C876.436 769.428 876.597 770.214 876.824 770.977C877.046 771.694 877.305 772.395 877.603 773.081C877.912 773.74 878.25 774.373 878.626 774.991C879.038 775.63 879.479 776.244 879.958 776.842C880.423 777.384 880.928 777.892 881.442 778.392C881.986 778.866 882.541 779.314 883.107 779.734C883.712 780.14 884.336 780.528 884.982 780.863C885.55 781.145 886.129 781.401 886.719 781.631C887.321 781.833 887.932 782.027 888.538 782.174C889.245 782.321 889.953 782.448 890.674 782.531C891.333 782.581 891.994 782.613 892.657 782.609C893.331 782.577 894.009 782.509 894.687 782.423C895.331 782.316 895.969 782.162 896.59 781.988C897.288 781.765 897.979 781.514 898.665 781.217C899.152 780.987 899.614 780.727 900.077 780.45C900.706 780.047 901.3 779.622 901.879 779.16L901.862 779.14ZM910.895 778.403C908.886 781.684 906.019 784.384 902.614 786.177C898.892 788.139 894.645 789.132 890.437 788.774C887.519 788.523 884.764 787.705 882.166 786.393C879.759 785.123 877.588 783.41 875.821 781.351C874.798 780.159 873.904 778.838 873.192 777.431C871.551 774.202 870.632 770.56 870.882 766.924C871.103 763.792 871.754 760.683 873.158 757.853C874.52 755.094 876.417 752.679 878.521 750.924C879.368 750.197 880.273 749.557 881.221 748.967C881.944 748.534 882.709 748.169 883.472 747.822L883.538 747.8C884.215 747.492 884.928 747.206 885.627 746.965C885.76 746.919 885.892 746.874 886.025 746.829C886.195 746.769 886.384 746.709 886.562 746.658C886.789 746.584 887.014 746.527 887.24 746.471C887.296 746.457 887.342 746.451 887.38 746.436C887.634 746.372 887.877 746.317 888.121 746.262C888.375 746.198 888.627 746.153 888.879 746.108L888.935 746.094C889.187 746.049 889.447 746.013 889.7 745.968C889.918 745.883 890.135 745.817 890.36 745.761C890.463 745.741 890.575 745.713 890.678 745.693C890.781 745.673 890.902 745.655 891.013 745.645C891.246 745.616 891.486 745.598 891.699 745.587C891.893 745.574 892.096 745.571 892.289 745.576C892.437 745.569 892.575 745.571 892.721 745.582C892.868 745.593 893.006 745.594 893.152 745.606C893.978 745.65 894.806 745.778 895.62 745.969L895.63 745.96C895.703 745.966 895.758 745.97 895.821 745.984C895.958 746.004 896.094 746.023 896.223 746.033C896.377 746.054 896.541 746.085 896.704 746.116C897.541 746.254 898.355 746.445 899.175 746.682C899.418 746.747 899.66 746.83 899.903 746.913C899.983 746.946 900.065 746.962 900.1 746.983C901.059 747.323 901.969 747.706 902.864 748.17C904.901 749.228 906.798 750.662 908.354 752.355C908.591 752.631 908.819 752.897 909.056 753.173C909.115 753.242 909.183 753.32 909.24 753.408C909.34 753.544 909.449 753.691 909.548 753.846C909.622 753.952 909.689 754.05 909.753 754.165L909.77 754.185C909.77 754.185 909.779 754.195 909.787 754.204C910.001 754.414 910.204 754.651 910.397 754.896C910.892 755.532 911.285 756.289 911.645 757.007C911.724 757.179 911.813 757.342 911.892 757.514C911.971 757.686 912.05 757.858 912.12 758.019C912.183 758.153 912.238 758.277 912.292 758.419C912.387 758.629 912.471 758.847 912.557 759.047C912.574 759.067 912.571 759.104 912.588 759.123L912.704 759.417C913.409 761.276 913.847 763.261 913.999 765.252C914.357 769.837 913.284 774.488 910.876 778.42L910.895 778.403Z" fill="#15772C"/>
<path d="M1315.75 427.947C1314.08 429.514 1311.35 429.361 1309.2 429.713C1300.9 430.608 1289.76 428.643 1286.13 420.171C1284.91 417.077 1286.69 411.31 1289.92 409.55C1290.43 409.193 1290.98 408.912 1291.56 408.69C1292.58 408.289 1293.67 408.105 1294.74 408.077C1294.92 408.062 1295.08 408.075 1295.26 408.079C1295.48 408.096 1295.71 408.086 1295.92 408.093C1296.37 408.118 1296.8 408.16 1297.25 408.222C1297.81 408.32 1298.38 408.446 1298.92 408.635C1305.03 410.077 1310.33 417.71 1313.6 422.278C1314.45 423.963 1316.84 425.986 1315.75 427.947Z" fill="#15772C"/>
<path d="M1330.92 401.307C1329.83 403.305 1327.17 404.013 1325.24 405.017C1317.63 408.432 1306.42 410.026 1300.34 403.098C1298.22 400.523 1298.13 394.495 1300.66 391.825C1301.05 391.339 1301.48 390.884 1301.97 390.497C1302.82 389.798 1303.8 389.284 1304.8 388.919C1304.96 388.866 1305.12 388.814 1305.29 388.772C1305.51 388.705 1305.72 388.629 1305.93 388.581C1306.36 388.475 1306.8 388.371 1307.23 388.293C1307.79 388.207 1308.37 388.15 1308.95 388.167C1315.21 387.651 1322.61 393.261 1327.13 396.589C1328.46 397.925 1331.35 399.103 1330.92 401.307Z" fill="#15772C"/>
<path d="M1337.78 374.559C1337.11 376.745 1334.65 377.947 1332.97 379.31C1326.19 384.169 1315.51 387.958 1308.18 382.362C1305.59 380.268 1304.3 374.378 1306.25 371.249C1306.53 370.7 1306.87 370.173 1307.26 369.697C1307.97 368.849 1308.82 368.158 1309.74 367.593C1309.88 367.503 1310.03 367.422 1310.19 367.342C1310.39 367.238 1310.58 367.123 1310.77 367.028C1311.18 366.837 1311.58 366.647 1311.99 366.494C1312.53 366.305 1313.09 366.136 1313.65 366.032C1319.69 364.283 1328.05 368.319 1333.14 370.677C1334.71 371.737 1337.78 372.321 1337.78 374.559Z" fill="#15772C"/>
<path d="M1342.36 350.823C1341.69 353.009 1339.23 354.212 1337.54 355.575C1330.76 360.434 1320.09 364.223 1312.75 358.627C1310.17 356.533 1308.87 350.633 1310.83 347.514C1311.1 346.955 1311.44 346.438 1311.84 345.962C1312.53 345.112 1313.38 344.413 1314.3 343.848C1314.45 343.758 1314.6 343.677 1314.75 343.597C1314.96 343.492 1315.15 343.378 1315.34 343.282C1315.74 343.092 1316.15 342.912 1316.56 342.749C1317.09 342.551 1317.65 342.391 1318.22 342.287C1324.25 340.528 1332.62 344.574 1337.7 346.932C1339.27 347.982 1342.35 348.576 1342.35 350.814L1342.36 350.823Z" fill="#15772C"/>
<path d="M1335.74 321.931C1332.6 329.666 1325.6 338.568 1316.42 337.757C1313.11 337.376 1308.87 333.075 1308.85 329.399C1308.79 328.787 1308.8 328.161 1308.87 327.55C1309.01 326.456 1309.37 325.415 1309.85 324.457C1309.92 324.306 1310 324.156 1310.09 324.006C1310.21 323.822 1310.31 323.617 1310.41 323.423C1310.65 323.046 1310.89 322.668 1311.16 322.32C1311.51 321.868 1311.9 321.428 1312.32 321.036C1316.49 316.328 1325.71 315.273 1331.27 314.538C1333.17 314.59 1336.08 313.441 1337.28 315.337C1337.88 317.546 1336.44 319.876 1335.75 321.933L1335.74 321.931Z" fill="#15772C"/>
<path d="M1303.11 332.064C1302.43 332.886 1301.61 333.625 1300.65 334.177C1300.12 334.496 1299.56 334.757 1298.96 334.942C1295.59 336.397 1289.95 334.226 1288.27 331.354C1283.85 323.255 1289.22 313.279 1295.05 307.316C1296.65 305.854 1298.22 303.617 1300.48 303.274C1302.7 303.627 1302.81 306.748 1303.6 308.465C1305.16 313.851 1307.88 322.741 1305.23 328.432C1305.03 328.978 1304.79 329.512 1304.51 330.007C1304.29 330.386 1304.05 330.763 1303.8 331.131C1303.67 331.314 1303.53 331.487 1303.4 331.662C1303.3 331.801 1303.2 331.941 1303.09 332.071L1303.11 332.064Z" fill="#15772C"/>
<path d="M1278.96 332.981C1278.28 333.803 1277.45 334.542 1276.5 335.104C1275.97 335.423 1275.4 335.674 1274.81 335.868C1271.43 337.314 1265.8 335.153 1264.12 332.281C1259.7 324.182 1265.07 314.206 1270.9 308.243C1272.5 306.781 1274.07 304.544 1276.33 304.201C1278.55 304.554 1278.66 307.675 1279.46 309.384C1281.02 314.769 1283.73 323.65 1281.09 329.35C1280.89 329.897 1280.64 330.421 1280.37 330.925C1280.15 331.304 1279.91 331.682 1279.66 332.049C1279.54 332.224 1279.39 332.406 1279.26 332.58C1279.16 332.72 1279.05 332.85 1278.95 332.989L1278.96 332.981Z" fill="#15772C"/>
<path d="M1255.15 337.196C1254.69 337.621 1254.19 337.969 1253.65 338.278C1250.62 340.377 1244.67 339.36 1242.46 336.88C1236.52 329.826 1239.79 318.98 1244.34 311.98C1245.62 310.228 1246.72 307.715 1248.86 306.939C1251.1 306.843 1251.83 309.882 1252.95 311.404C1255.55 316.372 1259.97 324.536 1258.51 330.648C1258.43 331.231 1258.29 331.782 1258.13 332.331C1257.98 332.762 1257.82 333.155 1257.64 333.565C1257.56 333.761 1257.44 333.964 1257.36 334.169C1257.28 334.32 1257.22 334.481 1257.14 334.631C1256.63 335.568 1255.97 336.457 1255.15 337.196Z" fill="#15772C"/>
<path d="M1234.49 346.198C1232.26 349.122 1226.29 350.001 1223.42 348.327C1215.59 343.448 1215.35 332.123 1217.49 324.074C1218.17 322.017 1218.43 319.284 1220.23 317.874C1222.32 317.086 1223.96 319.752 1225.51 320.855C1229.52 324.781 1236.26 331.169 1236.76 337.441C1236.86 338.01 1236.9 338.584 1236.92 339.156C1236.91 339.606 1236.89 340.037 1236.84 340.485C1236.83 340.705 1236.77 340.922 1236.75 341.15C1236.73 341.315 1236.7 341.496 1236.67 341.66C1236.48 342.713 1236.13 343.764 1235.58 344.716C1235.27 345.254 1234.9 345.76 1234.48 346.207L1234.49 346.198Z" fill="#15772C"/>
<path d="M1219.39 357.097C1219.08 360.755 1214.51 364.697 1211.17 364.82C1201.94 364.889 1195.69 355.453 1193.2 347.482C1192.67 345.37 1191.43 342.928 1192.21 340.787C1193.56 338.993 1196.37 340.377 1198.26 340.485C1203.75 341.659 1212.86 343.459 1216.64 348.48C1217.04 348.906 1217.37 349.374 1217.68 349.84C1217.92 350.217 1218.13 350.601 1218.33 350.994C1218.44 351.195 1218.51 351.404 1218.62 351.605C1218.7 351.758 1218.76 351.911 1218.83 352.072C1219.23 353.061 1219.5 354.131 1219.55 355.239C1219.58 355.859 1219.52 356.471 1219.42 357.09L1219.39 357.097Z" fill="#15772C"/>
<path d="M1208.27 381.199C1207.89 381.63 1207.45 382.011 1206.98 382.344C1206.14 382.943 1205.21 383.35 1204.24 383.617C1204.09 383.661 1203.93 383.694 1203.77 383.728C1203.57 383.768 1203.36 383.826 1203.16 383.875C1202.76 383.946 1202.35 384.007 1201.94 384.049C1201.42 384.092 1200.87 384.096 1200.34 384.056C1194.49 384.115 1187.99 378.417 1184.01 375.028C1182.86 373.688 1180.25 372.403 1180.8 370.391C1181.95 368.601 1184.46 368.139 1186.31 367.323C1193.61 364.648 1204.12 363.913 1209.31 370.764C1211.12 373.286 1210.8 378.897 1208.28 381.209L1208.27 381.199Z" fill="#15772C"/>
<path d="M1209.36 403.021C1209.19 403.165 1209.03 403.308 1208.86 403.452C1208.51 403.72 1208.15 403.988 1207.79 404.236C1207.31 404.54 1206.81 404.833 1206.28 405.05C1200.81 408.067 1191.81 405.99 1186.35 404.818C1184.59 404.141 1181.49 404.254 1180.99 402.08C1181.16 399.809 1183.28 398.093 1184.62 396.4C1190.13 390.2 1199.65 384.187 1208 388.001C1210.98 389.471 1213.52 394.904 1212.3 398.356C1212.15 398.952 1211.95 399.535 1211.67 400.085C1211.18 401.069 1210.49 401.929 1209.74 402.663C1209.61 402.773 1209.49 402.893 1209.35 402.993L1209.36 403.021Z" fill="#15772C"/>
<path d="M1221.8 422.938C1217.67 427.641 1208.5 428.737 1202.98 429.475C1201.1 429.442 1198.21 430.593 1197 428.715C1196.41 426.524 1197.82 424.201 1198.5 422.145C1201.57 414.443 1208.5 405.561 1217.63 406.324C1220.93 406.695 1225.16 410.949 1225.2 414.598C1225.26 415.211 1225.26 415.828 1225.19 416.439C1225.06 417.525 1224.72 418.567 1224.24 419.525C1224.17 419.675 1224.09 419.826 1224 419.976C1223.88 420.16 1223.78 420.364 1223.67 420.559C1223.44 420.928 1223.2 421.305 1222.94 421.653C1222.59 422.106 1222.22 422.547 1221.8 422.938Z" fill="#15772C"/>
<path d="M1241.5 434.707C1239.57 440.692 1231.54 445.355 1226.74 448.257C1224.99 448.98 1222.78 451.196 1220.92 449.949C1219.5 448.164 1219.87 445.449 1219.67 443.289C1219.45 434.948 1222.27 423.986 1231.02 421.045C1234.21 420.073 1239.8 422.305 1241.31 425.661C1241.62 426.2 1241.86 426.78 1242.03 427.373C1242.35 428.419 1242.44 429.531 1242.39 430.586C1242.39 430.761 1242.37 430.934 1242.34 431.107C1242.32 431.336 1242.31 431.565 1242.28 431.775C1242.21 432.211 1242.14 432.648 1242.04 433.082C1241.89 433.633 1241.73 434.182 1241.49 434.716L1241.5 434.707Z" fill="#15772C"/>
<path d="M1257.46 455.602C1256.24 457.056 1255.34 460.043 1253.11 459.818C1251.01 458.912 1250.07 456.336 1248.9 454.515C1244.8 447.251 1242.19 436.233 1248.55 429.546C1250.91 427.194 1256.92 426.557 1259.8 428.821C1260.33 429.156 1260.8 429.552 1261.24 429.999C1262 430.785 1262.62 431.707 1263.06 432.68C1263.12 432.832 1263.2 432.985 1263.26 433.155C1263.34 433.364 1263.43 433.574 1263.52 433.773C1263.67 434.19 1263.81 434.606 1263.92 435.038C1264.05 435.591 1264.17 436.162 1264.19 436.735C1265.28 442.922 1260.38 450.807 1257.48 455.603L1257.46 455.602Z" fill="#15772C"/>
<path d="M1290.07 446.234C1289.89 448.117 1290.82 451.097 1288.85 452.172C1286.61 452.608 1284.38 451.011 1282.39 450.177C1274.9 446.493 1266.52 438.884 1267.98 429.779C1268.6 426.511 1273.18 422.589 1276.86 422.824C1277.48 422.807 1278.1 422.854 1278.71 422.983C1279.79 423.204 1280.81 423.623 1281.73 424.171C1281.87 424.256 1282.02 424.35 1282.16 424.453C1282.34 424.587 1282.54 424.693 1282.72 424.827C1283.08 425.085 1283.42 425.351 1283.76 425.643C1284.18 426.016 1284.59 426.434 1284.96 426.876C1289.35 431.373 1289.74 440.647 1290.07 446.252L1290.07 446.234Z" fill="#15772C"/>
<path d="M1258.53 416.773C1266.86 415.899 1273.5 409.943 1278.77 403.881C1291.16 387.14 1295.88 366.139 1299.38 346.012C1279.86 346.097 1258.96 344.225 1241.16 353.767C1230.11 359.654 1222.88 371.403 1222.31 383.864C1221.57 391.55 1225.23 398.708 1230.56 404.04C1237.69 411.573 1247.83 417.724 1258.54 416.764L1258.53 416.773ZM1282.97 407.103C1276.85 414.037 1268.95 420.34 1259.53 421.545C1242.81 423.261 1226.12 411.205 1219.1 396.582C1212.66 379.628 1222.13 359.027 1237.64 350.589C1255.1 340.929 1280.92 341.114 1300.28 343.65C1300.67 342.851 1301.29 341.895 1302.14 341.638C1305.48 343.753 1304.5 348.355 1304.03 351.652C1302.9 359.328 1301.2 366.978 1298.86 374.359C1295.08 385.865 1290.62 397.585 1282.97 407.111L1282.97 407.103Z" fill="#15772C"/>
<path d="M1225.6 462.57C1260.67 477.622 1296.09 465.614 1320.02 437.332C1329.61 424.741 1335.2 409.571 1339.96 394.678C1345.33 376.756 1349.64 358.514 1353.44 340.187C1356.57 324.598 1358.93 308.804 1362.63 293.36C1319.82 297.228 1274.83 288.702 1233.78 304.599C1209.59 313.259 1186.86 329.348 1176.27 353.353C1162.91 382.082 1174.96 414.528 1194.21 437.46C1202.85 448.027 1213.33 456.984 1225.61 462.562L1225.6 462.57ZM1206.89 548.529C1200.55 561.119 1182.46 560.41 1173.74 550.85C1170.46 546.825 1169.68 541.057 1171.35 536.185C1169.83 540.074 1164.06 540.748 1160.29 540.736C1160.29 540.736 1160.29 540.736 1160.26 540.743C1160.26 540.743 1160.24 540.741 1160.22 540.74C1160.22 540.74 1160.21 540.748 1160.2 540.747C1154.03 540.396 1146.94 538.382 1143.07 533.307C1141.43 530.659 1141.73 526.908 1143.63 524.456C1145.79 521.905 1149.54 521.676 1152.63 522.087C1159.35 522.931 1170.4 527.614 1171.67 534.957C1171.63 535.267 1171.56 535.547 1171.47 535.826C1171.9 534.689 1172.46 533.59 1173.16 532.584C1175.66 529 1179.2 525.496 1183.84 525.417C1192.26 525.001 1203.31 533.57 1197.84 542.424C1195.85 546.304 1191.52 549.114 1187.08 548.297C1185.89 547.966 1184.92 546.99 1184.51 545.835C1184.92 545.553 1185.44 545.363 1185.9 545.186C1188.23 544.609 1190.39 545.133 1192.16 543.169C1196.19 538.09 1193.04 532.215 1187.2 530.682C1181.34 528.587 1176.91 534.75 1176.12 539.9C1175.52 544.366 1177.74 549.029 1181.85 551.027C1187.05 553.956 1194.23 554.035 1198.8 549.909C1204.25 543.162 1202.92 534.009 1201.07 526.181C1200.25 523.089 1198.55 520.307 1196.92 517.595C1196.5 516.541 1194.58 514.471 1193.67 512.771C1193.5 512.546 1193.31 512.311 1193.15 512.077C1189.51 506.708 1186.95 500.252 1187.8 493.669C1188.43 485.108 1191.59 477.008 1198.14 471.247C1202.61 467.481 1208 463.741 1213.82 462.463C1205.43 457.449 1197.79 450.798 1191.11 442.619C1182.98 433.306 1176.04 422.363 1171.37 410.645C1170.5 412.982 1169.1 415.112 1167.69 416.901C1161.04 425.205 1151.72 431.27 1141.13 432.662C1129.27 434.298 1115.86 430.411 1109.04 420.047C1108.27 418.911 1107.58 417.754 1107 416.595C1092.54 404.655 1067.99 424.666 1084.4 439.325C1088 441.781 1092.57 440.372 1095.82 437.977C1100.72 434.217 1099.66 426.522 1094.52 423.487C1093.36 422.671 1091.98 423.34 1090.81 423.682C1088.6 424.324 1087.49 426.339 1085.75 427.624C1085.46 427.878 1085.09 428.301 1084.65 428.277C1084.25 428.264 1083.84 427.984 1083.55 427.723C1081.64 425.865 1082.74 422.717 1084.56 421.208C1087.43 418.757 1091.77 417.173 1095.48 418.386C1102.05 421.272 1105.82 429.533 1103.16 436.3C1100.52 443.096 1092.25 446.912 1085.29 445.22C1081.28 444.261 1078.2 441.153 1076.1 437.752C1066.16 420.623 1088.55 401.459 1104.84 410.565C1100.8 392.625 1116.94 374.604 1136.86 378.427C1144.64 380.135 1149.87 388.02 1150.79 395.594C1152.17 405.772 1143.49 416.011 1132.95 414.424C1121.32 412.827 1114.22 399.551 1124.94 391.549C1128.54 389.467 1135.83 388.891 1138.07 393.168C1138.59 394.461 1138.51 396.056 1137.3 396.885C1137.25 396.881 1137.19 396.848 1137.14 396.836C1135.49 396.7 1134.25 395.556 1132.7 395.244C1128.33 394.405 1125.03 398.047 1125.02 402.226C1126.84 410.09 1137.82 412.558 1142.49 405.743C1146.21 401.045 1146.15 394.375 1143.42 389.259C1138.49 380.025 1125.81 382.197 1118.77 387.662C1107.72 395.511 1107.08 411.74 1116.28 421.254C1124.13 429.219 1136.87 429.648 1146.89 426.076C1153.62 423.414 1159.15 418.652 1163.69 413.115C1165.88 410.345 1167.86 407.292 1168.53 403.771C1168.6 403.564 1168.65 403.366 1168.73 403.178C1163.79 387.039 1163.39 369.846 1170.18 353.736C1179.61 330.507 1200.08 313.361 1222.97 304.059C1248.47 292.407 1276.67 289.827 1304.38 289.935C1318.53 289.8 1332.67 290.189 1346.82 290.312C1351.23 290.326 1355.67 290.279 1360.06 290.466C1361.4 290.633 1363.14 290.251 1364.1 291.382C1366.24 289.336 1367.76 292.362 1367.74 294.395C1366.87 300.672 1365.4 306.895 1364.35 313.168C1362.7 322.212 1361.21 331.296 1359.44 340.323C1356.75 354.021 1353.43 367.605 1349.97 381.125C1345.81 396.994 1341.19 412.901 1333.43 427.446C1320.67 451.303 1296.35 469.04 1269.44 472.795C1251.55 475.49 1234.54 472.958 1219.6 465.611C1217.91 465.897 1216.2 466.134 1214.62 466.87C1205.75 470.741 1197.64 477.764 1194.73 487.246C1191.56 496.93 1193.38 505.549 1200.63 512.824C1207.57 520.314 1218.42 525.921 1228.61 522.464C1243.53 516.964 1240.69 496.611 1227.88 490.348C1221.6 487.337 1213.75 492.906 1214.27 499.768C1215.57 509.158 1227.89 506.968 1222.59 497.568C1221.97 496.149 1222.41 495.225 1223.87 494.747C1227.25 493.624 1230.09 497.036 1230.25 500.187C1230.48 516.603 1209.01 515.452 1207.87 500.164C1207.25 491.95 1214.35 483.993 1222.61 483.832C1229.86 483.483 1236.07 488.396 1239.94 494.142C1244.96 501.127 1246.14 510.995 1241.56 518.489C1236.09 528.449 1223.16 530.509 1213.09 527.209C1210.96 526.511 1208.89 525.58 1206.92 524.482C1207.74 526.653 1208.3 528.896 1208.54 531.115C1209.27 536.953 1209.84 543.211 1206.87 548.546L1206.89 548.529Z" fill="#15772C"/>
<path d="M1174.24 505.551C1175.46 510.469 1169.61 513.696 1165.75 515.215C1159.89 517.208 1152.58 517.994 1147.11 514.75C1144.59 512.909 1143.47 509.316 1144.31 506.342C1145.34 503.161 1148.74 501.543 1151.76 500.769C1158.3 499.04 1170.3 499.229 1174.23 505.569L1174.24 505.551Z" fill="#15772C"/>
<path d="M1154.5 483.569C1150.17 487.981 1144 491.966 1137.64 491.517C1134.57 491.006 1131.95 488.293 1131.35 485.264C1130.85 481.966 1133.16 478.975 1135.5 476.926C1140.56 472.433 1151.36 467.217 1157.74 471.102C1161.04 474.944 1157.29 480.44 1154.52 483.534L1154.5 483.551L1154.5 483.569Z" fill="#15772C"/>
<path d="M1135.58 460.984C1134.55 467.083 1131.75 473.95 1126.24 477.24C1123.43 478.563 1119.73 477.848 1117.51 475.681C1115.22 473.25 1115.42 469.49 1116.18 466.473C1117.78 459.901 1123.67 449.44 1131.13 449.006C1136 450.271 1136.08 456.86 1135.59 460.975L1135.58 460.984Z" fill="#15772C"/>
<path d="M1108.27 471.146C1106.15 473.442 1102.46 474.146 1099.59 472.979C1096.56 471.596 1095.31 468.03 1094.9 464.942C1093.92 458.256 1095.46 446.348 1102.2 443.144C1107.23 442.487 1109.77 448.675 1110.85 452.679C1112.17 458.71 1112.12 466.062 1108.27 471.146Z" fill="#15772C"/>
<path d="M1089.28 473.267C1088.13 476.171 1084.94 478.156 1081.84 478.094C1078.52 477.886 1076.08 475.002 1074.58 472.282C1071.26 466.394 1068.43 454.724 1073.57 449.316C1077.99 446.91 1082.55 451.686 1085 455.023C1088.42 460.182 1091.06 467.105 1089.28 473.257L1089.28 473.267Z" fill="#15772C"/>
<path d="M1072.92 481.391C1073.63 484.429 1072.14 487.878 1069.56 489.596C1066.7 491.33 1063.07 490.344 1060.27 488.961C1054.19 486.02 1045.21 478.042 1046.36 470.672C1048.62 466.167 1055.1 467.5 1059.03 468.849C1064.78 471.148 1070.88 475.324 1072.92 481.391Z" fill="#15772C"/>
<path d="M1063.14 506.534C1061.14 509.208 1057.39 509.668 1054.3 509.432C1047.55 508.981 1036.23 504.968 1034.53 497.703C1034.94 492.716 1041.37 491.494 1045.5 491.266C1045.52 491.268 1045.54 491.269 1045.57 491.262C1051.76 491.229 1059 492.822 1063.19 497.68C1064.98 500.23 1064.9 503.998 1063.15 506.544L1063.14 506.534Z" fill="#15772C"/>
<path d="M1063.26 524.259C1062.51 527.517 1059.27 529.442 1056.35 530.48C1049.99 532.803 1038.03 533.695 1033.52 527.743C1031.87 522.967 1037.37 519.217 1041.06 517.353C1046.7 514.837 1053.94 513.383 1059.7 516.124C1062.37 517.728 1063.82 521.208 1063.25 524.249L1063.26 524.259Z" fill="#15772C"/>
<path d="M1067.79 548.406C1063.15 553.318 1052.84 559.464 1046.16 556.146C1042.52 552.609 1045.8 546.801 1048.27 543.482L1048.29 543.465C1052.21 538.7 1058.02 534.19 1064.4 534.078C1067.51 534.316 1070.35 536.788 1071.21 539.764C1071.99 543.009 1069.95 546.177 1067.79 548.425L1067.79 548.406Z" fill="#15772C"/>
<path d="M1085.06 561.731C1082.27 567.889 1074.56 577.078 1067.14 576.135C1062.56 573.99 1063.75 567.432 1065 563.496C1064.98 563.531 1064.98 563.568 1064.96 563.603L1065.02 563.451C1067.17 557.667 1071.18 551.509 1077.16 549.296C1080.18 548.505 1083.67 549.904 1085.46 552.443C1087.26 555.26 1086.37 558.912 1085.07 561.741L1085.06 561.731Z" fill="#15772C"/>
<path d="M1106.98 563.405C1108.2 570.054 1107.09 582.012 1100.46 585.456C1095.49 586.301 1092.72 580.261 1091.49 576.301C1089.94 570.308 1089.71 562.925 1093.39 557.7C1095.42 555.323 1099.09 554.488 1102 555.548C1105.08 556.824 1106.45 560.335 1106.98 563.405Z" fill="#15772C"/>
<path d="M1129.25 578.989C1124.94 581.643 1120.11 577.066 1117.49 573.856L1117.46 573.826C1113.8 568.86 1110.83 562.133 1112.27 555.918C1113.26 552.964 1116.35 550.796 1119.45 550.702C1122.78 550.735 1125.37 553.474 1127.01 556.122C1130.63 561.822 1134.09 573.328 1129.24 578.997L1129.25 578.989Z" fill="#15772C"/>
<path d="M1152.72 563.894C1149.3 567.601 1143.42 564.501 1140.03 562.124C1135.14 558.326 1130.45 552.618 1130.17 546.235C1130.35 543.127 1132.72 540.215 1135.68 539.289C1138.9 538.421 1142.12 540.38 1144.42 542.479C1149.44 546.997 1155.86 557.145 1152.72 563.912L1152.72 563.894Z" fill="#15772C"/>
<path d="M1080.74 536.873C1098.5 554.204 1129.12 545.309 1134.97 521.319C1141.2 497.304 1118.7 475.109 1094.86 481.658C1070.47 488.129 1062.5 519.571 1080.72 536.872L1080.74 536.873ZM1137.6 528.747C1126.5 554.316 1091.29 558.736 1074.11 536.846C1057.43 516.127 1067.89 484.406 1093.56 477.674C1123.71 469.405 1150.28 500.225 1137.58 528.746L1137.6 528.747Z" fill="#15772C"/>
<path d="M1112.86 526.14C1113.44 525.642 1114 525.113 1114.53 524.555C1115 524.03 1115.44 523.483 1115.84 522.915C1116.21 522.363 1116.54 521.8 1116.86 521.225C1117.14 520.639 1117.42 520.043 1117.66 519.426C1117.87 518.816 1118.05 518.213 1118.21 517.599C1118.35 516.929 1118.47 516.266 1118.54 515.59C1118.59 514.93 1118.62 514.27 1118.62 513.607C1118.59 512.942 1118.52 512.283 1118.43 511.631C1118.3 510.931 1118.15 510.229 1118.02 509.786C1118 509.702 1117.97 509.626 1117.94 509.532C1117.73 508.871 1117.48 508.235 1117.21 507.597C1116.89 506.928 1116.53 506.275 1116.2 505.743C1115.97 505.376 1115.77 505.011 1115.59 504.62C1115.56 504.544 1115.53 504.468 1115.5 504.392C1115.47 504.344 1115.45 504.278 1115.44 504.239C1115.38 504.051 1115.32 503.862 1115.26 503.673C1115.15 503.592 1115.06 503.502 1114.97 503.412C1114.19 502.708 1113.52 501.902 1112.73 501.206C1112.26 500.802 1111.78 500.415 1111.27 500.064C1110.68 499.66 1110.09 499.283 1109.46 498.949C1109.41 498.927 1109.37 498.906 1109.33 498.875C1109.33 498.875 1109.33 498.875 1109.32 498.865C1109.03 498.769 1108.74 498.692 1108.45 498.605C1108.12 498.507 1107.78 498.425 1107.45 498.345C1106.79 498.193 1106.13 498.078 1105.47 498.01L1105.43 498.007C1104.52 497.919 1103.61 497.895 1102.7 497.908C1101.85 497.936 1100.99 498.008 1100.15 498.146C1099.51 498.264 1098.88 498.399 1098.26 498.573C1097.62 498.773 1096.99 498.992 1096.38 499.258C1095.82 499.519 1095.27 499.836 1094.75 500.165C1094.03 500.607 1093.35 501.089 1092.75 501.587C1092.23 502.035 1091.73 502.513 1091.26 503.02C1090.78 503.554 1090.32 504.099 1089.91 504.675C1089.53 505.226 1089.19 505.79 1088.87 506.373C1088.86 506.381 1088.85 506.408 1088.84 506.426C1088.53 507.038 1088.26 507.662 1088.01 508.305C1087.78 508.951 1087.59 509.608 1087.43 510.277C1087.31 510.784 1087.23 511.284 1087.17 511.796C1087.12 512.39 1087.1 512.987 1087.1 513.585C1087.13 514.278 1087.21 514.965 1087.29 515.644C1087.44 516.428 1087.6 517.214 1087.82 517.977C1088.05 518.694 1088.31 519.395 1088.6 520.081C1088.91 520.74 1089.25 521.373 1089.63 521.991C1090.04 522.63 1090.48 523.244 1090.96 523.842C1091.42 524.384 1091.93 524.892 1092.44 525.392C1092.99 525.866 1093.54 526.314 1094.11 526.734C1094.71 527.14 1095.34 527.528 1095.98 527.863C1096.55 528.145 1097.13 528.401 1097.72 528.631C1098.32 528.833 1098.93 529.027 1099.54 529.174C1100.24 529.321 1100.95 529.448 1101.67 529.531C1102.33 529.581 1102.99 529.613 1103.66 529.609C1104.33 529.577 1105.01 529.509 1105.69 529.423C1106.33 529.316 1106.97 529.162 1107.59 528.988C1108.29 528.765 1108.98 528.514 1109.67 528.217C1110.15 527.987 1110.61 527.727 1111.08 527.45C1111.71 527.047 1112.3 526.622 1112.88 526.16L1112.86 526.14ZM1121.9 525.403C1119.89 528.684 1117.02 531.384 1113.61 533.177C1109.89 535.139 1105.64 536.132 1101.44 535.774C1098.52 535.523 1095.76 534.705 1093.17 533.393C1090.76 532.123 1088.59 530.41 1086.82 528.351C1085.8 527.159 1084.9 525.838 1084.19 524.431C1082.55 521.202 1081.63 517.56 1081.88 513.924C1082.1 510.792 1082.75 507.683 1084.16 504.853C1085.52 502.094 1087.42 499.679 1089.52 497.924C1090.37 497.197 1091.27 496.557 1092.22 495.967C1092.94 495.534 1093.71 495.169 1094.47 494.822L1094.54 494.8C1095.22 494.492 1095.93 494.206 1096.63 493.965C1096.76 493.919 1096.89 493.874 1097.02 493.829C1097.19 493.769 1097.38 493.709 1097.56 493.658C1097.79 493.584 1098.01 493.527 1098.24 493.471C1098.3 493.457 1098.34 493.451 1098.38 493.436C1098.63 493.372 1098.88 493.317 1099.12 493.262C1099.37 493.198 1099.63 493.153 1099.88 493.108L1099.93 493.094C1100.19 493.049 1100.45 493.013 1100.7 492.968C1100.92 492.883 1101.13 492.817 1101.36 492.761C1101.46 492.741 1101.58 492.713 1101.68 492.693C1101.78 492.673 1101.9 492.655 1102.01 492.645C1102.25 492.616 1102.49 492.598 1102.7 492.587C1102.89 492.574 1103.1 492.571 1103.29 492.576C1103.44 492.569 1103.57 492.571 1103.72 492.582C1103.87 492.593 1104.01 492.594 1104.15 492.606C1104.98 492.65 1105.81 492.778 1106.62 492.969L1106.63 492.96C1106.7 492.966 1106.76 492.97 1106.82 492.984C1106.96 493.004 1107.09 493.023 1107.22 493.033C1107.38 493.054 1107.54 493.085 1107.7 493.116C1108.54 493.254 1109.35 493.445 1110.17 493.682C1110.42 493.747 1110.66 493.83 1110.9 493.913C1110.98 493.946 1111.06 493.962 1111.1 493.983C1112.06 494.323 1112.97 494.706 1113.86 495.17C1115.9 496.228 1117.8 497.662 1119.35 499.355C1119.59 499.631 1119.82 499.897 1120.06 500.173C1120.11 500.242 1120.18 500.32 1120.24 500.408C1120.34 500.544 1120.45 500.691 1120.55 500.846C1120.62 500.952 1120.69 501.05 1120.75 501.165L1120.77 501.185C1120.77 501.185 1120.78 501.195 1120.79 501.204C1121 501.414 1121.2 501.651 1121.4 501.896C1121.89 502.532 1122.29 503.289 1122.64 504.007C1122.72 504.179 1122.81 504.342 1122.89 504.514C1122.97 504.686 1123.05 504.858 1123.12 505.019C1123.18 505.153 1123.24 505.277 1123.29 505.419C1123.39 505.629 1123.47 505.847 1123.56 506.047C1123.57 506.067 1123.57 506.104 1123.59 506.123L1123.7 506.417C1124.41 508.276 1124.85 510.261 1125 512.252C1125.36 516.837 1124.28 521.488 1121.88 525.42L1121.9 525.403Z" fill="#15772C"/>
</svg>
