<svg width="202" height="291" viewBox="0 0 202 291" fill="none" xmlns="http://www.w3.org/2000/svg">
<g clip-path="url(#clip0_2251_75)">
<path d="M23.1956 121.15C20.9438 112.273 15.1253 81.8591 15.1253 81.8591L12.7273 82.4162C12.7273 82.4162 17.8682 108.056 19.608 116.304C22.5737 130.341 25.5117 131.525 23.1956 121.15ZM115.534 195.595C115.534 195.595 124.527 224.283 123.37 225.946C96.4265 239.493 70.0137 232.131 66.5204 230.868C66.1395 226.469 69.7929 204.25 69.7929 204.25L115.534 195.595Z" fill="#1E1C1D"/>
<path d="M13.9955 101.134L21.3295 95.2374C21.3295 95.2374 20.5016 91.0899 19.9762 89.9449C19.4509 88.7999 16.1813 87.33 16.1813 87.33L16.5764 89.5631C16.5764 89.5631 14.1854 89.4803 14.1706 89.4077C14.1558 89.3352 13.7909 87.7132 13.7909 87.7132C13.7909 87.7132 11.0143 86.4904 11.322 89.1913C9.59546 88.1844 9.12204 90.953 9.56017 91.8128C7.75489 91.1765 8.0292 93.4257 8.43006 94.6098C7.3174 93.9334 7.4959 96.6512 9.32737 98.1149C11.1588 99.5787 13.9955 101.134 13.9955 101.134ZM101.123 233.034C101.86 235.115 102.484 237.166 102.245 237.554C101.731 238.379 82.8803 253.482 82.6966 255.757C82.5128 258.031 86.9717 267.493 88.613 267.285C92.2037 265.9 90.2504 259.126 90.2504 259.126C90.2504 259.126 115.408 244.048 116.405 242.112C117.605 239.792 117.029 233.142 116.156 229.101C110.968 230.798 105.826 232.152 101.123 233.034ZM86.7912 233.974C79.8808 233.541 75.1165 232.856 71.3353 232.172C71.3197 236.225 71.2696 243.424 71.089 244.553C70.8372 246.14 69.5219 277.544 69.8457 278.298C70.1723 279.051 79.365 284.514 81.1482 282.533C82.9288 280.554 78.6031 275.715 78.6031 275.715C78.6031 275.715 85.0279 244.65 85.1612 243.204C85.268 242.075 86.3333 236.397 86.7912 233.974Z" fill="#FFB7A4"/>
<path d="M92.0525 139.349C106.735 136.058 116.798 157.547 116.798 157.547L124.443 152.973C124.443 152.973 136.187 169.492 130.213 177.18C124.241 184.868 115.358 179.995 115.358 179.995C115.358 179.995 119.053 194.117 118.823 195.964C99.4609 206.894 65.8813 206.935 64.1511 204.999C62.1942 189.914 45.7561 147.401 45.7561 147.401C45.7561 147.401 37.6051 135.199 36.8921 134.48C36.1789 133.757 13.6368 104.16 12.5858 102.555C12.6371 101.639 20.1307 94.992 21.8965 94.3192C22.8323 94.6274 42.0826 111.735 43.6719 113.552C45.2614 115.372 51.4989 120.503 51.4989 120.503C51.4989 120.503 80.8428 141.863 92.0525 139.349ZM92.0525 139.349C106.735 136.058 116.798 157.547 116.798 157.547L124.443 152.973C124.443 152.973 136.187 169.492 130.213 177.18C124.241 184.868 115.358 179.995 115.358 179.995C115.358 179.995 119.053 194.117 118.823 195.964C99.4609 206.894 65.8813 206.935 64.1511 204.999C62.1942 189.914 45.7561 147.401 45.7561 147.401C45.7561 147.401 37.6051 135.199 36.8921 134.48C36.1789 133.757 13.6368 104.16 12.5858 102.555C12.6371 101.639 20.1307 94.992 21.8965 94.3192C22.8323 94.6274 42.0826 111.735 43.6719 113.552C45.2614 115.372 51.4989 120.503 51.4989 120.503C51.4989 120.503 80.8428 141.863 92.0525 139.349Z" fill="#FFDCB4"/>
<path d="M114.901 180.387C114.813 180.394 114.718 180.38 114.632 180.333C114.569 180.302 108.117 176.951 102.2 170.542C102.015 170.339 102.027 170.023 102.227 169.838C102.43 169.65 102.743 169.663 102.931 169.865C108.722 176.137 115.024 179.416 115.086 179.447C115.33 179.574 115.427 179.875 115.301 180.119C115.221 180.277 115.067 180.372 114.901 180.387ZM123.559 167.931C123.8 167.8 123.891 167.496 123.759 167.255C122.137 164.278 117.749 157.896 117.564 157.625C117.408 157.398 117.099 157.342 116.874 157.498C116.646 157.654 116.59 157.965 116.746 158.191C116.792 158.258 121.29 164.801 122.885 167.731C122.983 167.91 123.173 168.005 123.365 167.988C123.43 167.982 123.496 167.965 123.559 167.931ZM98.2382 191.001C98.3888 190.772 98.3281 190.465 98.0989 190.311C89.8315 184.805 76.53 173.595 76.3983 173.484C76.1868 173.306 75.8738 173.333 75.6958 173.542C75.5209 173.753 75.548 174.066 75.7566 174.244C75.8914 174.357 89.233 185.604 97.5485 191.14C97.6479 191.206 97.758 191.23 97.868 191.221C98.0118 191.208 98.1502 191.134 98.2382 191.001ZM87.5878 188.948C87.7719 188.745 87.7561 188.431 87.5554 188.247C85.3614 186.238 82.1959 182.46 82.1643 182.423C81.9868 182.211 81.672 182.184 81.4629 182.362C81.2535 182.536 81.2268 182.851 81.4012 183.06C81.5343 183.219 84.6426 186.928 86.886 188.981C86.9911 189.08 87.1283 189.122 87.2637 189.11C87.3821 189.1 87.4995 189.044 87.5878 188.948ZM108.806 238.136C108.747 238.142 108.69 238.138 108.629 238.121C107.906 237.916 105.134 237.986 103.448 238.08C103.174 238.093 102.94 237.883 102.924 237.609C102.909 237.334 103.129 237.117 103.393 237.085C103.84 237.061 107.783 236.85 108.898 237.163C109.163 237.236 109.314 237.51 109.244 237.775C109.185 237.982 109.006 238.119 108.806 238.136ZM77.4338 244.211C77.4028 244.214 77.3684 244.211 77.3341 244.209C74.2406 243.854 72.0959 243.793 72.0759 243.792C71.8025 243.784 71.5838 243.556 71.5912 243.28C71.5987 243.006 71.8298 242.787 72.1032 242.795C72.1232 242.796 74.3079 242.86 77.4473 243.219C77.7201 243.252 77.9148 243.499 77.8844 243.772C77.8567 244.01 77.665 244.191 77.4338 244.211Z" fill="#A1342F" fill-opacity="0.4"/>
<path d="M93.9632 104.766C98.987 116.585 92.2171 120.695 92.2171 120.695C92.2171 120.695 94.1254 136.696 98.0667 143.134C102.008 149.571 109.396 174.747 77.2965 179.873C45.1969 184.997 41.5743 164.192 45.3728 153.953C49.1717 143.716 49.2075 135.107 50.0326 117.565C50.8579 100.026 62.5817 93.803 70.8829 93.0387C79.6012 92.2355 89.7954 94.9583 93.9632 104.766ZM90.6331 260.133C89.6287 261.527 87.8614 261.101 87.8614 261.101L87.8617 261.103C86.3067 258.042 84.0985 255.082 83.0321 255.268C77.7864 256.177 87.043 268.317 89.1833 267.376C91.7917 266.23 91.5012 261.365 90.6331 260.133ZM81.9958 283.233C81.0209 284.477 68.0807 280.162 69.8599 276.888C70.3771 275.937 74.5226 276.956 77.4874 278.68C77.4874 278.68 79.1996 278.077 79.2898 276.361C80.6851 276.922 83.5212 281.294 81.9958 283.233ZM103.658 141.593C103.658 141.593 124.383 126.22 133.045 135.062C142.379 144.587 116.941 157.535 116.941 157.535C116.941 157.535 109.775 144.938 103.658 141.593Z" fill="#3C2F2F"/>
<path d="M126.42 147.56C121.736 151.736 116.63 152.954 115.692 150.81C114.803 148.779 117.131 148.469 118.496 147.167C119.861 145.864 118.913 143.318 120.412 140.423C122.192 136.988 125.795 136.465 127.166 137.045C130.522 138.462 131.102 143.384 126.42 147.56ZM111.473 148.255C112.652 147.959 114.491 147.601 115.199 146.196C115.907 144.791 114.942 142.675 113.634 142.789C112.325 142.902 112.569 146.273 110.076 146.782C109.886 146.827 109.726 146.88 109.595 146.943C109.976 147.399 110.449 147.98 110.746 148.355C110.976 148.349 111.217 148.32 111.473 148.255ZM118.464 139.217C119.35 138.066 118.637 137.145 117.465 138.272C115.889 139.795 117.58 140.364 118.464 139.217ZM110.527 143.697C109.834 142.422 108.705 142.704 109.264 144.233C110.016 146.293 111.22 144.972 110.527 143.697ZM12.7284 82.4164C10.8874 82.3514 10.6176 80.1216 10.5767 79.1904C10.3354 73.5488 15.3909 69.8522 15.3909 69.8522C15.3909 69.8522 13.8941 73.3032 15.771 77.9821C17.1146 81.3263 15.1265 81.8593 15.1265 81.8593C15.1265 81.8593 14.0884 82.3072 12.7284 82.4164ZM135.197 117.47C135.197 117.47 142.158 112.197 143.185 102.982C144.333 104.593 143.804 114.858 135.197 117.47ZM85.273 56.9539C46.3947 54.797 23.563 64.7095 23.6215 66.1392C23.6215 66.1392 74.2879 50.1173 108.586 69.1754C111.806 71.3826 119.501 77.2966 123.267 85.5879C128.971 98.138 126.161 104.405 126.161 104.405C126.161 104.405 132.839 97.0331 125.937 84.1606C147.295 112.814 102.495 128.146 102.495 128.146C99.895 129.221 107.444 129.349 117.948 123.942C112.72 128.5 132.345 122.891 139.857 108.16C147.366 93.4284 134.072 59.661 85.273 56.9539Z" fill="#ECCA19"/>
<path d="M57.643 179.782C57.5273 179.792 57.4083 179.762 57.3051 179.686C56.9926 179.457 49.6873 173.839 55.1469 156.566C60.2694 140.354 59.8882 124.664 59.8832 124.508C59.8765 124.233 60.0922 124.001 60.3644 123.995C60.6394 123.988 60.8684 124.204 60.878 124.479C60.8803 124.637 61.2698 140.489 56.0936 156.868C50.8706 173.396 57.8249 178.831 57.8977 178.884C58.1166 179.05 58.1635 179.361 58.0005 179.58C57.9116 179.701 57.7783 179.77 57.643 179.782ZM87.2222 177.019C87.4485 176.647 92.734 167.796 88.3001 154.292C83.9508 141.042 81.5856 128.985 81.561 128.864C81.5091 128.593 81.2469 128.42 80.9784 128.469C80.7075 128.524 80.5339 128.783 80.5858 129.054C80.6076 129.174 82.9864 141.291 87.3554 154.604C91.6354 167.644 86.428 176.411 86.3731 176.498C86.2314 176.732 86.3034 177.038 86.5375 177.183C86.6333 177.24 86.7376 177.262 86.8419 177.253C86.9914 177.24 87.1347 177.157 87.2222 177.019ZM72.9683 180.83C73.1746 180.653 73.1987 180.341 73.0215 180.132C72.9799 180.079 68.7101 174.703 70.5081 151.597C70.5297 151.322 70.3245 151.084 70.0526 151.062C69.7778 151.038 69.5373 151.246 69.5184 151.52C67.6747 175.214 72.0817 180.566 72.2709 180.782C72.3783 180.906 72.5338 180.964 72.6861 180.951C72.7876 180.942 72.8836 180.902 72.9683 180.83ZM92.568 120.663C92.5604 120.576 91.8001 111.894 90.529 106.171C90.4689 105.903 90.2043 105.736 89.9365 105.793C89.669 105.853 89.4987 106.118 89.5588 106.386C90.8159 112.044 91.5706 120.662 91.5782 120.749C91.6019 121.023 91.8437 121.223 92.1172 121.2C92.3908 121.176 92.5917 120.937 92.568 120.663Z" fill="#1E1C1D"/>
</g>
<defs>
<clipPath id="clip0_2251_75">
<rect width="177.717" height="275" fill="white" transform="translate(0.46875 16.1777) rotate(-4.94878)"/>
</clipPath>
</defs>
</svg>
