<svg width="390" height="529" viewBox="0 0 390 529" fill="none" xmlns="http://www.w3.org/2000/svg">
<path d="M0 6.49993C0 6.49993 57.0644 29.8792 106.73 38.9999C160.05 48.7915 211.069 22.0367 266.407 6.41528C317.541 -8.01927 390 8 390 8V527.5C390 527.5 353.504 497.321 309.196 491C200.49 475.491 125 575.5 0 500V6.49993Z" fill="#67A545"/>
<path d="M182.718 296.555C182.054 297.179 180.966 297.118 180.112 297.258C176.807 297.615 172.368 296.832 170.924 293.459C170.439 292.226 171.146 289.93 172.431 289.229C172.637 289.087 172.854 288.975 173.085 288.887C173.493 288.727 173.927 288.654 174.353 288.642C174.424 288.637 174.489 288.642 174.559 288.643C174.646 288.65 174.738 288.646 174.822 288.649C175.001 288.659 175.172 288.676 175.35 288.7C175.574 288.739 175.801 288.79 176.016 288.865C178.45 289.439 180.561 292.479 181.863 294.298C182.201 294.969 183.151 295.774 182.718 296.555Z" fill="#15772C"/>
<path d="M188.759 285.947C188.324 286.742 187.265 287.024 186.497 287.424C183.468 288.784 179.005 289.419 176.583 286.66C175.737 285.635 175.701 283.234 176.709 282.171C176.863 281.977 177.035 281.796 177.23 281.642C177.57 281.364 177.96 281.159 178.36 281.014C178.423 280.993 178.487 280.972 178.555 280.955C178.641 280.929 178.724 280.898 178.81 280.879C178.978 280.837 179.154 280.795 179.325 280.765C179.547 280.73 179.78 280.708 180.01 280.714C182.505 280.509 185.451 282.743 187.249 284.068C187.78 284.6 188.932 285.069 188.759 285.947Z" fill="#15772C"/>
<path d="M191.493 275.295C191.225 276.166 190.246 276.645 189.574 277.187C186.874 279.123 182.623 280.631 179.703 278.403C178.674 277.569 178.16 275.223 178.937 273.978C179.049 273.759 179.182 273.549 179.34 273.359C179.622 273.022 179.959 272.747 180.324 272.521C180.382 272.486 180.443 272.454 180.504 272.422C180.584 272.38 180.661 272.335 180.737 272.296C180.897 272.221 181.057 272.145 181.223 272.084C181.437 272.009 181.659 271.941 181.882 271.9C184.289 271.204 187.617 272.811 189.642 273.75C190.27 274.172 191.491 274.404 191.493 275.295Z" fill="#15772C"/>
<path d="M193.315 265.844C193.046 266.714 192.068 267.193 191.396 267.736C188.696 269.671 184.445 271.18 181.524 268.951C180.495 268.117 179.978 265.768 180.759 264.526C180.867 264.303 181.004 264.097 181.161 263.908C181.437 263.569 181.777 263.291 182.142 263.066C182.2 263.03 182.261 262.998 182.322 262.966C182.402 262.924 182.479 262.879 182.555 262.841C182.715 262.765 182.878 262.693 183.041 262.629C183.252 262.549 183.477 262.486 183.7 262.444C186.104 261.744 189.435 263.355 191.46 264.294C192.085 264.712 193.31 264.949 193.311 265.84L193.315 265.844Z" fill="#15772C"/>
<path d="M190.677 254.338C189.43 257.418 186.641 260.963 182.984 260.64C181.669 260.488 179.981 258.776 179.971 257.312C179.946 257.068 179.95 256.819 179.98 256.576C180.035 256.14 180.177 255.725 180.367 255.344C180.398 255.284 180.428 255.224 180.465 255.164C180.511 255.091 180.551 255.01 180.593 254.932C180.689 254.782 180.785 254.631 180.891 254.493C181.029 254.313 181.185 254.138 181.351 253.982C183.012 252.107 186.685 251.687 188.9 251.394C189.654 251.415 190.814 250.957 191.292 251.712C191.529 252.592 190.956 253.52 190.685 254.339L190.677 254.338Z" fill="#15772C"/>
<path d="M177.687 258.373C177.416 258.701 177.089 258.995 176.706 259.215C176.494 259.342 176.27 259.445 176.034 259.519C174.691 260.099 172.444 259.234 171.776 258.09C170.017 254.865 172.153 250.893 174.476 248.518C175.114 247.936 175.739 247.045 176.637 246.908C177.521 247.049 177.565 248.292 177.88 248.976C178.501 251.121 179.583 254.661 178.53 256.927C178.451 257.144 178.354 257.357 178.244 257.554C178.156 257.705 178.06 257.855 177.961 258.002C177.907 258.075 177.851 258.144 177.801 258.213C177.761 258.269 177.72 258.324 177.675 258.376L177.687 258.373Z" fill="#15772C"/>
<path d="M168.066 258.738C167.796 259.066 167.469 259.36 167.089 259.584C166.878 259.711 166.65 259.811 166.417 259.888C165.071 260.464 162.827 259.603 162.159 258.46C160.4 255.234 162.536 251.262 164.859 248.887C165.497 248.305 166.122 247.414 167.02 247.278C167.904 247.418 167.948 248.661 168.267 249.342C168.888 251.486 169.967 255.022 168.917 257.293C168.839 257.51 168.738 257.719 168.631 257.92C168.543 258.071 168.447 258.221 168.348 258.367C168.298 258.437 168.238 258.509 168.189 258.579C168.148 258.634 168.103 258.686 168.063 258.742L168.066 258.738Z" fill="#15772C"/>
<path d="M158.586 260.417C158.405 260.586 158.203 260.725 157.989 260.848C156.785 261.684 154.414 261.279 153.532 260.291C151.169 257.482 152.471 253.163 154.282 250.376C154.794 249.678 155.229 248.677 156.081 248.368C156.975 248.33 157.264 249.54 157.709 250.146C158.746 252.124 160.507 255.375 159.925 257.81C159.893 258.042 159.836 258.261 159.772 258.48C159.715 258.651 159.651 258.808 159.58 258.971C159.545 259.049 159.498 259.13 159.466 259.212C159.436 259.272 159.409 259.336 159.379 259.396C159.175 259.769 158.913 260.123 158.586 260.417Z" fill="#15772C"/>
<path d="M150.36 264.002C149.472 265.166 147.095 265.516 145.951 264.849C142.832 262.906 142.736 258.397 143.59 255.191C143.861 254.373 143.963 253.284 144.68 252.723C145.514 252.409 146.167 253.471 146.782 253.91C148.382 255.473 151.063 258.017 151.264 260.514C151.302 260.741 151.321 260.97 151.326 261.197C151.323 261.377 151.314 261.548 151.296 261.727C151.29 261.814 151.269 261.901 151.258 261.991C151.253 262.057 151.24 262.129 151.228 262.194C151.152 262.614 151.013 263.032 150.794 263.412C150.671 263.626 150.524 263.827 150.356 264.005L150.36 264.002Z" fill="#15772C"/>
<path d="M144.348 268.341C144.223 269.798 142.402 271.368 141.074 271.417C137.398 271.444 134.91 267.687 133.916 264.513C133.706 263.672 133.212 262.699 133.522 261.847C134.061 261.132 135.181 261.684 135.933 261.726C138.119 262.194 141.746 262.911 143.25 264.91C143.41 265.08 143.542 265.266 143.667 265.452C143.762 265.602 143.846 265.755 143.925 265.911C143.967 265.991 143.997 266.074 144.039 266.155C144.071 266.216 144.095 266.276 144.124 266.341C144.284 266.734 144.391 267.16 144.409 267.602C144.423 267.848 144.4 268.092 144.36 268.339L144.348 268.341Z" fill="#15772C"/>
<path d="M139.92 277.94C139.768 278.111 139.591 278.263 139.405 278.395C139.072 278.634 138.7 278.796 138.314 278.902C138.254 278.92 138.191 278.933 138.128 278.947C138.046 278.962 137.963 278.986 137.885 279.005C137.725 279.033 137.562 279.058 137.399 279.074C137.189 279.091 136.973 279.093 136.761 279.077C134.431 279.101 131.843 276.832 130.256 275.482C129.798 274.949 128.759 274.437 128.978 273.636C129.436 272.923 130.436 272.739 131.172 272.414C134.081 271.349 138.264 271.056 140.333 273.784C141.052 274.789 140.925 277.023 139.924 277.944L139.92 277.94Z" fill="#15772C"/>
<path d="M140.353 286.629C140.286 286.686 140.22 286.744 140.153 286.801C140.013 286.907 139.873 287.014 139.726 287.113C139.537 287.234 139.337 287.351 139.125 287.437C136.947 288.639 133.362 287.811 131.191 287.345C130.489 287.075 129.254 287.12 129.056 286.254C129.125 285.35 129.969 284.667 130.501 283.992C132.695 281.524 136.485 279.129 139.812 280.648C140.996 281.234 142.008 283.397 141.525 284.772C141.463 285.009 141.383 285.241 141.271 285.46C141.076 285.852 140.804 286.194 140.503 286.487C140.452 286.53 140.405 286.578 140.35 286.618L140.353 286.629Z" fill="#15772C"/>
<path d="M145.306 294.561C143.663 296.433 140.011 296.87 137.811 297.164C137.064 297.15 135.911 297.609 135.433 296.861C135.195 295.989 135.757 295.063 136.028 294.245C137.252 291.178 140.008 287.641 143.648 287.944C144.96 288.092 146.646 289.786 146.66 291.239C146.685 291.483 146.684 291.729 146.655 291.972C146.604 292.405 146.469 292.82 146.279 293.201C146.248 293.261 146.218 293.321 146.181 293.381C146.135 293.454 146.096 293.536 146.053 293.613C145.961 293.76 145.865 293.91 145.759 294.049C145.621 294.229 145.472 294.405 145.306 294.561Z" fill="#15772C"/>
<path d="M153.15 299.247C152.382 301.63 149.186 303.487 147.275 304.643C146.575 304.931 145.697 305.813 144.958 305.317C144.389 304.606 144.537 303.525 144.46 302.665C144.369 299.343 145.494 294.978 148.979 293.807C150.248 293.42 152.475 294.308 153.077 295.645C153.2 295.86 153.296 296.091 153.362 296.327C153.488 296.743 153.527 297.186 153.506 297.606C153.505 297.676 153.496 297.745 153.487 297.814C153.476 297.905 153.473 297.996 153.463 298.08C153.435 298.253 153.407 298.427 153.365 298.6C153.307 298.819 153.243 299.038 153.146 299.251L153.15 299.247Z" fill="#15772C"/>
<path d="M159.507 307.568C159.023 308.147 158.661 309.336 157.773 309.247C156.939 308.886 156.562 307.86 156.097 307.135C154.466 304.242 153.426 299.855 155.958 297.192C156.898 296.255 159.29 296.002 160.438 296.903C160.648 297.037 160.838 297.194 161.011 297.372C161.314 297.685 161.561 298.052 161.736 298.44C161.761 298.5 161.793 298.561 161.817 298.629C161.848 298.712 161.885 298.796 161.919 298.875C161.98 299.041 162.033 299.207 162.079 299.379C162.132 299.599 162.177 299.826 162.189 300.054C162.62 302.518 160.668 305.658 159.514 307.568L159.507 307.568Z" fill="#15772C"/>
<path d="M172.493 303.837C172.421 304.587 172.792 305.774 172.008 306.202C171.115 306.375 170.228 305.74 169.432 305.407C166.45 303.94 163.114 300.91 163.695 297.285C163.941 295.983 165.769 294.422 167.232 294.515C167.478 294.508 167.726 294.527 167.968 294.579C168.397 294.666 168.806 294.833 169.171 295.052C169.227 295.085 169.286 295.123 169.342 295.164C169.415 295.217 169.492 295.26 169.565 295.313C169.708 295.415 169.846 295.521 169.98 295.638C170.149 295.786 170.312 295.953 170.456 296.129C172.204 297.919 172.362 301.613 172.492 303.844L172.493 303.837Z" fill="#15772C"/>
<path d="M159.932 292.105C163.251 291.758 165.896 289.386 167.994 286.972C172.929 280.305 174.806 271.942 176.199 263.928C168.427 263.961 160.103 263.216 153.015 267.016C148.616 269.36 145.736 274.039 145.511 279.001C145.215 282.061 146.673 284.912 148.795 287.035C151.635 290.035 155.672 292.484 159.936 292.102L159.932 292.105ZM169.667 288.255C167.227 291.016 164.08 293.526 160.33 294.006C153.674 294.689 147.027 289.888 144.23 284.065C141.666 277.314 145.438 269.11 151.616 265.75C158.568 261.903 168.85 261.977 176.557 262.987C176.713 262.669 176.959 262.288 177.3 262.186C178.629 263.028 178.24 264.861 178.051 266.174C177.602 269.23 176.926 272.277 175.994 275.216C174.489 279.797 172.71 284.465 169.663 288.258L169.667 288.255Z" fill="#15772C"/>
<path d="M146.818 310.343C160.785 316.337 174.892 311.554 184.419 300.292C188.237 295.279 190.466 289.238 192.359 283.307C194.499 276.17 196.216 268.906 197.726 261.608C198.974 255.4 199.912 249.111 201.386 242.961C184.341 244.501 166.425 241.106 150.077 247.436C140.446 250.885 131.392 257.292 127.175 266.851C121.855 278.291 126.654 291.212 134.32 300.343C137.761 304.551 141.932 308.118 146.822 310.339L146.818 310.343ZM139.369 344.572C136.845 349.586 129.64 349.304 126.169 345.497C124.861 343.894 124.553 341.597 125.218 339.657C124.612 341.206 122.315 341.474 120.812 341.469C120.812 341.469 120.812 341.469 120.8 341.472C120.8 341.472 120.793 341.471 120.786 341.471C120.786 341.471 120.782 341.474 120.775 341.474C118.318 341.334 115.497 340.532 113.954 338.511C113.301 337.457 113.422 335.963 114.179 334.986C115.037 333.97 116.533 333.879 117.763 334.043C120.436 334.379 124.837 336.244 125.343 339.168C125.326 339.291 125.3 339.403 125.265 339.514C125.436 339.061 125.66 338.624 125.936 338.223C126.932 336.796 128.344 335.4 130.191 335.369C133.543 335.203 137.943 338.615 135.764 342.141C134.971 343.687 133.247 344.805 131.482 344.48C131.008 344.348 130.62 343.959 130.457 343.5C130.62 343.387 130.827 343.312 131.012 343.241C131.939 343.012 132.799 343.22 133.504 342.438C135.107 340.416 133.856 338.076 131.526 337.466C129.196 336.631 127.432 339.085 127.114 341.136C126.876 342.915 127.761 344.771 129.397 345.567C131.468 346.734 134.329 346.765 136.148 345.122C138.319 342.435 137.787 338.791 137.053 335.673C136.725 334.442 136.047 333.334 135.4 332.254C135.23 331.834 134.468 331.01 134.106 330.333C134.036 330.244 133.962 330.15 133.896 330.057C132.45 327.919 131.429 325.348 131.768 322.727C132.017 319.317 133.275 316.092 135.885 313.798C137.664 312.298 139.813 310.809 142.128 310.3C138.787 308.303 135.744 305.655 133.085 302.398C129.849 298.689 127.083 294.331 125.225 289.665C124.879 290.596 124.319 291.444 123.759 292.156C121.112 295.463 117.4 297.878 113.182 298.433C108.461 299.084 103.12 297.536 100.403 293.409C100.096 292.957 99.8237 292.496 99.5912 292.035C93.8349 287.28 84.0567 295.249 90.592 301.086C92.0243 302.064 93.8454 301.503 95.1391 300.549C97.0903 299.052 96.6679 295.988 94.6226 294.779C94.1598 294.454 93.6115 294.72 93.1428 294.857C92.2653 295.113 91.8228 295.915 91.131 296.427C91.0133 296.528 90.8648 296.696 90.6932 296.686C90.5323 296.682 90.3685 296.57 90.2518 296.466C89.4943 295.726 89.931 294.472 90.6552 293.871C91.8003 292.896 93.5277 292.265 95.005 292.748C97.6195 293.897 99.1209 297.187 98.0609 299.881C97.011 302.588 93.7162 304.107 90.9444 303.434C89.3494 303.052 88.1239 301.814 87.2887 300.46C83.329 293.638 92.2455 286.007 98.7296 289.633C97.1228 282.489 103.548 275.313 111.483 276.836C114.581 277.516 116.662 280.656 117.029 283.672C117.578 287.725 114.121 291.802 109.927 291.17C105.293 290.534 102.467 285.248 106.736 282.061C108.17 281.232 111.074 281.003 111.963 282.706C112.173 283.22 112.139 283.856 111.659 284.186C111.637 284.184 111.613 284.171 111.595 284.166C110.935 284.112 110.442 283.657 109.824 283.532C108.086 283.198 106.769 284.648 106.767 286.313C107.492 289.444 111.865 290.427 113.725 287.713C115.206 285.843 115.182 283.186 114.095 281.149C112.131 277.472 107.083 278.337 104.277 280.513C99.8802 283.639 99.6215 290.101 103.288 293.89C106.412 297.061 111.484 297.232 115.476 295.81C118.156 294.75 120.358 292.854 122.165 290.649C123.038 289.546 123.827 288.33 124.095 286.928C124.12 286.846 124.141 286.767 124.172 286.692C122.206 280.265 122.047 273.418 124.751 267.003C128.504 257.753 136.659 250.926 145.771 247.221C155.925 242.581 167.157 241.554 178.19 241.597C183.826 241.543 189.457 241.698 195.092 241.747C196.848 241.753 198.616 241.734 200.363 241.808C200.897 241.875 201.591 241.723 201.971 242.173C202.825 241.358 203.43 242.563 203.423 243.373C203.074 245.873 202.489 248.35 202.071 250.848C201.415 254.45 200.82 258.067 200.116 261.662C199.047 267.117 197.721 272.526 196.346 277.91C194.69 284.229 192.85 290.564 189.761 296.355C184.676 305.856 174.993 312.919 164.279 314.414C157.154 315.487 150.382 314.479 144.431 311.554C143.758 311.667 143.076 311.762 142.449 312.055C138.914 313.596 135.687 316.393 134.526 320.169C133.264 324.025 133.988 327.457 136.876 330.354C139.64 333.337 143.961 335.57 148.019 334.193C153.961 332.003 152.83 323.898 147.726 321.404C145.226 320.205 142.101 322.423 142.307 325.155C142.825 328.894 147.731 328.022 145.622 324.279C145.376 323.714 145.551 323.346 146.13 323.156C147.477 322.709 148.608 324.067 148.67 325.322C148.762 331.859 140.213 331.401 139.758 325.313C139.513 322.042 142.339 318.874 145.629 318.809C148.514 318.67 150.99 320.627 152.532 322.915C154.53 325.696 155 329.626 153.174 332.61C150.997 336.576 145.849 337.397 141.839 336.082C140.988 335.805 140.166 335.434 139.382 334.996C139.708 335.861 139.929 336.754 140.027 337.638C140.319 339.963 140.543 342.455 139.361 344.579L139.369 344.572Z" fill="#15772C"/>
<path d="M126.366 327.458C126.854 329.417 124.523 330.702 122.985 331.306C120.655 332.1 117.741 332.413 115.563 331.121C114.56 330.388 114.115 328.957 114.448 327.773C114.86 326.506 116.214 325.862 117.414 325.554C120.019 324.865 124.798 324.941 126.365 327.465L126.366 327.458Z" fill="#15772C"/>
<path d="M118.506 318.705C116.784 320.461 114.324 322.048 111.793 321.87C110.569 321.666 109.526 320.586 109.288 319.38C109.088 318.066 110.007 316.875 110.942 316.059C112.956 314.27 117.258 312.193 119.798 313.74C121.111 315.27 119.617 317.459 118.514 318.691L118.506 318.697L118.506 318.705Z" fill="#15772C"/>
<path d="M110.972 309.711C110.563 312.14 109.448 314.874 107.255 316.184C106.133 316.711 104.663 316.427 103.779 315.563C102.866 314.595 102.944 313.098 103.248 311.897C103.885 309.28 106.23 305.114 109.202 304.941C111.14 305.445 111.171 308.069 110.976 309.708L110.972 309.711Z" fill="#15772C"/>
<path d="M100.097 313.757C99.2534 314.672 97.7838 314.952 96.6423 314.487C95.4341 313.937 94.9375 312.517 94.7747 311.287C94.384 308.625 94.9953 303.883 97.6813 302.607C99.6848 302.345 100.696 304.809 101.124 306.404C101.652 308.805 101.63 311.733 100.097 313.757Z" fill="#15772C"/>
<path d="M92.5368 314.602C92.0782 315.758 90.8079 316.549 89.5742 316.524C88.2496 316.441 87.2776 315.293 86.682 314.21C85.3578 311.865 84.2313 307.218 86.2803 305.064C88.04 304.106 89.8563 306.008 90.8329 307.337C92.1939 309.391 93.2447 312.148 92.5334 314.598L92.5368 314.602Z" fill="#15772C"/>
<path d="M86.021 317.837C86.3026 319.047 85.7101 320.42 84.6826 321.105C83.5446 321.795 82.097 321.402 80.9841 320.852C78.562 319.68 74.9841 316.503 75.4428 313.569C76.3423 311.775 78.9233 312.305 80.4882 312.843C82.7795 313.758 85.2081 315.421 86.021 317.837Z" fill="#15772C"/>
<path d="M82.1247 327.85C81.3285 328.914 79.8369 329.098 78.6048 329.003C75.9163 328.824 71.4112 327.226 70.7338 324.333C70.8964 322.347 73.4561 321.86 75.1019 321.77C75.1092 321.77 75.1165 321.771 75.1277 321.768C77.5963 321.755 80.4773 322.389 82.1445 324.324C82.859 325.339 82.8251 326.84 82.1281 327.854L82.1247 327.85Z" fill="#15772C"/>
<path d="M82.1726 334.908C81.8756 336.205 80.5852 336.972 79.4207 337.385C76.8898 338.31 72.1257 338.665 70.3304 336.295C69.6726 334.393 71.8655 332.9 73.3337 332.158C75.5808 331.156 78.4628 330.577 80.7554 331.668C81.8212 332.307 82.3974 333.693 82.1693 334.904L82.1726 334.908Z" fill="#15772C"/>
<path d="M83.9795 344.524C82.129 346.48 78.0227 348.927 75.3627 347.606C73.9156 346.197 75.2215 343.884 76.206 342.563L76.2138 342.556C77.774 340.659 80.0889 338.863 82.6259 338.818C83.8652 338.913 84.9963 339.897 85.3385 341.082C85.6505 342.374 84.8392 343.636 83.979 344.531L83.9795 344.524Z" fill="#15772C"/>
<path d="M90.8564 349.83C89.7452 352.282 86.672 355.941 83.7199 355.566C81.8968 354.711 82.3675 352.1 82.8685 350.532C82.8601 350.547 82.859 350.561 82.8506 350.575L82.8735 350.515C83.7313 348.211 85.3264 345.759 87.7109 344.878C88.9119 344.563 90.303 345.12 91.0141 346.131C91.7314 347.253 91.3784 348.707 90.8598 349.834L90.8564 349.83Z" fill="#15772C"/>
<path d="M99.5828 350.496C100.07 353.144 99.6258 357.906 96.9876 359.277C95.0076 359.614 93.9043 357.209 93.4161 355.632C92.799 353.245 92.7081 350.305 94.1722 348.224C94.9814 347.278 96.4404 346.946 97.5998 347.368C98.8259 347.876 99.3718 349.274 99.5828 350.496Z" fill="#15772C"/>
<path d="M108.451 356.702C106.735 357.759 104.81 355.936 103.768 354.658L103.758 354.646C102.299 352.669 101.118 349.99 101.691 347.515C102.086 346.339 103.314 345.475 104.549 345.438C105.875 345.451 106.906 346.542 107.559 347.596C109.003 349.866 110.38 354.448 108.447 356.705L108.451 356.702Z" fill="#15772C"/>
<path d="M117.797 350.691C116.434 352.167 114.094 350.933 112.744 349.987C110.799 348.474 108.93 346.201 108.82 343.659C108.889 342.422 109.835 341.262 111.011 340.893C112.295 340.548 113.577 341.328 114.492 342.164C116.493 343.963 119.048 348.004 117.797 350.699L117.797 350.691Z" fill="#15772C"/>
<path d="M89.1336 339.931C96.2073 346.832 108.401 343.29 110.729 333.737C113.212 324.174 104.251 315.336 94.7572 317.944C85.046 320.52 81.872 333.041 89.1263 339.931L89.1336 339.931ZM111.775 336.695C107.357 346.877 93.3344 348.637 86.4946 339.92C79.8501 331.67 84.019 319.038 94.2404 316.357C106.246 313.064 116.826 325.337 111.768 336.695L111.775 336.695Z" fill="#15772C"/>
<path d="M101.926 335.657C102.157 335.459 102.379 335.248 102.59 335.026C102.778 334.817 102.953 334.599 103.113 334.373C103.258 334.153 103.392 333.929 103.516 333.7C103.629 333.466 103.739 333.229 103.835 332.983C103.919 332.741 103.993 332.501 104.055 332.256C104.112 331.989 104.158 331.725 104.186 331.456C104.206 331.193 104.219 330.93 104.217 330.666C104.208 330.401 104.18 330.139 104.141 329.879C104.093 329.601 104.03 329.321 103.981 329.145C103.973 329.111 103.96 329.081 103.949 329.043C103.866 328.78 103.764 328.527 103.655 328.273C103.529 328.007 103.388 327.747 103.254 327.535C103.162 327.388 103.085 327.243 103.013 327.087C103 327.057 102.988 327.027 102.976 326.997C102.966 326.977 102.957 326.951 102.951 326.936C102.927 326.861 102.904 326.786 102.88 326.711C102.839 326.678 102.801 326.642 102.763 326.606C102.455 326.326 102.186 326.005 101.874 325.728C101.688 325.567 101.494 325.413 101.292 325.273C101.059 325.112 100.821 324.962 100.571 324.829C100.55 324.82 100.536 324.812 100.518 324.8C100.518 324.8 100.518 324.8 100.515 324.796C100.4 324.758 100.285 324.727 100.167 324.692C100.038 324.653 99.9012 324.621 99.7716 324.589C99.5086 324.528 99.2445 324.482 98.9826 324.455L98.968 324.454C98.604 324.419 98.2417 324.41 97.8784 324.415C97.5402 324.426 97.197 324.454 96.8628 324.51C96.6099 324.556 96.3565 324.61 96.1093 324.679C95.8575 324.759 95.6052 324.846 95.3625 324.952C95.1382 325.056 94.9196 325.183 94.7116 325.313C94.4268 325.49 94.1555 325.682 93.9167 325.88C93.7088 326.058 93.5109 326.248 93.3232 326.45C93.131 326.663 92.9494 326.88 92.7852 327.11C92.6328 327.329 92.4984 327.553 92.3706 327.786C92.3667 327.789 92.3622 327.8 92.3617 327.807C92.2368 328.05 92.1298 328.299 92.0296 328.555C91.9366 328.812 91.8616 329.074 91.7973 329.34C91.7526 329.542 91.719 329.741 91.6962 329.945C91.6744 330.182 91.6673 330.419 91.6674 330.658C91.6793 330.934 91.7098 331.207 91.7442 331.477C91.801 331.79 91.8651 332.103 91.9555 332.407C92.0437 332.692 92.1471 332.971 92.2656 333.244C92.3885 333.507 92.5233 333.759 92.6731 334.005C92.837 334.259 93.0127 334.504 93.2035 334.742C93.3887 334.958 93.5896 335.16 93.7944 335.359C94.0109 335.548 94.232 335.726 94.4575 335.894C94.6982 336.055 94.9467 336.21 95.2042 336.343C95.4302 336.456 95.6608 336.558 95.8958 336.649C96.1353 336.729 96.3787 336.807 96.6199 336.865C96.9014 336.924 97.1835 336.974 97.4707 337.007C97.7331 337.027 97.9961 337.04 98.2603 337.038C98.5289 337.026 98.7986 336.999 99.0689 336.964C99.3251 336.922 99.5791 336.86 99.8264 336.791C100.104 336.702 100.38 336.602 100.653 336.484C100.847 336.392 101.031 336.289 101.215 336.179C101.466 336.018 101.702 335.849 101.933 335.665L101.926 335.657ZM105.523 335.364C104.723 336.67 103.581 337.745 102.225 338.459C100.743 339.241 99.0519 339.636 97.3762 339.493C96.2142 339.394 95.1172 339.068 94.0828 338.545C93.1241 338.039 92.2595 337.358 91.5559 336.538C91.1485 336.063 90.7926 335.537 90.5091 334.976C89.8556 333.691 89.4897 332.24 89.5892 330.792C89.6771 329.545 89.9366 328.307 90.4956 327.18C91.0378 326.082 91.7932 325.12 92.6311 324.421C92.9686 324.132 93.329 323.877 93.7063 323.642C93.9944 323.469 94.2988 323.324 94.6027 323.186L94.629 323.177C94.8987 323.054 95.1824 322.94 95.461 322.844C95.5137 322.826 95.5664 322.808 95.6191 322.79C95.687 322.766 95.7621 322.743 95.8333 322.722C95.9236 322.693 96.0133 322.67 96.103 322.648C96.1255 322.642 96.144 322.64 96.1591 322.634C96.26 322.608 96.357 322.586 96.454 322.565C96.5549 322.539 96.6553 322.521 96.7557 322.503L96.7781 322.498C96.8785 322.48 96.9822 322.466 97.0826 322.448C97.1695 322.414 97.2558 322.387 97.3455 322.365C97.3865 322.357 97.4313 322.346 97.4723 322.338C97.5132 322.33 97.5614 322.323 97.6057 322.319C97.6982 322.308 97.7941 322.3 97.8788 322.296C97.9562 322.291 98.0369 322.289 98.1138 322.292C98.1726 322.289 98.2276 322.289 98.2859 322.294C98.3443 322.298 98.3992 322.299 98.4575 322.303C98.7862 322.321 99.1159 322.372 99.4401 322.448L99.444 322.444C99.4732 322.447 99.4951 322.448 99.5203 322.454C99.5747 322.462 99.6291 322.47 99.6801 322.474C99.7418 322.482 99.8069 322.494 99.8719 322.506C100.205 322.561 100.529 322.637 100.856 322.732C100.953 322.758 101.049 322.791 101.146 322.824C101.178 322.837 101.21 322.843 101.224 322.852C101.606 322.987 101.968 323.14 102.325 323.324C103.136 323.746 103.892 324.317 104.511 324.991C104.605 325.101 104.696 325.207 104.79 325.317C104.814 325.344 104.841 325.375 104.864 325.41C104.904 325.464 104.947 325.523 104.986 325.584C105.016 325.627 105.042 325.666 105.068 325.712L105.075 325.72C105.075 325.72 105.078 325.723 105.082 325.727C105.167 325.811 105.248 325.905 105.325 326.003C105.522 326.256 105.678 326.558 105.822 326.843C105.853 326.912 105.888 326.977 105.92 327.045C105.951 327.114 105.983 327.182 106.011 327.247C106.036 327.3 106.058 327.349 106.079 327.406C106.117 327.489 106.151 327.576 106.185 327.656C106.192 327.664 106.19 327.678 106.197 327.686L106.243 327.803C106.524 328.543 106.698 329.334 106.759 330.127C106.902 331.953 106.474 333.805 105.515 335.37L105.523 335.364Z" fill="#15772C"/>
<path d="M266.741 195.807C266.077 196.431 264.989 196.37 264.135 196.51C260.83 196.867 256.391 196.084 254.947 192.711C254.462 191.478 255.169 189.182 256.455 188.481C256.66 188.339 256.877 188.227 257.108 188.139C257.516 187.979 257.95 187.906 258.377 187.894C258.447 187.889 258.512 187.894 258.582 187.895C258.669 187.902 258.761 187.898 258.845 187.901C259.024 187.911 259.195 187.928 259.373 187.952C259.597 187.991 259.825 188.042 260.039 188.117C262.473 188.691 264.584 191.73 265.886 193.549C266.224 194.221 267.174 195.026 266.741 195.807Z" fill="#15772C"/>
<path d="M272.782 185.199C272.347 185.994 271.288 186.276 270.52 186.676C267.491 188.036 263.028 188.671 260.606 185.912C259.76 184.887 259.724 182.486 260.732 181.423C260.887 181.229 261.058 181.048 261.253 180.894C261.593 180.616 261.983 180.411 262.383 180.265C262.447 180.245 262.51 180.224 262.578 180.207C262.664 180.181 262.747 180.15 262.833 180.131C263.001 180.089 263.177 180.047 263.348 180.016C263.57 179.982 263.803 179.96 264.033 179.966C266.528 179.761 269.474 181.995 271.272 183.32C271.803 183.852 272.955 184.321 272.782 185.199Z" fill="#15772C"/>
<path d="M275.516 174.547C275.248 175.418 274.269 175.897 273.597 176.439C270.897 178.374 266.647 179.883 263.726 177.655C262.697 176.821 262.183 174.475 262.96 173.229C263.072 173.011 263.205 172.801 263.363 172.611C263.645 172.273 263.982 171.998 264.347 171.773C264.405 171.737 264.466 171.705 264.527 171.673C264.607 171.632 264.684 171.586 264.76 171.548C264.92 171.473 265.08 171.397 265.246 171.336C265.461 171.261 265.682 171.193 265.905 171.152C268.312 170.456 271.64 172.062 273.665 173.002C274.293 173.424 275.514 173.656 275.516 174.547Z" fill="#15772C"/>
<path d="M277.338 165.095C277.07 165.966 276.091 166.445 275.419 166.987C272.719 168.923 268.468 170.431 265.547 168.203C264.518 167.369 264.001 165.019 264.782 163.777C264.89 163.555 265.027 163.349 265.184 163.159C265.46 162.821 265.8 162.543 266.165 162.318C266.223 162.282 266.284 162.25 266.345 162.218C266.425 162.176 266.502 162.131 266.578 162.092C266.738 162.017 266.901 161.945 267.064 161.88C267.275 161.801 267.5 161.737 267.723 161.696C270.127 160.996 273.458 162.607 275.483 163.546C276.108 163.964 277.333 164.2 277.334 165.091L277.338 165.095Z" fill="#15772C"/>
<path d="M274.7 153.59C273.453 156.67 270.664 160.215 267.007 159.892C265.692 159.741 264.004 158.028 263.994 156.564C263.969 156.32 263.973 156.071 264.003 155.828C264.058 155.392 264.2 154.978 264.39 154.596C264.421 154.536 264.451 154.476 264.488 154.417C264.534 154.343 264.574 154.262 264.616 154.184C264.712 154.034 264.808 153.884 264.914 153.745C265.052 153.565 265.208 153.39 265.374 153.234C267.035 151.359 270.708 150.939 272.923 150.646C273.677 150.667 274.837 150.209 275.315 150.964C275.552 151.844 274.979 152.772 274.708 153.591L274.7 153.59Z" fill="#15772C"/>
<path d="M261.71 157.625C261.439 157.953 261.112 158.247 260.729 158.467C260.517 158.594 260.293 158.698 260.057 158.771C258.714 159.351 256.467 158.486 255.799 157.343C254.04 154.118 256.176 150.145 258.499 147.77C259.137 147.188 259.762 146.297 260.66 146.161C261.544 146.302 261.588 147.544 261.903 148.228C262.524 150.373 263.606 153.913 262.553 156.179C262.474 156.397 262.378 156.609 262.267 156.806C262.179 156.957 262.083 157.107 261.984 157.254C261.93 157.327 261.874 157.396 261.825 157.465C261.784 157.521 261.743 157.576 261.698 157.628L261.71 157.625Z" fill="#15772C"/>
<path d="M252.09 157.99C251.819 158.318 251.492 158.612 251.112 158.836C250.901 158.963 250.673 159.063 250.44 159.14C249.094 159.716 246.85 158.855 246.182 157.712C244.423 154.487 246.559 150.514 248.882 148.139C249.52 147.557 250.145 146.667 251.043 146.53C251.927 146.671 251.972 147.913 252.29 148.594C252.911 150.739 253.99 154.275 252.941 156.545C252.862 156.762 252.761 156.971 252.654 157.172C252.566 157.323 252.47 157.473 252.371 157.62C252.322 157.689 252.261 157.762 252.212 157.831C252.171 157.887 252.127 157.938 252.086 157.994L252.09 157.99Z" fill="#15772C"/>
<path d="M242.609 159.669C242.428 159.838 242.226 159.977 242.012 160.1C240.808 160.935 238.437 160.531 237.555 159.543C235.192 156.734 236.494 152.415 238.305 149.628C238.817 148.93 239.252 147.929 240.105 147.62C240.998 147.582 241.287 148.792 241.732 149.398C242.769 151.376 244.53 154.627 243.949 157.061C243.916 157.294 243.859 157.513 243.795 157.732C243.738 157.903 243.674 158.06 243.603 158.223C243.568 158.301 243.521 158.382 243.49 158.464C243.459 158.524 243.432 158.588 243.402 158.648C243.198 159.021 242.936 159.375 242.609 159.669Z" fill="#15772C"/>
<path d="M234.383 163.254C233.495 164.418 231.118 164.768 229.974 164.101C226.855 162.158 226.76 157.649 227.613 154.443C227.884 153.624 227.986 152.536 228.703 151.975C229.538 151.661 230.19 152.722 230.805 153.162C232.405 154.725 235.086 157.269 235.287 159.766C235.325 159.993 235.344 160.222 235.349 160.449C235.346 160.629 235.337 160.8 235.32 160.979C235.313 161.066 235.292 161.153 235.281 161.243C235.276 161.309 235.263 161.381 235.251 161.446C235.175 161.866 235.037 162.284 234.817 162.664C234.694 162.878 234.547 163.079 234.379 163.257L234.383 163.254Z" fill="#15772C"/>
<path d="M228.372 167.594C228.246 169.051 226.425 170.62 225.097 170.669C221.421 170.697 218.933 166.939 217.939 163.765C217.729 162.924 217.235 161.951 217.545 161.099C218.084 160.385 219.204 160.936 219.956 160.978C222.142 161.446 225.769 162.163 227.273 164.162C227.433 164.332 227.565 164.518 227.69 164.704C227.785 164.854 227.869 165.007 227.948 165.163C227.99 165.244 228.02 165.327 228.062 165.407C228.094 165.468 228.119 165.528 228.147 165.593C228.307 165.986 228.414 166.413 228.432 166.854C228.446 167.101 228.424 167.345 228.383 167.591L228.372 167.594Z" fill="#15772C"/>
<path d="M223.943 177.192C223.791 177.363 223.614 177.515 223.428 177.647C223.095 177.886 222.723 178.048 222.337 178.154C222.277 178.172 222.214 178.185 222.151 178.199C222.069 178.214 221.986 178.237 221.908 178.257C221.748 178.285 221.585 178.309 221.422 178.326C221.212 178.343 220.996 178.345 220.784 178.329C218.454 178.353 215.866 176.084 214.279 174.734C213.821 174.201 212.782 173.689 213.001 172.888C213.459 172.175 214.459 171.991 215.195 171.666C218.104 170.601 222.287 170.308 224.356 173.036C225.075 174.04 224.948 176.275 223.947 177.196L223.943 177.192Z" fill="#15772C"/>
<path d="M224.376 185.881C224.309 185.938 224.243 185.996 224.176 186.053C224.036 186.159 223.896 186.266 223.749 186.365C223.56 186.486 223.36 186.603 223.148 186.689C220.97 187.891 217.386 187.063 215.214 186.597C214.512 186.327 213.277 186.372 213.079 185.506C213.148 184.602 213.992 183.919 214.524 183.244C216.718 180.776 220.509 178.381 223.835 179.9C225.019 180.485 226.031 182.649 225.548 184.024C225.486 184.261 225.406 184.493 225.294 184.712C225.099 185.104 224.827 185.446 224.526 185.739C224.475 185.782 224.428 185.83 224.373 185.87L224.376 185.881Z" fill="#15772C"/>
<path d="M229.329 193.812C227.686 195.685 224.034 196.121 221.834 196.415C221.087 196.402 219.934 196.861 219.456 196.113C219.218 195.24 219.78 194.315 220.051 193.496C221.275 190.429 224.031 186.893 227.671 187.196C228.983 187.344 230.669 189.038 230.682 190.491C230.708 190.735 230.707 190.981 230.678 191.224C230.627 191.657 230.492 192.072 230.302 192.453C230.271 192.513 230.241 192.573 230.204 192.633C230.158 192.706 230.119 192.787 230.076 192.865C229.984 193.012 229.888 193.162 229.782 193.301C229.644 193.481 229.495 193.656 229.329 193.812Z" fill="#15772C"/>
<path d="M237.173 198.499C236.405 200.882 233.209 202.739 231.298 203.895C230.598 204.183 229.72 205.065 228.981 204.569C228.412 203.858 228.56 202.777 228.483 201.917C228.392 198.595 229.517 194.23 233.002 193.059C234.271 192.672 236.498 193.56 237.1 194.897C237.223 195.111 237.319 195.342 237.385 195.579C237.511 195.995 237.55 196.438 237.529 196.858C237.528 196.928 237.519 196.997 237.51 197.066C237.499 197.156 237.496 197.248 237.486 197.331C237.458 197.505 237.43 197.679 237.388 197.852C237.33 198.071 237.266 198.29 237.169 198.503L237.173 198.499Z" fill="#15772C"/>
<path d="M243.53 206.82C243.046 207.399 242.684 208.588 241.796 208.498C240.962 208.138 240.586 207.112 240.12 206.387C238.489 203.494 237.45 199.107 239.981 196.444C240.921 195.507 243.313 195.254 244.461 196.155C244.671 196.289 244.861 196.446 245.034 196.624C245.337 196.937 245.584 197.304 245.759 197.692C245.784 197.752 245.816 197.813 245.84 197.881C245.871 197.964 245.908 198.048 245.943 198.127C246.003 198.293 246.057 198.459 246.102 198.631C246.155 198.851 246.2 199.078 246.212 199.306C246.643 201.77 244.691 204.91 243.537 206.82L243.53 206.82Z" fill="#15772C"/>
<path d="M256.516 203.089C256.444 203.839 256.815 205.026 256.031 205.454C255.138 205.628 254.251 204.992 253.455 204.66C250.473 203.193 247.137 200.163 247.718 196.537C247.964 195.236 249.792 193.674 251.255 193.767C251.501 193.76 251.749 193.779 251.991 193.831C252.42 193.919 252.829 194.085 253.194 194.304C253.25 194.338 253.309 194.375 253.365 194.416C253.438 194.469 253.515 194.512 253.588 194.565C253.731 194.668 253.869 194.773 254.003 194.89C254.172 195.039 254.335 195.205 254.479 195.381C256.227 197.172 256.385 200.865 256.515 203.097L256.516 203.089Z" fill="#15772C"/>
<path d="M243.955 191.358C247.274 191.01 249.919 188.638 252.017 186.224C256.952 179.558 258.829 171.195 260.222 163.18C252.45 163.213 244.126 162.468 237.038 166.268C232.639 168.612 229.759 173.291 229.534 178.253C229.238 181.314 230.696 184.164 232.818 186.287C235.658 189.287 239.695 191.736 243.959 191.354L243.955 191.358ZM253.69 187.507C251.25 190.268 248.103 192.778 244.353 193.258C237.697 193.941 231.05 189.141 228.253 183.317C225.689 176.566 229.461 168.362 235.639 165.003C242.591 161.156 252.873 161.229 260.58 162.239C260.736 161.921 260.982 161.54 261.323 161.438C262.652 162.28 262.263 164.113 262.075 165.426C261.625 168.482 260.949 171.529 260.017 174.468C258.512 179.05 256.733 183.717 253.686 187.51L253.69 187.507Z" fill="#15772C"/>
<path d="M230.841 209.595C244.808 215.589 258.915 210.807 268.442 199.545C272.26 194.531 274.489 188.49 276.382 182.559C278.522 175.422 280.239 168.158 281.749 160.86C282.997 154.653 283.935 148.363 285.409 142.213C268.364 143.753 250.448 140.358 234.1 146.689C224.469 150.137 215.415 156.544 211.198 166.103C205.878 177.543 210.677 190.464 218.343 199.595C221.784 203.803 225.955 207.37 230.845 209.591L230.841 209.595ZM223.392 243.825C220.868 248.838 213.663 248.556 210.192 244.749C208.884 243.146 208.576 240.849 209.241 238.909C208.635 240.458 206.338 240.726 204.835 240.721C204.835 240.721 204.835 240.721 204.824 240.724C204.824 240.724 204.816 240.724 204.809 240.723C204.809 240.723 204.805 240.726 204.798 240.726C202.341 240.586 199.52 239.784 197.977 237.763C197.324 236.709 197.446 235.215 198.202 234.239C199.061 233.223 200.556 233.131 201.787 233.295C204.459 233.631 208.86 235.496 209.366 238.42C209.349 238.543 209.323 238.655 209.288 238.766C209.459 238.313 209.683 237.876 209.959 237.475C210.955 236.048 212.367 234.653 214.214 234.621C217.566 234.456 221.966 237.868 219.787 241.393C218.994 242.939 217.27 244.057 215.505 243.732C215.031 243.601 214.643 243.212 214.48 242.752C214.643 242.64 214.85 242.564 215.035 242.494C215.962 242.264 216.822 242.472 217.527 241.69C219.13 239.668 217.879 237.328 215.549 236.718C213.219 235.884 211.455 238.338 211.137 240.388C210.899 242.167 211.784 244.024 213.42 244.82C215.491 245.986 218.352 246.017 220.171 244.374C222.342 241.687 221.81 238.043 221.076 234.925C220.748 233.694 220.07 232.586 219.423 231.507C219.254 231.087 218.492 230.262 218.129 229.586C218.059 229.496 217.985 229.402 217.919 229.309C216.473 227.171 215.452 224.6 215.791 221.979C216.04 218.57 217.299 215.344 219.908 213.05C221.687 211.55 223.836 210.061 226.152 209.552C222.81 207.555 219.767 204.907 217.108 201.65C213.872 197.942 211.106 193.584 209.248 188.917C208.902 189.848 208.342 190.696 207.782 191.409C205.135 194.715 201.424 197.131 197.205 197.685C192.484 198.336 187.143 196.788 184.426 192.661C184.12 192.209 183.847 191.748 183.614 191.287C177.858 186.532 168.08 194.501 174.615 200.338C176.047 201.316 177.868 200.755 179.162 199.802C181.113 198.304 180.691 195.24 178.646 194.031C178.183 193.706 177.635 193.973 177.166 194.109C176.288 194.365 175.846 195.167 175.154 195.679C175.036 195.78 174.888 195.948 174.716 195.939C174.555 195.934 174.392 195.822 174.275 195.718C173.517 194.978 173.954 193.725 174.678 193.124C175.823 192.148 177.551 191.517 179.028 192C181.643 193.149 183.144 196.439 182.084 199.134C181.034 201.84 177.739 203.359 174.968 202.686C173.372 202.304 172.147 201.066 171.312 199.712C167.352 192.891 176.269 185.259 182.753 188.886C181.146 181.742 187.571 174.566 195.506 176.088C198.604 176.768 200.685 179.908 201.052 182.924C201.601 186.977 198.144 191.054 193.95 190.422C189.317 189.786 186.49 184.5 190.759 181.313C192.194 180.484 195.097 180.255 195.986 181.958C196.196 182.473 196.162 183.108 195.682 183.438C195.66 183.436 195.636 183.423 195.618 183.418C194.958 183.364 194.465 182.909 193.848 182.785C192.109 182.45 190.792 183.901 190.79 185.565C191.515 188.697 195.888 189.679 197.748 186.965C199.23 185.095 199.205 182.438 198.118 180.401C196.154 176.724 191.106 177.589 188.3 179.765C183.903 182.891 183.645 189.353 187.311 193.142C190.435 196.314 195.508 196.485 199.499 195.062C202.179 194.002 204.381 192.106 206.188 189.901C207.061 188.798 207.85 187.582 208.119 186.18C208.143 186.098 208.164 186.019 208.195 185.944C206.229 179.517 206.07 172.671 208.774 166.255C212.527 157.005 220.682 150.178 229.794 146.474C239.948 141.833 251.18 140.806 262.213 140.849C267.849 140.795 273.48 140.95 279.115 140.999C280.871 141.005 282.64 140.986 284.386 141.061C284.92 141.127 285.614 140.975 285.994 141.425C286.848 140.611 287.453 141.815 287.446 142.625C287.097 145.125 286.512 147.603 286.094 150.101C285.438 153.702 284.843 157.32 284.139 160.914C283.07 166.369 281.744 171.778 280.369 177.162C278.713 183.481 276.873 189.816 273.784 195.608C268.699 205.108 259.016 212.171 248.302 213.667C241.177 214.74 234.405 213.731 228.454 210.806C227.781 210.919 227.1 211.014 226.472 211.307C222.937 212.849 219.71 215.645 218.549 219.421C217.287 223.277 218.011 226.709 220.899 229.606C223.663 232.589 227.984 234.822 232.042 233.445C237.984 231.255 236.853 223.15 231.75 220.656C229.249 219.457 226.124 221.675 226.33 224.408C226.848 228.147 231.754 227.274 229.645 223.531C229.399 222.966 229.574 222.598 230.153 222.408C231.5 221.961 232.631 223.319 232.693 224.574C232.785 231.111 224.236 230.653 223.781 224.565C223.536 221.294 226.362 218.126 229.652 218.062C232.538 217.922 235.013 219.879 236.555 222.167C238.553 224.948 239.023 228.878 237.197 231.862C235.02 235.828 229.872 236.649 225.863 235.335C225.011 235.057 224.189 234.686 223.405 234.249C223.731 235.113 223.952 236.006 224.05 236.89C224.342 239.215 224.566 241.707 223.384 243.831L223.392 243.825Z" fill="#15772C"/>
<path d="M210.389 226.71C210.877 228.669 208.546 229.954 207.008 230.559C204.678 231.352 201.765 231.665 199.586 230.373C198.583 229.64 198.138 228.21 198.471 227.025C198.883 225.759 200.237 225.114 201.438 224.806C204.042 224.118 208.821 224.193 210.388 226.718L210.389 226.71Z" fill="#15772C"/>
<path d="M202.529 217.957C200.807 219.714 198.347 221.3 195.816 221.122C194.592 220.918 193.549 219.838 193.311 218.632C193.111 217.319 194.03 216.127 194.965 215.312C196.979 213.522 201.281 211.445 203.821 212.992C205.134 214.522 203.64 216.711 202.537 217.943L202.53 217.95L202.529 217.957Z" fill="#15772C"/>
<path d="M194.995 208.963C194.586 211.392 193.472 214.126 191.278 215.436C190.156 215.963 188.686 215.678 187.802 214.815C186.889 213.847 186.967 212.35 187.271 211.149C187.908 208.532 190.253 204.366 193.225 204.193C195.163 204.697 195.194 207.321 194.999 208.959L194.995 208.963Z" fill="#15772C"/>
<path d="M184.12 213.01C183.276 213.924 181.807 214.204 180.665 213.74C179.457 213.189 178.961 211.769 178.798 210.539C178.407 207.877 179.018 203.135 181.704 201.859C183.708 201.598 184.719 204.062 185.147 205.656C185.675 208.058 185.653 210.986 184.12 213.01Z" fill="#15772C"/>
<path d="M176.56 213.854C176.101 215.011 174.831 215.801 173.597 215.776C172.273 215.694 171.301 214.545 170.705 213.462C169.381 211.117 168.254 206.47 170.303 204.317C172.063 203.358 173.879 205.261 174.856 206.589C176.217 208.644 177.268 211.4 176.556 213.85L176.56 213.854Z" fill="#15772C"/>
<path d="M170.044 217.089C170.326 218.299 169.733 219.673 168.706 220.357C167.568 221.047 166.12 220.654 165.007 220.104C162.585 218.933 159.007 215.756 159.466 212.821C160.365 211.027 162.946 211.558 164.511 212.095C166.803 213.011 169.231 214.674 170.044 217.089Z" fill="#15772C"/>
<path d="M166.148 227.102C165.351 228.166 163.86 228.349 162.628 228.255C159.939 228.076 155.434 226.478 154.757 223.585C154.919 221.599 157.479 221.112 159.125 221.022C159.132 221.022 159.14 221.023 159.151 221.02C161.619 221.007 164.5 221.641 166.168 223.576C166.882 224.591 166.848 226.092 166.151 227.105L166.148 227.102Z" fill="#15772C"/>
<path d="M166.196 234.16C165.899 235.457 164.608 236.224 163.444 236.637C160.913 237.562 156.149 237.917 154.353 235.547C153.696 233.645 155.889 232.152 157.357 231.41C159.604 230.408 162.486 229.829 164.778 230.92C165.844 231.559 166.42 232.945 166.192 234.156L166.196 234.16Z" fill="#15772C"/>
<path d="M168.003 243.776C166.152 245.732 162.046 248.179 159.386 246.858C157.939 245.449 159.245 243.136 160.229 241.815L160.237 241.808C161.797 239.91 164.112 238.115 166.649 238.07C167.888 238.165 169.019 239.149 169.362 240.334C169.674 241.626 168.862 242.888 168.002 243.783L168.003 243.776Z" fill="#15772C"/>
<path d="M174.879 249.082C173.768 251.534 170.695 255.193 167.743 254.817C165.92 253.963 166.391 251.352 166.892 249.784C166.883 249.798 166.882 249.813 166.874 249.827L166.897 249.766C167.754 247.463 169.35 245.011 171.734 244.13C172.935 243.815 174.326 244.372 175.037 245.383C175.754 246.505 175.401 247.959 174.883 249.086L174.879 249.082Z" fill="#15772C"/>
<path d="M183.606 249.748C184.093 252.396 183.649 257.158 181.011 258.529C179.031 258.866 177.927 256.461 177.439 254.884C176.822 252.497 176.731 249.557 178.195 247.476C179.005 246.53 180.463 246.198 181.623 246.62C182.849 247.128 183.395 248.526 183.606 249.748Z" fill="#15772C"/>
<path d="M192.474 255.954C190.759 257.011 188.833 255.188 187.791 253.91L187.781 253.898C186.322 251.92 185.141 249.242 185.715 246.767C186.109 245.591 187.337 244.727 188.572 244.69C189.898 244.703 190.929 245.794 191.582 246.848C193.026 249.118 194.403 253.7 192.471 255.957L192.474 255.954Z" fill="#15772C"/>
<path d="M201.82 249.943C200.458 251.419 198.117 250.185 196.767 249.238C194.822 247.726 192.953 245.453 192.843 242.911C192.912 241.674 193.858 240.514 195.034 240.145C196.318 239.8 197.6 240.58 198.515 241.416C200.516 243.215 203.071 247.256 201.82 249.95L201.82 249.943Z" fill="#15772C"/>
<path d="M173.157 239.183C180.23 246.084 192.424 242.542 194.752 232.989C197.235 223.426 188.274 214.588 178.78 217.196C169.069 219.772 165.895 232.293 173.149 239.183L173.157 239.183ZM195.798 235.947C191.38 246.129 177.357 247.889 170.518 239.172C163.873 230.921 168.042 218.29 178.263 215.609C190.27 212.316 200.849 224.589 195.791 235.947L195.798 235.947Z" fill="#15772C"/>
<path d="M185.949 234.909C186.18 234.711 186.402 234.5 186.613 234.278C186.801 234.069 186.976 233.851 187.136 233.625C187.281 233.405 187.415 233.181 187.539 232.952C187.652 232.718 187.762 232.481 187.858 232.235C187.942 231.993 188.016 231.752 188.078 231.508C188.136 231.241 188.181 230.977 188.209 230.708C188.229 230.445 188.242 230.182 188.24 229.918C188.231 229.653 188.203 229.391 188.165 229.131C188.116 228.853 188.053 228.573 188.004 228.397C187.996 228.363 187.984 228.333 187.972 228.295C187.889 228.032 187.787 227.779 187.679 227.525C187.552 227.259 187.411 226.999 187.277 226.787C187.185 226.64 187.108 226.495 187.036 226.339C187.023 226.309 187.011 226.279 186.999 226.248C186.989 226.229 186.98 226.203 186.974 226.188C186.95 226.113 186.927 226.038 186.903 225.963C186.862 225.93 186.824 225.894 186.787 225.858C186.478 225.578 186.209 225.257 185.897 224.98C185.711 224.819 185.517 224.665 185.315 224.525C185.082 224.364 184.844 224.214 184.594 224.081C184.573 224.072 184.559 224.064 184.541 224.052C184.541 224.052 184.541 224.052 184.538 224.048C184.423 224.01 184.308 223.979 184.19 223.944C184.061 223.905 183.924 223.873 183.795 223.841C183.532 223.78 183.268 223.734 183.006 223.707L182.991 223.706C182.627 223.671 182.265 223.662 181.901 223.667C181.563 223.678 181.22 223.706 180.886 223.762C180.633 223.808 180.38 223.862 180.132 223.931C179.881 224.011 179.628 224.098 179.386 224.204C179.161 224.308 178.943 224.435 178.735 224.565C178.45 224.742 178.179 224.933 177.94 225.132C177.732 225.31 177.534 225.5 177.346 225.702C177.154 225.915 176.972 226.132 176.808 226.361C176.656 226.581 176.521 226.805 176.394 227.037C176.39 227.041 176.385 227.051 176.385 227.059C176.26 227.302 176.153 227.551 176.053 227.807C175.96 228.064 175.885 228.326 175.82 228.592C175.776 228.794 175.742 228.993 175.719 229.197C175.697 229.433 175.69 229.671 175.69 229.91C175.702 230.186 175.733 230.459 175.767 230.729C175.824 231.042 175.888 231.355 175.979 231.659C176.067 231.944 176.17 232.223 176.289 232.496C176.412 232.759 176.546 233.011 176.696 233.257C176.86 233.511 177.036 233.756 177.227 233.994C177.412 234.21 177.613 234.412 177.817 234.611C178.034 234.8 178.255 234.978 178.481 235.146C178.721 235.307 178.97 235.462 179.227 235.595C179.453 235.708 179.684 235.809 179.919 235.901C180.158 235.981 180.402 236.059 180.643 236.117C180.925 236.176 181.207 236.226 181.494 236.259C181.756 236.279 182.019 236.292 182.283 236.29C182.552 236.278 182.822 236.251 183.092 236.216C183.348 236.174 183.602 236.112 183.849 236.043C184.128 235.954 184.403 235.854 184.676 235.736C184.87 235.644 185.054 235.541 185.238 235.431C185.489 235.27 185.725 235.101 185.956 234.917L185.949 234.909ZM189.546 234.615C188.746 235.922 187.604 236.997 186.248 237.711C184.766 238.493 183.075 238.888 181.399 238.745C180.237 238.646 179.14 238.32 178.106 237.797C177.147 237.291 176.283 236.609 175.579 235.789C175.172 235.315 174.816 234.789 174.532 234.228C173.879 232.943 173.513 231.492 173.612 230.044C173.7 228.797 173.96 227.559 174.519 226.432C175.061 225.333 175.816 224.372 176.654 223.673C176.992 223.384 177.352 223.129 177.729 222.894C178.017 222.721 178.322 222.576 178.626 222.438L178.652 222.429C178.922 222.306 179.205 222.192 179.484 222.096C179.537 222.078 179.59 222.06 179.642 222.042C179.71 222.018 179.785 221.995 179.856 221.974C179.947 221.945 180.036 221.922 180.126 221.9C180.149 221.894 180.167 221.892 180.182 221.886C180.283 221.86 180.38 221.838 180.477 221.816C180.578 221.791 180.678 221.773 180.779 221.755L180.801 221.75C180.902 221.732 181.005 221.717 181.106 221.699C181.193 221.666 181.279 221.639 181.369 221.617C181.41 221.609 181.454 221.598 181.495 221.59C181.536 221.582 181.584 221.575 181.629 221.571C181.721 221.559 181.817 221.552 181.902 221.548C181.979 221.543 182.06 221.541 182.137 221.544C182.196 221.541 182.251 221.541 182.309 221.546C182.367 221.55 182.422 221.551 182.481 221.555C182.809 221.573 183.139 221.624 183.463 221.7L183.467 221.696C183.496 221.699 183.518 221.7 183.543 221.706C183.598 221.714 183.652 221.722 183.703 221.725C183.765 221.734 183.83 221.746 183.895 221.758C184.228 221.813 184.552 221.889 184.879 221.984C184.976 222.01 185.072 222.043 185.169 222.076C185.201 222.089 185.233 222.095 185.247 222.104C185.629 222.239 185.992 222.391 186.348 222.576C187.159 222.998 187.915 223.569 188.534 224.243C188.628 224.353 188.719 224.459 188.814 224.568C188.837 224.596 188.864 224.627 188.887 224.662C188.927 224.716 188.97 224.775 189.009 224.836C189.039 224.879 189.066 224.918 189.091 224.964L189.098 224.971C189.098 224.971 189.101 224.975 189.105 224.979C189.19 225.063 189.271 225.157 189.348 225.255C189.545 225.508 189.701 225.809 189.845 226.095C189.876 226.164 189.911 226.229 189.943 226.297C189.974 226.366 190.006 226.434 190.034 226.498C190.059 226.552 190.081 226.601 190.102 226.658C190.14 226.741 190.174 226.828 190.208 226.908C190.215 226.916 190.214 226.93 190.22 226.938L190.266 227.055C190.547 227.795 190.721 228.586 190.782 229.379C190.925 231.205 190.497 233.057 189.538 234.622L189.546 234.615Z" fill="#15772C"/>
</svg>
