<svg width="391" height="541" viewBox="0 0 391 541" fill="none" xmlns="http://www.w3.org/2000/svg">
<path d="M1.00001 534.5C1.00001 534.5 56.0644 511.121 105.73 502C159.05 492.208 210.069 518.963 265.407 534.585C316.541 549.019 391 534.585 391 534.585V14C391 14 352.504 43.6785 308.196 50C199.49 65.5094 84.5 -50.5 1 28.5L0.499989 281.5L1.00001 534.5Z" fill="#E48423"/>
<path d="M194.712 295.133C194.054 295.752 192.974 295.691 192.127 295.83C188.848 296.184 184.443 295.407 183.01 292.06C182.529 290.837 183.23 288.559 184.506 287.863C184.71 287.722 184.925 287.611 185.154 287.523C185.559 287.365 185.99 287.293 186.413 287.281C186.483 287.276 186.548 287.281 186.617 287.282C186.704 287.289 186.795 287.285 186.878 287.288C187.056 287.298 187.225 287.314 187.402 287.339C187.624 287.377 187.85 287.427 188.062 287.502C190.478 288.072 192.573 291.088 193.865 292.892C194.199 293.558 195.143 294.358 194.712 295.133Z" fill="#B05C17"/>
<path d="M200.707 284.606C200.275 285.396 199.224 285.676 198.463 286.072C195.457 287.422 191.028 288.051 188.625 285.314C187.786 284.297 187.75 281.915 188.751 280.86C188.904 280.668 189.074 280.488 189.267 280.335C189.605 280.059 189.992 279.856 190.388 279.711C190.452 279.691 190.515 279.67 190.582 279.653C190.667 279.627 190.75 279.597 190.835 279.578C191.002 279.536 191.176 279.495 191.346 279.464C191.567 279.43 191.797 279.408 192.026 279.414C194.501 279.21 197.424 281.427 199.208 282.742C199.735 283.27 200.879 283.736 200.707 284.606Z" fill="#B05C17"/>
<path d="M203.42 274.037C203.153 274.901 202.182 275.376 201.515 275.915C198.837 277.835 194.619 279.332 191.721 277.121C190.7 276.293 190.19 273.966 190.961 272.73C191.072 272.513 191.204 272.305 191.361 272.116C191.641 271.781 191.974 271.508 192.337 271.285C192.394 271.249 192.455 271.218 192.516 271.186C192.595 271.145 192.671 271.1 192.747 271.062C192.906 270.987 193.064 270.911 193.229 270.851C193.442 270.776 193.662 270.71 193.883 270.668C196.271 269.977 199.573 271.572 201.583 272.504C202.206 272.923 203.418 273.153 203.42 274.037Z" fill="#B05C17"/>
<path d="M205.227 264.659C204.961 265.523 203.989 265.998 203.323 266.536C200.644 268.457 196.426 269.954 193.528 267.742C192.507 266.915 191.994 264.584 192.768 263.351C192.876 263.13 193.011 262.926 193.168 262.738C193.441 262.402 193.778 262.126 194.141 261.903C194.198 261.867 194.259 261.835 194.32 261.804C194.399 261.762 194.475 261.717 194.551 261.679C194.709 261.604 194.871 261.533 195.033 261.469C195.242 261.39 195.465 261.327 195.687 261.286C198.072 260.591 201.377 262.19 203.387 263.122C204.006 263.536 205.222 263.771 205.223 264.655L205.227 264.659Z" fill="#B05C17"/>
<path d="M202.609 253.243C201.372 256.299 198.604 259.816 194.976 259.496C193.67 259.345 191.996 257.646 191.987 256.193C191.961 255.951 191.966 255.704 191.995 255.463C192.05 255.03 192.19 254.619 192.379 254.241C192.409 254.181 192.439 254.122 192.477 254.063C192.522 253.99 192.561 253.909 192.603 253.832C192.698 253.683 192.794 253.534 192.899 253.396C193.036 253.218 193.191 253.044 193.356 252.889C195.004 251.029 198.648 250.612 200.846 250.321C201.594 250.342 202.745 249.888 203.219 250.637C203.455 251.51 202.886 252.431 202.617 253.243L202.609 253.243Z" fill="#B05C17"/>
<path d="M189.72 257.246C189.451 257.571 189.127 257.863 188.746 258.082C188.537 258.207 188.314 258.311 188.079 258.384C186.748 258.959 184.517 258.101 183.855 256.966C182.109 253.766 184.229 249.824 186.533 247.468C187.167 246.89 187.787 246.006 188.678 245.871C189.555 246.01 189.599 247.243 189.911 247.922C190.527 250.05 191.602 253.563 190.557 255.811C190.478 256.027 190.382 256.238 190.273 256.434C190.185 256.583 190.09 256.733 189.991 256.878C189.939 256.95 189.882 257.019 189.834 257.088C189.793 257.143 189.752 257.198 189.708 257.249L189.72 257.246Z" fill="#B05C17"/>
<path d="M180.175 257.609C179.906 257.934 179.582 258.226 179.205 258.448C178.995 258.574 178.769 258.673 178.538 258.75C177.203 259.321 174.976 258.468 174.313 257.333C172.567 254.133 174.687 250.191 176.992 247.835C177.625 247.257 178.246 246.373 179.137 246.238C180.014 246.377 180.058 247.61 180.374 248.286C180.99 250.414 182.061 253.922 181.019 256.175C180.941 256.391 180.841 256.598 180.735 256.797C180.647 256.947 180.552 257.096 180.454 257.241C180.405 257.31 180.345 257.382 180.296 257.451C180.255 257.506 180.211 257.558 180.171 257.613L180.175 257.609Z" fill="#B05C17"/>
<path d="M170.767 259.274C170.587 259.443 170.387 259.58 170.174 259.702C168.979 260.531 166.627 260.13 165.752 259.15C163.408 256.362 164.699 252.077 166.496 249.311C167.004 248.619 167.436 247.626 168.282 247.319C169.169 247.281 169.455 248.482 169.897 249.083C170.926 251.046 172.673 254.272 172.096 256.687C172.064 256.918 172.007 257.135 171.943 257.352C171.887 257.523 171.824 257.678 171.753 257.84C171.718 257.917 171.672 257.997 171.64 258.079C171.61 258.138 171.584 258.202 171.554 258.261C171.351 258.631 171.091 258.983 170.767 259.274Z" fill="#B05C17"/>
<path d="M162.606 262.831C161.724 263.986 159.366 264.334 158.23 263.672C155.136 261.745 155.041 257.27 155.888 254.089C156.157 253.277 156.258 252.197 156.97 251.64C157.797 251.328 158.445 252.382 159.055 252.818C160.643 254.369 163.303 256.893 163.503 259.371C163.54 259.596 163.559 259.823 163.564 260.049C163.561 260.227 163.552 260.397 163.535 260.574C163.528 260.661 163.507 260.746 163.496 260.837C163.491 260.902 163.479 260.974 163.466 261.038C163.391 261.454 163.254 261.869 163.036 262.246C162.914 262.458 162.768 262.658 162.602 262.835L162.606 262.831Z" fill="#B05C17"/>
<path d="M156.64 267.138C156.516 268.584 154.709 270.141 153.392 270.19C149.744 270.217 147.275 266.488 146.289 263.339C146.08 262.504 145.59 261.539 145.898 260.693C146.432 259.985 147.544 260.532 148.29 260.574C150.459 261.038 154.058 261.749 155.551 263.733C155.709 263.902 155.84 264.086 155.964 264.27C156.059 264.419 156.142 264.571 156.221 264.727C156.262 264.806 156.292 264.888 156.333 264.968C156.365 265.029 156.389 265.089 156.417 265.153C156.577 265.543 156.683 265.966 156.7 266.404C156.714 266.649 156.692 266.891 156.652 267.135L156.64 267.138Z" fill="#B05C17"/>
<path d="M152.247 276.661C152.095 276.832 151.92 276.982 151.735 277.114C151.404 277.35 151.036 277.511 150.653 277.617C150.593 277.634 150.531 277.647 150.468 277.661C150.386 277.676 150.305 277.699 150.227 277.719C150.068 277.747 149.906 277.771 149.745 277.787C149.536 277.804 149.321 277.806 149.112 277.79C146.8 277.814 144.232 275.562 142.657 274.223C142.203 273.694 141.172 273.186 141.389 272.391C141.843 271.683 142.836 271.501 143.566 271.178C146.452 270.122 150.603 269.831 152.656 272.538C153.369 273.535 153.244 275.752 152.25 276.665L152.247 276.661Z" fill="#B05C17"/>
<path d="M152.675 285.284C152.609 285.34 152.543 285.397 152.477 285.454C152.338 285.56 152.199 285.666 152.053 285.764C151.866 285.884 151.668 286 151.457 286.086C149.296 287.278 145.739 286.457 143.584 285.994C142.888 285.726 141.662 285.771 141.466 284.912C141.534 284.015 142.372 283.336 142.9 282.667C145.077 280.218 148.838 277.842 152.139 279.349C153.313 279.93 154.317 282.076 153.838 283.441C153.777 283.676 153.697 283.906 153.586 284.123C153.393 284.513 153.123 284.852 152.824 285.142C152.774 285.186 152.727 285.233 152.673 285.272L152.675 285.284Z" fill="#B05C17"/>
<path d="M157.59 293.154C155.96 295.012 152.337 295.445 150.153 295.737C149.412 295.724 148.268 296.178 147.793 295.436C147.557 294.571 148.115 293.653 148.384 292.84C149.599 289.797 152.334 286.288 155.945 286.589C157.247 286.736 158.92 288.417 158.933 289.858C158.958 290.1 158.958 290.344 158.929 290.586C158.878 291.015 158.744 291.427 158.555 291.805C158.525 291.865 158.495 291.924 158.458 291.983C158.413 292.056 158.374 292.137 158.331 292.214C158.24 292.359 158.145 292.509 158.04 292.646C157.903 292.825 157.755 292.999 157.59 293.154Z" fill="#B05C17"/>
<path d="M165.373 297.804C164.611 300.168 161.44 302.011 159.544 303.158C158.849 303.443 157.978 304.319 157.245 303.826C156.68 303.121 156.827 302.048 156.751 301.195C156.66 297.899 157.777 293.568 161.234 292.405C162.493 292.021 164.703 292.903 165.301 294.229C165.423 294.442 165.518 294.671 165.584 294.906C165.709 295.319 165.748 295.759 165.727 296.175C165.725 296.244 165.716 296.313 165.707 296.381C165.697 296.471 165.694 296.562 165.684 296.645C165.656 296.818 165.628 296.99 165.586 297.161C165.529 297.379 165.466 297.596 165.369 297.807L165.373 297.804Z" fill="#B05C17"/>
<path d="M171.681 306.06C171.201 306.634 170.841 307.815 169.96 307.726C169.133 307.368 168.759 306.35 168.298 305.631C166.68 302.76 165.648 298.407 168.16 295.765C169.093 294.835 171.466 294.584 172.605 295.478C172.813 295.611 173.002 295.767 173.174 295.944C173.474 296.254 173.719 296.618 173.893 297.003C173.918 297.063 173.949 297.123 173.973 297.191C174.003 297.273 174.041 297.356 174.075 297.435C174.135 297.6 174.188 297.764 174.233 297.935C174.286 298.153 174.33 298.379 174.342 298.605C174.77 301.05 172.833 304.165 171.688 306.06L171.681 306.06Z" fill="#B05C17"/>
<path d="M184.567 302.358C184.495 303.102 184.864 304.28 184.086 304.704C183.199 304.877 182.32 304.246 181.53 303.916C178.571 302.461 175.26 299.454 175.837 295.856C176.081 294.565 177.895 293.016 179.347 293.108C179.591 293.101 179.837 293.12 180.077 293.171C180.503 293.258 180.909 293.424 181.27 293.641C181.326 293.674 181.385 293.711 181.44 293.752C181.513 293.805 181.589 293.847 181.662 293.9C181.803 294.002 181.941 294.107 182.074 294.222C182.241 294.37 182.403 294.535 182.546 294.709C184.28 296.486 184.437 300.151 184.566 302.365L184.567 302.358Z" fill="#B05C17"/>
<path d="M172.102 290.718C175.396 290.372 178.02 288.019 180.102 285.624C184.998 279.009 186.861 270.711 188.243 262.758C180.532 262.792 172.272 262.052 165.239 265.822C160.874 268.149 158.017 272.791 157.794 277.714C157.5 280.751 158.947 283.58 161.052 285.687C163.87 288.663 167.875 291.093 172.106 290.714L172.102 290.718ZM181.762 286.897C179.341 289.637 176.219 292.127 172.497 292.603C165.893 293.281 159.297 288.518 156.522 282.74C153.978 276.041 157.721 267.901 163.85 264.567C170.749 260.75 180.951 260.823 188.598 261.825C188.754 261.509 188.997 261.131 189.336 261.03C190.654 261.865 190.268 263.684 190.082 264.987C189.635 268.02 188.964 271.042 188.04 273.959C186.547 278.505 184.781 283.136 181.758 286.9L181.762 286.897Z" fill="#B05C17"/>
<path d="M159.091 308.813C172.949 314.761 186.947 310.016 196.4 298.841C200.189 293.866 202.4 287.872 204.279 281.987C206.402 274.906 208.106 267.698 209.604 260.456C210.842 254.297 211.773 248.056 213.236 241.954C196.322 243.482 178.546 240.113 162.324 246.395C152.768 249.816 143.784 256.174 139.6 265.659C134.321 277.01 139.083 289.831 146.69 298.892C150.103 303.067 154.243 306.606 159.095 308.81L159.091 308.813ZM151.699 342.778C149.195 347.753 142.046 347.472 138.602 343.695C137.304 342.104 136.998 339.825 137.658 337.9C137.057 339.437 134.777 339.703 133.286 339.699C133.286 339.699 133.286 339.699 133.275 339.701C133.275 339.701 133.268 339.701 133.26 339.7C133.26 339.7 133.256 339.704 133.249 339.703C130.811 339.564 128.013 338.768 126.481 336.763C125.834 335.717 125.954 334.235 126.705 333.266C127.556 332.258 129.04 332.167 130.261 332.33C132.913 332.663 137.28 334.514 137.782 337.415C137.766 337.538 137.739 337.648 137.705 337.758C137.874 337.309 138.096 336.875 138.37 336.478C139.359 335.062 140.76 333.677 142.592 333.646C145.919 333.481 150.284 336.867 148.122 340.365C147.335 341.899 145.624 343.009 143.874 342.686C143.403 342.556 143.018 342.17 142.857 341.713C143.018 341.602 143.224 341.527 143.407 341.457C144.327 341.229 145.181 341.436 145.88 340.66C147.47 338.653 146.229 336.332 143.918 335.726C141.605 334.898 139.855 337.333 139.539 339.368C139.303 341.133 140.181 342.975 141.805 343.765C143.859 344.922 146.698 344.954 148.504 343.323C150.657 340.657 150.129 337.041 149.401 333.947C149.076 332.726 148.403 331.627 147.761 330.555C147.593 330.139 146.837 329.32 146.477 328.649C146.407 328.56 146.334 328.467 146.269 328.375C144.834 326.253 143.82 323.702 144.157 321.101C144.405 317.719 145.653 314.518 148.242 312.242C150.008 310.754 152.14 309.276 154.437 308.771C151.122 306.79 148.103 304.162 145.464 300.93C142.253 297.25 139.509 292.926 137.665 288.296C137.321 289.219 136.766 290.061 136.21 290.768C133.584 294.049 129.901 296.446 125.715 296.996C121.031 297.642 115.731 296.106 113.035 292.011C112.731 291.562 112.461 291.105 112.23 290.647C106.518 285.929 96.8158 293.836 103.301 299.628C104.722 300.599 106.529 300.042 107.812 299.096C109.748 297.61 109.329 294.57 107.3 293.371C106.841 293.048 106.297 293.312 105.831 293.448C104.961 293.701 104.522 294.497 103.835 295.005C103.719 295.105 103.571 295.272 103.401 295.263C103.241 295.258 103.079 295.147 102.963 295.044C102.211 294.31 102.645 293.066 103.363 292.47C104.499 291.501 106.213 290.876 107.679 291.355C110.273 292.495 111.763 295.76 110.711 298.433C109.67 301.119 106.4 302.626 103.65 301.958C102.067 301.579 100.852 300.351 100.023 299.007C96.0938 292.239 104.941 284.667 111.375 288.265C109.781 281.176 116.156 274.056 124.03 275.566C127.103 276.241 129.168 279.356 129.533 282.349C130.077 286.371 126.647 290.416 122.486 289.789C117.888 289.158 115.083 283.913 119.319 280.751C120.743 279.928 123.623 279.701 124.506 281.391C124.714 281.901 124.68 282.532 124.204 282.859C124.183 282.858 124.158 282.845 124.14 282.84C123.486 282.786 122.997 282.334 122.384 282.211C120.659 281.879 119.352 283.318 119.35 284.97C120.07 288.077 124.408 289.052 126.255 286.359C127.724 284.503 127.7 281.867 126.621 279.846C124.673 276.197 119.663 277.056 116.879 279.215C112.517 282.316 112.26 288.729 115.898 292.488C118.998 295.635 124.031 295.805 127.991 294.394C130.651 293.341 132.836 291.46 134.629 289.272C135.495 288.178 136.278 286.972 136.544 285.58C136.569 285.498 136.589 285.42 136.62 285.346C134.67 278.969 134.512 272.175 137.195 265.81C140.919 256.632 149.01 249.857 158.051 246.181C168.127 241.577 179.272 240.558 190.219 240.601C195.812 240.547 201.399 240.701 206.99 240.749C208.733 240.755 210.488 240.736 212.221 240.81C212.751 240.876 213.439 240.725 213.816 241.172C214.663 240.364 215.263 241.559 215.257 242.363C214.911 244.843 214.33 247.302 213.915 249.78C213.264 253.354 212.674 256.943 211.976 260.51C210.915 265.922 209.599 271.29 208.235 276.632C206.592 282.902 204.766 289.188 201.701 294.935C196.655 304.361 187.047 311.37 176.416 312.854C169.346 313.918 162.627 312.918 156.722 310.015C156.055 310.128 155.378 310.222 154.756 310.512C151.248 312.042 148.046 314.817 146.894 318.563C145.641 322.39 146.36 325.795 149.226 328.67C151.968 331.629 156.256 333.845 160.282 332.479C166.178 330.306 165.056 322.264 159.992 319.789C157.511 318.599 154.41 320.8 154.615 323.511C155.128 327.221 159.996 326.356 157.904 322.642C157.66 322.081 157.833 321.716 158.408 321.527C159.744 321.083 160.867 322.432 160.929 323.677C161.019 330.163 152.537 329.708 152.085 323.667C151.842 320.422 154.647 317.278 157.911 317.214C160.774 317.076 163.231 319.018 164.76 321.288C166.743 324.048 167.209 327.947 165.397 330.908C163.238 334.844 158.129 335.658 154.151 334.354C153.306 334.078 152.49 333.71 151.712 333.276C152.036 334.134 152.255 335.02 152.352 335.897C152.642 338.204 152.864 340.677 151.692 342.784L151.699 342.778Z" fill="#B05C17"/>
<path d="M138.796 325.796C139.281 327.74 136.968 329.015 135.442 329.615C133.129 330.402 130.239 330.713 128.078 329.431C127.082 328.704 126.641 327.284 126.971 326.109C127.379 324.852 128.723 324.212 129.915 323.907C132.499 323.224 137.241 323.298 138.796 325.803L138.796 325.796Z" fill="#B05C17"/>
<path d="M130.998 317.111C129.29 318.854 126.848 320.428 124.337 320.251C123.123 320.049 122.088 318.977 121.852 317.78C121.653 316.477 122.565 315.295 123.493 314.486C125.491 312.71 129.76 310.649 132.28 312.184C133.583 313.703 132.1 315.874 131.006 317.097L130.999 317.103L130.998 317.111Z" fill="#B05C17"/>
<path d="M123.522 308.186C123.116 310.596 122.01 313.31 119.834 314.61C118.721 315.132 117.262 314.85 116.385 313.993C115.479 313.033 115.557 311.547 115.859 310.355C116.49 307.759 118.817 303.625 121.766 303.454C123.689 303.953 123.719 306.557 123.526 308.183L123.522 308.186Z" fill="#B05C17"/>
<path d="M112.732 312.202C111.895 313.109 110.437 313.387 109.304 312.926C108.105 312.38 107.612 310.971 107.451 309.75C107.063 307.109 107.67 302.404 110.335 301.137C112.323 300.878 113.326 303.323 113.751 304.905C114.275 307.288 114.253 310.193 112.732 312.202Z" fill="#B05C17"/>
<path d="M105.23 313.04C104.775 314.187 103.515 314.971 102.291 314.947C100.976 314.865 100.012 313.725 99.4209 312.651C98.107 310.324 96.9892 305.713 99.0223 303.576C100.768 302.625 102.571 304.513 103.54 305.831C104.89 307.869 105.933 310.605 105.227 313.036L105.23 313.04Z" fill="#B05C17"/>
<path d="M98.7649 316.25C99.0444 317.45 98.4564 318.813 97.4369 319.492C96.3077 320.177 94.8714 319.788 93.7671 319.241C91.3637 318.079 87.8135 314.927 88.2687 312.015C89.1613 310.235 91.7223 310.761 93.275 311.295C95.5486 312.203 97.9583 313.853 98.7649 316.25Z" fill="#B05C17"/>
<path d="M94.8987 326.185C94.1087 327.241 92.6287 327.423 91.4061 327.33C88.7385 327.151 84.2683 325.566 83.5961 322.695C83.7575 320.725 86.2973 320.242 87.9304 320.152C87.9376 320.152 87.9449 320.153 87.956 320.15C90.4054 320.137 93.2642 320.766 94.9184 322.686C95.6273 323.694 95.5937 325.183 94.9021 326.189L94.8987 326.185Z" fill="#B05C17"/>
<path d="M94.9457 333.188C94.651 334.475 93.3706 335.236 92.2151 335.646C89.7039 336.564 84.9767 336.917 83.1953 334.565C82.5426 332.678 84.7185 331.196 86.1754 330.46C88.405 329.466 91.2647 328.891 93.5395 329.974C94.597 330.608 95.1687 331.983 94.9424 333.184L94.9457 333.188Z" fill="#B05C17"/>
<path d="M96.7394 342.729C94.9032 344.67 90.8288 347.099 88.1894 345.788C86.7536 344.39 88.0493 342.095 89.0262 340.784L89.034 340.777C90.582 338.894 92.879 337.112 95.3963 337.068C96.6261 337.162 97.7484 338.139 98.0879 339.314C98.3975 340.597 97.5925 341.849 96.7389 342.737L96.7394 342.729Z" fill="#B05C17"/>
<path d="M103.563 347.994C102.46 350.427 99.4109 354.058 96.4816 353.685C94.6727 352.838 95.1397 350.247 95.6368 348.691C95.6285 348.705 95.6274 348.72 95.619 348.734L95.6418 348.674C96.493 346.388 98.0757 343.955 100.442 343.081C101.633 342.768 103.014 343.321 103.719 344.324C104.431 345.437 104.081 346.88 103.566 347.998L103.563 347.994Z" fill="#B05C17"/>
<path d="M112.221 348.656C112.705 351.283 112.264 356.008 109.646 357.369C107.682 357.703 106.587 355.316 106.102 353.751C105.49 351.383 105.4 348.466 106.853 346.401C107.656 345.462 109.103 345.133 110.254 345.551C111.47 346.055 112.012 347.443 112.221 348.656Z" fill="#B05C17"/>
<path d="M121.021 354.814C119.319 355.862 117.409 354.054 116.374 352.785L116.364 352.774C114.917 350.811 113.744 348.153 114.314 345.697C114.705 344.53 115.924 343.674 117.149 343.636C118.465 343.65 119.488 344.732 120.136 345.778C121.568 348.03 122.935 352.577 121.017 354.817L121.021 354.814Z" fill="#B05C17"/>
<path d="M130.295 348.849C128.942 350.314 126.62 349.089 125.28 348.15C123.35 346.649 121.496 344.394 121.387 341.872C121.455 340.644 122.394 339.493 123.561 339.127C124.835 338.784 126.107 339.558 127.015 340.388C129 342.173 131.535 346.183 130.294 348.856L130.295 348.849Z" fill="#B05C17"/>
<path d="M101.853 338.172C108.872 345.02 120.971 341.505 123.281 332.026C125.745 322.537 116.853 313.767 107.433 316.355C97.7973 318.912 94.6479 331.336 101.846 338.172L101.853 338.172ZM124.319 334.962C119.936 345.064 106.021 346.811 99.2346 338.162C92.6417 329.975 96.7782 317.441 106.92 314.781C118.833 311.514 129.331 323.691 124.312 334.961L124.319 334.962Z" fill="#B05C17"/>
<path d="M114.546 333.932C114.776 333.734 114.996 333.526 115.205 333.305C115.392 333.097 115.565 332.881 115.724 332.657C115.868 332.439 116.002 332.216 116.124 331.989C116.237 331.758 116.346 331.522 116.441 331.278C116.525 331.037 116.597 330.799 116.659 330.557C116.716 330.292 116.762 330.03 116.789 329.763C116.809 329.502 116.822 329.241 116.82 328.979C116.811 328.716 116.783 328.456 116.745 328.198C116.697 327.922 116.634 327.644 116.586 327.47C116.578 327.436 116.565 327.406 116.554 327.369C116.472 327.108 116.371 326.857 116.263 326.605C116.137 326.34 115.997 326.082 115.864 325.872C115.773 325.727 115.697 325.583 115.625 325.428C115.613 325.398 115.6 325.368 115.588 325.338C115.579 325.319 115.57 325.293 115.564 325.278C115.54 325.203 115.517 325.129 115.493 325.054C115.452 325.022 115.415 324.986 115.378 324.951C115.071 324.673 114.805 324.354 114.495 324.079C114.31 323.92 114.118 323.767 113.918 323.628C113.686 323.468 113.45 323.319 113.202 323.188C113.181 323.179 113.167 323.17 113.15 323.158C113.15 323.158 113.15 323.158 113.146 323.154C113.033 323.116 112.919 323.086 112.801 323.051C112.673 323.013 112.537 322.98 112.409 322.949C112.148 322.889 111.886 322.843 111.626 322.816L111.611 322.815C111.25 322.78 110.891 322.771 110.53 322.776C110.195 322.787 109.854 322.816 109.523 322.87C109.272 322.917 109.02 322.97 108.775 323.039C108.525 323.118 108.275 323.204 108.034 323.31C107.811 323.413 107.594 323.538 107.388 323.668C107.106 323.843 106.836 324.033 106.599 324.23C106.393 324.407 106.197 324.596 106.01 324.796C105.82 325.007 105.64 325.222 105.477 325.45C105.325 325.668 105.192 325.89 105.065 326.121C105.061 326.124 105.057 326.135 105.056 326.142C104.932 326.383 104.826 326.63 104.727 326.884C104.635 327.139 104.56 327.399 104.496 327.664C104.452 327.864 104.419 328.061 104.396 328.263C104.374 328.498 104.367 328.734 104.368 328.971C104.379 329.244 104.41 329.516 104.444 329.784C104.5 330.094 104.564 330.404 104.653 330.706C104.741 330.989 104.843 331.266 104.961 331.537C105.083 331.797 105.217 332.048 105.365 332.292C105.528 332.545 105.702 332.787 105.892 333.023C106.075 333.238 106.275 333.438 106.478 333.636C106.693 333.823 106.912 334 107.136 334.166C107.375 334.326 107.621 334.48 107.877 334.612C108.101 334.724 108.33 334.825 108.563 334.915C108.801 334.995 109.042 335.072 109.282 335.13C109.561 335.188 109.841 335.239 110.126 335.271C110.386 335.291 110.647 335.304 110.909 335.302C111.176 335.289 111.443 335.263 111.712 335.229C111.966 335.186 112.218 335.125 112.463 335.057C112.739 334.969 113.012 334.869 113.283 334.752C113.476 334.661 113.658 334.559 113.841 334.449C114.09 334.29 114.325 334.122 114.553 333.939L114.546 333.932ZM118.116 333.64C117.322 334.936 116.189 336.003 114.844 336.712C113.373 337.487 111.695 337.879 110.032 337.738C108.879 337.639 107.791 337.316 106.764 336.797C105.813 336.295 104.955 335.619 104.257 334.805C103.853 334.334 103.5 333.812 103.218 333.256C102.57 331.98 102.207 330.541 102.305 329.104C102.393 327.867 102.65 326.639 103.205 325.52C103.743 324.43 104.492 323.476 105.324 322.783C105.659 322.495 106.016 322.242 106.391 322.009C106.676 321.838 106.979 321.694 107.28 321.557L107.306 321.548C107.574 321.426 107.855 321.313 108.132 321.218C108.184 321.2 108.236 321.182 108.289 321.164C108.356 321.14 108.431 321.117 108.501 321.097C108.591 321.067 108.68 321.045 108.769 321.023C108.791 321.017 108.809 321.015 108.824 321.009C108.925 320.984 109.021 320.962 109.117 320.94C109.217 320.915 109.317 320.897 109.416 320.879L109.439 320.874C109.538 320.856 109.641 320.842 109.741 320.824C109.827 320.791 109.913 320.765 110.002 320.742C110.042 320.734 110.087 320.723 110.127 320.715C110.168 320.708 110.216 320.7 110.26 320.696C110.352 320.685 110.447 320.678 110.531 320.673C110.608 320.668 110.688 320.667 110.764 320.669C110.822 320.667 110.877 320.667 110.935 320.672C110.993 320.676 111.047 320.677 111.105 320.681C111.431 320.699 111.758 320.749 112.08 320.825L112.084 320.821C112.113 320.823 112.135 320.825 112.16 320.831C112.214 320.838 112.268 320.846 112.318 320.85C112.379 320.858 112.444 320.87 112.508 320.883C112.839 320.937 113.161 321.013 113.485 321.106C113.581 321.132 113.677 321.165 113.772 321.197C113.804 321.211 113.836 321.217 113.85 321.225C114.229 321.36 114.589 321.511 114.942 321.694C115.747 322.112 116.497 322.679 117.112 323.348C117.205 323.457 117.295 323.562 117.389 323.671C117.412 323.698 117.439 323.729 117.462 323.764C117.501 323.818 117.544 323.876 117.583 323.937C117.613 323.979 117.639 324.017 117.665 324.063L117.671 324.071C117.671 324.071 117.675 324.075 117.678 324.079C117.763 324.161 117.843 324.255 117.919 324.352C118.114 324.603 118.27 324.902 118.412 325.186C118.443 325.254 118.478 325.318 118.509 325.386C118.541 325.454 118.572 325.522 118.6 325.586C118.625 325.639 118.646 325.688 118.668 325.744C118.705 325.827 118.738 325.913 118.772 325.992C118.779 326 118.778 326.014 118.785 326.022L118.83 326.138C119.109 326.873 119.282 327.657 119.342 328.444C119.484 330.256 119.06 332.093 118.108 333.647L118.116 333.64Z" fill="#B05C17"/>
<path d="M278.084 195.165C277.426 195.785 276.346 195.724 275.499 195.863C272.219 196.217 267.815 195.44 266.382 192.093C265.901 190.87 266.602 188.592 267.878 187.896C268.081 187.755 268.297 187.644 268.526 187.556C268.931 187.398 269.362 187.325 269.785 187.314C269.854 187.308 269.919 187.313 269.988 187.315C270.075 187.322 270.167 187.318 270.25 187.32C270.428 187.33 270.597 187.347 270.774 187.371C270.996 187.41 271.222 187.46 271.434 187.534C273.85 188.105 275.945 191.12 277.236 192.925C277.571 193.591 278.514 194.391 278.084 195.165Z" fill="#B05C17"/>
<path d="M284.078 184.639C283.647 185.428 282.596 185.708 281.835 186.105C278.829 187.454 274.4 188.084 271.997 185.347C271.158 184.33 271.122 181.947 272.122 180.892C272.275 180.7 272.446 180.521 272.639 180.368C272.977 180.092 273.363 179.888 273.76 179.744C273.823 179.724 273.887 179.703 273.954 179.686C274.039 179.66 274.122 179.63 274.207 179.611C274.374 179.569 274.548 179.528 274.717 179.497C274.938 179.463 275.169 179.441 275.398 179.447C277.873 179.243 280.796 181.46 282.58 182.775C283.107 183.303 284.25 183.768 284.078 184.639Z" fill="#B05C17"/>
<path d="M286.791 174.07C286.525 174.934 285.554 175.409 284.887 175.948C282.209 177.868 277.991 179.365 275.092 177.154C274.072 176.326 273.562 173.999 274.333 172.763C274.444 172.546 274.576 172.337 274.732 172.149C275.013 171.814 275.346 171.541 275.709 171.318C275.766 171.282 275.827 171.25 275.888 171.219C275.967 171.177 276.043 171.132 276.119 171.094C276.277 171.019 276.436 170.944 276.601 170.884C276.814 170.809 277.034 170.742 277.255 170.701C279.643 170.01 282.945 171.605 284.955 172.537C285.578 172.955 286.79 173.186 286.791 174.07Z" fill="#B05C17"/>
<path d="M288.598 164.692C288.332 165.555 287.361 166.031 286.694 166.569C284.016 168.489 279.798 169.986 276.9 167.775C275.879 166.948 275.365 164.616 276.14 163.384C276.248 163.163 276.383 162.959 276.539 162.771C276.812 162.435 277.15 162.159 277.513 161.935C277.57 161.9 277.631 161.868 277.691 161.836C277.771 161.795 277.847 161.75 277.923 161.712C278.081 161.637 278.243 161.565 278.404 161.501C278.614 161.423 278.837 161.36 279.059 161.319C281.444 160.624 284.749 162.222 286.759 163.154C287.378 163.569 288.594 163.804 288.595 164.688L288.598 164.692Z" fill="#B05C17"/>
<path d="M285.981 153.275C284.744 156.331 281.976 159.849 278.348 159.529C277.042 159.378 275.368 157.678 275.358 156.226C275.333 155.984 275.337 155.737 275.367 155.496C275.422 155.063 275.562 154.652 275.751 154.273C275.781 154.214 275.811 154.154 275.848 154.095C275.894 154.022 275.933 153.942 275.975 153.865C276.07 153.716 276.165 153.566 276.27 153.429C276.408 153.25 276.563 153.077 276.727 152.922C278.376 151.061 282.02 150.645 284.218 150.354C284.966 150.375 286.117 149.921 286.591 150.67C286.826 151.543 286.258 152.463 285.988 153.276L285.981 153.275Z" fill="#B05C17"/>
<path d="M273.091 157.279C272.823 157.604 272.499 157.896 272.118 158.114C271.908 158.24 271.686 158.343 271.451 158.416C270.119 158.991 267.889 158.133 267.226 156.999C265.481 153.799 267.601 149.857 269.905 147.501C270.539 146.923 271.159 146.039 272.05 145.903C272.927 146.043 272.971 147.276 273.283 147.955C273.899 150.083 274.973 153.596 273.929 155.844C273.85 156.06 273.754 156.271 273.645 156.466C273.557 156.616 273.462 156.765 273.363 156.911C273.31 156.983 273.254 157.051 273.205 157.12C273.165 157.176 273.124 157.231 273.08 157.282L273.091 157.279Z" fill="#B05C17"/>
<path d="M263.547 157.642C263.278 157.967 262.954 158.259 262.577 158.481C262.367 158.607 262.141 158.706 261.91 158.783C260.575 159.354 258.348 158.5 257.685 157.365C255.939 154.165 258.059 150.223 260.364 147.867C260.997 147.29 261.618 146.406 262.508 146.27C263.385 146.41 263.43 147.643 263.745 148.318C264.362 150.446 265.432 153.955 264.391 156.207C264.313 156.423 264.213 156.63 264.107 156.83C264.019 156.979 263.924 157.129 263.826 157.274C263.777 157.343 263.717 157.415 263.668 157.484C263.627 157.539 263.583 157.59 263.543 157.645L263.547 157.642Z" fill="#B05C17"/>
<path d="M254.139 159.307C253.959 159.475 253.759 159.613 253.546 159.735C252.351 160.564 249.999 160.163 249.124 159.183C246.779 156.395 248.071 152.11 249.868 149.344C250.376 148.652 250.808 147.659 251.654 147.352C252.54 147.314 252.827 148.515 253.269 149.116C254.298 151.079 256.045 154.305 255.468 156.72C255.436 156.951 255.379 157.168 255.315 157.385C255.258 157.555 255.196 157.711 255.125 157.873C255.09 157.95 255.044 158.03 255.012 158.112C254.982 158.171 254.956 158.235 254.926 158.294C254.723 158.664 254.463 159.015 254.139 159.307Z" fill="#B05C17"/>
<path d="M245.977 162.864C245.096 164.019 242.738 164.367 241.602 163.705C238.508 161.777 238.413 157.303 239.259 154.122C239.529 153.309 239.63 152.229 240.341 151.673C241.169 151.361 241.816 152.415 242.427 152.85C244.015 154.401 246.674 156.925 246.875 159.404C246.912 159.629 246.931 159.856 246.936 160.081C246.933 160.259 246.924 160.43 246.906 160.607C246.9 160.694 246.879 160.779 246.868 160.869C246.863 160.934 246.85 161.006 246.838 161.071C246.763 161.487 246.626 161.902 246.408 162.279C246.286 162.491 246.14 162.691 245.973 162.867L245.977 162.864Z" fill="#B05C17"/>
<path d="M240.012 167.171C239.887 168.616 238.08 170.174 236.763 170.222C233.116 170.249 230.647 166.521 229.661 163.372C229.452 162.537 228.962 161.572 229.27 160.726C229.804 160.017 230.916 160.564 231.662 160.607C233.831 161.071 237.43 161.782 238.922 163.766C239.081 163.934 239.212 164.119 239.336 164.303C239.43 164.452 239.513 164.604 239.592 164.759C239.634 164.839 239.664 164.921 239.705 165.001C239.737 165.061 239.761 165.121 239.789 165.185C239.948 165.576 240.054 165.999 240.072 166.437C240.086 166.681 240.064 166.924 240.023 167.168L240.012 167.171Z" fill="#B05C17"/>
<path d="M235.618 176.694C235.467 176.865 235.292 177.015 235.107 177.146C234.776 177.383 234.407 177.544 234.025 177.649C233.965 177.667 233.902 177.68 233.839 177.693C233.758 177.709 233.676 177.732 233.599 177.751C233.44 177.779 233.278 177.803 233.117 177.82C232.908 177.837 232.693 177.839 232.483 177.823C230.171 177.846 227.604 175.595 226.029 174.256C225.575 173.726 224.544 173.218 224.761 172.424C225.215 171.716 226.208 171.534 226.938 171.211C229.824 170.154 233.975 169.864 236.028 172.571C236.741 173.568 236.615 175.784 235.622 176.698L235.618 176.694Z" fill="#B05C17"/>
<path d="M236.047 185.316C235.981 185.373 235.915 185.43 235.849 185.487C235.71 185.593 235.571 185.698 235.425 185.796C235.237 185.917 235.039 186.032 234.829 186.118C232.668 187.31 229.111 186.489 226.956 186.027C226.26 185.759 225.034 185.803 224.838 184.944C224.906 184.047 225.744 183.369 226.271 182.7C228.448 180.251 232.21 177.875 235.511 179.382C236.685 179.963 237.689 182.109 237.21 183.473C237.149 183.709 237.069 183.939 236.958 184.156C236.765 184.545 236.495 184.885 236.196 185.175C236.146 185.218 236.098 185.266 236.044 185.305L236.047 185.316Z" fill="#B05C17"/>
<path d="M240.962 193.187C239.332 195.045 235.708 195.478 233.525 195.769C232.784 195.756 231.64 196.211 231.165 195.469C230.929 194.604 231.487 193.686 231.756 192.873C232.971 189.83 235.705 186.32 239.317 186.622C240.619 186.768 242.291 188.449 242.305 189.891C242.33 190.133 242.33 190.377 242.3 190.618C242.25 191.047 242.116 191.459 241.927 191.838C241.897 191.897 241.867 191.957 241.83 192.016C241.784 192.089 241.746 192.17 241.703 192.246C241.612 192.392 241.517 192.541 241.412 192.679C241.275 192.858 241.127 193.032 240.962 193.187Z" fill="#B05C17"/>
<path d="M248.745 197.836C247.982 200.201 244.811 202.044 242.916 203.191C242.221 203.476 241.35 204.352 240.616 203.859C240.052 203.154 240.199 202.081 240.122 201.227C240.032 197.932 241.148 193.6 244.606 192.438C245.865 192.054 248.075 192.936 248.672 194.262C248.794 194.475 248.89 194.704 248.955 194.938C249.08 195.352 249.12 195.791 249.099 196.208C249.097 196.277 249.088 196.346 249.079 196.414C249.069 196.504 249.065 196.595 249.055 196.678C249.028 196.85 249 197.023 248.958 197.194C248.901 197.412 248.837 197.629 248.741 197.84L248.745 197.836Z" fill="#B05C17"/>
<path d="M255.053 206.093C254.572 206.667 254.213 207.848 253.332 207.759C252.505 207.401 252.131 206.383 251.669 205.663C250.051 202.793 249.019 198.44 251.531 195.797C252.464 194.868 254.837 194.616 255.977 195.511C256.185 195.643 256.373 195.8 256.545 195.976C256.846 196.287 257.091 196.651 257.265 197.035C257.289 197.096 257.321 197.156 257.345 197.223C257.375 197.306 257.413 197.389 257.447 197.468C257.507 197.632 257.56 197.796 257.605 197.967C257.657 198.186 257.702 198.411 257.714 198.638C258.142 201.082 256.205 204.198 255.06 206.093L255.053 206.093Z" fill="#B05C17"/>
<path d="M267.939 202.391C267.867 203.135 268.236 204.313 267.458 204.737C266.571 204.91 265.692 204.278 264.902 203.949C261.943 202.493 258.632 199.487 259.209 195.889C259.453 194.598 261.267 193.048 262.718 193.141C262.963 193.134 263.209 193.153 263.448 193.204C263.875 193.291 264.28 193.457 264.642 193.673C264.698 193.707 264.757 193.744 264.812 193.785C264.884 193.837 264.961 193.88 265.034 193.933C265.175 194.034 265.313 194.139 265.446 194.255C265.613 194.402 265.775 194.568 265.918 194.742C267.652 196.519 267.809 200.184 267.938 202.398L267.939 202.391Z" fill="#B05C17"/>
<path d="M255.474 190.75C258.768 190.405 261.392 188.052 263.474 185.657C268.37 179.042 270.233 170.744 271.615 162.791C263.904 162.824 255.644 162.085 248.611 165.855C244.246 168.181 241.388 172.824 241.165 177.747C240.872 180.784 242.318 183.612 244.424 185.719C247.242 188.696 251.247 191.126 255.478 190.747L255.474 190.75ZM265.134 186.929C262.713 189.67 259.59 192.16 255.869 192.636C249.265 193.314 242.669 188.55 239.894 182.772C237.349 176.073 241.092 167.933 247.222 164.6C254.12 160.782 264.323 160.855 271.97 161.858C272.125 161.542 272.369 161.164 272.708 161.063C274.026 161.898 273.64 163.717 273.453 165.019C273.007 168.052 272.336 171.075 271.411 173.991C269.918 178.538 268.153 183.169 265.13 186.933L265.134 186.929Z" fill="#B05C17"/>
<path d="M242.463 208.846C256.321 214.793 270.318 210.048 279.772 198.874C283.561 193.899 285.772 187.905 287.651 182.02C289.774 174.939 291.477 167.731 292.976 160.489C294.214 154.33 295.145 148.089 296.608 141.987C279.694 143.515 261.918 140.146 245.696 146.427C236.14 149.849 227.156 156.206 222.972 165.692C217.693 177.043 222.455 189.863 230.061 198.924C233.475 203.099 237.614 206.639 242.467 208.843L242.463 208.846ZM235.071 242.81C232.567 247.785 225.418 247.505 221.973 243.728C220.676 242.137 220.37 239.858 221.03 237.933C220.429 239.47 218.149 239.736 216.658 239.731C216.658 239.731 216.658 239.731 216.647 239.734C216.647 239.734 216.639 239.733 216.632 239.733C216.632 239.733 216.628 239.736 216.621 239.736C214.183 239.597 211.384 238.801 209.853 236.796C209.205 235.75 209.326 234.267 210.076 233.299C210.928 232.291 212.412 232.2 213.633 232.363C216.285 232.696 220.652 234.546 221.154 237.448C221.137 237.57 221.111 237.681 221.077 237.791C221.246 237.342 221.468 236.908 221.742 236.51C222.731 235.094 224.132 233.71 225.964 233.679C229.291 233.514 233.656 236.9 231.494 240.398C230.707 241.932 228.996 243.042 227.246 242.719C226.775 242.588 226.39 242.202 226.228 241.746C226.39 241.635 226.596 241.56 226.779 241.49C227.699 241.262 228.552 241.469 229.252 240.693C230.842 238.686 229.601 236.365 227.289 235.759C224.977 234.931 223.227 237.366 222.911 239.401C222.675 241.166 223.553 243.008 225.177 243.798C227.231 244.955 230.07 244.986 231.875 243.356C234.029 240.69 233.501 237.073 232.773 233.98C232.448 232.758 231.775 231.659 231.133 230.588C230.965 230.171 230.209 229.353 229.849 228.682C229.779 228.593 229.706 228.5 229.641 228.408C228.205 226.286 227.192 223.735 227.529 221.134C227.776 217.751 229.025 214.551 231.614 212.274C233.38 210.787 235.512 209.309 237.809 208.804C234.493 206.822 231.474 204.194 228.836 200.963C225.625 197.283 222.881 192.959 221.037 188.329C220.693 189.252 220.138 190.094 219.582 190.801C216.956 194.082 213.273 196.478 209.087 197.028C204.403 197.675 199.103 196.139 196.407 192.044C196.103 191.595 195.832 191.138 195.602 190.68C189.89 185.962 180.188 193.869 186.672 199.661C188.093 200.632 189.9 200.075 191.184 199.129C193.12 197.643 192.701 194.602 190.672 193.403C190.212 193.081 189.668 193.345 189.203 193.48C188.333 193.734 187.894 194.53 187.207 195.038C187.09 195.138 186.943 195.305 186.773 195.296C186.613 195.291 186.451 195.18 186.335 195.077C185.583 194.343 186.016 193.099 186.735 192.502C187.871 191.534 189.585 190.908 191.051 191.388C193.645 192.528 195.135 195.792 194.083 198.466C193.042 201.151 189.772 202.659 187.022 201.991C185.439 201.611 184.223 200.384 183.395 199.04C179.466 192.271 188.313 184.699 194.747 188.297C193.152 181.209 199.528 174.088 207.402 175.599C210.475 176.274 212.54 179.389 212.905 182.382C213.449 186.404 210.019 190.449 205.857 189.822C201.26 189.191 198.455 183.946 202.691 180.784C204.115 179.961 206.995 179.733 207.877 181.423C208.086 181.934 208.052 182.565 207.576 182.892C207.554 182.89 207.53 182.878 207.512 182.873C206.858 182.819 206.368 182.367 205.756 182.244C204.031 181.912 202.724 183.351 202.722 185.003C203.442 188.11 207.78 189.085 209.626 186.392C211.096 184.536 211.072 181.9 209.993 179.879C208.045 176.23 203.035 177.088 200.251 179.248C195.889 182.349 195.632 188.761 199.27 192.521C202.37 195.668 207.403 195.837 211.363 194.426C214.023 193.374 216.207 191.493 218.001 189.305C218.866 188.21 219.65 187.004 219.916 185.613C219.94 185.531 219.961 185.453 219.992 185.379C218.041 179.001 217.883 172.208 220.567 165.843C224.291 156.664 232.382 149.89 241.423 146.214C251.499 141.61 262.644 140.591 273.591 140.633C279.183 140.58 284.771 140.734 290.362 140.782C292.104 140.788 293.859 140.769 295.593 140.843C296.122 140.909 296.811 140.758 297.188 141.205C298.035 140.397 298.635 141.592 298.628 142.396C298.283 144.876 297.702 147.334 297.287 149.813C296.636 153.387 296.046 156.976 295.348 160.543C294.287 165.955 292.971 171.323 291.607 176.665C289.964 182.935 288.138 189.22 285.072 194.967C280.027 204.394 270.419 211.402 259.788 212.886C252.718 213.951 245.998 212.95 240.094 210.048C239.427 210.16 238.75 210.254 238.127 210.545C234.62 212.075 231.418 214.85 230.266 218.596C229.013 222.422 229.732 225.828 232.598 228.702C235.34 231.662 239.628 233.878 243.654 232.512C249.55 230.339 248.428 222.297 243.364 219.822C240.883 218.632 237.782 220.833 237.986 223.544C238.5 227.254 243.368 226.389 241.276 222.675C241.032 222.114 241.205 221.749 241.78 221.56C243.116 221.116 244.239 222.464 244.3 223.709C244.391 230.196 235.909 229.741 235.457 223.7C235.214 220.455 238.018 217.311 241.283 217.247C244.146 217.109 246.602 219.05 248.132 221.321C250.115 224.081 250.581 227.98 248.769 230.941C246.609 234.876 241.501 235.691 237.523 234.386C236.678 234.111 235.862 233.743 235.084 233.309C235.407 234.167 235.627 235.053 235.724 235.93C236.013 238.237 236.236 240.709 235.064 242.817L235.071 242.81Z" fill="#B05C17"/>
<path d="M222.168 225.829C222.653 227.772 220.34 229.047 218.813 229.647C216.501 230.435 213.611 230.745 211.449 229.463C210.454 228.736 210.013 227.316 210.342 226.141C210.751 224.884 212.095 224.245 213.286 223.939C215.871 223.256 220.613 223.331 222.168 225.836L222.168 225.829Z" fill="#B05C17"/>
<path d="M214.37 217.143C212.662 218.887 210.22 220.461 207.709 220.284C206.495 220.082 205.46 219.01 205.224 217.813C205.025 216.51 205.937 215.328 206.865 214.519C208.863 212.743 213.131 210.682 215.652 212.217C216.955 213.735 215.472 215.907 214.378 217.129L214.37 217.136L214.37 217.143Z" fill="#B05C17"/>
<path d="M206.894 208.219C206.488 210.629 205.382 213.342 203.206 214.642C202.093 215.165 200.633 214.883 199.757 214.026C198.851 213.066 198.928 211.58 199.23 210.388C199.862 207.791 202.189 203.658 205.138 203.486C207.061 203.986 207.091 206.59 206.898 208.216L206.894 208.219Z" fill="#B05C17"/>
<path d="M196.104 212.234C195.267 213.142 193.808 213.42 192.676 212.959C191.477 212.412 190.984 211.003 190.823 209.783C190.435 207.141 191.042 202.436 193.707 201.17C195.695 200.911 196.698 203.356 197.123 204.938C197.647 207.321 197.625 210.226 196.104 212.234Z" fill="#B05C17"/>
<path d="M188.602 213.072C188.147 214.22 186.887 215.004 185.662 214.98C184.348 214.898 183.384 213.758 182.793 212.683C181.479 210.357 180.361 205.746 182.394 203.609C184.14 202.658 185.942 204.545 186.911 205.864C188.262 207.902 189.305 210.638 188.599 213.068L188.602 213.072Z" fill="#B05C17"/>
<path d="M182.137 216.283C182.416 217.483 181.828 218.846 180.809 219.525C179.68 220.21 178.243 219.82 177.139 219.274C174.736 218.112 171.185 214.959 171.64 212.047C172.533 210.267 175.094 210.794 176.647 211.327C178.92 212.236 181.33 213.886 182.137 216.283Z" fill="#B05C17"/>
<path d="M178.271 226.217C177.48 227.274 176 227.456 174.778 227.362C172.11 227.184 167.64 225.599 166.968 222.728C167.129 220.757 169.669 220.275 171.302 220.185C171.309 220.185 171.317 220.186 171.328 220.183C173.777 220.17 176.636 220.799 178.29 222.719C178.999 223.726 178.966 225.215 178.274 226.221L178.271 226.217Z" fill="#B05C17"/>
<path d="M178.318 233.221C178.023 234.508 176.742 235.269 175.587 235.679C173.076 236.597 168.349 236.949 166.567 234.598C165.914 232.71 168.09 231.229 169.547 230.492C171.777 229.498 174.637 228.923 176.911 230.007C177.969 230.64 178.541 232.015 178.314 233.217L178.318 233.221Z" fill="#B05C17"/>
<path d="M180.111 242.762C178.275 244.703 174.201 247.131 171.561 245.82C170.125 244.423 171.421 242.128 172.398 240.816L172.406 240.809C173.954 238.927 176.251 237.145 178.768 237.1C179.998 237.194 181.12 238.171 181.46 239.347C181.769 240.629 180.964 241.881 180.111 242.769L180.111 242.762Z" fill="#B05C17"/>
<path d="M186.935 248.027C185.832 250.46 182.783 254.091 179.853 253.718C178.045 252.871 178.512 250.28 179.009 248.724C179 248.738 178.999 248.753 178.991 248.766L179.014 248.706C179.865 246.421 181.448 243.988 183.814 243.114C185.005 242.801 186.386 243.354 187.091 244.357C187.803 245.47 187.453 246.913 186.938 248.031L186.935 248.027Z" fill="#B05C17"/>
<path d="M195.593 248.689C196.076 251.316 195.636 256.041 193.018 257.402C191.053 257.735 189.959 255.349 189.474 253.784C188.862 251.416 188.772 248.499 190.224 246.434C191.027 245.495 192.475 245.165 193.625 245.584C194.842 246.088 195.384 247.476 195.593 248.689Z" fill="#B05C17"/>
<path d="M204.393 254.846C202.691 255.895 200.78 254.087 199.746 252.818L199.736 252.806C198.288 250.844 197.116 248.186 197.686 245.73C198.077 244.563 199.295 243.707 200.521 243.669C201.837 243.682 202.86 244.765 203.508 245.811C204.94 248.063 206.307 252.609 204.389 254.85L204.393 254.846Z" fill="#B05C17"/>
<path d="M213.667 248.882C212.314 250.347 209.992 249.122 208.652 248.183C206.722 246.682 204.868 244.427 204.759 241.904C204.827 240.676 205.766 239.526 206.933 239.16C208.207 238.817 209.479 239.591 210.387 240.42C212.372 242.205 214.907 246.215 213.666 248.889L213.667 248.882Z" fill="#B05C17"/>
<path d="M185.225 238.205C192.244 245.053 204.343 241.538 206.653 232.059C209.116 222.57 200.225 213.8 190.805 216.388C181.169 218.945 178.02 231.369 185.218 238.205L185.225 238.205ZM207.691 234.994C203.307 245.097 189.393 246.844 182.606 238.194C176.013 230.008 180.15 217.474 190.292 214.814C202.205 211.547 212.703 223.724 207.684 234.994L207.691 234.994Z" fill="#B05C17"/>
<path d="M197.918 233.964C198.148 233.767 198.368 233.558 198.577 233.338C198.764 233.13 198.937 232.914 199.096 232.69C199.24 232.472 199.373 232.249 199.496 232.022C199.609 231.79 199.718 231.555 199.813 231.311C199.896 231.07 199.969 230.832 200.031 230.589C200.088 230.324 200.133 230.062 200.161 229.795C200.181 229.535 200.194 229.274 200.192 229.012C200.183 228.749 200.155 228.489 200.117 228.231C200.069 227.954 200.006 227.677 199.958 227.502C199.949 227.469 199.937 227.439 199.925 227.401C199.843 227.141 199.743 226.889 199.635 226.637C199.509 226.373 199.369 226.115 199.236 225.905C199.145 225.759 199.069 225.615 198.997 225.461C198.984 225.431 198.972 225.401 198.96 225.37C198.95 225.352 198.942 225.325 198.935 225.31C198.912 225.236 198.889 225.161 198.865 225.087C198.824 225.055 198.787 225.019 198.749 224.983C198.443 224.705 198.176 224.387 197.866 224.112C197.682 223.952 197.49 223.799 197.29 223.66C197.058 223.501 196.822 223.352 196.574 223.22C196.553 223.211 196.539 223.203 196.522 223.191C196.522 223.191 196.522 223.191 196.518 223.187C196.405 223.149 196.291 223.118 196.173 223.084C196.045 223.045 195.909 223.013 195.781 222.981C195.52 222.921 195.258 222.876 194.998 222.849L194.983 222.848C194.622 222.813 194.263 222.804 193.902 222.809C193.567 222.82 193.226 222.848 192.895 222.903C192.644 222.949 192.392 223.003 192.147 223.071C191.897 223.151 191.647 223.237 191.406 223.342C191.183 223.445 190.966 223.571 190.76 223.7C190.477 223.875 190.208 224.066 189.971 224.262C189.765 224.439 189.569 224.628 189.382 224.829C189.192 225.04 189.011 225.255 188.849 225.483C188.697 225.7 188.564 225.923 188.437 226.153C188.433 226.157 188.429 226.167 188.428 226.175C188.304 226.416 188.198 226.663 188.099 226.917C188.007 227.172 187.932 227.432 187.868 227.696C187.824 227.896 187.791 228.094 187.768 228.296C187.746 228.531 187.739 228.767 187.739 229.003C187.751 229.277 187.781 229.549 187.816 229.817C187.872 230.127 187.936 230.437 188.025 230.739C188.113 231.022 188.215 231.299 188.333 231.57C188.455 231.83 188.589 232.08 188.737 232.325C188.9 232.577 189.074 232.82 189.264 233.056C189.447 233.27 189.647 233.471 189.85 233.668C190.065 233.856 190.284 234.032 190.508 234.199C190.747 234.359 190.993 234.512 191.249 234.645C191.473 234.756 191.702 234.857 191.935 234.948C192.173 235.028 192.414 235.105 192.653 235.163C192.933 235.221 193.213 235.271 193.498 235.304C193.758 235.324 194.019 235.336 194.281 235.334C194.548 235.322 194.815 235.295 195.083 235.261C195.338 235.219 195.59 235.158 195.835 235.089C196.111 235.001 196.384 234.902 196.655 234.784C196.848 234.694 197.03 234.591 197.213 234.481C197.462 234.322 197.696 234.155 197.925 233.972L197.918 233.964ZM201.488 233.673C200.694 234.969 199.561 236.036 198.215 236.744C196.745 237.52 195.067 237.912 193.404 237.77C192.251 237.672 191.162 237.348 190.136 236.83C189.185 236.328 188.327 235.651 187.629 234.838C187.224 234.366 186.871 233.845 186.59 233.288C185.942 232.013 185.579 230.574 185.677 229.137C185.765 227.899 186.022 226.671 186.577 225.553C187.115 224.463 187.864 223.508 188.696 222.815C189.03 222.528 189.388 222.275 189.762 222.042C190.048 221.871 190.35 221.726 190.652 221.589L190.678 221.58C190.946 221.459 191.227 221.346 191.504 221.251C191.556 221.233 191.608 221.215 191.66 221.197C191.728 221.173 191.802 221.15 191.873 221.13C191.963 221.1 192.052 221.078 192.141 221.055C192.163 221.05 192.181 221.048 192.196 221.041C192.296 221.016 192.393 220.995 192.489 220.973C192.589 220.948 192.689 220.93 192.788 220.912L192.81 220.906C192.91 220.889 193.013 220.875 193.113 220.857C193.199 220.823 193.284 220.797 193.374 220.775C193.414 220.767 193.459 220.756 193.499 220.748C193.54 220.74 193.588 220.733 193.632 220.729C193.723 220.718 193.819 220.711 193.903 220.706C193.979 220.701 194.06 220.7 194.136 220.702C194.194 220.699 194.249 220.7 194.307 220.704C194.364 220.709 194.419 220.709 194.477 220.714C194.803 220.731 195.13 220.782 195.452 220.857L195.456 220.854C195.485 220.856 195.506 220.858 195.531 220.863C195.585 220.871 195.639 220.879 195.69 220.883C195.751 220.891 195.816 220.903 195.88 220.915C196.211 220.97 196.533 221.045 196.856 221.139C196.953 221.164 197.048 221.197 197.144 221.23C197.176 221.243 197.208 221.249 197.222 221.258C197.601 221.392 197.961 221.543 198.314 221.727C199.119 222.145 199.869 222.711 200.483 223.38C200.577 223.489 200.667 223.594 200.761 223.703C200.784 223.731 200.811 223.762 200.834 223.796C200.873 223.85 200.916 223.908 200.955 223.969C200.985 224.012 201.011 224.05 201.036 224.096L201.043 224.103C201.043 224.103 201.046 224.107 201.05 224.111C201.134 224.194 201.215 224.287 201.291 224.384C201.486 224.636 201.642 224.935 201.784 225.219C201.815 225.286 201.85 225.351 201.881 225.419C201.912 225.487 201.944 225.555 201.972 225.619C201.997 225.671 202.018 225.72 202.039 225.777C202.077 225.859 202.11 225.946 202.144 226.025C202.151 226.032 202.15 226.047 202.157 226.055L202.202 226.171C202.481 226.905 202.654 227.69 202.714 228.477C202.856 230.288 202.432 232.126 201.48 233.679L201.488 233.673Z" fill="#B05C17"/>
</svg>
