<svg width="392" height="528" viewBox="0 0 392 528" fill="none" xmlns="http://www.w3.org/2000/svg">
<path d="M0 6.5C0 6.5 57.0646 29.8793 106.73 39C160.05 48.7916 211.069 22.0368 266.407 6.41535C317.541 -8.0192 392 6.41538 392 6.41538V527C392 527 353.504 497.322 309.196 491C200.49 475.491 140 575 0 496.5V6.5Z" fill="#74C4DF"/>
<path d="M189.362 289.392C188.721 289.995 187.669 289.936 186.844 290.072C183.65 290.416 179.36 289.66 177.965 286.4C177.496 285.209 178.179 282.99 179.421 282.312C179.619 282.175 179.83 282.067 180.052 281.981C180.447 281.827 180.867 281.756 181.279 281.745C181.346 281.74 181.41 281.744 181.477 281.746C181.562 281.752 181.65 281.749 181.732 281.751C181.905 281.761 182.07 281.777 182.242 281.801C182.459 281.839 182.678 281.887 182.885 281.96C185.238 282.515 187.278 285.452 188.536 287.21C188.862 287.859 189.781 288.637 189.362 289.392Z" fill="#409CBA"/>
<path d="M195.2 279.14C194.78 279.908 193.757 280.181 193.015 280.567C190.087 281.882 185.774 282.495 183.433 279.829C182.616 278.838 182.581 276.518 183.556 275.49C183.704 275.303 183.87 275.128 184.059 274.98C184.388 274.711 184.764 274.513 185.15 274.372C185.212 274.352 185.274 274.332 185.339 274.316C185.422 274.29 185.503 274.261 185.585 274.242C185.748 274.202 185.918 274.161 186.083 274.131C186.298 274.098 186.523 274.076 186.746 274.083C189.156 273.884 192.003 276.043 193.741 277.324C194.254 277.838 195.368 278.291 195.2 279.14Z" fill="#409CBA"/>
<path d="M197.843 268.846C197.584 269.687 196.638 270.15 195.988 270.674C193.379 272.545 189.271 274.003 186.448 271.849C185.454 271.043 184.957 268.776 185.708 267.572C185.817 267.361 185.945 267.158 186.098 266.975C186.371 266.648 186.696 266.383 187.049 266.165C187.105 266.13 187.164 266.1 187.223 266.069C187.3 266.028 187.374 265.985 187.448 265.948C187.602 265.874 187.757 265.801 187.917 265.742C188.125 265.67 188.339 265.605 188.554 265.564C190.881 264.892 194.096 266.445 196.054 267.352C196.661 267.76 197.841 267.985 197.843 268.846Z" fill="#409CBA"/>
<path d="M199.603 259.712C199.344 260.553 198.398 261.016 197.749 261.54C195.14 263.41 191.031 264.868 188.209 262.715C187.214 261.909 186.714 259.638 187.469 258.438C187.574 258.223 187.706 258.024 187.858 257.84C188.124 257.514 188.453 257.245 188.806 257.027C188.862 256.992 188.921 256.961 188.98 256.93C189.057 256.89 189.132 256.846 189.205 256.809C189.36 256.736 189.517 256.667 189.674 256.604C189.879 256.528 190.096 256.466 190.312 256.426C192.635 255.75 195.854 257.306 197.811 258.214C198.415 258.618 199.598 258.847 199.6 259.708L199.603 259.712Z" fill="#409CBA"/>
<path d="M197.054 248.592C195.849 251.569 193.153 254.995 189.62 254.683C188.348 254.536 186.717 252.881 186.708 251.466C186.683 251.231 186.688 250.99 186.716 250.755C186.77 250.334 186.907 249.933 187.091 249.565C187.12 249.507 187.149 249.449 187.185 249.391C187.23 249.32 187.268 249.241 187.309 249.167C187.401 249.021 187.494 248.876 187.596 248.742C187.73 248.568 187.881 248.399 188.042 248.248C189.647 246.436 193.196 246.03 195.337 245.747C196.065 245.767 197.187 245.325 197.648 246.055C197.878 246.905 197.324 247.802 197.061 248.593L197.054 248.592Z" fill="#409CBA"/>
<path d="M184.5 252.492C184.238 252.809 183.923 253.093 183.552 253.305C183.348 253.428 183.131 253.528 182.902 253.599C181.605 254.159 179.433 253.324 178.788 252.219C177.087 249.102 179.152 245.263 181.397 242.968C182.014 242.405 182.618 241.544 183.485 241.412C184.34 241.548 184.383 242.749 184.687 243.41C185.287 245.483 186.333 248.904 185.315 251.094C185.239 251.305 185.145 251.51 185.039 251.7C184.953 251.846 184.861 251.991 184.765 252.133C184.713 252.203 184.659 252.27 184.611 252.337C184.571 252.391 184.532 252.445 184.489 252.495L184.5 252.492Z" fill="#409CBA"/>
<path d="M175.203 252.845C174.941 253.162 174.625 253.446 174.258 253.662C174.054 253.785 173.834 253.881 173.608 253.956C172.308 254.513 170.139 253.681 169.494 252.576C167.793 249.459 169.858 245.62 172.103 243.325C172.72 242.762 173.324 241.901 174.192 241.769C175.046 241.905 175.089 243.106 175.396 243.764C175.996 245.837 177.04 249.254 176.025 251.448C175.949 251.658 175.852 251.86 175.749 252.054C175.663 252.2 175.57 252.345 175.475 252.487C175.427 252.554 175.369 252.624 175.321 252.691C175.281 252.745 175.239 252.795 175.199 252.848L175.203 252.845Z" fill="#409CBA"/>
<path d="M166.041 254.467C165.865 254.631 165.671 254.765 165.463 254.884C164.3 255.691 162.009 255.3 161.157 254.346C158.873 251.631 160.131 247.457 161.881 244.763C162.375 244.089 162.797 243.122 163.62 242.823C164.484 242.786 164.763 243.956 165.193 244.541C166.195 246.453 167.897 249.595 167.335 251.947C167.304 252.172 167.249 252.384 167.186 252.595C167.131 252.761 167.07 252.912 167.001 253.07C166.967 253.145 166.922 253.223 166.891 253.302C166.862 253.36 166.836 253.422 166.807 253.48C166.609 253.841 166.357 254.183 166.041 254.467Z" fill="#409CBA"/>
<path d="M158.091 257.932C157.233 259.057 154.936 259.395 153.83 258.751C150.816 256.873 150.723 252.515 151.548 249.417C151.81 248.626 151.908 247.574 152.602 247.031C153.408 246.728 154.038 247.754 154.633 248.178C156.18 249.689 158.77 252.147 158.965 254.561C159.001 254.78 159.02 255.001 159.024 255.221C159.022 255.395 159.013 255.561 158.996 255.733C158.989 255.817 158.969 255.901 158.959 255.989C158.954 256.052 158.941 256.122 158.93 256.185C158.856 256.59 158.722 256.995 158.51 257.361C158.392 257.568 158.249 257.763 158.087 257.935L158.091 257.932Z" fill="#409CBA"/>
<path d="M152.281 262.126C152.16 263.534 150.4 265.051 149.117 265.098C145.564 265.124 143.159 261.493 142.199 258.426C141.996 257.613 141.518 256.673 141.819 255.849C142.339 255.159 143.422 255.691 144.148 255.733C146.261 256.185 149.766 256.877 151.22 258.81C151.374 258.974 151.502 259.154 151.623 259.333C151.714 259.478 151.795 259.626 151.872 259.777C151.912 259.855 151.942 259.935 151.982 260.012C152.013 260.071 152.037 260.13 152.064 260.192C152.219 260.572 152.322 260.984 152.339 261.411C152.353 261.649 152.332 261.885 152.292 262.123L152.281 262.126Z" fill="#409CBA"/>
<path d="M148.002 271.402C147.855 271.568 147.684 271.714 147.504 271.842C147.182 272.072 146.823 272.229 146.45 272.332C146.392 272.349 146.33 272.362 146.269 272.375C146.19 272.39 146.11 272.412 146.035 272.431C145.88 272.459 145.722 272.482 145.565 272.498C145.362 272.515 145.153 272.516 144.949 272.501C142.697 272.524 140.196 270.331 138.662 269.027C138.22 268.511 137.216 268.016 137.427 267.242C137.869 266.553 138.836 266.375 139.548 266.061C142.358 265.032 146.401 264.749 148.401 267.386C149.095 268.356 148.973 270.515 148.005 271.405L148.002 271.402Z" fill="#409CBA"/>
<path d="M148.42 279.799C148.355 279.855 148.291 279.91 148.227 279.965C148.091 280.068 147.956 280.171 147.814 280.267C147.631 280.384 147.438 280.497 147.233 280.58C145.129 281.741 141.664 280.942 139.565 280.491C138.887 280.23 137.693 280.274 137.502 279.437C137.569 278.563 138.385 277.903 138.899 277.251C141.019 274.865 144.682 272.551 147.897 274.019C149.041 274.585 150.019 276.676 149.553 278.004C149.493 278.234 149.415 278.458 149.307 278.669C149.119 279.048 148.856 279.379 148.565 279.662C148.516 279.704 148.47 279.75 148.417 279.788L148.42 279.799Z" fill="#409CBA"/>
<path d="M153.207 287.464C151.619 289.274 148.09 289.696 145.963 289.98C145.241 289.967 144.127 290.41 143.665 289.688C143.435 288.844 143.978 287.95 144.24 287.159C145.423 284.195 148.087 280.777 151.604 281.07C152.872 281.213 154.501 282.851 154.515 284.255C154.539 284.491 154.539 284.728 154.51 284.963C154.461 285.381 154.331 285.782 154.147 286.151C154.117 286.209 154.088 286.267 154.052 286.324C154.008 286.395 153.97 286.474 153.928 286.549C153.84 286.691 153.747 286.836 153.645 286.97C153.511 287.144 153.367 287.314 153.207 287.464Z" fill="#409CBA"/>
<path d="M160.787 291.994C160.045 294.297 156.956 296.091 155.11 297.208C154.433 297.486 153.585 298.339 152.87 297.859C152.32 297.173 152.464 296.128 152.389 295.296C152.301 292.086 153.388 287.868 156.756 286.736C157.982 286.362 160.135 287.221 160.716 288.512C160.835 288.72 160.928 288.943 160.992 289.171C161.114 289.574 161.152 290.002 161.132 290.408C161.13 290.475 161.121 290.542 161.113 290.608C161.103 290.696 161.099 290.784 161.09 290.865C161.063 291.033 161.036 291.201 160.995 291.368C160.939 291.58 160.877 291.791 160.784 291.997L160.787 291.994Z" fill="#409CBA"/>
<path d="M166.931 300.035C166.463 300.594 166.113 301.744 165.255 301.657C164.449 301.309 164.085 300.317 163.635 299.617C162.059 296.821 161.054 292.581 163.501 290.007C164.41 289.102 166.721 288.857 167.831 289.729C168.034 289.857 168.217 290.01 168.384 290.182C168.677 290.484 168.915 290.839 169.085 291.213C169.109 291.272 169.14 291.331 169.163 291.396C169.193 291.477 169.229 291.557 169.262 291.634C169.321 291.795 169.372 291.955 169.416 292.121C169.467 292.334 169.511 292.553 169.522 292.774C169.939 295.155 168.053 298.189 166.938 300.035L166.931 300.035Z" fill="#409CBA"/>
<path d="M179.481 296.43C179.411 297.154 179.77 298.301 179.012 298.715C178.149 298.883 177.292 298.268 176.523 297.947C173.641 296.529 170.416 293.601 170.978 290.097C171.216 288.839 172.982 287.33 174.396 287.42C174.634 287.414 174.874 287.432 175.107 287.482C175.522 287.567 175.918 287.728 176.27 287.939C176.324 287.972 176.382 288.008 176.435 288.047C176.506 288.099 176.581 288.14 176.651 288.191C176.789 288.29 176.923 288.393 177.052 288.505C177.215 288.649 177.373 288.81 177.512 288.98C179.201 290.71 179.354 294.28 179.48 296.437L179.481 296.43Z" fill="#409CBA"/>
<path d="M167.342 285.092C170.549 284.756 173.105 282.463 175.133 280.131C179.902 273.688 181.716 265.606 183.062 257.86C175.552 257.893 167.506 257.172 160.657 260.845C156.405 263.11 153.622 267.632 153.405 272.427C153.119 275.385 154.528 278.14 156.579 280.192C159.323 283.091 163.225 285.458 167.345 285.089L167.342 285.092ZM176.75 281.37C174.392 284.039 171.351 286.464 167.726 286.928C161.294 287.589 154.869 282.949 152.167 277.321C149.688 270.797 153.334 262.869 159.304 259.622C166.023 255.904 175.96 255.975 183.408 256.951C183.559 256.644 183.796 256.276 184.126 256.177C185.411 256.991 185.034 258.762 184.853 260.031C184.418 262.985 183.765 265.929 182.864 268.769C181.41 273.197 179.69 277.708 176.746 281.374L176.75 281.37Z" fill="#409CBA"/>
<path d="M154.668 302.717C168.165 308.509 181.799 303.888 191.006 293.004C194.696 288.158 196.85 282.32 198.68 276.589C200.748 269.692 202.407 262.671 203.867 255.618C205.072 249.619 205.979 243.541 207.404 237.597C190.931 239.086 173.617 235.805 157.817 241.923C148.51 245.255 139.76 251.447 135.685 260.685C130.543 271.741 135.181 284.228 142.589 293.053C145.915 297.12 149.946 300.567 154.672 302.713L154.668 302.717ZM147.469 335.797C145.03 340.642 138.067 340.369 134.712 336.691C133.448 335.141 133.15 332.922 133.793 331.047C133.207 332.543 130.987 332.803 129.535 332.798C129.535 332.798 129.535 332.798 129.524 332.801C129.524 332.801 129.517 332.8 129.51 332.8C129.51 332.8 129.506 332.803 129.499 332.802C127.125 332.667 124.399 331.892 122.907 329.939C122.276 328.92 122.394 327.476 123.125 326.533C123.954 325.551 125.4 325.463 126.589 325.621C129.172 325.946 133.425 327.748 133.914 330.574C133.898 330.693 133.872 330.801 133.839 330.908C134.003 330.471 134.22 330.048 134.487 329.661C135.45 328.282 136.814 326.933 138.599 326.903C141.839 326.743 146.091 330.04 143.985 333.448C143.219 334.941 141.552 336.022 139.847 335.708C139.389 335.581 139.014 335.205 138.856 334.76C139.013 334.652 139.214 334.579 139.393 334.511C140.288 334.289 141.12 334.49 141.801 333.734C143.35 331.78 142.141 329.519 139.89 328.929C137.637 328.123 135.933 330.494 135.626 332.476C135.395 334.195 136.25 335.989 137.832 336.759C139.833 337.886 142.598 337.916 144.356 336.328C146.454 333.732 145.94 330.209 145.231 327.197C144.914 326.007 144.259 324.936 143.633 323.893C143.469 323.487 142.733 322.69 142.382 322.036C142.315 321.949 142.244 321.859 142.18 321.769C140.782 319.703 139.795 317.218 140.123 314.685C140.364 311.39 141.58 308.273 144.102 306.056C145.821 304.607 147.898 303.167 150.136 302.675C146.906 300.746 143.966 298.186 141.396 295.038C138.268 291.455 135.596 287.243 133.8 282.733C133.465 283.633 132.924 284.452 132.383 285.141C129.825 288.337 126.238 290.671 122.161 291.207C117.599 291.836 112.437 290.34 109.811 286.352C109.515 285.915 109.251 285.469 109.027 285.023C103.464 280.428 94.0139 288.129 100.33 293.771C101.714 294.716 103.474 294.174 104.724 293.252C106.61 291.805 106.202 288.844 104.225 287.676C103.778 287.362 103.248 287.619 102.795 287.751C101.947 287.998 101.519 288.773 100.851 289.268C100.737 289.365 100.593 289.528 100.428 289.519C100.272 289.514 100.114 289.406 100.001 289.306C99.2689 288.591 99.6909 287.379 100.391 286.798C101.497 285.855 103.167 285.246 104.595 285.713C107.121 286.823 108.572 290.003 107.548 292.607C106.533 295.222 103.349 296.691 100.67 296.04C99.1288 295.67 97.9445 294.474 97.1373 293.166C93.3106 286.573 101.928 279.198 108.194 282.703C106.641 275.799 112.851 268.864 120.52 270.335C123.513 270.992 125.524 274.026 125.879 276.941C126.41 280.858 123.069 284.799 119.016 284.188C114.538 283.573 111.806 278.464 115.932 275.385C117.318 274.583 120.124 274.362 120.983 276.008C121.186 276.505 121.153 277.119 120.689 277.438C120.668 277.436 120.644 277.424 120.627 277.419C119.99 277.367 119.513 276.927 118.916 276.807C117.237 276.484 115.964 277.885 115.962 279.494C116.662 282.52 120.888 283.47 122.686 280.847C124.118 279.039 124.094 276.472 123.043 274.503C121.146 270.95 116.267 271.785 113.555 273.889C109.306 276.909 109.056 283.155 112.6 286.816C115.619 289.881 120.521 290.047 124.378 288.672C126.968 287.647 129.096 285.815 130.843 283.684C131.686 282.618 132.449 281.443 132.708 280.088C132.732 280.009 132.752 279.932 132.782 279.86C130.882 273.649 130.729 267.032 133.342 260.832C136.969 251.893 144.85 245.295 153.656 241.715C163.469 237.23 174.324 236.238 184.986 236.279C190.433 236.227 195.875 236.377 201.321 236.424C203.018 236.43 204.727 236.412 206.415 236.484C206.931 236.548 207.601 236.401 207.969 236.836C208.794 236.049 209.378 237.213 209.372 237.996C209.035 240.411 208.47 242.806 208.066 245.22C207.431 248.701 206.856 252.197 206.176 255.67C205.143 260.942 203.862 266.17 202.533 271.373C200.933 277.48 199.154 283.602 196.169 289.199C191.255 298.38 181.897 305.206 171.542 306.652C164.656 307.689 158.112 306.714 152.361 303.887C151.711 303.997 151.052 304.088 150.446 304.371C147.03 305.861 143.911 308.564 142.789 312.213C141.569 315.94 142.269 319.256 145.06 322.056C147.731 324.939 151.907 327.097 155.828 325.766C161.571 323.65 160.478 315.817 155.546 313.407C153.129 312.248 150.109 314.391 150.308 317.032C150.808 320.645 155.55 319.803 153.512 316.185C153.274 315.639 153.443 315.283 154.003 315.099C155.304 314.667 156.398 315.98 156.458 317.193C156.546 323.511 148.285 323.068 147.845 317.184C147.608 314.023 150.339 310.961 153.519 310.899C156.307 310.765 158.7 312.655 160.189 314.867C162.121 317.555 162.575 321.352 160.81 324.237C158.707 328.069 153.732 328.862 149.856 327.592C149.034 327.324 148.239 326.966 147.481 326.543C147.796 327.378 148.01 328.241 148.105 329.095C148.387 331.342 148.603 333.751 147.461 335.804L147.469 335.797Z" fill="#409CBA"/>
<path d="M134.902 319.257C135.374 321.15 133.122 322.392 131.635 322.976C129.383 323.744 126.568 324.046 124.462 322.797C123.493 322.089 123.063 320.706 123.384 319.562C123.782 318.338 125.091 317.715 126.252 317.417C128.769 316.752 133.387 316.824 134.902 319.264L134.902 319.257Z" fill="#409CBA"/>
<path d="M127.306 310.798C125.643 312.496 123.265 314.029 120.819 313.857C119.636 313.66 118.628 312.616 118.398 311.45C118.205 310.181 119.093 309.03 119.997 308.241C121.943 306.512 126.1 304.505 128.555 306C129.824 307.479 128.38 309.594 127.315 310.784L127.307 310.791L127.306 310.798Z" fill="#409CBA"/>
<path d="M120.025 302.106C119.63 304.453 118.553 307.096 116.433 308.362C115.349 308.871 113.928 308.596 113.074 307.762C112.192 306.826 112.267 305.379 112.561 304.218C113.176 301.689 115.443 297.663 118.315 297.497C120.188 297.983 120.217 300.519 120.029 302.103L120.025 302.106Z" fill="#409CBA"/>
<path d="M109.516 306.017C108.7 306.901 107.28 307.171 106.177 306.722C105.009 306.19 104.529 304.818 104.372 303.629C103.995 301.056 104.585 296.474 107.181 295.24C109.117 294.988 110.094 297.369 110.508 298.91C111.018 301.231 110.997 304.06 109.516 306.017Z" fill="#409CBA"/>
<path d="M102.209 306.833C101.766 307.951 100.538 308.714 99.3461 308.691C98.0659 308.611 97.1266 307.501 96.551 306.454C95.2713 304.188 94.1826 299.697 96.1627 297.616C97.8634 296.69 99.6188 298.528 100.562 299.812C101.878 301.797 102.893 304.461 102.206 306.829L102.209 306.833Z" fill="#409CBA"/>
<path d="M95.9122 309.96C96.1844 311.128 95.6118 312.456 94.6188 313.117C93.519 313.785 92.12 313.405 91.0445 312.873C88.7037 311.741 85.2459 308.671 85.6892 305.834C86.5585 304.101 89.0529 304.614 90.5652 305.133C92.7796 306.018 95.1266 307.625 95.9122 309.96Z" fill="#409CBA"/>
<path d="M92.1467 319.636C91.3772 320.665 89.9357 320.842 88.745 320.751C86.1468 320.577 81.7929 319.033 81.1383 316.237C81.2954 314.318 83.7691 313.847 85.3597 313.76C85.3668 313.76 85.3738 313.761 85.3846 313.758C87.7703 313.745 90.5546 314.358 92.1659 316.228C92.8563 317.209 92.8236 318.66 92.1499 319.639L92.1467 319.636Z" fill="#409CBA"/>
<path d="M92.1931 326.457C91.906 327.71 90.6589 328.451 89.5335 328.851C87.0877 329.745 82.4835 330.088 80.7484 327.798C80.1127 325.96 82.232 324.516 83.651 323.799C85.8225 322.831 88.6078 322.271 90.8234 323.326C91.8534 323.943 92.4103 325.283 92.1898 326.453L92.1931 326.457Z" fill="#409CBA"/>
<path d="M93.9393 335.75C92.1509 337.64 88.1825 340.005 85.6118 338.728C84.2134 337.367 85.4754 335.132 86.4268 333.855L86.4344 333.848C87.9421 332.014 90.1794 330.279 92.6311 330.236C93.8289 330.327 94.922 331.279 95.2527 332.424C95.5542 333.673 94.7702 334.892 93.9388 335.757L93.9393 335.75Z" fill="#409CBA"/>
<path d="M100.585 340.878C99.5114 343.248 96.5414 346.784 93.6884 346.421C91.9265 345.595 92.3814 343.072 92.8656 341.557C92.8575 341.57 92.8564 341.584 92.8483 341.598L92.8705 341.539C93.6994 339.314 95.241 336.944 97.5454 336.092C98.7061 335.788 100.05 336.326 100.738 337.303C101.431 338.387 101.09 339.793 100.589 340.881L100.585 340.878Z" fill="#409CBA"/>
<path d="M109.019 341.522C109.489 344.081 109.06 348.683 106.51 350.008C104.597 350.333 103.531 348.009 103.059 346.485C102.463 344.179 102.375 341.337 103.79 339.326C104.572 338.412 105.982 338.09 107.102 338.498C108.287 338.989 108.815 340.341 109.019 341.522Z" fill="#409CBA"/>
<path d="M117.589 347.519C115.931 348.541 114.071 346.779 113.063 345.544L113.053 345.532C111.644 343.621 110.502 341.032 111.056 338.641C111.437 337.504 112.624 336.67 113.818 336.633C115.099 336.646 116.096 337.7 116.727 338.719C118.122 340.913 119.453 345.341 117.586 347.523L117.589 347.519Z" fill="#409CBA"/>
<path d="M126.622 341.71C125.304 343.137 123.043 341.944 121.738 341.029C119.858 339.567 118.052 337.371 117.945 334.914C118.012 333.718 118.927 332.597 120.063 332.241C121.304 331.907 122.543 332.661 123.428 333.469C125.361 335.208 127.83 339.113 126.621 341.717L126.622 341.71Z" fill="#409CBA"/>
<path d="M98.9203 331.312C105.757 337.981 117.541 334.558 119.791 325.326C122.19 316.083 113.53 307.542 104.355 310.062C94.97 312.553 91.9025 324.653 98.9133 331.311L98.9203 331.312ZM120.802 328.184C116.532 338.024 102.98 339.725 96.3699 331.301C89.9486 323.327 93.9774 311.12 103.856 308.529C115.459 305.347 125.683 317.207 120.795 328.184L120.802 328.184Z" fill="#409CBA"/>
<path d="M111.283 327.181C111.507 326.989 111.721 326.786 111.925 326.571C112.107 326.369 112.275 326.158 112.43 325.94C112.57 325.727 112.7 325.51 112.82 325.289C112.929 325.064 113.035 324.834 113.128 324.597C113.21 324.362 113.281 324.13 113.341 323.894C113.396 323.636 113.44 323.381 113.467 323.121C113.487 322.867 113.499 322.613 113.497 322.357C113.489 322.102 113.462 321.848 113.424 321.597C113.378 321.328 113.317 321.057 113.269 320.887C113.261 320.855 113.249 320.826 113.238 320.789C113.158 320.535 113.06 320.29 112.955 320.045C112.833 319.787 112.696 319.536 112.566 319.331C112.478 319.19 112.403 319.05 112.333 318.899C112.321 318.87 112.31 318.84 112.298 318.811C112.288 318.793 112.28 318.767 112.274 318.753C112.251 318.68 112.228 318.607 112.205 318.535C112.165 318.503 112.129 318.469 112.093 318.434C111.794 318.163 111.535 317.853 111.232 317.585C111.053 317.43 110.866 317.281 110.671 317.146C110.445 316.99 110.215 316.845 109.974 316.717C109.953 316.708 109.939 316.7 109.923 316.688C109.923 316.688 109.923 316.688 109.919 316.684C109.809 316.647 109.698 316.618 109.583 316.584C109.459 316.546 109.326 316.515 109.201 316.484C108.947 316.426 108.692 316.381 108.439 316.355L108.424 316.354C108.073 316.32 107.723 316.311 107.371 316.316C107.045 316.327 106.713 316.354 106.39 316.408C106.146 316.453 105.901 316.505 105.662 316.572C105.418 316.649 105.175 316.733 104.94 316.836C104.723 316.936 104.512 317.058 104.311 317.184C104.036 317.355 103.774 317.54 103.543 317.732C103.342 317.904 103.151 318.088 102.969 318.283C102.783 318.489 102.608 318.699 102.449 318.92C102.302 319.132 102.172 319.349 102.049 319.574C102.045 319.577 102.041 319.587 102.04 319.594C101.919 319.829 101.816 320.07 101.719 320.317C101.629 320.566 101.557 320.819 101.495 321.076C101.451 321.271 101.419 321.464 101.397 321.661C101.376 321.889 101.369 322.119 101.369 322.349C101.381 322.616 101.41 322.88 101.443 323.142C101.498 323.443 101.56 323.746 101.648 324.04C101.733 324.315 101.833 324.585 101.947 324.849C102.066 325.103 102.196 325.346 102.341 325.584C102.499 325.83 102.669 326.066 102.854 326.297C103.033 326.505 103.227 326.701 103.425 326.893C103.634 327.075 103.848 327.248 104.065 327.41C104.298 327.566 104.538 327.715 104.787 327.844C105.006 327.953 105.228 328.051 105.455 328.139C105.687 328.217 105.922 328.292 106.155 328.349C106.427 328.405 106.7 328.454 106.977 328.486C107.231 328.505 107.485 328.518 107.741 328.516C108 328.504 108.261 328.478 108.522 328.444C108.77 328.403 109.015 328.344 109.254 328.277C109.523 328.191 109.789 328.095 110.053 327.98C110.24 327.892 110.418 327.792 110.596 327.685C110.838 327.53 111.067 327.367 111.29 327.189L111.283 327.181ZM114.759 326.897C113.986 328.16 112.883 329.199 111.572 329.889C110.14 330.644 108.506 331.026 106.886 330.888C105.763 330.792 104.703 330.477 103.703 329.972C102.777 329.483 101.941 328.824 101.261 328.032C100.868 327.573 100.524 327.065 100.25 326.523C99.6181 325.281 99.2645 323.879 99.3607 322.479C99.4456 321.274 99.6964 320.078 100.237 318.989C100.761 317.927 101.491 316.998 102.3 316.322C102.627 316.042 102.975 315.796 103.339 315.569C103.618 315.402 103.912 315.262 104.206 315.128L104.231 315.12C104.492 315.001 104.766 314.891 105.035 314.798C105.086 314.781 105.137 314.764 105.188 314.746C105.254 314.723 105.326 314.7 105.395 314.681C105.482 314.652 105.569 314.63 105.656 314.608C105.677 314.603 105.695 314.601 105.71 314.595C105.807 314.57 105.901 314.549 105.995 314.528C106.092 314.504 106.189 314.486 106.286 314.469L106.308 314.463C106.405 314.446 106.505 314.432 106.602 314.415C106.686 314.382 106.77 314.357 106.857 314.335C106.896 314.327 106.939 314.317 106.979 314.309C107.019 314.301 107.065 314.294 107.108 314.29C107.197 314.28 107.29 314.272 107.372 314.268C107.447 314.263 107.525 314.262 107.599 314.264C107.656 314.261 107.709 314.262 107.765 314.266C107.822 314.271 107.875 314.271 107.931 314.275C108.249 314.293 108.567 314.342 108.881 314.415L108.885 314.412C108.913 314.414 108.934 314.416 108.958 314.421C109.011 314.429 109.063 314.436 109.113 314.44C109.172 314.448 109.235 314.46 109.298 314.472C109.62 314.525 109.933 314.598 110.249 314.69C110.343 314.715 110.436 314.746 110.529 314.778C110.56 314.791 110.591 314.797 110.605 314.805C110.974 314.936 111.324 315.084 111.668 315.262C112.452 315.669 113.183 316.221 113.781 316.873C113.873 316.979 113.96 317.081 114.051 317.188C114.074 317.214 114.1 317.244 114.123 317.278C114.161 317.331 114.203 317.387 114.241 317.446C114.27 317.488 114.295 317.525 114.32 317.569L114.326 317.577C114.326 317.577 114.33 317.581 114.333 317.585C114.415 317.665 114.493 317.756 114.568 317.851C114.758 318.095 114.91 318.387 115.048 318.663C115.078 318.729 115.112 318.792 115.143 318.858C115.173 318.924 115.204 318.99 115.231 319.053C115.255 319.104 115.276 319.152 115.297 319.207C115.333 319.287 115.366 319.371 115.399 319.448C115.405 319.456 115.404 319.47 115.411 319.478L115.455 319.591C115.727 320.306 115.895 321.07 115.954 321.836C116.092 323.601 115.679 325.391 114.752 326.904L114.759 326.897Z" fill="#409CBA"/>
<path d="M270.564 192.027C269.922 192.63 268.871 192.571 268.046 192.706C264.852 193.051 260.562 192.295 259.166 189.034C258.697 187.843 259.381 185.624 260.623 184.947C260.821 184.81 261.031 184.702 261.254 184.616C261.649 184.462 262.068 184.391 262.48 184.38C262.548 184.374 262.612 184.379 262.679 184.381C262.763 184.387 262.852 184.383 262.933 184.386C263.106 184.396 263.272 184.412 263.443 184.436C263.66 184.473 263.88 184.522 264.087 184.595C266.44 185.15 268.48 188.087 269.738 189.845C270.064 190.494 270.983 191.272 270.564 192.027Z" fill="#409CBA"/>
<path d="M276.402 181.775C275.982 182.543 274.958 182.816 274.217 183.202C271.289 184.517 266.976 185.13 264.635 182.464C263.818 181.473 263.782 179.153 264.757 178.125C264.906 177.938 265.072 177.763 265.26 177.615C265.589 177.346 265.966 177.148 266.352 177.007C266.414 176.987 266.476 176.967 266.541 176.95C266.624 176.925 266.704 176.896 266.787 176.877C266.95 176.836 267.119 176.796 267.285 176.766C267.5 176.733 267.725 176.711 267.947 176.718C270.358 176.519 273.205 178.678 274.943 179.959C275.456 180.473 276.57 180.926 276.402 181.775Z" fill="#409CBA"/>
<path d="M279.044 171.481C278.785 172.322 277.839 172.785 277.19 173.309C274.581 175.179 270.473 176.637 267.65 174.484C266.656 173.678 266.159 171.411 266.91 170.207C267.018 169.996 267.147 169.793 267.299 169.61C267.572 169.283 267.897 169.018 268.251 168.8C268.306 168.765 268.365 168.734 268.424 168.703C268.502 168.663 268.576 168.619 268.65 168.582C268.804 168.509 268.959 168.436 269.119 168.377C269.327 168.305 269.541 168.239 269.756 168.199C272.082 167.526 275.298 169.079 277.256 169.987C277.862 170.395 279.043 170.62 279.044 171.481Z" fill="#409CBA"/>
<path d="M280.805 162.346C280.546 163.188 279.6 163.65 278.95 164.175C276.341 166.045 272.233 167.503 269.411 165.349C268.416 164.544 267.916 162.273 268.67 161.073C268.776 160.858 268.908 160.659 269.06 160.475C269.326 160.148 269.655 159.879 270.008 159.662C270.064 159.627 270.123 159.596 270.182 159.565C270.259 159.525 270.333 159.481 270.407 159.444C270.561 159.371 270.719 159.302 270.876 159.239C271.081 159.163 271.298 159.101 271.513 159.061C273.836 158.384 277.055 159.941 279.013 160.849C279.616 161.253 280.8 161.481 280.802 162.343L280.805 162.346Z" fill="#409CBA"/>
<path d="M278.256 151.227C277.051 154.204 274.355 157.63 270.821 157.318C269.55 157.171 267.919 155.516 267.91 154.101C267.885 153.866 267.89 153.625 267.918 153.39C267.972 152.969 268.108 152.568 268.292 152.199C268.322 152.141 268.351 152.083 268.387 152.026C268.432 151.955 268.469 151.876 268.511 151.801C268.603 151.656 268.696 151.511 268.798 151.377C268.932 151.203 269.083 151.034 269.243 150.883C270.849 149.071 274.398 148.665 276.539 148.382C277.267 148.402 278.389 147.96 278.85 148.69C279.079 149.54 278.526 150.436 278.263 151.228L278.256 151.227Z" fill="#409CBA"/>
<path d="M265.702 155.127C265.44 155.443 265.124 155.728 264.754 155.94C264.549 156.063 264.333 156.163 264.104 156.234C262.807 156.794 260.635 155.959 259.989 154.854C258.289 151.737 260.354 147.898 262.598 145.603C263.215 145.04 263.82 144.179 264.687 144.047C265.541 144.183 265.584 145.384 265.888 146.045C266.488 148.118 267.535 151.539 266.517 153.729C266.441 153.939 266.347 154.145 266.24 154.335C266.155 154.481 266.062 154.626 265.966 154.768C265.915 154.838 265.86 154.905 265.813 154.972C265.773 155.026 265.734 155.08 265.691 155.129L265.702 155.127Z" fill="#409CBA"/>
<path d="M256.405 155.48C256.143 155.796 255.827 156.081 255.46 156.297C255.256 156.42 255.036 156.516 254.81 156.591C253.51 157.147 251.341 156.316 250.696 155.211C248.995 152.094 251.06 148.254 253.305 145.96C253.921 145.397 254.526 144.536 255.393 144.404C256.248 144.54 256.291 145.741 256.598 146.399C257.198 148.471 258.241 151.889 257.227 154.083C257.151 154.293 257.054 154.495 256.95 154.689C256.865 154.835 256.772 154.98 256.676 155.121C256.629 155.189 256.57 155.259 256.523 155.326C256.483 155.38 256.44 155.429 256.401 155.483L256.405 155.48Z" fill="#409CBA"/>
<path d="M247.242 157.102C247.067 157.266 246.873 157.4 246.665 157.518C245.501 158.326 243.21 157.935 242.358 156.981C240.075 154.266 241.332 150.092 243.083 147.398C243.577 146.724 243.998 145.756 244.822 145.458C245.686 145.421 245.965 146.59 246.395 147.176C247.397 149.088 249.099 152.23 248.537 154.582C248.506 154.807 248.45 155.019 248.388 155.23C248.333 155.396 248.272 155.547 248.203 155.705C248.169 155.78 248.124 155.858 248.093 155.937C248.064 155.995 248.038 156.057 248.009 156.115C247.811 156.476 247.558 156.818 247.242 157.102Z" fill="#409CBA"/>
<path d="M239.293 160.566C238.435 161.691 236.137 162.03 235.031 161.386C232.018 159.508 231.925 155.15 232.75 152.052C233.012 151.26 233.11 150.209 233.804 149.666C234.61 149.363 235.24 150.389 235.835 150.813C237.382 152.324 239.972 154.782 240.167 157.196C240.203 157.415 240.222 157.636 240.226 157.856C240.224 158.03 240.214 158.195 240.198 158.368C240.191 158.452 240.171 158.536 240.16 158.624C240.156 158.687 240.143 158.757 240.131 158.82C240.058 159.225 239.924 159.63 239.712 159.996C239.593 160.203 239.451 160.398 239.289 160.57L239.293 160.566Z" fill="#409CBA"/>
<path d="M233.483 164.761C233.361 166.169 231.601 167.685 230.319 167.733C226.766 167.759 224.361 164.128 223.401 161.061C223.197 160.248 222.72 159.308 223.02 158.484C223.541 157.794 224.623 158.326 225.35 158.368C227.463 158.819 230.967 159.512 232.422 161.444C232.576 161.609 232.704 161.788 232.825 161.968C232.916 162.113 232.997 162.261 233.074 162.412C233.114 162.489 233.144 162.57 233.184 162.647C233.215 162.706 233.239 162.765 233.266 162.827C233.421 163.207 233.524 163.619 233.541 164.046C233.555 164.284 233.533 164.52 233.494 164.758L233.483 164.761Z" fill="#409CBA"/>
<path d="M229.204 174.036C229.056 174.202 228.886 174.349 228.706 174.477C228.383 174.707 228.024 174.864 227.651 174.967C227.593 174.984 227.532 174.997 227.471 175.01C227.392 175.025 227.312 175.047 227.236 175.066C227.082 175.093 226.924 175.117 226.767 175.133C226.564 175.149 226.355 175.151 226.15 175.136C223.899 175.159 221.398 172.966 219.864 171.662C219.421 171.146 218.417 170.651 218.629 169.877C219.071 169.188 220.038 169.01 220.749 168.696C223.56 167.667 227.603 167.384 229.602 170.02C230.297 170.991 230.175 173.15 229.207 174.04L229.204 174.036Z" fill="#409CBA"/>
<path d="M229.622 182.434C229.557 182.49 229.493 182.545 229.428 182.6C229.293 182.703 229.157 182.806 229.015 182.902C228.833 183.019 228.64 183.132 228.435 183.215C226.33 184.376 222.866 183.577 220.767 183.126C220.089 182.865 218.895 182.909 218.704 182.072C218.771 181.198 219.586 180.538 220.1 179.886C222.221 177.5 225.884 175.186 229.099 176.654C230.243 177.22 231.221 179.311 230.754 180.639C230.694 180.868 230.617 181.093 230.509 181.304C230.32 181.683 230.058 182.014 229.767 182.297C229.718 182.339 229.671 182.385 229.619 182.423L229.622 182.434Z" fill="#409CBA"/>
<path d="M234.408 190.099C232.821 191.909 229.291 192.331 227.165 192.615C226.443 192.602 225.329 193.045 224.866 192.323C224.637 191.479 225.18 190.585 225.442 189.794C226.625 186.83 229.288 183.412 232.806 183.705C234.074 183.848 235.703 185.485 235.716 186.89C235.741 187.125 235.74 187.363 235.712 187.598C235.662 188.016 235.532 188.417 235.348 188.786C235.319 188.844 235.29 188.902 235.254 188.959C235.209 189.03 235.171 189.109 235.13 189.184C235.041 189.326 234.949 189.471 234.847 189.605C234.713 189.779 234.569 189.949 234.408 190.099Z" fill="#409CBA"/>
<path d="M241.989 194.628C241.246 196.932 238.158 198.726 236.311 199.843C235.635 200.121 234.786 200.974 234.072 200.494C233.522 199.807 233.665 198.762 233.591 197.931C233.503 194.721 234.59 190.503 237.958 189.371C239.184 188.997 241.337 189.855 241.918 191.147C242.037 191.355 242.13 191.578 242.194 191.806C242.316 192.208 242.354 192.637 242.333 193.043C242.332 193.11 242.323 193.176 242.315 193.243C242.304 193.331 242.301 193.419 242.291 193.5C242.264 193.668 242.237 193.836 242.196 194.003C242.141 194.215 242.079 194.426 241.985 194.632L241.989 194.628Z" fill="#409CBA"/>
<path d="M248.132 202.67C247.664 203.229 247.315 204.379 246.457 204.292C245.65 203.944 245.287 202.952 244.837 202.252C243.261 199.456 242.256 195.216 244.703 192.642C245.611 191.737 247.923 191.492 249.033 192.363C249.235 192.492 249.419 192.644 249.586 192.817C249.878 193.119 250.117 193.474 250.287 193.848C250.311 193.907 250.342 193.966 250.365 194.031C250.394 194.112 250.431 194.192 250.464 194.269C250.523 194.43 250.574 194.589 250.618 194.756C250.669 194.969 250.713 195.188 250.724 195.409C251.141 197.79 249.255 200.824 248.139 202.67L248.132 202.67Z" fill="#409CBA"/>
<path d="M260.682 199.064C260.613 199.789 260.972 200.936 260.214 201.35C259.35 201.517 258.494 200.903 257.725 200.582C254.842 199.164 251.618 196.236 252.18 192.732C252.417 191.474 254.184 189.965 255.598 190.055C255.836 190.049 256.075 190.067 256.309 190.117C256.724 190.201 257.119 190.363 257.472 190.574C257.526 190.606 257.583 190.643 257.637 190.682C257.708 190.734 257.782 190.775 257.853 190.826C257.991 190.925 258.124 191.028 258.254 191.14C258.417 191.284 258.575 191.445 258.714 191.615C260.403 193.345 260.556 196.915 260.682 199.071L260.682 199.064Z" fill="#409CBA"/>
<path d="M248.543 187.727C251.751 187.39 254.307 185.098 256.335 182.765C261.103 176.323 262.918 168.241 264.264 160.495C256.753 160.527 248.708 159.807 241.858 163.479C237.607 165.745 234.824 170.266 234.607 175.062C234.321 178.02 235.73 180.774 237.781 182.827C240.525 185.726 244.426 188.093 248.547 187.723L248.543 187.727ZM257.952 184.005C255.593 186.674 252.552 189.099 248.927 189.563C242.495 190.224 236.071 185.584 233.369 179.956C230.89 173.432 234.536 165.503 240.506 162.256C247.225 158.539 257.162 158.61 264.61 159.586C264.761 159.278 264.998 158.91 265.328 158.812C266.612 159.625 266.236 161.397 266.054 162.665C265.62 165.619 264.966 168.564 264.066 171.404C262.611 175.832 260.892 180.342 257.948 184.008L257.952 184.005Z" fill="#409CBA"/>
<path d="M235.87 205.351C249.367 211.144 263.001 206.523 272.208 195.639C275.898 190.793 278.052 184.955 279.882 179.223C281.95 172.326 283.609 165.306 285.068 158.253C286.274 152.254 287.181 146.175 288.606 140.232C272.132 141.721 254.818 138.439 239.019 144.557C229.712 147.89 220.962 154.082 216.887 163.32C211.744 174.376 216.383 186.863 223.791 195.688C227.116 199.754 231.148 203.201 235.874 205.348L235.87 205.351ZM228.671 238.432C226.232 243.277 219.268 243.004 215.914 239.325C214.65 237.776 214.352 235.556 214.995 233.681C214.409 235.178 212.189 235.437 210.737 235.433C210.737 235.433 210.736 235.433 210.726 235.435C210.726 235.435 210.719 235.435 210.712 235.434C210.712 235.434 210.708 235.438 210.701 235.437C208.326 235.302 205.6 234.527 204.109 232.574C203.478 231.555 203.595 230.111 204.326 229.168C205.156 228.186 206.602 228.098 207.791 228.256C210.374 228.581 214.626 230.383 215.116 233.209C215.1 233.328 215.074 233.436 215.041 233.543C215.205 233.106 215.422 232.683 215.689 232.296C216.651 230.917 218.016 229.568 219.8 229.538C223.041 229.377 227.293 232.675 225.186 236.082C224.42 237.576 222.754 238.657 221.049 238.342C220.591 238.215 220.216 237.839 220.058 237.395C220.215 237.287 220.416 237.213 220.594 237.146C221.49 236.923 222.322 237.125 223.003 236.369C224.552 234.415 223.343 232.154 221.091 231.564C218.839 230.758 217.135 233.129 216.827 235.111C216.597 236.83 217.452 238.624 219.034 239.393C221.035 240.521 223.8 240.551 225.558 238.963C227.656 236.366 227.141 232.844 226.432 229.831C226.116 228.641 225.461 227.571 224.835 226.527C224.671 226.122 223.935 225.325 223.584 224.671C223.516 224.584 223.445 224.494 223.381 224.404C221.984 222.338 220.997 219.853 221.325 217.32C221.566 214.025 222.782 210.907 225.304 208.69C227.023 207.241 229.1 205.802 231.338 205.31C228.108 203.38 225.168 200.821 222.598 197.673C219.47 194.089 216.797 189.878 215.001 185.368C214.667 186.268 214.126 187.087 213.585 187.776C211.027 190.972 207.44 193.306 203.363 193.841C198.801 194.471 193.639 192.975 191.013 188.987C190.717 188.549 190.453 188.104 190.229 187.658C184.666 183.063 175.216 190.764 181.532 196.405C182.916 197.351 184.676 196.808 185.926 195.887C187.812 194.44 187.403 191.478 185.427 190.311C184.98 189.997 184.45 190.254 183.997 190.386C183.149 190.633 182.721 191.408 182.052 191.903C181.939 192 181.795 192.163 181.629 192.154C181.474 192.149 181.315 192.041 181.203 191.941C180.471 191.226 180.893 190.014 181.593 189.433C182.699 188.49 184.369 187.881 185.796 188.347C188.323 189.458 189.774 192.637 188.75 195.241C187.735 197.857 184.551 199.325 181.872 198.674C180.331 198.305 179.146 197.109 178.339 195.8C174.512 189.208 183.129 181.833 189.396 185.338C187.843 178.433 194.052 171.498 201.721 172.97C204.715 173.627 206.726 176.661 207.081 179.576C207.611 183.493 204.27 187.433 200.217 186.823C195.739 186.208 193.008 181.099 197.133 178.019C198.52 177.218 201.325 176.997 202.185 178.642C202.388 179.14 202.355 179.754 201.891 180.073C201.87 180.071 201.846 180.059 201.829 180.054C201.192 180.002 200.715 179.561 200.118 179.441C198.439 179.118 197.166 180.52 197.163 182.128C197.864 185.155 202.09 186.105 203.888 183.482C205.319 181.674 205.296 179.107 204.245 177.138C202.348 173.584 197.468 174.42 194.757 176.523C190.508 179.544 190.258 185.79 193.802 189.451C196.82 192.516 201.722 192.681 205.58 191.307C208.17 190.282 210.298 188.45 212.045 186.319C212.888 185.253 213.651 184.078 213.91 182.723C213.934 182.643 213.954 182.567 213.984 182.495C212.084 176.284 211.93 169.667 214.544 163.467C218.171 154.528 226.052 147.929 234.857 144.35C244.671 139.865 255.526 138.873 266.188 138.914C271.635 138.862 277.077 139.012 282.523 139.059C284.219 139.065 285.929 139.046 287.617 139.118C288.133 139.183 288.803 139.035 289.17 139.471C289.996 138.684 290.58 139.848 290.574 140.63C290.237 143.046 289.671 145.441 289.267 147.855C288.633 151.336 288.058 154.832 287.378 158.305C286.345 163.577 285.064 168.805 283.735 174.008C282.135 180.115 280.356 186.237 277.371 191.834C272.457 201.015 263.098 207.841 252.744 209.286C245.858 210.323 239.314 209.349 233.562 206.522C232.913 206.632 232.254 206.723 231.647 207.006C228.231 208.496 225.112 211.199 223.99 214.848C222.77 218.574 223.47 221.891 226.261 224.691C228.933 227.574 233.109 229.731 237.03 228.401C242.772 226.285 241.68 218.452 236.748 216.041C234.331 214.882 231.311 217.026 231.51 219.667C232.01 223.28 236.752 222.437 234.714 218.82C234.476 218.274 234.645 217.918 235.204 217.734C236.506 217.302 237.6 218.615 237.66 219.828C237.748 226.145 229.487 225.703 229.046 219.819C228.809 216.658 231.541 213.596 234.721 213.534C237.509 213.399 239.902 215.29 241.391 217.501C243.323 220.189 243.777 223.987 242.012 226.871C239.909 230.704 234.933 231.497 231.058 230.227C230.235 229.959 229.441 229.6 228.683 229.177C228.998 230.013 229.212 230.876 229.306 231.73C229.588 233.977 229.805 236.385 228.663 238.438L228.671 238.432Z" fill="#409CBA"/>
<path d="M216.104 221.892C216.576 223.785 214.323 225.027 212.837 225.611C210.585 226.378 207.769 226.681 205.664 225.432C204.694 224.724 204.265 223.341 204.586 222.196C204.984 220.972 206.293 220.35 207.453 220.052C209.97 219.387 214.589 219.459 216.103 221.899L216.104 221.892Z" fill="#409CBA"/>
<path d="M208.508 213.433C206.844 215.13 204.467 216.664 202.021 216.491C200.838 216.295 199.83 215.251 199.6 214.085C199.406 212.816 200.295 211.665 201.198 210.876C203.145 209.147 207.302 207.14 209.757 208.635C211.026 210.113 209.582 212.228 208.516 213.419L208.509 213.426L208.508 213.433Z" fill="#409CBA"/>
<path d="M201.227 204.741C200.832 207.088 199.755 209.731 197.635 210.997C196.551 211.506 195.13 211.231 194.276 210.397C193.394 209.461 193.469 208.014 193.763 206.853C194.378 204.324 196.644 200.298 199.517 200.131C201.389 200.618 201.419 203.154 201.231 204.737L201.227 204.741Z" fill="#409CBA"/>
<path d="M190.717 208.652C189.902 209.535 188.482 209.806 187.379 209.357C186.211 208.825 185.731 207.452 185.574 206.264C185.196 203.691 185.787 199.108 188.383 197.875C190.319 197.623 191.296 200.004 191.71 201.545C192.22 203.866 192.199 206.695 190.717 208.652Z" fill="#409CBA"/>
<path d="M183.411 209.468C182.968 210.586 181.74 211.349 180.548 211.326C179.268 211.246 178.328 210.136 177.753 209.089C176.473 206.823 175.384 202.332 177.365 200.251C179.065 199.324 180.821 201.163 181.764 202.447C183.08 204.432 184.095 207.096 183.408 209.464L183.411 209.468Z" fill="#409CBA"/>
<path d="M177.114 212.594C177.386 213.763 176.814 215.091 175.821 215.752C174.721 216.419 173.322 216.04 172.246 215.508C169.905 214.376 166.448 211.305 166.891 208.469C167.76 206.735 170.255 207.248 171.767 207.768C173.981 208.653 176.328 210.26 177.114 212.594Z" fill="#409CBA"/>
<path d="M173.348 222.27C172.579 223.299 171.137 223.476 169.947 223.386C167.349 223.212 162.995 221.668 162.34 218.872C162.497 216.953 164.971 216.482 166.561 216.395C166.569 216.395 166.576 216.396 166.586 216.393C168.972 216.38 171.756 216.993 173.368 218.863C174.058 219.844 174.025 221.295 173.352 222.274L173.348 222.27Z" fill="#409CBA"/>
<path d="M173.395 229.092C173.108 230.345 171.861 231.086 170.735 231.486C168.289 232.38 163.685 232.723 161.95 230.433C161.314 228.595 163.434 227.151 164.853 226.434C167.024 225.466 169.81 224.906 172.025 225.961C173.055 226.578 173.612 227.918 173.392 229.088L173.395 229.092Z" fill="#409CBA"/>
<path d="M175.141 238.385C173.353 240.275 169.384 242.64 166.814 241.363C165.415 240.002 166.677 237.767 167.629 236.49L167.636 236.483C169.144 234.649 171.381 232.914 173.833 232.871C175.031 232.962 176.124 233.914 176.454 235.059C176.756 236.308 175.972 237.527 175.141 238.392L175.141 238.385Z" fill="#409CBA"/>
<path d="M181.787 243.512C180.713 245.883 177.743 249.419 174.89 249.056C173.128 248.23 173.583 245.707 174.067 244.192C174.059 244.205 174.058 244.219 174.05 244.233L174.072 244.174C174.901 241.949 176.443 239.579 178.747 238.727C179.908 238.422 181.252 238.961 181.939 239.938C182.633 241.022 182.291 242.428 181.79 243.516L181.787 243.512Z" fill="#409CBA"/>
<path d="M190.22 244.157C190.691 246.716 190.262 251.318 187.712 252.643C185.799 252.968 184.733 250.644 184.261 249.12C183.664 246.813 183.577 243.972 184.992 241.961C185.774 241.046 187.184 240.725 188.304 241.133C189.489 241.624 190.016 242.975 190.22 244.157Z" fill="#409CBA"/>
<path d="M198.791 250.154C197.133 251.176 195.272 249.414 194.265 248.179L194.255 248.167C192.845 246.256 191.704 243.667 192.258 241.275C192.639 240.139 193.826 239.305 195.019 239.268C196.301 239.281 197.298 240.335 197.929 241.354C199.324 243.548 200.655 247.976 198.787 250.157L198.791 250.154Z" fill="#409CBA"/>
<path d="M207.823 244.345C206.506 245.772 204.245 244.579 202.94 243.664C201.06 242.202 199.254 240.006 199.147 237.549C199.214 236.353 200.128 235.232 201.265 234.876C202.506 234.542 203.745 235.296 204.629 236.104C206.562 237.842 209.032 241.748 207.823 244.352L207.823 244.345Z" fill="#409CBA"/>
<path d="M180.122 233.946C186.958 240.616 198.743 237.193 200.992 227.96C203.392 218.718 194.732 210.177 185.557 212.697C176.172 215.187 173.104 227.288 180.115 233.946L180.122 233.946ZM202.004 230.819C197.734 240.659 184.182 242.36 177.572 233.936C171.15 225.962 175.179 213.754 185.057 211.164C196.66 207.982 206.885 219.842 201.997 230.819L202.004 230.819Z" fill="#409CBA"/>
<path d="M192.485 229.816C192.709 229.624 192.922 229.421 193.127 229.206C193.309 229.004 193.477 228.793 193.632 228.575C193.772 228.362 193.902 228.145 194.022 227.924C194.131 227.699 194.237 227.469 194.33 227.232C194.411 226.997 194.482 226.765 194.543 226.529C194.598 226.271 194.642 226.016 194.669 225.755C194.689 225.502 194.701 225.248 194.699 224.992C194.69 224.737 194.664 224.483 194.626 224.232C194.579 223.963 194.518 223.692 194.471 223.522C194.463 223.49 194.451 223.46 194.44 223.424C194.36 223.17 194.262 222.925 194.156 222.68C194.034 222.422 193.898 222.171 193.768 221.966C193.679 221.825 193.605 221.684 193.535 221.534C193.523 221.504 193.511 221.475 193.499 221.446C193.49 221.428 193.481 221.402 193.475 221.387C193.453 221.315 193.43 221.242 193.407 221.17C193.367 221.138 193.331 221.104 193.294 221.069C192.996 220.798 192.736 220.488 192.434 220.22C192.255 220.065 192.068 219.916 191.873 219.78C191.647 219.625 191.417 219.48 191.175 219.352C191.155 219.343 191.141 219.335 191.124 219.323C191.124 219.323 191.124 219.323 191.121 219.319C191.011 219.282 190.899 219.253 190.785 219.219C190.66 219.181 190.528 219.15 190.403 219.119C190.149 219.061 189.893 219.016 189.64 218.99L189.626 218.989C189.274 218.955 188.924 218.946 188.573 218.951C188.246 218.961 187.915 218.989 187.592 219.043C187.347 219.088 187.102 219.14 186.864 219.207C186.62 219.284 186.376 219.368 186.142 219.47C185.925 219.571 185.714 219.693 185.513 219.819C185.238 219.99 184.975 220.175 184.745 220.367C184.544 220.539 184.352 220.723 184.171 220.918C183.985 221.124 183.81 221.333 183.651 221.555C183.504 221.767 183.374 221.984 183.25 222.208C183.247 222.212 183.242 222.222 183.242 222.229C183.121 222.464 183.018 222.704 182.921 222.952C182.831 223.2 182.759 223.454 182.696 223.711C182.653 223.906 182.621 224.099 182.599 224.295C182.578 224.524 182.571 224.754 182.571 224.984C182.582 225.251 182.612 225.515 182.645 225.776C182.7 226.078 182.762 226.381 182.849 226.674C182.935 226.95 183.034 227.22 183.149 227.484C183.268 227.737 183.398 227.981 183.543 228.219C183.701 228.465 183.871 228.701 184.055 228.931C184.234 229.14 184.428 229.335 184.626 229.528C184.836 229.71 185.049 229.882 185.267 230.044C185.5 230.2 185.74 230.35 185.989 230.479C186.207 230.587 186.43 230.686 186.657 230.774C186.889 230.852 187.124 230.927 187.357 230.983C187.629 231.04 187.902 231.089 188.179 231.121C188.433 231.14 188.687 231.152 188.942 231.151C189.202 231.138 189.463 231.112 189.724 231.079C189.971 231.038 190.217 230.979 190.456 230.912C190.725 230.826 190.991 230.729 191.254 230.615C191.442 230.526 191.62 230.427 191.798 230.32C192.04 230.165 192.269 230.001 192.491 229.823L192.485 229.816ZM195.961 229.532C195.188 230.795 194.085 231.834 192.774 232.524C191.342 233.279 189.707 233.661 188.088 233.523C186.965 233.427 185.905 233.112 184.905 232.607C183.979 232.118 183.143 231.459 182.463 230.667C182.069 230.208 181.725 229.7 181.451 229.158C180.82 227.915 180.466 226.514 180.562 225.114C180.647 223.909 180.898 222.713 181.438 221.624C181.962 220.562 182.692 219.632 183.502 218.957C183.828 218.677 184.177 218.431 184.541 218.204C184.82 218.037 185.114 217.897 185.408 217.763L185.433 217.755C185.694 217.636 185.968 217.526 186.237 217.433C186.288 217.416 186.339 217.398 186.39 217.381C186.455 217.358 186.528 217.335 186.597 217.315C186.684 217.287 186.771 217.265 186.857 217.243C186.879 217.238 186.897 217.236 186.912 217.23C187.009 217.205 187.103 217.184 187.197 217.163C187.294 217.138 187.391 217.121 187.488 217.104L187.51 217.098C187.607 217.081 187.707 217.067 187.804 217.05C187.888 217.017 187.972 216.992 188.058 216.97C188.098 216.962 188.141 216.951 188.181 216.944C188.22 216.936 188.267 216.929 188.31 216.925C188.399 216.914 188.492 216.907 188.574 216.903C188.648 216.898 188.726 216.897 188.801 216.899C188.858 216.896 188.911 216.897 188.967 216.901C189.023 216.905 189.077 216.906 189.133 216.91C189.451 216.927 189.769 216.976 190.083 217.05L190.086 217.047C190.114 217.049 190.136 217.051 190.16 217.056C190.213 217.063 190.265 217.071 190.314 217.075C190.374 217.083 190.437 217.095 190.5 217.107C190.822 217.16 191.135 217.233 191.451 217.325C191.544 217.349 191.638 217.381 191.731 217.413C191.762 217.426 191.793 217.432 191.807 217.44C192.176 217.571 192.526 217.718 192.87 217.897C193.654 218.304 194.384 218.856 194.983 219.508C195.074 219.614 195.162 219.716 195.253 219.822C195.276 219.849 195.302 219.879 195.324 219.913C195.363 219.965 195.405 220.022 195.443 220.081C195.471 220.122 195.497 220.16 195.522 220.204L195.528 220.212C195.528 220.212 195.531 220.216 195.535 220.219C195.617 220.3 195.695 220.391 195.77 220.485C195.96 220.73 196.111 221.022 196.25 221.298C196.28 221.364 196.314 221.427 196.345 221.493C196.375 221.559 196.405 221.625 196.433 221.688C196.457 221.739 196.478 221.787 196.499 221.841C196.535 221.922 196.568 222.006 196.601 222.083C196.607 222.091 196.606 222.105 196.613 222.112L196.657 222.226C196.929 222.941 197.097 223.705 197.155 224.471C197.294 226.236 196.881 228.025 195.954 229.539L195.961 229.532Z" fill="#409CBA"/>
</svg>
