<svg width="390" height="420" viewBox="0 0 390 420" fill="none" xmlns="http://www.w3.org/2000/svg">
<path d="M390.5 0H-1.00006C-1.00006 0 -0.75693 129.584 -1.00003 213C-1.23405 293.301 -1 417 -1 417C-1 417 66.072 393.491 112.37 388.416C225.959 375.962 363 471.5 390.5 377V0Z" fill="#CFAA38"/>
<path d="M185.114 225.186C184.374 225.591 183.413 225.282 182.614 225.209C179.569 224.758 175.772 223.021 175.264 219.66C175.116 218.443 176.286 216.549 177.601 216.22C177.818 216.141 178.039 216.091 178.267 216.066C178.67 216.018 179.076 216.053 179.461 216.143C179.525 216.154 179.583 216.174 179.645 216.191C179.722 216.218 179.805 216.236 179.88 216.258C180.038 216.308 180.187 216.363 180.341 216.427C180.533 216.514 180.725 216.612 180.899 216.729C182.948 217.812 184.132 221.029 184.875 222.963C185.021 223.643 185.685 224.587 185.114 225.186Z" fill="#AE8F30"/>
<path d="M193.003 217.085C192.428 217.696 191.413 217.702 190.632 217.882C187.599 218.395 183.45 217.923 181.922 214.885C181.403 213.769 181.93 211.608 183.082 210.89C183.265 210.753 183.461 210.63 183.672 210.538C184.042 210.368 184.439 210.275 184.831 210.238C184.893 210.234 184.955 210.23 185.02 210.231C185.103 210.227 185.185 210.219 185.266 210.222C185.427 210.224 185.594 210.227 185.754 210.239C185.962 210.261 186.176 210.295 186.381 210.354C188.665 210.752 190.785 213.441 192.087 215.048C192.44 215.649 193.363 216.338 193.003 217.085Z" fill="#AE8F30"/>
<path d="M197.938 208.174C197.494 208.892 196.505 209.093 195.776 209.423C192.905 210.528 188.743 210.889 186.644 208.21C185.916 207.223 186.002 205.001 186.989 204.065C187.141 203.895 187.309 203.738 187.495 203.605C187.826 203.368 188.192 203.2 188.572 203.083C188.632 203.064 188.695 203.05 188.757 203.035C188.838 203.017 188.918 202.994 188.995 202.978C189.156 202.947 189.317 202.916 189.48 202.901C189.69 202.883 189.904 202.874 190.114 202.889C192.434 202.826 195.042 205.043 196.639 206.357C197.103 206.881 198.144 207.375 197.938 208.174Z" fill="#AE8F30"/>
<path d="M201.774 200.126C201.331 200.843 200.342 201.045 199.613 201.374C196.742 202.48 192.579 202.841 190.481 200.162C189.753 199.175 189.837 196.948 190.826 196.017C190.975 195.842 191.146 195.69 191.331 195.556C191.657 195.317 192.027 195.147 192.407 195.031C192.467 195.012 192.529 194.997 192.591 194.983C192.673 194.964 192.752 194.942 192.83 194.925C192.991 194.894 193.154 194.868 193.314 194.848C193.522 194.826 193.739 194.822 193.948 194.837C196.266 194.769 198.877 196.99 200.473 198.304C200.936 198.825 201.979 199.322 201.772 200.121L201.774 200.126Z" fill="#AE8F30"/>
<path d="M202.093 189.197C200.257 191.667 196.93 194.195 193.727 193.053C192.583 192.61 191.469 190.681 191.802 189.367C191.836 189.142 191.898 188.92 191.982 188.709C192.133 188.331 192.356 187.992 192.616 187.695C192.657 187.648 192.698 187.601 192.746 187.557C192.804 187.501 192.858 187.438 192.915 187.378C193.035 187.266 193.156 187.153 193.284 187.054C193.45 186.925 193.631 186.804 193.816 186.703C195.742 185.409 199.132 185.889 201.186 186.143C201.857 186.338 203.004 186.198 203.256 186.986C203.264 187.83 202.534 188.528 202.099 189.199L202.093 189.197Z" fill="#AE8F30"/>
<path d="M189.507 189.785C189.188 190.016 188.826 190.203 188.431 190.311C188.212 190.375 187.987 190.416 187.758 190.427C186.419 190.633 184.606 189.334 184.274 188.154C183.449 184.852 186.29 181.789 188.926 180.202C189.634 179.829 190.402 179.176 191.239 179.263C191.998 179.595 191.749 180.72 191.871 181.406C191.927 183.473 192.073 186.899 190.6 188.685C190.479 188.862 190.342 189.03 190.198 189.181C190.083 189.295 189.962 189.408 189.839 189.516C189.774 189.569 189.707 189.618 189.647 189.668C189.597 189.709 189.548 189.749 189.496 189.785L189.507 189.785Z" fill="#AE8F30"/>
<path d="M180.798 187.869C180.479 188.1 180.117 188.287 179.724 188.4C179.505 188.464 179.278 188.501 179.051 188.516C177.71 188.718 175.899 187.423 175.567 186.242C174.742 182.941 177.583 179.878 180.219 178.291C180.927 177.918 181.695 177.265 182.532 177.352C183.291 177.684 183.042 178.808 183.168 179.493C183.225 181.56 183.368 184.982 181.898 186.772C181.776 186.949 181.638 187.112 181.495 187.267C181.38 187.382 181.259 187.494 181.136 187.603C181.076 187.653 181.005 187.704 180.944 187.755C180.895 187.795 180.843 187.831 180.793 187.872L180.798 187.869Z" fill="#AE8F30"/>
<path d="M171.908 187.164C171.706 187.273 171.493 187.351 171.272 187.411C169.997 187.879 167.967 186.964 167.407 185.873C165.943 182.803 168.117 179.235 170.391 177.159C171.012 176.653 171.636 175.857 172.472 175.779C173.282 175.953 173.259 177.105 173.517 177.752C173.985 179.767 174.805 183.092 173.716 185.139C173.633 185.339 173.531 185.523 173.422 185.704C173.331 185.844 173.238 185.97 173.136 186.099C173.086 186.161 173.026 186.223 172.978 186.289C172.937 186.335 172.898 186.386 172.857 186.433C172.586 186.72 172.269 186.976 171.908 187.164Z" fill="#AE8F30"/>
<path d="M163.698 188.459C162.63 189.296 160.418 189.056 159.548 188.191C157.205 185.722 158.171 181.657 159.683 178.983C160.117 178.312 160.462 177.36 161.236 177.024C162.057 176.937 162.394 178.041 162.844 178.578C163.914 180.353 165.723 183.258 165.322 185.544C165.303 185.756 165.267 185.965 165.218 186.17C165.173 186.331 165.125 186.482 165.068 186.638C165.041 186.715 165.002 186.788 164.972 186.866C164.952 186.924 164.923 186.986 164.897 187.041C164.731 187.4 164.51 187.743 164.224 188.031C164.064 188.195 163.885 188.341 163.694 188.461L163.698 188.459Z" fill="#AE8F30"/>
<path d="M157.297 190.948C156.844 192.225 154.846 193.207 153.645 192.942C150.343 192.109 148.988 188.16 148.838 185.084C148.845 184.28 148.629 183.293 149.106 182.602C149.755 182.087 150.631 182.842 151.295 183.056C153.146 183.985 156.23 185.473 157.112 187.616C157.216 187.805 157.291 188.003 157.36 188.199C157.41 188.355 157.449 188.512 157.484 188.671C157.503 188.752 157.511 188.834 157.529 188.915C157.544 188.978 157.552 189.038 157.562 189.102C157.614 189.492 157.61 189.899 157.523 190.299C157.478 190.523 157.402 190.737 157.308 190.948L157.297 190.948Z" fill="#AE8F30"/>
<path d="M151.09 198.52C150.913 198.638 150.719 198.733 150.522 198.808C150.167 198.944 149.796 199.003 149.425 199.008C149.367 199.01 149.308 199.007 149.248 199.004C149.171 198.999 149.091 199.001 149.016 199C148.867 198.988 148.715 198.972 148.565 198.949C148.372 198.915 148.178 198.866 147.992 198.803C145.898 198.281 144.107 195.643 142.999 194.064C142.713 193.478 141.901 192.777 142.284 192.11C142.861 191.578 143.8 191.646 144.536 191.526C147.391 191.25 151.21 191.963 152.428 194.891C152.839 195.959 152.204 197.932 151.092 198.524L151.09 198.52Z" fill="#AE8F30"/>
<path d="M149.451 206.41C149.378 206.446 149.305 206.482 149.232 206.517C149.081 206.58 148.931 206.643 148.776 206.698C148.579 206.762 148.372 206.82 148.162 206.849C145.93 207.418 142.909 205.84 141.071 204.916C140.505 204.51 139.387 204.262 139.411 203.44C139.684 202.646 140.6 202.23 141.234 201.749C143.777 200.048 147.733 198.785 150.361 200.923C151.286 201.723 151.688 203.899 150.935 205.018C150.824 205.217 150.698 205.406 150.547 205.576C150.281 205.882 149.957 206.126 149.619 206.317C149.563 206.345 149.509 206.376 149.451 206.4L149.451 206.41Z" fill="#AE8F30"/>
<path d="M152.042 214.675C150.133 215.971 146.757 215.51 144.716 215.261C144.05 215.075 142.909 215.217 142.655 214.435C142.645 213.598 143.364 212.899 143.799 212.229C145.611 209.765 148.906 207.237 152.098 208.357C153.24 208.796 154.356 210.708 154.03 212.013C153.996 212.238 153.938 212.458 153.855 212.669C153.708 213.045 153.491 213.386 153.231 213.683C153.19 213.73 153.149 213.777 153.101 213.821C153.043 213.877 152.989 213.94 152.933 214C152.816 214.11 152.695 214.223 152.568 214.322C152.402 214.451 152.227 214.574 152.042 214.675Z" fill="#AE8F30"/>
<path d="M157.981 220.705C156.736 222.662 153.438 223.582 151.456 224.172C150.762 224.267 149.769 224.853 149.222 224.236C148.878 223.466 149.263 222.532 149.394 221.742C150.087 218.744 152.113 215.093 155.51 214.856C156.738 214.804 158.527 216.12 158.755 217.459C158.815 217.68 158.848 217.909 158.852 218.136C158.868 218.539 158.8 218.946 158.683 219.317C158.665 219.379 158.641 219.439 158.617 219.499C158.586 219.578 158.562 219.659 158.534 219.731C158.468 219.881 158.403 220.03 158.324 220.175C158.222 220.358 158.113 220.539 157.977 220.707L157.981 220.705Z" fill="#AE8F30"/>
<path d="M161.74 229.646C161.17 230.052 160.568 231.034 159.794 230.747C159.13 230.229 159.032 229.222 158.784 228.463C157.996 225.49 158.087 221.314 160.977 219.518C162.039 218.897 164.242 219.227 165.061 220.304C165.218 220.472 165.351 220.657 165.465 220.858C165.663 221.208 165.799 221.595 165.866 221.983C165.874 222.043 165.889 222.106 165.895 222.172C165.903 222.254 165.917 222.337 165.929 222.417C165.945 222.579 165.954 222.74 165.955 222.905C165.951 223.115 165.938 223.329 165.895 223.536C165.708 225.846 163.226 228.205 161.746 229.648L161.74 229.646Z" fill="#AE8F30"/>
<path d="M174.25 229.33C174.011 229.985 174.067 231.136 173.264 231.336C172.423 231.284 171.777 230.507 171.141 230.024C168.809 228.013 166.525 224.519 167.891 221.404C168.415 220.295 170.418 219.322 171.708 219.746C171.93 219.798 172.148 219.872 172.353 219.975C172.717 220.154 173.045 220.399 173.321 220.68C173.363 220.723 173.408 220.77 173.448 220.82C173.501 220.885 173.56 220.941 173.613 221.006C173.717 221.131 173.817 221.258 173.91 221.394C174.026 221.566 174.134 221.753 174.222 221.945C175.371 223.958 174.652 227.305 174.248 229.336L174.25 229.33Z" fill="#AE8F30"/>
<path d="M165.726 215.884C168.782 216.346 171.706 214.837 174.15 213.162C180.128 208.337 183.761 201.278 186.878 194.418C179.903 192.636 172.615 190.026 165.375 191.78C160.885 192.856 157.213 196.379 155.854 200.774C154.875 203.449 155.517 206.344 156.925 208.743C158.771 212.094 161.819 215.231 165.73 215.882L165.726 215.884ZM175.351 214.702C172.519 216.609 169.113 218.125 165.639 217.681C159.514 216.742 154.674 210.888 153.525 205.016C152.8 198.366 158.094 191.891 164.416 190.32C171.545 188.492 180.745 190.955 187.418 193.658C187.633 193.409 187.941 193.125 188.271 193.113C189.266 194.178 188.49 195.73 188.015 196.863C186.899 199.498 185.583 202.071 184.062 204.489C181.645 208.245 178.962 212.014 175.346 214.704L175.351 214.702Z" fill="#AE8F30"/>
<path d="M149.718 229.175C160.84 237.805 174.601 236.807 185.768 228.933C190.36 225.328 193.766 220.433 196.846 215.558C200.428 209.659 203.661 203.548 206.717 197.357C209.282 192.084 211.59 186.664 214.346 181.495C198.706 178.901 183.438 171.68 167.306 173.544C157.869 174.389 148.259 178.022 142.25 185.608C134.813 194.622 136.102 207.324 140.845 217.297C142.949 221.872 145.856 226.042 149.722 229.173L149.718 229.175ZM135.059 258.123C131.627 262.029 125.234 260.096 123.01 255.874C122.212 254.132 122.471 252.001 123.519 250.417C122.615 251.664 120.493 251.369 119.147 251.014C119.147 251.014 119.147 251.014 119.136 251.014C119.136 251.014 119.13 251.012 119.124 251.01C119.124 251.01 119.119 251.012 119.113 251.01C116.943 250.312 114.602 248.935 113.689 246.764C113.35 245.666 113.807 244.355 114.713 243.657C115.719 242.946 117.081 243.213 118.146 243.646C120.464 244.571 123.974 247.269 123.746 250.008C123.702 250.115 123.652 250.209 123.595 250.3C123.854 249.934 124.156 249.594 124.497 249.299C125.723 248.252 127.314 247.331 128.977 247.733C132.021 248.366 135.17 252.451 132.394 255.103C131.323 256.304 129.516 256.904 128.011 256.201C127.616 255.973 127.359 255.534 127.32 255.084C127.492 255.021 127.696 255.001 127.878 254.982C128.762 254.992 129.485 255.379 130.299 254.843C132.208 253.403 131.631 251.014 129.686 249.924C127.791 248.633 125.638 250.421 124.874 252.186C124.246 253.724 124.606 255.595 125.888 256.69C127.472 258.218 130.03 258.914 132.044 257.865C134.616 255.963 134.989 252.571 135.058 249.605C135.051 248.425 134.702 247.274 134.373 246.155C134.319 245.739 133.828 244.823 133.661 244.132C133.619 244.035 133.575 243.934 133.537 243.835C132.739 241.581 132.423 239.038 133.339 236.768C134.357 233.77 136.237 231.171 139.111 229.723C141.056 228.794 143.329 227.96 145.524 228.043C142.994 225.474 140.884 222.391 139.26 218.851C137.223 214.772 135.76 210.221 135.182 205.604C134.655 206.358 133.955 206.988 133.287 207.496C130.143 209.843 126.253 211.143 122.342 210.656C117.958 210.139 113.531 207.506 112.058 203.173C111.888 202.696 111.751 202.22 111.65 201.752C107.599 196.147 96.9754 201.011 101.473 207.767C102.529 208.978 104.292 208.9 105.674 208.347C107.772 207.459 108.108 204.614 106.556 203.054C106.217 202.654 105.664 202.765 105.212 202.778C104.366 202.803 103.782 203.419 103.042 203.716C102.913 203.779 102.741 203.896 102.589 203.847C102.446 203.805 102.325 203.667 102.245 203.546C101.739 202.707 102.422 201.685 103.212 201.315C104.466 200.707 106.161 200.544 107.373 201.322C109.449 202.962 110.028 206.261 108.449 208.429C106.877 210.61 103.569 211.204 101.241 209.954C99.9006 209.24 99.0905 207.845 98.6576 206.436C96.6985 199.398 106.471 194.636 111.438 199.398C111.663 192.619 119.096 187.685 125.855 190.9C128.473 192.232 129.607 195.531 129.233 198.321C128.779 202.082 124.73 204.931 121.117 203.387C117.112 201.736 115.811 196.338 120.381 194.477C121.86 194.068 124.516 194.539 124.916 196.273C124.984 196.784 124.806 197.345 124.299 197.529C124.279 197.523 124.26 197.506 124.245 197.497C123.667 197.295 123.331 196.771 122.806 196.516C121.326 195.811 119.807 196.804 119.417 198.296C119.337 201.272 123.028 203.172 125.329 201.173C127.092 199.842 127.69 197.455 127.19 195.375C126.287 191.621 121.56 191.219 118.537 192.516C113.867 194.292 112.128 200.025 114.532 204.277C116.593 207.848 121.1 209.184 125.01 208.84C127.66 208.514 130.076 207.328 132.21 205.773C133.249 204.987 134.24 204.082 134.808 202.887C134.849 202.819 134.886 202.753 134.931 202.694C134.668 196.474 136.121 190.299 140.041 185.179C145.562 177.762 154.465 173.543 163.496 172.347C173.681 170.555 183.989 172.253 193.87 174.864C198.934 176.13 203.946 177.581 208.986 178.939C210.559 179.354 212.149 179.749 213.697 180.223C214.16 180.407 214.818 180.432 215.053 180.925C216.009 180.394 216.27 181.615 216.075 182.339C215.18 184.499 214.078 186.583 213.12 188.725C211.692 191.801 210.315 194.905 208.847 197.963C206.617 202.604 204.167 207.144 201.679 211.649C198.721 216.928 195.594 222.177 191.475 226.649C184.701 233.98 174.374 238.054 164.421 236.896C157.783 236.197 151.948 233.714 147.295 229.704C146.666 229.649 146.033 229.575 145.402 229.691C141.874 230.249 138.329 232.004 136.408 235.118C134.377 238.28 134.226 241.526 136.139 244.796C137.922 248.115 141.275 251.124 145.233 250.835C151.07 250.258 151.947 242.729 147.953 239.303C145.991 237.645 142.673 238.905 142.22 241.402C141.812 244.875 146.414 245.237 145.396 241.39C145.307 240.826 145.55 240.536 146.113 240.501C147.425 240.414 148.123 241.896 147.885 243.035C146.443 248.917 138.887 246.513 139.898 240.949C140.441 237.959 143.714 235.778 146.678 236.488C149.297 237.036 151.06 239.367 151.908 241.777C153.051 244.737 152.556 248.369 150.223 250.619C147.347 253.666 142.541 253.202 139.253 251.088C138.555 250.641 137.904 250.117 137.303 249.542C137.394 250.393 137.384 251.245 137.266 252.06C136.985 254.212 136.605 256.499 135.05 258.127L135.059 258.123Z" fill="#AE8F30"/>
<path d="M127.393 239.75C127.374 241.619 124.985 242.227 123.465 242.411C121.191 242.579 118.506 242.181 116.855 240.515C116.126 239.624 116.061 238.237 116.635 237.253C117.3 236.214 118.665 235.952 119.813 235.955C122.308 235.945 126.574 237.127 127.39 239.756L127.393 239.75Z" fill="#AE8F30"/>
<path d="M122.388 230.07C120.435 231.243 117.859 232.092 115.632 231.342C114.583 230.874 113.9 229.662 113.967 228.526C114.094 227.302 115.196 226.448 116.224 225.935C118.447 224.8 122.787 223.942 124.704 225.921C125.524 227.598 123.674 229.212 122.399 230.059L122.39 230.064L122.388 230.07Z" fill="#AE8F30"/>
<path d="M117.731 220.251C116.798 222.333 115.162 224.524 112.89 225.187C111.761 225.398 110.509 224.8 109.918 223.82C109.326 222.74 109.745 221.415 110.298 220.41C111.478 218.212 114.552 215.024 117.257 215.563C118.876 216.466 118.292 218.825 117.735 220.249L117.731 220.251Z" fill="#AE8F30"/>
<path d="M107.039 221.343C106.07 221.966 104.687 221.874 103.772 221.192C102.817 220.416 102.703 219.027 102.844 217.887C103.114 215.409 104.768 211.301 107.473 210.784C109.33 211.016 109.662 213.461 109.674 214.99C109.587 217.266 108.885 219.886 107.039 221.343Z" fill="#AE8F30"/>
<path d="M100.065 220.337C99.3841 221.267 98.0611 221.679 96.9608 221.37C95.7927 220.987 95.1892 219.731 94.9078 218.621C94.2675 216.21 94.3412 211.781 96.68 210.329C98.481 209.88 99.6657 212.009 100.231 213.427C100.972 215.586 101.272 218.303 100.063 220.333L100.065 220.337Z" fill="#AE8F30"/>
<path d="M93.4694 221.718C93.4399 222.868 92.5884 223.961 91.5078 224.335C90.3267 224.689 89.1206 223.999 88.2513 223.246C86.3531 221.631 83.8865 217.949 84.9819 215.425C86.2066 214.027 88.3966 215.104 89.6741 215.951C91.5147 217.306 93.304 219.363 93.4694 221.718Z" fill="#AE8F30"/>
<path d="M87.6421 229.785C86.6801 230.554 85.3003 230.37 84.2177 229.999C81.8495 229.211 78.1835 226.728 78.2509 223.977C78.8596 222.234 81.2677 222.395 82.7642 222.697C82.7706 222.7 82.777 222.702 82.7877 222.702C85.0037 223.266 87.4385 224.506 88.4819 226.629C88.8857 227.706 88.5054 229.043 87.6442 229.789L87.6421 229.785Z" fill="#AE8F30"/>
<path d="M86.0394 236.123C85.4706 237.217 84.1351 237.604 82.9948 237.703C80.5103 237.942 76.1568 237.149 75.1 234.606C74.9538 232.748 77.2678 231.92 78.757 231.597C81.0049 231.223 83.7236 231.376 85.5242 232.889C86.3307 233.71 86.5241 235.087 86.0373 236.119L86.0394 236.123Z" fill="#AE8F30"/>
<path d="M85.4171 245.165C83.3022 246.487 79.0505 247.723 76.9741 245.919C76.0053 244.319 77.7151 242.55 78.9059 241.594L78.9145 241.59C80.7554 240.253 83.2494 239.183 85.534 239.734C86.623 240.108 87.4074 241.255 87.4379 242.396C87.4162 243.628 86.3948 244.57 85.4149 245.171L85.4171 245.165Z" fill="#AE8F30"/>
<path d="M90.3446 251.525C88.7768 253.464 85.1686 256.028 82.6098 255.003C81.1747 253.812 82.2055 251.581 83.0201 250.292C83.0093 250.303 83.0049 250.316 82.9941 250.326L83.0288 250.277C84.3348 248.413 86.3364 246.587 88.6794 246.353C89.8296 246.35 90.9467 247.174 91.3483 248.246C91.7298 249.419 91.0743 250.64 90.3467 251.529L90.3446 251.525Z" fill="#AE8F30"/>
<path d="M98.0119 254.157C97.8312 256.644 96.3228 260.809 93.638 261.424C91.7846 261.264 91.3564 258.85 91.2864 257.323C91.2896 255.04 91.8937 252.383 93.6913 250.859C94.6374 250.199 96.0228 250.241 96.9636 250.89C97.9444 251.631 98.1077 253.012 98.0119 254.157Z" fill="#AE8F30"/>
<path d="M104.515 261.788C102.73 262.335 101.43 260.253 100.793 258.863L100.787 258.851C99.9403 256.738 99.5058 254.061 100.597 251.976C101.225 251.014 102.527 250.526 103.643 250.78C104.829 251.101 105.499 252.319 105.838 253.417C106.603 255.788 106.769 260.217 104.511 261.79L104.515 261.788Z" fill="#AE8F30"/>
<path d="M114.295 258.579C112.729 259.584 110.919 257.932 109.929 256.768C108.538 254.959 107.393 252.486 107.886 250.182C108.237 249.088 109.356 248.269 110.496 248.213C111.727 248.203 112.695 249.201 113.32 250.164C114.694 252.243 116.042 256.461 114.293 258.585L114.295 258.579Z" fill="#AE8F30"/>
<path d="M91.1082 242.25C95.8403 250.086 107.597 249.753 111.911 241.732C116.367 233.738 110.395 223.726 101.276 223.85C91.9699 223.896 86.2052 234.38 91.1018 242.247L91.1082 242.25ZM112.16 244.628C105.825 252.725 92.8441 251.033 88.745 241.625C84.7125 232.679 91.3948 222.327 101.183 222.307C112.713 222.155 119.336 235.624 112.153 244.626L112.16 244.628Z" fill="#AE8F30"/>
<path d="M103.572 241.401C103.826 241.277 104.074 241.14 104.315 240.99C104.532 240.846 104.739 240.692 104.936 240.526C105.117 240.363 105.29 240.193 105.454 240.017C105.61 239.834 105.764 239.647 105.907 239.449C106.039 239.251 106.161 239.053 106.274 238.848C106.388 238.622 106.49 238.396 106.578 238.162C106.657 237.931 106.73 237.698 106.79 237.461C106.844 237.221 106.88 236.98 106.906 236.738C106.927 236.477 106.936 236.211 106.933 236.042C106.934 236.01 106.93 235.98 106.928 235.944C106.915 235.689 106.883 235.438 106.845 235.185C106.793 234.917 106.727 234.65 106.656 234.429C106.608 234.277 106.573 234.129 106.545 233.972C106.541 233.942 106.537 233.912 106.533 233.882C106.529 233.863 106.527 233.837 106.525 233.822C106.521 233.749 106.517 233.676 106.514 233.603C106.484 233.564 106.459 233.524 106.433 233.483C106.222 233.159 106.056 232.809 105.84 232.488C105.711 232.3 105.574 232.117 105.426 231.944C105.254 231.746 105.076 231.556 104.882 231.378C104.865 231.365 104.855 231.355 104.842 231.34C104.842 231.34 104.842 231.34 104.84 231.335C104.746 231.274 104.65 231.22 104.552 231.161C104.446 231.096 104.331 231.035 104.222 230.976C104 230.861 103.774 230.758 103.546 230.673L103.533 230.668C103.215 230.552 102.892 230.459 102.565 230.379C102.26 230.31 101.945 230.256 101.633 230.227C101.395 230.21 101.155 230.199 100.918 230.204C100.673 230.217 100.427 230.236 100.185 230.274C99.9593 230.315 99.7339 230.377 99.5169 230.446C99.2206 230.538 98.9326 230.647 98.6724 230.768C98.4443 230.88 98.2226 231.004 98.0072 231.142C97.7853 231.287 97.572 231.44 97.3713 231.607C97.1835 231.768 97.0107 231.938 96.842 232.116C96.8377 232.119 96.8312 232.127 96.829 232.133C96.6603 232.323 96.5064 232.52 96.3568 232.727C96.2136 232.935 96.0853 233.153 95.9655 233.377C95.8783 233.547 95.8019 233.718 95.7339 233.895C95.6592 234.102 95.5974 234.314 95.5419 234.527C95.4883 234.777 95.4518 235.03 95.4196 235.28C95.3977 235.573 95.3822 235.869 95.3924 236.162C95.405 236.439 95.4325 236.713 95.4751 236.985C95.5241 237.249 95.5861 237.507 95.6631 237.762C95.7506 238.029 95.8511 238.289 95.9666 238.547C96.0823 238.783 96.2152 239.012 96.3524 239.238C96.5025 239.458 96.6591 239.669 96.8222 239.872C97.0004 240.072 97.1871 240.269 97.3868 240.448C97.5632 240.602 97.7461 240.747 97.9355 240.884C98.1314 241.012 98.3316 241.138 98.5341 241.247C98.7729 241.365 99.0139 241.476 99.2637 241.572C99.4943 241.652 99.7271 241.724 99.9643 241.784C100.208 241.836 100.456 241.874 100.706 241.907C100.946 241.928 101.188 241.932 101.426 241.928C101.696 241.913 101.966 241.888 102.238 241.845C102.434 241.808 102.622 241.759 102.814 241.703C103.076 241.617 103.327 241.521 103.576 241.41L103.572 241.401ZM106.865 241.976C105.844 242.961 104.569 243.659 103.187 243.983C101.676 244.338 100.068 244.297 98.5994 243.779C97.581 243.419 96.6735 242.871 95.8681 242.161C95.1266 241.484 94.5106 240.671 94.071 239.772C93.8165 239.252 93.6201 238.697 93.4966 238.129C93.2105 236.824 93.2207 235.438 93.6476 234.163C94.0172 233.066 94.5384 232.017 95.3023 231.137C96.0445 230.278 96.9459 229.592 97.8599 229.161C98.2299 228.98 98.6125 228.836 99.0055 228.713C99.304 228.626 99.6108 228.567 99.9154 228.514L99.9411 228.512C100.211 228.465 100.492 228.429 100.764 228.408C100.816 228.404 100.867 228.4 100.919 228.396C100.985 228.39 101.058 228.387 101.127 228.385C101.214 228.38 101.3 228.38 101.386 228.381C101.407 228.381 101.424 228.384 101.439 228.382C101.536 228.382 101.628 228.385 101.72 228.388C101.816 228.389 101.91 228.396 102.005 228.404L102.026 228.404C102.12 228.411 102.216 228.423 102.311 228.43C102.396 228.42 102.48 228.416 102.566 228.417C102.604 228.42 102.647 228.42 102.685 228.423C102.724 228.425 102.769 228.43 102.81 228.437C102.895 228.448 102.983 228.464 103.06 228.479C103.13 228.493 103.203 228.511 103.271 228.531C103.325 228.542 103.374 228.555 103.425 228.573C103.476 228.59 103.526 228.604 103.577 228.621C103.867 228.714 104.151 228.836 104.424 228.98L104.428 228.978C104.454 228.987 104.473 228.993 104.494 229.004C104.541 229.024 104.588 229.044 104.633 229.059C104.686 229.081 104.742 229.107 104.797 229.133C105.083 229.26 105.356 229.404 105.627 229.565C105.708 229.61 105.786 229.662 105.865 229.715C105.891 229.734 105.918 229.747 105.929 229.758C106.24 229.968 106.529 230.189 106.805 230.438C107.434 231.005 107.979 231.693 108.377 232.442C108.436 232.562 108.492 232.679 108.551 232.799C108.566 232.829 108.583 232.864 108.595 232.9C108.618 232.958 108.644 233.02 108.664 233.085C108.681 233.13 108.696 233.171 108.708 233.218L108.712 233.227C108.712 233.227 108.715 233.231 108.717 233.235C108.774 233.33 108.824 233.433 108.87 233.539C108.988 233.812 109.058 234.119 109.12 234.408C109.132 234.477 109.148 234.543 109.161 234.612C109.173 234.681 109.185 234.749 109.195 234.814C109.205 234.867 109.214 234.917 109.219 234.972C109.234 235.056 109.244 235.142 109.256 235.221C109.26 235.23 109.256 235.243 109.26 235.251L109.274 235.367C109.353 236.096 109.325 236.845 109.194 237.57C108.897 239.24 108.082 240.801 106.857 241.981L106.865 241.976Z" fill="#AE8F30"/>
<path d="M287.64 140.184C286.9 140.588 285.939 140.28 285.14 140.206C282.094 139.755 278.298 138.019 277.79 134.658C277.642 133.44 278.811 131.547 280.127 131.218C280.344 131.138 280.565 131.089 280.793 131.063C281.196 131.015 281.602 131.051 281.987 131.14C282.051 131.151 282.109 131.171 282.171 131.189C282.248 131.215 282.331 131.233 282.406 131.255C282.564 131.306 282.713 131.361 282.867 131.424C283.059 131.512 283.251 131.61 283.425 131.727C285.474 132.81 286.657 136.026 287.401 137.961C287.547 138.641 288.211 139.585 287.64 140.184Z" fill="#AE8F30"/>
<path d="M295.529 132.082C294.954 132.694 293.939 132.7 293.157 132.879C290.124 133.392 285.976 132.92 284.448 129.883C283.929 128.767 284.456 126.606 285.608 125.888C285.791 125.75 285.987 125.628 286.198 125.536C286.568 125.365 286.965 125.273 287.357 125.235C287.419 125.232 287.481 125.228 287.546 125.228C287.629 125.225 287.711 125.217 287.792 125.22C287.953 125.221 288.12 125.225 288.28 125.237C288.488 125.258 288.702 125.292 288.907 125.352C291.191 125.749 293.311 128.439 294.613 130.046C294.966 130.647 295.889 131.336 295.529 132.082Z" fill="#AE8F30"/>
<path d="M300.464 123.171C300.02 123.889 299.031 124.09 298.302 124.42C295.431 125.525 291.268 125.887 289.17 123.208C288.442 122.221 288.528 119.998 289.515 119.063C289.667 118.893 289.835 118.736 290.02 118.602C290.352 118.365 290.718 118.197 291.098 118.081C291.158 118.062 291.22 118.048 291.283 118.033C291.364 118.015 291.444 117.992 291.521 117.975C291.682 117.945 291.843 117.914 292.006 117.898C292.216 117.881 292.43 117.872 292.64 117.887C294.96 117.824 297.568 120.04 299.165 121.354C299.629 121.879 300.67 122.372 300.464 123.171Z" fill="#AE8F30"/>
<path d="M304.3 115.123C303.857 115.841 302.868 116.042 302.139 116.372C299.268 117.477 295.105 117.839 293.007 115.16C292.279 114.172 292.363 111.946 293.352 111.014C293.501 110.84 293.672 110.687 293.857 110.554C294.183 110.315 294.553 110.145 294.933 110.028C294.993 110.009 295.055 109.995 295.117 109.981C295.199 109.962 295.278 109.939 295.356 109.923C295.517 109.892 295.68 109.866 295.84 109.846C296.048 109.824 296.265 109.819 296.474 109.834C298.792 109.767 301.403 111.988 302.999 113.302C303.462 113.822 304.505 114.32 304.298 115.119L304.3 115.123Z" fill="#AE8F30"/>
<path d="M304.619 104.195C302.783 106.665 299.456 109.192 296.253 108.05C295.109 107.607 293.995 105.678 294.328 104.364C294.362 104.14 294.424 103.917 294.508 103.706C294.659 103.328 294.882 102.99 295.142 102.692C295.183 102.646 295.224 102.599 295.272 102.554C295.33 102.499 295.384 102.435 295.44 102.376C295.561 102.263 295.682 102.151 295.81 102.051C295.976 101.922 296.157 101.802 296.342 101.701C298.268 100.407 301.658 100.887 303.712 101.141C304.383 101.335 305.53 101.196 305.782 101.984C305.79 102.828 305.06 103.526 304.625 104.197L304.619 104.195Z" fill="#AE8F30"/>
<path d="M292.033 104.783C291.714 105.013 291.352 105.201 290.957 105.309C290.738 105.373 290.513 105.414 290.284 105.425C288.945 105.631 287.132 104.332 286.8 103.151C285.975 99.8498 288.816 96.7867 291.452 95.1996C292.16 94.8268 292.928 94.174 293.765 94.2607C294.524 94.593 294.274 95.7173 294.397 96.4038C294.453 98.471 294.599 101.897 293.126 103.683C293.005 103.86 292.868 104.028 292.723 104.178C292.609 104.293 292.488 104.405 292.365 104.514C292.3 104.567 292.233 104.615 292.173 104.666C292.123 104.706 292.074 104.747 292.022 104.783L292.033 104.783Z" fill="#AE8F30"/>
<path d="M283.324 102.867C283.005 103.098 282.643 103.285 282.25 103.397C282.031 103.462 281.804 103.498 281.577 103.513C280.236 103.716 278.425 102.421 278.093 101.24C277.268 97.9386 280.109 94.8755 282.745 93.2883C283.453 92.9155 284.221 92.2627 285.058 92.3494C285.817 92.6817 285.567 93.8061 285.694 94.4904C285.751 96.5577 285.894 99.9793 284.424 101.77C284.302 101.946 284.164 102.11 284.021 102.265C283.906 102.38 283.785 102.492 283.662 102.6C283.602 102.651 283.531 102.702 283.47 102.753C283.421 102.793 283.369 102.829 283.319 102.869L283.324 102.867Z" fill="#AE8F30"/>
<path d="M274.434 102.161C274.231 102.271 274.019 102.348 273.798 102.408C272.523 102.877 270.493 101.961 269.933 100.87C268.469 97.8011 270.643 94.233 272.916 92.1565C273.538 91.6502 274.162 90.8547 274.998 90.7765C275.808 90.9507 275.785 92.1028 276.042 92.7498C276.511 94.765 277.331 98.0899 276.242 100.136C276.159 100.337 276.057 100.52 275.948 100.701C275.857 100.842 275.764 100.967 275.662 101.097C275.612 101.159 275.551 101.22 275.504 101.286C275.463 101.333 275.424 101.384 275.383 101.431C275.112 101.718 274.795 101.974 274.434 102.161Z" fill="#AE8F30"/>
<path d="M266.224 103.457C265.156 104.293 262.944 104.053 262.073 103.189C259.731 100.72 260.697 96.6548 262.209 93.9804C262.643 93.3096 262.988 92.3574 263.762 92.0217C264.583 91.9347 264.92 93.0386 265.369 93.5759C266.44 95.3502 268.249 98.2555 267.848 100.541C267.829 100.753 267.792 100.963 267.743 101.168C267.699 101.328 267.651 101.48 267.594 101.636C267.567 101.713 267.528 101.785 267.497 101.864C267.478 101.922 267.449 101.984 267.423 102.039C267.257 102.397 267.036 102.74 266.75 103.029C266.59 103.192 266.411 103.339 266.22 103.459L266.224 103.457Z" fill="#AE8F30"/>
<path d="M259.823 105.946C259.37 107.222 257.372 108.205 256.171 107.939C252.869 107.107 251.514 103.158 251.364 100.081C251.371 99.2781 251.155 98.291 251.632 97.5991C252.281 97.0845 253.157 97.8398 253.821 98.0534C255.672 98.9823 258.756 100.47 259.638 102.614C259.742 102.803 259.817 103.001 259.886 103.196C259.936 103.353 259.975 103.51 260.01 103.668C260.029 103.75 260.037 103.831 260.055 103.913C260.07 103.975 260.078 104.035 260.088 104.1C260.14 104.49 260.136 104.897 260.049 105.297C260.004 105.521 259.928 105.735 259.834 105.946L259.823 105.946Z" fill="#AE8F30"/>
<path d="M253.615 113.517C253.439 113.636 253.245 113.73 253.047 113.806C252.693 113.942 252.322 114.001 251.951 114.006C251.893 114.007 251.833 114.005 251.774 114.002C251.696 113.997 251.617 113.999 251.542 113.998C251.392 113.986 251.241 113.97 251.091 113.947C250.898 113.913 250.704 113.864 250.518 113.8C248.424 113.278 246.633 110.641 245.525 109.061C245.239 108.476 244.427 107.775 244.81 107.108C245.387 106.575 246.326 106.644 247.062 106.524C249.917 106.247 253.736 106.96 254.954 109.888C255.365 110.956 254.73 112.93 253.618 113.522L253.615 113.517Z" fill="#AE8F30"/>
<path d="M251.977 121.408C251.904 121.444 251.831 121.479 251.758 121.515C251.607 121.578 251.457 121.641 251.302 121.695C251.104 121.76 250.898 121.818 250.688 121.846C248.456 122.415 245.435 120.838 243.597 119.913C243.031 119.508 241.913 119.26 241.937 118.438C242.21 117.644 243.126 117.228 243.76 116.747C246.302 115.046 250.259 113.783 252.887 115.92C253.812 116.721 254.214 118.896 253.461 120.016C253.35 120.214 253.224 120.404 253.073 120.574C252.806 120.88 252.483 121.123 252.145 121.315C252.089 121.342 252.035 121.374 251.977 121.397L251.977 121.408Z" fill="#AE8F30"/>
<path d="M254.568 129.673C252.659 130.969 249.283 130.508 247.242 130.259C246.576 130.073 245.435 130.215 245.181 129.433C245.171 128.595 245.89 127.897 246.325 127.226C248.137 124.762 251.432 122.234 254.624 123.355C255.766 123.794 256.882 125.705 256.556 127.011C256.521 127.236 256.464 127.456 256.381 127.667C256.234 128.043 256.017 128.383 255.757 128.681C255.716 128.728 255.675 128.774 255.627 128.819C255.569 128.874 255.515 128.938 255.458 128.997C255.342 129.108 255.221 129.22 255.094 129.32C254.928 129.449 254.753 129.572 254.568 129.673Z" fill="#AE8F30"/>
<path d="M260.507 135.703C259.262 137.66 255.964 138.579 253.982 139.17C253.288 139.265 252.295 139.851 251.748 139.234C251.403 138.464 251.789 137.529 251.92 136.74C252.613 133.741 254.639 130.091 258.036 129.853C259.264 129.802 261.053 131.118 261.281 132.456C261.341 132.678 261.374 132.907 261.378 133.134C261.394 133.537 261.326 133.943 261.209 134.315C261.191 134.377 261.167 134.437 261.143 134.496C261.112 134.575 261.088 134.656 261.06 134.729C260.994 134.878 260.928 135.028 260.85 135.173C260.748 135.356 260.639 135.537 260.503 135.705L260.507 135.703Z" fill="#AE8F30"/>
<path d="M264.265 144.644C263.696 145.05 263.094 146.032 262.319 145.745C261.656 145.227 261.558 144.219 261.31 143.461C260.522 140.488 260.613 136.312 263.503 134.515C264.565 133.895 266.768 134.225 267.587 135.301C267.744 135.47 267.877 135.655 267.991 135.855C268.189 136.206 268.325 136.593 268.392 136.981C268.4 137.041 268.415 137.103 268.42 137.17C268.428 137.251 268.443 137.335 268.455 137.414C268.47 137.577 268.48 137.738 268.48 137.903C268.476 138.113 268.464 138.327 268.421 138.534C268.234 140.843 265.752 143.203 264.272 144.646L264.265 144.644Z" fill="#AE8F30"/>
<path d="M276.776 144.327C276.537 144.983 276.593 146.133 275.79 146.334C274.949 146.282 274.303 145.505 273.667 145.022C271.335 143.011 269.051 139.517 270.417 136.402C270.941 135.293 272.944 134.319 274.234 134.744C274.456 134.795 274.674 134.87 274.878 134.973C275.243 135.151 275.571 135.396 275.847 135.677C275.889 135.72 275.934 135.768 275.974 135.818C276.027 135.882 276.086 135.939 276.139 136.003C276.243 136.128 276.343 136.256 276.436 136.391C276.552 136.564 276.66 136.751 276.748 136.942C277.897 138.955 277.178 142.303 276.774 144.334L276.776 144.327Z" fill="#AE8F30"/>
<path d="M268.252 130.882C271.308 131.344 274.232 129.834 276.676 128.16C282.654 123.334 286.287 116.275 289.404 109.415C282.429 107.633 275.141 105.024 267.901 106.778C263.411 107.854 259.738 111.376 258.38 115.772C257.401 118.447 258.043 121.342 259.451 123.74C261.297 127.091 264.345 130.228 268.256 130.88L268.252 130.882ZM277.877 129.7C275.045 131.607 271.639 133.123 268.165 132.678C262.039 131.739 257.2 125.886 256.051 120.013C255.326 113.363 260.62 106.889 266.941 105.317C274.071 103.49 283.271 105.953 289.944 108.655C290.158 108.407 290.467 108.122 290.797 108.11C291.792 109.175 291.016 110.727 290.541 111.86C289.425 114.496 288.109 117.069 286.588 119.486C284.171 123.243 281.488 127.012 277.872 129.702L277.877 129.7Z" fill="#AE8F30"/>
<path d="M252.244 144.173C263.366 152.803 277.127 151.805 288.294 143.931C292.886 140.326 296.292 135.431 299.372 130.555C302.954 124.657 306.187 118.545 309.243 112.355C311.808 107.081 314.116 101.662 316.872 96.4926C301.232 93.8989 285.964 86.6781 269.832 88.5413C260.395 89.3868 250.785 93.0193 244.776 100.605C237.339 109.62 238.628 122.322 243.371 132.295C245.475 136.869 248.382 141.039 252.248 144.171L252.244 144.173ZM237.585 173.121C234.153 177.027 227.76 175.094 225.536 170.872C224.738 169.13 224.997 166.999 226.045 165.415C225.141 166.662 223.019 166.367 221.673 166.012C221.673 166.012 221.673 166.012 221.662 166.012C221.662 166.012 221.656 166.01 221.649 166.008C221.649 166.008 221.645 166.01 221.639 166.008C219.469 165.309 217.127 163.933 216.215 161.761C215.876 160.664 216.333 159.353 217.239 158.654C218.245 157.944 219.607 158.211 220.672 158.644C222.99 159.569 226.5 162.266 226.272 165.006C226.228 165.113 226.178 165.206 226.121 165.298C226.379 164.932 226.682 164.592 227.023 164.297C228.249 163.25 229.84 162.328 231.503 162.731C234.547 163.364 237.695 167.448 234.92 170.101C233.849 171.301 232.042 171.902 230.536 171.199C230.142 170.971 229.885 170.532 229.846 170.081C230.018 170.019 230.222 169.999 230.404 169.979C231.288 169.989 232.011 170.377 232.825 169.84C234.734 168.401 234.157 166.012 232.212 164.922C230.317 163.63 228.163 165.419 227.4 167.183C226.772 168.722 227.132 170.593 228.414 171.688C229.998 173.216 232.556 173.911 234.57 172.863C237.142 170.96 237.515 167.569 237.584 164.603C237.577 163.423 237.228 162.272 236.899 161.153C236.845 160.737 236.354 159.82 236.187 159.129C236.145 159.033 236.101 158.932 236.063 158.833C235.265 156.579 234.949 154.036 235.865 151.765C236.883 148.767 238.763 146.169 241.637 144.721C243.582 143.792 245.855 142.957 248.05 143.041C245.52 140.472 243.41 137.388 241.786 133.849C239.749 129.77 238.286 125.218 237.708 120.602C237.181 121.356 236.481 121.985 235.813 122.494C232.669 124.841 228.779 126.14 224.868 125.654C220.484 125.137 216.057 122.504 214.584 118.171C214.414 117.694 214.277 117.217 214.176 116.749C210.125 111.145 199.501 116.008 203.999 122.765C205.055 123.976 206.818 123.897 208.2 123.344C210.298 122.457 210.634 119.611 209.082 118.051C208.743 117.652 208.19 117.763 207.738 117.776C206.892 117.8 206.308 118.416 205.568 118.714C205.439 118.777 205.267 118.893 205.115 118.845C204.972 118.803 204.851 118.665 204.771 118.544C204.264 117.704 204.948 116.682 205.738 116.312C206.992 115.705 208.687 115.542 209.899 116.319C211.975 117.959 212.554 121.258 210.975 123.427C209.403 125.608 206.095 126.202 203.767 124.952C202.426 124.237 201.616 122.842 201.184 121.433C199.224 114.395 208.997 109.633 213.964 114.396C214.189 107.617 221.622 102.682 228.381 105.897C230.999 107.229 232.133 110.529 231.759 113.319C231.305 117.08 227.256 119.929 223.643 118.384C219.638 116.734 218.337 111.336 222.907 109.475C224.386 109.066 227.042 109.537 227.442 111.271C227.51 111.782 227.332 112.343 226.825 112.527C226.805 112.521 226.786 112.503 226.771 112.495C226.193 112.292 225.857 111.769 225.332 111.514C223.852 110.809 222.333 111.802 221.943 113.293C221.863 116.27 225.554 118.17 227.854 116.171C229.618 114.839 230.216 112.452 229.716 110.373C228.813 106.619 224.086 106.217 221.063 107.513C216.393 109.29 214.654 115.023 217.058 119.275C219.119 122.846 223.626 124.182 227.536 123.838C230.186 123.512 232.601 122.326 234.736 120.771C235.775 119.985 236.766 119.079 237.334 117.885C237.375 117.817 237.412 117.751 237.457 117.691C237.194 111.472 238.647 105.297 242.567 100.177C248.088 92.7597 256.99 88.5405 266.022 87.3444C276.207 85.5525 286.515 87.2505 296.395 89.8615C301.46 91.1274 306.472 92.5791 311.512 93.9369C313.085 94.3514 314.675 94.7468 316.223 95.221C316.686 95.4051 317.344 95.4302 317.579 95.9227C318.535 95.3915 318.796 96.6125 318.601 97.3368C317.706 99.4963 316.603 101.581 315.646 103.723C314.218 106.799 312.841 109.903 311.373 112.961C309.143 117.601 306.693 122.141 304.204 126.647C301.247 131.926 298.12 137.175 294 141.647C287.227 148.978 276.9 153.052 266.947 151.894C260.309 151.195 254.474 148.712 249.821 144.702C249.192 144.647 248.559 144.573 247.928 144.689C244.4 145.247 240.855 147.001 238.934 150.116C236.903 153.278 236.752 156.524 238.665 159.794C240.448 163.112 243.801 166.121 247.759 165.833C253.596 165.255 254.473 157.726 250.479 154.301C248.517 152.643 245.199 153.902 244.746 156.4C244.338 159.872 248.94 160.234 247.922 156.387C247.833 155.823 248.076 155.534 248.639 155.499C249.951 155.412 250.649 156.894 250.411 158.033C248.969 163.914 241.413 161.51 242.424 155.947C242.967 152.957 246.24 150.776 249.204 151.486C251.823 152.034 253.586 154.365 254.434 156.775C255.577 159.735 255.082 163.367 252.749 165.616C249.873 168.664 245.067 168.199 241.779 166.086C241.081 165.639 240.43 165.115 239.829 164.54C239.92 165.391 239.91 166.243 239.791 167.058C239.511 169.21 239.131 171.496 237.576 173.125L237.585 173.121Z" fill="#AE8F30"/>
<path d="M229.919 154.747C229.9 156.617 227.511 157.225 225.991 157.409C223.717 157.577 221.032 157.178 219.381 155.512C218.652 154.621 218.587 153.235 219.161 152.25C219.826 151.211 221.191 150.949 222.338 150.953C224.834 150.943 229.1 152.125 229.916 154.754L229.919 154.747Z" fill="#AE8F30"/>
<path d="M224.914 145.068C222.961 146.241 220.385 147.09 218.158 146.34C217.109 145.872 216.425 144.66 216.493 143.523C216.62 142.299 217.722 141.446 218.75 140.933C220.973 139.798 225.313 138.939 227.23 140.918C228.05 142.596 226.2 144.21 224.925 145.057L224.916 145.061L224.914 145.068Z" fill="#AE8F30"/>
<path d="M220.257 135.248C219.324 137.33 217.688 139.522 215.416 140.185C214.287 140.395 213.035 139.797 212.444 138.818C211.852 137.737 212.271 136.413 212.824 135.407C214.004 133.21 217.078 130.022 219.783 130.56C221.402 131.463 220.818 133.823 220.261 135.246L220.257 135.248Z" fill="#AE8F30"/>
<path d="M209.565 136.34C208.596 136.964 207.213 136.872 206.298 136.189C205.343 135.414 205.229 134.025 205.37 132.885C205.64 130.407 207.294 126.299 209.999 125.781C211.856 126.014 212.188 128.459 212.2 129.988C212.113 132.264 211.411 134.883 209.565 136.34Z" fill="#AE8F30"/>
<path d="M202.591 135.335C201.91 136.265 200.587 136.677 199.487 136.367C198.319 135.984 197.715 134.728 197.434 133.618C196.793 131.207 196.867 126.779 199.206 125.326C201.007 124.878 202.192 127.006 202.757 128.425C203.498 130.584 203.798 133.3 202.589 135.331L202.591 135.335Z" fill="#AE8F30"/>
<path d="M195.995 136.716C195.966 137.866 195.114 138.959 194.034 139.333C192.853 139.686 191.647 138.997 190.777 138.244C188.879 136.629 186.412 132.947 187.508 130.423C188.733 129.024 190.923 130.102 192.2 130.949C194.041 132.304 195.83 134.361 195.995 136.716Z" fill="#AE8F30"/>
<path d="M190.168 144.783C189.206 145.552 187.826 145.368 186.744 144.996C184.375 144.208 180.709 141.726 180.777 138.974C181.386 137.232 183.794 137.393 185.29 137.695C185.297 137.697 185.303 137.699 185.314 137.699C187.53 138.263 189.964 139.504 191.008 141.627C191.412 142.703 191.031 144.041 190.17 144.787L190.168 144.783Z" fill="#AE8F30"/>
<path d="M188.565 151.121C187.997 152.215 186.661 152.601 185.521 152.7C183.036 152.939 178.683 152.147 177.626 149.604C177.48 147.745 179.794 146.918 181.283 146.595C183.531 146.221 186.25 146.374 188.05 147.887C188.857 148.708 189.05 150.084 188.563 151.117L188.565 151.121Z" fill="#AE8F30"/>
<path d="M187.943 160.162C185.828 161.484 181.576 162.721 179.5 160.916C178.531 159.316 180.241 157.547 181.432 156.592L181.44 156.588C183.281 155.251 185.775 154.181 188.06 154.732C189.149 155.106 189.933 156.252 189.964 157.394C189.942 158.625 188.921 159.567 187.941 160.169L187.943 160.162Z" fill="#AE8F30"/>
<path d="M192.871 166.522C191.303 168.462 187.695 171.025 185.136 170C183.701 168.809 184.731 166.578 185.546 165.29C185.535 165.3 185.531 165.313 185.52 165.324L185.555 165.275C186.861 163.41 188.862 161.584 191.205 161.35C192.355 161.348 193.473 162.171 193.874 163.244C194.256 164.416 193.6 165.638 192.873 166.527L192.871 166.522Z" fill="#AE8F30"/>
<path d="M200.538 169.155C200.357 171.642 198.849 175.807 196.164 176.421C194.311 176.261 193.882 173.848 193.812 172.32C193.816 170.037 194.42 167.38 196.217 165.857C197.163 165.197 198.549 165.239 199.49 165.888C200.47 166.629 200.634 168.01 200.538 169.155Z" fill="#AE8F30"/>
<path d="M207.041 176.786C205.256 177.333 203.956 175.25 203.319 173.861L203.313 173.848C202.466 171.735 202.032 169.059 203.123 166.974C203.751 166.011 205.053 165.524 206.169 165.778C207.355 166.099 208.025 167.317 208.364 168.415C209.129 170.786 209.295 175.214 207.037 176.788L207.041 176.786Z" fill="#AE8F30"/>
<path d="M216.821 173.576C215.255 174.582 213.445 172.929 212.455 171.766C211.064 169.957 209.919 167.484 210.412 165.179C210.763 164.086 211.882 163.267 213.021 163.211C214.253 163.2 215.221 164.198 215.846 165.161C217.22 167.24 218.568 171.459 216.819 173.583L216.821 173.576Z" fill="#AE8F30"/>
<path d="M193.634 157.247C198.366 165.083 210.123 164.751 214.437 156.73C218.893 148.736 212.921 138.724 203.802 138.848C194.496 138.894 188.731 149.378 193.628 157.245L193.634 157.247ZM214.686 159.626C208.351 167.723 195.37 166.031 191.271 156.622C187.238 147.677 193.921 137.325 203.709 137.305C215.239 137.153 221.861 150.621 214.679 159.623L214.686 159.626Z" fill="#AE8F30"/>
<path d="M206.098 156.399C206.352 156.274 206.599 156.137 206.841 155.988C207.058 155.844 207.265 155.689 207.462 155.524C207.643 155.361 207.816 155.191 207.98 155.015C208.136 154.832 208.29 154.645 208.433 154.447C208.565 154.249 208.687 154.051 208.8 153.846C208.914 153.62 209.016 153.394 209.104 153.159C209.183 152.929 209.256 152.696 209.316 152.459C209.369 152.219 209.406 151.977 209.432 151.736C209.453 151.475 209.462 151.209 209.459 151.04C209.459 151.008 209.455 150.978 209.454 150.941C209.441 150.686 209.409 150.435 209.37 150.182C209.319 149.914 209.253 149.648 209.182 149.427C209.134 149.274 209.099 149.126 209.071 148.97C209.067 148.94 209.063 148.91 209.059 148.88C209.054 148.86 209.053 148.834 209.051 148.819C209.047 148.747 209.043 148.674 209.04 148.601C209.01 148.562 208.985 148.521 208.959 148.48C208.748 148.157 208.582 147.807 208.366 147.486C208.237 147.298 208.1 147.115 207.951 146.942C207.78 146.744 207.601 146.553 207.408 146.376C207.391 146.363 207.381 146.352 207.368 146.337C207.368 146.337 207.368 146.337 207.366 146.333C207.272 146.272 207.176 146.218 207.078 146.159C206.972 146.094 206.857 146.033 206.748 145.974C206.526 145.859 206.3 145.756 206.072 145.67L206.059 145.666C205.741 145.55 205.418 145.457 205.091 145.377C204.785 145.308 204.471 145.253 204.159 145.225C203.921 145.208 203.681 145.197 203.444 145.201C203.199 145.214 202.953 145.233 202.71 145.272C202.485 145.313 202.26 145.375 202.043 145.444C201.746 145.535 201.458 145.644 201.198 145.766C200.97 145.878 200.749 146.002 200.533 146.139C200.311 146.285 200.098 146.437 199.897 146.605C199.709 146.766 199.537 146.936 199.368 147.114C199.364 147.116 199.357 147.125 199.355 147.131C199.186 147.32 199.032 147.518 198.883 147.724C198.739 147.933 198.611 148.15 198.491 148.374C198.404 148.545 198.328 148.715 198.26 148.893C198.185 149.1 198.123 149.311 198.068 149.525C198.014 149.775 197.978 150.027 197.945 150.278C197.924 150.571 197.908 150.866 197.918 151.16C197.931 151.436 197.958 151.711 198.001 151.983C198.05 152.247 198.112 152.504 198.189 152.76C198.277 153.026 198.377 153.286 198.493 153.544C198.608 153.781 198.741 154.009 198.878 154.235C199.028 154.455 199.185 154.666 199.348 154.869C199.526 155.07 199.713 155.267 199.913 155.446C200.089 155.6 200.272 155.745 200.461 155.881C200.657 156.01 200.857 156.136 201.06 156.244C201.299 156.362 201.54 156.474 201.79 156.57C202.02 156.649 202.253 156.722 202.49 156.782C202.734 156.833 202.982 156.872 203.232 156.904C203.472 156.926 203.714 156.93 203.952 156.926C204.222 156.911 204.492 156.885 204.764 156.843C204.959 156.806 205.148 156.756 205.339 156.7C205.601 156.615 205.853 156.518 206.102 156.407L206.098 156.399ZM209.391 156.974C208.369 157.959 207.095 158.656 205.713 158.98C204.202 159.335 202.594 159.295 201.125 158.777C200.107 158.416 199.199 157.868 198.394 157.159C197.652 156.482 197.036 155.669 196.597 154.77C196.342 154.249 196.146 153.695 196.023 153.126C195.736 151.821 195.747 150.436 196.173 149.161C196.543 148.063 197.064 147.014 197.828 146.134C198.57 145.276 199.472 144.59 200.386 144.159C200.756 143.978 201.138 143.834 201.531 143.711C201.83 143.624 202.137 143.564 202.441 143.511L202.467 143.509C202.737 143.462 203.018 143.426 203.29 143.405C203.342 143.401 203.393 143.398 203.445 143.394C203.511 143.388 203.584 143.384 203.652 143.383C203.74 143.377 203.826 143.378 203.912 143.379C203.933 143.379 203.95 143.381 203.965 143.379C204.062 143.38 204.154 143.383 204.246 143.386C204.342 143.387 204.436 143.394 204.53 143.401L204.552 143.402C204.646 143.409 204.742 143.42 204.836 143.428C204.922 143.418 205.006 143.414 205.091 143.415C205.13 143.417 205.173 143.418 205.211 143.42C205.25 143.423 205.295 143.427 205.335 143.434C205.421 143.446 205.509 143.461 205.586 143.477C205.656 143.491 205.729 143.508 205.797 143.528C205.851 143.539 205.9 143.553 205.951 143.57C206.002 143.588 206.051 143.601 206.103 143.619C206.393 143.711 206.677 143.834 206.95 143.978L206.954 143.975C206.98 143.984 206.999 143.991 207.02 144.002C207.067 144.021 207.114 144.041 207.159 144.057C207.212 144.078 207.268 144.105 207.323 144.131C207.609 144.258 207.882 144.401 208.153 144.562C208.233 144.608 208.312 144.66 208.391 144.712C208.417 144.732 208.444 144.745 208.455 144.756C208.766 144.966 209.055 145.187 209.331 145.436C209.96 146.003 210.504 146.691 210.903 147.44C210.961 147.56 211.018 147.676 211.077 147.797C211.092 147.827 211.109 147.861 211.121 147.898C211.144 147.956 211.169 148.018 211.19 148.083C211.207 148.128 211.222 148.168 211.234 148.216L211.238 148.224C211.238 148.224 211.24 148.229 211.242 148.233C211.299 148.328 211.35 148.431 211.396 148.536C211.514 148.809 211.584 149.116 211.645 149.406C211.658 149.475 211.674 149.541 211.686 149.61C211.699 149.678 211.711 149.747 211.721 149.811C211.731 149.865 211.739 149.914 211.745 149.97C211.76 150.054 211.77 150.139 211.782 150.219C211.786 150.227 211.781 150.24 211.786 150.249L211.8 150.365C211.879 151.094 211.851 151.843 211.72 152.568C211.422 154.238 210.608 155.798 209.383 156.978L209.391 156.974Z" fill="#AE8F30"/>
</svg>
