<svg width="390" height="530" viewBox="0 0 390 530" fill="none" xmlns="http://www.w3.org/2000/svg">
<path d="M-2.28882e-05 520.5C-2.28882e-05 520.5 55.0644 497.121 104.73 488C158.05 478.208 209.069 504.963 264.407 520.585C315.541 535.019 390 520.585 390 520.585V0C390 0 351.504 29.6785 307.196 36C198.49 51.5094 83.048 -25.003 -3.05176e-05 13.5L-2.28882e-05 267V520.5Z" fill="#DC3184"/>
<path d="M184.204 271.998C183.553 272.61 182.486 272.55 181.649 272.688C178.408 273.037 174.055 272.27 172.639 268.962C172.163 267.753 172.856 265.502 174.117 264.814C174.318 264.675 174.531 264.565 174.757 264.478C175.158 264.322 175.584 264.25 176.002 264.239C176.07 264.233 176.135 264.238 176.203 264.24C176.289 264.246 176.379 264.242 176.461 264.245C176.637 264.255 176.805 264.271 176.979 264.295C177.199 264.334 177.422 264.383 177.632 264.457C180.019 265.02 182.089 268 183.366 269.784C183.697 270.442 184.629 271.232 184.204 271.998Z" fill="#AE306F"/>
<path d="M190.128 261.595C189.702 262.375 188.663 262.652 187.91 263.044C184.939 264.377 180.563 265 178.188 262.294C177.359 261.289 177.323 258.935 178.312 257.892C178.463 257.702 178.631 257.525 178.823 257.374C179.156 257.101 179.538 256.9 179.93 256.757C179.993 256.737 180.056 256.717 180.122 256.7C180.206 256.674 180.288 256.645 180.372 256.626C180.537 256.584 180.709 256.544 180.876 256.513C181.095 256.48 181.323 256.457 181.549 256.464C183.995 256.262 186.884 258.453 188.647 259.753C189.168 260.274 190.298 260.734 190.128 261.595Z" fill="#AE306F"/>
<path d="M192.809 251.15C192.546 252.004 191.586 252.473 190.927 253.005C188.28 254.903 184.111 256.383 181.247 254.197C180.238 253.38 179.734 251.08 180.496 249.858C180.606 249.643 180.737 249.438 180.891 249.252C181.168 248.92 181.498 248.651 181.857 248.43C181.913 248.395 181.973 248.363 182.033 248.332C182.112 248.291 182.187 248.247 182.262 248.209C182.418 248.135 182.575 248.061 182.738 248.001C182.948 247.927 183.166 247.861 183.384 247.82C185.745 247.138 189.008 248.713 190.994 249.634C191.61 250.048 192.807 250.276 192.809 251.15Z" fill="#AE306F"/>
<path d="M194.595 241.882C194.332 242.735 193.373 243.205 192.714 243.737C190.066 245.635 185.898 247.114 183.034 244.929C182.025 244.111 181.517 241.807 182.283 240.589C182.389 240.371 182.523 240.169 182.678 239.983C182.947 239.651 183.281 239.378 183.64 239.158C183.696 239.122 183.756 239.091 183.816 239.06C183.895 239.019 183.97 238.974 184.045 238.937C184.201 238.862 184.361 238.792 184.521 238.729C184.728 238.651 184.949 238.589 185.167 238.548C187.524 237.861 190.791 239.441 192.777 240.362C193.389 240.772 194.59 241.004 194.592 241.878L194.595 241.882Z" fill="#AE306F"/>
<path d="M192.009 230.599C190.786 233.619 188.051 237.096 184.465 236.779C183.175 236.63 181.52 234.951 181.511 233.515C181.486 233.276 181.49 233.032 181.519 232.793C181.573 232.366 181.712 231.96 181.899 231.586C181.929 231.527 181.958 231.468 181.995 231.41C182.04 231.337 182.079 231.258 182.12 231.182C182.214 231.034 182.308 230.887 182.412 230.751C182.548 230.574 182.701 230.403 182.864 230.25C184.493 228.411 188.094 227.999 190.266 227.712C191.006 227.733 192.144 227.284 192.612 228.024C192.845 228.887 192.282 229.797 192.016 230.6L192.009 230.599Z" fill="#AE306F"/>
<path d="M179.27 234.556C179.005 234.877 178.684 235.166 178.308 235.381C178.101 235.506 177.881 235.608 177.649 235.68C176.333 236.248 174.129 235.4 173.474 234.279C171.749 231.116 173.844 227.22 176.121 224.892C176.747 224.321 177.361 223.448 178.241 223.314C179.108 223.452 179.151 224.67 179.46 225.341C180.068 227.444 181.13 230.916 180.098 233.138C180.02 233.351 179.925 233.56 179.817 233.753C179.73 233.901 179.636 234.048 179.539 234.192C179.487 234.263 179.431 234.331 179.383 234.399C179.343 234.454 179.303 234.508 179.259 234.559L179.27 234.556Z" fill="#AE306F"/>
<path d="M169.837 234.914C169.571 235.235 169.251 235.524 168.878 235.743C168.671 235.868 168.448 235.966 168.219 236.042C166.899 236.606 164.699 235.762 164.044 234.641C162.318 231.478 164.413 227.583 166.691 225.254C167.317 224.683 167.93 223.81 168.811 223.676C169.677 223.814 169.721 225.032 170.033 225.7C170.642 227.803 171.7 231.27 170.671 233.497C170.594 233.71 170.495 233.915 170.39 234.112C170.304 234.26 170.21 234.407 170.112 234.551C170.064 234.619 170.005 234.69 169.956 234.758C169.916 234.812 169.873 234.863 169.833 234.917L169.837 234.914Z" fill="#AE306F"/>
<path d="M160.54 236.56C160.362 236.726 160.164 236.862 159.954 236.983C158.773 237.802 156.448 237.405 155.584 236.437C153.267 233.682 154.543 229.447 156.319 226.714C156.821 226.029 157.248 225.048 158.084 224.745C158.96 224.708 159.244 225.894 159.68 226.488C160.697 228.428 162.424 231.616 161.853 234.003C161.821 234.231 161.766 234.446 161.702 234.661C161.646 234.829 161.584 234.982 161.515 235.142C161.48 235.219 161.434 235.298 161.403 235.378C161.373 235.437 161.347 235.5 161.317 235.559C161.117 235.925 160.86 236.272 160.54 236.56Z" fill="#AE306F"/>
<path d="M152.473 240.076C151.602 241.217 149.272 241.56 148.149 240.907C145.091 239.001 144.997 234.579 145.834 231.436C146.1 230.633 146.2 229.565 146.904 229.015C147.722 228.707 148.361 229.748 148.965 230.179C150.534 231.712 153.162 234.206 153.36 236.656C153.397 236.878 153.416 237.102 153.42 237.325C153.418 237.501 153.408 237.67 153.392 237.845C153.385 237.93 153.364 238.015 153.354 238.104C153.349 238.168 153.336 238.239 153.324 238.303C153.25 238.715 153.114 239.125 152.899 239.497C152.778 239.707 152.634 239.904 152.47 240.079L152.473 240.076Z" fill="#AE306F"/>
<path d="M146.578 244.331C146.455 245.76 144.669 247.299 143.367 247.347C139.763 247.374 137.322 243.689 136.348 240.577C136.142 239.752 135.657 238.798 135.962 237.962C136.49 237.262 137.588 237.802 138.326 237.844C140.47 238.303 144.026 239.006 145.501 240.966C145.658 241.133 145.787 241.315 145.91 241.497C146.003 241.645 146.085 241.795 146.163 241.948C146.204 242.027 146.234 242.108 146.275 242.187C146.306 242.247 146.33 242.306 146.358 242.369C146.515 242.755 146.62 243.173 146.637 243.606C146.651 243.848 146.629 244.087 146.589 244.329L146.578 244.331Z" fill="#AE306F"/>
<path d="M142.236 253.743C142.086 253.912 141.913 254.06 141.731 254.19C141.404 254.424 141.039 254.583 140.661 254.687C140.602 254.704 140.54 254.718 140.478 254.731C140.398 254.746 140.317 254.769 140.24 254.788C140.083 254.816 139.923 254.839 139.764 254.856C139.557 254.873 139.345 254.874 139.138 254.859C136.853 254.882 134.315 252.657 132.759 251.334C132.31 250.81 131.291 250.308 131.506 249.523C131.955 248.824 132.936 248.643 133.657 248.324C136.509 247.28 140.612 246.993 142.641 249.668C143.346 250.653 143.221 252.844 142.239 253.747L142.236 253.743Z" fill="#AE306F"/>
<path d="M142.66 262.265C142.595 262.321 142.529 262.377 142.464 262.433C142.327 262.537 142.189 262.642 142.045 262.739C141.86 262.858 141.664 262.972 141.456 263.057C139.321 264.235 135.805 263.424 133.676 262.966C132.987 262.702 131.776 262.746 131.582 261.897C131.65 261.011 132.477 260.34 132.999 259.679C135.15 257.258 138.868 254.91 142.13 256.399C143.291 256.973 144.283 259.095 143.81 260.443C143.749 260.676 143.67 260.903 143.56 261.118C143.369 261.502 143.103 261.838 142.807 262.125C142.757 262.168 142.711 262.214 142.657 262.254L142.66 262.265Z" fill="#AE306F"/>
<path d="M147.517 270.042C145.906 271.879 142.325 272.306 140.167 272.595C139.435 272.582 138.304 273.031 137.835 272.298C137.602 271.442 138.153 270.535 138.419 269.732C139.62 266.725 142.322 263.257 145.891 263.554C147.178 263.699 148.831 265.361 148.844 266.785C148.869 267.025 148.869 267.265 148.84 267.504C148.79 267.928 148.658 268.335 148.471 268.709C148.441 268.768 148.412 268.827 148.375 268.885C148.33 268.957 148.291 269.037 148.25 269.113C148.16 269.257 148.066 269.405 147.962 269.54C147.826 269.717 147.68 269.889 147.517 270.042Z" fill="#AE306F"/>
<path d="M155.209 274.638C154.456 276.975 151.322 278.796 149.448 279.929C148.761 280.211 147.901 281.077 147.176 280.59C146.618 279.893 146.763 278.833 146.688 277.989C146.598 274.732 147.702 270.451 151.119 269.303C152.363 268.923 154.547 269.795 155.137 271.105C155.258 271.316 155.352 271.542 155.417 271.774C155.541 272.182 155.579 272.617 155.559 273.029C155.557 273.097 155.548 273.165 155.54 273.232C155.529 273.321 155.526 273.411 155.516 273.493C155.489 273.663 155.461 273.834 155.42 274.003C155.364 274.218 155.3 274.433 155.205 274.641L155.209 274.638Z" fill="#AE306F"/>
<path d="M161.443 282.797C160.968 283.365 160.613 284.532 159.742 284.443C158.924 284.09 158.555 283.084 158.099 282.373C156.5 279.536 155.48 275.234 157.963 272.623C158.885 271.704 161.23 271.455 162.356 272.34C162.562 272.47 162.748 272.625 162.918 272.799C163.215 273.106 163.457 273.466 163.629 273.846C163.653 273.905 163.685 273.965 163.708 274.032C163.738 274.113 163.775 274.195 163.809 274.273C163.868 274.436 163.92 274.598 163.965 274.767C164.017 274.983 164.061 275.206 164.073 275.43C164.496 277.846 162.582 280.925 161.45 282.798L161.443 282.797Z" fill="#AE306F"/>
<path d="M174.177 279.139C174.107 279.874 174.471 281.038 173.702 281.458C172.826 281.628 171.957 281.005 171.176 280.679C168.251 279.24 164.98 276.269 165.55 272.713C165.791 271.437 167.583 269.906 169.018 269.998C169.259 269.991 169.503 270.009 169.74 270.06C170.161 270.146 170.562 270.31 170.919 270.524C170.974 270.557 171.033 270.594 171.087 270.634C171.159 270.686 171.235 270.728 171.306 270.78C171.446 270.88 171.582 270.984 171.713 271.099C171.878 271.244 172.038 271.407 172.18 271.58C173.894 273.336 174.049 276.958 174.177 279.146L174.177 279.139Z" fill="#AE306F"/>
<path d="M161.86 267.635C165.114 267.294 167.708 264.968 169.766 262.601C174.604 256.063 176.446 247.862 177.812 240.003C170.19 240.036 162.027 239.305 155.077 243.031C150.763 245.33 147.939 249.918 147.718 254.784C147.428 257.785 148.858 260.58 150.939 262.663C153.724 265.604 157.682 268.006 161.864 267.631L161.86 267.635ZM171.406 263.858C169.013 266.567 165.928 269.027 162.25 269.498C155.723 270.168 149.204 265.461 146.462 259.75C143.947 253.13 147.646 245.085 153.704 241.79C160.522 238.018 170.605 238.09 178.162 239.08C178.316 238.769 178.556 238.395 178.891 238.295C180.194 239.121 179.813 240.918 179.628 242.205C179.187 245.203 178.524 248.19 177.61 251.072C176.135 255.565 174.39 260.142 171.402 263.862L171.406 263.858Z" fill="#AE306F"/>
<path d="M149 285.518C162.696 291.396 176.529 286.707 185.872 275.663C189.616 270.746 191.802 264.822 193.658 259.007C195.757 252.008 197.44 244.885 198.921 237.728C200.145 231.641 201.065 225.473 202.511 219.442C185.795 220.953 168.227 217.623 152.196 223.831C142.751 227.213 133.873 233.496 129.738 242.87C124.52 254.088 129.227 266.758 136.744 275.713C140.118 279.839 144.209 283.337 149.004 285.515L149 285.518ZM141.695 319.085C139.22 324.001 132.155 323.724 128.751 319.991C127.469 318.419 127.166 316.167 127.818 314.265C127.224 315.783 124.971 316.046 123.498 316.042C123.498 316.042 123.498 316.042 123.487 316.044C123.487 316.044 123.479 316.044 123.472 316.043C123.472 316.043 123.468 316.047 123.461 316.046C121.052 315.909 118.286 315.122 116.773 313.141C116.132 312.107 116.252 310.642 116.993 309.685C117.835 308.688 119.302 308.599 120.508 308.759C123.129 309.089 127.445 310.917 127.941 313.785C127.925 313.906 127.898 314.015 127.865 314.124C128.032 313.68 128.252 313.251 128.522 312.859C129.499 311.459 130.884 310.091 132.695 310.06C135.982 309.897 140.297 313.243 138.16 316.701C137.382 318.216 135.691 319.313 133.961 318.994C133.497 318.865 133.116 318.484 132.956 318.033C133.115 317.923 133.319 317.848 133.5 317.78C134.409 317.554 135.253 317.759 135.944 316.992C137.516 315.008 136.289 312.714 134.005 312.116C131.719 311.298 129.99 313.704 129.678 315.715C129.444 317.459 130.312 319.28 131.917 320.06C133.947 321.204 136.753 321.235 138.537 319.624C140.665 316.989 140.143 313.415 139.424 310.358C139.103 309.15 138.438 308.064 137.803 307.005C137.637 306.594 136.89 305.785 136.534 305.122C136.465 305.034 136.393 304.942 136.328 304.851C134.91 302.754 133.909 300.233 134.242 297.662C134.486 294.319 135.72 291.156 138.279 288.906C140.023 287.436 142.13 285.975 144.401 285.476C141.124 283.518 138.141 280.921 135.533 277.727C132.359 274.091 129.647 269.817 127.825 265.242C127.486 266.154 126.937 266.986 126.387 267.685C123.792 270.927 120.152 273.296 116.016 273.839C111.386 274.478 106.149 272.96 103.484 268.913C103.184 268.47 102.916 268.018 102.688 267.565C97.0435 262.903 87.4548 270.717 93.8635 276.441C95.268 277.4 97.0538 276.85 98.3224 275.915C100.236 274.447 99.8217 271.442 97.816 270.257C97.3621 269.938 96.8245 270.199 96.3648 270.333C95.5044 270.583 95.0704 271.37 94.3921 271.872C94.2767 271.971 94.131 272.136 93.9628 272.127C93.8049 272.122 93.6443 272.013 93.5299 271.91C92.7871 271.185 93.2153 269.956 93.9254 269.366C95.0483 268.409 96.7423 267.791 98.191 268.265C100.755 269.392 102.227 272.618 101.188 275.26C100.158 277.914 96.9271 279.404 94.2091 278.743C92.6449 278.369 91.4432 277.155 90.6242 275.827C86.7412 269.138 95.4849 261.655 101.843 265.21C100.268 258.205 106.568 251.168 114.35 252.661C117.387 253.328 119.428 256.407 119.789 259.364C120.326 263.339 116.936 267.337 112.824 266.717C108.28 266.094 105.508 260.91 109.695 257.785C111.101 256.972 113.948 256.747 114.82 258.417C115.026 258.922 114.993 259.545 114.522 259.868C114.501 259.867 114.477 259.854 114.459 259.849C113.812 259.796 113.329 259.349 112.723 259.228C111.019 258.9 109.727 260.322 109.725 261.954C110.436 265.025 114.724 265.989 116.549 263.327C118.001 261.493 117.977 258.888 116.911 256.89C114.985 253.285 110.034 254.133 107.283 256.267C102.972 259.332 102.718 265.669 106.314 269.384C109.377 272.495 114.351 272.662 118.265 271.268C120.894 270.228 123.053 268.368 124.825 266.206C125.68 265.125 126.454 263.933 126.718 262.558C126.742 262.477 126.762 262.399 126.793 262.326C124.865 256.024 124.709 249.31 127.361 243.019C131.041 233.948 139.038 227.253 147.973 223.62C157.931 219.07 168.945 218.063 179.764 218.105C185.29 218.052 190.812 218.204 196.338 218.252C198.06 218.258 199.794 218.239 201.507 218.312C202.031 218.378 202.711 218.228 203.084 218.67C203.921 217.871 204.514 219.052 204.508 219.847C204.166 222.298 203.592 224.728 203.182 227.177C202.539 230.709 201.955 234.256 201.265 237.781C200.217 243.13 198.917 248.435 197.568 253.714C195.944 259.911 194.14 266.123 191.11 271.802C186.124 281.118 176.629 288.045 166.122 289.511C159.135 290.563 152.494 289.575 146.659 286.706C145.999 286.817 145.331 286.91 144.716 287.197C141.249 288.709 138.085 291.452 136.946 295.154C135.708 298.936 136.419 302.301 139.251 305.142C141.961 308.067 146.198 310.257 150.177 308.906C156.004 306.759 154.896 298.811 149.891 296.365C147.438 295.189 144.375 297.364 144.576 300.044C145.084 303.711 149.895 302.855 147.827 299.185C147.586 298.631 147.757 298.27 148.325 298.083C149.646 297.645 150.756 298.977 150.816 300.208C150.906 306.618 142.523 306.168 142.076 300.198C141.836 296.991 144.608 293.884 147.834 293.821C150.663 293.685 153.091 295.603 154.603 297.847C156.562 300.574 157.023 304.428 155.232 307.354C153.098 311.244 148.05 312.048 144.118 310.759C143.283 310.487 142.476 310.123 141.707 309.694C142.027 310.542 142.245 311.418 142.34 312.285C142.626 314.564 142.846 317.008 141.688 319.091L141.695 319.085Z" fill="#AE306F"/>
<path d="M128.944 302.302C129.423 304.223 127.137 305.483 125.628 306.076C123.343 306.854 120.487 307.161 118.351 305.894C117.367 305.176 116.931 303.772 117.257 302.611C117.661 301.369 118.989 300.737 120.166 300.435C122.72 299.76 127.407 299.833 128.943 302.309L128.944 302.302Z" fill="#AE306F"/>
<path d="M121.237 293.718C119.548 295.441 117.136 296.997 114.654 296.822C113.454 296.623 112.431 295.563 112.197 294.38C112.001 293.092 112.903 291.924 113.819 291.124C115.794 289.37 120.013 287.333 122.503 288.85C123.791 290.35 122.326 292.496 121.245 293.705L121.237 293.711L121.237 293.718Z" fill="#AE306F"/>
<path d="M113.848 284.899C113.447 287.281 112.354 289.962 110.203 291.247C109.103 291.763 107.661 291.484 106.795 290.638C105.9 289.689 105.976 288.22 106.275 287.042C106.898 284.476 109.198 280.391 112.113 280.222C114.013 280.716 114.043 283.289 113.852 284.895L113.848 284.899Z" fill="#AE306F"/>
<path d="M103.184 288.867C102.357 289.764 100.916 290.039 99.7966 289.583C98.6118 289.043 98.1249 287.65 97.9653 286.444C97.5821 283.834 98.1816 279.184 100.815 277.932C102.78 277.676 103.771 280.092 104.191 281.656C104.709 284.011 104.688 286.882 103.184 288.867Z" fill="#AE306F"/>
<path d="M95.7706 289.695C95.3209 290.829 94.0752 291.604 92.8654 291.58C91.5665 291.499 90.6134 290.373 90.0293 289.311C88.7307 287.011 87.6261 282.454 89.6353 280.343C91.3609 279.403 93.1421 281.268 94.0997 282.571C95.4344 284.586 96.4648 287.289 95.7673 289.691L95.7706 289.695Z" fill="#AE306F"/>
<path d="M89.3811 292.868C89.6573 294.054 89.0762 295.401 88.0686 296.072C86.9527 296.749 85.5332 296.364 84.4418 295.824C82.0667 294.675 78.5581 291.56 79.0079 288.682C79.89 286.923 82.421 287.443 83.9556 287.97C86.2025 288.868 88.584 290.499 89.3811 292.868Z" fill="#AE306F"/>
<path d="M85.5602 302.686C84.7794 303.73 83.3168 303.91 82.1085 303.817C79.4722 303.641 75.0544 302.074 74.3901 299.237C74.5495 297.29 77.0596 296.813 78.6735 296.724C78.6807 296.724 78.6878 296.725 78.6988 296.722C81.1195 296.709 83.9448 297.331 85.5797 299.229C86.2803 300.224 86.2471 301.696 85.5635 302.69L85.5602 302.686Z" fill="#AE306F"/>
<path d="M85.6073 309.607C85.316 310.879 84.0506 311.631 82.9086 312.037C80.4269 312.944 75.755 313.292 73.9945 310.968C73.3495 309.103 75.4999 307.638 76.9397 306.911C79.1431 305.928 81.9694 305.36 84.2175 306.431C85.2627 307.057 85.8276 308.416 85.604 309.603L85.6073 309.607Z" fill="#AE306F"/>
<path d="M87.3792 319.037C85.5645 320.955 81.5378 323.355 78.9294 322.059C77.5104 320.678 78.7909 318.41 79.7564 317.114L79.7641 317.107C81.2939 315.247 83.564 313.486 86.0518 313.442C87.2672 313.535 88.3764 314.5 88.7119 315.662C89.0179 316.929 88.2223 318.167 87.3787 319.044L87.3792 319.037Z" fill="#AE306F"/>
<path d="M94.1228 324.24C93.0331 326.645 90.0195 330.233 87.1245 329.865C85.3368 329.027 85.7984 326.467 86.2897 324.929C86.2814 324.943 86.2803 324.957 86.2721 324.971L86.2946 324.912C87.1358 322.653 88.7 320.249 91.0382 319.385C92.216 319.075 93.5801 319.622 94.2774 320.613C94.9808 321.713 94.6346 323.139 94.1261 324.244L94.1228 324.24Z" fill="#AE306F"/>
<path d="M102.68 324.894C103.158 327.49 102.722 332.16 100.135 333.505C98.1936 333.835 97.1116 331.476 96.6329 329.93C96.0277 327.59 95.9386 324.706 97.3744 322.666C98.1679 321.738 99.5986 321.412 100.735 321.826C101.938 322.324 102.473 323.695 102.68 324.894Z" fill="#AE306F"/>
<path d="M111.377 330.979C109.694 332.016 107.806 330.229 106.784 328.975L106.774 328.963C105.344 327.024 104.185 324.397 104.748 321.97C105.134 320.817 106.339 319.97 107.55 319.933C108.85 319.946 109.861 321.016 110.502 322.05C111.917 324.276 113.268 328.769 111.373 330.983L111.377 330.979Z" fill="#AE306F"/>
<path d="M120.542 325.085C119.205 326.532 116.91 325.322 115.586 324.394C113.679 322.911 111.846 320.682 111.738 318.189C111.806 316.975 112.734 315.838 113.887 315.477C115.146 315.138 116.403 315.903 117.301 316.723C119.262 318.487 121.768 322.449 120.541 325.092L120.542 325.085Z" fill="#AE306F"/>
<path d="M92.4334 314.533C99.37 321.301 111.327 317.827 113.61 308.459C116.045 299.081 107.258 290.414 97.948 292.972C88.425 295.499 85.3125 307.777 92.4262 314.533L92.4334 314.533ZM114.636 311.36C110.304 321.345 96.5527 323.071 89.8455 314.523C83.3298 306.432 87.4179 294.045 97.4412 291.416C109.215 288.187 119.589 300.222 114.629 311.36L114.636 311.36Z" fill="#AE306F"/>
<path d="M104.978 310.342C105.205 310.148 105.422 309.941 105.629 309.723C105.814 309.518 105.985 309.305 106.142 309.083C106.284 308.867 106.416 308.647 106.537 308.423C106.648 308.194 106.756 307.961 106.85 307.72C106.933 307.482 107.005 307.247 107.066 307.007C107.122 306.745 107.167 306.486 107.194 306.222C107.214 305.965 107.226 305.707 107.225 305.448C107.216 305.188 107.189 304.931 107.15 304.676C107.103 304.403 107.041 304.129 106.993 303.956C106.985 303.923 106.973 303.893 106.961 303.857C106.88 303.599 106.781 303.35 106.674 303.101C106.55 302.84 106.411 302.585 106.28 302.377C106.19 302.234 106.115 302.091 106.044 301.938C106.031 301.909 106.019 301.879 106.007 301.849C105.998 301.831 105.989 301.805 105.983 301.79C105.96 301.716 105.937 301.643 105.914 301.569C105.873 301.537 105.836 301.502 105.799 301.467C105.496 301.192 105.233 300.877 104.926 300.606C104.744 300.448 104.555 300.297 104.356 300.159C104.128 300.002 103.894 299.854 103.649 299.724C103.628 299.716 103.614 299.707 103.597 299.695C103.597 299.695 103.597 299.695 103.594 299.691C103.482 299.654 103.369 299.624 103.253 299.59C103.127 299.551 102.992 299.52 102.865 299.488C102.607 299.429 102.348 299.384 102.091 299.357L102.077 299.356C101.72 299.322 101.365 299.313 101.009 299.318C100.677 299.328 100.341 299.357 100.013 299.411C99.7649 299.457 99.5163 299.509 99.2739 299.577C99.027 299.655 98.7796 299.741 98.5415 299.845C98.3216 299.947 98.1072 300.071 97.9033 300.199C97.624 300.372 97.358 300.56 97.1238 300.754C96.9199 300.929 96.7259 301.116 96.5418 301.314C96.3533 301.522 96.1753 301.735 96.0143 301.96C95.8648 302.175 95.733 302.395 95.6077 302.623C95.6039 302.626 95.5995 302.637 95.5989 302.644C95.4765 302.883 95.3715 303.126 95.2733 303.378C95.1821 303.63 95.1086 303.887 95.0455 304.148C95.0016 304.346 94.9687 304.541 94.9463 304.741C94.925 304.973 94.918 305.206 94.9181 305.44C94.9298 305.71 94.9597 305.979 94.9934 306.244C95.0491 306.55 95.112 306.857 95.2007 307.155C95.2872 307.434 95.3885 307.708 95.5047 307.976C95.6253 308.233 95.7574 308.481 95.9044 308.722C96.0651 308.972 96.2373 309.211 96.4244 309.445C96.606 309.656 96.803 309.855 97.0039 310.05C97.2162 310.235 97.433 310.41 97.6541 310.574C97.8902 310.732 98.1338 310.884 98.3863 311.015C98.608 311.125 98.8341 311.225 99.0646 311.315C99.2994 311.394 99.5381 311.469 99.7746 311.527C100.051 311.584 100.327 311.634 100.609 311.666C100.866 311.686 101.124 311.698 101.383 311.697C101.647 311.684 101.911 311.658 102.176 311.624C102.427 311.582 102.676 311.522 102.919 311.454C103.192 311.367 103.462 311.269 103.729 311.153C103.92 311.063 104.1 310.962 104.281 310.854C104.526 310.696 104.758 310.531 104.984 310.35L104.978 310.342ZM108.505 310.054C107.721 311.336 106.601 312.39 105.271 313.09C103.818 313.856 102.159 314.244 100.516 314.104C99.3768 314.006 98.301 313.687 97.2867 313.174C96.3466 312.678 95.4988 312.01 94.8087 311.206C94.4092 310.74 94.0603 310.224 93.7823 309.675C93.1414 308.414 92.7826 306.992 92.8802 305.572C92.9664 304.349 93.2209 303.135 93.769 302.03C94.3007 300.952 95.0414 300.009 95.8632 299.324C96.194 299.04 96.5475 298.79 96.9175 298.56C97.2 298.391 97.4985 298.248 97.7965 298.113L97.8223 298.104C98.0868 297.984 98.365 297.872 98.6382 297.778C98.6899 297.76 98.7416 297.743 98.7933 297.725C98.8598 297.701 98.9335 297.678 99.0033 297.658C99.0918 297.629 99.1798 297.607 99.2678 297.585C99.2898 297.579 99.3079 297.577 99.3228 297.571C99.4217 297.546 99.5168 297.525 99.612 297.503C99.7109 297.479 99.8094 297.461 99.9078 297.443L99.9298 297.438C100.028 297.42 100.13 297.406 100.228 297.389C100.314 297.356 100.398 297.33 100.486 297.308C100.526 297.3 100.57 297.289 100.61 297.281C100.651 297.273 100.698 297.266 100.741 297.262C100.832 297.251 100.926 297.244 101.009 297.24C101.085 297.235 101.164 297.234 101.24 297.236C101.297 297.233 101.351 297.233 101.408 297.238C101.466 297.242 101.519 297.243 101.577 297.247C101.899 297.264 102.222 297.314 102.54 297.389L102.544 297.386C102.573 297.388 102.594 297.389 102.619 297.395C102.672 297.403 102.726 297.41 102.776 297.414C102.836 297.422 102.9 297.434 102.964 297.446C103.29 297.5 103.608 297.575 103.928 297.667C104.023 297.693 104.118 297.725 104.213 297.757C104.244 297.771 104.276 297.777 104.29 297.785C104.664 297.918 105.02 298.067 105.369 298.248C106.164 298.662 106.905 299.221 107.513 299.883C107.605 299.99 107.694 300.094 107.787 300.202C107.81 300.229 107.836 300.26 107.859 300.294C107.898 300.347 107.94 300.404 107.979 300.465C108.008 300.506 108.034 300.544 108.059 300.59L108.066 300.597C108.066 300.597 108.069 300.601 108.072 300.605C108.156 300.687 108.235 300.779 108.311 300.875C108.504 301.123 108.658 301.419 108.798 301.699C108.829 301.766 108.863 301.83 108.894 301.897C108.925 301.964 108.956 302.031 108.983 302.095C109.008 302.147 109.03 302.195 109.051 302.251C109.088 302.333 109.121 302.418 109.154 302.496C109.161 302.504 109.16 302.518 109.166 302.526L109.211 302.641C109.487 303.366 109.658 304.142 109.717 304.919C109.857 306.71 109.438 308.526 108.498 310.061L108.505 310.054Z" fill="#AE306F"/>
<path d="M266.598 173.203C265.948 173.815 264.881 173.755 264.043 173.892C260.802 174.242 256.449 173.474 255.034 170.166C254.558 168.958 255.251 166.706 256.512 166.018C256.713 165.879 256.926 165.77 257.152 165.683C257.552 165.526 257.978 165.454 258.396 165.443C258.465 165.438 258.529 165.443 258.598 165.444C258.683 165.451 258.774 165.447 258.856 165.45C259.031 165.459 259.199 165.476 259.374 165.5C259.594 165.538 259.816 165.588 260.026 165.661C262.414 166.225 264.484 169.205 265.761 170.989C266.092 171.647 267.024 172.437 266.598 173.203Z" fill="#AE306F"/>
<path d="M272.523 162.8C272.096 163.58 271.058 163.856 270.305 164.248C267.334 165.582 262.958 166.204 260.583 163.499C259.753 162.494 259.717 160.14 260.707 159.097C260.858 158.907 261.026 158.729 261.217 158.579C261.551 158.306 261.933 158.105 262.325 157.962C262.388 157.942 262.45 157.921 262.516 157.905C262.601 157.879 262.682 157.849 262.766 157.83C262.931 157.789 263.104 157.748 263.271 157.718C263.49 157.684 263.718 157.662 263.944 157.669C266.39 157.467 269.278 159.658 271.042 160.957C271.563 161.479 272.693 161.939 272.523 162.8Z" fill="#AE306F"/>
<path d="M275.204 152.355C274.941 153.208 273.981 153.678 273.322 154.21C270.675 156.108 266.506 157.587 263.642 155.402C262.633 154.584 262.129 152.284 262.891 151.062C263.001 150.848 263.132 150.642 263.286 150.456C263.563 150.125 263.893 149.855 264.251 149.634C264.308 149.599 264.368 149.568 264.428 149.536C264.506 149.496 264.582 149.451 264.656 149.414C264.813 149.339 264.97 149.265 265.132 149.206C265.343 149.132 265.56 149.066 265.779 149.025C268.139 148.342 271.402 149.918 273.389 150.839C274.004 151.253 275.202 151.481 275.204 152.355Z" fill="#AE306F"/>
<path d="M276.99 143.086C276.727 143.94 275.767 144.409 275.108 144.941C272.461 146.839 268.292 148.318 265.428 146.133C264.419 145.315 263.912 143.012 264.677 141.794C264.784 141.575 264.918 141.373 265.072 141.187C265.342 140.856 265.676 140.583 266.034 140.362C266.091 140.327 266.151 140.295 266.211 140.264C266.289 140.223 266.365 140.179 266.439 140.141C266.596 140.067 266.756 139.996 266.915 139.933C267.123 139.855 267.343 139.793 267.562 139.752C269.919 139.066 273.185 140.646 275.172 141.567C275.784 141.976 276.985 142.208 276.987 143.082L276.99 143.086Z" fill="#AE306F"/>
<path d="M274.404 131.804C273.181 134.824 270.445 138.3 266.86 137.984C265.57 137.835 263.915 136.155 263.906 134.72C263.881 134.481 263.885 134.237 263.914 133.998C263.968 133.571 264.107 133.164 264.294 132.79C264.323 132.731 264.353 132.672 264.39 132.614C264.435 132.542 264.473 132.462 264.515 132.386C264.609 132.239 264.703 132.091 264.807 131.955C264.943 131.779 265.096 131.607 265.259 131.454C266.887 129.616 270.489 129.204 272.661 128.917C273.4 128.937 274.538 128.488 275.007 129.229C275.239 130.091 274.677 131.001 274.411 131.804L274.404 131.804Z" fill="#AE306F"/>
<path d="M261.665 135.76C261.4 136.082 261.079 136.37 260.703 136.586C260.496 136.71 260.276 136.812 260.044 136.884C258.728 137.452 256.524 136.605 255.869 135.483C254.143 132.321 256.239 128.425 258.516 126.096C259.142 125.526 259.755 124.652 260.636 124.518C261.502 124.656 261.546 125.875 261.854 126.545C262.463 128.648 263.525 132.12 262.492 134.342C262.415 134.556 262.32 134.764 262.212 134.957C262.125 135.105 262.031 135.253 261.934 135.396C261.881 135.468 261.826 135.535 261.778 135.604C261.737 135.658 261.697 135.713 261.654 135.763L261.665 135.76Z" fill="#AE306F"/>
<path d="M252.231 136.119C251.966 136.44 251.645 136.728 251.273 136.948C251.065 137.072 250.842 137.17 250.613 137.246C249.294 137.811 247.093 136.967 246.438 135.845C244.713 132.683 246.808 128.787 249.086 126.458C249.712 125.888 250.325 125.014 251.205 124.88C252.072 125.018 252.116 126.237 252.428 126.904C253.037 129.007 254.095 132.475 253.066 134.701C252.988 134.914 252.89 135.119 252.785 135.316C252.698 135.464 252.604 135.611 252.507 135.755C252.459 135.823 252.399 135.894 252.351 135.962C252.311 136.017 252.267 136.067 252.227 136.122L252.231 136.119Z" fill="#AE306F"/>
<path d="M242.935 137.765C242.756 137.931 242.559 138.067 242.349 138.187C241.168 139.007 238.843 138.61 237.979 137.642C235.661 134.887 236.938 130.652 238.714 127.918C239.215 127.234 239.643 126.252 240.478 125.949C241.355 125.912 241.638 127.099 242.075 127.693C243.092 129.633 244.818 132.821 244.248 135.208C244.216 135.435 244.16 135.651 244.097 135.865C244.041 136.033 243.979 136.187 243.909 136.347C243.875 136.423 243.829 136.503 243.798 136.583C243.768 136.642 243.742 136.704 243.712 136.763C243.512 137.129 243.255 137.476 242.935 137.765Z" fill="#AE306F"/>
<path d="M234.868 141.28C233.997 142.422 231.666 142.765 230.544 142.111C227.486 140.206 227.392 135.784 228.229 132.64C228.495 131.837 228.595 130.77 229.298 130.22C230.116 129.912 230.756 130.953 231.359 131.384C232.929 132.916 235.557 135.411 235.755 137.86C235.792 138.082 235.811 138.307 235.815 138.53C235.812 138.706 235.803 138.874 235.786 139.049C235.78 139.135 235.759 139.22 235.748 139.309C235.744 139.373 235.731 139.444 235.719 139.508C235.644 139.919 235.509 140.329 235.293 140.701C235.173 140.911 235.029 141.109 234.864 141.283L234.868 141.28Z" fill="#AE306F"/>
<path d="M228.973 145.536C228.849 146.964 227.064 148.504 225.762 148.552C222.157 148.578 219.717 144.894 218.743 141.781C218.536 140.957 218.052 140.003 218.357 139.167C218.885 138.466 219.983 139.007 220.721 139.049C222.864 139.507 226.42 140.21 227.896 142.171C228.052 142.337 228.182 142.52 228.305 142.702C228.398 142.849 228.48 142.999 228.558 143.153C228.599 143.231 228.629 143.313 228.669 143.391C228.701 143.451 228.725 143.511 228.752 143.574C228.91 143.96 229.015 144.378 229.032 144.81C229.046 145.052 229.024 145.292 228.984 145.533L228.973 145.536Z" fill="#AE306F"/>
<path d="M224.631 154.948C224.481 155.116 224.308 155.265 224.126 155.395C223.799 155.628 223.434 155.788 223.056 155.892C222.997 155.909 222.935 155.922 222.873 155.935C222.792 155.951 222.712 155.973 222.635 155.993C222.478 156.02 222.318 156.044 222.158 156.061C221.952 156.077 221.74 156.079 221.533 156.063C219.248 156.086 216.71 153.861 215.154 152.538C214.705 152.015 213.686 151.513 213.901 150.727C214.349 150.028 215.33 149.848 216.052 149.529C218.904 148.485 223.007 148.197 225.035 150.873C225.74 151.858 225.616 154.049 224.634 154.952L224.631 154.948Z" fill="#AE306F"/>
<path d="M225.055 163.469C224.989 163.525 224.924 163.581 224.859 163.637C224.721 163.742 224.584 163.847 224.44 163.943C224.255 164.062 224.059 164.177 223.851 164.262C221.715 165.44 218.2 164.628 216.07 164.171C215.382 163.906 214.171 163.95 213.977 163.101C214.044 162.215 214.872 161.545 215.394 160.883C217.545 158.463 221.262 156.114 224.525 157.604C225.685 158.178 226.677 160.299 226.204 161.648C226.143 161.88 226.065 162.108 225.955 162.322C225.764 162.707 225.497 163.043 225.202 163.329C225.152 163.372 225.105 163.419 225.052 163.458L225.055 163.469Z" fill="#AE306F"/>
<path d="M229.912 171.247C228.301 173.083 224.72 173.511 222.562 173.799C221.83 173.786 220.699 174.236 220.23 173.502C219.997 172.647 220.548 171.74 220.814 170.937C222.014 167.929 224.717 164.461 228.286 164.759C229.573 164.904 231.226 166.565 231.239 167.99C231.264 168.229 231.264 168.47 231.235 168.709C231.184 169.133 231.052 169.54 230.866 169.914C230.836 169.973 230.806 170.031 230.77 170.09C230.725 170.162 230.686 170.242 230.644 170.317C230.554 170.462 230.46 170.609 230.356 170.745C230.221 170.921 230.075 171.094 229.912 171.247Z" fill="#AE306F"/>
<path d="M237.604 175.842C236.85 178.179 233.716 180 231.843 181.134C231.156 181.416 230.295 182.281 229.57 181.794C229.012 181.097 229.158 180.037 229.082 179.194C228.993 175.937 230.096 171.656 233.513 170.507C234.758 170.128 236.942 170.999 237.532 172.31C237.653 172.52 237.747 172.747 237.812 172.978C237.935 173.387 237.974 173.821 237.953 174.233C237.952 174.301 237.943 174.369 237.934 174.437C237.924 174.526 237.921 174.615 237.911 174.697C237.883 174.868 237.856 175.038 237.814 175.208C237.758 175.423 237.695 175.637 237.6 175.846L237.604 175.842Z" fill="#AE306F"/>
<path d="M243.838 184.002C243.363 184.569 243.008 185.736 242.137 185.648C241.319 185.294 240.95 184.288 240.494 183.577C238.895 180.741 237.875 176.438 240.357 173.827C241.28 172.909 243.625 172.66 244.751 173.544C244.957 173.675 245.143 173.829 245.313 174.004C245.609 174.311 245.851 174.671 246.024 175.051C246.048 175.11 246.079 175.17 246.103 175.236C246.133 175.318 246.17 175.4 246.203 175.478C246.263 175.64 246.315 175.803 246.36 175.971C246.412 176.188 246.456 176.41 246.467 176.634C246.891 179.05 244.976 182.129 243.845 184.002L243.838 184.002Z" fill="#AE306F"/>
<path d="M256.572 180.343C256.501 181.079 256.865 182.243 256.096 182.662C255.22 182.833 254.351 182.209 253.571 181.883C250.646 180.445 247.374 177.473 247.944 173.918C248.186 172.642 249.978 171.11 251.413 171.202C251.654 171.195 251.897 171.214 252.134 171.264C252.556 171.35 252.956 171.514 253.314 171.728C253.369 171.761 253.427 171.798 253.482 171.838C253.553 171.89 253.629 171.932 253.701 171.984C253.841 172.085 253.976 172.189 254.108 172.303C254.273 172.449 254.433 172.612 254.575 172.784C256.289 174.54 256.443 178.162 256.571 180.351L256.572 180.343Z" fill="#AE306F"/>
<path d="M244.254 168.839C247.509 168.498 250.103 166.172 252.16 163.805C256.999 157.268 258.84 149.067 260.206 141.207C252.585 141.24 244.422 140.509 237.471 144.236C233.158 146.535 230.334 151.123 230.113 155.988C229.823 158.99 231.253 161.785 233.334 163.867C236.118 166.809 240.077 169.211 244.258 168.836L244.254 168.839ZM253.801 165.063C251.408 167.771 248.322 170.232 244.644 170.703C238.118 171.373 231.599 166.665 228.857 160.955C226.342 154.334 230.041 146.29 236.099 142.995C242.916 139.222 253 139.295 260.557 140.285C260.71 139.973 260.951 139.6 261.286 139.499C262.589 140.325 262.207 142.122 262.023 143.41C261.582 146.407 260.919 149.395 260.005 152.277C258.529 156.77 256.785 161.347 253.797 165.066L253.801 165.063Z" fill="#AE306F"/>
<path d="M231.395 186.723C245.091 192.601 258.924 187.911 268.267 176.867C272.011 171.951 274.196 166.027 276.053 160.211C278.152 153.213 279.835 146.089 281.316 138.932C282.54 132.845 283.46 126.678 284.905 120.647C268.19 122.157 250.622 118.828 234.59 125.036C225.146 128.417 216.268 134.7 212.133 144.074C206.915 155.292 211.621 167.962 219.139 176.917C222.513 181.044 226.603 184.541 231.399 186.719L231.395 186.723ZM224.09 220.289C221.615 225.206 214.55 224.929 211.146 221.196C209.863 219.624 209.561 217.372 210.213 215.469C209.619 216.988 207.366 217.251 205.892 217.246C205.892 217.246 205.892 217.246 205.881 217.249C205.881 217.249 205.874 217.248 205.867 217.248C205.867 217.248 205.863 217.251 205.856 217.251C203.447 217.113 200.681 216.327 199.167 214.345C198.527 213.311 198.646 211.846 199.388 210.889C200.23 209.893 201.697 209.803 202.903 209.964C205.524 210.293 209.839 212.122 210.336 214.989C210.319 215.11 210.293 215.22 210.26 215.329C210.427 214.885 210.646 214.456 210.917 214.063C211.894 212.664 213.279 211.295 215.089 211.264C218.377 211.102 222.692 214.448 220.554 217.905C219.777 219.421 218.086 220.518 216.356 220.199C215.891 220.07 215.511 219.688 215.351 219.237C215.51 219.127 215.714 219.053 215.895 218.984C216.804 218.759 217.648 218.963 218.339 218.196C219.911 216.213 218.684 213.919 216.399 213.32C214.114 212.502 212.384 214.909 212.073 216.92C211.839 218.664 212.706 220.484 214.312 221.265C216.342 222.409 219.148 222.439 220.932 220.828C223.06 218.194 222.538 214.619 221.819 211.562C221.498 210.355 220.833 209.269 220.198 208.21C220.032 207.798 219.284 206.99 218.929 206.326C218.86 206.238 218.788 206.146 218.723 206.055C217.305 203.959 216.303 201.437 216.636 198.867C216.881 195.524 218.115 192.36 220.674 190.111C222.418 188.641 224.525 187.18 226.796 186.681C223.519 184.723 220.535 182.126 217.928 178.932C214.754 175.295 212.042 171.022 210.22 166.446C209.881 167.359 209.332 168.19 208.782 168.889C206.187 172.132 202.547 174.5 198.411 175.044C193.781 175.683 188.544 174.165 185.879 170.118C185.579 169.674 185.311 169.222 185.083 168.77C179.438 164.107 169.85 171.921 176.258 177.645C177.663 178.605 179.449 178.054 180.717 177.119C182.631 175.651 182.216 172.646 180.211 171.461C179.757 171.142 179.219 171.403 178.76 171.537C177.899 171.788 177.465 172.575 176.787 173.076C176.671 173.176 176.526 173.341 176.358 173.331C176.2 173.326 176.039 173.217 175.925 173.115C175.182 172.389 175.61 171.16 176.32 170.571C177.443 169.614 179.137 168.995 180.586 169.469C183.15 170.596 184.622 173.822 183.582 176.464C182.553 179.118 179.322 180.608 176.604 179.948C175.04 179.573 173.838 178.36 173.019 177.031C169.136 170.342 177.88 162.859 184.238 166.415C182.662 159.409 188.963 152.372 196.745 153.865C199.782 154.532 201.823 157.611 202.183 160.569C202.721 164.543 199.331 168.541 195.219 167.922C190.675 167.298 187.903 162.114 192.089 158.989C193.496 158.176 196.343 157.951 197.215 159.622C197.421 160.126 197.388 160.749 196.917 161.073C196.896 161.071 196.871 161.059 196.854 161.054C196.207 161.001 195.724 160.554 195.118 160.432C193.414 160.104 192.122 161.527 192.12 163.159C192.831 166.23 197.119 167.193 198.943 164.532C200.396 162.698 200.372 160.093 199.305 158.095C197.38 154.489 192.429 155.337 189.678 157.471C185.366 160.536 185.113 166.874 188.709 170.589C191.772 173.699 196.746 173.867 200.66 172.472C203.288 171.432 205.447 169.573 207.22 167.411C208.075 166.329 208.849 165.137 209.112 163.762C209.137 163.681 209.157 163.604 209.188 163.53C207.26 157.228 207.104 150.514 209.755 144.223C213.436 135.153 221.433 128.457 230.368 124.825C240.326 120.275 251.34 119.267 262.159 119.309C267.685 119.257 273.207 119.409 278.733 119.457C280.455 119.462 282.189 119.444 283.902 119.517C284.426 119.582 285.106 119.433 285.478 119.875C286.316 119.076 286.909 120.257 286.902 121.051C286.561 123.502 285.987 125.932 285.577 128.382C284.933 131.913 284.35 135.461 283.66 138.986C282.612 144.335 281.311 149.639 279.963 154.919C278.339 161.115 276.535 167.327 273.505 173.007C268.519 182.323 259.023 189.249 248.517 190.716C241.53 191.768 234.889 190.779 229.054 187.91C228.394 188.022 227.726 188.115 227.11 188.402C223.644 189.913 220.479 192.656 219.341 196.359C218.103 200.14 218.813 203.506 221.645 206.347C224.356 209.272 228.593 211.461 232.572 210.111C238.399 207.963 237.291 200.016 232.285 197.57C229.833 196.394 226.769 198.569 226.971 201.249C227.479 204.915 232.29 204.06 230.222 200.389C229.98 199.835 230.152 199.474 230.72 199.288C232.04 198.849 233.15 200.181 233.211 201.412C233.3 207.822 224.918 207.373 224.471 201.403C224.231 198.195 227.003 195.088 230.229 195.025C233.058 194.889 235.486 196.807 236.997 199.051C238.957 201.779 239.418 205.632 237.627 208.559C235.493 212.448 230.445 213.253 226.513 211.964C225.678 211.692 224.871 211.328 224.102 210.899C224.422 211.747 224.639 212.623 224.735 213.489C225.021 215.769 225.241 218.213 224.082 220.296L224.09 220.289Z" fill="#AE306F"/>
<path d="M211.339 203.507C211.818 205.427 209.532 206.687 208.023 207.28C205.738 208.059 202.882 208.366 200.745 207.099C199.761 206.38 199.325 204.977 199.651 203.815C200.055 202.573 201.384 201.941 202.561 201.639C205.115 200.964 209.801 201.038 211.338 203.514L211.339 203.507Z" fill="#AE306F"/>
<path d="M203.631 194.923C201.943 196.646 199.53 198.202 197.048 198.026C195.848 197.827 194.825 196.767 194.592 195.585C194.396 194.297 195.297 193.129 196.214 192.329C198.189 190.574 202.407 188.537 204.898 190.054C206.186 191.555 204.72 193.701 203.639 194.909L203.632 194.916L203.631 194.923Z" fill="#AE306F"/>
<path d="M196.243 186.103C195.842 188.485 194.749 191.167 192.598 192.451C191.498 192.968 190.056 192.689 189.189 191.842C188.295 190.893 188.371 189.425 188.669 188.247C189.293 185.681 191.593 181.596 194.508 181.426C196.408 181.92 196.438 184.493 196.247 186.1L196.243 186.103Z" fill="#AE306F"/>
<path d="M185.579 190.071C184.752 190.968 183.311 191.243 182.191 190.787C181.007 190.247 180.52 188.855 180.36 187.649C179.977 185.038 180.576 180.388 183.21 179.137C185.175 178.88 186.166 181.297 186.586 182.86C187.104 185.215 187.082 188.087 185.579 190.071Z" fill="#AE306F"/>
<path d="M178.165 190.9C177.716 192.034 176.47 192.809 175.26 192.785C173.961 192.704 173.008 191.577 172.424 190.515C171.125 188.216 170.021 183.659 172.03 181.547C173.756 180.607 175.537 182.473 176.494 183.775C177.829 185.79 178.86 188.493 178.162 190.896L178.165 190.9Z" fill="#AE306F"/>
<path d="M171.776 194.072C172.052 195.258 171.471 196.605 170.463 197.276C169.347 197.953 167.928 197.568 166.837 197.028C164.461 195.88 160.953 192.764 161.403 189.886C162.285 188.127 164.816 188.648 166.35 189.175C168.597 190.073 170.979 191.703 171.776 194.072Z" fill="#AE306F"/>
<path d="M167.955 203.89C167.174 204.935 165.712 205.114 164.503 205.022C161.867 204.846 157.449 203.279 156.785 200.442C156.944 198.494 159.454 198.017 161.068 197.928C161.075 197.929 161.083 197.93 161.094 197.927C163.514 197.914 166.34 198.536 167.974 200.433C168.675 201.429 168.642 202.9 167.958 203.894L167.955 203.89Z" fill="#AE306F"/>
<path d="M168.002 210.812C167.711 212.084 166.445 212.836 165.303 213.241C162.822 214.148 158.15 214.496 156.389 212.172C155.744 210.308 157.895 208.843 159.334 208.115C161.538 207.133 164.364 206.565 166.612 207.635C167.657 208.262 168.222 209.621 167.999 210.808L168.002 210.812Z" fill="#AE306F"/>
<path d="M169.774 220.241C167.959 222.159 163.933 224.559 161.324 223.264C159.905 221.883 161.186 219.615 162.151 218.318L162.159 218.312C163.689 216.451 165.959 214.69 168.446 214.646C169.662 214.739 170.771 215.705 171.107 216.866C171.413 218.134 170.617 219.371 169.773 220.249L169.774 220.241Z" fill="#AE306F"/>
<path d="M176.517 225.445C175.428 227.849 172.414 231.438 169.519 231.069C167.732 230.232 168.193 227.671 168.684 226.134C168.676 226.147 168.675 226.162 168.667 226.176L168.689 226.116C169.53 223.858 171.095 221.453 173.433 220.589C174.611 220.28 175.975 220.826 176.672 221.818C177.375 222.918 177.029 224.344 176.521 225.448L176.517 225.445Z" fill="#AE306F"/>
<path d="M185.075 226.098C185.552 228.695 185.117 233.364 182.53 234.709C180.588 235.039 179.506 232.681 179.028 231.134C178.422 228.794 178.333 225.911 179.769 223.87C180.563 222.942 181.993 222.616 183.13 223.03C184.333 223.529 184.868 224.9 185.075 226.098Z" fill="#AE306F"/>
<path d="M193.771 232.184C192.089 233.22 190.201 231.433 189.178 230.179L189.169 230.168C187.738 228.228 186.58 225.602 187.143 223.175C187.529 222.021 188.733 221.175 189.944 221.138C191.245 221.151 192.256 222.22 192.896 223.254C194.312 225.48 195.662 229.973 193.768 232.187L193.771 232.184Z" fill="#AE306F"/>
<path d="M202.936 226.289C201.6 227.737 199.305 226.526 197.981 225.598C196.073 224.115 194.241 221.886 194.133 219.394C194.2 218.18 195.128 217.043 196.281 216.681C197.54 216.342 198.798 217.107 199.695 217.927C201.657 219.691 204.162 223.654 202.936 226.296L202.936 226.289Z" fill="#AE306F"/>
<path d="M174.828 215.738C181.765 222.505 193.722 219.032 196.005 209.664C198.439 200.286 189.652 191.619 180.343 194.176C170.82 196.703 167.707 208.981 174.821 215.737L174.828 215.738ZM197.031 212.565C192.699 222.549 178.947 224.275 172.24 215.727C165.725 207.636 169.813 195.249 179.836 192.621C191.609 189.392 201.984 201.427 197.024 212.564L197.031 212.565Z" fill="#AE306F"/>
<path d="M187.372 211.547C187.599 211.352 187.816 211.146 188.024 210.928C188.208 210.722 188.379 210.509 188.536 210.287C188.679 210.072 188.811 209.852 188.932 209.627C189.043 209.398 189.151 209.166 189.244 208.925C189.327 208.687 189.399 208.451 189.461 208.211C189.517 207.95 189.562 207.691 189.589 207.427C189.609 207.169 189.621 206.911 189.619 206.652C189.61 206.393 189.583 206.135 189.545 205.881C189.498 205.607 189.436 205.333 189.388 205.16C189.38 205.127 189.368 205.098 189.356 205.061C189.275 204.803 189.175 204.555 189.069 204.306C188.945 204.044 188.806 203.789 188.674 203.582C188.585 203.438 188.509 203.296 188.438 203.143C188.426 203.113 188.414 203.083 188.402 203.054C188.393 203.035 188.384 203.009 188.378 202.994C188.354 202.921 188.331 202.847 188.308 202.773C188.268 202.742 188.231 202.706 188.194 202.671C187.891 202.396 187.628 202.081 187.321 201.81C187.139 201.652 186.949 201.501 186.751 201.364C186.522 201.206 186.289 201.059 186.044 200.929C186.023 200.92 186.009 200.912 185.992 200.9C185.992 200.9 185.992 200.9 185.989 200.896C185.877 200.858 185.764 200.828 185.648 200.794C185.521 200.756 185.387 200.724 185.26 200.693C185.002 200.633 184.743 200.588 184.486 200.562L184.472 200.561C184.115 200.526 183.76 200.517 183.403 200.522C183.072 200.533 182.735 200.561 182.408 200.615C182.16 200.661 181.911 200.714 181.669 200.782C181.422 200.86 181.174 200.945 180.936 201.049C180.716 201.151 180.502 201.275 180.298 201.403C180.019 201.576 179.753 201.764 179.519 201.959C179.315 202.134 179.121 202.32 178.936 202.518C178.748 202.727 178.57 202.94 178.409 203.165C178.259 203.38 178.128 203.6 178.002 203.827C177.999 203.831 177.994 203.841 177.994 203.848C177.871 204.087 177.766 204.331 177.668 204.582C177.577 204.834 177.503 205.091 177.44 205.352C177.396 205.55 177.363 205.745 177.341 205.945C177.32 206.177 177.313 206.41 177.313 206.644C177.324 206.915 177.354 207.183 177.388 207.448C177.444 207.754 177.507 208.061 177.595 208.359C177.682 208.639 177.783 208.913 177.899 209.18C178.02 209.438 178.152 209.685 178.299 209.926C178.46 210.176 178.632 210.416 178.819 210.649C179.001 210.861 179.198 211.059 179.399 211.254C179.611 211.44 179.828 211.614 180.049 211.779C180.285 211.937 180.529 212.088 180.781 212.219C181.003 212.33 181.229 212.43 181.459 212.519C181.694 212.598 181.933 212.674 182.169 212.731C182.445 212.788 182.722 212.838 183.004 212.871C183.261 212.89 183.519 212.903 183.778 212.901C184.041 212.889 184.306 212.862 184.571 212.828C184.822 212.787 185.071 212.726 185.314 212.659C185.586 212.572 185.856 212.474 186.124 212.357C186.314 212.268 186.495 212.166 186.675 212.058C186.921 211.901 187.153 211.735 187.379 211.554L187.372 211.547ZM190.9 211.259C190.115 212.54 188.996 213.594 187.666 214.294C186.212 215.061 184.554 215.448 182.911 215.308C181.771 215.211 180.696 214.891 179.681 214.379C178.741 213.883 177.893 213.214 177.203 212.41C176.804 211.944 176.455 211.429 176.177 210.879C175.536 209.618 175.177 208.196 175.275 206.776C175.361 205.553 175.616 204.339 176.164 203.234C176.695 202.157 177.436 201.214 178.258 200.528C178.589 200.244 178.942 199.995 179.312 199.764C179.595 199.595 179.893 199.452 180.191 199.317L180.217 199.308C180.481 199.188 180.76 199.076 181.033 198.982C181.085 198.964 181.136 198.947 181.188 198.929C181.254 198.906 181.328 198.882 181.398 198.863C181.486 198.833 181.574 198.811 181.662 198.789C181.684 198.784 181.703 198.782 181.717 198.775C181.816 198.751 181.912 198.729 182.007 198.708C182.106 198.683 182.204 198.665 182.302 198.648L182.324 198.642C182.423 198.624 182.525 198.611 182.623 198.593C182.708 198.56 182.793 198.534 182.881 198.512C182.921 198.504 182.965 198.493 183.005 198.485C183.045 198.478 183.093 198.471 183.136 198.467C183.227 198.456 183.321 198.448 183.404 198.444C183.48 198.439 183.559 198.438 183.634 198.44C183.692 198.437 183.746 198.438 183.803 198.442C183.86 198.447 183.914 198.447 183.971 198.451C184.294 198.469 184.617 198.519 184.935 198.593L184.939 198.59C184.967 198.592 184.989 198.594 185.013 198.599C185.067 198.607 185.12 198.615 185.17 198.618C185.231 198.627 185.295 198.639 185.358 198.651C185.685 198.704 186.003 198.779 186.323 198.872C186.418 198.897 186.513 198.929 186.607 198.962C186.639 198.975 186.671 198.981 186.684 198.989C187.059 199.122 187.414 199.272 187.764 199.453C188.559 199.866 189.3 200.426 189.907 201.087C190 201.195 190.089 201.299 190.182 201.406C190.205 201.433 190.231 201.464 190.254 201.498C190.293 201.551 190.335 201.609 190.374 201.669C190.403 201.711 190.429 201.749 190.454 201.794L190.461 201.802C190.461 201.802 190.464 201.805 190.467 201.809C190.551 201.891 190.63 201.983 190.705 202.079C190.899 202.328 191.052 202.623 191.193 202.904C191.223 202.971 191.258 203.035 191.289 203.102C191.32 203.169 191.351 203.236 191.378 203.299C191.403 203.351 191.424 203.4 191.445 203.455C191.482 203.537 191.515 203.622 191.549 203.7C191.555 203.708 191.554 203.722 191.561 203.73L191.606 203.845C191.881 204.571 192.052 205.346 192.112 206.123C192.252 207.914 191.833 209.73 190.892 211.265L190.9 211.259Z" fill="#AE306F"/>
<path d="M280.243 461.926C279.327 458.316 276.961 445.947 276.961 445.947L275.986 446.173C275.986 446.173 278.076 456.601 278.784 459.955C279.99 465.664 281.185 466.145 280.243 461.926ZM317.796 492.202C317.796 492.202 321.454 503.869 320.983 504.545C310.025 510.055 299.283 507.061 297.863 506.547C297.708 504.758 299.194 495.722 299.194 495.722L317.796 492.202Z" fill="#1E1C1D"/>
<path d="M276.501 453.786L279.484 451.388C279.484 451.388 279.147 449.701 278.934 449.235C278.72 448.77 277.39 448.172 277.39 448.172L277.551 449.08C277.551 449.08 276.579 449.046 276.573 449.017C276.567 448.987 276.418 448.328 276.418 448.328C276.418 448.328 275.289 447.83 275.414 448.929C274.712 448.519 274.519 449.645 274.698 449.995C273.963 449.736 274.075 450.651 274.238 451.133C273.785 450.857 273.858 451.963 274.603 452.558C275.348 453.153 276.501 453.786 276.501 453.786ZM311.935 507.428C312.235 508.275 312.489 509.109 312.392 509.266C312.183 509.602 304.516 515.744 304.441 516.669C304.367 517.594 306.18 521.442 306.848 521.358C308.308 520.795 307.514 518.04 307.514 518.04C307.514 518.04 317.745 511.908 318.15 511.12C318.638 510.177 318.404 507.472 318.049 505.829C315.939 506.519 313.848 507.07 311.935 507.428ZM306.107 507.81C303.296 507.634 301.359 507.356 299.821 507.078C299.815 508.726 299.794 511.654 299.721 512.113C299.618 512.759 299.083 525.53 299.215 525.837C299.348 526.143 303.087 528.365 303.812 527.559C304.536 526.754 302.777 524.786 302.777 524.786C302.777 524.786 305.39 512.152 305.444 511.564C305.487 511.105 305.92 508.796 306.107 507.81Z" fill="#FFB7A4"/>
<path d="M308.246 469.328C314.217 467.989 318.31 476.728 318.31 476.728L321.419 474.868C321.419 474.868 326.195 481.586 323.765 484.713C321.337 487.84 317.724 485.858 317.724 485.858C317.724 485.858 319.227 491.601 319.133 492.352C311.259 496.797 297.602 496.814 296.899 496.027C296.103 489.892 289.418 472.602 289.418 472.602C289.418 472.602 286.103 467.64 285.813 467.347C285.523 467.053 276.355 455.017 275.927 454.364C275.948 453.991 278.996 451.288 279.714 451.014C280.095 451.14 287.924 458.097 288.57 458.836C289.216 459.576 291.753 461.663 291.753 461.663C291.753 461.663 303.687 470.35 308.246 469.328ZM308.246 469.328C314.217 467.989 318.31 476.728 318.31 476.728L321.419 474.868C321.419 474.868 326.195 481.586 323.765 484.713C321.337 487.84 317.724 485.858 317.724 485.858C317.724 485.858 319.227 491.601 319.133 492.352C311.259 496.797 297.602 496.814 296.899 496.027C296.103 489.892 289.418 472.602 289.418 472.602C289.418 472.602 286.103 467.64 285.813 467.347C285.523 467.053 276.355 455.017 275.927 454.364C275.948 453.991 278.996 451.288 279.714 451.014C280.095 451.14 287.924 458.097 288.57 458.836C289.216 459.576 291.753 461.663 291.753 461.663C291.753 461.663 303.687 470.35 308.246 469.328Z" fill="#FFDCB4"/>
<path d="M317.538 486.017C317.502 486.02 317.464 486.014 317.428 485.995C317.403 485.983 314.779 484.62 312.373 482.013C312.297 481.931 312.302 481.802 312.384 481.727C312.466 481.651 312.594 481.656 312.67 481.738C315.025 484.289 317.588 485.622 317.613 485.635C317.713 485.687 317.752 485.809 317.701 485.908C317.668 485.972 317.606 486.011 317.538 486.017ZM321.059 480.952C321.157 480.898 321.194 480.775 321.14 480.676C320.481 479.466 318.696 476.87 318.621 476.76C318.557 476.668 318.432 476.645 318.34 476.708C318.248 476.772 318.225 476.899 318.288 476.99C318.307 477.017 320.137 479.678 320.785 480.87C320.825 480.943 320.902 480.981 320.98 480.975C321.007 480.972 321.034 480.965 321.059 480.952ZM310.761 490.334C310.823 490.241 310.798 490.116 310.705 490.053C307.343 487.814 301.933 483.255 301.879 483.21C301.793 483.137 301.666 483.148 301.594 483.233C301.523 483.319 301.534 483.447 301.618 483.519C301.673 483.565 307.099 488.139 310.481 490.39C310.521 490.417 310.566 490.427 310.611 490.423C310.669 490.418 310.726 490.388 310.761 490.334ZM306.43 489.499C306.505 489.416 306.498 489.289 306.417 489.214C305.525 488.397 304.237 486.86 304.224 486.845C304.152 486.759 304.024 486.748 303.939 486.82C303.854 486.891 303.843 487.019 303.914 487.104C303.968 487.169 305.232 488.677 306.145 489.512C306.187 489.552 306.243 489.57 306.298 489.565C306.346 489.561 306.394 489.538 306.43 489.499ZM315.059 509.503C315.035 509.505 315.012 509.504 314.987 509.497C314.693 509.414 313.566 509.442 312.88 509.481C312.769 509.486 312.673 509.4 312.667 509.289C312.661 509.177 312.751 509.089 312.858 509.076C313.04 509.066 314.643 508.98 315.097 509.107C315.204 509.137 315.266 509.249 315.237 509.356C315.213 509.44 315.141 509.496 315.059 509.503ZM302.3 511.974C302.288 511.975 302.274 511.974 302.26 511.973C301.002 511.829 300.13 511.804 300.121 511.803C300.01 511.8 299.921 511.707 299.924 511.595C299.927 511.484 300.021 511.395 300.133 511.398C300.141 511.398 301.029 511.424 302.306 511.57C302.417 511.584 302.496 511.684 302.484 511.795C302.473 511.892 302.395 511.966 302.3 511.974Z" fill="#A1342F" fill-opacity="0.4"/>
<path d="M309.023 455.263C311.067 460.069 308.313 461.741 308.313 461.741C308.313 461.741 309.089 468.248 310.692 470.866C312.295 473.485 315.3 483.723 302.245 485.808C289.191 487.892 287.717 479.431 289.262 475.266C290.807 471.103 290.822 467.602 291.157 460.468C291.493 453.335 296.261 450.804 299.637 450.493C303.183 450.167 307.328 451.274 309.023 455.263ZM307.669 518.449C307.261 519.016 306.542 518.842 306.542 518.842L306.542 518.844C305.91 517.598 305.012 516.395 304.578 516.47C302.444 516.84 306.209 521.777 307.08 521.395C308.14 520.928 308.022 518.95 307.669 518.449ZM304.156 527.843C303.76 528.349 298.497 526.594 299.221 525.263C299.431 524.876 301.117 525.291 302.323 525.992C302.323 525.992 303.019 525.746 303.056 525.049C303.623 525.277 304.777 527.055 304.156 527.843ZM312.966 470.24C312.966 470.24 321.395 463.988 324.918 467.584C328.714 471.458 318.368 476.723 318.368 476.723C318.368 476.723 315.454 471.6 312.966 470.24Z" fill="#3C2F2F"/>
<path d="M322.223 472.667C320.318 474.365 318.241 474.86 317.86 473.988C317.498 473.162 318.445 473.037 319 472.507C319.555 471.977 319.17 470.941 319.78 469.764C320.503 468.367 321.969 468.155 322.526 468.39C323.891 468.967 324.127 470.968 322.223 472.667ZM316.144 472.949C316.624 472.829 317.371 472.683 317.659 472.112C317.947 471.541 317.555 470.68 317.023 470.726C316.491 470.772 316.59 472.143 315.576 472.35C315.499 472.368 315.434 472.39 315.38 472.416C315.535 472.601 315.728 472.837 315.848 472.99C315.942 472.988 316.04 472.976 316.144 472.949ZM318.987 469.274C319.348 468.806 319.057 468.431 318.581 468.889C317.94 469.509 318.628 469.74 318.987 469.274ZM315.759 471.096C315.478 470.577 315.018 470.692 315.246 471.313C315.551 472.151 316.041 471.614 315.759 471.096ZM275.986 446.173C275.237 446.147 275.127 445.24 275.11 444.861C275.012 442.567 277.068 441.064 277.068 441.064C277.068 441.064 276.46 442.467 277.223 444.37C277.769 445.73 276.961 445.947 276.961 445.947C276.961 445.947 276.539 446.129 275.986 446.173ZM325.792 460.429C325.792 460.429 328.623 458.285 329.041 454.537C329.508 455.192 329.293 459.367 325.792 460.429ZM305.489 435.818C289.677 434.941 280.392 438.972 280.416 439.554C280.416 439.554 301.021 433.038 314.97 440.788C316.28 441.686 319.409 444.091 320.941 447.463C323.26 452.567 322.117 455.116 322.117 455.116C322.117 455.116 324.833 452.118 322.026 446.883C330.712 458.536 312.493 464.771 312.493 464.771C311.435 465.208 314.505 465.26 318.777 463.061C316.651 464.915 324.632 462.634 327.687 456.643C330.741 450.652 325.335 436.919 305.489 435.818Z" fill="#ECCA19"/>
<path d="M294.252 485.771C294.205 485.775 294.156 485.763 294.115 485.732C293.987 485.639 291.016 483.354 293.237 476.33C295.32 469.736 295.165 463.355 295.163 463.292C295.16 463.18 295.248 463.086 295.359 463.083C295.471 463.08 295.564 463.168 295.568 463.28C295.569 463.344 295.727 469.791 293.622 476.452C291.498 483.174 294.326 485.384 294.356 485.406C294.445 485.474 294.464 485.6 294.397 485.689C294.361 485.738 294.307 485.766 294.252 485.771ZM306.281 484.647C306.374 484.496 308.523 480.897 306.72 475.405C304.951 470.016 303.989 465.112 303.979 465.064C303.958 464.953 303.851 464.883 303.742 464.903C303.632 464.925 303.561 465.03 303.583 465.141C303.591 465.19 304.559 470.117 306.336 475.532C308.076 480.835 305.959 484.4 305.936 484.436C305.879 484.531 305.908 484.655 306.003 484.714C306.042 484.737 306.084 484.746 306.127 484.743C306.188 484.737 306.246 484.704 306.281 484.647ZM300.485 486.197C300.568 486.125 300.578 485.999 300.506 485.913C300.489 485.892 298.753 483.706 299.484 474.308C299.493 474.197 299.409 474.1 299.299 474.091C299.187 474.081 299.089 474.166 299.082 474.277C298.332 483.913 300.124 486.09 300.201 486.178C300.245 486.228 300.308 486.252 300.37 486.247C300.411 486.243 300.45 486.227 300.485 486.197ZM308.456 461.728C308.453 461.693 308.143 458.162 307.626 455.834C307.602 455.725 307.494 455.657 307.385 455.681C307.277 455.705 307.207 455.813 307.232 455.922C307.743 458.223 308.05 461.728 308.053 461.763C308.063 461.874 308.161 461.956 308.272 461.946C308.384 461.937 308.465 461.839 308.456 461.728Z" fill="#1E1C1D"/>
</svg>
