<svg width="1444" height="1019" viewBox="0 0 1444 1019" fill="none" xmlns="http://www.w3.org/2000/svg">
<path d="M1443.9 72.0001C1443.9 72.0001 1004.4 -0.112319 720.5 0.000131379C437.726 0.112136 0.000854492 72.0001 0.000854492 72.0001V1019C0.000854492 1019 253.649 895.923 416.97 884.423C817.668 856.21 1119.5 1138 1443.9 917V72.0001Z" fill="#CFAA38"/>
<path d="M325.749 647.947C324.082 649.514 321.35 649.361 319.206 649.713C310.906 650.608 299.759 648.643 296.133 640.171C294.915 637.077 296.69 631.31 299.918 629.55C300.433 629.193 300.979 628.912 301.558 628.69C302.583 628.289 303.674 628.105 304.745 628.077C304.921 628.062 305.085 628.075 305.26 628.079C305.48 628.096 305.711 628.086 305.922 628.093C306.371 628.118 306.801 628.16 307.247 628.222C307.81 628.32 308.381 628.446 308.919 628.635C315.033 630.077 320.334 637.71 323.603 642.278C324.451 643.963 326.838 645.986 325.749 647.947Z" fill="#AE8F30"/>
<path d="M340.92 621.307C339.828 623.304 337.168 624.013 335.241 625.017C327.633 628.432 316.426 630.025 310.344 623.098C308.22 620.523 308.128 614.495 310.661 611.824C311.048 611.338 311.479 610.883 311.968 610.497C312.823 609.798 313.801 609.284 314.805 608.918C314.966 608.866 315.126 608.814 315.295 608.772C315.512 608.705 315.72 608.629 315.936 608.581C316.358 608.475 316.799 608.371 317.228 608.293C317.787 608.207 318.372 608.15 318.951 608.167C325.214 607.65 332.612 613.261 337.127 616.589C338.462 617.924 341.355 619.103 340.92 621.307Z" fill="#AE8F30"/>
<path d="M347.786 594.559C347.112 596.745 344.654 597.947 342.967 599.31C336.187 604.17 325.512 607.958 318.178 602.362C315.594 600.268 314.303 594.378 316.255 591.249C316.536 590.7 316.871 590.173 317.266 589.697C317.976 588.849 318.82 588.158 319.738 587.593C319.883 587.503 320.037 587.422 320.19 587.342C320.391 587.238 320.584 587.123 320.776 587.028C321.177 586.837 321.578 586.647 321.995 586.495C322.534 586.306 323.09 586.136 323.651 586.032C329.695 584.283 338.051 588.319 343.138 590.677C344.714 591.737 347.782 592.321 347.786 594.559Z" fill="#AE8F30"/>
<path d="M352.36 570.823C351.687 573.009 349.229 574.212 347.541 575.575C340.762 580.434 330.087 584.223 322.752 578.627C320.168 576.533 318.869 570.633 320.829 567.514C321.102 566.955 321.445 566.438 321.841 565.961C322.532 565.112 323.386 564.413 324.304 563.848C324.449 563.757 324.603 563.677 324.756 563.597C324.957 563.492 325.15 563.378 325.342 563.282C325.743 563.092 326.153 562.911 326.561 562.749C327.092 562.55 327.656 562.391 328.217 562.286C334.253 560.528 342.617 564.574 347.704 566.932C349.272 567.982 352.348 568.576 352.352 570.813L352.36 570.823Z" fill="#AE8F30"/>
<path d="M345.737 541.931C342.606 549.665 335.601 558.568 326.418 557.757C323.114 557.375 318.876 553.074 318.853 549.399C318.789 548.786 318.8 548.161 318.874 547.55C319.013 546.456 319.369 545.415 319.847 544.457C319.923 544.306 319.999 544.155 320.093 544.006C320.208 543.821 320.307 543.617 320.414 543.423C320.654 543.045 320.895 542.668 321.161 542.32C321.509 541.867 321.901 541.428 322.318 541.036C326.489 536.327 335.712 535.273 341.275 534.537C343.167 534.59 346.082 533.44 347.281 535.337C347.877 537.546 346.437 539.876 345.756 541.932L345.737 541.931Z" fill="#AE8F30"/>
<path d="M313.115 552.063C312.435 552.886 311.615 553.624 310.652 554.177C310.121 554.496 309.558 554.756 308.964 554.941C305.593 556.397 299.949 554.226 298.272 551.354C293.854 543.255 299.219 533.278 305.051 527.315C306.654 525.854 308.225 523.617 310.479 523.273C312.699 523.627 312.81 526.748 313.6 528.465C315.159 533.851 317.878 542.741 315.234 548.432C315.035 548.978 314.792 549.512 314.515 550.006C314.293 550.385 314.052 550.763 313.803 551.131C313.669 551.314 313.527 551.487 313.403 551.662C313.301 551.801 313.198 551.941 313.087 552.07L313.115 552.063Z" fill="#AE8F30"/>
<path d="M288.957 552.981C288.277 553.804 287.456 554.542 286.502 555.104C285.971 555.423 285.4 555.674 284.814 555.869C281.435 557.314 275.799 555.153 274.122 552.281C269.704 544.182 275.069 534.206 280.901 528.243C282.504 526.782 284.075 524.544 286.329 524.201C288.549 524.554 288.66 527.675 289.46 529.384C291.019 534.77 293.729 543.65 291.094 549.351C290.895 549.897 290.644 550.421 290.375 550.925C290.153 551.304 289.912 551.682 289.663 552.05C289.539 552.224 289.387 552.406 289.263 552.581C289.161 552.72 289.05 552.85 288.947 552.989L288.957 552.981Z" fill="#AE8F30"/>
<path d="M265.15 557.196C264.694 557.621 264.188 557.97 263.649 558.278C260.625 560.377 254.672 559.361 252.458 556.881C246.524 549.826 249.792 538.981 254.341 531.981C255.625 530.228 256.72 527.715 258.86 526.939C261.104 526.844 261.83 529.882 262.948 531.404C265.551 536.372 269.974 544.536 268.513 550.648C268.431 551.231 268.288 551.782 268.127 552.331C267.983 552.762 267.824 553.155 267.646 553.565C267.557 553.761 267.44 553.964 267.36 554.17C267.284 554.32 267.217 554.481 267.141 554.632C266.627 555.568 265.97 556.457 265.15 557.196Z" fill="#AE8F30"/>
<path d="M244.492 566.198C242.262 569.122 236.293 570.001 233.419 568.327C225.588 563.448 225.348 552.123 227.491 544.073C228.172 542.017 228.427 539.283 230.229 537.874C232.324 537.086 233.962 539.752 235.507 540.855C239.526 544.78 246.257 551.169 246.763 557.441C246.858 558.009 246.906 558.584 246.918 559.156C246.911 559.606 246.887 560.037 246.844 560.485C246.827 560.705 246.774 560.922 246.747 561.15C246.734 561.315 246.702 561.496 246.671 561.66C246.48 562.713 246.133 563.764 245.582 564.716C245.273 565.254 244.903 565.76 244.483 566.207L244.492 566.198Z" fill="#AE8F30"/>
<path d="M229.396 577.097C229.08 580.755 224.507 584.697 221.173 584.82C211.942 584.889 205.693 575.453 203.198 567.482C202.669 565.37 201.428 562.928 202.209 560.787C203.561 558.993 206.374 560.377 208.263 560.485C213.753 561.659 222.859 563.459 226.638 568.48C227.038 568.906 227.37 569.374 227.685 569.839C227.923 570.217 228.133 570.601 228.333 570.994C228.438 571.195 228.514 571.404 228.618 571.605C228.698 571.758 228.76 571.91 228.831 572.072C229.234 573.061 229.503 574.131 229.547 575.239C229.582 575.859 229.526 576.471 229.424 577.09L229.396 577.097Z" fill="#AE8F30"/>
<path d="M218.276 601.2C217.893 601.631 217.45 602.011 216.982 602.344C216.145 602.943 215.211 603.35 214.243 603.617C214.092 603.661 213.933 603.695 213.774 603.729C213.568 603.768 213.361 603.826 213.164 603.875C212.763 603.946 212.353 604.007 211.945 604.049C211.417 604.092 210.873 604.096 210.342 604.056C204.491 604.116 197.993 598.417 194.007 595.029C192.857 593.689 190.248 592.403 190.798 590.392C191.947 588.601 194.459 588.139 196.308 587.323C203.611 584.649 214.117 583.913 219.312 590.764C221.117 593.286 220.8 598.897 218.284 601.209L218.276 601.2Z" fill="#AE8F30"/>
<path d="M219.362 623.021C219.195 623.165 219.027 623.308 218.86 623.452C218.508 623.72 218.156 623.988 217.787 624.236C217.313 624.54 216.812 624.833 216.279 625.051C210.81 628.067 201.808 625.99 196.354 624.819C194.592 624.141 191.49 624.254 190.993 622.08C191.166 619.81 193.286 618.093 194.621 616.4C200.131 610.2 209.65 604.187 218.005 608.001C220.977 609.471 223.518 614.904 222.306 618.357C222.15 618.952 221.949 619.535 221.667 620.085C221.178 621.069 220.495 621.929 219.74 622.663C219.611 622.773 219.492 622.893 219.355 622.993L219.362 623.021Z" fill="#AE8F30"/>
<path d="M231.8 642.938C227.676 647.642 218.504 648.737 212.979 649.475C211.103 649.442 208.207 650.593 207.006 648.715C206.409 646.524 207.82 644.201 208.502 642.145C211.576 634.443 218.497 625.561 227.636 626.324C230.932 626.695 235.165 630.95 235.199 634.598C235.263 635.211 235.262 635.828 235.188 636.439C235.059 637.525 234.721 638.567 234.243 639.525C234.167 639.676 234.091 639.826 233.997 639.976C233.882 640.16 233.783 640.364 233.676 640.559C233.445 640.928 233.205 641.305 232.939 641.653C232.591 642.106 232.217 642.547 231.8 642.938Z" fill="#AE8F30"/>
<path d="M251.499 654.707C249.569 660.692 241.543 665.355 236.745 668.257C234.987 668.98 232.783 671.196 230.926 669.949C229.497 668.164 229.87 665.449 229.676 663.289C229.447 654.948 232.273 643.986 241.023 641.045C244.21 640.073 249.803 642.305 251.315 645.661C251.623 646.2 251.864 646.78 252.031 647.373C252.347 648.419 252.446 649.531 252.393 650.586C252.389 650.761 252.367 650.934 252.344 651.107C252.318 651.336 252.309 651.565 252.284 651.775C252.214 652.211 252.144 652.648 252.037 653.082C251.894 653.633 251.732 654.182 251.489 654.716L251.499 654.707Z" fill="#AE8F30"/>
<path d="M267.462 675.602C266.246 677.056 265.337 680.043 263.107 679.818C261.013 678.912 260.068 676.336 258.899 674.516C254.804 667.251 252.192 656.233 258.55 649.546C260.911 647.195 266.917 646.557 269.801 648.822C270.328 649.156 270.804 649.552 271.239 649.999C271.999 650.785 272.619 651.707 273.06 652.68C273.123 652.832 273.203 652.985 273.264 653.156C273.34 653.364 273.434 653.574 273.52 653.774C273.673 654.19 273.807 654.606 273.921 655.038C274.054 655.591 274.167 656.162 274.196 656.735C275.28 662.922 270.378 670.807 267.48 675.603L267.462 675.602Z" fill="#AE8F30"/>
<path d="M300.072 666.234C299.892 668.117 300.824 671.097 298.855 672.172C296.612 672.608 294.386 671.011 292.387 670.177C284.897 666.493 276.519 658.884 277.979 649.779C278.596 646.511 283.186 642.589 286.861 642.824C287.479 642.807 288.101 642.854 288.708 642.983C289.787 643.204 290.814 643.623 291.73 644.172C291.871 644.256 292.02 644.35 292.159 644.453C292.343 644.587 292.537 644.694 292.72 644.827C293.078 645.085 293.426 645.351 293.763 645.643C294.185 646.016 294.595 646.434 294.958 646.876C299.347 651.373 299.744 660.648 300.071 666.252L300.072 666.234Z" fill="#AE8F30"/>
<path d="M268.529 636.773C276.864 635.899 283.506 629.943 288.775 623.882C301.167 607.14 305.882 586.139 309.38 566.012C289.863 566.097 268.958 564.225 251.159 573.767C240.112 579.655 232.88 591.403 232.316 603.864C231.573 611.55 235.234 618.708 240.563 624.04C247.694 631.573 257.832 637.724 268.539 636.765L268.529 636.773ZM292.977 627.103C286.849 634.038 278.947 640.34 269.528 641.545C252.814 643.261 236.121 631.205 229.098 616.582C222.659 599.628 232.131 579.027 247.645 570.59C265.103 560.929 290.925 561.114 310.278 563.65C310.67 562.851 311.287 561.895 312.144 561.638C315.482 563.753 314.504 568.355 314.031 571.652C312.902 579.328 311.204 586.978 308.864 594.359C305.085 605.865 300.618 617.586 292.967 627.111L292.977 627.103Z" fill="#AE8F30"/>
<path d="M235.598 682.57C270.67 697.622 306.096 685.614 330.021 657.332C339.61 644.741 345.206 629.571 349.961 614.678C355.334 596.756 359.646 578.514 363.439 560.187C366.572 544.598 368.928 528.804 372.63 513.36C329.825 517.228 284.835 508.702 243.781 524.599C219.596 533.259 196.859 549.348 186.27 573.353C172.909 602.082 184.961 634.528 204.212 657.46C212.852 668.027 223.328 676.984 235.608 682.562L235.598 682.57ZM216.891 768.529C210.553 781.119 192.46 780.41 183.743 770.85C180.459 766.825 179.684 761.057 181.355 756.185C179.833 760.074 174.064 760.748 170.29 760.736C170.29 760.736 170.29 760.736 170.262 760.743C170.262 760.743 170.243 760.741 170.225 760.74C170.225 760.74 170.215 760.748 170.197 760.747C164.027 760.396 156.944 758.382 153.068 753.307C151.429 750.659 151.734 746.908 153.634 744.456C155.79 741.905 159.545 741.676 162.635 742.087C169.347 742.931 180.398 747.614 181.669 754.957C181.627 755.267 181.56 755.547 181.474 755.826C181.901 754.689 182.464 753.59 183.158 752.584C185.66 749 189.205 745.496 193.842 745.417C202.262 745.001 213.31 753.57 207.837 762.424C205.847 766.304 201.517 769.114 197.086 768.297C195.896 767.966 194.921 766.99 194.512 765.835C194.92 765.553 195.441 765.363 195.905 765.186C198.233 764.609 200.393 765.133 202.164 763.169C206.188 758.09 203.046 752.215 197.197 750.682C191.344 748.587 186.915 754.75 186.117 759.9C185.518 764.366 187.74 769.029 191.85 771.027C197.05 773.956 204.235 774.035 208.803 769.909C214.254 763.162 212.917 754.009 211.075 746.181C210.252 743.089 208.55 740.307 206.924 737.595C206.498 736.541 204.585 734.471 203.674 732.771C203.498 732.546 203.313 732.311 203.147 732.077C199.515 726.708 196.951 720.252 197.803 713.669C198.429 705.108 201.589 697.008 208.142 691.247C212.61 687.481 218.006 683.741 223.821 682.463C215.429 677.449 207.788 670.798 201.111 662.619C192.983 653.306 186.039 642.363 181.372 630.645C180.503 632.982 179.097 635.112 177.69 636.901C171.044 645.205 161.724 651.27 151.13 652.662C139.275 654.298 125.862 650.411 119.039 640.047C118.269 638.911 117.584 637.754 117.001 636.595C102.545 624.655 77.9901 644.666 94.4017 659.325C97.9984 661.781 102.572 660.372 105.82 657.977C110.72 654.217 109.66 646.522 104.523 643.487C103.361 642.671 101.984 643.34 100.807 643.682C98.6037 644.324 97.4924 646.339 95.7553 647.624C95.4598 647.878 95.0868 648.301 94.6559 648.277C94.2517 648.264 93.8403 647.984 93.5473 647.723C91.6451 645.865 92.7417 642.717 94.5603 641.208C97.4359 638.757 101.774 637.173 105.484 638.386C112.049 641.272 115.82 649.533 113.158 656.3C110.521 663.096 102.247 666.912 95.2867 665.22C91.2811 664.261 88.2037 661.153 86.1063 657.752C76.1627 640.623 98.5539 621.459 114.837 630.565C110.802 612.625 126.937 594.604 146.864 598.427C154.643 600.135 159.869 608.02 160.792 615.594C162.169 625.772 153.488 636.011 142.956 634.424C131.32 632.827 124.222 619.551 134.943 611.549C138.545 609.467 145.835 608.891 148.068 613.168C148.596 614.461 148.511 616.056 147.306 616.885C147.251 616.881 147.189 616.848 147.144 616.836C145.488 616.7 144.249 615.556 142.698 615.244C138.334 614.405 135.027 618.047 135.021 622.226C136.842 630.09 147.822 632.558 152.495 625.743C156.214 621.045 156.152 614.375 153.422 609.259C148.492 600.025 135.813 602.197 128.767 607.662C117.726 615.511 117.077 631.74 126.285 641.254C134.129 649.219 146.867 649.648 156.89 646.076C163.621 643.414 169.15 638.652 173.689 633.115C175.88 630.345 177.862 627.292 178.536 623.771C178.598 623.564 178.65 623.366 178.729 623.178C173.792 607.039 173.392 589.846 180.183 573.736C189.607 550.507 210.086 533.361 232.967 524.059C258.468 512.407 286.673 509.827 314.379 509.935C328.532 509.8 342.672 510.189 356.824 510.312C361.233 510.326 365.674 510.279 370.061 510.466C371.402 510.633 373.144 510.251 374.098 511.382C376.243 509.336 377.761 512.362 377.744 514.395C376.869 520.672 375.399 526.895 374.35 533.168C372.702 542.212 371.207 551.296 369.441 560.323C366.756 574.021 363.427 587.605 359.973 601.125C355.815 616.994 351.194 632.901 343.436 647.446C330.667 671.303 306.35 689.04 279.445 692.795C261.552 695.49 244.546 692.958 229.602 685.611C227.914 685.897 226.202 686.134 224.626 686.87C215.749 690.741 207.645 697.764 204.73 707.246C201.56 716.93 203.379 725.549 210.631 732.824C217.572 740.314 228.423 745.921 238.613 742.464C253.534 736.964 250.696 716.611 237.879 710.348C231.599 707.337 223.753 712.906 224.269 719.768C225.569 729.158 237.89 726.968 232.595 717.568C231.976 716.149 232.415 715.225 233.869 714.747C237.251 713.624 240.093 717.036 240.249 720.187C240.478 736.603 219.011 735.452 217.868 720.164C217.252 711.95 224.35 703.993 232.612 703.832C239.857 703.483 246.075 708.396 249.945 714.142C254.964 721.127 256.144 730.995 251.558 738.489C246.092 748.449 233.164 750.509 223.095 747.209C220.957 746.511 218.892 745.58 216.923 744.482C217.742 746.653 218.298 748.896 218.543 751.115C219.276 756.953 219.839 763.211 216.872 768.546L216.891 768.529Z" fill="#AE8F30"/>
<path d="M184.237 725.551C185.464 730.469 179.61 733.696 175.747 735.215C169.895 737.208 162.58 737.994 157.11 734.75C154.589 732.91 153.473 729.316 154.308 726.342C155.343 723.161 158.744 721.543 161.759 720.769C168.299 719.04 180.3 719.229 184.236 725.57L184.237 725.551Z" fill="#AE8F30"/>
<path d="M164.499 703.569C160.176 707.981 153.997 711.966 147.642 711.517C144.569 711.006 141.949 708.293 141.352 705.264C140.849 701.966 143.158 698.975 145.506 696.926C150.563 692.433 161.365 687.217 167.744 691.102C171.041 694.944 167.289 700.44 164.521 703.534L164.501 703.551L164.499 703.569Z" fill="#AE8F30"/>
<path d="M145.58 680.984C144.552 687.083 141.754 693.95 136.246 697.24C133.428 698.563 129.736 697.848 127.516 695.681C125.225 693.25 125.42 689.49 126.184 686.473C127.782 679.901 133.672 669.44 141.135 669.006C146.002 670.271 146.079 676.86 145.59 680.975L145.58 680.984Z" fill="#AE8F30"/>
<path d="M118.27 691.146C116.152 693.442 112.462 694.146 109.595 692.979C106.561 691.596 105.314 688.03 104.906 684.942C103.924 678.256 105.459 666.348 112.204 663.144C117.236 662.487 119.774 668.675 120.85 672.679C122.175 678.71 122.12 686.062 118.27 691.146Z" fill="#AE8F30"/>
<path d="M99.2853 693.267C98.1337 696.171 94.9438 698.156 91.8456 698.094C88.5192 697.886 86.0785 695.002 84.5828 692.282C81.2573 686.394 78.4285 674.724 83.5739 669.316C87.9929 666.91 92.5542 671.687 95.0064 675.023C98.4244 680.182 101.063 687.105 99.2769 693.257L99.2853 693.267Z" fill="#AE8F30"/>
<path d="M82.9228 701.391C83.6301 704.429 82.1421 707.878 79.5618 709.596C76.7041 711.33 73.0689 710.344 70.2742 708.961C64.1917 706.02 55.2067 698.042 56.3586 690.672C58.6176 686.167 65.0991 687.5 69.0289 688.849C74.7829 691.148 80.8816 695.324 82.9228 701.391Z" fill="#AE8F30"/>
<path d="M73.1383 726.534C71.1387 729.208 67.3931 729.668 64.2991 729.432C57.5477 728.981 46.2344 724.968 44.5333 717.703C44.9416 712.716 51.3695 711.494 55.5025 711.266C55.5208 711.268 55.5392 711.269 55.5673 711.262C61.7664 711.229 69.0014 712.822 73.1881 717.68C74.9822 720.23 74.8971 723.998 73.1467 726.544L73.1383 726.534Z" fill="#AE8F30"/>
<path d="M73.2588 744.259C72.5129 747.516 69.2723 749.442 66.348 750.48C59.9925 752.803 48.0286 753.694 43.5202 747.743C41.8684 742.967 47.3753 739.217 51.0624 737.353C56.7051 734.837 63.9426 733.383 69.6997 736.124C72.3762 737.728 73.8231 741.208 73.2503 744.249L73.2588 744.259Z" fill="#AE8F30"/>
<path d="M77.7964 768.406C73.1492 773.318 62.8374 779.464 56.1577 776.146C52.5238 772.609 55.803 766.801 58.2754 763.482L58.2951 763.465C62.2129 758.7 68.0263 754.19 74.3971 754.078C77.5094 754.316 80.3498 756.788 81.2092 759.763C81.9926 763.009 79.9553 766.177 77.795 768.425L77.7964 768.406Z" fill="#AE8F30"/>
<path d="M95.0655 781.731C92.2752 787.889 84.5577 797.078 77.1442 796.135C72.5662 793.99 73.7481 787.432 75.0062 783.496C74.9851 783.531 74.9823 783.567 74.9612 783.603L75.0189 783.451C77.1729 777.667 81.1786 771.509 87.1666 769.296C90.1826 768.505 93.6758 769.904 95.4615 772.443C97.2629 775.26 96.3764 778.912 95.074 781.741L95.0655 781.731Z" fill="#AE8F30"/>
<path d="M116.979 783.405C118.203 790.054 117.087 802.012 110.462 805.456C105.49 806.301 102.719 800.261 101.493 796.301C99.9437 790.308 99.7155 782.925 103.392 777.7C105.424 775.323 109.088 774.488 112 775.549C115.079 776.824 116.45 780.335 116.979 783.405Z" fill="#AE8F30"/>
<path d="M139.25 798.989C134.941 801.643 130.107 797.066 127.489 793.856L127.463 793.826C123.8 788.86 120.833 782.133 122.275 775.918C123.264 772.964 126.349 770.797 129.449 770.702C132.78 770.735 135.37 773.474 137.009 776.122C140.634 781.822 144.093 793.328 139.24 798.997L139.25 798.989Z" fill="#AE8F30"/>
<path d="M162.72 783.894C159.298 787.601 153.421 784.501 150.03 782.124C145.145 778.326 140.452 772.618 140.176 766.235C140.348 763.127 142.725 760.215 145.678 759.289C148.902 758.421 152.122 760.38 154.42 762.479C159.443 766.997 165.86 777.145 162.719 783.912L162.72 783.894Z" fill="#AE8F30"/>
<path d="M90.7393 756.873C108.503 774.204 139.124 765.309 144.97 741.319C151.204 717.303 128.702 695.109 104.862 701.658C80.4746 708.129 72.5039 739.571 90.721 756.872L90.7393 756.873ZM147.598 748.747C136.503 774.316 101.288 778.736 84.1121 756.846C67.4266 736.127 77.8954 704.406 103.564 697.673C133.713 689.405 160.281 720.224 147.58 748.746L147.598 748.747Z" fill="#AE8F30"/>
<path d="M122.863 746.14C123.445 745.642 124.001 745.113 124.531 744.555C125.004 744.03 125.442 743.483 125.844 742.915C126.208 742.363 126.546 741.8 126.857 741.225C127.141 740.639 127.417 740.043 127.657 739.426C127.87 738.816 128.054 738.213 128.211 737.599C128.354 736.929 128.469 736.266 128.539 735.59C128.59 734.93 128.622 734.27 128.617 733.607C128.594 732.942 128.525 732.283 128.427 731.631C128.306 730.931 128.148 730.229 128.025 729.786C128.004 729.702 127.973 729.626 127.943 729.532C127.736 728.871 127.48 728.235 127.207 727.597C126.89 726.928 126.534 726.275 126.197 725.743C125.968 725.376 125.775 725.011 125.593 724.62C125.562 724.544 125.531 724.468 125.5 724.392C125.476 724.344 125.453 724.278 125.438 724.239C125.378 724.051 125.319 723.862 125.26 723.673C125.156 723.592 125.061 723.502 124.967 723.412C124.192 722.708 123.517 721.902 122.732 721.206C122.266 720.802 121.78 720.415 121.272 720.064C120.686 719.66 120.089 719.283 119.461 718.949C119.407 718.927 119.372 718.906 119.328 718.875C119.328 718.875 119.328 718.875 119.32 718.865C119.033 718.769 118.744 718.692 118.447 718.605C118.123 718.507 117.779 718.425 117.454 718.345C116.793 718.193 116.13 718.078 115.472 718.01L115.435 718.007C114.521 717.919 113.612 717.895 112.699 717.908C111.85 717.936 110.988 718.008 110.149 718.146C109.514 718.264 108.878 718.399 108.257 718.573C107.624 718.773 106.991 718.992 106.381 719.258C105.818 719.519 105.269 719.836 104.747 720.165C104.032 720.607 103.35 721.089 102.751 721.587C102.229 722.035 101.732 722.513 101.26 723.02C100.778 723.554 100.322 724.099 99.9093 724.675C99.5266 725.226 99.1889 725.79 98.8682 726.373C98.8583 726.381 98.8471 726.408 98.8457 726.426C98.532 727.038 98.2634 727.662 98.0117 728.305C97.7783 728.951 97.59 729.608 97.4284 730.277C97.316 730.784 97.2318 731.284 97.1744 731.796C97.1198 732.39 97.1018 732.987 97.1022 733.585C97.1322 734.278 97.2086 734.965 97.2949 735.644C97.4376 736.428 97.5986 737.214 97.8258 737.977C98.0473 738.694 98.3068 739.395 98.6043 740.081C98.9131 740.74 99.2515 741.373 99.6278 741.991C100.039 742.63 100.481 743.244 100.96 743.842C101.425 744.384 101.929 744.892 102.443 745.392C102.987 745.866 103.542 746.314 104.109 746.734C104.713 747.14 105.337 747.528 105.984 747.863C106.551 748.145 107.13 748.401 107.721 748.631C108.322 748.833 108.933 749.027 109.539 749.174C110.246 749.321 110.954 749.448 111.675 749.531C112.334 749.581 112.995 749.613 113.658 749.609C114.333 749.577 115.01 749.509 115.689 749.423C116.332 749.316 116.97 749.162 117.591 748.988C118.289 748.765 118.981 748.514 119.666 748.217C120.154 747.987 120.615 747.727 121.078 747.45C121.708 747.047 122.302 746.622 122.88 746.16L122.863 746.14ZM131.897 745.403C129.888 748.684 127.021 751.384 123.615 753.177C119.893 755.139 115.646 756.132 111.438 755.774C108.52 755.523 105.765 754.705 103.168 753.393C100.76 752.123 98.5892 750.41 96.822 748.351C95.799 747.159 94.9054 745.838 94.1934 744.431C92.5524 741.202 91.6335 737.56 91.8835 733.924C92.1041 730.792 92.7558 727.683 94.1596 724.853C95.5211 722.094 97.418 719.679 99.5223 717.924C100.37 717.197 101.275 716.557 102.222 715.967C102.946 715.534 103.71 715.169 104.473 714.822L104.539 714.8C105.217 714.492 105.929 714.206 106.629 713.965C106.761 713.919 106.894 713.874 107.026 713.829C107.196 713.769 107.385 713.709 107.564 713.658C107.79 713.584 108.016 713.527 108.241 713.471C108.297 713.457 108.344 713.451 108.382 713.436C108.635 713.372 108.879 713.317 109.122 713.262C109.376 713.198 109.628 713.153 109.88 713.108L109.936 713.094C110.188 713.049 110.449 713.013 110.701 712.968C110.919 712.883 111.136 712.817 111.361 712.761C111.464 712.741 111.577 712.713 111.679 712.693C111.782 712.673 111.903 712.655 112.015 712.645C112.247 712.616 112.488 712.598 112.7 712.587C112.895 712.574 113.097 712.571 113.29 712.576C113.438 712.569 113.576 712.571 113.723 712.582C113.869 712.593 114.007 712.594 114.154 712.606C114.979 712.65 115.807 712.778 116.621 712.969L116.631 712.96C116.704 712.966 116.759 712.97 116.822 712.984C116.959 713.004 117.096 713.023 117.224 713.033C117.379 713.054 117.542 713.085 117.706 713.116C118.542 713.254 119.356 713.445 120.176 713.682C120.42 713.747 120.662 713.83 120.904 713.913C120.984 713.946 121.066 713.962 121.101 713.983C122.06 714.323 122.97 714.706 123.865 715.17C125.902 716.228 127.8 717.662 129.355 719.355C129.592 719.631 129.82 719.897 130.057 720.173C130.116 720.242 130.184 720.32 130.242 720.408C130.342 720.544 130.45 720.691 130.549 720.846C130.624 720.952 130.69 721.05 130.755 721.165L130.772 721.185C130.772 721.185 130.78 721.195 130.789 721.204C131.003 721.414 131.206 721.651 131.399 721.896C131.893 722.532 132.287 723.289 132.646 724.007C132.725 724.179 132.814 724.342 132.893 724.514C132.972 724.686 133.051 724.858 133.121 725.019C133.185 725.153 133.24 725.277 133.293 725.419C133.388 725.629 133.472 725.847 133.558 726.047C133.575 726.067 133.573 726.104 133.59 726.123L133.705 726.417C134.41 728.276 134.848 730.261 135 732.252C135.359 736.837 134.286 741.488 131.877 745.42L131.897 745.403Z" fill="#AE8F30"/>
<path d="M536.748 354.947C535.081 356.514 532.349 356.361 530.205 356.713C521.905 357.608 510.758 355.643 507.132 347.171C505.914 344.077 507.689 338.31 510.917 336.55C511.432 336.193 511.978 335.912 512.557 335.69C513.582 335.289 514.673 335.105 515.744 335.077C515.92 335.062 516.084 335.075 516.259 335.079C516.479 335.096 516.71 335.086 516.921 335.093C517.37 335.118 517.8 335.16 518.246 335.222C518.809 335.32 519.38 335.446 519.918 335.635C526.032 337.077 531.333 344.71 534.602 349.278C535.45 350.963 537.837 352.986 536.748 354.947Z" fill="#AE8F30"/>
<path d="M551.919 328.307C550.827 330.304 548.167 331.013 546.24 332.017C538.632 335.432 527.425 337.025 521.343 330.098C519.219 327.523 519.127 321.495 521.66 318.824C522.047 318.338 522.478 317.883 522.967 317.497C523.822 316.798 524.8 316.284 525.804 315.918C525.965 315.866 526.125 315.814 526.294 315.772C526.511 315.705 526.719 315.629 526.935 315.581C527.357 315.475 527.798 315.371 528.227 315.293C528.786 315.207 529.371 315.15 529.95 315.167C536.213 314.65 543.611 320.261 548.126 323.589C549.461 324.924 552.354 326.103 551.919 328.307Z" fill="#AE8F30"/>
<path d="M558.785 301.559C558.111 303.745 555.653 304.947 553.966 306.31C547.186 311.169 536.511 314.958 529.177 309.362C526.593 307.268 525.302 301.378 527.254 298.249C527.535 297.7 527.87 297.173 528.265 296.697C528.975 295.849 529.819 295.158 530.737 294.593C530.882 294.503 531.036 294.422 531.189 294.342C531.39 294.238 531.583 294.123 531.775 294.028C532.176 293.837 532.577 293.647 532.994 293.494C533.533 293.305 534.089 293.136 534.65 293.032C540.694 291.283 549.05 295.319 554.137 297.677C555.713 298.737 558.781 299.321 558.785 301.559Z" fill="#AE8F30"/>
<path d="M563.359 277.823C562.686 280.009 560.228 281.212 558.54 282.575C551.761 287.434 541.086 291.223 533.751 285.627C531.167 283.533 529.868 277.633 531.828 274.514C532.101 273.955 532.445 273.438 532.84 272.962C533.531 272.112 534.385 271.413 535.303 270.848C535.448 270.758 535.602 270.677 535.755 270.597C535.956 270.492 536.149 270.378 536.341 270.282C536.742 270.092 537.152 269.912 537.56 269.749C538.091 269.551 538.655 269.391 539.216 269.287C545.252 267.528 553.616 271.574 558.703 273.932C560.271 274.982 563.347 275.576 563.351 277.814L563.359 277.823Z" fill="#AE8F30"/>
<path d="M556.736 248.931C553.605 256.665 546.6 265.568 537.417 264.757C534.113 264.375 529.875 260.074 529.852 256.399C529.788 255.786 529.799 255.161 529.873 254.55C530.012 253.456 530.368 252.415 530.846 251.457C530.922 251.306 530.998 251.155 531.092 251.006C531.207 250.821 531.306 250.617 531.413 250.423C531.653 250.045 531.894 249.668 532.16 249.32C532.508 248.867 532.9 248.428 533.317 248.036C537.488 243.327 546.711 242.273 552.274 241.537C554.166 241.59 557.081 240.44 558.28 242.337C558.876 244.546 557.436 246.876 556.755 248.932L556.736 248.931Z" fill="#AE8F30"/>
<path d="M524.114 259.063C523.434 259.886 522.614 260.624 521.651 261.177C521.12 261.496 520.557 261.756 519.963 261.941C516.592 263.397 510.948 261.226 509.271 258.354C504.853 250.255 510.218 240.278 516.05 234.315C517.653 232.854 519.224 230.617 521.478 230.273C523.698 230.627 523.809 233.748 524.599 235.465C526.158 240.851 528.877 249.741 526.233 255.432C526.034 255.978 525.791 256.512 525.514 257.006C525.292 257.385 525.051 257.763 524.802 258.131C524.668 258.314 524.526 258.487 524.402 258.662C524.3 258.801 524.197 258.941 524.086 259.07L524.114 259.063Z" fill="#AE8F30"/>
<path d="M499.956 259.981C499.276 260.804 498.455 261.542 497.501 262.104C496.97 262.423 496.399 262.674 495.813 262.869C492.434 264.314 486.798 262.153 485.121 259.281C480.703 251.182 486.068 241.206 491.9 235.243C493.503 233.782 495.074 231.544 497.328 231.201C499.548 231.554 499.659 234.675 500.459 236.384C502.018 241.77 504.728 250.65 502.093 256.351C501.894 256.897 501.643 257.421 501.374 257.925C501.152 258.304 500.911 258.682 500.662 259.05C500.538 259.224 500.386 259.406 500.262 259.581C500.16 259.72 500.049 259.85 499.946 259.989L499.956 259.981Z" fill="#AE8F30"/>
<path d="M476.149 264.196C475.693 264.621 475.187 264.97 474.648 265.278C471.624 267.377 465.671 266.361 463.457 263.881C457.523 256.826 460.791 245.981 465.34 238.981C466.625 237.228 467.719 234.715 469.859 233.939C472.103 233.844 472.829 236.882 473.947 238.404C476.551 243.372 480.973 251.536 479.512 257.648C479.431 258.231 479.287 258.782 479.126 259.331C478.982 259.762 478.823 260.155 478.645 260.565C478.556 260.761 478.439 260.964 478.359 261.17C478.283 261.32 478.216 261.481 478.14 261.632C477.626 262.568 476.969 263.457 476.149 264.196Z" fill="#AE8F30"/>
<path d="M455.491 273.198C453.261 276.122 447.292 277.001 444.418 275.327C436.587 270.448 436.347 259.123 438.49 251.073C439.171 249.017 439.426 246.283 441.228 244.874C443.323 244.086 444.961 246.752 446.506 247.855C450.525 251.78 457.256 258.168 457.762 264.44C457.857 265.009 457.905 265.584 457.917 266.156C457.91 266.606 457.886 267.037 457.843 267.485C457.826 267.705 457.773 267.922 457.746 268.15C457.733 268.314 457.701 268.496 457.67 268.66C457.479 269.713 457.132 270.764 456.581 271.716C456.272 272.254 455.902 272.76 455.482 273.207L455.491 273.198Z" fill="#AE8F30"/>
<path d="M440.395 284.096C440.079 287.755 435.506 291.697 432.172 291.82C422.941 291.888 416.692 282.453 414.197 274.482C413.668 272.37 412.427 269.927 413.208 267.786C414.56 265.993 417.373 267.377 419.262 267.484C424.752 268.659 433.858 270.459 437.637 275.48C438.037 275.906 438.37 276.373 438.684 276.839C438.922 277.217 439.132 277.601 439.332 277.994C439.437 278.195 439.513 278.403 439.617 278.605C439.697 278.758 439.76 278.91 439.83 279.072C440.233 280.061 440.502 281.131 440.546 282.239C440.581 282.858 440.525 283.471 440.423 284.089L440.395 284.096Z" fill="#AE8F30"/>
<path d="M429.275 308.2C428.892 308.631 428.449 309.011 427.981 309.344C427.144 309.943 426.21 310.35 425.242 310.617C425.091 310.661 424.932 310.695 424.773 310.729C424.567 310.768 424.36 310.826 424.163 310.875C423.762 310.946 423.352 311.007 422.944 311.049C422.416 311.092 421.872 311.096 421.341 311.056C415.49 311.116 408.992 305.417 405.006 302.029C403.856 300.689 401.247 299.403 401.797 297.392C402.946 295.601 405.458 295.139 407.307 294.323C414.61 291.649 425.116 290.913 430.311 297.764C432.116 300.286 431.799 305.897 429.283 308.209L429.275 308.2Z" fill="#AE8F30"/>
<path d="M430.361 330.021C430.194 330.165 430.026 330.308 429.859 330.452C429.507 330.72 429.155 330.988 428.786 331.236C428.312 331.54 427.811 331.833 427.278 332.05C421.809 335.067 412.807 332.99 407.353 331.818C405.591 331.141 402.489 331.254 401.992 329.08C402.165 326.809 404.285 325.093 405.62 323.4C411.13 317.2 420.649 311.187 429.004 315.001C431.976 316.471 434.517 321.904 433.305 325.356C433.149 325.952 432.948 326.535 432.666 327.085C432.177 328.069 431.494 328.929 430.739 329.663C430.61 329.773 430.491 329.893 430.354 329.993L430.361 330.021Z" fill="#AE8F30"/>
<path d="M442.799 349.938C438.675 354.641 429.503 355.737 423.978 356.475C422.102 356.442 419.206 357.593 418.005 355.715C417.408 353.524 418.819 351.201 419.501 349.145C422.575 341.443 429.496 332.561 438.635 333.324C441.931 333.695 446.164 337.949 446.198 341.598C446.262 342.211 446.261 342.828 446.187 343.439C446.058 344.525 445.72 345.567 445.242 346.525C445.166 346.675 445.09 346.826 444.996 346.976C444.881 347.16 444.782 347.364 444.675 347.559C444.444 347.928 444.204 348.305 443.938 348.653C443.59 349.106 443.216 349.547 442.799 349.938Z" fill="#AE8F30"/>
<path d="M462.498 361.707C460.568 367.692 452.542 372.355 447.744 375.257C445.986 375.98 443.782 378.196 441.925 376.949C440.496 375.164 440.869 372.449 440.675 370.289C440.446 361.948 443.272 350.986 452.022 348.045C455.209 347.073 460.802 349.305 462.314 352.661C462.622 353.2 462.863 353.78 463.03 354.373C463.346 355.419 463.445 356.531 463.392 357.586C463.388 357.761 463.366 357.934 463.343 358.107C463.317 358.336 463.308 358.565 463.283 358.775C463.213 359.211 463.143 359.648 463.036 360.082C462.893 360.633 462.731 361.182 462.488 361.716L462.498 361.707Z" fill="#AE8F30"/>
<path d="M478.461 382.602C477.245 384.056 476.336 387.043 474.106 386.818C472.012 385.912 471.067 383.336 469.898 381.515C465.803 374.251 463.191 363.233 469.549 356.546C471.91 354.194 477.916 353.557 480.8 355.821C481.327 356.156 481.803 356.552 482.238 356.999C482.998 357.785 483.618 358.707 484.059 359.68C484.122 359.832 484.202 359.985 484.263 360.155C484.339 360.364 484.433 360.574 484.519 360.773C484.672 361.19 484.806 361.606 484.92 362.038C485.053 362.591 485.166 363.162 485.195 363.735C486.279 369.922 481.377 377.807 478.479 382.603L478.461 382.602Z" fill="#AE8F30"/>
<path d="M511.071 373.234C510.891 375.117 511.823 378.097 509.854 379.172C507.611 379.608 505.385 378.011 503.386 377.177C495.896 373.493 487.518 365.884 488.978 356.779C489.595 353.511 494.185 349.589 497.86 349.824C498.478 349.807 499.1 349.854 499.707 349.983C500.786 350.204 501.813 350.623 502.729 351.171C502.87 351.256 503.019 351.35 503.158 351.453C503.342 351.587 503.536 351.693 503.719 351.827C504.077 352.085 504.425 352.351 504.762 352.643C505.184 353.016 505.594 353.434 505.957 353.876C510.346 358.373 510.743 367.647 511.07 373.252L511.071 373.234Z" fill="#AE8F30"/>
<path d="M479.529 343.773C487.863 342.899 494.505 336.943 499.774 330.882C512.166 314.14 516.881 293.14 520.379 273.012C500.862 273.097 479.957 271.225 462.158 280.767C451.111 286.655 443.879 298.404 443.315 310.864C442.572 318.551 446.233 325.708 451.562 331.041C458.693 338.573 468.831 344.724 479.538 343.765L479.529 343.773ZM503.976 334.103C497.848 341.038 489.946 347.34 480.527 348.545C463.814 350.262 447.12 338.205 440.097 323.582C433.658 306.628 443.13 286.027 458.644 277.59C476.102 267.929 501.924 268.114 521.277 270.65C521.669 269.852 522.286 268.895 523.143 268.638C526.481 270.753 525.503 275.356 525.03 278.652C523.901 286.328 522.203 293.979 519.863 301.359C516.084 312.865 511.617 324.586 503.966 334.111L503.976 334.103Z" fill="#AE8F30"/>
<path d="M446.597 389.57C481.669 404.622 517.095 392.614 541.02 364.332C550.609 351.741 556.205 336.571 560.96 321.678C566.333 303.756 570.645 285.514 574.438 267.187C577.571 251.598 579.927 235.804 583.629 220.36C540.824 224.228 495.834 215.702 454.78 231.599C430.595 240.259 407.858 256.348 397.269 280.353C383.908 309.082 395.96 341.528 415.211 364.46C423.851 375.027 434.327 383.984 446.607 389.562L446.597 389.57ZM427.891 475.529C421.552 488.119 403.459 487.41 394.742 477.85C391.458 473.825 390.683 468.057 392.354 463.185C390.832 467.074 385.063 467.748 381.289 467.736C381.289 467.736 381.289 467.736 381.261 467.743C381.261 467.743 381.242 467.741 381.224 467.74C381.224 467.74 381.214 467.748 381.196 467.747C375.026 467.396 367.943 465.382 364.067 460.307C362.428 457.659 362.733 453.908 364.633 451.456C366.789 448.905 370.544 448.676 373.634 449.087C380.346 449.931 391.397 454.614 392.668 461.957C392.626 462.267 392.559 462.547 392.473 462.826C392.9 461.689 393.463 460.59 394.157 459.584C396.659 456 400.204 452.496 404.841 452.417C413.261 452.001 424.309 460.57 418.836 469.424C416.846 473.304 412.516 476.114 408.085 475.297C406.895 474.966 405.92 473.99 405.511 472.835C405.919 472.553 406.44 472.363 406.904 472.186C409.232 471.609 411.392 472.133 413.163 470.169C417.187 465.09 414.045 459.215 408.196 457.682C402.343 455.587 397.914 461.75 397.116 466.9C396.517 471.366 398.739 476.029 402.849 478.027C408.049 480.956 415.234 481.035 419.802 476.909C425.253 470.162 423.917 461.009 422.074 453.181C421.251 450.089 419.549 447.307 417.923 444.595C417.498 443.541 415.584 441.471 414.673 439.771C414.497 439.546 414.312 439.311 414.146 439.077C410.514 433.708 407.95 427.252 408.802 420.669C409.428 412.108 412.588 404.008 419.141 398.247C423.609 394.481 429.005 390.741 434.82 389.463C426.428 384.449 418.787 377.798 412.11 369.619C403.982 360.306 397.038 349.363 392.371 337.645C391.502 339.982 390.096 342.112 388.689 343.901C382.043 352.205 372.723 358.27 362.129 359.662C350.274 361.298 336.861 357.411 330.038 347.047C329.268 345.911 328.583 344.754 328 343.595C313.544 331.655 288.989 351.666 305.401 366.325C308.997 368.781 313.571 367.372 316.819 364.977C321.719 361.217 320.659 353.522 315.522 350.487C314.36 349.671 312.983 350.34 311.806 350.682C309.603 351.324 308.491 353.339 306.754 354.624C306.459 354.878 306.086 355.301 305.655 355.277C305.251 355.264 304.839 354.984 304.546 354.723C302.644 352.865 303.741 349.717 305.559 348.208C308.435 345.757 312.773 344.173 316.483 345.386C323.048 348.272 326.819 356.533 324.157 363.3C321.52 370.096 313.246 373.912 306.286 372.22C302.28 371.261 299.203 368.153 297.105 364.752C287.162 347.623 309.553 328.459 325.836 337.565C321.801 319.625 337.936 301.604 357.863 305.427C365.642 307.135 370.868 315.02 371.791 322.594C373.168 332.772 364.487 343.011 353.955 341.424C342.319 339.827 335.221 326.551 345.942 318.549C349.544 316.467 356.834 315.891 359.067 320.168C359.595 321.461 359.51 323.056 358.305 323.885C358.25 323.881 358.188 323.848 358.143 323.836C356.487 323.7 355.248 322.556 353.698 322.244C349.333 321.405 346.026 325.047 346.02 329.226C347.841 337.09 358.821 339.558 363.494 332.743C367.213 328.045 367.151 321.375 364.421 316.259C359.491 307.025 346.812 309.197 339.766 314.662C328.725 322.511 328.076 338.74 337.284 348.254C345.128 356.219 357.866 356.648 367.889 353.076C374.621 350.414 380.149 345.652 384.688 340.115C386.879 337.345 388.861 334.292 389.535 330.771C389.597 330.564 389.649 330.366 389.728 330.178C384.791 314.039 384.391 296.846 391.182 280.736C400.606 257.507 421.085 240.361 443.966 231.059C469.467 219.407 497.672 216.827 525.378 216.935C539.531 216.8 553.671 217.189 567.823 217.312C572.232 217.326 576.673 217.279 581.06 217.466C582.401 217.633 584.143 217.251 585.097 218.382C587.242 216.336 588.76 219.362 588.743 221.395C587.868 227.672 586.398 233.895 585.349 240.168C583.701 249.212 582.206 258.296 580.44 267.323C577.755 281.021 574.426 294.605 570.972 308.125C566.814 323.994 562.193 339.901 554.435 354.446C541.666 378.303 517.349 396.04 490.444 399.795C472.551 402.49 455.545 399.958 440.601 392.611C438.913 392.897 437.201 393.134 435.625 393.87C426.748 397.741 418.644 404.764 415.729 414.246C412.559 423.93 414.378 432.549 421.63 439.824C428.571 447.314 439.422 452.921 449.612 449.464C464.533 443.964 461.695 423.611 448.878 417.348C442.598 414.337 434.752 419.906 435.268 426.768C436.568 436.158 448.889 433.968 443.594 424.568C442.975 423.149 443.414 422.225 444.868 421.747C448.25 420.624 451.092 424.036 451.248 427.187C451.477 443.603 430.01 442.452 428.867 427.164C428.251 418.95 435.349 410.993 443.611 410.832C450.856 410.483 457.074 415.396 460.944 421.142C465.963 428.127 467.143 437.995 462.557 445.489C457.091 455.449 444.164 457.509 434.094 454.209C431.956 453.511 429.891 452.58 427.922 451.482C428.741 453.653 429.297 455.896 429.542 458.115C430.275 463.953 430.838 470.211 427.871 475.546L427.891 475.529Z" fill="#AE8F30"/>
<path d="M395.236 432.551C396.463 437.469 390.609 440.696 386.746 442.215C380.894 444.208 373.579 444.994 368.109 441.75C365.588 439.909 364.472 436.316 365.307 433.342C366.342 430.161 369.743 428.543 372.758 427.769C379.298 426.04 391.299 426.229 395.235 432.569L395.236 432.551Z" fill="#AE8F30"/>
<path d="M375.499 410.569C371.175 414.981 364.997 418.966 358.641 418.517C355.568 418.006 352.948 415.293 352.351 412.264C351.848 408.966 354.157 405.975 356.505 403.926C361.562 399.433 372.364 394.217 378.743 398.102C382.04 401.944 378.288 407.44 375.52 410.534L375.5 410.551L375.499 410.569Z" fill="#AE8F30"/>
<path d="M356.579 387.984C355.551 394.083 352.753 400.95 347.245 404.24C344.427 405.563 340.735 404.848 338.515 402.681C336.224 400.25 336.419 396.49 337.183 393.473C338.781 386.901 344.671 376.44 352.134 376.006C357.001 377.271 357.078 383.86 356.589 387.975L356.579 387.984Z" fill="#AE8F30"/>
<path d="M329.27 398.146C327.151 400.442 323.461 401.146 320.594 399.979C317.56 398.596 316.313 395.03 315.905 391.942C314.923 385.256 316.458 373.348 323.204 370.144C328.235 369.487 330.773 375.675 331.849 379.679C333.174 385.71 333.119 393.062 329.27 398.146Z" fill="#AE8F30"/>
<path d="M310.284 400.267C309.133 403.171 305.943 405.156 302.845 405.094C299.518 404.886 297.078 402.002 295.582 399.282C292.256 393.394 289.428 381.724 294.573 376.316C298.992 373.91 303.553 378.686 306.005 382.023C309.423 387.182 312.062 394.105 310.276 400.257L310.284 400.267Z" fill="#AE8F30"/>
<path d="M293.922 408.391C294.629 411.429 293.141 414.878 290.561 416.596C287.703 418.33 284.068 417.344 281.273 415.961C275.191 413.02 266.206 405.042 267.358 397.672C269.617 393.167 276.098 394.5 280.028 395.849C285.782 398.148 291.881 402.324 293.922 408.391Z" fill="#AE8F30"/>
<path d="M284.137 433.534C282.138 436.208 278.392 436.668 275.298 436.431C268.547 435.981 257.233 431.968 255.532 424.702C255.941 419.716 262.369 418.494 266.502 418.266C266.52 418.267 266.538 418.269 266.566 418.262C272.765 418.229 280 419.821 284.187 424.68C285.981 427.23 285.896 430.998 284.146 433.544L284.137 433.534Z" fill="#AE8F30"/>
<path d="M284.258 451.259C283.512 454.516 280.271 456.442 277.347 457.48C270.992 459.803 259.028 460.694 254.519 454.743C252.867 449.967 258.374 446.217 262.061 444.353C267.704 441.837 274.942 440.383 280.699 443.124C283.375 444.728 284.822 448.208 284.249 451.249L284.258 451.259Z" fill="#AE8F30"/>
<path d="M288.795 475.406C284.148 480.318 273.836 486.464 267.157 483.146C263.523 479.609 266.802 473.801 269.274 470.482L269.294 470.465C273.212 465.7 279.025 461.19 285.396 461.078C288.508 461.316 291.349 463.788 292.208 466.763C292.992 470.009 290.954 473.177 288.794 475.425L288.795 475.406Z" fill="#AE8F30"/>
<path d="M306.065 488.731C303.274 494.889 295.557 504.078 288.143 503.135C283.565 500.99 284.747 494.432 286.005 490.495C285.984 490.531 285.981 490.567 285.96 490.603L286.018 490.45C288.172 484.667 292.178 478.509 298.166 476.296C301.182 475.504 304.675 476.904 306.461 479.443C308.262 482.26 307.375 485.912 306.073 488.74L306.065 488.731Z" fill="#AE8F30"/>
<path d="M327.978 490.405C329.202 497.054 328.086 509.012 321.461 512.456C316.489 513.301 313.719 507.261 312.492 503.301C310.943 497.308 310.715 489.925 314.391 484.7C316.423 482.323 320.087 481.488 322.999 482.548C326.078 483.824 327.449 487.335 327.978 490.405Z" fill="#AE8F30"/>
<path d="M350.249 505.989C345.94 508.643 341.106 504.066 338.488 500.856L338.462 500.826C334.799 495.86 331.832 489.133 333.274 482.918C334.263 479.964 337.348 477.796 340.448 477.702C343.779 477.735 346.369 480.474 348.008 483.122C351.633 488.822 355.092 500.328 350.239 505.997L350.249 505.989Z" fill="#AE8F30"/>
<path d="M373.719 490.894C370.297 494.601 364.42 491.501 361.029 489.124C356.144 485.326 351.451 479.619 351.175 473.235C351.347 470.127 353.724 467.215 356.677 466.289C359.901 465.421 363.121 467.38 365.419 469.48C370.442 473.997 376.859 484.145 373.718 490.912L373.719 490.894Z" fill="#AE8F30"/>
<path d="M301.738 463.873C319.502 481.204 350.123 472.309 355.969 448.319C362.203 424.304 339.701 402.109 315.861 408.658C291.474 415.129 283.503 446.571 301.72 463.872L301.738 463.873ZM358.597 455.747C347.502 481.316 312.287 485.736 295.111 463.846C278.426 443.127 288.894 411.406 314.563 404.674C344.712 396.405 371.28 427.225 358.579 455.746L358.597 455.747Z" fill="#AE8F30"/>
<path d="M333.862 453.14C334.444 452.642 335 452.113 335.53 451.555C336.003 451.03 336.441 450.483 336.843 449.915C337.208 449.363 337.545 448.8 337.856 448.225C338.14 447.639 338.416 447.043 338.656 446.426C338.869 445.816 339.053 445.213 339.21 444.599C339.353 443.929 339.468 443.266 339.538 442.59C339.589 441.93 339.621 441.27 339.616 440.607C339.593 439.942 339.524 439.283 339.426 438.631C339.305 437.931 339.147 437.229 339.024 436.786C339.003 436.702 338.972 436.626 338.942 436.532C338.735 435.871 338.479 435.235 338.206 434.597C337.889 433.928 337.533 433.275 337.196 432.743C336.967 432.376 336.774 432.011 336.592 431.62C336.561 431.544 336.53 431.468 336.499 431.392C336.475 431.344 336.452 431.278 336.437 431.239C336.377 431.051 336.318 430.862 336.259 430.673C336.155 430.592 336.06 430.502 335.966 430.412C335.191 429.708 334.516 428.902 333.731 428.206C333.265 427.802 332.779 427.415 332.271 427.064C331.685 426.66 331.088 426.283 330.46 425.949C330.406 425.927 330.371 425.906 330.327 425.875C330.327 425.875 330.327 425.875 330.319 425.865C330.032 425.769 329.743 425.692 329.446 425.605C329.122 425.507 328.778 425.425 328.453 425.345C327.792 425.193 327.129 425.078 326.471 425.01L326.434 425.007C325.52 424.919 324.611 424.895 323.698 424.908C322.849 424.936 321.987 425.008 321.148 425.146C320.513 425.264 319.877 425.399 319.256 425.573C318.623 425.773 317.99 425.992 317.38 426.258C316.817 426.519 316.268 426.836 315.746 427.165C315.031 427.607 314.349 428.089 313.75 428.587C313.228 429.035 312.731 429.513 312.259 430.02C311.777 430.554 311.321 431.099 310.908 431.675C310.526 432.226 310.188 432.79 309.867 433.373C309.857 433.381 309.846 433.408 309.845 433.426C309.531 434.038 309.262 434.662 309.011 435.305C308.777 435.951 308.589 436.608 308.427 437.277C308.315 437.784 308.231 438.284 308.173 438.796C308.119 439.39 308.101 439.987 308.101 440.585C308.131 441.278 308.208 441.965 308.294 442.644C308.437 443.428 308.598 444.214 308.825 444.977C309.046 445.694 309.306 446.395 309.603 447.081C309.912 447.74 310.25 448.373 310.627 448.991C311.038 449.63 311.48 450.244 311.959 450.842C312.424 451.384 312.928 451.892 313.442 452.392C313.986 452.866 314.541 453.314 315.108 453.734C315.712 454.14 316.336 454.528 316.983 454.863C317.55 455.145 318.129 455.401 318.72 455.631C319.321 455.833 319.932 456.027 320.538 456.174C321.245 456.321 321.953 456.448 322.674 456.531C323.334 456.581 323.994 456.613 324.657 456.609C325.332 456.577 326.009 456.509 326.688 456.423C327.331 456.316 327.969 456.162 328.59 455.988C329.288 455.765 329.98 455.514 330.665 455.217C331.153 454.987 331.614 454.727 332.077 454.45C332.707 454.047 333.301 453.622 333.879 453.16L333.862 453.14ZM342.896 452.403C340.887 455.684 338.02 458.384 334.614 460.177C330.892 462.139 326.645 463.132 322.437 462.774C319.519 462.523 316.764 461.705 314.167 460.393C311.759 459.123 309.588 457.41 307.821 455.351C306.798 454.159 305.904 452.838 305.192 451.431C303.551 448.202 302.633 444.56 302.882 440.924C303.103 437.792 303.755 434.683 305.159 431.853C306.52 429.094 308.417 426.679 310.521 424.924C311.369 424.197 312.274 423.557 313.221 422.967C313.945 422.534 314.709 422.169 315.472 421.822L315.538 421.8C316.216 421.492 316.928 421.206 317.628 420.965C317.76 420.919 317.893 420.874 318.025 420.829C318.195 420.769 318.384 420.709 318.563 420.658C318.789 420.584 319.015 420.527 319.24 420.471C319.296 420.457 319.343 420.451 319.381 420.436C319.634 420.372 319.878 420.317 320.121 420.262C320.375 420.198 320.627 420.153 320.879 420.108L320.935 420.094C321.187 420.049 321.448 420.013 321.7 419.968C321.918 419.883 322.135 419.817 322.36 419.761C322.463 419.741 322.576 419.713 322.678 419.693C322.781 419.673 322.902 419.655 323.014 419.645C323.246 419.616 323.487 419.598 323.699 419.587C323.894 419.574 324.096 419.571 324.289 419.576C324.437 419.569 324.575 419.571 324.722 419.582C324.868 419.593 325.006 419.594 325.153 419.606C325.978 419.65 326.806 419.778 327.62 419.969L327.63 419.96C327.703 419.966 327.758 419.97 327.822 419.984C327.958 420.004 328.095 420.023 328.223 420.033C328.378 420.054 328.541 420.085 328.705 420.116C329.541 420.254 330.355 420.445 331.175 420.682C331.419 420.747 331.661 420.83 331.903 420.913C331.983 420.946 332.065 420.962 332.1 420.983C333.06 421.323 333.969 421.706 334.864 422.17C336.901 423.228 338.799 424.662 340.354 426.355C340.591 426.631 340.819 426.897 341.056 427.173C341.115 427.242 341.183 427.32 341.241 427.408C341.341 427.544 341.449 427.691 341.548 427.846C341.623 427.952 341.689 428.05 341.754 428.165L341.771 428.185C341.771 428.185 341.779 428.195 341.788 428.204C342.002 428.414 342.205 428.651 342.398 428.896C342.892 429.532 343.286 430.289 343.645 431.007C343.724 431.179 343.813 431.342 343.892 431.514C343.971 431.686 344.05 431.858 344.12 432.019C344.184 432.153 344.239 432.277 344.292 432.419C344.387 432.629 344.471 432.847 344.558 433.047C344.574 433.067 344.572 433.104 344.589 433.123L344.704 433.417C345.409 435.276 345.847 437.261 345.999 439.252C346.358 443.837 345.285 448.488 342.876 452.42L342.896 452.403Z" fill="#AE8F30"/>
</svg>
