<svg width="1444" height="1054" viewBox="0 0 1444 1054" fill="none" xmlns="http://www.w3.org/2000/svg">
<path d="M0.0148926 1041.39C0.0148926 1041.39 221.238 955.153 404.327 937.345C600.883 918.227 776.827 1010.84 980.827 1041.35C1169.33 1069.53 1443.81 1041.35 1443.81 1041.35V24.8944C1443.81 24.8944 1316.03 128.375 1152.7 140.718C751.963 171.001 266.015 -117.605 0.0148926 55.8945V1041.39Z" fill="#E48423"/>
<path d="M339.38 667.715C337.649 669.343 334.811 669.183 332.584 669.549C323.962 670.478 312.382 668.437 308.616 659.637C307.351 656.423 309.195 650.433 312.548 648.604C313.083 648.233 313.651 647.942 314.252 647.711C315.316 647.295 316.45 647.104 317.562 647.074C317.745 647.059 317.916 647.072 318.097 647.076C318.325 647.094 318.565 647.083 318.785 647.091C319.251 647.117 319.698 647.16 320.161 647.224C320.746 647.326 321.339 647.458 321.898 647.654C328.249 649.152 333.755 657.08 337.152 661.825C338.032 663.576 340.511 665.678 339.38 667.715Z" fill="#B05C17"/>
<path d="M355.139 640.042C354.005 642.117 351.242 642.853 349.24 643.895C341.337 647.443 329.695 649.098 323.378 641.902C321.171 639.228 321.076 632.965 323.707 630.192C324.109 629.687 324.557 629.214 325.065 628.813C325.953 628.087 326.969 627.552 328.012 627.173C328.179 627.119 328.345 627.064 328.521 627.02C328.746 626.952 328.963 626.872 329.186 626.823C329.625 626.713 330.083 626.604 330.529 626.523C331.11 626.434 331.717 626.375 332.318 626.392C338.825 625.856 346.509 631.684 351.2 635.141C352.586 636.528 355.591 637.752 355.139 640.042Z" fill="#B05C17"/>
<path d="M362.271 612.257C361.572 614.527 359.018 615.777 357.265 617.192C350.223 622.24 339.134 626.176 331.515 620.362C328.831 618.187 327.491 612.069 329.518 608.819C329.81 608.248 330.158 607.701 330.568 607.206C331.305 606.325 332.183 605.608 333.136 605.021C333.287 604.927 333.446 604.844 333.605 604.76C333.815 604.652 334.015 604.533 334.214 604.433C334.631 604.236 335.047 604.038 335.48 603.88C336.04 603.683 336.618 603.508 337.2 603.399C343.479 601.583 352.159 605.775 357.443 608.225C359.08 609.325 362.267 609.932 362.271 612.257Z" fill="#B05C17"/>
<path d="M367.022 587.601C366.323 589.872 363.769 591.121 362.016 592.537C354.974 597.585 343.885 601.52 336.266 595.707C333.582 593.532 332.233 587.403 334.269 584.163C334.552 583.582 334.909 583.045 335.319 582.551C336.037 581.668 336.925 580.942 337.878 580.355C338.029 580.261 338.188 580.178 338.348 580.094C338.557 579.986 338.757 579.867 338.956 579.768C339.373 579.57 339.798 579.383 340.222 579.214C340.774 579.007 341.36 578.842 341.942 578.733C348.213 576.907 356.901 581.109 362.185 583.559C363.814 584.649 367.009 585.266 367.013 587.591L367.022 587.601Z" fill="#B05C17"/>
<path d="M360.141 557.588C356.888 565.622 349.611 574.87 340.073 574.027C336.641 573.631 332.238 569.163 332.214 565.345C332.148 564.709 332.159 564.059 332.237 563.425C332.381 562.288 332.75 561.207 333.247 560.212C333.326 560.055 333.405 559.898 333.503 559.743C333.623 559.552 333.725 559.339 333.836 559.137C334.086 558.745 334.336 558.353 334.612 557.992C334.973 557.522 335.381 557.065 335.814 556.658C340.147 551.767 349.728 550.672 355.505 549.908C357.472 549.962 360.499 548.768 361.745 550.738C362.364 553.033 360.868 555.453 360.16 557.589L360.141 557.588Z" fill="#B05C17"/>
<path d="M326.254 568.113C325.548 568.968 324.696 569.735 323.696 570.309C323.144 570.64 322.559 570.911 321.942 571.103C318.441 572.614 312.578 570.359 310.836 567.376C306.246 558.963 311.82 548.6 317.878 542.406C319.543 540.888 321.174 538.564 323.516 538.207C325.822 538.574 325.938 541.816 326.758 543.6C328.378 549.194 331.202 558.429 328.455 564.341C328.249 564.908 327.997 565.463 327.709 565.977C327.478 566.37 327.228 566.762 326.969 567.144C326.83 567.335 326.683 567.515 326.554 567.696C326.447 567.841 326.341 567.986 326.225 568.12L326.254 568.113Z" fill="#B05C17"/>
<path d="M301.162 569.067C300.456 569.922 299.603 570.689 298.612 571.273C298.06 571.604 297.467 571.865 296.858 572.067C293.348 573.568 287.494 571.323 285.752 568.34C281.162 559.927 286.735 549.564 292.794 543.37C294.459 541.852 296.09 539.528 298.432 539.171C300.738 539.539 300.854 542.78 301.684 544.556C303.304 550.15 306.119 559.374 303.381 565.296C303.176 565.864 302.914 566.408 302.635 566.932C302.404 567.326 302.154 567.718 301.895 568.1C301.767 568.281 301.609 568.47 301.48 568.652C301.374 568.796 301.258 568.931 301.151 569.076L301.162 569.067Z" fill="#B05C17"/>
<path d="M276.429 573.445C275.955 573.887 275.43 574.249 274.87 574.569C271.729 576.749 265.545 575.694 263.246 573.118C257.081 565.789 260.476 554.524 265.201 547.252C266.536 545.431 267.672 542.821 269.895 542.015C272.227 541.916 272.981 545.072 274.142 546.653C276.846 551.814 281.44 560.294 279.923 566.644C279.838 567.249 279.689 567.821 279.521 568.392C279.372 568.84 279.207 569.248 279.022 569.674C278.93 569.877 278.808 570.088 278.725 570.301C278.646 570.458 278.576 570.625 278.497 570.781C277.964 571.755 277.281 572.678 276.429 573.445Z" fill="#B05C17"/>
<path d="M254.973 582.796C252.656 585.833 246.455 586.746 243.47 585.007C235.335 579.939 235.086 568.175 237.312 559.813C238.02 557.677 238.284 554.838 240.156 553.374C242.332 552.555 244.034 555.324 245.639 556.47C249.814 560.548 256.805 567.184 257.331 573.699C257.43 574.29 257.48 574.887 257.492 575.481C257.485 575.949 257.46 576.396 257.415 576.861C257.398 577.09 257.342 577.315 257.315 577.552C257.301 577.723 257.268 577.912 257.236 578.082C257.038 579.176 256.677 580.267 256.104 581.257C255.784 581.816 255.4 582.341 254.962 582.805L254.973 582.796Z" fill="#B05C17"/>
<path d="M239.291 594.118C238.962 597.918 234.212 602.013 230.749 602.14C221.161 602.212 214.669 592.41 212.077 584.131C211.528 581.937 210.239 579.399 211.049 577.175C212.454 575.312 215.376 576.75 217.338 576.862C223.041 578.081 232.501 579.951 236.426 585.167C236.841 585.61 237.187 586.095 237.513 586.579C237.761 586.971 237.979 587.37 238.187 587.778C238.295 587.988 238.374 588.204 238.483 588.413C238.566 588.572 238.631 588.73 238.704 588.899C239.123 589.925 239.402 591.037 239.448 592.188C239.484 592.832 239.426 593.468 239.32 594.11L239.291 594.118Z" fill="#B05C17"/>
<path d="M227.739 619.155C227.341 619.603 226.881 619.998 226.395 620.344C225.525 620.966 224.556 621.389 223.549 621.666C223.393 621.712 223.228 621.747 223.062 621.782C222.849 621.823 222.634 621.883 222.429 621.934C222.012 622.008 221.587 622.071 221.162 622.115C220.614 622.159 220.049 622.164 219.498 622.122C213.42 622.184 206.67 616.265 202.529 612.745C201.335 611.353 198.625 610.017 199.195 607.928C200.389 606.068 202.999 605.588 204.919 604.74C212.505 601.962 223.419 601.198 228.815 608.315C230.691 610.935 230.361 616.763 227.748 619.165L227.739 619.155Z" fill="#B05C17"/>
<path d="M228.867 641.822C228.693 641.972 228.519 642.121 228.345 642.27C227.979 642.548 227.613 642.827 227.23 643.084C226.738 643.4 226.217 643.705 225.664 643.931C219.983 647.064 210.631 644.906 204.966 643.69C203.136 642.986 199.913 643.103 199.397 640.845C199.577 638.486 201.779 636.703 203.166 634.944C208.89 628.504 218.778 622.258 227.456 626.22C230.544 627.747 233.183 633.391 231.924 636.977C231.762 637.596 231.553 638.202 231.261 638.772C230.752 639.795 230.043 640.688 229.258 641.451C229.125 641.565 229.001 641.689 228.859 641.793L228.867 641.822Z" fill="#B05C17"/>
<path d="M241.788 662.513C237.503 667.398 227.976 668.536 222.236 669.303C220.288 669.269 217.279 670.464 216.032 668.514C215.412 666.238 216.878 663.825 217.586 661.688C220.779 653.688 227.968 644.462 237.462 645.254C240.885 645.639 245.282 650.059 245.318 653.849C245.384 654.485 245.383 655.126 245.306 655.761C245.172 656.889 244.822 657.972 244.325 658.967C244.246 659.123 244.167 659.28 244.069 659.435C243.949 659.627 243.847 659.839 243.736 660.041C243.496 660.424 243.246 660.816 242.97 661.178C242.609 661.648 242.22 662.106 241.788 662.513Z" fill="#B05C17"/>
<path d="M262.249 674.737C260.244 680.954 251.907 685.798 246.924 688.813C245.097 689.563 242.808 691.865 240.879 690.57C239.394 688.716 239.782 685.896 239.58 683.652C239.342 674.988 242.278 663.601 251.367 660.545C254.677 659.536 260.488 661.854 262.058 665.34C262.378 665.9 262.629 666.503 262.802 667.119C263.13 668.205 263.233 669.361 263.178 670.457C263.174 670.638 263.151 670.818 263.127 670.998C263.1 671.235 263.091 671.473 263.065 671.691C262.992 672.145 262.919 672.598 262.808 673.049C262.659 673.621 262.491 674.192 262.239 674.746L262.249 674.737Z" fill="#B05C17"/>
<path d="M278.832 696.442C277.569 697.953 276.624 701.056 274.308 700.822C272.132 699.881 271.151 697.205 269.937 695.314C265.683 687.768 262.97 676.323 269.574 669.376C272.027 666.934 278.266 666.272 281.261 668.624C281.809 668.971 282.303 669.382 282.756 669.847C283.545 670.663 284.189 671.621 284.647 672.631C284.712 672.789 284.795 672.949 284.858 673.126C284.937 673.342 285.036 673.56 285.125 673.768C285.283 674.201 285.422 674.632 285.541 675.081C285.679 675.656 285.796 676.248 285.827 676.844C286.953 683.271 281.861 691.461 278.851 696.444L278.832 696.442Z" fill="#B05C17"/>
<path d="M312.708 686.71C312.52 688.666 313.489 691.763 311.443 692.879C309.113 693.332 306.801 691.673 304.725 690.807C296.945 686.98 288.242 679.075 289.758 669.617C290.399 666.223 295.167 662.149 298.984 662.393C299.626 662.375 300.273 662.424 300.903 662.558C302.024 662.788 303.091 663.223 304.042 663.793C304.188 663.88 304.343 663.978 304.488 664.085C304.679 664.224 304.881 664.335 305.071 664.474C305.442 664.741 305.804 665.018 306.154 665.322C306.593 665.709 307.019 666.143 307.395 666.602C311.954 671.274 312.367 680.908 312.707 686.729L312.708 686.71Z" fill="#B05C17"/>
<path d="M279.94 656.108C288.598 655.2 295.497 649.013 300.971 642.717C313.842 625.326 318.74 603.511 322.374 582.603C302.1 582.691 280.385 580.746 261.896 590.659C250.42 596.775 242.908 608.979 242.322 621.923C241.55 629.907 245.353 637.342 250.889 642.882C258.297 650.706 268.827 657.096 279.95 656.099L279.94 656.108ZM305.335 646.063C298.97 653.266 290.761 659.813 280.977 661.065C263.615 662.848 246.275 650.324 238.98 635.134C232.29 617.522 242.13 596.123 258.245 587.358C276.38 577.323 303.203 577.515 323.307 580.15C323.715 579.32 324.355 578.326 325.246 578.06C328.712 580.256 327.697 585.037 327.206 588.462C326.033 596.435 324.269 604.383 321.838 612.049C317.913 624.001 313.272 636.176 305.324 646.071L305.335 646.063Z" fill="#B05C17"/>
<path d="M245.733 703.681C282.165 719.317 318.965 706.842 343.817 677.464C353.777 664.385 359.59 648.627 364.53 633.156C370.112 614.539 374.59 595.59 378.531 576.552C381.785 560.359 384.233 543.952 388.078 527.91C343.613 531.928 296.879 523.071 254.234 539.585C229.11 548.58 205.492 565.293 194.493 590.229C180.613 620.072 193.132 653.776 213.13 677.597C222.105 688.573 232.987 697.878 245.743 703.672L245.733 703.681ZM226.301 792.972C219.717 806.051 200.922 805.314 191.867 795.384C188.456 791.202 187.651 785.211 189.386 780.15C187.806 784.19 181.813 784.89 177.892 784.877C177.892 784.877 177.892 784.877 177.863 784.885C177.863 784.885 177.844 784.883 177.825 784.882C177.825 784.882 177.815 784.89 177.796 784.889C171.387 784.524 164.029 782.432 160.003 777.161C158.3 774.41 158.617 770.513 160.59 767.967C162.83 765.316 166.731 765.078 169.941 765.505C176.913 766.382 188.392 771.246 189.713 778.874C189.669 779.196 189.599 779.487 189.51 779.777C189.954 778.596 190.539 777.455 191.259 776.41C193.858 772.687 197.541 769.047 202.358 768.965C211.104 768.533 222.581 777.433 216.896 786.63C214.828 790.662 210.33 793.58 205.727 792.731C204.491 792.388 203.478 791.373 203.053 790.174C203.477 789.881 204.019 789.684 204.501 789.5C206.919 788.901 209.163 789.445 211.002 787.405C215.183 782.129 211.919 776.026 205.843 774.434C199.763 772.258 195.162 778.659 194.333 784.009C193.711 788.648 196.019 793.492 200.289 795.568C205.69 798.61 213.153 798.692 217.899 794.406C223.561 787.398 222.173 777.89 220.259 769.758C219.404 766.546 217.636 763.656 215.947 760.84C215.505 759.744 213.517 757.594 212.571 755.829C212.388 755.595 212.196 755.35 212.024 755.108C208.251 749.531 205.587 742.824 206.473 735.986C207.123 727.093 210.405 718.678 217.213 712.694C221.853 708.783 227.458 704.897 233.499 703.57C224.782 698.361 216.845 691.452 209.909 682.956C201.466 673.282 194.252 661.914 189.404 649.742C188.502 652.169 187.041 654.382 185.58 656.241C178.676 664.867 168.994 671.167 157.99 672.613C145.675 674.312 131.742 670.274 124.654 659.509C123.855 658.329 123.143 657.127 122.537 655.923C107.521 643.52 82.0137 664.307 99.0617 679.534C102.798 682.086 107.548 680.622 110.923 678.134C116.013 674.229 114.911 666.235 109.576 663.083C108.369 662.235 106.938 662.929 105.716 663.285C103.427 663.952 102.272 666.045 100.468 667.38C100.161 667.643 99.7734 668.082 99.3257 668.058C98.9059 668.045 98.4786 667.754 98.1741 667.482C96.1982 665.552 97.3373 662.282 99.2264 660.714C102.214 658.169 106.72 656.523 110.573 657.784C117.393 660.781 121.31 669.363 118.545 676.392C115.806 683.452 107.211 687.415 99.981 685.658C95.8201 684.662 92.6234 681.433 90.4447 677.901C80.1155 660.107 103.375 640.2 120.289 649.659C116.098 631.024 132.858 612.304 153.558 616.275C161.639 618.05 167.068 626.24 168.026 634.108C169.457 644.68 160.439 655.316 149.499 653.668C137.412 652.009 130.038 638.219 141.175 629.906C144.917 627.743 152.489 627.145 154.809 631.588C155.357 632.93 155.269 634.588 154.017 635.449C153.96 635.444 153.896 635.411 153.849 635.398C152.128 635.257 150.842 634.068 149.231 633.744C144.697 632.872 141.262 636.656 141.256 640.997C143.147 649.166 154.553 651.73 159.407 644.65C163.271 639.77 163.207 632.841 160.37 627.527C155.249 617.935 142.079 620.191 134.759 625.868C123.291 634.021 122.616 650.879 132.181 660.763C140.33 669.036 153.561 669.482 163.973 665.772C170.965 663.006 176.709 658.06 181.423 652.308C183.699 649.431 185.758 646.26 186.458 642.602C186.523 642.387 186.577 642.181 186.658 641.986C181.53 625.221 181.115 607.361 188.169 590.626C197.959 566.497 219.232 548.686 243 539.024C269.489 526.919 298.789 524.24 327.569 524.352C342.27 524.212 356.959 524.616 371.659 524.744C376.239 524.758 380.853 524.709 385.41 524.904C386.802 525.077 388.612 524.68 389.603 525.855C391.831 523.73 393.408 526.873 393.39 528.985C392.481 535.505 390.955 541.969 389.865 548.485C388.153 557.881 386.6 567.317 384.765 576.693C381.977 590.922 378.518 605.033 374.93 619.077C370.611 635.562 365.811 652.086 357.752 667.194C344.488 691.977 319.228 710.401 291.28 714.303C272.693 717.102 255.028 714.471 239.504 706.84C237.751 707.136 235.972 707.383 234.336 708.148C225.115 712.169 216.696 719.464 213.668 729.314C210.375 739.373 212.264 748.326 219.798 755.883C227.008 763.664 238.28 769.488 248.864 765.897C264.364 760.184 261.416 739.042 248.102 732.536C241.579 729.407 233.428 735.193 233.965 742.321C235.315 752.075 248.113 749.8 242.613 740.036C241.97 738.562 242.426 737.602 243.937 737.105C247.45 735.939 250.402 739.483 250.564 742.757C250.802 759.809 228.503 758.613 227.315 742.732C226.675 734.2 234.049 725.935 242.631 725.767C250.157 725.405 256.616 730.508 260.636 736.477C265.85 743.732 267.076 753.983 262.311 761.768C256.634 772.114 243.205 774.254 232.745 770.826C230.524 770.101 228.379 769.134 226.333 767.993C227.185 770.248 227.762 772.578 228.017 774.883C228.778 780.948 229.362 787.448 226.28 792.99L226.301 792.972Z" fill="#B05C17"/>
<path d="M192.379 748.328C193.653 753.437 187.573 756.789 183.559 758.367C177.481 760.437 169.882 761.254 164.2 757.884C161.582 755.972 160.423 752.239 161.29 749.149C162.364 745.846 165.898 744.164 169.029 743.361C175.823 741.565 188.289 741.761 192.377 748.347L192.379 748.328Z" fill="#B05C17"/>
<path d="M171.878 725.494C167.386 730.077 160.968 734.216 154.366 733.75C151.174 733.22 148.453 730.401 147.832 727.255C147.31 723.829 149.708 720.722 152.147 718.594C157.4 713.926 168.622 708.508 175.248 712.543C178.673 716.535 174.775 722.244 171.9 725.458L171.879 725.475L171.878 725.494Z" fill="#B05C17"/>
<path d="M152.224 702.033C151.157 708.369 148.25 715.502 142.527 718.92C139.601 720.293 135.765 719.551 133.46 717.3C131.08 714.775 131.282 710.869 132.076 707.735C133.736 700.908 139.854 690.042 147.607 689.591C152.662 690.905 152.742 697.749 152.234 702.024L152.224 702.033Z" fill="#B05C17"/>
<path d="M123.856 712.589C121.656 714.975 117.822 715.706 114.845 714.493C111.693 713.057 110.398 709.352 109.973 706.145C108.954 699.2 110.548 686.83 117.555 683.501C122.781 682.819 125.418 689.247 126.535 693.407C127.912 699.671 127.855 707.309 123.856 712.589Z" fill="#B05C17"/>
<path d="M104.135 714.792C102.939 717.809 99.6252 719.87 96.4069 719.806C92.9515 719.59 90.4161 716.594 88.8624 713.769C85.4081 707.652 82.4695 695.53 87.8144 689.912C92.4048 687.413 97.1429 692.375 99.6903 695.84C103.241 701.199 105.982 708.391 104.126 714.781L104.135 714.792Z" fill="#B05C17"/>
<path d="M87.1377 723.232C87.8724 726.387 86.3268 729.971 83.6464 731.756C80.6779 733.557 76.9017 732.532 73.9986 731.096C67.6803 728.04 58.3469 719.753 59.5435 712.097C61.8901 707.418 68.6229 708.802 72.705 710.204C78.6821 712.592 85.0173 716.93 87.1377 723.232Z" fill="#B05C17"/>
<path d="M76.9737 749.35C74.8966 752.127 71.0058 752.605 67.7918 752.36C60.7786 751.891 49.0267 747.723 47.2596 740.176C47.6837 734.996 54.3609 733.726 58.6542 733.49C58.6732 733.491 58.6922 733.493 58.7215 733.485C65.1609 733.451 72.6764 735.105 77.0254 740.153C78.8892 742.801 78.8007 746.715 76.9825 749.36L76.9737 749.35Z" fill="#B05C17"/>
<path d="M77.0975 767.762C76.3226 771.146 72.9564 773.146 69.9187 774.224C63.3168 776.637 50.889 777.563 46.2058 771.381C44.49 766.42 50.2104 762.524 54.0404 760.588C59.902 757.975 67.4201 756.464 73.4004 759.312C76.1807 760.978 77.6837 764.593 77.0887 767.752L77.0975 767.762Z" fill="#B05C17"/>
<path d="M81.8129 792.845C76.9856 797.947 66.274 804.331 59.3352 800.885C55.5604 797.211 58.9668 791.177 61.535 787.729L61.5555 787.712C65.6251 782.762 71.664 778.078 78.2818 777.961C81.5148 778.208 84.4654 780.776 85.3581 783.867C86.1719 787.238 84.0556 790.529 81.8115 792.864L81.8129 792.845Z" fill="#B05C17"/>
<path d="M99.7513 806.686C96.8527 813.083 88.836 822.628 81.135 821.648C76.3795 819.42 77.6073 812.608 78.9142 808.519C78.8922 808.556 78.8893 808.594 78.8674 808.63L78.9273 808.472C81.1649 802.464 85.3259 796.068 91.546 793.769C94.679 792.947 98.3077 794.4 100.163 797.038C102.034 799.964 101.113 803.758 99.76 806.696L99.7513 806.686Z" fill="#B05C17"/>
<path d="M122.514 808.426C123.785 815.332 122.626 827.754 115.744 831.332C110.579 832.209 107.701 825.936 106.428 821.821C104.818 815.596 104.581 807.927 108.4 802.499C110.511 800.03 114.317 799.163 117.341 800.264C120.54 801.589 121.964 805.237 122.514 808.426Z" fill="#B05C17"/>
<path d="M145.649 824.614C141.173 827.371 136.151 822.617 133.431 819.282L133.405 819.251C129.6 814.092 126.518 807.104 128.015 800.648C129.043 797.58 132.247 795.328 135.468 795.23C138.928 795.264 141.618 798.11 143.321 800.86C147.087 806.781 150.679 818.733 145.639 824.623L145.649 824.614Z" fill="#B05C17"/>
<path d="M170.029 808.934C166.473 812.785 160.369 809.564 156.846 807.095C151.772 803.15 146.897 797.221 146.61 790.59C146.789 787.361 149.258 784.336 152.325 783.375C155.675 782.473 159.02 784.508 161.407 786.689C166.625 791.382 173.29 801.923 170.027 808.953L170.029 808.934Z" fill="#B05C17"/>
<path d="M95.2566 780.865C113.709 798.868 145.518 789.627 151.59 764.707C158.066 739.761 134.691 716.705 109.926 723.509C84.5939 730.23 76.3141 762.892 95.2376 780.863L95.2566 780.865ZM154.32 772.424C142.795 798.984 106.215 803.575 88.3725 780.837C71.04 759.314 81.9147 726.363 108.578 719.37C139.897 710.781 167.495 742.795 154.301 772.422L154.32 772.424Z" fill="#B05C17"/>
<path d="M128.627 769.716C129.231 769.197 129.808 768.649 130.359 768.069C130.851 767.523 131.305 766.955 131.723 766.365C132.102 765.792 132.453 765.206 132.776 764.609C133.071 764.001 133.357 763.382 133.607 762.741C133.827 762.107 134.019 761.481 134.182 760.843C134.331 760.147 134.45 759.458 134.523 758.756C134.575 758.071 134.609 757.385 134.604 756.696C134.58 756.005 134.508 755.321 134.407 754.644C134.28 753.917 134.116 753.187 133.989 752.727C133.967 752.64 133.934 752.561 133.904 752.463C133.688 751.777 133.423 751.116 133.139 750.453C132.809 749.759 132.44 749.08 132.09 748.527C131.852 748.146 131.651 747.767 131.462 747.36C131.43 747.281 131.398 747.202 131.365 747.123C131.341 747.074 131.317 747.005 131.301 746.965C131.239 746.769 131.178 746.573 131.116 746.377C131.008 746.293 130.91 746.199 130.812 746.106C130.007 745.375 129.306 744.537 128.491 743.815C128.006 743.395 127.501 742.993 126.974 742.628C126.366 742.208 125.745 741.817 125.092 741.47C125.037 741.447 125 741.425 124.955 741.393C124.955 741.393 124.955 741.393 124.946 741.383C124.648 741.283 124.348 741.203 124.039 741.112C123.702 741.01 123.346 740.926 123.008 740.842C122.321 740.685 121.632 740.565 120.949 740.494L120.911 740.491C119.962 740.399 119.017 740.375 118.069 740.389C117.187 740.417 116.291 740.492 115.42 740.636C114.76 740.758 114.099 740.899 113.454 741.079C112.797 741.287 112.139 741.514 111.506 741.791C110.921 742.062 110.35 742.392 109.808 742.733C109.065 743.192 108.357 743.693 107.735 744.21C107.192 744.675 106.676 745.172 106.186 745.699C105.685 746.253 105.211 746.82 104.783 747.418C104.385 747.99 104.035 748.576 103.701 749.182C103.691 749.19 103.679 749.218 103.678 749.237C103.352 749.872 103.073 750.52 102.812 751.189C102.569 751.859 102.374 752.542 102.206 753.237C102.089 753.764 102.002 754.283 101.942 754.814C101.885 755.432 101.867 756.052 101.867 756.674C101.898 757.393 101.978 758.107 102.067 758.812C102.215 759.627 102.383 760.443 102.619 761.236C102.849 761.98 103.118 762.709 103.427 763.421C103.748 764.105 104.1 764.763 104.49 765.405C104.918 766.069 105.376 766.707 105.874 767.328C106.357 767.891 106.881 768.419 107.415 768.938C107.98 769.431 108.557 769.895 109.145 770.333C109.773 770.753 110.421 771.157 111.093 771.505C111.683 771.798 112.284 772.064 112.897 772.302C113.522 772.513 114.157 772.714 114.786 772.867C115.52 773.019 116.256 773.152 117.005 773.238C117.69 773.29 118.376 773.323 119.065 773.318C119.766 773.286 120.469 773.215 121.174 773.125C121.843 773.014 122.505 772.854 123.15 772.674C123.876 772.442 124.594 772.181 125.306 771.872C125.812 771.634 126.292 771.364 126.773 771.076C127.426 770.657 128.044 770.216 128.645 769.736L128.627 769.716ZM138.011 768.95C135.924 772.358 132.945 775.162 129.408 777.025C125.541 779.063 121.13 780.094 116.759 779.722C113.728 779.462 110.866 778.613 108.168 777.249C105.667 775.93 103.412 774.151 101.576 772.012C100.513 770.773 99.585 769.402 98.8454 767.939C97.1407 764.586 96.1862 760.802 96.4459 757.025C96.6751 753.772 97.352 750.543 98.8102 747.603C100.225 744.736 102.195 742.228 104.381 740.406C105.261 739.65 106.201 738.986 107.185 738.372C107.937 737.922 108.731 737.543 109.524 737.183L109.593 737.159C110.296 736.84 111.036 736.543 111.763 736.292C111.9 736.245 112.038 736.198 112.175 736.151C112.352 736.088 112.548 736.027 112.734 735.974C112.97 735.896 113.204 735.838 113.438 735.779C113.496 735.765 113.544 735.759 113.584 735.743C113.847 735.677 114.1 735.619 114.353 735.562C114.617 735.496 114.878 735.449 115.14 735.402L115.199 735.388C115.46 735.341 115.731 735.304 115.993 735.257C116.22 735.169 116.445 735.1 116.679 735.041C116.786 735.021 116.903 734.992 117.009 734.971C117.116 734.951 117.242 734.931 117.358 734.921C117.599 734.892 117.849 734.873 118.07 734.861C118.272 734.847 118.482 734.844 118.683 734.85C118.836 734.843 118.98 734.844 119.132 734.856C119.284 734.867 119.427 734.869 119.58 734.88C120.437 734.927 121.297 735.059 122.143 735.258L122.153 735.249C122.229 735.255 122.286 735.259 122.352 735.274C122.494 735.294 122.636 735.315 122.769 735.325C122.93 735.347 123.099 735.379 123.269 735.411C124.138 735.554 124.984 735.752 125.835 735.999C126.088 736.066 126.34 736.152 126.592 736.238C126.675 736.273 126.76 736.289 126.797 736.311C127.793 736.665 128.738 737.062 129.667 737.544C131.783 738.643 133.755 740.133 135.371 741.891C135.617 742.178 135.854 742.454 136.1 742.741C136.161 742.813 136.231 742.894 136.291 742.985C136.395 743.127 136.508 743.279 136.611 743.44C136.688 743.551 136.757 743.652 136.824 743.772L136.842 743.792C136.842 743.792 136.851 743.802 136.859 743.813C137.082 744.031 137.293 744.276 137.493 744.531C138.007 745.192 138.416 745.978 138.789 746.724C138.871 746.903 138.963 747.072 139.045 747.251C139.127 747.429 139.209 747.607 139.283 747.776C139.349 747.915 139.406 748.043 139.461 748.191C139.56 748.409 139.647 748.636 139.737 748.843C139.754 748.864 139.752 748.902 139.769 748.922L139.889 749.228C140.622 751.158 141.076 753.221 141.234 755.289C141.607 760.052 140.492 764.883 137.99 768.967L138.011 768.95Z" fill="#B05C17"/>
<path d="M558.562 404.904C556.831 406.532 553.993 406.373 551.765 406.738C543.144 407.668 531.564 405.627 527.798 396.827C526.532 393.612 528.377 387.622 531.73 385.793C532.265 385.423 532.832 385.132 533.433 384.9C534.498 384.484 535.632 384.293 536.743 384.263C536.926 384.249 537.098 384.262 537.279 384.266C537.507 384.283 537.747 384.273 537.966 384.28C538.433 384.306 538.879 384.35 539.343 384.414C539.928 384.516 540.521 384.647 541.08 384.843C547.431 386.342 552.937 394.27 556.334 399.015C557.214 400.765 559.693 402.868 558.562 404.904Z" fill="#B05C17"/>
<path d="M574.321 377.231C573.187 379.306 570.424 380.042 568.422 381.085C560.519 384.632 548.877 386.288 542.559 379.091C540.353 376.417 540.258 370.155 542.889 367.381C543.291 366.876 543.738 366.404 544.247 366.002C545.135 365.276 546.151 364.742 547.194 364.362C547.361 364.308 547.527 364.254 547.703 364.21C547.928 364.141 548.145 364.062 548.368 364.012C548.807 363.902 549.265 363.794 549.711 363.713C550.292 363.623 550.899 363.564 551.5 363.582C558.006 363.045 565.691 368.873 570.382 372.33C571.768 373.718 574.773 374.942 574.321 377.231Z" fill="#B05C17"/>
<path d="M581.453 349.446C580.754 351.717 578.2 352.966 576.447 354.382C569.405 359.43 558.316 363.365 550.697 357.552C548.013 355.377 546.672 349.258 548.699 346.008C548.992 345.438 549.339 344.89 549.75 344.396C550.487 343.515 551.364 342.797 552.318 342.21C552.468 342.116 552.628 342.033 552.787 341.95C552.996 341.841 553.197 341.723 553.396 341.623C553.812 341.425 554.229 341.227 554.662 341.069C555.222 340.873 555.8 340.697 556.382 340.588C562.661 338.772 571.341 342.964 576.625 345.414C578.262 346.515 581.449 347.122 581.453 349.446Z" fill="#B05C17"/>
<path d="M586.204 324.79C585.504 327.061 582.951 328.31 581.198 329.726C574.156 334.774 563.067 338.709 555.448 332.896C552.764 330.721 551.414 324.592 553.45 321.353C553.734 320.772 554.09 320.235 554.501 319.74C555.219 318.857 556.106 318.131 557.06 317.544C557.211 317.45 557.37 317.367 557.529 317.284C557.738 317.175 557.939 317.057 558.138 316.957C558.554 316.759 558.98 316.572 559.404 316.403C559.956 316.197 560.542 316.031 561.124 315.922C567.394 314.096 576.083 318.298 581.367 320.748C582.996 321.839 586.191 322.456 586.195 324.78L586.204 324.79Z" fill="#B05C17"/>
<path d="M579.323 294.777C576.07 302.812 568.793 312.059 559.255 311.216C555.823 310.821 551.42 306.353 551.396 302.535C551.33 301.898 551.341 301.249 551.418 300.614C551.562 299.477 551.932 298.396 552.429 297.401C552.508 297.244 552.587 297.088 552.684 296.933C552.804 296.741 552.907 296.529 553.018 296.327C553.268 295.935 553.517 295.543 553.794 295.181C554.155 294.711 554.563 294.255 554.995 293.848C559.328 288.956 568.909 287.861 574.687 287.097C576.653 287.151 579.681 285.957 580.927 287.927C581.545 290.222 580.05 292.642 579.342 294.779L579.323 294.777Z" fill="#B05C17"/>
<path d="M545.436 305.303C544.73 306.157 543.878 306.924 542.877 307.498C542.326 307.829 541.741 308.1 541.124 308.292C537.623 309.804 531.76 307.549 530.017 304.565C525.428 296.152 531.001 285.789 537.06 279.595C538.725 278.077 540.356 275.753 542.698 275.396C545.004 275.764 545.12 279.005 545.94 280.789C547.56 286.384 550.384 295.619 547.637 301.53C547.431 302.098 547.178 302.652 546.89 303.166C546.66 303.56 546.41 303.952 546.151 304.334C546.012 304.524 545.864 304.704 545.736 304.886C545.629 305.03 545.522 305.175 545.407 305.31L545.436 305.303Z" fill="#B05C17"/>
<path d="M520.343 306.257C519.637 307.111 518.785 307.878 517.793 308.463C517.242 308.794 516.648 309.054 516.04 309.256C512.53 310.758 506.676 308.513 504.933 305.53C500.344 297.117 505.917 286.754 511.976 280.559C513.641 279.041 515.272 276.717 517.614 276.361C519.92 276.728 520.036 279.97 520.866 281.745C522.486 287.339 525.301 296.564 522.563 302.486C522.357 303.053 522.096 303.598 521.817 304.121C521.586 304.515 521.336 304.907 521.077 305.289C520.949 305.471 520.791 305.66 520.662 305.841C520.555 305.986 520.44 306.121 520.333 306.265L520.343 306.257Z" fill="#B05C17"/>
<path d="M495.611 310.634C495.137 311.077 494.612 311.438 494.052 311.759C490.911 313.939 484.727 312.883 482.427 310.307C476.263 302.979 479.658 291.713 484.383 284.441C485.717 282.621 486.854 280.011 489.077 279.205C491.409 279.105 492.162 282.262 493.323 283.842C496.028 289.003 500.622 297.484 499.104 303.833C499.02 304.439 498.871 305.011 498.703 305.581C498.554 306.029 498.389 306.437 498.203 306.863C498.111 307.067 497.99 307.277 497.907 307.491C497.828 307.648 497.758 307.814 497.679 307.971C497.146 308.944 496.463 309.867 495.611 310.634Z" fill="#B05C17"/>
<path d="M474.154 319.986C471.838 323.022 465.637 323.936 462.652 322.197C454.517 317.128 454.267 305.364 456.493 297.003C457.202 294.867 457.466 292.027 459.338 290.563C461.514 289.744 463.215 292.514 464.821 293.66C468.995 297.737 475.987 304.373 476.513 310.888C476.611 311.479 476.662 312.076 476.674 312.67C476.667 313.138 476.642 313.586 476.597 314.051C476.579 314.279 476.524 314.504 476.496 314.741C476.483 314.913 476.45 315.101 476.418 315.271C476.219 316.365 475.859 317.457 475.286 318.446C474.966 319.005 474.581 319.53 474.144 319.994L474.154 319.986Z" fill="#B05C17"/>
<path d="M458.472 331.307C458.144 335.108 453.394 339.202 449.931 339.33C440.342 339.401 433.85 329.6 431.259 321.32C430.709 319.126 429.421 316.589 430.231 314.365C431.636 312.502 434.558 313.94 436.52 314.051C442.223 315.271 451.682 317.141 455.607 322.356C456.023 322.799 456.369 323.285 456.695 323.769C456.943 324.161 457.161 324.56 457.369 324.968C457.477 325.177 457.556 325.393 457.665 325.603C457.748 325.762 457.812 325.92 457.886 326.088C458.305 327.115 458.583 328.226 458.629 329.378C458.666 330.021 458.608 330.658 458.502 331.3L458.472 331.307Z" fill="#B05C17"/>
<path d="M446.921 356.344C446.523 356.792 446.063 357.187 445.577 357.533C444.707 358.155 443.737 358.579 442.731 358.856C442.575 358.901 442.409 358.936 442.244 358.971C442.031 359.012 441.816 359.073 441.611 359.124C441.194 359.197 440.768 359.26 440.344 359.305C439.796 359.349 439.231 359.353 438.679 359.311C432.601 359.373 425.851 353.454 421.711 349.934C420.516 348.542 417.806 347.207 418.377 345.118C419.571 343.258 422.181 342.778 424.101 341.93C431.687 339.152 442.601 338.388 447.997 345.504C449.872 348.124 449.542 353.953 446.93 356.355L446.921 356.344Z" fill="#B05C17"/>
<path d="M448.048 379.012C447.874 379.161 447.7 379.31 447.526 379.46C447.161 379.738 446.795 380.016 446.412 380.274C445.919 380.59 445.399 380.895 444.846 381.12C439.165 384.254 429.813 382.096 424.148 380.879C422.318 380.175 419.095 380.292 418.579 378.034C418.759 375.676 420.961 373.893 422.348 372.134C428.071 365.694 437.959 359.448 446.638 363.41C449.725 364.937 452.365 370.58 451.106 374.167C450.944 374.785 450.735 375.391 450.443 375.962C449.934 376.985 449.225 377.877 448.44 378.64C448.307 378.754 448.183 378.879 448.041 378.983L448.048 379.012Z" fill="#B05C17"/>
<path d="M460.969 399.702C456.685 404.588 447.158 405.725 441.418 406.492C439.469 406.458 436.461 407.654 435.214 405.703C434.594 403.427 436.059 401.014 436.768 398.878C439.961 390.877 447.15 381.651 456.644 382.443C460.067 382.829 464.464 387.248 464.5 391.039C464.566 391.675 464.565 392.316 464.488 392.951C464.354 394.078 464.004 395.161 463.507 396.156C463.428 396.313 463.349 396.469 463.251 396.624C463.131 396.816 463.029 397.028 462.918 397.23C462.678 397.614 462.428 398.006 462.152 398.367C461.791 398.837 461.402 399.295 460.969 399.702Z" fill="#B05C17"/>
<path d="M481.431 411.927C479.426 418.144 471.089 422.988 466.105 426.002C464.279 426.752 461.989 429.055 460.06 427.76C458.576 425.906 458.964 423.085 458.762 420.841C458.524 412.177 461.459 400.79 470.549 397.735C473.859 396.725 479.669 399.043 481.24 402.53C481.56 403.09 481.811 403.692 481.984 404.308C482.312 405.395 482.415 406.55 482.36 407.646C482.356 407.827 482.333 408.007 482.309 408.187C482.282 408.424 482.273 408.663 482.247 408.881C482.174 409.334 482.101 409.788 481.99 410.238C481.841 410.81 481.673 411.381 481.421 411.936L481.431 411.927Z" fill="#B05C17"/>
<path d="M498.013 433.632C496.75 435.142 495.806 438.245 493.49 438.011C491.314 437.071 490.333 434.394 489.119 432.503C484.865 424.958 482.152 413.512 488.756 406.566C491.209 404.123 497.447 403.461 500.443 405.813C500.991 406.161 501.485 406.572 501.937 407.037C502.726 407.852 503.371 408.81 503.829 409.821C503.894 409.979 503.977 410.138 504.04 410.315C504.119 410.532 504.217 410.749 504.307 410.957C504.465 411.39 504.604 411.821 504.723 412.271C504.861 412.845 504.978 413.438 505.009 414.033C506.135 420.46 501.043 428.651 498.032 433.633L498.013 433.632Z" fill="#B05C17"/>
<path d="M531.89 423.9C531.702 425.856 532.671 428.952 530.625 430.068C528.295 430.522 525.983 428.863 523.906 427.996C516.126 424.17 507.424 416.265 508.94 406.807C509.581 403.413 514.349 399.339 518.166 399.583C518.808 399.565 519.455 399.614 520.085 399.748C521.206 399.977 522.273 400.413 523.224 400.982C523.37 401.07 523.525 401.168 523.67 401.275C523.86 401.414 524.062 401.525 524.253 401.664C524.624 401.931 524.986 402.207 525.336 402.511C525.775 402.899 526.201 403.333 526.577 403.792C531.136 408.463 531.548 418.097 531.888 423.919L531.89 423.9Z" fill="#B05C17"/>
<path d="M499.121 393.297C507.779 392.39 514.679 386.202 520.152 379.906C533.024 362.516 537.922 340.7 541.555 319.793C521.282 319.881 499.566 317.936 481.077 327.849C469.602 333.964 462.09 346.169 461.504 359.112C460.732 367.097 464.535 374.532 470.071 380.071C477.479 387.896 488.009 394.285 499.132 393.289L499.121 393.297ZM524.516 383.252C518.151 390.456 509.943 397.002 500.159 398.254C482.797 400.037 465.457 387.514 458.161 372.323C451.472 354.712 461.312 333.312 477.427 324.548C495.562 314.512 522.385 314.704 542.489 317.339C542.896 316.509 543.537 315.516 544.427 315.249C547.894 317.446 546.879 322.227 546.388 325.652C545.215 333.625 543.451 341.572 541.02 349.239C537.094 361.191 532.454 373.366 524.506 383.261L524.516 383.252Z" fill="#B05C17"/>
<path d="M464.915 440.87C501.347 456.506 538.146 444.032 562.999 414.654C572.959 401.574 578.772 385.816 583.712 370.345C589.294 351.729 593.772 332.78 597.712 313.741C600.967 297.549 603.415 281.142 607.26 265.099C562.795 269.117 516.061 260.26 473.415 276.774C448.292 285.769 424.674 302.483 413.674 327.419C399.795 357.261 412.314 390.965 432.312 414.786C441.287 425.763 452.168 435.067 464.925 440.862L464.915 440.87ZM445.483 530.162C438.899 543.24 420.104 542.504 411.049 532.573C407.638 528.392 406.833 522.4 408.568 517.339C406.987 521.379 400.995 522.079 397.074 522.067C397.074 522.067 397.074 522.067 397.045 522.074C397.045 522.074 397.026 522.073 397.007 522.071C397.007 522.071 396.997 522.08 396.978 522.078C390.569 521.713 383.211 519.621 379.185 514.35C377.482 511.6 377.799 507.702 379.772 505.156C382.012 502.505 385.913 502.268 389.123 502.694C396.095 503.571 407.574 508.436 408.895 516.064C408.851 516.385 408.781 516.677 408.692 516.966C409.136 515.786 409.72 514.644 410.441 513.599C413.04 509.876 416.723 506.236 421.54 506.154C430.286 505.722 441.762 514.623 436.077 523.82C434.01 527.851 429.512 530.769 424.909 529.921C423.673 529.578 422.66 528.563 422.235 527.364C422.659 527.071 423.2 526.873 423.683 526.69C426.101 526.09 428.345 526.635 430.184 524.594C434.365 519.318 431.101 513.216 425.024 511.623C418.945 509.447 414.344 515.848 413.514 521.198C412.893 525.837 415.201 530.681 419.471 532.757C424.872 535.8 432.335 535.882 437.081 531.596C442.743 524.587 441.355 515.079 439.441 506.947C438.586 503.735 436.817 500.846 435.129 498.029C434.687 496.934 432.699 494.783 431.753 493.018C431.57 492.784 431.378 492.54 431.205 492.297C427.432 486.72 424.769 480.013 425.655 473.175C426.305 464.282 429.587 455.867 436.394 449.883C441.035 445.972 446.64 442.086 452.681 440.759C443.964 435.55 436.027 428.642 429.091 420.145C420.648 410.472 413.434 399.104 408.586 386.932C407.683 389.359 406.223 391.572 404.761 393.43C397.857 402.056 388.176 408.356 377.172 409.802C364.857 411.502 350.924 407.464 343.836 396.698C343.037 395.518 342.325 394.316 341.719 393.113C326.703 380.709 301.196 401.496 318.243 416.723C321.98 419.275 326.73 417.811 330.105 415.324C335.195 411.418 334.093 403.424 328.758 400.272C327.55 399.424 326.12 400.118 324.897 400.475C322.608 401.142 321.454 403.234 319.65 404.569C319.343 404.833 318.955 405.272 318.507 405.247C318.088 405.234 317.66 404.943 317.356 404.672C315.38 402.742 316.519 399.472 318.408 397.904C321.395 395.358 325.901 393.713 329.755 394.973C336.575 397.971 340.492 406.553 337.727 413.582C334.988 420.641 326.393 424.605 319.163 422.848C315.002 421.851 311.805 418.623 309.626 415.09C299.297 397.296 322.557 377.389 339.471 386.849C335.279 368.213 352.04 349.494 372.74 353.465C380.82 355.239 386.249 363.429 387.208 371.297C388.639 381.87 379.621 392.506 368.68 390.857C356.594 389.198 349.22 375.408 360.356 367.096C364.098 364.933 371.671 364.334 373.991 368.777C374.539 370.12 374.451 371.777 373.199 372.638C373.142 372.634 373.077 372.6 373.031 372.587C371.31 372.446 370.024 371.258 368.413 370.934C363.879 370.062 360.444 373.845 360.437 378.187C362.329 386.356 373.735 388.919 378.589 381.839C382.452 376.96 382.388 370.03 379.552 364.716C374.431 355.124 361.261 357.38 353.941 363.057C342.473 371.211 341.798 388.069 351.363 397.952C359.511 406.226 372.743 406.671 383.155 402.961C390.147 400.196 395.89 395.249 400.605 389.498C402.881 386.62 404.94 383.449 405.64 379.792C405.704 379.577 405.758 379.37 405.84 379.176C400.712 362.41 400.296 344.55 407.351 327.816C417.141 303.687 438.413 285.876 462.182 276.213C488.671 264.109 517.97 261.43 546.75 261.542C561.452 261.401 576.14 261.805 590.841 261.933C595.421 261.948 600.035 261.898 604.591 262.093C605.984 262.267 607.793 261.869 608.785 263.045C611.013 260.919 612.59 264.062 612.572 266.174C611.663 272.695 610.137 279.158 609.046 285.675C607.334 295.07 605.782 304.506 603.947 313.883C601.158 328.112 597.7 342.223 594.112 356.267C589.793 372.751 584.993 389.275 576.934 404.384C563.67 429.166 538.41 447.591 510.462 451.492C491.875 454.291 474.21 451.661 458.686 444.029C456.932 444.326 455.154 444.573 453.517 445.337C444.296 449.358 435.878 456.654 432.849 466.503C429.556 476.562 431.446 485.515 438.979 493.072C446.19 500.853 457.462 506.678 468.046 503.086C483.546 497.374 480.598 476.231 467.284 469.725C460.76 466.597 452.61 472.383 453.146 479.511C454.496 489.264 467.295 486.989 461.795 477.225C461.152 475.751 461.608 474.791 463.119 474.294C466.632 473.128 469.584 476.672 469.746 479.946C469.984 496.998 447.685 495.803 446.497 479.921C445.857 471.389 453.231 463.124 461.813 462.957C469.339 462.594 475.798 467.697 479.818 473.666C485.031 480.922 486.257 491.172 481.493 498.958C475.816 509.303 462.387 511.444 451.927 508.015C449.706 507.291 447.561 506.324 445.515 505.182C446.366 507.437 446.944 509.767 447.198 512.073C447.96 518.137 448.544 524.638 445.462 530.179L445.483 530.162Z" fill="#B05C17"/>
<path d="M411.561 485.518C412.835 490.627 406.754 493.979 402.741 495.556C396.663 497.627 389.064 498.443 383.382 495.073C380.764 493.161 379.604 489.429 380.471 486.339C381.546 483.035 385.079 481.354 388.211 480.55C395.005 478.754 407.471 478.95 411.559 485.537L411.561 485.518Z" fill="#B05C17"/>
<path d="M391.059 462.684C386.568 467.266 380.15 471.406 373.548 470.94C370.356 470.409 367.635 467.59 367.014 464.444C366.491 461.018 368.89 457.911 371.329 455.783C376.582 451.115 387.803 445.698 394.43 449.733C397.855 453.724 393.957 459.433 391.081 462.647L391.061 462.665L391.059 462.684Z" fill="#B05C17"/>
<path d="M371.405 439.222C370.338 445.558 367.431 452.691 361.709 456.109C358.783 457.483 354.947 456.74 352.642 454.489C350.262 451.964 350.464 448.058 351.258 444.924C352.917 438.098 359.036 427.231 366.789 426.78C371.844 428.094 371.924 434.939 371.416 439.213L371.405 439.222Z" fill="#B05C17"/>
<path d="M343.038 449.779C340.838 452.164 337.004 452.895 334.026 451.683C330.875 450.246 329.579 446.542 329.155 443.334C328.136 436.389 329.73 424.02 336.737 420.691C341.963 420.009 344.6 426.437 345.717 430.596C347.094 436.861 347.037 444.498 343.038 449.779Z" fill="#B05C17"/>
<path d="M323.317 451.981C322.121 454.998 318.807 457.06 315.589 456.996C312.133 456.78 309.598 453.784 308.044 450.959C304.59 444.842 301.651 432.719 306.996 427.102C311.587 424.602 316.325 429.564 318.872 433.03C322.423 438.389 325.164 445.58 323.308 451.971L323.317 451.981Z" fill="#B05C17"/>
<path d="M306.319 460.422C307.054 463.577 305.509 467.16 302.828 468.945C299.86 470.746 296.083 469.721 293.18 468.285C286.862 465.23 277.529 456.942 278.725 449.287C281.072 444.607 287.805 445.991 291.887 447.393C297.864 449.782 304.199 454.12 306.319 460.422Z" fill="#B05C17"/>
<path d="M296.155 486.539C294.078 489.317 290.188 489.794 286.974 489.549C279.96 489.081 268.208 484.912 266.441 477.365C266.865 472.185 273.543 470.916 277.836 470.679C277.855 470.681 277.874 470.682 277.903 470.675C284.343 470.64 291.858 472.295 296.207 477.342C298.071 479.99 297.983 483.905 296.164 486.549L296.155 486.539Z" fill="#B05C17"/>
<path d="M296.279 504.951C295.504 508.335 292.138 510.335 289.1 511.414C282.499 513.827 270.071 514.753 265.388 508.57C263.672 503.609 269.392 499.713 273.222 497.777C279.084 495.164 286.602 493.653 292.582 496.501C295.362 498.167 296.865 501.782 296.27 504.941L296.279 504.951Z" fill="#B05C17"/>
<path d="M300.995 530.034C296.167 535.137 285.456 541.521 278.517 538.074C274.742 534.4 278.149 528.367 280.717 524.919L280.737 524.901C284.807 519.952 290.846 515.267 297.464 515.151C300.697 515.397 303.647 517.966 304.54 521.056C305.354 524.428 303.237 527.719 300.993 530.053L300.995 530.034Z" fill="#B05C17"/>
<path d="M318.933 543.875C316.034 550.272 308.018 559.818 300.317 558.838C295.561 556.609 296.789 549.798 298.096 545.708C298.074 545.745 298.071 545.783 298.049 545.82L298.109 545.662C300.347 539.654 304.508 533.257 310.728 530.959C313.861 530.136 317.489 531.59 319.344 534.227C321.216 537.153 320.295 540.947 318.942 543.885L318.933 543.875Z" fill="#B05C17"/>
<path d="M341.696 545.615C342.967 552.522 341.808 564.943 334.926 568.521C329.761 569.399 326.883 563.125 325.61 559.011C324 552.786 323.763 545.116 327.582 539.688C329.693 537.219 333.499 536.353 336.523 537.454C339.722 538.779 341.146 542.426 341.696 545.615Z" fill="#B05C17"/>
<path d="M364.831 561.803C360.355 564.56 355.333 559.806 352.613 556.471L352.587 556.44C348.782 551.282 345.7 544.294 347.197 537.838C348.225 534.769 351.429 532.518 354.65 532.419C358.11 532.454 360.8 535.299 362.503 538.05C366.269 543.97 369.861 555.923 364.821 561.812L364.831 561.803Z" fill="#B05C17"/>
<path d="M389.211 546.123C385.655 549.974 379.55 546.754 376.028 544.285C370.954 540.34 366.079 534.411 365.792 527.78C365.971 524.551 368.44 521.526 371.507 520.565C374.857 519.663 378.202 521.697 380.589 523.879C385.807 528.571 392.472 539.113 389.209 546.142L389.211 546.123Z" fill="#B05C17"/>
<path d="M314.438 518.054C332.891 536.057 364.699 526.817 370.772 501.897C377.248 476.95 353.873 453.895 329.108 460.698C303.776 467.42 295.496 500.081 314.419 518.053L314.438 518.054ZM373.502 509.613C361.977 536.173 325.396 540.765 307.554 518.026C290.222 496.503 301.096 463.552 327.76 456.559C359.079 447.97 386.676 479.985 373.483 509.612L373.502 509.613Z" fill="#B05C17"/>
<path d="M347.809 506.905C348.413 506.387 348.99 505.838 349.541 505.258C350.032 504.712 350.487 504.145 350.905 503.555C351.284 502.981 351.634 502.396 351.957 501.799C352.252 501.19 352.539 500.571 352.789 499.93C353.009 499.297 353.2 498.671 353.364 498.033C353.513 497.336 353.632 496.647 353.705 495.945C353.757 495.26 353.79 494.574 353.786 493.885C353.762 493.195 353.69 492.51 353.588 491.833C353.462 491.106 353.298 490.376 353.17 489.917C353.148 489.829 353.116 489.75 353.085 489.652C352.87 488.966 352.605 488.305 352.321 487.643C351.991 486.948 351.622 486.269 351.272 485.717C351.033 485.335 350.833 484.956 350.644 484.55C350.612 484.471 350.579 484.392 350.547 484.313C350.522 484.263 350.499 484.194 350.483 484.155C350.421 483.959 350.36 483.763 350.298 483.567C350.19 483.482 350.092 483.389 349.994 483.295C349.189 482.564 348.488 481.726 347.672 481.004C347.188 480.585 346.683 480.183 346.156 479.817C345.547 479.398 344.927 479.006 344.274 478.66C344.219 478.636 344.182 478.614 344.137 478.582C344.137 478.582 344.137 478.582 344.128 478.572C343.829 478.473 343.529 478.392 343.221 478.302C342.884 478.2 342.527 478.115 342.189 478.032C341.503 477.874 340.814 477.755 340.131 477.683L340.093 477.681C339.143 477.589 338.198 477.565 337.25 477.578C336.368 477.607 335.473 477.682 334.601 477.826C333.942 477.947 333.281 478.088 332.636 478.268C331.979 478.477 331.321 478.704 330.688 478.981C330.103 479.252 329.532 479.581 328.99 479.922C328.247 480.382 327.539 480.883 326.916 481.399C326.374 481.865 325.858 482.361 325.368 482.888C324.867 483.443 324.393 484.009 323.965 484.608C323.567 485.18 323.216 485.765 322.883 486.371C322.873 486.38 322.861 486.408 322.86 486.427C322.534 487.062 322.255 487.71 321.993 488.379C321.751 489.049 321.555 489.732 321.388 490.427C321.271 490.954 321.183 491.473 321.124 492.004C321.067 492.621 321.048 493.242 321.049 493.863C321.08 494.583 321.159 495.297 321.249 496.002C321.397 496.816 321.564 497.633 321.8 498.425C322.03 499.17 322.3 499.898 322.609 500.61C322.93 501.295 323.281 501.953 323.672 502.595C324.1 503.259 324.558 503.896 325.056 504.518C325.539 505.081 326.063 505.608 326.597 506.127C327.162 506.62 327.739 507.085 328.327 507.522C328.955 507.943 329.603 508.346 330.275 508.694C330.864 508.988 331.466 509.254 332.079 509.492C332.704 509.702 333.339 509.903 333.968 510.057C334.702 510.208 335.438 510.341 336.187 510.427C336.872 510.479 337.558 510.513 338.247 510.508C338.947 510.475 339.651 510.405 340.356 510.315C341.025 510.203 341.687 510.043 342.332 509.863C343.058 509.632 343.776 509.371 344.488 509.062C344.994 508.823 345.473 508.554 345.955 508.265C346.608 507.846 347.225 507.406 347.826 506.926L347.809 506.905ZM357.192 506.139C355.105 509.547 352.127 512.352 348.59 514.214C344.723 516.253 340.312 517.284 335.941 516.912C332.909 516.652 330.048 515.802 327.349 514.439C324.849 513.119 322.593 511.34 320.758 509.201C319.695 507.963 318.767 506.591 318.027 505.129C316.322 501.776 315.368 497.992 315.628 494.215C315.857 490.961 316.534 487.732 317.992 484.792C319.406 481.926 321.377 479.418 323.563 477.595C324.443 476.84 325.383 476.175 326.367 475.561C327.119 475.112 327.913 474.733 328.706 474.372L328.774 474.349C329.478 474.03 330.218 473.732 330.945 473.482C331.082 473.435 331.22 473.388 331.357 473.341C331.534 473.278 331.73 473.216 331.916 473.164C332.151 473.086 332.385 473.027 332.619 472.969C332.678 472.954 332.726 472.948 332.766 472.932C333.029 472.866 333.282 472.809 333.535 472.752C333.798 472.686 334.06 472.639 334.322 472.592L334.38 472.577C334.642 472.53 334.913 472.493 335.175 472.446C335.401 472.358 335.627 472.29 335.861 472.231C335.967 472.21 336.084 472.181 336.191 472.161C336.298 472.14 336.424 472.121 336.539 472.111C336.781 472.081 337.031 472.062 337.252 472.05C337.454 472.037 337.664 472.034 337.865 472.04C338.018 472.032 338.162 472.034 338.314 472.045C338.466 472.057 338.609 472.058 338.761 472.07C339.619 472.116 340.479 472.249 341.324 472.447L341.335 472.438C341.411 472.444 341.468 472.449 341.534 472.463C341.676 472.484 341.817 472.504 341.951 472.514C342.112 472.536 342.281 472.568 342.451 472.6C343.32 472.743 344.166 472.941 345.017 473.188C345.27 473.255 345.522 473.342 345.774 473.428C345.857 473.463 345.942 473.479 345.978 473.501C346.975 473.854 347.92 474.251 348.849 474.734C350.965 475.832 352.936 477.322 354.552 479.081C354.798 479.367 355.035 479.644 355.281 479.93C355.343 480.002 355.413 480.084 355.473 480.175C355.577 480.316 355.69 480.468 355.792 480.629C355.87 480.74 355.939 480.841 356.006 480.961L356.024 480.982C356.024 480.982 356.032 480.992 356.041 481.002C356.264 481.22 356.474 481.466 356.675 481.72C357.189 482.381 357.597 483.168 357.971 483.914C358.053 484.092 358.145 484.262 358.227 484.44C358.309 484.618 358.391 484.797 358.464 484.965C358.53 485.104 358.588 485.233 358.643 485.38C358.741 485.598 358.829 485.825 358.919 486.033C358.936 486.053 358.933 486.091 358.951 486.112L359.071 486.417C359.803 488.348 360.258 490.41 360.416 492.479C360.789 497.241 359.674 502.072 357.172 506.157L357.192 506.139Z" fill="#B05C17"/>
</svg>
