<svg width="455" height="383" viewBox="0 0 455 383" fill="none" xmlns="http://www.w3.org/2000/svg">
<path d="M344.969 133.504C346.569 134.305 348.129 134.709 349.608 134.709C352.243 134.709 354.477 133.394 355.573 131.194C356.598 129.152 356.393 126.757 355.04 124.953L354.892 124.751C352.131 121.069 349.947 118.161 346.801 118.161C346.353 118.161 345.888 118.221 345.42 118.344C342.463 119.131 342.25 121.023 341.979 123.414C341.87 124.398 341.744 125.511 341.43 126.823C341.036 128.482 340.962 131.555 344.969 133.504ZM374.215 103.296C379.321 103.296 383.326 100.505 383.326 96.9432C383.326 96.268 383.058 95.489 382.506 94.5596C380.773 91.643 377.673 89.9017 374.215 89.9017C370.754 89.9017 367.655 91.643 365.922 94.5596C365.369 95.489 365.104 96.268 365.104 96.9432C365.104 100.505 369.106 103.296 374.215 103.296ZM427.912 173.199L424.331 171.163L416.778 186.697L419.383 188.182L421.994 189.663L431.493 175.233L427.912 173.199ZM394.03 239.722C407.668 306.982 406.637 381.549 406.637 381.549H0C31.4625 237.975 107.399 332.059 118.144 270.053C128.89 208.049 81.3624 119.47 165.606 82.2316C249.849 44.9877 248.425 121.638 329.153 134.69C363.287 140.209 382.405 185.197 393.109 235.291L395.203 235.436L395.536 239.353L394.03 239.722Z" fill="#FAB328"/>
<path d="M382.418 96.9431C382.418 96.4073 382.159 95.7458 381.729 95.0215C378.389 89.3987 370.038 89.3987 366.701 95.0215C366.269 95.7458 366.009 96.4073 366.009 96.9431C366.009 99.9527 369.68 102.391 374.215 102.391C378.747 102.391 382.418 99.9527 382.418 96.9431ZM354.315 125.497C351.213 121.356 349.012 118.324 345.653 119.218C342.296 120.109 343.409 122.422 342.31 127.036C341.38 130.931 344.77 132.396 345.371 132.694C352.979 136.502 357.423 129.638 354.315 125.497ZM365.345 147.289C332.704 153.723 305.386 156.749 287.938 134.277C270.493 111.808 350.335 85.2 350.335 85.2C432.542 78.1039 419.304 136.642 365.345 147.289ZM161.538 25.1698L189.775 226.836H54.3911L26.1514 25.1698H161.538Z" fill="#F8E3C4"/>
<path d="M341.055 113.82C338.158 111.86 335.099 110.458 333.03 109.627C331.201 108.889 329.148 108.807 327.311 109.531C322.451 111.45 330.444 113.88 323.328 116.469C322.927 116.616 322.538 116.756 322.161 116.892C323.427 117.617 324.487 118.524 325.067 119.664C325.663 120.823 325.687 122.075 325.149 123.39C324.304 125.44 325.124 127.548 325.912 129.59C326.825 131.94 327.855 134.608 325.089 136.24C324.545 136.563 323.968 136.781 323.367 136.921C324.359 139.583 325.633 141.488 331.854 143.003C343.387 145.81 346.787 141.226 341.76 134.425C336.733 127.627 346.085 117.22 341.055 113.82ZM374.215 131.795C378.747 131.795 382.418 129.354 382.418 126.348C382.418 125.672 382.008 124.809 381.374 123.868C377.965 118.831 370.462 118.831 367.053 123.868C366.419 124.809 366.009 125.672 366.009 126.348C366.009 129.354 369.68 131.795 374.215 131.795ZM152.974 226.836L121.49 66.3201H105.434L109.094 103.2H111.532L113.64 110.791L112.15 133.982L112.47 137.254L118.751 133.93L119.795 142.125L113.415 146.761L121.362 226.836H152.974ZM111.22 226.836L106.538 179.651L103.452 226.836H111.22ZM98.9497 103.2L95.2869 66.3201H74.6927L64.2563 226.836H88.1525L96.2327 103.2H98.9497ZM168.739 226.836H204.405V236.972H170.731L199.086 381.549H183.322L154.962 236.972H102.79L93.3406 381.549H78.044L87.4882 236.972H63.6002L54.2025 381.549H38.4357L47.8334 236.972H35.8936V226.836H48.4922L63.1765 0.899475H78.9433L75.3488 56.1844H119.5L108.659 0.899475H124.423L168.739 226.836ZM372.471 171.655L362.51 173.585L372.802 189.15L375.749 188.576L378.693 188.007L382.429 169.725L372.471 171.655ZM231.404 67.0281C232.719 71.9812 230.515 77.1885 226.052 79.7061C220.232 82.9835 212.884 79.9111 211.132 73.4682L209.607 67.8618C209.607 67.8618 205.548 67.6267 203.314 66.7384C201.078 65.8527 199.914 43.2276 199.914 43.2276C199.181 33.2176 216.755 25.8262 222.208 35.4098C222.624 36.1342 223.386 38.403 224.332 41.5192C224.433 41.5246 224.54 41.5246 224.649 41.5574C226.899 42.1506 228.028 47.6723 227.101 51.1274C228.616 56.5616 230.182 62.4249 231.404 67.0281Z" fill="#F6836B"/>
<mask id="mask0_179_17975" style="mask-type:luminance" maskUnits="userSpaceOnUse" x="9" y="0" width="446" height="383">
<path d="M9.68555 -3.05176e-05H454.999V382.426H9.68555V-3.05176e-05Z" fill="white"/>
</mask>
<g mask="url(#mask0_179_17975)">
<path d="M306.281 129.373C313.085 134.4 317.964 138.099 321.974 135.731C325.99 133.367 319.588 128.337 321.66 123.313C323.732 118.286 314.976 116.315 313.97 116.069C301.257 112.967 299.48 124.349 306.281 129.373ZM392.192 120.476C396.727 120.476 400.398 118.035 400.398 115.028C400.398 112.018 396.727 105.122 392.192 105.122C387.663 105.122 383.986 112.018 383.986 115.028C383.986 118.035 387.663 120.476 392.192 120.476ZM110.566 104.105L102.584 226.235C102.445 226.393 102.36 226.604 102.36 226.836C102.36 227.022 102.415 227.197 102.513 227.342L101.83 237.797C101.797 238.297 102.174 238.724 102.674 238.759C103.183 238.787 103.601 238.412 103.634 237.915L104.298 227.738H152.957C152.965 227.738 152.981 227.738 152.99 227.738H204.404C204.901 227.738 205.309 227.333 205.309 226.836C205.309 226.333 204.901 225.931 204.404 225.931H153.719L122.377 66.1612C122.377 66.1503 122.375 66.1421 122.375 66.1312L109.546 0.726898C109.451 0.240337 108.972 -0.0849492 108.483 0.0134567C107.994 0.109129 107.674 0.584757 107.769 1.07678L120.39 65.4177H73.948C73.4477 65.4177 73.0459 65.8195 73.0459 66.3198C73.0459 66.8227 73.4477 67.2246 73.948 67.2246H120.745L151.874 225.931H104.418L112.433 103.26C112.446 103.009 112.359 102.765 112.19 102.582C112.02 102.399 111.779 102.295 111.531 102.295H96.2314C96.1302 102.303 96.0974 102.303 96.0373 102.317C96.0373 102.317 96.0373 102.317 96.0346 102.317C96.0318 102.317 96.0318 102.317 96.0318 102.317C95.8296 102.364 95.6574 102.473 95.5316 102.623C95.5289 102.629 95.5289 102.629 95.5289 102.631C95.5261 102.634 95.5261 102.634 95.5234 102.637L95.5179 102.642C95.4879 102.683 95.4578 102.727 95.4332 102.774C95.4332 102.776 95.4305 102.776 95.4305 102.776C95.4305 102.779 95.4305 102.779 95.4305 102.779C95.3703 102.891 95.3348 103.02 95.3266 103.151L87.3038 225.931H35.8923C35.3948 225.931 34.9875 226.333 34.9875 226.836C34.9875 227.333 35.3948 227.738 35.8923 227.738H87.1835L86.6396 236.067H35.8923C35.3948 236.067 34.9875 236.471 34.9875 236.972C34.9875 237.469 35.3948 237.876 35.8923 237.876H86.5248L82.8127 294.667C82.7799 295.165 83.1598 295.597 83.6573 295.627C83.6737 295.627 83.6956 295.627 83.7175 295.627C84.1876 295.627 84.5867 295.261 84.6168 294.785L88.389 237.04C88.3917 237.032 88.3917 237.029 88.3917 237.026L97.076 104.105H110.566ZM293.573 270.189C293.166 270.189 292.8 270.446 292.698 270.853L290.823 278.206C290.697 278.688 290.987 279.182 291.471 279.305C291.55 279.324 291.624 279.333 291.698 279.333C292.1 279.333 292.469 279.062 292.573 278.652L293.978 273.13L294.448 271.302C294.574 270.818 294.278 270.326 293.795 270.203C293.718 270.181 293.647 270.189 293.573 270.189ZM265.601 284.802C265.385 284.351 264.847 284.16 264.393 284.379C263.945 284.595 263.753 285.136 263.969 285.584C265.339 288.435 267.804 290.756 270.732 291.95C270.844 291.994 270.962 292.013 271.074 292.013C271.432 292.013 271.768 291.8 271.913 291.45C272.099 290.988 271.877 290.463 271.413 290.272C268.895 289.247 266.777 287.257 265.601 284.802ZM200.265 291.073C200.429 291.201 200.626 291.262 200.815 291.262C201.088 291.262 201.356 291.136 201.534 290.909C201.837 290.51 201.763 289.941 201.367 289.638C199.505 288.214 198.267 286.062 197.966 283.736C197.901 283.242 197.453 282.9 196.952 282.957C196.458 283.02 196.108 283.471 196.171 283.969C196.531 286.77 198.027 289.356 200.265 291.073ZM226.909 284.726C227.16 284.291 227.007 283.739 226.575 283.493C226.537 283.468 226.496 283.468 226.458 283.452C226.042 283.285 225.567 283.43 225.34 283.824L221.844 289.908C221.598 290.343 221.745 290.898 222.18 291.144C222.322 291.226 222.478 291.264 222.628 291.264C222.942 291.264 223.246 291.103 223.413 290.808L225.813 286.628L226.909 284.726ZM310.275 354.916C310.693 354.832 311.007 354.485 311.007 354.047C311.007 353.547 310.606 353.145 310.103 353.145H309.922L307.547 341.205L292.059 350.619L293.087 353.145H281.387C281.302 353.145 281.229 353.17 281.149 353.189C280.769 353.295 280.482 353.632 280.482 354.047C280.482 354.545 280.89 354.952 281.387 354.952H293.825L298.69 366.903C280.969 368.696 278.05 381.549 278.05 381.549H315.583L310.275 354.916ZM426.178 324.826L411.575 262.401H392.638L392.228 324.826H426.178ZM380.556 262.401H358.021L349.227 324.826H380.146L380.556 262.401ZM380.08 335.134H347.776L346.772 342.279C351.991 343.091 356.837 344.518 361.151 346.719C366.587 349.49 373.038 351.295 379.971 352.402L380.08 335.134ZM440.671 335.134L451.525 381.549H439.446L428.588 335.134H394.639C398.192 336.621 401.858 337.838 405.597 338.783C405.611 339.103 405.63 339.412 405.644 339.726C401.1 338.595 396.669 337.053 392.408 335.134H392.159L392.039 353.648C396.738 353.9 401.508 353.927 406.223 353.779C406.229 354.08 406.239 354.381 406.25 354.673C401.53 354.821 396.743 354.793 392.036 354.542V353.973L391.861 381.549H379.779L379.968 352.604L379.962 353.306C372.885 352.188 366.292 350.354 360.738 347.522C356.515 345.368 351.769 343.971 346.644 343.165L346.69 342.837L341.242 381.549H329.16L334.742 341.916L334.685 342.318C326.375 342.348 317.453 343.49 308.359 345.284L308.181 344.401C317.374 342.588 326.4 341.44 334.811 341.418L335.693 335.134H325.063L324.579 324.826H337.145L338.596 314.54C333.843 314.376 329.155 314.496 324.724 314.608C317.748 314.794 310.195 314.988 302.446 315.612L302.266 314.718C310.072 314.086 317.677 313.889 324.697 313.706C329.177 313.591 333.914 313.468 338.725 313.638L345.936 262.401H332.318V245.016H349.361L348.73 237.636L351.794 237.374L352.431 244.822L350.145 245.016H432.845V262.401H423.657L438.26 324.826H454.516L454.997 335.134H440.671ZM382.742 212.403L385.148 226.891L389.024 212.403H382.742ZM393.512 212.403L389.781 223.848C390.978 222.577 392.023 221.147 392.878 219.573L396.757 212.403H393.512ZM377.554 210.593L372.801 189.149L378.691 188.007L382.442 210.593H389.513L397.358 181.28L397.32 180.082C397.121 174.178 399.365 168.454 403.517 164.253L405.504 162.241L406.157 164.469C408.008 170.753 406.895 177.543 403.131 182.903L394.103 210.593H397.736L399.321 207.66C399.067 207.311 398.911 206.887 398.911 206.419C398.911 205.255 399.859 204.312 401.024 204.312C402.186 204.312 403.131 205.255 403.131 206.419C403.131 207.587 402.186 208.53 401.024 208.53C400.986 208.53 400.95 208.521 400.915 208.519L399.791 210.593H404.014L416.777 186.697L421.993 189.663L409.331 210.593H420.948C421.449 210.593 421.85 210.995 421.85 211.498C421.85 211.998 421.449 212.403 420.948 212.403H408.235L393.777 236.297L391.104 234.777L403.052 212.403H398.813L394.469 220.431C392.993 223.157 390.998 225.491 388.644 227.336L386.411 234.184L389.808 235.933L390.136 239.776L387.605 241.69L387.619 241.774L387.452 241.804L383.204 245.016L382.086 231.95L382.316 232.068L382.056 230.903C379.787 231.677 377.374 232.09 374.9 232.09C372.106 232.09 369.592 230.652 368.176 228.244C366.76 225.841 366.724 222.943 368.08 220.505L370.472 216.208L370.833 219.281L369.663 221.383C368.621 223.258 368.646 225.48 369.734 227.331C370.822 229.178 372.751 230.28 374.9 230.28C377.24 230.28 379.525 229.884 381.665 229.135L377.959 212.403H369.917C369.419 212.403 369.012 211.998 369.012 211.498C369.012 210.995 369.419 210.593 369.917 210.593H377.554ZM195.539 43.6318C195.9 47.1607 200.172 47.4313 200.172 47.4313C200.115 46.696 200.172 45.9853 200.284 45.3266C200.293 45.5152 200.416 45.6874 200.61 45.7393C200.651 45.7502 200.689 45.7557 200.73 45.7557C200.93 45.7557 201.113 45.6245 201.165 45.425C201.312 44.8974 201.657 44.4163 202.116 44.1129C202.57 43.8067 203.146 43.6728 203.69 43.7384C203.923 43.7739 204.163 43.5935 204.196 43.3475C204.226 43.0988 204.051 42.8746 203.802 42.8418C203.048 42.7434 202.25 42.9375 201.613 43.3612C201.006 43.763 200.547 44.3917 200.331 45.086C200.695 43.2054 201.504 41.825 201.504 41.825C203.857 42.6395 205.664 38.5721 205.664 38.5721C205.664 38.5721 205.935 39.5644 208.881 41.1935C211.825 42.8199 213.419 39.0259 213.419 39.0259C213.673 43.5443 218.32 41.1935 218.32 41.1935C218.32 41.1935 218.703 44.2578 220.545 46.748C220.944 45.0669 222.182 40.9038 224.648 41.5571C225.922 41.8933 226.838 43.8149 227.223 46.0482C229.071 45.66 230.462 44.05 230.462 42.0901C230.462 39.8377 228.636 38.0145 226.387 38.0145C226.376 38.0145 226.365 38.0199 226.351 38.0199C226.102 37.8313 225.938 37.7302 225.938 37.7302C225.938 37.7302 228.921 35.199 228.106 32.5748C227.816 31.64 226.603 30.9156 225.17 30.3716C225.192 30.2076 225.219 30.0463 225.219 29.8796C225.219 27.9005 223.615 26.2932 221.633 26.2932C220.518 26.2932 219.531 26.8126 218.875 27.6135C218.599 27.0832 218.153 26.4409 217.415 25.7383C215.516 23.9315 211.292 27.362 211.292 27.362C211.292 27.362 210.543 24.8363 207.02 25.1698C203.496 25.5087 203.327 28.8108 203.327 28.8108C203.327 28.8108 198.705 28.3598 196.444 30.9511C194.183 33.5452 197.256 38.5721 197.256 38.5721C197.256 38.5721 195.176 40.1083 195.539 43.6318ZM206.615 56.1074L206.071 50.5038C206.071 50.5038 203.677 53.6664 203.991 54.7516C204.308 55.8341 206.615 56.1074 206.615 56.1074ZM213.419 44.594C213.531 44.594 213.646 44.5502 213.733 44.4655C213.914 44.296 213.919 44.0063 213.747 43.8259C212.96 42.9976 212.123 42.4345 211.268 42.1557C210.191 41.7976 209.04 41.907 208.19 42.4427C207.977 42.5739 207.914 42.8527 208.045 43.0632C208.179 43.2792 208.46 43.3393 208.668 43.2081C209.294 42.8145 210.161 42.7434 210.986 43.014C211.7 43.2491 212.41 43.7302 213.094 44.4518C213.181 44.5448 213.301 44.594 213.419 44.594ZM203.327 46.707C202.728 46.707 202.25 47.3548 202.25 48.153C202.25 48.9539 202.728 49.599 203.327 49.599C203.92 49.599 204.404 48.9539 204.404 48.153C204.404 47.3548 203.92 46.707 203.327 46.707ZM209.849 47.4313C209.849 48.2295 210.33 48.8746 210.926 48.8746C211.519 48.8746 212 48.2295 212 47.4313C212 46.6332 211.519 45.9853 210.926 45.9853C210.33 45.9853 209.849 46.6332 209.849 47.4313ZM226.05 79.7057C220.398 82.8902 213.312 80.0692 211.306 73.9927L199 77.4369C198.5 77.5736 198.018 77.7567 197.554 77.9617V77.9508C189.659 79.8342 183.957 86.7007 183.55 94.8028L182.607 117.01L182.629 116.6C180.366 119.385 177.985 122.058 175.453 124.57L175.609 125.686C178.064 123.294 180.368 120.746 182.566 118.095L181.984 131.795L201.176 130.089L204.806 144.293C203.846 145.752 202.917 147.231 202.031 148.74C200.186 151.881 198.461 155.183 196.791 158.376C192.912 165.781 188.886 173.415 183.156 179.566L183.318 180.727C189.405 174.394 193.568 166.469 197.592 158.794C199.254 155.609 200.979 152.318 202.81 149.194C203.548 147.942 204.319 146.709 205.109 145.49L216.24 189.092L287.111 169.725L278.894 144.99C283.476 143.104 288.101 141.31 292.756 139.605C292.521 139.383 292.291 139.151 292.059 138.921C287.546 140.575 283.06 142.316 278.61 144.145V144.148L274.31 131.199L274.578 132C278.244 129.928 281.92 127.87 285.6 125.817C285.662 125.426 285.747 125.032 285.856 124.642C281.994 126.793 278.137 128.955 274.288 131.128L270.877 120.867L287.477 114.167L263.414 72.4647C259.052 65.9617 251.021 62.9658 243.46 65.0214L242.809 65.199L242.834 65.3029C242.331 65.374 241.823 65.4669 241.317 65.6091L231.654 68.3043C232.31 72.8528 230.129 77.4041 226.05 79.7057ZM182.402 376.875C182.29 376.989 182.2 377.096 182.093 377.208L156.147 238.317C156.057 237.827 155.586 237.507 155.092 237.592C154.602 237.685 154.28 238.158 154.367 238.65L157.768 256.847C148.687 264.375 142.591 275.301 136.668 285.939C129.271 299.23 121.626 312.974 108.223 319.57C104.697 321.308 100.977 322.423 97.158 323.15L97.0979 324.083C101.07 323.345 104.94 322.194 108.622 320.379C122.279 313.66 129.995 299.79 137.461 286.377C143.25 275.97 149.209 265.277 157.959 257.861L166.851 305.478C164.634 308.77 162.666 312.247 160.731 315.669C156.636 322.921 152.402 330.416 145.943 335.694C133.74 345.669 117.102 345.543 101.007 345.423C99.2519 345.409 97.4779 345.393 95.7066 345.393L95.6464 346.298C97.4369 346.298 99.2273 346.311 100.999 346.325C117.249 346.445 134.06 346.574 146.514 336.394C153.104 331.009 157.385 323.438 161.518 316.109C163.292 312.979 165.096 309.795 167.092 306.76L179.332 372.285L179.305 372.143C165.588 371.323 149.48 369.021 129.102 364.888C117.249 362.483 105.547 362.302 94.523 363.464L94.4628 364.374C105.449 363.21 117.11 363.379 128.921 365.777C149.452 369.94 165.673 372.249 179.474 373.061L180.579 378.949C179.34 380.494 178.756 381.549 178.756 381.549H181.063L181.093 381.716C181.175 382.15 181.552 382.454 181.984 382.454C182.036 382.454 182.093 382.448 182.148 382.437C182.582 382.358 182.869 381.975 182.869 381.549H183.32L182.402 376.875ZM281.436 152.652C286.808 149.74 292.329 147.125 297.993 144.845C298.305 144.716 298.622 144.604 298.936 144.481C298.63 144.284 298.329 144.071 298.026 143.863C297.903 143.913 297.78 143.959 297.66 144.006C292.012 146.277 286.504 148.885 281.147 151.78L281.436 152.652ZM20.4098 381.549H21.413C26.5301 374.587 32.6996 368.412 39.6235 363.248L39.6918 362.207C38.1912 363.308 36.7151 364.445 35.28 365.645C29.6463 370.352 24.6494 375.726 20.4098 381.549ZM254.498 242.212C248.429 252.864 241.418 262.716 231.922 269.842L231.285 271.433C241.227 264.361 248.495 254.417 254.741 243.606L254.498 242.212ZM290.091 184.338C290.186 184.669 290.271 184.997 290.359 185.325C292.972 182.797 295.79 180.481 298.857 178.428C317.316 166.07 340.283 165.669 366.205 166.396C367.082 166.42 367.968 166.445 368.864 166.475C368.681 166.163 368.493 165.857 368.307 165.554C367.61 165.532 366.915 165.513 366.229 165.494C340.152 164.764 317.037 165.174 298.351 177.677C295.377 179.669 292.641 181.911 290.091 184.338ZM56.0163 353.613C63.6837 350.185 71.865 347.894 80.3033 346.959L80.3607 346.052C72.1165 346.954 63.8996 349.225 56.0764 352.7L56.0163 353.613ZM194.921 285.275C190.214 286.929 185.619 288.84 181.393 291.36L181.579 292.303C185.712 289.799 190.233 287.897 194.864 286.254L194.921 285.275ZM57.8668 325.16L57.8067 326.073C63.6263 325.392 69.6044 325.389 75.424 325.4C77.5124 325.395 79.609 325.395 81.7111 325.365L81.7712 324.463C79.6528 324.495 77.5343 324.495 75.424 324.495C69.6208 324.482 63.6755 324.487 57.8668 325.16ZM204.404 233.038C205.197 232.166 205.97 231.27 206.719 230.348L207.192 228.287C206.295 229.455 205.369 230.594 204.404 231.691V233.038ZM9.86397 381.549H10.766C9.7273 360.616 22.8481 339.486 41.7529 330.515L41.8185 329.487C22.3752 338.485 8.82525 360.11 9.86397 381.549ZM200.405 236.972H198.986C197.658 238.071 196.264 239.098 194.779 240.02C189.886 243.048 184.261 244.866 178.821 246.621C176.894 247.244 174.942 247.876 173.002 248.567L173.179 249.464C175.15 248.761 177.137 248.116 179.103 247.482C184.592 245.711 190.266 243.874 195.258 240.785C197.095 239.648 198.8 238.366 200.405 236.972ZM38.4344 381.549L38.4946 380.669C37.9041 380.967 37.3328 381.262 36.7861 381.549H38.4344ZM280.641 351.357C271.689 354.012 263.004 356.868 255.025 359.5C248.941 361.504 243.192 363.401 238.209 364.896C231.362 366.957 224.826 368.658 218.14 369.929L219.52 354.952H219.605C220.102 354.952 220.51 354.545 220.51 354.047C220.51 353.574 220.146 353.205 219.687 353.159L220.786 341.235C224.2 341.9 227.83 341.856 231.217 341.036C238.012 339.385 244.04 335.588 249.865 331.92C252.377 330.342 254.968 328.708 257.589 327.27C262.264 324.703 267.184 322.68 272.227 321.078L271.987 320.207C266.875 321.827 261.897 323.875 257.152 326.477C254.514 327.929 251.904 329.569 249.386 331.154C243.619 334.787 237.654 338.54 231.006 340.156C227.712 340.956 224.183 340.995 220.868 340.333L220.824 340.828L221.346 335.134L204.792 341.205L203.324 353.145H191.887C191.39 353.145 190.985 353.547 190.985 354.047C190.985 354.545 191.39 354.952 191.887 354.952H203.1L201.613 367.067C199.776 367.354 198.07 367.769 196.479 368.267L199.084 381.549H217.071L218.08 370.609L218.055 370.864C224.853 369.584 231.504 367.86 238.466 365.763C243.463 364.262 249.217 362.365 255.307 360.356C263.278 357.735 271.946 354.878 280.882 352.229L280.641 351.357ZM54.6659 374.398C61.8058 371.599 70.0336 368.909 78.9967 366.922L79.0596 365.993C70.1101 367.963 61.8851 370.626 54.7315 373.411L54.6659 374.398ZM181.164 372.241L181.336 373.16C181.451 373.162 181.563 373.171 181.675 373.173L181.5 372.26C181.385 372.252 181.276 372.249 181.164 372.241ZM171.4 95.6037L171.247 94.5239C175.191 90.9868 178.961 87.2173 182.577 83.2866C181.576 83.7841 180.508 84.1558 179.387 84.3636L177.815 84.6533L178.233 83.4068C179.406 79.8888 182.118 77.1007 185.603 75.8296L206.079 60.358C205.41 60.3006 204.743 60.2104 204.092 60.0409C203.849 59.9753 203.704 59.7321 203.767 59.4888C203.833 59.2482 204.076 59.0979 204.319 59.169C205.262 59.4122 206.235 59.5134 207.214 59.5024L210.21 57.2391L211.292 58.6031L211.024 58.83C211.825 58.5403 212.596 58.1712 213.307 57.7093C213.515 57.5726 213.796 57.6327 213.936 57.8405C214.069 58.051 214.009 58.3298 213.799 58.4664C212.473 59.3302 210.962 59.9125 209.392 60.2022L187.757 78.4537H187.754L188.946 77.4506C183.474 83.8852 177.665 90.0383 171.4 95.6037ZM263.07 288.118L262.827 287.235C257.461 289.706 251.794 291.674 246.232 293.599C238.745 296.19 231.116 298.844 224.334 302.72L224.235 303.784C230.935 299.858 238.594 297.199 246.53 294.452C252.065 292.535 257.712 290.575 263.07 288.118ZM301.692 240.738C299.106 246.126 296.482 251.574 293.573 256.803V258.648C296.815 252.976 299.682 247.015 302.503 241.127C308.64 228.337 314.99 215.109 325.019 205.233C336.054 194.373 352.141 187.504 370.412 185.533L369.848 184.685C351.578 186.746 335.469 193.681 324.388 204.591C314.247 214.576 307.861 227.877 301.692 240.738ZM327.805 244.83C340.283 233.533 354.145 223.788 369.009 215.869C369.444 215.64 369.895 215.402 370.349 215.167L370.234 214.202C369.674 214.494 369.119 214.789 368.583 215.071C353.655 223.025 339.731 232.814 327.198 244.163C321.772 249.084 316.357 254.586 313.528 261.505C310.939 267.849 310.72 276.875 316.067 282.752C320.05 287.126 326.219 288.853 331.175 290.239L341.606 293.164L341.732 292.259L331.418 289.373C326.572 288.017 320.544 286.328 316.739 282.145C311.652 276.564 311.882 267.926 314.364 261.846C317.122 255.095 322.455 249.68 327.805 244.83ZM192.152 216.353C191.023 217.326 189.867 218.28 188.705 219.223L188.856 220.265C190.165 219.209 191.469 218.138 192.743 217.036C195.293 214.839 197.887 212.419 199.139 209.164C200.32 206.08 199.929 201.674 196.865 199.575C195.003 198.301 192.661 198.17 190.624 198.208C189.012 198.244 187.41 198.378 185.819 198.585L185.942 199.482C187.5 199.277 189.064 199.143 190.641 199.113C192.546 199.077 194.703 199.189 196.351 200.318C199.033 202.158 199.352 206.08 198.295 208.839C197.119 211.897 194.615 214.226 192.152 216.353ZM147.126 246.293C149.72 244.789 152.334 243.275 154.947 241.742L155.124 242.687C152.601 244.163 150.084 245.626 147.577 247.077C137.98 252.635 128.219 258.298 118.928 264.61C118.977 264.216 119.021 263.82 119.062 263.424C128.18 257.271 137.731 251.735 147.126 246.293Z" fill="#3D3361"/>
</g>
<path d="M360.686 99.6713C360.686 96.6617 357.01 89.7624 352.48 89.7624C347.946 89.7624 344.272 96.6617 344.272 99.6713C344.272 102.681 347.946 105.122 352.48 105.122C357.01 105.122 360.686 102.681 360.686 99.6713ZM197.245 118.912L200.05 130.327C200.148 130.74 200.52 131.016 200.925 131.016C200.996 131.016 201.07 131.008 201.141 130.989C201.627 130.871 201.925 130.379 201.805 129.896L195.354 103.624C195.236 103.137 194.747 102.837 194.263 102.96C193.779 103.077 193.481 103.567 193.599 104.05L196.048 114.033L192.298 108.648C192.014 108.238 191.448 108.14 191.038 108.421C190.628 108.708 190.529 109.274 190.816 109.681L197.24 118.901C197.243 118.904 197.245 118.907 197.245 118.912ZM264.347 104.083C264.358 104.11 264.366 104.135 264.377 104.162L270.022 121.154C270.148 121.534 270.5 121.774 270.88 121.774C270.973 121.774 271.072 121.758 271.165 121.728C271.637 121.569 271.894 121.058 271.739 120.585L266.119 103.665L265.165 85.6157C265.14 85.1182 264.705 84.7246 264.213 84.7628C263.716 84.7874 263.33 85.2139 263.36 85.7114L263.965 97.1866L258.503 80.7446C258.344 80.2717 257.833 80.0175 257.36 80.1733C256.888 80.3264 256.628 80.8403 256.786 81.3159L264.347 104.083ZM271.413 290.272C268.896 289.247 266.777 287.257 265.602 284.803C265.386 284.351 264.847 284.16 264.394 284.379C263.945 284.595 263.754 285.136 263.97 285.584C265.339 288.435 267.805 290.756 270.733 291.951C270.845 291.994 270.962 292.013 271.074 292.013C271.432 292.013 271.769 291.8 271.914 291.45C272.099 290.988 271.878 290.464 271.413 290.272ZM201.368 289.638C199.506 288.214 198.268 286.063 197.967 283.736C197.901 283.242 197.453 282.9 196.953 282.957C196.458 283.02 196.108 283.471 196.171 283.969C196.532 286.771 198.027 289.357 200.266 291.073C200.43 291.202 200.627 291.262 200.815 291.262C201.089 291.262 201.357 291.136 201.534 290.909C201.838 290.51 201.764 289.941 201.368 289.638ZM309.923 353.145H281.388C281.303 353.145 281.229 353.17 281.15 353.189L261.551 282.646L251.024 222.282L226.458 283.452C226.043 283.285 225.567 283.43 225.34 283.824L221.844 289.909C221.598 290.343 221.746 290.898 222.18 291.144C222.323 291.226 222.478 291.264 222.629 291.264C222.943 291.264 223.246 291.103 223.413 290.808L225.813 286.628L219.687 353.159C219.66 353.159 219.635 353.145 219.605 353.145H193.514L191.639 343.586L195.204 280.238L216.24 189.092L218.794 188.398L217.752 193.61L228.298 191.025V185.631L230.345 185.027L230.906 190.379L241.17 187.865V182.264L243.217 181.662L243.802 187.217L254.589 184.568V178.598L256.639 177.994L256.644 178.051L257.262 183.915L270.167 180.749V174.061L272.217 173.462L272.252 173.787L272.914 180.074L283.763 177.412L281.593 171.234L272.252 173.787L284.827 170.351C290.559 182.45 293.574 195.713 293.574 209.191V270.189C293.166 270.189 292.8 270.446 292.699 270.854L290.824 278.207C290.698 278.688 290.988 279.182 291.472 279.305C291.551 279.325 291.625 279.333 291.699 279.333C292.1 279.333 292.469 279.062 292.573 278.652L293.978 273.131L309.923 353.145ZM194.435 357.85H219.256L219.521 354.952H193.87L194.435 357.85ZM310.103 354.952H281.637L282.443 357.85H310.863L310.275 354.917C310.221 354.928 310.166 354.952 310.103 354.952ZM368.873 202.598L369.814 210.616C369.849 210.613 369.882 210.594 369.917 210.594H397.736L399.322 207.661C399.067 207.311 398.912 206.887 398.912 206.42C398.912 205.255 399.86 204.312 401.025 204.312C402.186 204.312 403.132 205.255 403.132 206.42C403.132 207.587 402.186 208.53 401.025 208.53C400.986 208.53 400.951 208.522 400.915 208.519L399.792 210.594H420.949C420.984 210.594 421.015 210.613 421.05 210.616L421.993 202.598H368.873ZM390.134 239.741L394.568 238.656L394.368 236.283L389.809 235.969V235.933L382.087 231.95L383.205 245.017L390.137 239.776L390.134 239.741ZM398.813 212.403H420.842L417.01 245.017H373.859L373.848 244.959L352.431 244.822L351.794 237.374L372.522 233.664L372.282 231.633C373.11 231.923 373.985 232.09 374.901 232.09C383.074 232.09 390.574 227.623 394.47 220.432L398.813 212.403ZM392.879 219.573L396.758 212.403H370.024L372.039 229.559C372.902 230.023 373.873 230.28 374.901 230.28C382.415 230.28 389.303 226.18 392.879 219.573ZM403.132 182.906L397.381 181.198L395.071 189.743L400.41 191.328L403.132 182.906ZM380.163 196.732L378.692 188.007L372.801 189.149L374.696 197.793L380.163 196.732ZM421.993 189.663L416.778 186.697L412.59 194.493L417.431 197.249L421.993 189.663ZM191.557 75.2612L187.722 78.4813L185.604 75.8298L189.589 72.8038L191.557 75.2612Z" fill="#4399BD"/>
</svg>
