<svg width="1444" height="1029" viewBox="0 0 1444 1029" fill="none" xmlns="http://www.w3.org/2000/svg">
<path d="M0.000854492 1016.33C0.000854492 1016.33 221.412 930.119 404.5 912.311C601.057 893.193 777 985.811 981 1016.31C1169.5 1044.5 1444 1016.31 1444 1016.31V508.139V254.31V0C1444 0 1316.21 103.341 1152.87 115.684C752.136 145.966 306.149 -41.8675 0.000854492 33.3104V1016.33Z" fill="#DC3184"/>
<path d="M325.749 634.258C324.082 635.825 321.35 635.671 319.206 636.023C310.906 636.918 299.759 634.953 296.133 626.482C294.915 623.387 296.69 617.621 299.918 615.86C300.433 615.503 300.979 615.223 301.558 615C302.583 614.6 303.674 614.416 304.745 614.387C304.921 614.373 305.085 614.385 305.26 614.39C305.48 614.406 305.711 614.396 305.922 614.403C306.371 614.428 306.801 614.47 307.247 614.532C307.81 614.63 308.381 614.757 308.919 614.945C315.033 616.388 320.334 624.02 323.603 628.588C324.451 630.273 326.838 632.297 325.749 634.258Z" fill="#AE306F"/>
<path d="M340.92 607.617C339.828 609.615 337.168 610.323 335.241 611.327C327.633 614.742 316.426 616.336 310.344 609.408C308.22 606.834 308.128 600.805 310.661 598.135C311.048 597.649 311.479 597.194 311.968 596.808C312.823 596.109 313.801 595.594 314.805 595.229C314.966 595.177 315.126 595.124 315.295 595.082C315.512 595.016 315.72 594.94 315.936 594.892C316.358 594.786 316.799 594.681 317.228 594.604C317.787 594.517 318.372 594.461 318.951 594.477C325.214 593.961 332.612 599.571 337.127 602.899C338.462 604.235 341.355 605.413 340.92 607.617Z" fill="#AE306F"/>
<path d="M347.786 580.869C347.112 583.055 344.654 584.258 342.967 585.621C336.187 590.48 325.512 594.269 318.178 588.672C315.594 586.578 314.303 580.689 316.255 577.56C316.536 577.01 316.871 576.483 317.266 576.007C317.976 575.159 318.82 574.469 319.738 573.903C319.883 573.813 320.037 573.733 320.19 573.652C320.391 573.548 320.584 573.434 320.776 573.338C321.177 573.148 321.578 572.957 321.995 572.805C322.534 572.616 323.09 572.447 323.651 572.342C329.695 570.594 338.051 574.629 343.138 576.988C344.714 578.047 347.782 578.631 347.786 580.869Z" fill="#AE306F"/>
<path d="M352.36 557.134C351.687 559.32 349.229 560.522 347.541 561.885C340.762 566.745 330.087 570.533 322.752 564.937C320.168 562.843 318.869 556.943 320.829 553.824C321.102 553.265 321.445 552.748 321.841 552.272C322.532 551.422 323.386 550.723 324.304 550.158C324.449 550.068 324.603 549.987 324.756 549.907C324.957 549.803 325.15 549.689 325.342 549.593C325.743 549.402 326.153 549.222 326.561 549.06C327.092 548.861 327.656 548.701 328.217 548.597C334.253 546.839 342.617 550.884 347.704 553.243C349.272 554.292 352.348 554.886 352.352 557.124L352.36 557.134Z" fill="#AE306F"/>
<path d="M345.737 528.241C342.606 535.976 335.601 544.878 326.418 544.067C323.114 543.686 318.876 539.385 318.853 535.709C318.789 535.097 318.8 534.471 318.874 533.86C319.013 532.766 319.369 531.725 319.847 530.767C319.923 530.616 319.999 530.466 320.093 530.316C320.208 530.132 320.307 529.928 320.414 529.733C320.654 529.356 320.895 528.978 321.161 528.63C321.509 528.178 321.901 527.738 322.318 527.347C326.489 522.638 335.712 521.583 341.275 520.848C343.167 520.9 346.082 519.751 347.281 521.647C347.877 523.856 346.437 526.186 345.756 528.243L345.737 528.241Z" fill="#AE306F"/>
<path d="M313.115 538.374C312.435 539.197 311.615 539.935 310.652 540.488C310.121 540.806 309.558 541.067 308.964 541.252C305.593 542.707 299.949 540.536 298.272 537.664C293.854 529.565 299.219 519.589 305.051 513.626C306.654 512.165 308.225 509.927 310.479 509.584C312.699 509.937 312.81 513.058 313.6 514.776C315.159 520.161 317.878 529.051 315.234 534.742C315.035 535.289 314.792 535.822 314.515 536.317C314.293 536.696 314.052 537.073 313.803 537.441C313.669 537.624 313.527 537.798 313.403 537.972C313.301 538.112 313.198 538.251 313.087 538.381L313.115 538.374Z" fill="#AE306F"/>
<path d="M288.957 539.291C288.277 540.114 287.456 540.852 286.502 541.415C285.971 541.733 285.4 541.984 284.814 542.179C281.435 543.624 275.799 541.463 274.122 538.591C269.704 530.492 275.069 520.516 280.901 514.553C282.504 513.092 284.075 510.855 286.329 510.511C288.549 510.865 288.66 513.985 289.46 515.694C291.019 521.08 293.729 529.96 291.094 535.661C290.895 536.207 290.644 536.731 290.375 537.236C290.153 537.615 289.912 537.992 289.663 538.36C289.539 538.535 289.387 538.716 289.263 538.891C289.161 539.031 289.05 539.16 288.947 539.3L288.957 539.291Z" fill="#AE306F"/>
<path d="M265.15 543.506C264.694 543.932 264.188 544.28 263.649 544.589C260.625 546.687 254.672 545.671 252.458 543.191C246.524 536.136 249.792 525.291 254.341 518.291C255.625 516.538 256.72 514.025 258.86 513.25C261.104 513.154 261.83 516.193 262.948 517.714C265.551 522.682 269.974 530.846 268.513 536.959C268.431 537.542 268.288 538.093 268.127 538.642C267.983 539.073 267.824 539.466 267.646 539.876C267.557 540.072 267.44 540.274 267.36 540.48C267.284 540.631 267.217 540.791 267.141 540.942C266.627 541.879 265.97 542.768 265.15 543.506Z" fill="#AE306F"/>
<path d="M244.492 552.509C242.262 555.432 236.293 556.311 233.419 554.637C225.588 549.758 225.348 538.433 227.491 530.384C228.172 528.327 228.427 525.594 230.229 524.185C232.324 523.396 233.962 526.062 235.507 527.166C239.526 531.091 246.257 537.479 246.763 543.751C246.858 544.32 246.906 544.894 246.918 545.466C246.911 545.917 246.887 546.348 246.844 546.796C246.827 547.015 246.774 547.232 246.747 547.46C246.734 547.625 246.702 547.807 246.671 547.97C246.48 549.024 246.133 550.074 245.582 551.027C245.273 551.565 244.903 552.07 244.483 552.517L244.492 552.509Z" fill="#AE306F"/>
<path d="M229.396 563.407C229.08 567.066 224.507 571.007 221.173 571.13C211.942 571.199 205.693 561.763 203.198 553.793C202.669 551.681 201.428 549.238 202.209 547.097C203.561 545.304 206.374 546.688 208.263 546.795C213.753 547.969 222.859 549.769 226.638 554.79C227.038 555.217 227.37 555.684 227.685 556.15C227.923 556.527 228.133 556.912 228.333 557.304C228.438 557.506 228.514 557.714 228.618 557.915C228.698 558.069 228.76 558.221 228.831 558.383C229.234 559.371 229.503 560.441 229.547 561.549C229.582 562.169 229.526 562.782 229.424 563.4L229.396 563.407Z" fill="#AE306F"/>
<path d="M218.276 587.51C217.893 587.941 217.45 588.322 216.982 588.654C216.145 589.253 215.211 589.661 214.243 589.927C214.092 589.971 213.933 590.005 213.774 590.039C213.568 590.079 213.361 590.136 213.164 590.186C212.763 590.256 212.353 590.317 211.945 590.36C211.417 590.402 210.873 590.407 210.342 590.366C204.491 590.426 197.993 584.728 194.007 581.339C192.857 579.999 190.248 578.713 190.798 576.702C191.947 574.912 194.459 574.45 196.308 573.633C203.611 570.959 214.117 570.223 219.312 577.074C221.117 579.597 220.8 585.207 218.284 587.52L218.276 587.51Z" fill="#AE306F"/>
<path d="M219.362 609.331C219.195 609.475 219.027 609.619 218.86 609.763C218.508 610.03 218.156 610.298 217.787 610.546C217.313 610.851 216.812 611.144 216.279 611.361C210.81 614.378 201.808 612.3 196.354 611.129C194.592 610.451 191.49 610.564 190.993 608.39C191.166 606.12 193.286 604.404 194.621 602.71C200.131 596.511 209.65 590.498 218.005 594.312C220.977 595.782 223.518 601.215 222.306 604.667C222.15 605.263 221.949 605.846 221.667 606.395C221.178 607.38 220.495 608.239 219.74 608.973C219.611 609.083 219.492 609.203 219.355 609.303L219.362 609.331Z" fill="#AE306F"/>
<path d="M231.8 629.249C227.676 633.952 218.504 635.047 212.979 635.785C211.103 635.753 208.207 636.904 207.006 635.026C206.409 632.835 207.82 630.512 208.502 628.455C211.576 620.753 218.497 611.872 227.636 612.634C230.932 613.005 235.165 617.26 235.199 620.909C235.263 621.521 235.262 622.138 235.188 622.749C235.059 623.835 234.721 624.877 234.243 625.835C234.167 625.986 234.091 626.137 233.997 626.286C233.882 626.471 233.783 626.675 233.676 626.869C233.445 627.238 233.205 627.616 232.939 627.964C232.591 628.416 232.217 628.857 231.8 629.249Z" fill="#AE306F"/>
<path d="M251.499 641.018C249.569 647.002 241.543 651.666 236.745 654.568C234.987 655.29 232.783 657.506 230.926 656.26C229.497 654.475 229.87 651.76 229.676 649.599C229.447 641.259 232.273 630.297 241.023 627.355C244.21 626.383 249.803 628.615 251.315 631.971C251.623 632.511 251.864 633.091 252.031 633.683C252.347 634.729 252.446 635.842 252.393 636.897C252.389 637.071 252.367 637.245 252.344 637.418C252.318 637.646 252.309 637.875 252.284 638.085C252.214 638.522 252.144 638.959 252.037 639.392C251.894 639.943 251.732 640.492 251.489 641.026L251.499 641.018Z" fill="#AE306F"/>
<path d="M267.462 661.912C266.246 663.366 265.337 666.354 263.107 666.128C261.013 665.223 260.068 662.646 258.899 660.826C254.804 653.562 252.192 642.544 258.55 635.857C260.911 633.505 266.917 632.868 269.801 635.132C270.328 635.467 270.804 635.862 271.239 636.31C271.999 637.095 272.619 638.017 273.06 638.99C273.123 639.142 273.203 639.296 273.264 639.466C273.34 639.674 273.434 639.884 273.52 640.084C273.673 640.501 273.807 640.916 273.921 641.348C274.054 641.902 274.167 642.472 274.196 643.045C275.28 649.232 270.378 657.117 267.48 661.914L267.462 661.912Z" fill="#AE306F"/>
<path d="M300.072 652.544C299.892 654.427 300.824 657.408 298.855 658.482C296.612 658.918 294.386 657.321 292.387 656.487C284.897 652.804 276.519 645.194 277.979 636.089C278.596 632.822 283.186 628.9 286.861 629.134C287.479 629.117 288.101 629.165 288.708 629.294C289.787 629.514 290.814 629.933 291.73 630.482C291.871 630.566 292.02 630.661 292.159 630.763C292.343 630.897 292.537 631.004 292.72 631.138C293.078 631.395 293.426 631.661 293.763 631.954C294.185 632.327 294.595 632.745 294.958 633.187C299.347 637.683 299.744 646.958 300.071 652.562L300.072 652.544Z" fill="#AE306F"/>
<path d="M268.529 623.084C276.864 622.21 283.506 616.253 288.775 610.192C301.167 593.451 305.882 572.45 309.38 552.323C289.863 552.407 268.958 550.535 251.159 560.078C240.112 565.965 232.88 577.714 232.316 590.174C231.573 597.861 235.234 605.018 240.563 610.351C247.694 617.884 257.832 624.035 268.539 623.075L268.529 623.084ZM292.977 613.413C286.849 620.348 278.947 626.65 269.528 627.855C252.814 629.572 236.121 617.516 229.098 602.893C222.659 585.938 232.131 565.337 247.645 556.9C265.103 547.239 290.925 547.424 310.278 549.961C310.67 549.162 311.287 548.205 312.144 547.949C315.482 550.063 314.504 554.666 314.031 557.963C312.902 565.638 311.204 573.289 308.864 580.669C305.085 592.176 300.618 603.896 292.967 613.422L292.977 613.413Z" fill="#AE306F"/>
<path d="M235.598 668.881C270.67 683.933 306.096 671.924 330.021 643.643C339.61 631.052 345.206 615.882 349.961 600.988C355.334 583.067 359.646 564.825 363.439 546.497C366.572 530.909 368.928 515.114 372.63 499.671C329.825 503.539 284.835 495.012 243.781 510.91C219.596 519.569 196.859 535.659 186.27 559.664C172.909 588.393 184.961 620.838 204.212 643.77C212.852 654.337 223.328 663.294 235.608 668.872L235.598 668.881ZM216.891 754.839C210.553 767.43 192.46 766.72 183.743 757.161C180.459 753.135 179.684 747.367 181.355 742.495C179.833 746.384 174.064 747.058 170.29 747.046C170.29 747.046 170.29 747.046 170.262 747.053C170.262 747.053 170.243 747.052 170.225 747.05C170.225 747.05 170.215 747.059 170.197 747.057C164.027 746.706 156.944 744.692 153.068 739.618C151.429 736.97 151.734 733.218 153.634 730.767C155.79 728.215 159.545 727.986 162.635 728.397C169.347 729.241 180.398 733.924 181.669 741.267C181.627 741.577 181.56 741.857 181.474 742.136C181.901 741 182.464 739.901 183.158 738.895C185.66 735.311 189.205 731.807 193.842 731.728C202.262 731.312 213.31 739.88 207.837 748.734C205.847 752.615 201.517 755.424 197.086 754.607C195.896 754.277 194.921 753.3 194.512 752.145C194.92 751.864 195.441 751.673 195.905 751.497C198.233 750.92 200.393 751.444 202.164 749.479C206.188 744.4 203.046 738.526 197.197 736.993C191.344 734.898 186.915 741.06 186.117 746.21C185.518 750.676 187.74 755.339 191.85 757.338C197.05 760.267 204.235 760.346 208.803 756.22C214.254 749.472 212.917 740.32 211.075 732.491C210.252 729.399 208.55 726.617 206.924 723.906C206.498 722.851 204.585 720.781 203.674 719.082C203.498 718.857 203.313 718.621 203.147 718.388C199.515 713.019 196.951 706.562 197.803 699.98C198.429 691.419 201.589 683.318 208.142 677.557C212.61 673.792 218.006 670.051 223.821 668.774C215.429 663.759 207.788 657.109 201.111 648.929C192.983 639.617 186.039 628.673 181.372 616.955C180.503 619.292 179.097 621.422 177.69 623.211C171.044 631.515 161.724 637.58 151.13 638.972C139.275 640.608 125.862 636.721 119.039 626.358C118.269 625.222 117.584 624.064 117.001 622.906C102.545 610.965 77.9901 630.976 94.4017 645.635C97.9984 648.092 102.572 646.682 105.82 644.288C110.72 640.528 109.66 632.832 104.523 629.798C103.361 628.982 101.984 629.65 100.807 629.993C98.6037 630.635 97.4924 632.649 95.7553 633.935C95.4598 634.188 95.0868 634.611 94.6559 634.587C94.2517 634.575 93.8403 634.295 93.5473 634.033C91.6451 632.175 92.7417 629.027 94.5603 627.518C97.4359 625.067 101.774 623.483 105.484 624.697C112.049 627.582 115.82 635.844 113.158 642.611C110.521 649.407 102.247 653.222 95.2867 651.531C91.2811 650.571 88.2037 647.464 86.1063 644.063C76.1627 626.933 98.5539 607.769 114.837 616.875C110.802 598.935 126.937 580.915 146.864 584.738C154.643 586.446 159.869 594.33 160.792 601.905C162.169 612.083 153.488 622.321 142.956 620.735C131.32 619.137 124.222 605.862 134.943 597.86C138.545 595.778 145.835 595.202 148.068 599.479C148.596 600.771 148.511 602.367 147.306 603.195C147.251 603.191 147.189 603.159 147.144 603.146C145.488 603.011 144.249 601.866 142.698 601.555C138.334 600.715 135.027 604.357 135.021 608.537C136.842 616.401 147.822 618.869 152.495 612.053C156.214 607.356 156.152 600.685 153.422 595.569C148.492 586.335 135.813 588.507 128.767 593.972C117.726 601.821 117.077 618.05 126.285 627.564C134.129 635.529 146.867 635.958 156.89 632.387C163.621 629.724 169.15 624.963 173.689 619.426C175.88 616.656 177.862 613.603 178.536 610.082C178.598 609.875 178.65 609.676 178.729 609.489C173.792 593.349 173.392 576.156 180.183 560.046C189.607 536.818 210.086 519.672 232.967 510.37C258.468 498.717 286.673 496.138 314.379 496.246C328.532 496.111 342.672 496.5 356.824 496.623C361.233 496.637 365.674 496.589 370.061 496.777C371.402 496.944 373.144 496.561 374.098 497.693C376.243 495.647 377.761 498.672 377.744 500.706C376.869 506.983 375.399 513.205 374.35 519.478C372.702 528.523 371.207 537.607 369.441 546.633C366.756 560.331 363.427 573.915 359.973 587.435C355.815 603.304 351.194 619.211 343.436 633.756C330.667 657.613 306.35 675.35 279.445 679.106C261.552 681.8 244.546 679.268 229.602 671.922C227.914 672.207 226.202 672.445 224.626 673.181C215.749 677.052 207.645 684.075 204.73 693.557C201.56 703.24 203.379 711.859 210.631 719.134C217.572 726.625 228.423 732.232 238.613 728.774C253.534 723.275 250.696 702.922 237.879 696.658C231.599 693.647 223.753 699.217 224.269 706.079C225.569 715.468 237.89 713.278 232.595 703.879C231.976 702.459 232.415 701.535 233.869 701.057C237.251 699.934 240.093 703.346 240.249 706.498C240.478 722.913 219.011 721.763 217.868 706.474C217.252 698.26 224.35 690.304 232.612 690.143C239.857 689.793 246.075 694.706 249.945 700.452C254.964 707.437 256.144 717.305 251.558 724.8C246.092 734.759 233.164 736.82 223.095 733.519C220.957 732.822 218.892 731.891 216.923 730.792C217.742 732.963 218.298 735.206 218.543 737.425C219.276 743.263 219.839 749.521 216.872 754.856L216.891 754.839Z" fill="#AE306F"/>
<path d="M184.237 711.862C185.464 716.78 179.61 720.007 175.747 721.526C169.895 723.519 162.58 724.305 157.11 721.06C154.589 719.22 153.473 715.627 154.308 712.652C155.343 709.472 158.744 707.853 161.759 707.08C168.299 705.351 180.3 705.54 184.236 711.88L184.237 711.862Z" fill="#AE306F"/>
<path d="M164.499 689.88C160.176 694.291 153.997 698.276 147.642 697.828C144.569 697.317 141.949 694.603 141.352 691.575C140.849 688.277 143.158 685.286 145.506 683.237C150.563 678.743 161.365 673.528 167.744 677.412C171.041 681.255 167.289 686.75 164.521 689.845L164.501 689.861L164.499 689.88Z" fill="#AE306F"/>
<path d="M145.58 667.294C144.552 673.394 141.754 680.26 136.246 683.55C133.428 684.873 129.736 684.158 127.516 681.991C125.225 679.56 125.42 675.8 126.184 672.783C127.782 666.212 133.672 655.751 141.135 655.317C146.002 656.581 146.079 663.17 145.59 667.286L145.58 667.294Z" fill="#AE306F"/>
<path d="M118.27 677.456C116.152 679.753 112.462 680.456 109.595 679.289C106.561 677.906 105.314 674.34 104.906 671.252C103.924 664.566 105.459 652.659 112.204 649.454C117.236 648.798 119.774 654.985 120.85 658.99C122.175 665.02 122.12 672.373 118.27 677.456Z" fill="#AE306F"/>
<path d="M99.2853 679.577C98.1337 682.482 94.9438 684.466 91.8456 684.405C88.5192 684.197 86.0785 681.313 84.5828 678.593C81.2573 672.704 78.4285 661.034 83.5739 655.626C87.9929 653.22 92.5542 657.997 95.0064 661.333C98.4244 666.492 101.063 673.415 99.2769 679.567L99.2853 679.577Z" fill="#AE306F"/>
<path d="M82.9228 687.702C83.6301 690.739 82.1421 694.189 79.5618 695.907C76.7041 697.641 73.0689 696.654 70.2742 695.271C64.1917 692.33 55.2067 684.352 56.3586 676.982C58.6176 672.477 65.0991 673.81 69.0289 675.16C74.7829 677.459 80.8816 681.635 82.9228 687.702Z" fill="#AE306F"/>
<path d="M73.1383 712.844C71.1387 715.518 67.3931 715.978 64.2991 715.742C57.5477 715.291 46.2344 711.279 44.5333 704.013C44.9416 699.026 51.3695 697.804 55.5025 697.577C55.5208 697.578 55.5392 697.579 55.5673 697.572C61.7664 697.539 69.0014 699.132 73.1881 703.991C74.9822 706.54 74.8971 710.309 73.1467 712.854L73.1383 712.844Z" fill="#AE306F"/>
<path d="M73.2588 730.569C72.5129 733.827 69.2723 735.752 66.348 736.79C59.9925 739.113 48.0286 740.005 43.5202 734.053C41.8684 729.278 47.3753 725.527 51.0624 723.663C56.7051 721.148 63.9426 719.693 69.6997 722.434C72.3762 724.038 73.8231 727.518 73.2503 730.559L73.2588 730.569Z" fill="#AE306F"/>
<path d="M77.7964 754.717C73.1492 759.629 62.8374 765.774 56.1577 762.456C52.5238 758.92 55.803 753.111 58.2754 749.792L58.2951 749.775C62.2129 745.01 68.0263 740.501 74.3971 740.389C77.5094 740.626 80.3498 743.099 81.2092 746.074C81.9926 749.319 79.9553 752.488 77.795 754.735L77.7964 754.717Z" fill="#AE306F"/>
<path d="M95.0655 768.041C92.2752 774.2 84.5577 783.389 77.1442 782.445C72.5662 780.3 73.7481 773.743 75.0062 769.806C74.9851 769.841 74.9823 769.878 74.9612 769.913L75.0189 769.761C77.1729 763.977 81.1786 757.82 87.1666 755.607C90.1826 754.815 93.6758 756.214 95.4615 758.754C97.2629 761.57 96.3764 765.223 95.074 768.051L95.0655 768.041Z" fill="#AE306F"/>
<path d="M116.979 769.716C118.203 776.364 117.087 788.322 110.462 791.767C105.49 792.612 102.719 786.572 101.493 782.611C99.9437 776.619 99.7155 769.235 103.392 764.01C105.424 761.633 109.088 760.799 112 761.859C115.079 763.135 116.45 766.646 116.979 769.716Z" fill="#AE306F"/>
<path d="M139.25 785.299C134.941 787.954 130.107 783.377 127.489 780.166L127.463 780.137C123.8 775.171 120.833 768.444 122.275 762.228C123.264 759.275 126.349 757.107 129.449 757.012C132.78 757.046 135.37 759.784 137.009 762.432C140.634 768.132 144.093 779.638 139.24 785.308L139.25 785.299Z" fill="#AE306F"/>
<path d="M162.72 770.204C159.298 773.911 153.421 770.811 150.03 768.435C145.145 764.637 140.452 758.929 140.176 752.545C140.348 749.437 142.725 746.525 145.678 745.6C148.902 744.732 152.122 746.69 154.42 748.79C159.443 753.307 165.86 763.456 162.719 770.223L162.72 770.204Z" fill="#AE306F"/>
<path d="M90.7393 743.184C108.503 760.514 139.124 751.619 144.97 727.629C151.204 703.614 128.702 681.419 104.862 687.968C80.4746 694.439 72.5039 725.881 90.721 743.182L90.7393 743.184ZM147.598 735.058C136.503 760.626 101.288 765.046 84.1121 743.157C67.4266 722.437 77.8954 690.716 103.564 683.984C133.713 675.715 160.281 706.535 147.58 735.056L147.598 735.058Z" fill="#AE306F"/>
<path d="M122.863 732.451C123.445 731.952 124.001 731.424 124.531 730.866C125.004 730.34 125.442 729.793 125.844 729.226C126.208 728.673 126.546 728.11 126.857 727.535C127.141 726.949 127.417 726.353 127.657 725.736C127.87 725.127 128.054 724.524 128.211 723.91C128.354 723.239 128.469 722.576 128.539 721.9C128.59 721.241 128.622 720.58 128.617 719.917C128.594 719.252 128.525 718.593 128.427 717.941C128.306 717.242 128.148 716.539 128.025 716.097C128.004 716.012 127.973 715.936 127.943 715.842C127.736 715.182 127.48 714.545 127.207 713.908C126.89 713.239 126.534 712.586 126.197 712.053C125.968 711.686 125.775 711.321 125.593 710.93C125.562 710.854 125.531 710.778 125.5 710.702C125.476 710.654 125.453 710.588 125.438 710.55C125.378 710.361 125.319 710.173 125.26 709.984C125.156 709.902 125.061 709.812 124.967 709.722C124.192 709.018 123.517 708.212 122.732 707.517C122.266 707.113 121.78 706.726 121.272 706.374C120.686 705.97 120.089 705.593 119.461 705.26C119.407 705.237 119.372 705.216 119.328 705.185C119.328 705.185 119.328 705.185 119.32 705.175C119.033 705.08 118.744 705.003 118.447 704.915C118.123 704.817 117.779 704.736 117.454 704.655C116.793 704.504 116.13 704.389 115.472 704.32L115.435 704.317C114.521 704.229 113.612 704.206 112.699 704.219C111.85 704.246 110.988 704.318 110.149 704.457C109.514 704.574 108.878 704.71 108.257 704.883C107.624 705.084 106.991 705.302 106.381 705.569C105.818 705.83 105.269 706.147 104.747 706.475C104.032 706.918 103.35 707.4 102.751 707.897C102.229 708.345 101.732 708.823 101.26 709.33C100.778 709.864 100.322 710.41 99.9093 710.986C99.5266 711.537 99.1889 712.1 98.8682 712.683C98.8583 712.692 98.8471 712.718 98.8457 712.737C98.532 713.348 98.2634 713.972 98.0117 714.616C97.7783 715.261 97.59 715.919 97.4284 716.588C97.316 717.095 97.2318 717.595 97.1744 718.106C97.1198 718.7 97.1018 719.297 97.1022 719.896C97.1322 720.589 97.2086 721.276 97.2949 721.955C97.4376 722.739 97.5986 723.525 97.8258 724.288C98.0473 725.004 98.3068 725.706 98.6043 726.391C98.9131 727.05 99.2515 727.684 99.6278 728.302C100.039 728.941 100.481 729.554 100.96 730.153C101.425 730.695 101.929 731.203 102.443 731.702C102.987 732.177 103.542 732.624 104.109 733.045C104.713 733.45 105.337 733.838 105.984 734.173C106.551 734.456 107.13 734.712 107.721 734.941C108.322 735.143 108.933 735.337 109.539 735.485C110.246 735.631 110.954 735.759 111.675 735.841C112.334 735.892 112.995 735.924 113.658 735.919C114.333 735.888 115.01 735.82 115.689 735.733C116.332 735.626 116.97 735.472 117.591 735.299C118.289 735.076 118.981 734.825 119.666 734.527C120.154 734.297 120.615 734.038 121.078 733.76C121.708 733.357 122.302 732.933 122.88 732.471L122.863 732.451ZM131.897 731.713C129.888 734.994 127.021 737.694 123.615 739.487C119.893 741.45 115.646 742.442 111.438 742.084C108.52 741.834 105.765 741.016 103.168 739.703C100.76 738.433 98.5892 736.721 96.822 734.661C95.799 733.469 94.9054 732.149 94.1934 730.741C92.5524 727.513 91.6335 723.87 91.8835 720.234C92.1041 717.102 92.7558 713.994 94.1596 711.164C95.5211 708.404 97.418 705.989 99.5223 704.235C100.37 703.508 101.275 702.868 102.222 702.277C102.946 701.845 103.71 701.479 104.473 701.132L104.539 701.11C105.217 700.803 105.929 700.516 106.629 700.275C106.761 700.23 106.894 700.185 107.026 700.14C107.196 700.079 107.385 700.02 107.564 699.969C107.79 699.894 108.016 699.838 108.241 699.781C108.297 699.767 108.344 699.761 108.382 699.746C108.635 699.682 108.879 699.627 109.122 699.572C109.376 699.509 109.628 699.464 109.88 699.418L109.936 699.404C110.188 699.359 110.449 699.324 110.701 699.278C110.919 699.194 111.136 699.128 111.361 699.071C111.464 699.051 111.577 699.023 111.679 699.003C111.782 698.984 111.903 698.965 112.015 698.955C112.247 698.927 112.488 698.908 112.7 698.897C112.895 698.884 113.097 698.881 113.29 698.887C113.438 698.88 113.576 698.881 113.723 698.892C113.869 698.903 114.007 698.905 114.154 698.916C114.979 698.961 115.807 699.088 116.621 699.279L116.631 699.271C116.704 699.276 116.759 699.281 116.822 699.295C116.959 699.314 117.096 699.334 117.224 699.344C117.379 699.365 117.542 699.396 117.706 699.427C118.542 699.564 119.356 699.755 120.176 699.993C120.42 700.057 120.662 700.14 120.904 700.223C120.984 700.257 121.066 700.272 121.101 700.293C122.06 700.634 122.97 701.016 123.865 701.48C125.902 702.538 127.8 703.972 129.355 705.665C129.592 705.941 129.82 706.207 130.057 706.483C130.116 706.552 130.184 706.631 130.242 706.718C130.342 706.855 130.45 707.001 130.549 707.156C130.624 707.263 130.69 707.36 130.755 707.475L130.772 707.495C130.772 707.495 130.78 707.505 130.789 707.515C131.003 707.725 131.206 707.961 131.399 708.206C131.893 708.842 132.287 709.6 132.646 710.318C132.725 710.489 132.814 710.653 132.893 710.824C132.972 710.996 133.051 711.168 133.121 711.33C133.185 711.464 133.24 711.587 133.293 711.73C133.388 711.939 133.472 712.158 133.558 712.358C133.575 712.377 133.573 712.414 133.59 712.434L133.705 712.728C134.41 714.586 134.848 716.572 135 718.563C135.359 723.148 134.286 727.799 131.877 731.73L131.897 731.713Z" fill="#AE306F"/>
<path d="M536.749 381.258C535.082 382.825 532.35 382.671 530.206 383.023C521.906 383.918 510.759 381.953 507.133 373.482C505.915 370.387 507.69 364.621 510.918 362.86C511.433 362.503 511.979 362.223 512.558 362C513.583 361.6 514.674 361.416 515.745 361.387C515.921 361.373 516.085 361.385 516.26 361.39C516.48 361.406 516.711 361.396 516.922 361.403C517.371 361.428 517.801 361.47 518.247 361.532C518.81 361.63 519.381 361.757 519.919 361.945C526.033 363.388 531.334 371.02 534.603 375.588C535.451 377.273 537.838 379.297 536.749 381.258Z" fill="#AE306F"/>
<path d="M551.92 354.617C550.828 356.615 548.168 357.323 546.241 358.327C538.633 361.742 527.426 363.336 521.344 356.408C519.22 353.834 519.128 347.805 521.661 345.135C522.048 344.649 522.479 344.194 522.969 343.808C523.823 343.109 524.801 342.594 525.805 342.229C525.966 342.177 526.126 342.124 526.295 342.082C526.512 342.016 526.72 341.94 526.936 341.892C527.358 341.786 527.799 341.681 528.228 341.604C528.787 341.517 529.372 341.461 529.951 341.477C536.214 340.961 543.612 346.571 548.127 349.899C549.462 351.235 552.355 352.413 551.92 354.617Z" fill="#AE306F"/>
<path d="M558.786 327.869C558.112 330.055 555.654 331.258 553.967 332.621C547.187 337.48 536.512 341.269 529.178 335.672C526.594 333.578 525.303 327.689 527.255 324.56C527.536 324.01 527.871 323.483 528.266 323.007C528.976 322.159 529.82 321.469 530.738 320.903C530.883 320.813 531.036 320.733 531.19 320.652C531.391 320.548 531.584 320.434 531.775 320.338C532.177 320.148 532.578 319.957 532.995 319.805C533.534 319.616 534.09 319.447 534.651 319.342C540.695 317.594 549.051 321.629 554.138 323.988C555.714 325.047 558.781 325.631 558.786 327.869Z" fill="#AE306F"/>
<path d="M563.36 304.134C562.687 306.32 560.229 307.522 558.541 308.885C551.762 313.745 541.087 317.533 533.752 311.937C531.168 309.843 529.869 303.943 531.829 300.824C532.102 300.265 532.445 299.748 532.841 299.272C533.532 298.422 534.386 297.723 535.304 297.158C535.449 297.068 535.603 296.987 535.756 296.907C535.957 296.803 536.15 296.689 536.342 296.593C536.743 296.402 537.153 296.222 537.561 296.06C538.092 295.861 538.656 295.701 539.217 295.597C545.253 293.839 553.617 297.884 558.704 300.243C560.272 301.292 563.348 301.886 563.352 304.124L563.36 304.134Z" fill="#AE306F"/>
<path d="M556.737 275.241C553.605 282.976 546.6 291.879 537.418 291.067C534.114 290.686 529.876 286.385 529.853 282.709C529.789 282.097 529.8 281.472 529.874 280.86C530.013 279.766 530.369 278.725 530.847 277.767C530.923 277.617 530.999 277.466 531.093 277.316C531.208 277.132 531.307 276.928 531.414 276.733C531.654 276.356 531.895 275.978 532.161 275.63C532.508 275.178 532.901 274.738 533.318 274.347C537.489 269.638 546.712 268.583 552.274 267.848C554.167 267.9 557.081 266.751 558.281 268.647C558.877 270.856 557.437 273.186 556.755 275.243L556.737 275.241Z" fill="#AE306F"/>
<path d="M524.115 285.374C523.435 286.197 522.615 286.935 521.652 287.488C521.121 287.806 520.558 288.067 519.964 288.252C516.593 289.707 510.949 287.536 509.272 284.664C504.854 276.565 510.219 266.589 516.051 260.626C517.654 259.165 519.225 256.927 521.479 256.584C523.699 256.938 523.81 260.058 524.6 261.776C526.159 267.161 528.878 276.051 526.234 281.742C526.035 282.289 525.792 282.823 525.515 283.317C525.293 283.696 525.052 284.073 524.803 284.441C524.669 284.624 524.527 284.798 524.403 284.972C524.301 285.112 524.198 285.251 524.087 285.381L524.115 285.374Z" fill="#AE306F"/>
<path d="M499.957 286.291C499.277 287.114 498.456 287.852 497.502 288.415C496.971 288.733 496.4 288.984 495.814 289.179C492.435 290.625 486.799 288.463 485.122 285.591C480.704 277.492 486.069 267.516 491.901 261.553C493.504 260.092 495.075 257.855 497.329 257.511C499.549 257.865 499.66 260.985 500.46 262.695C502.019 268.08 504.729 276.96 502.094 282.661C501.895 283.207 501.644 283.731 501.375 284.236C501.153 284.615 500.912 284.992 500.663 285.36C500.539 285.535 500.387 285.716 500.263 285.891C500.161 286.031 500.05 286.16 499.947 286.3L499.957 286.291Z" fill="#AE306F"/>
<path d="M476.15 290.506C475.694 290.932 475.188 291.28 474.649 291.589C471.625 293.687 465.672 292.671 463.458 290.191C457.524 283.136 460.792 272.291 465.341 265.291C466.625 263.538 467.72 261.025 469.86 260.25C472.104 260.154 472.83 263.193 473.948 264.714C476.551 269.682 480.974 277.846 479.513 283.959C479.431 284.542 479.288 285.093 479.127 285.642C478.983 286.073 478.824 286.466 478.646 286.876C478.557 287.072 478.44 287.274 478.36 287.48C478.284 287.631 478.217 287.791 478.141 287.942C477.627 288.879 476.97 289.768 476.15 290.506Z" fill="#AE306F"/>
<path d="M455.492 299.509C453.262 302.432 447.293 303.311 444.419 301.637C436.588 296.758 436.348 285.433 438.491 277.384C439.172 275.327 439.427 272.594 441.229 271.185C443.324 270.396 444.962 273.062 446.507 274.166C450.526 278.091 457.257 284.479 457.763 290.751C457.858 291.32 457.906 291.894 457.918 292.466C457.911 292.917 457.887 293.348 457.844 293.796C457.827 294.015 457.774 294.232 457.747 294.46C457.734 294.625 457.702 294.807 457.671 294.97C457.48 296.024 457.133 297.074 456.582 298.027C456.273 298.565 455.903 299.07 455.483 299.517L455.492 299.509Z" fill="#AE306F"/>
<path d="M440.396 310.407C440.08 314.066 435.507 318.007 432.173 318.13C422.942 318.199 416.693 308.763 414.198 300.793C413.669 298.681 412.428 296.238 413.209 294.097C414.561 292.304 417.374 293.688 419.263 293.795C424.753 294.969 433.859 296.769 437.638 301.79C438.038 302.217 438.37 302.684 438.685 303.15C438.923 303.527 439.133 303.911 439.333 304.304C439.438 304.506 439.514 304.714 439.618 304.915C439.698 305.069 439.76 305.221 439.831 305.383C440.234 306.371 440.503 307.441 440.547 308.549C440.582 309.169 440.526 309.782 440.424 310.4L440.396 310.407Z" fill="#AE306F"/>
<path d="M429.276 334.51C428.893 334.941 428.45 335.322 427.982 335.654C427.145 336.253 426.211 336.661 425.243 336.927C425.092 336.971 424.933 337.005 424.774 337.039C424.568 337.079 424.361 337.136 424.164 337.186C423.763 337.256 423.353 337.317 422.945 337.36C422.417 337.402 421.873 337.407 421.342 337.366C415.491 337.426 408.993 331.728 405.007 328.339C403.857 326.999 401.248 325.713 401.798 323.702C402.947 321.912 405.459 321.45 407.308 320.633C414.611 317.959 425.117 317.223 430.312 324.074C432.117 326.597 431.8 332.207 429.284 334.52L429.276 334.51Z" fill="#AE306F"/>
<path d="M430.362 356.331C430.195 356.475 430.027 356.619 429.86 356.763C429.508 357.03 429.156 357.298 428.787 357.546C428.313 357.851 427.812 358.144 427.279 358.361C421.81 361.378 412.808 359.3 407.354 358.129C405.592 357.451 402.49 357.564 401.993 355.39C402.166 353.12 404.286 351.404 405.621 349.71C411.131 343.511 420.65 337.498 429.005 341.312C431.977 342.782 434.518 348.215 433.306 351.667C433.15 352.263 432.949 352.846 432.667 353.395C432.178 354.38 431.495 355.239 430.74 355.973C430.611 356.083 430.492 356.203 430.355 356.303L430.362 356.331Z" fill="#AE306F"/>
<path d="M442.8 376.249C438.676 380.952 429.504 382.047 423.979 382.785C422.103 382.753 419.207 383.904 418.006 382.026C417.409 379.835 418.82 377.512 419.502 375.455C422.576 367.753 429.497 358.872 438.636 359.634C441.932 360.005 446.165 364.26 446.199 367.909C446.263 368.521 446.262 369.138 446.188 369.749C446.059 370.835 445.721 371.877 445.243 372.835C445.167 372.986 445.091 373.137 444.997 373.286C444.882 373.471 444.783 373.675 444.676 373.869C444.445 374.238 444.205 374.616 443.939 374.964C443.591 375.416 443.217 375.857 442.8 376.249Z" fill="#AE306F"/>
<path d="M462.499 388.018C460.569 394.002 452.543 398.666 447.745 401.568C445.987 402.29 443.783 404.506 441.926 403.26C440.497 401.475 440.87 398.76 440.676 396.599C440.447 388.259 443.273 377.297 452.023 374.355C455.21 373.383 460.803 375.615 462.315 378.971C462.623 379.511 462.864 380.091 463.031 380.683C463.347 381.729 463.446 382.842 463.393 383.897C463.389 384.071 463.367 384.245 463.344 384.418C463.318 384.646 463.309 384.875 463.284 385.085C463.214 385.522 463.144 385.959 463.037 386.392C462.894 386.943 462.732 387.492 462.489 388.026L462.499 388.018Z" fill="#AE306F"/>
<path d="M478.462 408.912C477.246 410.366 476.337 413.354 474.107 413.128C472.013 412.223 471.068 409.646 469.899 407.826C465.804 400.562 463.192 389.544 469.55 382.857C471.911 380.505 477.917 379.868 480.801 382.132C481.328 382.467 481.804 382.862 482.239 383.31C482.999 384.095 483.619 385.017 484.06 385.99C484.123 386.142 484.203 386.296 484.264 386.466C484.34 386.674 484.434 386.884 484.52 387.084C484.673 387.501 484.807 387.916 484.921 388.348C485.054 388.902 485.167 389.472 485.196 390.045C486.28 396.232 481.378 404.117 478.48 408.914L478.462 408.912Z" fill="#AE306F"/>
<path d="M511.072 399.544C510.892 401.427 511.824 404.408 509.855 405.482C507.612 405.918 505.386 404.321 503.387 403.487C495.897 399.804 487.519 392.194 488.979 383.089C489.596 379.822 494.186 375.9 497.861 376.134C498.479 376.117 499.101 376.165 499.708 376.294C500.787 376.514 501.814 376.933 502.73 377.482C502.871 377.566 503.02 377.661 503.159 377.763C503.343 377.897 503.537 378.004 503.72 378.138C504.078 378.395 504.426 378.661 504.763 378.954C505.185 379.327 505.595 379.745 505.958 380.187C510.347 384.683 510.744 393.958 511.071 399.562L511.072 399.544Z" fill="#AE306F"/>
<path d="M479.529 370.084C487.864 369.21 494.506 363.253 499.775 357.192C512.167 340.451 516.882 319.45 520.38 299.323C500.863 299.407 479.958 297.535 462.159 307.078C451.112 312.965 443.88 324.714 443.316 337.174C442.573 344.861 446.234 352.018 451.563 357.351C458.694 364.884 468.832 371.035 479.539 370.075L479.529 370.084ZM503.977 360.413C497.849 367.348 489.947 373.65 480.528 374.855C463.814 376.572 447.121 364.516 440.098 349.893C433.659 332.938 443.131 312.337 458.645 303.9C476.103 294.239 501.925 294.424 521.278 296.961C521.67 296.162 522.287 295.205 523.144 294.949C526.482 297.063 525.504 301.666 525.031 304.963C523.902 312.638 522.204 320.289 519.864 327.669C516.085 339.176 511.618 350.896 503.967 360.422L503.977 360.413Z" fill="#AE306F"/>
<path d="M446.598 415.881C481.67 430.933 517.096 418.924 541.021 390.643C550.61 378.052 556.206 362.882 560.961 347.988C566.334 330.067 570.646 311.825 574.439 293.497C577.572 277.909 579.928 262.114 583.63 246.671C540.825 250.539 495.835 242.012 454.781 257.91C430.596 266.569 407.859 282.659 397.27 306.664C383.909 335.393 395.961 367.838 415.212 390.77C423.852 401.337 434.328 410.294 446.608 415.872L446.598 415.881ZM427.891 501.839C421.553 514.43 403.46 513.72 394.743 504.161C391.459 500.135 390.684 494.367 392.355 489.495C390.833 493.384 385.064 494.058 381.29 494.046C381.29 494.046 381.29 494.046 381.262 494.053C381.262 494.053 381.243 494.052 381.225 494.05C381.225 494.05 381.215 494.059 381.197 494.057C375.027 493.706 367.944 491.692 364.068 486.618C362.429 483.97 362.734 480.218 364.634 477.767C366.79 475.215 370.545 474.986 373.635 475.397C380.347 476.241 391.398 480.924 392.669 488.267C392.627 488.577 392.56 488.857 392.474 489.136C392.901 488 393.464 486.901 394.158 485.895C396.66 482.311 400.205 478.807 404.842 478.728C413.262 478.312 424.31 486.88 418.837 495.734C416.847 499.615 412.517 502.424 408.086 501.607C406.896 501.277 405.921 500.3 405.512 499.145C405.92 498.864 406.441 498.673 406.905 498.497C409.233 497.92 411.393 498.444 413.164 496.479C417.188 491.4 414.046 485.526 408.197 483.993C402.344 481.898 397.915 488.06 397.117 493.21C396.518 497.676 398.74 502.339 402.85 504.338C408.05 507.267 415.235 507.346 419.803 503.22C425.254 496.472 423.917 487.32 422.075 479.491C421.252 476.399 419.55 473.617 417.924 470.906C417.498 469.851 415.585 467.781 414.674 466.082C414.498 465.857 414.313 465.621 414.147 465.388C410.515 460.019 407.951 453.562 408.803 446.98C409.429 438.419 412.589 430.318 419.142 424.557C423.61 420.792 429.006 417.051 434.821 415.774C426.429 410.759 418.788 404.109 412.111 395.929C403.983 386.617 397.039 375.673 392.372 363.955C391.503 366.292 390.097 368.422 388.69 370.211C382.044 378.515 372.724 384.58 362.13 385.972C350.275 387.608 336.862 383.721 330.039 373.358C329.269 372.222 328.584 371.064 328.001 369.906C313.545 357.965 288.99 377.976 305.402 392.635C308.998 395.092 313.572 393.682 316.82 391.288C321.72 387.528 320.66 379.832 315.523 376.798C314.361 375.982 312.984 376.65 311.807 376.993C309.604 377.635 308.492 379.649 306.755 380.935C306.46 381.188 306.087 381.611 305.656 381.587C305.252 381.575 304.84 381.295 304.547 381.033C302.645 379.175 303.742 376.027 305.56 374.518C308.436 372.067 312.774 370.483 316.484 371.697C323.049 374.582 326.82 382.844 324.158 389.611C321.521 396.407 313.247 400.222 306.287 398.531C302.281 397.571 299.204 394.464 297.106 391.063C287.163 373.933 309.554 354.769 325.837 363.875C321.802 345.935 337.937 327.915 357.864 331.738C365.643 333.446 370.869 341.33 371.792 348.905C373.169 359.083 364.488 369.321 353.956 367.735C342.32 366.137 335.222 352.862 345.943 344.86C349.545 342.778 356.835 342.202 359.068 346.479C359.596 347.771 359.511 349.367 358.306 350.195C358.251 350.191 358.189 350.159 358.144 350.146C356.488 350.011 355.249 348.866 353.698 348.555C349.334 347.715 346.027 351.357 346.021 355.537C347.842 363.401 358.822 365.869 363.495 359.053C367.214 354.356 367.152 347.685 364.422 342.569C359.492 333.335 346.813 335.507 339.767 340.972C328.726 348.821 328.077 365.05 337.285 374.564C345.129 382.529 357.867 382.958 367.89 379.387C374.621 376.724 380.15 371.963 384.689 366.426C386.88 363.656 388.862 360.603 389.536 357.082C389.598 356.875 389.65 356.676 389.729 356.489C384.792 340.349 384.392 323.156 391.183 307.046C400.607 283.818 421.086 266.672 443.967 257.37C469.468 245.717 497.673 243.138 525.379 243.246C539.532 243.111 553.672 243.5 567.824 243.623C572.233 243.637 576.674 243.589 581.061 243.777C582.402 243.944 584.144 243.561 585.098 244.693C587.243 242.647 588.761 245.672 588.744 247.706C587.869 253.983 586.399 260.205 585.35 266.478C583.702 275.523 582.207 284.607 580.441 293.633C577.756 307.331 574.427 320.915 570.973 334.435C566.815 350.304 562.194 366.211 554.436 380.756C541.667 404.613 517.35 422.35 490.445 426.106C472.552 428.8 455.546 426.268 440.602 418.922C438.914 419.207 437.202 419.445 435.626 420.181C426.749 424.052 418.645 431.075 415.73 440.557C412.56 450.24 414.379 458.859 421.631 466.134C428.572 473.625 439.423 479.232 449.613 475.774C464.534 470.275 461.696 449.922 448.879 443.658C442.599 440.647 434.753 446.217 435.269 453.079C436.569 462.468 448.89 460.278 443.595 450.879C442.976 449.459 443.415 448.535 444.869 448.057C448.251 446.934 451.093 450.346 451.249 453.498C451.478 469.913 430.011 468.763 428.868 453.474C428.252 445.26 435.35 437.304 443.612 437.143C450.857 436.793 457.075 441.706 460.945 447.452C465.964 454.437 467.144 464.305 462.558 471.8C457.092 481.759 444.164 483.82 434.095 480.519C431.957 479.822 429.892 478.891 427.923 477.792C428.742 479.963 429.298 482.206 429.543 484.425C430.276 490.263 430.839 496.521 427.872 501.856L427.891 501.839Z" fill="#AE306F"/>
<path d="M395.237 458.862C396.464 463.78 390.61 467.007 386.747 468.526C380.895 470.519 373.58 471.305 368.11 468.06C365.589 466.22 364.473 462.627 365.308 459.652C366.343 456.472 369.744 454.853 372.759 454.08C379.299 452.351 391.3 452.54 395.236 458.88L395.237 458.862Z" fill="#AE306F"/>
<path d="M375.499 436.88C371.176 441.291 364.997 445.276 358.642 444.828C355.569 444.317 352.949 441.603 352.352 438.575C351.849 435.277 354.158 432.286 356.506 430.237C361.563 425.743 372.365 420.528 378.744 424.412C382.041 428.255 378.289 433.75 375.521 436.845L375.501 436.861L375.499 436.88Z" fill="#AE306F"/>
<path d="M356.58 414.294C355.552 420.394 352.754 427.26 347.246 430.55C344.428 431.873 340.736 431.158 338.516 428.991C336.225 426.56 336.42 422.8 337.184 419.783C338.782 413.212 344.672 402.751 352.135 402.317C357.002 403.581 357.079 410.17 356.59 414.286L356.58 414.294Z" fill="#AE306F"/>
<path d="M329.27 424.456C327.152 426.753 323.462 427.456 320.595 426.289C317.561 424.906 316.314 421.34 315.906 418.252C314.924 411.566 316.459 399.659 323.204 396.454C328.236 395.798 330.774 401.985 331.85 405.99C333.175 412.02 333.12 419.373 329.27 424.456Z" fill="#AE306F"/>
<path d="M310.285 426.577C309.134 429.482 305.944 431.466 302.846 431.405C299.519 431.197 297.078 428.313 295.583 425.593C292.257 419.704 289.428 408.034 294.574 402.626C298.993 400.22 303.554 404.997 306.006 408.333C309.424 413.492 312.063 420.415 310.277 426.567L310.285 426.577Z" fill="#AE306F"/>
<path d="M293.923 434.702C294.63 437.739 293.142 441.189 290.562 442.907C287.704 444.641 284.069 443.654 281.274 442.271C275.192 439.33 266.207 431.352 267.359 423.982C269.618 419.477 276.099 420.81 280.029 422.16C285.783 424.459 291.882 428.635 293.923 434.702Z" fill="#AE306F"/>
<path d="M284.138 459.844C282.139 462.518 278.393 462.978 275.299 462.742C268.548 462.291 257.234 458.279 255.533 451.013C255.942 446.026 262.369 444.804 266.503 444.577C266.521 444.578 266.539 444.579 266.567 444.572C272.766 444.539 280.001 446.132 284.188 450.991C285.982 453.54 285.897 457.309 284.147 459.854L284.138 459.844Z" fill="#AE306F"/>
<path d="M284.259 477.569C283.513 480.827 280.272 482.752 277.348 483.79C270.993 486.113 259.029 487.005 254.52 481.053C252.868 476.278 258.375 472.527 262.062 470.663C267.705 468.148 274.943 466.693 280.7 469.434C283.376 471.038 284.823 474.518 284.25 477.559L284.259 477.569Z" fill="#AE306F"/>
<path d="M288.796 501.717C284.149 506.629 273.837 512.774 267.158 509.456C263.524 505.92 266.803 500.111 269.275 496.792L269.295 496.775C273.213 492.01 279.026 487.501 285.397 487.389C288.509 487.626 291.35 490.099 292.209 493.074C292.993 496.319 290.955 499.488 288.795 501.735L288.796 501.717Z" fill="#AE306F"/>
<path d="M306.066 515.041C303.275 521.2 295.558 530.389 288.144 529.445C283.566 527.3 284.748 520.743 286.006 516.806C285.985 516.841 285.982 516.878 285.961 516.913L286.019 516.761C288.173 510.977 292.179 504.82 298.167 502.607C301.183 501.815 304.676 503.214 306.462 505.754C308.263 508.57 307.376 512.223 306.074 515.051L306.066 515.041Z" fill="#AE306F"/>
<path d="M327.979 516.716C329.203 523.364 328.087 535.322 321.462 538.767C316.49 539.612 313.719 533.572 312.493 529.611C310.944 523.619 310.716 516.235 314.392 511.01C316.424 508.633 320.088 507.799 323 508.859C326.079 510.135 327.45 513.646 327.979 516.716Z" fill="#AE306F"/>
<path d="M350.25 532.299C345.941 534.954 341.107 530.377 338.489 527.166L338.463 527.137C334.8 522.171 331.833 515.444 333.275 509.228C334.264 506.275 337.349 504.107 340.449 504.012C343.78 504.046 346.37 506.784 348.009 509.432C351.634 515.132 355.093 526.638 350.24 532.308L350.25 532.299Z" fill="#AE306F"/>
<path d="M373.72 517.204C370.298 520.911 364.421 517.811 361.03 515.435C356.145 511.637 351.452 505.929 351.176 499.545C351.348 496.437 353.725 493.525 356.678 492.6C359.902 491.732 363.122 493.69 365.42 495.79C370.443 500.307 376.86 510.456 373.719 517.223L373.72 517.204Z" fill="#AE306F"/>
<path d="M301.739 490.184C319.503 507.514 350.124 498.619 355.97 474.629C362.204 450.614 339.702 428.419 315.862 434.968C291.475 441.439 283.504 472.881 301.721 490.182L301.739 490.184ZM358.598 482.058C347.503 507.626 312.288 512.046 295.112 490.157C278.427 469.437 288.895 437.716 314.564 430.984C344.713 422.715 371.281 453.535 358.58 482.056L358.598 482.058Z" fill="#AE306F"/>
<path d="M333.863 479.451C334.445 478.952 335.001 478.424 335.531 477.866C336.004 477.34 336.442 476.793 336.844 476.226C337.208 475.673 337.546 475.11 337.857 474.535C338.141 473.949 338.417 473.353 338.657 472.736C338.87 472.127 339.054 471.524 339.211 470.91C339.354 470.239 339.469 469.576 339.539 468.9C339.59 468.241 339.622 467.58 339.617 466.917C339.594 466.252 339.525 465.593 339.427 464.941C339.306 464.242 339.148 463.539 339.025 463.097C339.004 463.012 338.973 462.936 338.943 462.842C338.736 462.182 338.48 461.545 338.207 460.908C337.89 460.239 337.534 459.586 337.197 459.053C336.968 458.686 336.775 458.321 336.593 457.93C336.562 457.854 336.531 457.778 336.5 457.702C336.476 457.654 336.453 457.588 336.438 457.55C336.378 457.361 336.319 457.173 336.26 456.984C336.156 456.902 336.061 456.812 335.967 456.722C335.192 456.018 334.517 455.212 333.732 454.517C333.266 454.113 332.78 453.726 332.272 453.374C331.686 452.97 331.089 452.593 330.461 452.26C330.407 452.237 330.372 452.216 330.328 452.185C330.328 452.185 330.328 452.185 330.32 452.175C330.033 452.08 329.744 452.003 329.447 451.915C329.123 451.817 328.779 451.736 328.454 451.655C327.793 451.504 327.13 451.389 326.472 451.32L326.435 451.317C325.521 451.229 324.612 451.206 323.699 451.219C322.85 451.246 321.988 451.318 321.149 451.457C320.514 451.574 319.878 451.71 319.257 451.883C318.624 452.084 317.991 452.302 317.381 452.569C316.818 452.83 316.269 453.147 315.747 453.475C315.032 453.918 314.35 454.4 313.751 454.897C313.229 455.345 312.732 455.823 312.26 456.33C311.778 456.864 311.322 457.41 310.909 457.986C310.527 458.537 310.189 459.1 309.868 459.683C309.858 459.692 309.847 459.718 309.846 459.737C309.532 460.348 309.263 460.972 309.012 461.616C308.778 462.261 308.59 462.919 308.428 463.588C308.316 464.095 308.232 464.595 308.174 465.106C308.12 465.7 308.102 466.297 308.102 466.896C308.132 467.589 308.209 468.276 308.295 468.955C308.438 469.739 308.599 470.525 308.826 471.288C309.047 472.004 309.307 472.706 309.604 473.391C309.913 474.05 310.251 474.684 310.628 475.302C311.039 475.941 311.481 476.554 311.96 477.153C312.425 477.695 312.929 478.203 313.443 478.702C313.987 479.177 314.542 479.624 315.109 480.045C315.713 480.45 316.337 480.838 316.984 481.173C317.551 481.456 318.13 481.712 318.721 481.941C319.322 482.143 319.933 482.337 320.539 482.485C321.246 482.631 321.954 482.759 322.675 482.841C323.334 482.892 323.995 482.924 324.658 482.919C325.333 482.888 326.01 482.82 326.689 482.733C327.332 482.626 327.97 482.472 328.591 482.299C329.289 482.076 329.981 481.825 330.666 481.527C331.154 481.297 331.615 481.038 332.078 480.76C332.708 480.357 333.302 479.933 333.88 479.471L333.863 479.451ZM342.897 478.713C340.888 481.994 338.021 484.694 334.615 486.487C330.893 488.45 326.646 489.442 322.438 489.084C319.52 488.834 316.765 488.016 314.168 486.703C311.76 485.433 309.589 483.721 307.822 481.661C306.799 480.469 305.905 479.149 305.193 477.741C303.552 474.513 302.633 470.87 302.883 467.234C303.104 464.102 303.756 460.994 305.16 458.164C306.521 455.404 308.418 452.989 310.522 451.235C311.37 450.508 312.275 449.868 313.222 449.277C313.946 448.845 314.71 448.479 315.473 448.132L315.539 448.11C316.217 447.803 316.929 447.516 317.629 447.275C317.761 447.23 317.894 447.185 318.026 447.14C318.196 447.079 318.385 447.02 318.564 446.969C318.79 446.894 319.016 446.838 319.241 446.781C319.297 446.767 319.344 446.761 319.382 446.746C319.635 446.682 319.879 446.627 320.122 446.572C320.376 446.509 320.628 446.464 320.88 446.418L320.936 446.404C321.188 446.359 321.449 446.324 321.701 446.278C321.919 446.194 322.136 446.128 322.361 446.071C322.464 446.051 322.577 446.023 322.679 446.003C322.782 445.984 322.903 445.965 323.015 445.955C323.247 445.927 323.488 445.908 323.7 445.897C323.895 445.884 324.097 445.881 324.29 445.887C324.438 445.88 324.576 445.881 324.723 445.892C324.869 445.903 325.007 445.905 325.154 445.916C325.979 445.961 326.807 446.088 327.621 446.279L327.631 446.271C327.704 446.276 327.759 446.281 327.822 446.295C327.959 446.314 328.096 446.334 328.224 446.344C328.379 446.365 328.542 446.396 328.706 446.427C329.542 446.564 330.356 446.755 331.176 446.993C331.42 447.057 331.662 447.14 331.904 447.223C331.984 447.257 332.066 447.272 332.101 447.293C333.06 447.634 333.97 448.016 334.865 448.48C336.902 449.538 338.8 450.972 340.355 452.665C340.592 452.941 340.82 453.207 341.057 453.483C341.116 453.552 341.184 453.631 341.242 453.718C341.342 453.855 341.45 454.001 341.549 454.156C341.624 454.263 341.69 454.36 341.755 454.475L341.772 454.495C341.772 454.495 341.78 454.505 341.789 454.515C342.003 454.725 342.206 454.961 342.399 455.206C342.893 455.842 343.287 456.6 343.646 457.318C343.725 457.489 343.814 457.653 343.893 457.824C343.972 457.996 344.051 458.168 344.121 458.33C344.185 458.464 344.24 458.587 344.293 458.73C344.388 458.939 344.472 459.158 344.558 459.358C344.575 459.377 344.573 459.414 344.59 459.434L344.705 459.728C345.41 461.586 345.848 463.572 346 465.563C346.359 470.148 345.286 474.799 342.877 478.73L342.897 478.713Z" fill="#AE306F"/>
</svg>
