<svg width="248" height="340" viewBox="0 0 248 340" fill="none" xmlns="http://www.w3.org/2000/svg">
<mask id="mask0_2317_5674" style="mask-type:luminance" maskUnits="userSpaceOnUse" x="80" y="145" width="43" height="40">
<path d="M120.781 145.976L80.6747 147.947L82.455 184.16L122.562 182.188L120.781 145.976Z" fill="white"/>
</mask>
<g mask="url(#mask0_2317_5674)">
<mask id="mask1_2317_5674" style="mask-type:luminance" maskUnits="userSpaceOnUse" x="48" y="91" width="152" height="157">
<path d="M199.83 148.07L134.058 91.4848L48.513 190.916L114.285 247.501L199.83 148.07Z" fill="white"/>
</mask>
<g mask="url(#mask1_2317_5674)">
<mask id="mask2_2317_5674" style="mask-type:luminance" maskUnits="userSpaceOnUse" x="48" y="91" width="152" height="157">
<path d="M199.828 148.069L134.056 91.4838L48.511 190.915L114.283 247.5L199.828 148.069Z" fill="white"/>
</mask>
<g mask="url(#mask2_2317_5674)">
<path d="M119.863 148.403C119.773 148.653 119.682 148.912 119.585 149.178C119.538 149.31 119.487 149.445 119.437 149.58C119.342 149.839 119.242 150.108 119.14 150.381C119.083 150.53 119.026 150.683 118.967 150.836C118.86 151.118 118.748 151.408 118.633 151.701C118.572 151.855 118.512 152.008 118.451 152.165C118.321 152.491 118.188 152.825 118.05 153.159C117.996 153.293 117.943 153.425 117.887 153.562C117.495 154.516 117.067 155.515 116.605 156.541C116.54 156.687 116.47 156.835 116.404 156.982C116.238 157.348 116.07 157.717 115.896 158.088C115.806 158.278 115.713 158.469 115.623 158.659C115.462 158.997 115.3 159.334 115.131 159.675C115.029 159.881 114.925 160.089 114.821 160.297C114.656 160.627 114.486 160.958 114.315 161.288C114.204 161.504 114.091 161.719 113.978 161.935C113.801 162.27 113.617 162.606 113.433 162.945C113.321 163.15 113.209 163.355 113.096 163.561C112.888 163.931 112.678 164.299 112.462 164.667C112.363 164.841 112.264 165.013 112.163 165.186C111.527 166.263 110.857 167.332 110.153 168.378C110.044 168.542 109.931 168.7 109.82 168.863C109.576 169.221 109.329 169.576 109.077 169.929C108.939 170.121 108.797 170.311 108.655 170.5C108.422 170.816 108.186 171.131 107.945 171.442C107.792 171.639 107.637 171.832 107.483 172.026C107.245 172.324 107.003 172.618 106.759 172.908C106.598 173.1 106.437 173.289 106.272 173.479C106.021 173.766 105.767 174.048 105.509 174.328C105.348 174.503 105.186 174.679 105.022 174.852C104.738 175.149 104.446 175.438 104.154 175.725C104.012 175.865 103.872 176.007 103.729 176.144C102.852 176.974 101.944 177.744 101.003 178.443C100.85 178.557 100.69 178.661 100.536 178.771C100.215 178.999 99.8917 179.225 99.5635 179.435C99.3758 179.555 99.1846 179.667 98.9951 179.781C98.6901 179.966 98.3832 180.144 98.0742 180.31C97.8693 180.421 97.664 180.525 97.4571 180.627C97.1505 180.781 96.8389 180.924 96.5255 181.062C96.315 181.153 96.1029 181.243 95.8891 181.328C95.566 181.455 95.2376 181.569 94.9091 181.678C94.7006 181.748 94.4937 181.819 94.2833 181.881C93.9195 181.987 93.5486 182.073 93.1777 182.156C92.9951 182.196 92.8162 182.246 92.6319 182.281C92.0759 182.386 91.5113 182.468 90.9374 182.518C89.6666 182.628 88.4006 182.803 87.1378 183.014C86.9109 183.051 86.6855 183.087 86.4604 183.128C85.2484 183.35 84.0433 183.616 82.8512 183.931C82.7578 183.954 82.6654 183.968 82.5736 183.992C82.5732 183.983 82.5696 183.972 82.5692 183.963C82.5567 183.865 82.5593 183.762 82.55 183.665C82.5128 183.251 82.4892 182.833 82.4912 182.409C82.4913 182.224 82.5079 182.034 82.5154 181.846C82.5289 181.5 82.5484 181.153 82.5874 180.799C82.6104 180.584 82.647 180.367 82.6791 180.151C82.7312 179.816 82.7878 179.477 82.8609 179.135C82.9092 178.907 82.9649 178.677 83.0222 178.447C83.1091 178.105 83.2064 177.758 83.3128 177.41C83.3852 177.178 83.4576 176.944 83.5376 176.71C83.6616 176.348 83.8036 175.982 83.9516 175.611C84.0412 175.386 84.1262 175.162 84.2263 174.933C84.4028 174.524 84.602 174.11 84.8057 173.693C84.8999 173.5 84.985 173.309 85.0852 173.115C85.4027 172.5 85.7442 171.879 86.1203 171.249C86.1217 171.246 86.126 171.241 86.1273 171.237C86.764 170.17 87.425 169.162 88.0934 168.182C88.2271 167.987 88.3607 167.788 88.4946 167.597C89.1516 166.663 89.8195 165.765 90.5001 164.908C90.6236 164.754 90.7474 164.604 90.8725 164.452C91.5282 163.645 92.1913 162.867 92.8624 162.128C92.9318 162.051 93.0009 161.969 93.0704 161.892C93.7883 161.113 94.513 160.379 95.2437 159.672C95.3922 159.529 95.5407 159.386 95.6892 159.245C96.4149 158.559 97.1433 157.9 97.8753 157.283C97.9661 157.207 98.0556 157.137 98.145 157.062C98.8407 156.482 99.5379 155.933 100.233 155.411C100.341 155.331 100.449 155.245 100.557 155.166C101.29 154.624 102.021 154.118 102.747 153.636C102.889 153.542 103.029 153.451 103.171 153.359C103.907 152.882 104.64 152.427 105.361 152.008C105.381 151.997 105.4 151.988 105.421 151.977C106.137 151.562 106.844 151.181 107.543 150.82C107.662 150.758 107.784 150.693 107.904 150.633C108.591 150.284 109.266 149.961 109.927 149.66C110.042 149.609 110.154 149.561 110.266 149.509C110.918 149.22 111.56 148.946 112.18 148.7C112.204 148.69 112.228 148.681 112.251 148.671C112.894 148.416 113.512 148.189 114.113 147.978C114.22 147.941 114.328 147.904 114.431 147.868C115.013 147.67 115.576 147.486 116.112 147.324C116.175 147.305 116.234 147.289 116.297 147.27C116.815 147.115 117.313 146.975 117.783 146.853C117.823 146.84 117.869 146.829 117.909 146.819C118.399 146.691 118.857 146.582 119.283 146.485C119.342 146.473 119.4 146.459 119.455 146.447C119.875 146.355 120.27 146.273 120.619 146.207C120.529 146.481 120.429 146.781 120.322 147.101C120.304 147.15 120.284 147.207 120.267 147.258C120.177 147.52 120.083 147.793 119.984 148.079C119.942 148.18 119.9 148.293 119.863 148.403Z" fill="#FFFCF5"/>
</g>
</g>
</g>
<mask id="mask3_2317_5674" style="mask-type:luminance" maskUnits="userSpaceOnUse" x="175" y="133" width="11" height="14">
<path d="M184.953 133.067L175.608 133.527L176.24 146.376L185.585 145.917L184.953 133.067Z" fill="white"/>
</mask>
<g mask="url(#mask3_2317_5674)">
<mask id="mask4_2317_5674" style="mask-type:luminance" maskUnits="userSpaceOnUse" x="48" y="91" width="152" height="157">
<path d="M199.852 148.075L134.08 91.4897L48.5345 190.921L114.307 247.506L199.852 148.075Z" fill="white"/>
</mask>
<g mask="url(#mask4_2317_5674)">
<mask id="mask5_2317_5674" style="mask-type:luminance" maskUnits="userSpaceOnUse" x="48" y="91" width="152" height="157">
<path d="M199.852 148.07L134.08 91.4848L48.5345 190.916L114.307 247.501L199.852 148.07Z" fill="white"/>
</mask>
<g mask="url(#mask5_2317_5674)">
<path d="M176.62 137.745C176.416 137.171 176.206 136.631 175.99 136.128C177.525 134.925 180.246 133.221 182.285 133.621C183.261 133.812 184.022 134.513 184.609 135.762C186.615 140.027 181.749 144.046 178.97 145.91C178.489 143.516 177.705 140.817 176.62 137.745Z" fill="#FFFCF5"/>
</g>
</g>
</g>
<mask id="mask6_2317_5674" style="mask-type:luminance" maskUnits="userSpaceOnUse" x="165" y="133" width="13" height="25">
<path d="M175.98 133.12L165.856 133.618L167.024 157.37L177.148 156.873L175.98 133.12Z" fill="white"/>
</mask>
<g mask="url(#mask6_2317_5674)">
<mask id="mask7_2317_5674" style="mask-type:luminance" maskUnits="userSpaceOnUse" x="48" y="91" width="152" height="157">
<path d="M199.852 148.078L134.08 91.4926L48.5345 190.924L114.307 247.509L199.852 148.078Z" fill="white"/>
</mask>
<g mask="url(#mask7_2317_5674)">
<mask id="mask8_2317_5674" style="mask-type:luminance" maskUnits="userSpaceOnUse" x="48" y="91" width="152" height="157">
<path d="M199.852 148.078L134.08 91.4926L48.5345 190.924L114.307 247.509L199.852 148.078Z" fill="white"/>
</mask>
<g mask="url(#mask8_2317_5674)">
<path d="M168.706 140.722C167.957 138.826 167.166 137.282 166.328 136.044C167.177 134.917 168.67 133.343 170.015 133.48C171.328 133.61 172.684 135.477 173.832 138.729C177.49 149.093 177.173 153.844 174.746 156.981C173.842 153.3 172.245 149.404 170.531 145.224C169.934 143.772 169.316 142.272 168.706 140.722Z" fill="#FFFCF5"/>
</g>
</g>
</g>
<mask id="mask9_2317_5674" style="mask-type:luminance" maskUnits="userSpaceOnUse" x="56" y="135" width="102" height="85">
<path d="M153.855 135.77L56.8989 140.536L60.7658 219.192L157.722 214.425L153.855 135.77Z" fill="white"/>
</mask>
<g mask="url(#mask9_2317_5674)">
<mask id="mask10_2317_5674" style="mask-type:luminance" maskUnits="userSpaceOnUse" x="48" y="91" width="152" height="157">
<path d="M199.85 148.078L134.078 91.4926L48.5325 190.924L114.305 247.509L199.85 148.078Z" fill="white"/>
</mask>
<g mask="url(#mask10_2317_5674)">
<mask id="mask11_2317_5674" style="mask-type:luminance" maskUnits="userSpaceOnUse" x="48" y="91" width="152" height="157">
<path d="M199.85 148.076L134.078 91.4907L48.5325 190.922L114.305 247.507L199.85 148.076Z" fill="white"/>
</mask>
<g mask="url(#mask11_2317_5674)">
<path d="M106.694 210.544C103.825 209.538 100.859 208.501 97.7025 207.5C80.0546 201.898 66.0926 200.685 59.9083 200.436C62.54 197.893 67.366 193.774 73.8721 190.491C73.8885 190.483 73.9064 190.474 73.9242 190.464C75.2156 189.812 76.5265 189.217 77.8498 188.687C79.1745 188.154 80.5099 187.684 81.8486 187.28C84.9023 186.344 88.0483 185.734 91.2079 185.464C113.129 183.589 123.721 146.382 124.161 144.799C124.178 144.735 124.193 144.67 124.202 144.604C124.206 144.569 124.236 144.376 124.315 144.075C124.327 144.027 124.344 143.966 124.36 143.911C124.375 143.854 124.39 143.802 124.408 143.74C124.42 143.703 124.436 143.658 124.449 143.617C124.478 143.528 124.506 143.439 124.541 143.338C124.546 143.326 124.551 143.31 124.557 143.298C124.656 143.023 124.78 142.718 124.936 142.392C124.951 142.361 124.97 142.328 124.985 142.297C125.056 142.156 125.126 142.012 125.209 141.866C125.232 141.827 125.259 141.786 125.281 141.745C125.363 141.604 125.447 141.461 125.539 141.318C125.569 141.271 125.606 141.225 125.637 141.177C125.731 141.039 125.826 140.898 125.932 140.759C125.977 140.7 126.03 140.64 126.078 140.579C126.181 140.452 126.28 140.324 126.393 140.196C126.453 140.128 126.523 140.062 126.587 139.996C126.697 139.878 126.804 139.761 126.925 139.646C126.998 139.575 127.083 139.51 127.161 139.441C127.283 139.331 127.404 139.218 127.538 139.111C127.624 139.043 127.723 138.977 127.816 138.908C127.953 138.807 128.085 138.704 128.231 138.606C128.337 138.536 128.456 138.474 128.567 138.406C128.715 138.317 128.856 138.224 129.013 138.142C129.138 138.075 129.277 138.018 129.408 137.953C129.567 137.877 129.721 137.798 129.888 137.725C129.919 137.716 129.936 137.706 129.966 137.697C130.11 137.647 130.217 137.609 130.295 137.571C130.307 137.569 130.319 137.565 130.331 137.56C132.855 136.62 136.043 136.487 139.813 137.161C139.817 137.166 139.82 137.167 139.823 137.173C139.836 137.192 139.856 137.219 139.872 137.241C139.959 137.361 140.057 137.501 140.172 137.663C140.221 137.734 140.282 137.823 140.336 137.901C140.431 138.036 140.526 138.174 140.635 138.33C140.705 138.433 140.788 138.556 140.863 138.668C140.972 138.824 141.077 138.981 141.192 139.155C141.284 139.292 141.386 139.446 141.482 139.593C141.599 139.769 141.714 139.943 141.836 140.134C141.947 140.304 142.066 140.487 142.181 140.669C142.304 140.86 142.427 141.053 142.555 141.256C142.68 141.456 142.811 141.666 142.942 141.874C143.074 142.087 143.209 142.303 143.345 142.527C143.481 142.749 143.62 142.978 143.759 143.212C143.899 143.445 144.042 143.685 144.186 143.928C144.331 144.174 144.479 144.426 144.628 144.681C144.774 144.933 144.923 145.194 145.071 145.455C145.223 145.722 145.375 145.993 145.529 146.269C145.679 146.539 145.83 146.816 145.983 147.093C146.142 147.384 146.3 147.677 146.459 147.977C146.61 148.261 146.762 148.554 146.915 148.843C147.078 149.156 147.24 149.468 147.404 149.789C147.554 150.087 147.706 150.395 147.857 150.7C148.021 151.029 148.184 151.358 148.348 151.696C148.499 152.012 148.649 152.335 148.801 152.659C148.961 153.003 149.126 153.344 149.285 153.698C149.436 154.029 149.583 154.37 149.733 154.709C149.889 155.064 150.048 155.418 150.203 155.781C150.352 156.133 150.498 156.495 150.645 156.851C150.792 157.216 150.945 157.571 151.09 157.942C151.362 158.628 151.626 159.324 151.884 160.031C152.019 160.407 152.15 160.791 152.281 161.172C152.423 161.577 152.566 161.982 152.703 162.393C152.825 162.766 152.939 163.146 153.057 163.523C153.182 163.927 153.312 164.33 153.429 164.737C153.541 165.12 153.644 165.51 153.75 165.898C153.863 166.307 153.976 166.715 154.08 167.128C154.18 167.519 154.27 167.916 154.363 168.311C154.459 168.727 154.557 169.141 154.647 169.561C154.73 169.958 154.806 170.358 154.882 170.755C154.963 171.177 155.043 171.6 155.114 172.026C155.181 172.428 155.241 172.831 155.299 173.237C155.361 173.662 155.421 174.089 155.471 174.517C155.52 174.921 155.561 175.326 155.601 175.733C155.642 176.164 155.682 176.597 155.711 177.031C155.738 177.434 155.761 177.838 155.778 178.243C155.798 178.68 155.81 179.117 155.816 179.553C155.823 179.955 155.824 180.357 155.819 180.762C155.814 181.202 155.797 181.642 155.778 182.082C155.761 182.481 155.742 182.88 155.712 183.28C155.68 183.725 155.632 184.168 155.583 184.611C155.542 185.003 155.5 185.396 155.446 185.785C155.383 186.237 155.301 186.685 155.221 187.132C155.153 187.515 155.089 187.896 155.007 188.279C154.91 188.739 154.79 189.196 154.672 189.654C154.579 190.018 154.495 190.384 154.389 190.747C154.248 191.228 154.081 191.706 153.917 192.184C153.802 192.517 153.702 192.854 153.578 193.185C153.372 193.726 153.135 194.259 152.9 194.792C152.784 195.057 152.686 195.324 152.56 195.586C152.185 196.379 151.777 197.162 151.329 197.939C151.315 197.961 151.301 197.984 151.288 198.006C151.139 198.285 150.97 198.566 150.797 198.837C136.94 221.128 124.907 216.916 106.694 210.544Z" fill="#FFFCF5"/>
</g>
</g>
</g>
<mask id="mask12_2317_5674" style="mask-type:luminance" maskUnits="userSpaceOnUse" x="142" y="134" width="23" height="59">
<path d="M161.592 134.217L142.512 135.155L145.326 192.394L164.406 191.456L161.592 134.217Z" fill="white"/>
</mask>
<g mask="url(#mask12_2317_5674)">
<mask id="mask13_2317_5674" style="mask-type:luminance" maskUnits="userSpaceOnUse" x="48" y="91" width="152" height="157">
<path d="M199.86 148.081L134.087 91.4955L48.5423 190.927L114.314 247.512L199.86 148.081Z" fill="white"/>
</mask>
<g mask="url(#mask13_2317_5674)">
<mask id="mask14_2317_5674" style="mask-type:luminance" maskUnits="userSpaceOnUse" x="48" y="91" width="152" height="157">
<path d="M199.856 148.076L134.084 91.4907L48.5384 190.922L114.31 247.507L199.856 148.076Z" fill="white"/>
</mask>
<g mask="url(#mask14_2317_5674)">
<path d="M157.24 191.634C157.277 191.503 157.306 191.372 157.344 191.24C157.541 190.547 157.722 189.851 157.879 189.154C157.938 188.884 157.989 188.615 158.045 188.345C158.16 187.776 158.264 187.203 158.354 186.632C158.399 186.341 158.442 186.049 158.48 185.759C158.558 185.181 158.621 184.601 158.674 184.022C158.697 183.76 158.726 183.497 158.745 183.235C158.8 182.473 158.838 181.71 158.853 180.947C158.855 180.879 158.859 180.81 158.86 180.74C158.872 179.904 158.859 179.069 158.828 178.238C158.819 177.988 158.799 177.74 158.787 177.493C158.757 176.907 158.717 176.32 158.667 175.736C158.641 175.44 158.611 175.146 158.58 174.853C158.521 174.302 158.456 173.754 158.381 173.207C158.343 172.922 158.306 172.637 158.263 172.353C158.171 171.741 158.068 171.135 157.957 170.529C157.919 170.325 157.886 170.118 157.847 169.914C157.692 169.112 157.522 168.314 157.336 167.522C157.292 167.334 157.242 167.15 157.198 166.963C157.049 166.355 156.896 165.748 156.732 165.147C156.657 164.874 156.58 164.601 156.501 164.329C156.355 163.814 156.203 163.301 156.047 162.793C155.962 162.514 155.875 162.235 155.785 161.957C155.618 161.439 155.446 160.928 155.272 160.419C155.187 160.175 155.106 159.931 155.02 159.689C154.77 158.983 154.513 158.286 154.249 157.6C154.235 157.564 154.223 157.527 154.209 157.491C153.933 156.779 153.65 156.078 153.36 155.387C153.263 155.153 153.163 154.926 153.066 154.696C152.867 154.23 152.667 153.769 152.465 153.315C152.353 153.063 152.241 152.814 152.126 152.563C151.928 152.129 151.729 151.703 151.529 151.28C151.42 151.047 151.311 150.815 151.201 150.588C150.972 150.112 150.742 149.647 150.51 149.188C150.432 149.033 150.356 148.874 150.277 148.72C149.971 148.121 149.667 147.537 149.364 146.966C149.277 146.801 149.19 146.645 149.101 146.484C148.881 146.074 148.662 145.671 148.443 145.279C148.33 145.078 148.22 144.882 148.11 144.684C147.916 144.342 147.724 144.008 147.536 143.68C147.425 143.491 147.316 143.301 147.206 143.116C147.008 142.779 146.817 142.455 146.623 142.136C146.532 141.987 146.442 141.833 146.352 141.686C146.08 141.241 145.815 140.807 145.559 140.4C145.519 140.337 145.483 140.282 145.445 140.22C145.225 139.871 145.012 139.538 144.806 139.221C144.713 139.077 144.626 138.946 144.537 138.808C144.388 138.581 144.245 138.364 144.107 138.156C144.018 138.023 143.934 137.896 143.848 137.77C143.722 137.581 143.602 137.404 143.484 137.233C143.405 137.115 143.324 137 143.25 136.891C143.132 136.722 143.025 136.568 142.921 136.419C142.865 136.34 142.804 136.253 142.752 136.179C142.75 136.178 142.75 136.175 142.747 136.173C143.825 135.552 145.579 134.816 147.517 135.109C148.737 135.295 149.899 135.863 150.996 136.808C151.928 137.608 152.81 138.678 153.642 140.015C154.255 140.994 154.837 142.138 155.389 143.41C155.681 144.079 155.965 144.771 156.236 145.514C160.228 156.472 162.431 168.616 163.58 176.877C164.204 181.418 162.748 185.925 159.586 189.239L157.214 191.727C157.224 191.699 157.232 191.665 157.24 191.634Z" fill="#FFFCF5"/>
</g>
</g>
</g>
<mask id="mask15_2317_5674" style="mask-type:luminance" maskUnits="userSpaceOnUse" x="156" y="134" width="18" height="41">
<path d="M171.354 134.516L156.168 135.262L158.101 174.59L173.287 173.843L171.354 134.516Z" fill="white"/>
</mask>
<g mask="url(#mask15_2317_5674)">
<mask id="mask16_2317_5674" style="mask-type:luminance" maskUnits="userSpaceOnUse" x="48" y="91" width="152" height="157">
<path d="M199.836 148.073L134.064 91.4877L48.5188 190.919L114.291 247.504L199.836 148.073Z" fill="white"/>
</mask>
<g mask="url(#mask16_2317_5674)">
<mask id="mask17_2317_5674" style="mask-type:luminance" maskUnits="userSpaceOnUse" x="48" y="91" width="152" height="157">
<path d="M199.83 148.07L134.058 91.4848L48.513 190.916L114.285 247.501L199.83 148.07Z" fill="white"/>
</mask>
<g mask="url(#mask17_2317_5674)">
<path d="M166.057 173.615C165.986 173.15 165.906 172.669 165.829 172.188C165.722 171.52 165.613 170.848 165.494 170.149C165.409 169.647 165.316 169.137 165.224 168.62C165.097 167.905 164.963 167.186 164.823 166.448C164.719 165.911 164.613 165.372 164.504 164.822C164.354 164.075 164.198 163.323 164.034 162.559C163.913 161.995 163.793 161.435 163.664 160.864C163.49 160.084 163.305 159.3 163.115 158.509C162.979 157.94 162.846 157.374 162.702 156.801C162.495 155.978 162.274 155.158 162.051 154.331C161.902 153.781 161.76 153.235 161.605 152.683C161.347 151.778 161.07 150.873 160.793 149.969C160.648 149.501 160.515 149.031 160.365 148.565C159.928 147.199 159.469 145.84 158.981 144.496C158.781 143.948 158.574 143.42 158.363 142.907C158.293 142.735 158.22 142.574 158.149 142.407C158.006 142.073 157.86 141.741 157.713 141.421C157.626 141.234 157.538 141.054 157.45 140.874C157.311 140.588 157.171 140.31 157.026 140.038C156.932 139.861 156.838 139.687 156.743 139.515C156.683 139.41 156.627 139.295 156.567 139.191C157.431 137.728 159.223 135.324 160.96 135.394C161.478 135.416 162.012 135.665 162.553 136.131C163.692 137.111 164.854 139.043 165.941 141.795C166.557 143.358 167.178 144.871 167.78 146.335C172.67 158.251 175.996 166.356 166.125 174.052C166.106 173.914 166.079 173.757 166.057 173.615Z" fill="#FFFCF5"/>
</g>
</g>
</g>
<mask id="mask18_2317_5674" style="mask-type:luminance" maskUnits="userSpaceOnUse" x="72" y="131" width="56" height="56">
<path d="M124.771 131.732L72.2047 134.317L74.7507 186.105L127.318 183.52L124.771 131.732Z" fill="white"/>
</mask>
<g mask="url(#mask18_2317_5674)">
<mask id="mask19_2317_5674" style="mask-type:luminance" maskUnits="userSpaceOnUse" x="48" y="91" width="152" height="157">
<path d="M199.836 148.073L134.064 91.4877L48.5188 190.919L114.291 247.504L199.836 148.073Z" fill="white"/>
</mask>
<g mask="url(#mask19_2317_5674)">
<mask id="mask20_2317_5674" style="mask-type:luminance" maskUnits="userSpaceOnUse" x="48" y="91" width="152" height="157">
<path d="M199.83 148.07L134.058 91.4848L48.513 190.916L114.285 247.501L199.83 148.07Z" fill="white"/>
</mask>
<g mask="url(#mask20_2317_5674)">
<path d="M121.201 143.094C121.061 143.114 120.911 143.137 120.75 143.163C120.696 143.172 120.644 143.181 120.587 143.19C120.415 143.218 120.229 143.251 120.035 143.285C119.982 143.296 119.934 143.304 119.879 143.313C119.639 143.357 119.387 143.407 119.12 143.461C119.111 143.463 119.102 143.464 119.091 143.466C118.527 143.584 117.902 143.723 117.227 143.891C117.157 143.91 117.083 143.929 117.012 143.948C116.752 144.014 116.487 144.083 116.213 144.159C116.1 144.189 115.987 144.222 115.873 144.255C115.628 144.325 115.381 144.395 115.124 144.472C114.991 144.512 114.856 144.554 114.72 144.596C114.474 144.672 114.222 144.751 113.968 144.834C113.823 144.882 113.676 144.931 113.526 144.982C113.268 145.07 113.005 145.16 112.739 145.254C112.589 145.309 112.44 145.359 112.289 145.415C112.011 145.517 111.728 145.626 111.442 145.734C111.294 145.792 111.147 145.846 110.996 145.907C110.674 146.034 110.349 146.169 110.02 146.307C109.9 146.356 109.787 146.401 109.666 146.453C109.212 146.647 108.752 146.851 108.284 147.066C108.256 147.08 108.228 147.094 108.199 147.107C107.765 147.307 107.327 147.518 106.884 147.739C106.734 147.814 106.581 147.896 106.429 147.972C106.105 148.136 105.779 148.304 105.451 148.48C105.266 148.579 105.081 148.685 104.895 148.785C104.594 148.952 104.293 149.12 103.989 149.295C103.79 149.411 103.589 149.528 103.39 149.646C103.091 149.824 102.793 150.005 102.493 150.192C102.29 150.318 102.088 150.446 101.884 150.577C101.582 150.769 101.281 150.968 100.978 151.17C100.773 151.307 100.568 151.444 100.361 151.585C100.052 151.798 99.7423 152.019 99.4301 152.245C99.2327 152.386 99.0369 152.527 98.8382 152.672C98.4954 152.927 98.1517 153.192 97.8081 153.461C97.6422 153.589 97.4775 153.713 97.3117 153.845C96.804 154.25 96.297 154.668 95.7878 155.103C95.7527 155.132 95.7192 155.166 95.6841 155.195C95.2132 155.602 94.7428 156.02 94.2731 156.454C94.104 156.611 93.9338 156.778 93.7648 156.939C93.4312 157.254 93.0977 157.573 92.7648 157.905C92.5685 158.099 92.3728 158.304 92.1784 158.505C91.8751 158.818 91.5704 159.133 91.2677 159.457C91.0634 159.676 90.8596 159.903 90.6573 160.129C90.3651 160.452 90.0734 160.781 89.7849 161.117C89.5786 161.356 89.3755 161.598 89.171 161.841C88.8845 162.186 88.5985 162.54 88.3142 162.897C88.1145 163.147 87.9179 163.396 87.7201 163.652C87.4307 164.031 87.1433 164.419 86.8576 164.809C86.6719 165.064 86.4858 165.311 86.3034 165.571C85.9911 166.011 85.6857 166.466 85.3804 166.923C85.2283 167.149 85.0744 167.367 84.9257 167.598C84.472 168.295 84.0251 169.006 83.5856 169.741C83.5856 169.741 83.5856 169.741 83.5841 169.743C83.5687 169.769 83.5562 169.796 83.5408 169.822C83.1311 170.513 82.7546 171.198 82.4082 171.874C82.2871 172.11 82.1901 172.339 82.0765 172.572C81.8495 173.04 81.6256 173.51 81.4287 173.971C81.3153 174.239 81.2217 174.504 81.1173 174.77C80.9535 175.192 80.7927 175.611 80.6561 176.026C80.563 176.304 80.4865 176.578 80.4055 176.853C80.2894 177.251 80.1792 177.646 80.0856 178.037C80.0199 178.314 79.965 178.591 79.9113 178.866C79.8372 179.249 79.7721 179.63 79.7205 180.008C79.6835 180.278 79.6526 180.549 79.6277 180.819C79.5943 181.194 79.5729 181.564 79.5621 181.934C79.5553 182.199 79.5484 182.462 79.5521 182.722C79.558 183.091 79.582 183.456 79.6136 183.819C79.6336 184.071 79.6506 184.323 79.6825 184.57C79.6948 184.664 79.695 184.762 79.7088 184.855C79.5902 184.895 79.4722 184.943 79.3537 184.984C78.7914 185.175 78.2328 185.381 77.6729 185.593C77.4918 185.661 77.3102 185.719 77.1292 185.79C79.5386 179.937 76.927 174.235 74.2211 170.894C79.3393 167.602 82.492 163.655 83.6042 159.142C84.4838 155.572 83.8846 152.409 83.1606 150.273C89.3028 151.311 93.9394 150.411 96.9625 147.58C99.9128 144.82 100.567 140.916 100.621 138.255C105.519 140.904 109.577 141.413 112.706 139.759C115.759 138.147 117.155 134.858 117.795 132.268C120.401 135.34 122.817 136.856 124.836 137.545C124.765 137.614 124.705 137.687 124.635 137.756C124.493 137.902 124.352 138.045 124.22 138.191C124.13 138.29 124.048 138.39 123.965 138.491C123.844 138.634 123.728 138.778 123.616 138.922C123.537 139.025 123.463 139.127 123.39 139.229C123.289 139.373 123.19 139.514 123.1 139.655C123.032 139.758 122.966 139.86 122.904 139.962C122.82 140.102 122.738 140.239 122.661 140.375C122.605 140.476 122.55 140.574 122.499 140.674C122.426 140.811 122.361 140.942 122.296 141.073C122.25 141.168 122.204 141.262 122.163 141.356C122.104 141.485 122.052 141.61 122 141.733C121.962 141.821 121.925 141.91 121.891 141.994C121.844 142.117 121.802 142.232 121.761 142.345C121.734 142.423 121.704 142.502 121.679 142.575C121.642 142.686 121.61 142.787 121.579 142.891C121.563 142.943 121.543 143.002 121.529 143.052C121.471 143.059 121.404 143.07 121.344 143.079C121.294 143.08 121.25 143.087 121.201 143.094Z" fill="#FFFCF5"/>
</g>
</g>
</g>
</svg>
