<svg width="366" height="640" viewBox="0 0 366 640" fill="none" xmlns="http://www.w3.org/2000/svg">
<mask id="mask0_2317_5464" style="mask-type:luminance" maskUnits="userSpaceOnUse" x="160" y="301" width="9" height="10">
<path d="M160.016 301.909L168.279 301.803L168.385 310.066L160.122 310.172L160.016 301.909Z" fill="white"/>
</mask>
<g mask="url(#mask0_2317_5464)">
<path fill-rule="evenodd" clip-rule="evenodd" d="M164.147 301.856C166.428 301.827 168.303 303.653 168.332 305.934C168.361 308.217 166.535 310.09 164.254 310.119C161.971 310.149 160.098 308.323 160.069 306.041C160.039 303.76 161.865 301.885 164.147 301.856Z" fill="black"/>
</g>
<path d="M94.3976 296.562C92.8373 296.804 85.7156 295.164 85.5472 296.132C85.5851 296.132 85.6247 296.131 85.6626 296.131C85.623 296.135 85.5835 296.138 85.5439 296.142C85.5439 296.139 85.5473 296.136 85.5472 296.132C76.8752 296.45 68.4939 289.921 59.5681 291.385C56.1132 292.244 52.0107 291.483 49.2233 294.041C47.4024 294.765 45.5263 292.811 43.6266 293.565C34.2513 304.254 73.4917 312.754 80.4254 311.823C86.1503 311.822 91.8818 311.529 97.4313 310.206C102.303 309.725 108.542 309.366 111.333 304.714C114.666 297.231 98.7094 297.803 94.3976 296.562Z" fill="#AE9D41"/>
<path d="M87.7228 302.648C87.7624 302.644 87.8019 302.64 87.8414 302.634C87.8036 302.636 87.764 302.635 87.7261 302.637C87.7262 302.641 87.7228 302.644 87.7228 302.648Z" fill="#AE9D41"/>
<path d="M80.5498 304.971C68.2654 306.083 62.5134 305.718 42.9666 296.536C41.3659 295.784 43.5174 300.276 44.0319 300.653C49.0231 304.912 57.4958 308.109 63.7988 309.409C70.162 311.107 91.6508 314.119 89.7284 310.174C90.4601 305.08 83.7893 304.232 80.5498 304.971Z" fill="#7C3D00"/>
<path d="M75.5099 300.71C74.7487 300.561 73.97 300.795 73.2309 301.025L72.7819 300.925C72.4048 300.653 71.8128 300.943 71.6842 301.389C71.5557 301.837 71.7927 302.324 72.1478 302.624C72.5029 302.925 72.9577 303.077 73.3986 303.223C74.0627 303.443 74.7542 303.665 75.447 303.577C76.1397 303.489 76.8358 302.993 76.9095 302.298C76.9926 301.527 76.2711 300.858 75.5099 300.71Z" fill="#E0CC77"/>
<path d="M48.749 293.046C47.5808 292.577 46.3729 292.102 45.1146 292.127C43.8562 292.15 42.5199 292.804 42.0892 293.986C41.7499 294.911 42.0691 296.035 42.8431 296.645C43.6172 297.255 44.7852 297.304 45.6064 296.759L44.3349 295.631C46.1447 295.113 48.1116 295.158 49.8962 295.76C51.1294 293.11 54.9107 292.059 57.337 293.692C57.0961 293.164 57.4786 292.522 58.0023 292.273C58.5242 292.023 59.1325 292.059 59.7098 292.099C62.5326 292.299 65.3538 292.498 68.1766 292.698C62.2259 289.469 54.5812 289.605 48.749 293.046Z" fill="#E0CC77"/>
<path d="M61.0107 296.325C60.4284 296.162 59.8068 296.294 59.2162 296.425L58.987 297.077C59.3182 297.664 59.7715 298.235 60.4146 298.438C61.056 298.64 61.8954 298.307 62.0109 297.645C62.1151 297.048 61.5948 296.488 61.0107 296.325Z" fill="#E0CC77"/>
<path d="M77.6084 297.72L77.6301 298.205C77.2703 297.807 76.8914 297.395 76.3912 297.193C75.8927 296.991 75.2377 297.067 74.9317 297.508C74.6359 297.93 74.766 298.54 75.0931 298.94C75.4202 299.339 75.9002 299.575 76.3645 299.802C76.8341 300.03 77.3244 300.265 77.8478 300.27C78.3714 300.277 78.9358 299.984 79.0687 299.478C79.2788 298.673 78.3703 298.056 77.6084 297.72Z" fill="#E0CC77"/>
<path d="M72.0092 304.522C70.796 303.771 68.1523 301.037 66.7603 302.575C65.9963 303.417 66.7644 304.5 67.2154 305.161C68.4017 306.905 70.2092 306.871 72.1261 305.845C71.8028 305.739 71.4671 305.478 72.0092 304.522Z" fill="#7C3D00"/>
<path d="M59.9265 301.171C57.7497 302.473 59.1959 305.669 61.5544 305.649C61.7078 305.387 61.7523 305.105 64.2669 304.764C64.4478 304.774 64.4787 305.032 64.5682 304.765C63.8581 303.103 62.3836 299.702 59.9265 301.171Z" fill="#7C3D00"/>
<path d="M56.029 299.57L55.5784 298.001C54.5912 297.686 52.3051 296.113 52.5811 298.16C52.7621 299.511 56.4703 300.947 56.4248 299.147C56.3195 299.265 56.1724 299.47 56.029 299.57Z" fill="#7C3D00"/>
<path d="M64.3448 299.607L63.3374 299.334C63.0228 299.238 62.7178 299.22 62.4974 299.352C63.3091 300.743 68.1124 302.711 66.6657 300.008C66.2617 299.252 64.4463 298.537 64.3448 299.607Z" fill="#7C3D00"/>
<path d="M79.9772 299.835C79.1625 298.339 78.1517 303.149 78.1484 303.56C78.1298 305.461 78.5041 306.049 80.3168 306.423C85.1213 307.413 81.2619 299.858 79.9772 299.835Z" fill="#7C3D00"/>
<path d="M231.659 269.419C226.006 265.521 219.681 264.65 213.334 263.272C197.055 255.291 178.492 252.486 161.077 258.505C152.025 257.124 142.803 259.823 134.495 262.465C129.234 262.002 124.724 265.251 120.886 268.358C114.461 268.394 112.431 271.731 107.842 275.191C103.117 273.962 99.897 277.147 96.9695 280.321C93.7311 281.955 90.7697 280.752 88.6461 284.448C85.4843 289.082 78.3842 289.928 77.7137 294.286C97.0101 362.28 214.187 338.666 258.294 332.475C269.445 330.693 270.55 325.952 273.147 313.269C274.269 303.91 245.324 278.84 231.659 269.419Z" fill="#AE9D41"/>
<path d="M179.597 302.652C148.379 316.122 109.158 323.726 81.4965 299.037C81.0892 299.498 81.9099 300.126 81.2683 301.244C122.834 349.823 186.382 294.615 234.488 291.444C224.478 273.052 188.376 300.24 179.597 302.652Z" fill="#7C3D00"/>
<path d="M155.726 331.636C139.185 329.397 101.1 321.454 83.8262 308.397C99.659 327.61 126.61 339.793 144.573 336.784C145.039 336.51 157.148 332.153 155.726 331.636Z" fill="#7C3D00"/>
<path d="M223.344 277.051C223.537 277.365 223.588 277.401 223.636 277.433C223.639 277.229 223.524 277.112 223.344 277.051Z" fill="#E0CC77"/>
<path d="M234.372 285.665C233.912 285.385 233.74 284.796 233.227 284.538C229.469 283.25 225.933 281.352 221.829 281.244C217.274 280.998 212.344 281.107 208.333 283.471C205.004 284.731 200.183 286.988 199.793 290.931C202.34 288.966 205.568 287.859 208.59 286.675C214.826 283.855 221.77 283.038 228.328 285.493C229.431 285.685 230.331 285.873 231.227 286.597C231.727 286.828 233.139 287.533 232.968 288.293C234.059 289.641 239.495 290.895 238.687 288.362C237.783 286.969 235.889 286.189 234.372 285.665Z" fill="#E0CC77"/>
<path d="M211.766 267.994C206.118 265.116 200.156 263.573 193.895 262.639C188.366 261.815 182.062 261.462 183.988 268.609C185.358 273.696 187.484 278.46 188.696 283.636C189.222 285.885 189.55 291.957 192.162 292.236C194.938 292.533 199.187 286.638 201.1 285.024C203.978 282.594 207.359 280.484 211.142 279.749C214.742 279.048 217.943 279.058 221.475 280.041C224.266 280.816 226.989 282.248 229.904 281.673C229.68 282.222 229.663 281.717 231.232 281.21C228.183 279.927 225.56 276.93 222.84 274.93C219.259 272.297 215.761 270.03 211.766 267.994Z" fill="#7C3D00"/>
<path d="M180.971 276.105C180.459 273.235 179.888 270.342 179.56 267.444C179.397 266.022 179.557 264.422 178.857 263.176C178.554 263.312 178.354 263.525 178.047 263.61C174.903 261.846 168.361 263.576 165.332 264.996C161.493 266.798 158.341 270.306 156.594 274.081C154.743 278.084 152.844 282.352 151.369 286.559C150.522 288.976 147.928 296.178 149.441 298.786C150.834 301.185 157.234 299.345 159.367 298.813C163.524 297.776 167.734 296.579 171.859 295.431C176.192 294.223 184.753 293.834 183.585 287.614C182.86 283.769 181.665 279.999 180.971 276.105Z" fill="#7C3D00"/>
<path d="M183.079 294.468C182.028 295.631 179.198 295.778 177.696 295.993C175.367 296.326 172.439 296.812 170.266 297.826C167.731 299.011 167.286 304.399 170.461 304.992C172.79 305.425 176.621 302.209 178.798 301.474C180.239 300.983 181.604 300.935 182.84 299.963C183.486 299.454 184.127 298.7 184.483 297.974C185.03 296.855 184.81 292.868 183.079 294.468Z" fill="#7C3D00"/>
<path d="M165.52 299.741C165.531 299.744 165.539 299.747 165.55 299.751C165.539 299.723 165.528 299.692 165.518 299.666C165.518 299.696 165.52 299.715 165.52 299.741Z" fill="#7C3D00"/>
<path d="M165.645 300.005C165.704 299.994 165.777 299.927 165.845 299.856C165.757 299.815 165.651 299.784 165.551 299.751C165.583 299.833 165.613 299.919 165.645 300.005Z" fill="#7C3D00"/>
<path d="M165.521 299.741C163.246 299.033 158.2 300.155 156.045 300.877C155.037 301.215 153.427 301.742 152.895 302.71C152.423 303.572 151.819 308.87 152.519 309.595C153.711 310.829 163.334 307.994 164.692 307.291C167.362 305.91 166.528 302.403 165.645 300.004C165.576 300.019 165.527 299.956 165.521 299.741Z" fill="#7C3D00"/>
<path d="M165.521 299.74C165.528 299.955 165.577 300.018 165.645 300.004C165.613 299.918 165.583 299.832 165.551 299.75C165.541 299.747 165.532 299.744 165.521 299.74Z" fill="#7C3D00"/>
<path d="M139.255 303.507C137.19 303.922 135.461 303.996 134.544 306.064C133.771 307.806 133.017 311.691 133.374 313.517C136.927 313.952 141.13 312.505 144.529 311.86C146.455 311.494 148.476 311.503 149.471 309.723C150.343 308.163 150.168 305.324 150.222 303.593C151.222 300.799 140.838 303.187 139.255 303.507Z" fill="#7C3D00"/>
<path d="M124.11 304.145C119.885 304.404 118.592 304.305 117.302 308.38C116.395 311.246 115.562 313.318 118.95 313.924C121.461 314.372 127.287 314.453 129.486 313.184C131.973 311.747 131.754 307.447 132.411 305.479C133.437 303.31 125.246 304.075 124.11 304.145Z" fill="#7C3D00"/>
<path d="M107.797 301.253C106.383 300.922 103.212 299.929 101.842 300.326C100.627 300.675 99.971 302.261 99.2008 303.421C96.6115 307.323 97.4047 308.079 101.342 309.557C103.976 310.546 109.279 312.794 112.048 312.068C114.862 311.331 115.969 306.716 117.259 304.638C118.497 302.749 109.307 301.607 107.797 301.253Z" fill="#7C3D00"/>
<path d="M97.2613 296.551C95.612 295.768 93.849 295.1 92.0909 294.556C89.3855 293.72 83.6006 293.341 83.5756 297.822C83.5589 300.802 89.3907 303.351 91.654 304.357C93.5502 305.2 94.4734 305.624 95.8818 304.554C97.3022 303.475 98.7458 300.593 99.3565 299.483C100.401 299.425 98.713 297.241 97.2613 296.551Z" fill="#7C3D00"/>
<path d="M134.461 273.195C130.633 276.884 127.083 281.766 124.179 286.206C122.404 288.92 120.793 291.777 119.247 294.625C118.778 295.491 117.033 298.061 117.432 299.001C118.322 301.089 122.773 300.441 124.361 300.393C128.91 300.26 133.58 300.686 138.177 300.64C141.637 300.605 145.137 300.048 146.555 296.61C147.847 293.476 148.2 289.847 149.169 286.606C150.146 283.336 151.282 279.976 152.552 276.81C153.466 274.531 154.472 272.292 156.007 270.373C156.792 269.391 158.508 267.605 158.462 267.02C155.108 267.251 149.369 267.244 145.546 267.849C141.42 268.503 137.485 270.28 134.461 273.195Z" fill="#7C3D00"/>
<path d="M85.6942 289.311C85.6375 289.302 85.5858 289.292 85.5273 289.284C85.5949 289.33 85.6498 289.324 85.6942 289.311Z" fill="#7C3D00"/>
<path d="M85.8369 289.334C85.8527 289.356 85.8669 289.388 85.8831 289.441C84.3161 290.768 81.6085 290.295 80.5924 292.283C80.1423 293.162 79.8021 295.622 80.9718 295.937C81.6456 296.118 84.3202 293.895 84.9133 293.56C86.2757 292.792 89.5955 289.998 85.8369 289.334Z" fill="#7C3D00"/>
<path d="M85.6955 289.31C85.7437 289.316 85.7919 289.324 85.8383 289.332C85.798 289.269 85.7537 289.292 85.6955 289.31Z" fill="#7C3D00"/>
<path d="M129.353 270.021C126.392 270.469 123.493 271.15 120.695 272.262C113.478 275.136 107.793 279.431 101.891 284.495C99.7774 286.307 95.489 288.895 95.0345 291.973C94.5831 295.03 100.9 295.637 103.04 296.203C105.91 296.964 110.811 299.058 113.651 297.332C115.118 296.441 116.141 294.44 116.902 292.989C118.043 290.814 119.269 288.773 120.67 286.755C123.191 283.124 125.99 279.663 129.155 276.561C130.972 274.781 133.058 271.363 135.118 270.451C133.718 269.909 132.717 269.84 131.964 269.83C131.107 269.821 130.197 269.893 129.353 270.021Z" fill="#7C3D00"/>
<path d="M121.336 267.322C120.153 267.33 118.814 266.962 117.698 267.049C116.525 267.139 115.438 267.932 114.443 268.564C112.26 269.954 109.811 272.999 107.308 273.429C105.881 273.673 104.548 273.408 103.113 273.906C101.62 274.423 100.274 275.257 99.14 276.373C98.2219 277.277 97.7483 278.073 96.5665 278.557C95.4086 279.028 94.0755 279.121 92.8964 279.551C91.2238 280.161 90.3718 280.987 89.6158 282.579C88.9754 283.93 87.2371 285.857 87.1827 287.25C92.0795 289.522 96.2436 284.904 100.05 282.474C104.47 279.652 109.224 277.368 113.636 274.546C115.998 273.035 118.526 271.964 120.879 270.47C121.458 270.105 122.385 269.762 122.561 268.997C122.881 267.61 121.486 267.311 121.336 267.322Z" fill="#7C3D00"/>
<path d="M164.237 259.928C161.382 258.788 158.082 259.015 155.099 259.196C147.99 259.625 141.371 261.546 134.443 262.851C131.951 263.318 129.494 263.942 127.255 265.132C126.701 265.426 123.969 267.343 125.823 267.573C127.713 267.948 129.717 268.232 131.699 268.244C135.773 268.268 139.425 266.34 143.461 265.948C150.834 265.231 158.195 265.648 164.906 262.125C166.591 261.24 165.992 260.628 164.237 259.928Z" fill="#7C3D00"/>
<path d="M188.047 255.653C183.883 254.228 178.749 254.704 174.489 255.304C171.584 255.714 166.59 256.548 164.337 258.496C165.136 259.457 167.907 261.813 168.388 260.733C169.47 261.886 173.551 260.835 174.966 260.684C178.087 260.348 181.219 260.132 184.353 260.384C185.577 260.484 193.379 261.005 192.911 258.351C192.692 257.105 189.119 256.02 188.047 255.653Z" fill="#7C3D00"/>
<path d="M243.065 283.153C241.881 282.397 233.574 279.584 233.313 281.641C233.393 281.758 233.487 281.777 232.975 282.018C235.117 282.44 236.527 285.197 238.465 286.138C239.895 286.834 241.905 286.667 243.445 286.921C244.08 287.026 246.364 287.928 246.772 287.129C247.262 286.169 243.713 283.569 243.065 283.153Z" fill="#7C3D00"/>
<path d="M242.202 277.554C240.532 275.984 238.602 274.521 236.712 273.235C234.419 271.672 232.157 270.079 229.778 268.643C228.714 268.001 227.617 267.545 226.441 267.135C225.686 266.872 224.937 266.579 224.18 266.331C222.94 265.923 221.761 266.053 220.285 266.172C218.982 265.428 212.304 264.004 213.208 266.534C213.758 268.075 216.414 269.356 217.626 270.177C220.101 271.855 222.581 273.355 225.169 274.849C226.488 275.611 227.828 276.339 229.018 277.288C229.823 277.932 230.639 278.958 231.611 279.317C232.641 279.698 234.222 279.457 235.305 279.519C236.937 279.612 238.587 279.78 240.193 280.049C241.527 280.272 242.888 280.589 244.202 280.885C244.938 281.052 245.673 281.428 245.368 280.478C245.054 279.509 242.944 278.25 242.202 277.554Z" fill="#7C3D00"/>
<path d="M212.852 263.483C212.848 263.459 212.834 263.437 212.826 263.412C212.734 263.372 212.783 263.434 212.852 263.483Z" fill="#7C3D00"/>
<path d="M212.853 263.482C212.785 263.433 212.736 263.371 212.828 263.411C212.523 262.448 209.362 261.779 208.503 261.463C205.559 260.376 202.613 259.192 199.484 258.743C198.675 258.628 196.183 258.057 196.393 259.267C196.682 260.921 200.385 261.853 201.581 262.23C204.221 263.062 206.961 263.873 209.7 264.292C211.112 264.508 212.197 263.869 213.447 263.796C213.088 263.551 212.906 263.445 212.828 263.411C212.835 263.435 212.849 263.458 212.853 263.482Z" fill="#7C3D00"/>
<path d="M213.447 263.795C213.524 263.848 213.607 263.904 213.699 263.97C213.659 263.898 213.599 263.902 213.606 263.783C213.552 263.784 213.501 263.793 213.447 263.795Z" fill="#7C3D00"/>
<path d="M140.867 321.539C139.633 323.28 131.264 322 135.476 325.439C137.573 327.152 142.492 327.823 141.883 323.697L140.867 321.539Z" fill="#7C3D00"/>
<path d="M144.661 324.648L144.666 325.042C145.118 328.03 153.418 329.112 151.958 325.368C151.077 323.109 146.415 324.479 144.661 324.648Z" fill="#7C3D00"/>
<path d="M155.248 333.789L155.05 333.791C153.072 334.728 153.162 336.886 155.427 337.495C156.707 337.84 160.413 337.121 161.416 336.07C164.373 332.967 156.769 333 155.248 333.789Z" fill="#7C3D00"/>
<path d="M156.052 319.368L154.865 319.384C153.854 319.3 153.515 320.019 153.716 321.043C153.97 322.333 154.62 322.102 155.711 322.451C157.602 323.057 160.955 323.135 161.931 320.92C163.543 317.263 157.839 318.469 156.052 319.368Z" fill="#7C3D00"/>
<path d="M142.899 292.86C143.004 290.691 143.618 287.923 144.136 285.761C142.27 287.686 141.911 291.511 140.333 293.887C140.704 292.284 141.008 290.536 140.801 288.884C139.862 290.432 139.499 292.508 138.568 294.092C138.292 291.902 139.353 289.676 139.213 287.491C137.589 289.464 136.205 291.791 134.539 293.824C133.505 295.085 131.148 297.281 131.52 299.122C133.681 300.226 140.099 300.999 142.93 297.627C144.591 297.453 146.625 287.346 146.735 285.183C146.086 286.779 144.397 292.858 142.899 292.86Z" fill="#E0CC77"/>
<path d="M115.189 286.531C114.102 288.187 113.113 290.592 110.718 290.333C109.685 292.024 107.112 293.309 106.362 295.114C108.809 294.895 111.264 292.592 112.853 290.945C112.08 292.595 110.767 294.072 110.106 295.687C112.209 294.564 113.274 291.43 114.923 289.918C114.329 291.564 112.193 293.426 112.31 295.189C114.008 293.604 118.517 284.353 120.639 283.045C120.311 283.12 120.091 283.162 119.952 283.181C119.313 284.627 116.604 288.229 115.189 286.531Z" fill="#E0CC77"/>
<path d="M119.952 283.182C119.967 283.149 119.982 283.114 119.994 283.085C119.769 283.129 119.59 283.231 119.952 283.182Z" fill="#E0CC77"/>
<path d="M120.637 283.045C120.8 283.009 120.987 282.963 121.205 282.907C121.044 282.861 120.854 282.913 120.637 283.045Z" fill="#E0CC77"/>
<path d="M108.066 287.425C109.137 286.636 110.484 285.751 111.35 284.81L111.347 284.612C109.954 283.241 107.801 285.97 108.066 287.425Z" fill="#E0CC77"/>
<path d="M126.903 295.665L127.091 295.07C127.648 294.992 127.872 293.367 128.044 292.456C124.641 289.841 121.881 298.842 126.903 295.665Z" fill="#E0CC77"/>
<path d="M179.669 285.459C178.659 284.321 178.087 282.993 177.63 281.538C177.42 282.772 177.462 284.326 176.958 285.524C176.031 287.728 176.512 286.36 174.81 286.781C172.546 287.344 172.491 288.054 170.98 290.094C170.422 290.85 168.527 292.27 168.851 293.341C169.66 296.021 183.103 292.212 181.948 289.823C183.463 289.807 180.839 279.775 180.052 278.281C179.183 280.394 180.371 283.149 179.669 285.459Z" fill="#E0CC77"/>
<path d="M209.938 269.312C210.694 270.564 215.082 274.407 217.908 274.557C215.875 272.451 212.767 270.038 209.938 269.312Z" fill="#E0CC77"/>
<path d="M195.025 278.018C194.23 279.249 194.056 281.882 194.109 283.355C194.171 285.088 195.49 287.127 197.3 285.283L197.691 284.882C198.254 283.243 197.014 278.667 195.025 278.018Z" fill="#E0CC77"/>
<path d="M129.959 306.111C128.03 307.019 129.064 310.548 126.283 310.854C126.303 310.507 126.151 310.172 126.278 309.766C125.893 310.37 125.56 310.999 125.28 311.652C124.434 311.351 123.453 312.436 122.669 312.934C124.048 313.613 125.74 312.527 127.085 312.266C127.183 312.512 127.156 312.571 127.3 312.79C127.916 311.957 128.458 310.984 129.246 310.268C129.215 310.685 129.392 311.316 129.307 311.777C130.019 310.921 131.322 307.667 130.404 306.87C130.005 307.553 130.374 306.841 129.959 306.111Z" fill="#E0CC77"/>
<path d="M113.921 305.549C113.636 305.753 113.666 305.647 113.921 305.549V305.549Z" fill="#E0CC77"/>
<path d="M113.921 305.549C113.953 305.537 113.991 305.526 114.032 305.514C114.016 305.51 114.003 305.507 113.987 305.502C113.961 305.521 113.943 305.534 113.921 305.549Z" fill="#E0CC77"/>
<path d="M114.089 305.527C114.099 305.514 114.111 305.502 114.123 305.49C114.088 305.497 114.063 305.506 114.034 305.515C114.052 305.519 114.07 305.523 114.089 305.527Z" fill="#E0CC77"/>
<path d="M114.088 305.527C113.596 306.105 112.938 306.499 112.233 306.456C112.271 306.067 112.124 305.581 112.196 305.2C111.794 305.928 111.29 306.713 110.666 307.126C110.724 306.898 110.774 306.62 110.836 306.38C110.02 307.199 109.079 308.098 108.077 308.493C108.044 308.022 107.848 307.696 107.914 307.185C107.392 309.659 105.801 308.316 104.389 308.207C106.097 310.637 107.426 308.732 109.602 308.847C111.525 308.95 111.84 310.127 113.353 308.513C114.004 307.82 114.326 306.624 114.503 305.716C114.375 305.489 114.257 305.552 114.088 305.527Z" fill="#E0CC77"/>
<path d="M94.5149 299.493C93.4962 300.075 91.2407 301.822 90.3808 300.289C89.666 300.677 88.8558 301.271 88.0299 301.445C89.5008 301.619 93.796 304.107 94.5849 302.395L94.178 301.412C94.9563 301.017 95.1098 300.097 94.5149 299.493Z" fill="#E0CC77"/>
<path d="M146.433 305.515C146.404 305.68 146.382 305.85 146.378 306.015C146.413 305.841 146.432 305.673 146.433 305.515Z" fill="#E0CC77"/>
<path d="M148.561 306.161C148.627 306.524 148.692 306.874 148.778 307.172C149.162 306.63 149.288 305.942 149.153 305.246L148.561 306.161Z" fill="#E0CC77"/>
<path d="M146.433 305.515C146.432 305.673 146.413 305.841 146.377 306.015C146.382 305.85 146.404 305.681 146.433 305.515C146.445 304.476 145.744 303.855 144.696 304.346C143.62 304.849 142.408 307.95 142.501 309.076C143.254 308.961 143.787 308.398 144.036 307.605C144.45 309.135 146.564 308.227 147.602 307.635L148.559 306.161C148.409 305.359 148.241 304.477 147.765 303.862C146.978 304.012 146.569 304.737 146.433 305.515Z" fill="#E0CC77"/>
<path d="M148.552 274.236C149.426 273.629 150.522 271.958 151.503 272.846L151.48 271.069C149.873 270.921 148.945 272.961 148.552 274.236Z" fill="#E0CC77"/>
<path d="M167.032 282.12L165.86 283.123C166.156 282.582 166.39 282.291 166.045 281.743C165.624 282.346 165.757 282.74 165.853 283.418C166.848 283.542 167.375 282.418 167.256 281.626C167.181 281.791 167.105 281.955 167.032 282.12Z" fill="#E0CC77"/>
<path d="M131.757 323.125C130.89 324.076 129.307 323.769 128.165 324.263C129.733 326.34 131.501 326.367 132.631 323.458C132.81 323.586 132.996 323.703 133.19 323.809L131.614 322.787C131.668 322.861 131.719 322.965 131.757 323.125Z" fill="#E0CC77"/>
<path d="M131.398 322.647L131.615 322.787C131.497 322.625 131.373 322.629 131.398 322.647Z" fill="#E0CC77"/>
<path d="M146.969 319.881C146.358 319.665 144.493 320.122 143.491 320.72C144.335 322.157 149.045 322.925 148.565 321.045L146.969 319.881Z" fill="#E0CC77"/>
<path d="M90.082 290.019L91.0786 290.795C91.5307 291.414 92.011 291.535 92.5423 290.95C94.4302 288.87 89.0864 287.582 90.082 290.019Z" fill="#E0CC77"/>
<path d="M323.336 318.145C319.682 320.131 317.043 317.921 315.805 319.261C314.721 320.737 314.441 319.463 313.25 319.013C307.068 321.484 309.118 318.373 305.529 319.316C305.571 319.296 305.252 319.609 305.264 319.607C303.405 318.611 300.416 317.805 299.267 320.147C297.416 317.513 293.851 316.606 290.89 317.591C287.377 314.747 277.07 317.929 273.545 315.631C253.695 302.689 240.012 293.44 219.078 295.683C203.521 297.35 182.02 306.725 161.28 318.436C159.073 319.682 158.025 329.997 145.62 334.614C139.977 336.715 124.574 334.594 119.542 338.115C116.541 338.074 110.924 338.174 109.851 341.81C108.095 340.836 102.607 342.003 104.233 344.722C102.647 343.136 96.8526 343.074 97.8615 346.279C95.7753 346.196 91.8092 345.867 91.6138 348.874C89.7526 348.612 87.6427 347.22 85.7448 347.586C84.3944 348.214 83.0341 350.208 84.3354 351.517C82.0955 350.995 79.7383 350.051 77.4735 351.075C76.995 351.217 74.0437 352.812 75.0977 353.637C12.1191 338.323 121.428 405.607 182.736 353.271C184.592 351.303 187.003 351.022 189.447 351.923C208.516 355.406 231.798 352.204 247.29 340.243C273.187 342.935 316.866 357.974 324.85 321.187C325.157 320.015 325.291 316.997 323.336 318.145Z" fill="#AE9D41"/>
<path d="M231.044 347.042C219.971 346.916 208.697 349.444 197.545 348.272C185.068 346.659 191.188 343.696 184.992 350.701C200.836 353.777 219.699 355.566 233.789 346.385C231.139 347.593 231.239 347.216 231.044 347.042Z" fill="#7C3D00"/>
<path d="M186.963 345.343C187.026 345.27 187.096 345.202 187.158 345.131C187.008 345.088 186.942 345.158 186.963 345.343Z" fill="#7C3D00"/>
<path d="M59.7258 355.095C114.915 382.822 161.037 377.913 185.973 349.555C185.952 349.371 189.406 345.63 189.406 345.63C190.645 339.579 192.028 333.84 190.512 329.188C158.503 369.38 111.99 369.863 59.7258 355.095Z" fill="#7C3D00"/>
<path d="M252.36 332.683C250.871 332.923 249.418 333.115 248.162 334.07C246.253 335.171 244.126 335.424 244.723 338.579C269.226 338.188 304.921 358.493 321.424 330.76C298.093 347.011 277.518 338.916 252.36 332.683Z" fill="#7C3D00"/>
<path d="M68.5453 353.548L66.582 352.978C67.2303 353.181 67.8853 353.367 68.5453 353.548Z" fill="#E0CC77"/>
<path d="M119.822 337.05C116.651 337.535 109.759 336.575 108.841 340.424C108.457 340.875 107.814 340.498 107.336 340.409C105.864 340.569 104.149 340.579 103.13 341.829C102.852 342.134 102.865 342.078 102.786 342.488C102.71 342.879 102.839 342.85 102.437 342.848C100.682 342.1 97.0813 342.74 96.5638 344.94C93.6996 344.738 91.8974 344.513 90.2519 347.227C88.4039 345.31 82.3095 344.97 82.7124 348.578C82.0054 348.495 81.2923 348.078 80.5716 347.994C78.707 348.54 75.7837 348.025 74.9183 350.219C74.7607 350.686 74.8117 351.169 74.185 351.034C63.4336 350.324 52.2348 350.296 71.2176 354.323L68.5458 353.548C67.8857 353.367 67.2308 353.181 66.5825 352.978L68.5458 353.548C72.4023 354.599 76.4199 355.322 80.2206 356.442C73.9377 350.417 83.3526 351.502 86.7948 353.537C85.9595 352.711 85.14 351.11 86.4021 350.31C88.9165 349.155 91.4429 351.201 93.8705 351.597C90.7948 347.805 97.7657 348.026 99.8727 348.66C97.3013 344.449 103.06 346.139 105.226 346.638C103.581 342.711 108.943 343.572 111.004 344.763C110.942 343.414 111.266 342.244 112.562 341.556C114.701 339.597 117.86 339.923 120.562 339.602C125.624 338.89 131.105 339.053 135.567 336.231C130.277 336.187 125.138 337.3 119.822 337.05Z" fill="#E0CC77"/>
<path d="M171.342 316.755C167.466 317.799 163.931 319.841 161.302 322.888C160.73 323.414 160.88 323.2 160.713 323.869C160.599 324.33 159.916 325.475 160.484 325.829C165.494 321.111 181.695 318.501 187.028 323.401C186.187 322.1 186.093 322.006 185.998 321.913C186.915 315.692 175.374 315.433 171.342 316.755Z" fill="#E0CC77"/>
<path d="M184.903 310.537C184.354 310.026 183.538 310.465 182.876 310.515C176.494 311.413 168.087 313.56 165.814 320.383C166.896 318.839 168.556 318.282 170.349 317.913C173.319 316.351 176.812 316.156 180.078 315.442C182.241 315.246 184.568 314.667 186.354 313.366C187.279 312.586 186.417 311.955 186.873 311.228C186.699 310.454 185.451 310.618 184.903 310.537Z" fill="#E0CC77"/>
<path d="M314.82 318.733C313.344 317.037 310.445 317.099 309.392 319.28C309.03 319.249 309.023 318.558 308.816 318.32C307.959 317.639 306.803 317.485 305.724 317.492C305.263 317.525 304.482 318.252 304.164 318.189C303.785 316.673 301.541 315.998 300.225 316.641C299.596 316.846 299.386 317.53 298.792 317.745C296.75 315.407 293.028 315.909 290.502 317.152C289.48 313.34 276.795 315.528 274.003 316.263C270.565 316.451 271.75 316.104 273.24 317.485C273.255 317.531 277.895 317.569 277.912 317.616C279.536 316.594 284.015 317.842 285.85 317.567C287.497 317.785 288.469 319.436 289.772 320.228C289.842 320.036 289.827 319.792 289.85 319.592C292.951 318.223 295.818 320.309 298.37 321.906C299.584 319.387 303.802 320.115 305.355 322.059C305.356 321.711 305.257 321.528 305.123 321.267C305.939 320.146 307.275 321.391 308.327 321.606C309.13 321.689 309.47 322.585 310.168 322.748C310.654 320.328 313.767 320.914 315.002 322.386C315.207 322.032 315.213 321.712 315.293 321.349C317.17 320.192 320.228 321.198 322.113 320.118C320.588 319.48 319.041 318.615 317.754 317.611C315.985 317.15 315.932 318.109 314.82 318.733Z" fill="#E0CC77"/>
<path d="M320.73 323.611C320.721 323.635 320.721 323.639 320.73 323.611V323.611Z" fill="#E0CC77"/>
<path d="M321.055 323.046C320.881 323.251 320.76 323.538 320.73 323.611C320.744 323.575 320.777 323.483 320.831 323.31C314.64 331.174 304.202 334.9 294.675 334.899C291.262 335.395 271.31 334.054 268.059 334.814C278.104 340.069 305.905 339.766 317.471 331.21C319.434 329.757 324.064 325.254 321.055 323.046Z" fill="#E0CC77"/>
<path d="M142.92 339.457C141.878 339.286 140.845 339.749 139.89 340.2L139.067 340.696C138.687 340.309 137.942 340.547 137.739 341.051C137.537 341.554 137.787 342.154 138.208 342.498C138.63 342.84 139.182 342.973 139.72 343.043C140.767 343.178 141.841 343.107 142.86 342.838C143.524 342.662 144.228 342.343 144.497 341.713C144.911 340.74 143.964 339.628 142.92 339.457Z" fill="#E0CC77"/>
<path d="M169.679 328.733C167.527 329.239 165.372 329.746 163.22 330.251C162.502 330.42 161.615 330.798 161.65 331.534C161.684 332.255 162.58 332.559 163.297 332.638C164.571 332.774 165.859 332.784 167.135 332.667C167.954 332.591 168.803 332.451 169.477 331.98C170.152 331.506 170.597 330.617 170.319 329.842L169.679 328.733Z" fill="#E0CC77"/>
<path d="M162.093 342.761L163.112 342.732C161.352 342.378 159.519 342.393 157.764 342.773C157.194 342.898 156.572 343.106 156.293 343.619C155.958 344.234 156.295 345.043 156.857 345.462C157.42 345.884 158.142 346.012 158.834 346.129C159.703 346.276 160.597 346.423 161.461 346.247C162.326 346.069 163.166 345.491 163.389 344.638C163.614 343.786 162.974 342.739 162.093 342.761Z" fill="#E0CC77"/>
<path d="M119.784 347.213C118.14 347.236 116.495 347.259 114.849 347.282L114.896 347.729C114.293 347.466 113.533 347.626 113.089 348.11C112.645 348.593 112.549 349.364 112.862 349.94C113.186 350.537 113.867 350.869 114.543 350.944C115.217 351.02 115.895 350.88 116.56 350.741C117.745 350.492 118.931 350.242 120.116 349.993C121.028 349.802 122.174 349.315 122.086 348.389C121.995 347.443 120.736 347.199 119.784 347.213Z" fill="#E0CC77"/>
<path d="M285.258 325.405C284.814 325.304 284.352 325.407 283.909 325.509L283.657 325.328C283.316 325.136 282.842 325.4 282.742 325.778C282.642 326.159 282.845 326.569 283.153 326.811C283.461 327.055 283.855 327.161 284.241 327.228C284.631 327.297 285.043 327.331 285.415 327.199C285.789 327.067 286.112 326.727 286.115 326.333C286.12 325.878 285.703 325.506 285.258 325.405Z" fill="#E0CC77"/>
<path d="M309.783 324.993L309.78 324.804C309 324.516 308.143 324.443 307.326 324.593C307.02 324.649 306.692 324.756 306.529 325.02C306.34 325.327 306.449 325.746 306.688 326.016C306.926 326.285 307.267 326.439 307.596 326.587C308.044 326.789 308.502 326.992 308.988 327.075C309.475 327.158 310.003 327.108 310.412 326.836C310.822 326.562 311.082 326.034 310.945 325.56C310.81 325.087 310.222 324.767 309.783 324.993Z" fill="#E0CC77"/>
<path d="M285.761 321.833C285.342 321.697 284.889 321.77 284.454 321.843L283.745 321.35C283.175 321.329 282.671 321.932 282.792 322.49C282.878 322.885 283.214 323.187 283.588 323.34C283.962 323.494 284.374 323.525 284.777 323.552C285.117 323.575 285.465 323.597 285.791 323.498C286.115 323.397 286.416 323.145 286.474 322.811C286.546 322.378 286.181 321.967 285.761 321.833Z" fill="#E0CC77"/>
<path d="M150.346 360.071C150.296 360.024 150.244 359.976 150.193 359.929C150.232 359.985 150.282 360.032 150.346 360.071Z" fill="#7C3D00"/>
<path d="M145.324 356.699C144.48 356.508 143.512 356.276 142.641 356.298C141.937 356.314 141.265 356.613 140.572 356.714C139.474 356.871 138.468 356.825 137.402 357.205C136.709 357.452 136.155 357.766 135.604 358.253C135.279 358.54 134.871 358.839 134.836 359.308C134.806 359.703 135.048 360.251 135.23 360.603C135.456 361.041 135.806 361.405 136.101 361.799C136.251 361.998 136.409 362.313 136.612 362.465C136.972 362.734 137.443 362.957 137.893 363.014C138.7 363.113 139.557 362.937 140.372 363.006C141.129 363.094 141.88 363.227 142.621 363.406C143.497 363.544 144.35 363.45 145.181 363.123L150.045 359.791C149.509 359.29 148.965 358.796 148.421 358.3C147.42 357.386 146.638 356.994 145.324 356.699Z" fill="#7C3D00"/>
<path d="M150.046 359.791C150.094 359.836 150.145 359.882 150.194 359.928C150.155 359.874 150.128 359.814 150.116 359.743L150.046 359.791Z" fill="#7C3D00"/>
<path d="M161.389 352.752C160.693 352.403 159.687 352.268 158.913 352.185C157.991 352.086 157.108 352.38 156.192 352.404C155.154 352.433 154.605 353.116 153.824 353.688C153.21 354.136 152.706 354.601 152.452 355.355C152.102 356.399 152.288 358.21 153.216 358.875L161.28 357.113C161.869 356.83 162.927 356.536 163.147 355.799C163.279 355.364 163.125 354.78 162.919 354.383C162.571 353.711 162.076 353.094 161.389 352.752Z" fill="#7C3D00"/>
<path d="M149.757 350.835C148.538 350.189 147.096 349.998 145.739 350.052C144.962 350.082 143.672 350.18 143.145 350.906C142.629 351.617 143.17 352.724 143.596 353.357C144.1 354.108 144.733 354.892 145.585 355.26C146.077 355.473 146.618 355.479 147.139 355.571C148.007 355.723 148.777 356.182 149.656 356.229L148.816 355.41C149.294 355.405 149.76 355.46 150.186 355.272C150.715 355.039 151.477 354.344 151.851 353.909C152.115 353.601 152.175 353.306 152.139 352.898C152.038 351.763 150.643 351.302 149.757 350.835Z" fill="#7C3D00"/>
<path d="M134.733 363.15C134.073 362.316 133.243 361.628 132.381 361C131.095 360.066 129.666 359.437 128.063 359.396C126.478 359.358 124.821 359.283 123.37 359.959C122.1 360.551 122.034 361.641 121.842 362.897C121.729 363.629 121.831 364.172 121.949 364.89C122.059 365.565 122.192 365.699 122.661 366.156C123.487 366.962 124.686 367.234 125.803 367.469C127.358 367.799 129.031 367.762 130.597 367.542C131.295 367.445 131.989 367.312 132.69 367.241C132.979 367.212 133.419 367.271 135.66 364.696C135.426 364.437 135.381 364.156 135.235 363.861C135.109 363.606 134.915 363.382 134.733 363.15Z" fill="#7C3D00"/>
<path d="M117.768 360.366C117.786 358.527 114.794 356.734 113.199 356.668C111.931 356.617 110.54 356.73 109.41 357.357C109.071 357.546 108.54 357.882 108.364 358.261C108.145 358.737 108.536 359.025 108.715 359.45C109.074 360.308 109.22 360.545 110.092 360.983C111.164 361.524 112.329 361.956 113.513 362.172C114.719 362.391 116.303 362.554 117.482 362.111C118.063 361.891 118.674 361.499 119.048 360.988C119.304 360.637 119.484 360.168 117.768 360.366Z" fill="#7C3D00"/>
<path d="M105.437 360.931C105.096 360.249 104.744 359.43 104.017 359.071C103.446 358.791 102.851 358.926 102.225 358.864C101.451 358.786 100.666 358.775 99.8947 358.683C98.2341 358.483 96.7289 358.724 95.1454 359.302C93.8721 359.768 92.7485 360.897 92.7896 362.351C92.8093 363.076 93.0201 363.672 93.5755 364.145C94.2109 364.685 95.0822 364.83 95.8712 364.996C97.078 365.25 98.2246 365.773 99.4339 365.959C101.132 366.221 102.81 366.093 104.505 365.962C105.838 365.861 106.879 366.23 107.877 365.261C107.792 364.539 107.1 363.975 106.773 363.381C106.322 362.563 105.857 361.771 105.437 360.931Z" fill="#7C3D00"/>
<path d="M85.9848 358.276C84.5017 357.158 80.8889 356.983 79.1174 357.135C77.4817 357.273 75.3542 357.985 76.2827 360.026C77.585 362.89 85.4157 363.422 88.3558 363.233C87.4354 361.69 87.5304 359.44 85.9848 358.276Z" fill="#7C3D00"/>
<path d="M171.21 337.491C168.408 337.312 165.663 341.775 166.079 344.272C166.844 348.881 170.359 344.551 171.704 345.169L172.316 344.333C173.888 342.718 174.03 337.67 171.21 337.491Z" fill="#7C3D00"/>
<path d="M176.553 336.627C172.98 339.52 173.494 349.243 181.016 343.598C183.393 341.569 180.791 333.196 176.553 336.627Z" fill="#7C3D00"/>
<path d="M128.084 348.112C126.193 348.851 121.954 350.823 124.238 353.232C126.839 355.97 132.973 352.808 133.642 352.911C135.179 352.759 137.181 350.989 136.722 349.163C135.98 346.211 130.157 347.302 128.084 348.112Z" fill="#7C3D00"/>
<path d="M149.506 344.627L149.931 345.45C148.227 345.498 144.408 344.147 145.71 347.374C146.371 349.013 149.824 349.873 151.455 349.34C154.684 348.286 150.916 345.757 149.506 344.627Z" fill="#7C3D00"/>
<path d="M161.067 349.535C158.713 354.654 164.94 357.473 171.358 350.562C169.131 348.526 162.97 345.399 161.067 349.535Z" fill="#7C3D00"/>
<path d="M266.429 337.287C266.513 337.229 266.598 337.164 266.685 337.096L266.374 336.699C266.397 337.004 266.139 337.048 266.429 337.287Z" fill="#7C3D00"/>
<path d="M266.685 337.097L269.113 340.187C270.935 340.163 273.579 340.935 274.87 339.345C275.854 338.136 275.533 335.332 274.44 334.237C271.562 331.355 268.762 335.472 266.685 337.097Z" fill="#7C3D00"/>
<path d="M277.91 330.75L277.511 331.999C275.238 331.077 275.798 333.983 277.502 334.661C278.528 335.069 281.473 334.931 282.117 333.907C283.698 331.397 279.735 329.644 277.91 330.75Z" fill="#7C3D00"/>
<path d="M293.016 337.393C290.874 336.592 289.099 335.701 287.324 337.048C286.304 337.822 284.636 340.745 285.929 341.42C288.336 342.91 294.436 344.592 295.745 341.719C296.785 339.438 294.751 338.04 293.016 337.393Z" fill="#7C3D00"/>
<path d="M296.061 330.788C296.239 330.715 296.411 330.625 296.574 330.509L295.115 330.113C295.399 330.34 295.722 330.563 296.061 330.788Z" fill="#7C3D00"/>
<path d="M296.06 330.788C294.468 331.43 292.36 330.592 292.65 333.424C292.818 335.071 294.985 336.756 296.559 336.815C298.893 336.9 300.576 335.482 299.282 333.431C298.604 332.359 297.232 331.565 296.06 330.788Z" fill="#7C3D00"/>
<path d="M311.992 336.112C312.074 336.167 312.244 336.594 312.2 336.353C312.226 336.241 312.24 336.114 312.248 335.979L311.992 336.112Z" fill="#7C3D00"/>
<path d="M312.247 335.98C312.239 336.114 312.225 336.242 312.199 336.354C312.241 336.595 312.072 336.168 311.991 336.113L312.247 335.98C312.345 334.455 311.285 331.698 309.707 331.548C307.668 331.352 305.375 335.547 304.836 337.012C302.607 343.072 313.235 339.024 312.403 335.901L312.247 335.98Z" fill="#7C3D00"/>
<path d="M312.287 329.498C312.535 331.633 315.71 331.534 316.273 330.463L315.222 329.441C316.804 330.854 317.794 327.146 317.879 326.095C316.176 325.416 312.02 327.201 312.287 329.498Z" fill="#7C3D00"/>
<path d="M315.358 332.45C313.776 332.462 313.371 335.763 313.287 336.738C313.403 337.141 313.595 337.132 313.865 336.71L314.475 335.666C315.536 336.448 316.282 335.296 316.361 334.076C316.425 333.065 316.509 332.442 315.358 332.45Z" fill="#7C3D00"/>
<path d="M303.218 329.248C303.281 329.291 303.345 329.331 303.403 329.385L302.982 328.978C303.042 329.065 303.124 329.155 303.218 329.248Z" fill="#7C3D00"/>
<path d="M303.218 329.248C301.887 328.375 299.468 330.383 300.118 332.001C300.555 333.098 305.231 334.282 306.127 333.393C307.607 331.929 304.348 330.375 303.218 329.248Z" fill="#7C3D00"/>
<path d="M190.589 341.396C191.244 341.622 191.206 341.977 191.578 342.428L190.336 342.651C189.978 342.382 189.162 342.158 188.679 342.044C187.44 345.982 193.895 346.815 196.164 344.647C195.515 342.927 192.236 341.805 190.589 341.396Z" fill="#7C3D00"/>
<path d="M202.208 342.52C200.769 342.151 199.318 342.898 198.006 342.345L198.435 343.582C197.423 345.885 201.332 347.774 203.321 346.331C205.455 344.785 204.541 343.12 202.208 342.52Z" fill="#7C3D00"/>
<path d="M184.152 329.47C184.265 328.059 180.762 329.095 180.023 329.752C177.895 331.651 180.031 335.288 181.604 336.986C182.781 338.253 184.44 339.443 186.123 338.26C189.496 335.894 185.878 329.544 184.152 329.47Z" fill="#7C3D00"/>
<path d="M159.079 337.121C159.11 337.114 159.139 337.106 159.17 337.099C159.412 336.958 159.709 336.884 160.036 336.859C160.153 336.82 160.266 336.777 160.372 336.731C160.307 336.485 160.243 336.24 160.178 335.994L159.079 337.121Z" fill="#7C3D00"/>
<path d="M160.036 336.858C159.774 336.948 159.48 337.026 159.17 337.099C159.093 337.144 159.018 337.193 158.951 337.253L159.08 337.12C157.57 337.476 155.714 337.782 155.019 339.163C157.234 341.738 162.24 340.985 164.34 338.656C163.658 337.705 161.524 336.745 160.036 336.858Z" fill="#7C3D00"/>
<path d="M278.818 338.302C277.072 340.767 280.689 342.864 282.192 341.054L283.848 340.825C284.04 340.881 283.843 341.192 284.219 341.001C284.924 339.425 285.33 337.128 285.425 335.431C283.259 335.19 280.067 336.534 278.818 338.302Z" fill="#7C3D00"/>
<path d="M287.445 330.419L286.827 330.635C286.094 330.942 285.033 330.792 285.01 332.117C284.99 333.336 286.602 333.925 287.538 333.975C291.29 334.176 289.714 331.009 287.445 330.419Z" fill="#7C3D00"/>
<path d="M295.65 325.988C295.66 325.979 295.672 325.972 295.682 325.962L295.268 325.967C295.395 325.964 295.522 325.972 295.65 325.988Z" fill="#7C3D00"/>
<path d="M295.652 325.988C294.691 326.922 291.77 325.803 292.548 327.821C293.238 329.609 297.308 328.658 298.236 327.603C297.619 326.853 296.654 326.115 295.652 325.988Z" fill="#7C3D00"/>
<path d="M174.194 326.394L174.211 327.721C173.663 327.287 173.223 327.491 172.782 326.932C170.306 330.526 175.453 333.227 177.547 329.14C178.993 326.316 176.578 325.543 174.194 326.394Z" fill="#7C3D00"/>
<path d="M188.513 324.087L188.503 323.29C183.11 325.46 189.259 331.116 192.135 326.465C194.002 323.445 190.363 321.868 188.513 324.087Z" fill="#7C3D00"/>
<path d="M188.7 314.481C187.779 314.446 187.349 315.085 187.422 315.677C187.53 316.569 188.451 317.48 189.36 317.606C190.166 317.719 193.699 316.906 193.321 315.546C193.088 314.701 189.199 314.287 188.7 314.481Z" fill="#7C3D00"/>
<path d="M177.458 323.94C178.921 324.083 181.118 323.083 181.59 321.645C180.339 321.05 178.502 320.517 177.079 320.587C176.064 320.636 175.196 323.718 177.458 323.94Z" fill="#7C3D00"/>
<path d="M197.717 307.059C197.235 308.897 192.392 307.042 193.276 310.055C193.758 311.7 195.997 312.653 197.126 311.251C197.79 310.426 198.838 307.561 197.717 307.059Z" fill="#7C3D00"/>
<path d="M263.431 332.78C262.347 332.651 260.046 333.166 259.092 333.691C258.471 334.032 258.453 334.741 257.889 334.683L261.115 337.973C262.414 339.096 265.806 337.524 265.99 335.722C266.149 334.176 264.904 332.959 263.431 332.78Z" fill="#7C3D00"/>
<path d="M265.266 330.803L264.974 331.564C264.797 331.716 264.695 331.657 264.675 331.886C265.463 333.18 269.501 334.154 269.084 331.668C268.845 330.247 266.191 330.052 265.266 330.803Z" fill="#7C3D00"/>
<path d="M272.98 329.492L271.924 329.809C270.452 332.142 275.228 332.537 276.035 330.207C276.719 328.229 274.215 329.103 272.98 329.492Z" fill="#7C3D00"/>
<path d="M279.103 322.448L278.194 322.459C278.142 322.431 277.919 322.635 277.746 322.307C276.719 324.018 276.685 325.897 279.263 325.782C281.701 325.675 280.957 322.601 279.103 322.448Z" fill="#7C3D00"/>
<path d="M302.648 340.616C302.631 340.592 302.609 340.556 302.588 340.515C302.577 340.568 302.566 340.622 302.551 340.674C302.583 340.654 302.617 340.635 302.648 340.616Z" fill="#7C3D00"/>
<path d="M302.529 340.772C302.537 340.741 302.543 340.706 302.551 340.674C302.55 340.675 302.55 340.675 302.55 340.675C302.542 340.706 302.537 340.737 302.529 340.772Z" fill="#7C3D00"/>
<path d="M302.549 340.675C302.551 340.675 302.551 340.675 302.553 340.674C302.566 340.622 302.577 340.569 302.59 340.515C302.588 340.51 302.585 340.505 302.583 340.501C302.575 340.553 302.564 340.612 302.549 340.675Z" fill="#7C3D00"/>
<path d="M302.607 336.889C299.639 336.564 296.67 337.57 295.929 340.863C295.651 342.103 295.558 342.121 296.651 342.369C297.286 342.514 299.131 342.036 299.778 341.886C300.736 341.665 301.717 341.224 302.549 340.676C302.562 340.614 302.573 340.554 302.583 340.502C302.53 340.399 302.469 340.262 302.394 340.168C302.519 340.005 302.683 339.906 302.583 340.502C302.584 340.505 302.588 340.51 302.59 340.515C302.839 339.402 302.69 337.992 302.607 336.889Z" fill="#7C3D00"/>
<path d="M273.183 303.676C273.49 294.26 262.402 288.017 254.336 291.537C248.641 288.915 238.27 285.371 232.69 289.221C231.223 289.408 229.498 293.056 228.678 292.471C225.248 291.668 218.807 291.92 217.373 295.792C174.651 312.154 196.449 367.453 240.345 344.088C244.756 342.349 245.234 337.515 247.202 333.891C254.214 333.037 260.982 332.332 266.438 326.96C266.809 326.477 268.206 327.016 268.803 327.405C270.598 328.308 272.935 330.969 273.551 327.466C273.583 327.469 276.046 314.636 275.19 307.925C274.788 304.776 273.27 305.147 273.183 303.676Z" fill="#AE9D41"/>
<path d="M240.741 305.102C240.72 305.218 240.698 305.334 240.665 305.448C240.696 305.334 240.722 305.218 240.741 305.102Z" fill="#7C3D00"/>
<path d="M240.816 304.507C240.808 304.707 240.78 304.905 240.743 305.102C241.315 301.94 238.112 298.173 234.84 299.345C233.986 299.48 232.319 300.476 232.534 301.43C233.014 301.78 233.879 301.017 234.288 301.513C233.245 303.559 235.016 307.671 237.554 305.661C239.238 304.55 239.673 308.293 234.899 306.574C233.264 305.93 234.336 307.516 235.246 307.556C237.805 308.416 241.763 307.157 240.918 303.865L240.816 304.507Z" fill="#7C3D00"/>
<path d="M240.814 304.507L240.664 305.447C240.753 305.141 240.801 304.825 240.814 304.507Z" fill="#7C3D00"/>
<path d="M237.528 294.383C237.347 294.403 237.279 294.063 237.103 294.123C236.804 294.229 236.469 293.98 236.161 294.13C232.92 294.754 237.889 296.894 238.864 297.19C239.183 296.562 238.119 295.796 237.707 295.343C237.586 294.587 239.199 295.407 239.372 295.771C239.557 296.041 240.091 295.91 240.115 296.227C239.847 296.955 240.459 297.773 241.218 297.392C241.467 297.457 241.216 297.903 241.214 298.099C240.87 298.825 241.518 299.387 242.213 299.108C242.844 299.79 240.243 301.573 242.781 301.509C242.937 302.396 240.921 303.341 243.155 303.903C243.352 304.615 242.221 305.358 242.729 306.141C244.279 306.834 245.79 304.768 246.023 303.373C246.521 298.992 241.876 293.871 237.528 294.383Z" fill="#7C3D00"/>
<path d="M241.52 307.905C241.529 307.899 241.539 307.896 241.548 307.889C241.534 307.887 241.525 307.894 241.52 307.905Z" fill="#7C3D00"/>
<path d="M241.521 307.905C238.417 309.836 233.54 309.32 230.945 306.633C230.2 306.433 228.565 302.463 228.397 303.708C228.306 304.367 228.614 305.153 229.283 305.377C229.423 305.435 229.404 305.539 229.38 305.686C229.269 306.283 229.684 306.978 230.27 307.152C230.854 307.18 230.633 307.851 230.96 308.186C231.295 308.71 231.974 308.471 232.377 308.87C232.601 309.3 233.009 309.708 233.513 309.779C234.647 309.335 234.346 310.128 235.126 309.987C235.674 309.554 235.998 310.473 236.544 310.397C236.792 310.363 237.014 310.214 237.258 310.176C237.652 310.152 237.917 310.553 238.326 310.379C239.6 310.053 241.807 309.808 242.004 308.211C241.839 308.163 241.687 308.125 241.515 307.94C241.514 307.925 241.516 307.914 241.521 307.905Z" fill="#7C3D00"/>
<path d="M261.523 300.498C261.572 300.489 261.622 300.467 261.666 300.441C261.647 300.433 261.63 300.426 261.611 300.418C261.58 300.444 261.556 300.468 261.523 300.498Z" fill="#7C3D00"/>
<path d="M254.543 298.331C251.393 297.967 250.498 293.829 247.51 292.971C243.597 292.639 254.19 300.397 246.249 307.365C245.726 309.287 248.965 308.105 249.849 307.655C254.572 306.465 256.939 298.244 261.612 300.418C262.082 299.994 262.024 299.888 262.007 299.485C261.359 296.281 256.752 298.797 254.543 298.331Z" fill="#7C3D00"/>
<path d="M262.276 303.259C260.728 304.42 259.668 306.732 260.606 308.575C260.732 308.917 260.984 309.179 261.291 309.361C261.765 309.579 262.349 309.324 262.074 309.308C264.515 308.784 266.447 301.724 262.276 303.259Z" fill="#7C3D00"/>
<path d="M265.514 305.782C265.762 307.855 263.879 309.334 262.467 310.57C262.238 310.9 262.536 311.185 262.86 311.25C264.092 311.465 264.987 310.108 265.67 309.263C266.374 308.586 267.334 304.884 265.514 305.782Z" fill="#7C3D00"/>
<path d="M267.348 299.677C266.84 301.4 268.65 302.811 269.581 304.054C272.821 308.36 271.754 317.342 268.195 321.205C262.834 320.971 255.957 318.014 251.477 322.486C266.606 317.643 272.829 336.761 274.419 323.167C275.067 316.396 277.822 307.836 272.132 302.554C272.589 304.193 269.228 297.643 267.348 299.677Z" fill="#7C3D00"/>
<path d="M265.363 292.336C264.774 292.182 264.155 292.513 264.403 293.311C266.049 294.791 267.996 295.976 269.523 297.606C271.386 299.294 271.969 301.834 273.481 303.686C274.055 303.908 274.302 303.035 274.388 302.631C275.2 297.493 270.115 293.005 265.363 292.336Z" fill="#7C3D00"/>
<path d="M249.06 323.058C244.471 325.214 238.351 325.429 234.096 322.137C235.308 328.602 245.949 327.687 249.097 323.326C249.18 323.415 249.22 323.518 249.116 323.063C249.06 323.075 249.041 323.074 249.06 323.058Z" fill="#7C3D00"/>
<path d="M267.311 326.606C260.489 319.263 252.108 331.917 243.565 329.615C244.287 330.133 245.086 330.668 245.976 330.865C241.765 332.252 236.932 331.217 232.629 331.05C239.761 335.459 249.178 334.433 256.596 331.276C260.326 330.291 263.543 326.978 267.431 326.983C267.31 326.551 267.31 326.579 267.311 326.606Z" fill="#7C3D00"/>
<path d="M245.98 335.683C246.02 335.698 246.037 335.728 246.033 335.773C235.042 341.175 219.135 339.89 212.458 328.394C212.512 344.276 237.33 346.256 246.046 336.493C246.073 336.723 246.079 336.955 246.046 335.689C246.023 335.686 246.002 335.684 245.98 335.683Z" fill="#7C3D00"/>
<path d="M239.859 340.04C239.825 340.032 239.788 340.024 239.754 340.015C239.801 339.912 239.927 339.855 239.988 339.732C228.722 346.247 214.034 346.707 203.537 338.229C210.73 353.587 230.616 353.382 241.015 341.409C241.987 340.254 242.295 338.246 239.859 340.04Z" fill="#7C3D00"/>
<path d="M218.693 331.28C218.766 331.17 218.701 330.966 219.64 331.524C215.782 327.579 214.197 321.873 214.022 316.45C207.905 318.87 212.986 330.783 218.693 331.28Z" fill="#7C3D00"/>
<path d="M253.404 291.555C246.064 287.309 233.725 284.835 228.722 293.544C229.281 294.172 230.488 293.477 231.185 293.242C238.929 290.494 248.438 290.157 255.458 294.91C257.67 293.812 259.716 291.79 262.448 292.046C259.969 290.329 256.141 290.805 253.404 291.555Z" fill="#7C3D00"/>
<path d="M224.662 295.416C224.603 295.498 224.74 295.436 224.814 295.356C224.804 295.353 224.795 295.351 224.787 295.348C224.742 295.369 224.705 295.395 224.662 295.416Z" fill="#7C3D00"/>
<path d="M213.414 312.001C215.141 305.422 218.383 298.709 224.663 295.417C224.676 295.398 224.704 295.371 224.743 295.335C216.472 292.556 210.924 305.797 213.414 312.001Z" fill="#7C3D00"/>
<path d="M224.787 295.349C224.793 295.344 224.8 295.34 224.809 295.336C224.816 295.31 224.821 295.284 224.825 295.26C224.791 295.29 224.765 295.313 224.741 295.335C224.755 295.341 224.771 295.344 224.787 295.349Z" fill="#7C3D00"/>
<path d="M224.661 295.417C224.704 295.395 224.741 295.369 224.786 295.348C224.77 295.343 224.755 295.34 224.741 295.335C224.702 295.371 224.675 295.398 224.661 295.417Z" fill="#7C3D00"/>
<path d="M211.696 299.787C208.96 300.833 206.917 303.213 205.558 305.727C203.224 309.671 204.31 314.44 204.957 318.683C206.396 312.617 207.627 305.786 212.374 301.356C213.019 300.552 213.232 300.472 213.85 299.95C214.437 298.703 212.219 299.524 211.696 299.787Z" fill="#7C3D00"/>
<path d="M203.261 305.144C195.71 312.169 192.947 324.393 197.05 333.953C198.517 324.208 199.946 313.94 203.754 304.798C203.686 304.818 203.621 304.846 203.563 304.887C203.588 304.885 203.616 304.883 203.261 305.144Z" fill="#7C3D00"/>
<path d="M232.817 301.29C232.838 301.295 232.86 301.3 232.881 301.307C232.282 303.22 233.688 305.816 235.739 306.105C233.898 304.31 237.059 300.003 232.817 301.29Z" fill="#E0CC77"/>
<path d="M234.646 308.514C234.67 308.512 234.694 308.512 234.717 308.508C234.331 308.36 234.402 308.421 234.646 308.514Z" fill="#E0CC77"/>
<path d="M235.848 307.758C233.99 307.286 232.072 305.994 231.29 304.199C234.981 306.969 229.643 300.436 228.862 300.198C225.976 300.032 231.481 308.725 234.648 308.514C234.404 308.421 234.331 308.359 234.716 308.508C234.754 308.504 234.794 308.505 234.83 308.498C234.835 308.517 234.839 308.537 234.843 308.556C234.796 308.538 234.754 308.523 234.716 308.508C234.694 308.51 234.67 308.512 234.648 308.514C234.767 308.56 234.928 308.613 235.095 308.654C235.837 308.736 236.719 308.802 237.414 308.456C237.37 307.964 236.256 307.872 235.848 307.758Z" fill="#E0CC77"/>
<path d="M245.153 292.195C241.376 289.919 236.682 291.355 232.704 292.391C231.732 292.772 228.811 293.208 228.861 294.428C230.914 294.61 232.935 294.983 234.885 295.609C234.96 295.145 234.274 294.819 234.309 294.344C240.684 292.807 244.065 296.331 247.063 301.327C247.153 299.616 246.304 297.566 245.288 296.134C245.113 295.73 243.922 294.325 244.315 294.057C245.388 294.253 247.302 297.388 247.789 296.882C247.714 295.299 246.436 292.753 245.153 292.195Z" fill="#E0CC77"/>
<path d="M203.579 305.978C203.587 305.96 203.596 305.943 203.604 305.926C203.553 305.961 203.504 305.996 203.452 306.031C203.499 306.013 203.54 305.995 203.579 305.978Z" fill="#E0CC77"/>
<path d="M203.579 305.978C200.112 313.244 197.761 322.158 199.754 330.146C202.206 322.368 201.655 313.949 203.987 306.121C204.175 305.616 204.449 305.61 203.579 305.978Z" fill="#E0CC77"/>
<path d="M212.702 300.74C212.692 300.706 212.681 300.672 212.672 300.638C210.951 301.645 210.456 303.887 208.792 305.032C206.872 309.249 205.454 314.935 208.595 318.9C209.292 313.35 210.575 307.519 213.407 302.634C213.771 302.178 214.054 301.939 212.702 300.74Z" fill="#E0CC77"/>
<path d="M261.249 323.989C261.168 324.025 261.088 324.06 261.007 324.094C261.078 324.131 261.193 324.098 261.249 323.989Z" fill="#E0CC77"/>
<path d="M250.124 324.453C242.648 328.578 238.11 327.953 230.294 325.111C231.899 329.249 236.725 330.469 240.812 330.26C248.034 330.534 254.578 326.848 261.006 324.094C260.883 324.032 260.892 323.762 261.571 323.316C261.564 323.287 261.558 323.257 261.551 323.228C257.042 321.387 254.198 321.839 250.124 324.453Z" fill="#E0CC77"/>
<path d="M230.451 318.889C230.382 318.81 230.391 318.827 230.451 318.889V318.889Z" fill="#E0CC77"/>
<path d="M231.564 319.365C231.068 319.445 230.598 319.035 230.451 318.889C230.559 319.011 230.85 319.369 231.402 320.161C235.042 323.986 239.38 325.385 244.648 323.909C250.035 322.795 255.629 318.222 261.1 319.612C252.25 315.741 242.292 324.348 231.564 319.365Z" fill="#E0CC77"/>
<path d="M262.685 302.736C262.706 302.725 262.729 302.715 262.749 302.704C262.72 302.711 262.694 302.724 262.664 302.733C262.671 302.735 262.678 302.734 262.685 302.736Z" fill="#E0CC77"/>
<path d="M260.175 307.35C259.995 305.661 260.935 303.28 262.667 302.733C258.442 301.78 255.614 309.385 259.766 311.047C260.216 311.211 260.735 311.146 261.203 311.119C261.77 310.575 262.535 310.004 262.759 309.212C261.103 310.139 260.3 308.894 260.175 307.35Z" fill="#E0CC77"/>
<path d="M225.379 304.844C224.094 304.146 224.965 306.739 224.979 307.315C226.567 314.029 235.271 314.103 240.15 310.989C240.133 310.843 240.11 310.698 239.862 310.132C234.629 311.663 229.311 308.143 225.379 304.844Z" fill="#E0CC77"/>
<path d="M216.073 308.531C214.003 315.753 214.017 328.676 223.881 329.391C217.029 323.111 220.77 302.26 216.073 308.531Z" fill="#E0CC77"/>
<path d="M205.445 330.671C205.319 330.124 205.122 329.489 204.589 329.305C203.87 329.056 203.212 329.832 202.973 330.555C202.368 332.381 202.885 334.528 204.254 335.88L204.82 335.444C205.345 335.607 205.903 335.161 206.064 334.636C206.226 334.108 206.104 333.543 205.982 333.006C205.803 332.228 205.624 331.451 205.445 330.671Z" fill="#E0CC77"/>
<path d="M231.175 333.054C230.426 332.467 229.477 332.21 228.556 331.965C227.813 331.768 227.041 331.57 226.285 331.7C225.527 331.83 224.784 332.386 224.696 333.148C224.624 333.767 225.001 334.37 225.501 334.742C226.002 335.115 226.612 335.301 227.208 335.481L226.622 335.704C227.527 336.275 228.474 336.858 229.537 336.972C230.599 337.084 231.811 336.574 232.139 335.557C232.43 334.65 231.925 333.64 231.175 333.054Z" fill="#E0CC77"/>
<path d="M212.005 336.889C211.275 335.88 209.675 335.4 208.766 336.252C208.118 336.858 208.066 337.898 208.376 338.729C209.076 340.614 211.533 341.609 213.347 340.742L212.915 340.455C212.839 339.213 212.736 337.895 212.005 336.889Z" fill="#E0CC77"/>
<path d="M225.918 296.458C226.002 296.418 226.086 296.377 226.161 296.329C226.067 296.336 225.974 296.339 225.879 296.338C225.893 296.383 225.906 296.417 225.918 296.458Z" fill="#7C3D00"/>
<path d="M225.92 296.458C225.562 296.631 225.137 296.75 224.792 296.877C223.798 297.246 222.823 297.756 222.246 298.678C221.811 299.372 221.47 300.136 221.36 300.952C221.268 301.623 221.56 301.769 222.146 301.977C222.917 302.247 223.692 302.494 224.506 302.595C225.07 302.667 225.395 302.484 225.749 302.075C226.961 300.671 227.133 298.584 227.028 296.819C226.776 296.903 226.452 298.111 225.92 296.458Z" fill="#7C3D00"/>
<path d="M222.733 303.665C222.354 303.15 221.821 303.439 221.484 303.802L221.791 303.276C221.905 303.304 222.003 303.256 222.065 303.162C221.128 303.24 219.946 303.054 219.168 303.727C218.607 304.211 218.769 305.006 218.913 305.638C219.057 306.263 219.576 306.819 220.17 307.059C220.547 307.213 221.008 307.343 221.4 307.171C221.602 307.082 221.74 306.925 221.937 306.818C222.178 306.686 222.391 306.648 222.565 306.433C222.755 306.196 223.035 305.753 223.078 305.45C223.073 305.379 223.069 305.307 223.065 305.236C223.071 305.178 223.099 305.136 223.153 305.113C223.166 304.946 223.092 304.806 223.064 304.625C223.013 304.307 222.929 303.933 222.733 303.665Z" fill="#7C3D00"/>
<path d="M224.823 309.85C224.639 309.343 224.464 308.829 224.277 308.322C224.22 308.169 224.102 308.009 224.062 307.858C224.012 307.667 224.076 307.477 223.83 307.422C221.834 307.181 221.707 307.222 221.429 307.496C221.002 307.916 220.735 308.6 220.466 309.127C220.011 310.024 219.832 310.786 220.339 311.687C220.646 312.232 221.14 312.641 221.454 313.184C221.582 313.403 221.635 313.512 221.877 313.595C222.337 313.753 222.971 313.5 223.407 313.36C224.123 313.131 224.844 312.927 225.564 312.709C225.727 312.661 225.836 312.654 225.897 312.5C225.977 312.301 225.632 311.839 225.569 311.711C225.27 311.114 225.05 310.479 224.823 309.85Z" fill="#7C3D00"/>
<path d="M229.579 314.784C229.096 314.416 228.589 314.044 228.08 313.715C227.75 313.502 227.276 313.092 226.88 313.062C226.554 313.037 226.519 313.141 226.294 313.423C226.043 313.734 225.794 314.013 225.459 314.238C224.73 314.731 223.822 314.929 223.188 315.572C223.187 315.784 223.597 315.939 223.717 316.016C223.965 316.173 224.192 316.365 224.415 316.558C224.773 316.867 225.108 317.209 225.443 317.544C225.551 317.651 225.653 317.782 225.796 317.83C226.152 317.946 226.584 317.641 226.868 317.494C227.484 317.178 228.068 316.825 228.64 316.435C228.853 316.289 229.195 315.942 229.475 316.015C229.475 316.047 229.477 316.075 229.945 314.944C229.862 315.033 229.665 314.85 229.579 314.784Z" fill="#7C3D00"/>
<path d="M229.983 314.855C229.97 314.886 229.958 314.914 229.945 314.945C229.963 314.926 229.977 314.9 229.983 314.855Z" fill="#7C3D00"/>
<path d="M238.037 313.951C238.074 313.911 238.101 313.869 238.106 313.824C238.021 313.806 237.956 313.838 237.907 313.918C237.952 313.929 237.994 313.939 238.037 313.951Z" fill="#7C3D00"/>
<path d="M236.233 314.471C235.49 314.57 234.664 314.479 233.951 314.71C233.665 314.805 233.356 314.897 233.213 315.176C233.106 315.384 233.038 315.6 232.915 315.805C232.736 316.103 232.542 316.381 232.418 316.708C232.299 317.023 232.077 317.608 232.414 317.824C233.225 318.348 234.244 318.064 235.118 318.027C235.38 318.015 235.527 317.934 235.751 317.812C236.055 317.647 236.417 317.54 236.709 317.357C237.317 316.978 237.719 316.372 238.147 315.813C238.503 315.351 238.914 314.915 239.216 314.419C239.022 314.244 238.956 314.185 238.036 313.95C237.721 314.271 236.429 314.446 236.233 314.471Z" fill="#7C3D00"/>
<path d="M208.569 320.541C208.595 320.532 208.621 320.52 208.641 320.493C208.617 320.509 208.593 320.525 208.569 320.541Z" fill="#7C3D00"/>
<path d="M208.902 320.982C208.923 320.872 208.944 320.763 208.547 320.554C208.554 320.551 208.562 320.546 208.569 320.54C208.535 320.553 208.495 320.559 208.453 320.578C208.117 320.732 207.778 320.881 207.441 321.035C206.683 321.383 205.889 321.634 205.12 321.952C204.883 322.05 204.266 322.237 204.298 322.577C204.593 322.727 204.664 323.194 204.726 323.477C204.867 324.106 204.932 324.776 204.958 325.418C204.967 325.64 204.931 325.728 205.163 325.818C205.367 325.898 205.61 325.901 205.825 325.93C206.237 325.991 206.643 326.082 207.056 326.154C207.623 326.255 208.503 326.213 208.961 325.797C209.335 325.458 209.265 324.695 209.306 324.236C209.359 323.614 209.236 322.977 209.328 322.357C209.396 321.887 209.431 321.304 209.183 320.872C209.019 320.846 209.035 320.998 208.902 320.982Z" fill="#7C3D00"/>
<path d="M239.451 299.396C239.467 299.408 239.482 299.418 239.498 299.43C239.588 299.498 239.817 299.709 239.915 299.704C239.735 299.546 239.624 299.453 239.551 299.397C239.512 299.408 239.477 299.408 239.451 299.396Z" fill="#7C3D00"/>
<path d="M239.252 298.662C239.149 298.496 238.981 298.307 238.857 298.154C238.503 297.712 237.89 297.455 237.403 297.205C236.79 296.889 236.107 296.645 235.433 296.514C234.931 296.419 234.444 296.136 233.929 296.125C233.364 296.115 232.899 296.133 232.38 296.359C231.942 296.55 231.578 296.787 231.265 297.153C230.988 297.475 230.854 297.868 230.709 298.257C230.642 298.433 230.634 298.587 230.588 298.758C230.57 298.822 230.492 299.065 230.446 299.109C230.703 298.968 230.868 298.709 231.126 298.56C231.572 298.303 232.094 298.16 232.583 298.018C232.826 297.946 233.055 297.925 233.306 297.912C233.679 297.89 233.99 297.81 234.353 297.747C234.834 297.661 235.339 297.743 235.825 297.798C236.872 297.918 237.676 298.448 238.603 298.889C238.935 299.048 239.173 299.19 239.451 299.394C239.424 299.383 239.406 299.359 239.399 299.318C239.418 299.314 239.438 299.308 239.551 299.395C239.563 299.391 239.575 299.389 239.589 299.384C239.596 299.241 239.441 299.098 239.381 298.98C239.329 298.881 239.31 298.754 239.252 298.662Z" fill="#7C3D00"/>
<path d="M239.398 299.32C239.413 299.4 239.472 299.418 239.551 299.395C239.438 299.309 239.417 299.314 239.398 299.32Z" fill="#7C3D00"/>
<path d="M265.43 296.218C265.046 295.81 264.601 295.483 264.209 295.09C263.945 294.825 263.78 294.674 263.444 294.503C263.229 294.392 263.082 294.201 262.874 294.083C262.391 293.81 261.941 293.742 261.423 293.614C261.255 293.574 261.08 293.464 260.9 293.499C260.652 293.547 260.462 293.84 260.288 293.992C260.101 294.157 259.875 294.256 259.693 294.429C259.375 294.734 259.106 295.097 258.772 295.386C258.632 295.505 258.418 295.618 258.34 295.787C258.7 295.936 259.108 295.982 259.48 296.107C259.98 296.274 260.471 296.456 260.958 296.659C261.435 296.862 261.936 296.945 262.419 297.123C262.854 297.282 263.213 297.577 263.629 297.782C264.067 297.999 264.556 298.018 264.956 298.261C265.2 298.409 265.263 298.455 265.174 298.754C265.738 298.621 265.786 298.703 265.832 298.785C266.287 298.814 266.015 297.731 265.967 297.492C265.869 297.008 265.779 296.59 265.43 296.218Z" fill="#7C3D00"/>
<path d="M252.03 307.895C251.729 308.346 251.738 308.377 251.745 308.408C251.769 308.404 251.786 308.394 251.802 308.381C251.807 308.378 251.812 308.373 251.817 308.369C251.865 308.32 251.883 308.244 251.949 308.225C251.965 308.219 251.98 308.224 251.996 308.224C252.083 308.138 252.157 308.043 252.2 307.908C252.148 307.876 252.091 307.871 252.03 307.895Z" fill="#7C3D00"/>
<path d="M253.732 311.115C253.682 310.827 253.53 310.555 253.442 310.277C253.265 309.711 253.058 309.182 252.641 308.746C252.517 308.619 252.386 308.472 252.247 308.36C252.184 308.308 252.089 308.226 251.996 308.223C251.941 308.275 251.881 308.324 251.817 308.368C251.813 308.373 251.806 308.375 251.801 308.38C251.736 308.422 251.67 308.464 251.6 308.51C250.527 309.199 249.326 309.653 248.155 310.135C247.401 310.444 246.751 310.935 245.999 311.235C245.82 311.308 245.71 311.377 245.602 311.542C245.46 311.761 245.299 311.947 245.15 312.159C244.99 312.388 244.909 312.685 244.776 312.933C244.592 313.285 244.429 313.632 244.267 313.994C244.056 314.468 243.845 314.939 243.658 315.425C243.583 315.624 243.27 316.126 243.384 316.334C243.532 316.603 243.908 316.381 244.083 316.293C244.716 315.975 245.425 315.986 246.098 315.797C246.817 315.593 247.394 315.527 248.139 315.634C248.433 315.675 248.725 315.749 249.021 315.763C249.372 315.78 249.698 315.685 250.044 315.648C250.4 315.609 250.712 315.615 251.062 315.521C251.297 315.458 251.562 315.461 251.788 315.39C252.003 315.321 252.2 315.162 252.414 315.08C252.654 314.988 252.828 314.965 252.992 314.761C253.252 314.439 253.545 314.105 253.674 313.705C253.742 313.501 253.75 313.296 253.78 313.086C253.815 312.841 253.896 312.604 253.869 312.353C253.845 312.124 253.755 311.926 253.745 311.692C253.735 311.499 253.766 311.306 253.732 311.115Z" fill="#7C3D00"/>
<path d="M242.048 313.16C241.926 313.025 241.843 312.923 241.652 312.925C241.403 312.927 241.288 313.089 241.347 313.56C241.169 313.908 241.02 314.251 240.82 314.596C240.023 315.966 238.951 317.12 238.054 318.42C237.898 318.645 237.56 318.822 237.731 319.059C237.796 319.149 237.986 319.193 238.068 319.23C238.314 319.343 238.544 319.467 238.807 319.543C239.318 319.693 239.855 319.739 240.385 319.727C240.584 319.725 240.876 319.781 241.065 319.724C241.221 319.677 241.193 319.681 241.267 319.518C241.459 319.085 241.615 318.582 241.724 318.124C241.855 317.582 241.849 317.012 241.982 316.47C242.149 315.793 242.308 315.076 242.298 314.379C242.292 314.112 242.269 313.901 242.207 313.65C242.151 313.424 242.203 313.335 242.048 313.16Z" fill="#7C3D00"/>
<path d="M223.203 319.157L221.895 319.666C222.361 320.924 221.637 322.345 223.289 322.938C224.67 323.437 225.285 322.672 225.529 321.451C225.913 319.538 222.804 317.056 223.203 319.157Z" fill="#E0CC77"/>
<path d="M256.947 313.64L256.126 313.65C256.192 314.61 252.97 317.79 256.787 317.256C258.929 316.954 258.454 313 256.947 313.64Z" fill="#E0CC77"/>
<path d="M227.831 321.721C227.889 321.629 228.051 321.548 228.088 321.375C227.037 322.183 224.968 323.504 226.474 324.778C227.98 326.053 229.969 323.698 229.313 322.031L227.831 321.721Z" fill="#E0CC77"/>
<path d="M230.881 316.107L230.548 315.784C229.595 316.365 228.962 317.328 228.604 318.576C229.911 319.098 232.064 316.758 230.881 316.107Z" fill="#E0CC77"/>
<path d="M229.398 328.588L228.566 327.616C226.049 327.028 223.827 328.706 226.787 330.268C228.382 331.11 231.772 329.771 229.398 328.588Z" fill="#E0CC77"/>
<path d="M267.997 315.278C267.962 315.814 267.752 316.243 268.326 316.646C268.891 317.043 270.228 316.461 269.924 316.033L270.492 315.16C271.064 314.295 270.884 312.226 270.412 311.264C269.115 311.723 268.076 313.994 267.997 315.278Z" fill="#E0CC77"/>
<path d="M264.423 314.806L264.698 314.856C264.842 314.864 264.992 314.891 265.146 314.939L264.698 314.856C262.475 314.729 261.198 318.938 264.382 318.057C267.354 317.234 265.366 313.254 264.423 314.806Z" fill="#E0CC77"/>
<path d="M264.697 314.855L265.146 314.939C264.992 314.891 264.842 314.864 264.697 314.855Z" fill="#E0CC77"/>
</svg>
