<svg width="1444" height="1029" viewBox="0 0 1444 1029" fill="none" xmlns="http://www.w3.org/2000/svg">
<path d="M0 12.5068C0 12.5068 221.223 98.7256 404.312 116.534C600.868 135.652 776.812 43.034 980.812 12.5329C1169.31 -15.6509 1444 12.5068 1444 12.5068V1029.01C1444 1029.01 1316.02 925.504 1152.68 913.161C751.948 882.878 306.149 1078.68 0 1003.51V12.5068Z" fill="#723EAA"/>
<path d="M1077.75 631.954C1076.08 633.521 1073.35 633.368 1071.2 633.72C1062.91 634.614 1051.76 632.649 1048.13 624.178C1046.91 621.083 1048.69 615.317 1051.92 613.556C1052.43 613.2 1052.98 612.919 1053.56 612.696C1054.58 612.296 1055.67 612.112 1056.74 612.083C1056.92 612.069 1057.08 612.082 1057.26 612.086C1057.48 612.103 1057.71 612.093 1057.92 612.1C1058.37 612.125 1058.8 612.167 1059.25 612.228C1059.81 612.327 1060.38 612.453 1060.92 612.641C1067.03 614.084 1072.33 621.717 1075.6 626.284C1076.45 627.97 1078.84 629.993 1077.75 631.954Z" fill="#512A8B"/>
<path d="M1092.92 605.314C1091.83 607.311 1089.17 608.02 1087.24 609.023C1079.63 612.439 1068.42 614.032 1062.34 607.104C1060.22 604.53 1060.13 598.501 1062.66 595.831C1063.05 595.345 1063.48 594.89 1063.97 594.504C1064.82 593.805 1065.8 593.29 1066.8 592.925C1066.97 592.873 1067.13 592.821 1067.29 592.778C1067.51 592.712 1067.72 592.636 1067.94 592.588C1068.36 592.482 1068.8 592.378 1069.23 592.3C1069.79 592.214 1070.37 592.157 1070.95 592.173C1077.21 591.657 1084.61 597.268 1089.13 600.595C1090.46 601.931 1093.35 603.11 1092.92 605.314Z" fill="#512A8B"/>
<path d="M1099.78 578.565C1099.11 580.751 1096.65 581.954 1094.97 583.317C1088.19 588.176 1077.51 591.965 1070.18 586.369C1067.59 584.275 1066.3 578.385 1068.25 575.256C1068.54 574.707 1068.87 574.18 1069.27 573.704C1069.97 572.855 1070.82 572.165 1071.74 571.6C1071.88 571.509 1072.04 571.429 1072.19 571.349C1072.39 571.244 1072.58 571.13 1072.77 571.034C1073.18 570.844 1073.58 570.654 1073.99 570.501C1074.53 570.312 1075.09 570.143 1075.65 570.038C1081.69 568.29 1090.05 572.326 1095.14 574.684C1096.71 575.744 1099.78 576.328 1099.78 578.565Z" fill="#512A8B"/>
<path d="M1104.36 554.83C1103.69 557.016 1101.23 558.219 1099.54 559.581C1092.76 564.441 1082.09 568.23 1074.75 562.633C1072.17 560.539 1070.87 554.64 1072.83 551.521C1073.1 550.961 1073.44 550.444 1073.84 549.968C1074.53 549.119 1075.39 548.42 1076.3 547.854C1076.45 547.764 1076.6 547.684 1076.76 547.603C1076.96 547.499 1077.15 547.385 1077.34 547.289C1077.74 547.099 1078.15 546.918 1078.56 546.756C1079.09 546.557 1079.66 546.398 1080.22 546.293C1086.25 544.535 1094.62 548.58 1099.7 550.939C1101.27 551.989 1104.35 552.582 1104.35 554.82L1104.36 554.83Z" fill="#512A8B"/>
<path d="M1097.74 525.938C1094.6 533.672 1087.6 542.575 1078.42 541.763C1075.11 541.382 1070.88 537.081 1070.85 533.406C1070.79 532.793 1070.8 532.168 1070.87 531.557C1071.01 530.462 1071.37 529.421 1071.85 528.463C1071.92 528.313 1072 528.162 1072.09 528.013C1072.21 527.828 1072.31 527.624 1072.41 527.43C1072.65 527.052 1072.89 526.674 1073.16 526.326C1073.51 525.874 1073.9 525.435 1074.32 525.043C1078.49 520.334 1087.71 519.28 1093.27 518.544C1095.17 518.597 1098.08 517.447 1099.28 519.343C1099.88 521.553 1098.44 523.883 1097.75 525.939L1097.74 525.938Z" fill="#512A8B"/>
<path d="M1065.11 536.07C1064.43 536.893 1063.61 537.631 1062.65 538.184C1062.12 538.502 1061.56 538.763 1060.96 538.948C1057.59 540.403 1051.95 538.232 1050.27 535.36C1045.85 527.261 1051.22 517.285 1057.05 511.322C1058.65 509.861 1060.22 507.624 1062.48 507.28C1064.7 507.634 1064.81 510.754 1065.6 512.472C1067.16 517.858 1069.88 526.748 1067.23 532.438C1067.03 532.985 1066.79 533.519 1066.51 534.013C1066.29 534.392 1066.05 534.77 1065.8 535.137C1065.67 535.321 1065.53 535.494 1065.4 535.669C1065.3 535.808 1065.2 535.947 1065.09 536.077L1065.11 536.07Z" fill="#512A8B"/>
<path d="M1040.96 536.987C1040.28 537.81 1039.46 538.549 1038.5 539.111C1037.97 539.43 1037.4 539.681 1036.81 539.875C1033.43 541.321 1027.8 539.16 1026.12 536.288C1021.7 528.189 1027.07 518.212 1032.9 512.249C1034.5 510.788 1036.07 508.551 1038.33 508.207C1040.55 508.561 1040.66 511.682 1041.46 513.391C1043.02 518.776 1045.73 527.657 1043.09 533.357C1042.89 533.904 1042.64 534.428 1042.37 534.932C1042.15 535.311 1041.91 535.689 1041.66 536.056C1041.54 536.231 1041.39 536.413 1041.26 536.587C1041.16 536.727 1041.05 536.856 1040.95 536.996L1040.96 536.987Z" fill="#512A8B"/>
<path d="M1017.15 541.202C1016.69 541.628 1016.19 541.976 1015.65 542.285C1012.62 544.383 1006.67 543.367 1004.46 540.887C998.523 533.833 1001.79 522.987 1006.34 515.987C1007.62 514.235 1008.72 511.722 1010.86 510.946C1013.1 510.85 1013.83 513.889 1014.95 515.41C1017.55 520.379 1021.97 528.542 1020.51 534.655C1020.43 535.238 1020.29 535.789 1020.13 536.338C1019.98 536.769 1019.82 537.162 1019.64 537.572C1019.56 537.768 1019.44 537.971 1019.36 538.176C1019.28 538.327 1019.22 538.488 1019.14 538.638C1018.63 539.575 1017.97 540.464 1017.15 541.202Z" fill="#512A8B"/>
<path d="M996.492 550.205C994.261 553.128 988.292 554.008 985.419 552.334C977.587 547.454 977.347 536.129 979.49 528.08C980.172 526.024 980.426 523.29 982.228 521.881C984.323 521.092 985.961 523.759 987.507 524.862C991.525 528.787 998.256 535.175 998.762 541.447C998.857 542.016 998.905 542.591 998.917 543.162C998.91 543.613 998.886 544.044 998.843 544.492C998.826 544.712 998.773 544.928 998.746 545.157C998.734 545.321 998.701 545.503 998.67 545.666C998.48 546.72 998.132 547.771 997.581 548.723C997.273 549.261 996.903 549.767 996.482 550.213L996.492 550.205Z" fill="#512A8B"/>
<path d="M981.395 561.103C981.079 564.762 976.506 568.704 973.173 568.827C963.942 568.895 957.692 559.46 955.198 551.489C954.668 549.377 953.428 546.934 954.208 544.793C955.56 543 958.373 544.384 960.262 544.491C965.752 545.665 974.859 547.465 978.637 552.486C979.037 552.913 979.37 553.38 979.684 553.846C979.922 554.223 980.132 554.608 980.333 555.001C980.437 555.202 980.513 555.41 980.617 555.612C980.698 555.765 980.76 555.917 980.83 556.079C981.234 557.067 981.502 558.137 981.546 559.246C981.582 559.865 981.526 560.478 981.423 561.096L981.395 561.103Z" fill="#512A8B"/>
<path d="M970.275 585.206C969.892 585.637 969.449 586.018 968.982 586.35C968.144 586.949 967.211 587.357 966.242 587.624C966.091 587.667 965.932 587.701 965.773 587.735C965.568 587.775 965.361 587.833 965.164 587.882C964.762 587.953 964.352 588.013 963.944 588.056C963.416 588.099 962.872 588.103 962.342 588.063C956.49 588.122 949.992 582.424 946.006 579.035C944.856 577.695 942.248 576.41 942.797 574.398C943.947 572.608 946.459 572.146 948.307 571.33C955.61 568.655 966.117 567.92 971.311 574.771C973.117 577.293 972.799 582.904 970.284 585.216L970.275 585.206Z" fill="#512A8B"/>
<path d="M971.362 607.028C971.194 607.171 971.027 607.315 970.859 607.459C970.507 607.727 970.155 607.994 969.786 608.242C969.312 608.547 968.811 608.84 968.279 609.057C962.809 612.074 953.807 609.997 948.353 608.825C946.591 608.147 943.489 608.261 942.992 606.086C943.165 603.816 945.285 602.1 946.621 600.406C952.13 594.207 961.649 588.194 970.004 592.008C972.976 593.478 975.517 598.911 974.305 602.363C974.149 602.959 973.948 603.542 973.667 604.092C973.177 605.076 972.495 605.936 971.739 606.67C971.611 606.78 971.491 606.899 971.355 607L971.362 607.028Z" fill="#512A8B"/>
<path d="M983.8 626.945C979.675 631.648 970.504 632.743 964.978 633.482C963.102 633.449 960.206 634.6 959.005 632.722C958.408 630.531 959.819 628.208 960.501 626.152C963.575 618.45 970.496 609.568 979.636 610.33C982.931 610.702 987.164 614.956 987.198 618.605C987.262 619.217 987.261 619.834 987.187 620.446C987.058 621.531 986.721 622.574 986.242 623.532C986.166 623.682 986.09 623.833 985.996 623.982C985.881 624.167 985.782 624.371 985.675 624.565C985.445 624.935 985.204 625.312 984.938 625.66C984.591 626.112 984.216 626.553 983.8 626.945Z" fill="#512A8B"/>
<path d="M1003.5 638.714C1001.57 644.699 993.542 649.362 988.744 652.264C986.986 652.986 984.782 655.203 982.925 653.956C981.496 652.171 981.869 649.456 981.675 647.296C981.446 638.955 984.272 627.993 993.022 625.052C996.209 624.08 1001.8 626.311 1003.31 629.668C1003.62 630.207 1003.86 630.787 1004.03 631.38C1004.35 632.426 1004.45 633.538 1004.39 634.593C1004.39 634.768 1004.37 634.941 1004.34 635.114C1004.32 635.342 1004.31 635.572 1004.28 635.782C1004.21 636.218 1004.14 636.655 1004.04 637.089C1003.89 637.639 1003.73 638.189 1003.49 638.722L1003.5 638.714Z" fill="#512A8B"/>
<path d="M1019.46 659.609C1018.25 661.063 1017.34 664.05 1015.11 663.825C1013.01 662.919 1012.07 660.342 1010.9 658.522C1006.8 651.258 1004.19 640.24 1010.55 633.553C1012.91 631.201 1018.92 630.564 1021.8 632.828C1022.33 633.163 1022.8 633.559 1023.24 634.006C1024 634.792 1024.62 635.714 1025.06 636.686C1025.12 636.838 1025.2 636.992 1025.26 637.162C1025.34 637.371 1025.43 637.58 1025.52 637.78C1025.67 638.197 1025.81 638.612 1025.92 639.045C1026.05 639.598 1026.17 640.168 1026.2 640.741C1027.28 646.929 1022.38 654.813 1019.48 659.61L1019.46 659.609Z" fill="#512A8B"/>
<path d="M1052.07 650.24C1051.89 652.123 1052.82 655.104 1050.85 656.178C1048.61 656.615 1046.38 655.018 1044.39 654.184C1036.9 650.5 1028.52 642.89 1029.98 633.785C1030.6 630.518 1035.19 626.596 1038.86 626.831C1039.48 626.813 1040.1 626.861 1040.71 626.99C1041.79 627.21 1042.81 627.63 1043.73 628.178C1043.87 628.263 1044.02 628.357 1044.16 628.46C1044.34 628.593 1044.54 628.7 1044.72 628.834C1045.08 629.091 1045.43 629.357 1045.76 629.65C1046.18 630.023 1046.59 630.441 1046.96 630.883C1051.35 635.38 1051.74 644.654 1052.07 650.259L1052.07 650.24Z" fill="#512A8B"/>
<path d="M1020.53 620.78C1028.86 619.906 1035.51 613.95 1040.77 607.888C1053.17 591.147 1057.88 570.146 1061.38 550.019C1041.86 550.104 1020.96 548.231 1003.16 557.774C992.111 563.661 984.88 575.41 984.315 587.871C983.572 595.557 987.233 602.715 992.562 608.047C999.694 615.58 1009.83 621.731 1020.54 620.771L1020.53 620.78ZM1044.98 611.109C1038.85 618.044 1030.95 624.347 1021.53 625.552C1004.81 627.268 988.12 615.212 981.098 600.589C974.658 583.635 984.13 563.034 999.644 554.596C1017.1 544.936 1042.92 545.121 1062.28 547.657C1062.67 546.858 1063.29 545.902 1064.14 545.645C1067.48 547.759 1066.5 552.362 1066.03 555.659C1064.9 563.335 1063.2 570.985 1060.86 578.366C1057.08 589.872 1052.62 601.592 1044.97 611.118L1044.98 611.109Z" fill="#512A8B"/>
<path d="M987.597 666.577C1022.67 681.629 1058.1 669.62 1082.02 641.339C1091.61 628.748 1097.2 613.578 1101.96 598.684C1107.33 580.763 1111.65 562.521 1115.44 544.193C1118.57 528.605 1120.93 512.81 1124.63 497.367C1081.82 501.235 1036.83 492.709 995.781 508.606C971.595 517.265 948.858 533.355 938.27 557.36C924.908 586.089 936.96 618.535 956.211 641.467C964.851 652.033 975.327 660.991 987.607 666.569L987.597 666.577ZM968.891 752.535C962.553 765.126 944.459 764.417 935.742 754.857C932.459 750.831 931.684 745.064 933.354 740.192C931.832 744.081 926.063 744.754 922.289 744.742C922.289 744.742 922.289 744.742 922.261 744.75C922.261 744.75 922.243 744.748 922.224 744.747C922.224 744.747 922.214 744.755 922.196 744.754C916.026 744.402 908.943 742.389 905.068 737.314C903.428 734.666 903.733 730.914 905.633 728.463C907.789 725.911 911.544 725.683 914.634 726.093C921.347 726.937 932.397 731.62 933.669 738.963C933.626 739.273 933.559 739.554 933.473 739.832C933.901 738.696 934.463 737.597 935.157 736.591C937.659 733.007 941.204 729.503 945.841 729.424C954.261 729.008 965.309 737.576 959.836 746.43C957.846 750.311 953.516 753.12 949.085 752.303C947.895 751.973 946.92 750.996 946.511 749.842C946.919 749.56 947.44 749.369 947.905 749.193C950.232 748.616 952.393 749.14 954.163 747.176C958.188 742.097 955.045 736.222 949.196 734.689C943.344 732.594 938.914 738.756 938.116 743.907C937.517 748.373 939.739 753.035 943.85 755.034C949.049 757.963 956.234 758.042 960.803 753.916C966.253 747.169 964.917 738.016 963.074 730.187C962.252 727.095 960.549 724.314 958.924 721.602C958.498 720.548 956.584 718.477 955.673 716.778C955.497 716.553 955.313 716.318 955.146 716.084C951.514 710.715 948.95 704.259 949.803 697.676C950.429 689.115 953.588 681.014 960.142 675.254C964.609 671.488 970.005 667.748 975.82 666.47C967.428 661.456 959.788 654.805 953.111 646.625C944.983 637.313 938.038 626.37 933.371 614.652C932.502 616.988 931.097 619.118 929.69 620.908C923.043 629.212 913.723 635.277 903.129 636.669C891.274 638.305 877.862 634.417 871.038 624.054C870.269 622.918 869.584 621.761 869 620.602C854.544 608.661 829.989 628.673 846.401 643.331C849.998 645.788 854.571 644.379 857.82 641.984C862.72 638.224 861.659 630.529 856.523 627.494C855.36 626.678 853.984 627.346 852.806 627.689C850.603 628.331 849.492 630.346 847.755 631.631C847.459 631.885 847.086 632.307 846.655 632.284C846.251 632.271 845.84 631.991 845.547 631.729C843.644 629.872 844.741 626.724 846.56 625.214C849.435 622.764 853.773 621.18 857.483 622.393C864.048 625.279 867.819 633.54 865.157 640.307C862.52 647.103 854.246 650.919 847.286 649.227C843.28 648.268 840.203 645.16 838.106 641.759C828.162 624.629 850.553 605.466 866.836 614.572C862.801 596.632 878.936 578.611 898.863 582.434C906.642 584.142 911.868 592.027 912.791 599.601C914.169 609.779 905.487 620.018 894.955 618.431C883.32 616.834 876.221 603.558 886.942 595.556C890.544 593.474 897.834 592.898 900.068 597.175C900.595 598.467 900.51 600.063 899.305 600.892C899.25 600.887 899.188 600.855 899.143 600.842C897.487 600.707 896.248 599.563 894.698 599.251C890.333 598.411 887.026 602.054 887.02 606.233C888.841 614.097 899.821 616.565 904.494 609.749C908.213 605.052 908.152 598.381 905.421 593.265C900.491 584.032 887.812 586.203 880.766 591.669C869.726 599.517 869.076 615.746 878.284 625.261C886.129 633.225 898.866 633.655 908.89 630.083C915.621 627.42 921.15 622.659 925.688 617.122C927.879 614.352 929.861 611.299 930.535 607.778C930.597 607.571 930.649 607.373 930.728 607.185C925.791 591.045 925.391 573.852 932.182 557.743C941.607 534.514 962.085 517.368 984.967 508.066C1010.47 496.414 1038.67 493.834 1066.38 493.942C1080.53 493.807 1094.67 494.196 1108.82 494.319C1113.23 494.333 1117.67 494.286 1122.06 494.473C1123.4 494.64 1125.14 494.257 1126.1 495.389C1128.24 493.343 1129.76 496.368 1129.74 498.402C1128.87 504.679 1127.4 510.901 1126.35 517.174C1124.7 526.219 1123.21 535.303 1121.44 544.329C1118.76 558.027 1115.43 571.612 1111.97 585.131C1107.81 601 1103.19 616.908 1095.44 631.452C1082.67 655.31 1058.35 673.046 1031.44 676.802C1013.55 679.497 996.546 676.965 981.601 669.618C979.913 669.904 978.201 670.141 976.625 670.877C967.749 674.748 959.644 681.771 956.729 691.253C953.559 700.937 955.378 709.555 962.63 716.83C969.572 724.321 980.422 729.928 990.612 726.47C1005.53 720.971 1002.7 700.618 989.878 694.355C983.598 691.343 975.752 696.913 976.268 703.775C977.568 713.165 989.889 710.975 984.594 701.575C983.975 700.156 984.414 699.232 985.868 698.753C989.25 697.631 992.093 701.042 992.248 704.194C992.477 720.61 971.011 719.459 969.867 704.17C969.251 695.956 976.349 688 984.611 687.839C991.857 687.49 998.074 692.402 1001.94 698.148C1006.96 705.133 1008.14 715.001 1003.56 722.496C998.092 732.455 985.164 734.516 975.094 731.215C972.956 730.518 970.891 729.587 968.922 728.488C969.741 730.659 970.297 732.902 970.542 735.122C971.275 740.96 971.838 747.218 968.871 752.552L968.891 752.535Z" fill="#512A8B"/>
<path d="M936.236 709.558C937.463 714.476 931.609 717.703 927.746 719.222C921.895 721.215 914.579 722.001 909.109 718.757C906.589 716.916 905.473 713.323 906.308 710.348C907.342 707.168 910.743 705.549 913.758 704.776C920.298 703.047 932.299 703.236 936.235 709.576L936.236 709.558Z" fill="#512A8B"/>
<path d="M916.499 687.576C912.175 691.988 905.997 695.972 899.641 695.524C896.568 695.013 893.949 692.3 893.351 689.271C892.848 685.973 895.157 682.982 897.505 680.933C902.562 676.439 913.365 671.224 919.743 675.108C923.041 678.951 919.288 684.447 916.52 687.541L916.5 687.558L916.499 687.576Z" fill="#512A8B"/>
<path d="M897.579 664.99C896.552 671.09 893.753 677.957 888.245 681.247C885.428 682.569 881.735 681.855 879.516 679.687C877.224 677.257 877.419 673.496 878.184 670.48C879.781 663.908 885.671 653.447 893.135 653.013C898.001 654.278 898.078 660.867 897.589 664.982L897.579 664.99Z" fill="#512A8B"/>
<path d="M870.27 675.152C868.152 677.449 864.461 678.152 861.595 676.985C858.561 675.603 857.314 672.036 856.905 668.948C855.924 662.263 857.459 650.355 864.204 647.15C869.235 646.494 871.774 652.682 872.849 656.686C874.175 662.717 874.12 670.069 870.27 675.152Z" fill="#512A8B"/>
<path d="M851.285 677.273C850.133 680.178 846.943 682.163 843.845 682.101C840.519 681.893 838.078 679.009 836.582 676.289C833.257 670.4 830.428 658.731 835.573 653.323C839.992 650.916 844.553 655.693 847.006 659.029C850.424 664.189 853.062 671.111 851.276 677.264L851.285 677.273Z" fill="#512A8B"/>
<path d="M834.922 685.398C835.629 688.435 834.141 691.885 831.561 693.603C828.703 695.337 825.068 694.35 822.273 692.968C816.191 690.027 807.206 682.049 808.358 674.679C810.617 670.174 817.098 671.506 821.028 672.856C826.782 675.155 832.881 679.331 834.922 685.398Z" fill="#512A8B"/>
<path d="M825.138 710.541C823.138 713.215 819.392 713.675 816.298 713.438C809.547 712.987 798.234 708.975 796.533 701.709C796.941 696.722 803.369 695.501 807.502 695.273C807.52 695.274 807.538 695.276 807.567 695.269C813.766 695.235 821.001 696.828 825.187 701.687C826.982 704.236 826.896 708.005 825.146 710.551L825.138 710.541Z" fill="#512A8B"/>
<path d="M825.258 728.265C824.512 731.523 821.271 733.448 818.347 734.487C811.992 736.81 800.028 737.701 795.519 731.75C793.868 726.974 799.374 723.223 803.062 721.359C808.704 718.844 815.942 717.389 821.699 720.131C824.375 721.734 825.822 725.215 825.249 728.255L825.258 728.265Z" fill="#512A8B"/>
<path d="M829.796 752.413C825.148 757.325 814.837 763.471 808.157 760.153C804.523 756.616 807.802 750.808 810.274 747.489L810.294 747.472C814.212 742.707 820.025 738.197 826.396 738.085C829.509 738.322 832.349 740.795 833.208 743.77C833.992 747.016 831.954 750.184 829.794 752.431L829.796 752.413Z" fill="#512A8B"/>
<path d="M847.065 765.737C844.274 771.896 836.557 781.085 829.143 780.141C824.565 777.997 825.747 771.439 827.005 767.502C826.984 767.538 826.981 767.574 826.96 767.609L827.018 767.457C829.172 761.674 833.178 755.516 839.166 753.303C842.182 752.511 845.675 753.91 847.461 756.45C849.262 759.267 848.376 762.919 847.073 765.747L847.065 765.737Z" fill="#512A8B"/>
<path d="M868.979 767.412C870.202 774.061 869.087 786.019 862.461 789.463C857.489 790.308 854.719 784.268 853.493 780.308C851.943 774.315 851.715 766.932 855.392 761.706C857.424 759.33 861.087 758.495 863.999 759.555C867.078 760.831 868.449 764.342 868.979 767.412Z" fill="#512A8B"/>
<path d="M891.25 782.996C886.94 785.65 882.106 781.073 879.488 777.863L879.462 777.833C875.8 772.867 872.833 766.14 874.274 759.925C875.264 756.971 878.348 754.803 881.449 754.709C884.779 754.742 887.369 757.481 889.008 760.129C892.634 765.829 896.092 777.335 891.24 783.004L891.25 782.996Z" fill="#512A8B"/>
<path d="M914.72 767.901C911.297 771.608 905.42 768.507 902.029 766.131C897.145 762.333 892.452 756.625 892.175 750.242C892.348 747.134 894.725 744.221 897.677 743.296C900.901 742.428 904.122 744.386 906.42 746.486C911.443 751.004 917.859 761.152 914.718 767.919L914.72 767.901Z" fill="#512A8B"/>
<path d="M842.739 740.88C860.502 758.211 891.123 749.315 896.969 725.326C903.204 701.31 880.701 679.115 856.861 685.665C832.474 692.136 824.503 723.578 842.72 740.879L842.739 740.88ZM899.597 732.754C888.502 758.323 853.288 762.742 836.111 740.853C819.426 720.133 829.895 688.412 855.563 681.68C885.713 673.412 912.28 704.231 899.579 732.753L899.597 732.754Z" fill="#512A8B"/>
<path d="M874.863 730.147C875.444 729.648 876 729.12 876.531 728.562C877.003 728.036 877.441 727.49 877.843 726.922C878.208 726.37 878.546 725.806 878.856 725.232C879.141 724.646 879.416 724.05 879.657 723.433C879.869 722.823 880.053 722.22 880.21 721.606C880.354 720.936 880.469 720.272 880.539 719.596C880.589 718.937 880.621 718.277 880.617 717.613C880.594 716.949 880.524 716.29 880.427 715.638C880.305 714.938 880.147 714.235 880.024 713.793C880.003 713.709 879.972 713.633 879.942 713.538C879.735 712.878 879.48 712.242 879.206 711.604C878.889 710.935 878.534 710.282 878.197 709.75C877.967 709.382 877.774 709.018 877.592 708.626C877.561 708.55 877.53 708.474 877.499 708.398C877.475 708.35 877.452 708.284 877.437 708.246C877.378 708.058 877.318 707.869 877.259 707.68C877.155 707.599 877.061 707.509 876.966 707.418C876.191 706.715 875.516 705.908 874.731 705.213C874.265 704.809 873.779 704.422 873.272 704.07C872.686 703.667 872.088 703.289 871.46 702.956C871.407 702.934 871.371 702.912 871.328 702.882C871.328 702.882 871.328 702.882 871.319 702.872C871.032 702.776 870.743 702.699 870.446 702.612C870.122 702.513 869.778 702.432 869.453 702.352C868.793 702.2 868.129 702.085 867.471 702.016L867.435 702.014C866.521 701.925 865.611 701.902 864.699 701.915C863.849 701.942 862.988 702.015 862.148 702.153C861.513 702.27 860.877 702.406 860.256 702.58C859.624 702.78 858.99 702.999 858.381 703.265C857.817 703.526 857.268 703.843 856.746 704.171C856.031 704.614 855.35 705.096 854.75 705.594C854.228 706.042 853.731 706.519 853.26 707.027C852.777 707.561 852.321 708.106 851.909 708.682C851.526 709.233 851.188 709.796 850.868 710.38C850.858 710.388 850.846 710.415 850.845 710.433C850.531 711.044 850.263 711.668 850.011 712.312C849.778 712.957 849.589 713.615 849.428 714.284C849.315 714.791 849.231 715.291 849.174 715.802C849.119 716.397 849.101 716.994 849.102 717.592C849.132 718.285 849.208 718.972 849.294 719.651C849.437 720.435 849.598 721.221 849.825 721.984C850.047 722.701 850.306 723.402 850.604 724.088C850.912 724.746 851.251 725.38 851.627 725.998C852.039 726.637 852.48 727.251 852.959 727.849C853.424 728.391 853.929 728.899 854.443 729.399C854.987 729.873 855.542 730.32 856.108 730.741C856.712 731.146 857.337 731.535 857.983 731.869C858.551 732.152 859.13 732.408 859.72 732.637C860.321 732.84 860.933 733.034 861.538 733.181C862.245 733.327 862.954 733.455 863.675 733.538C864.334 733.588 864.994 733.62 865.658 733.615C866.332 733.584 867.01 733.516 867.688 733.43C868.332 733.322 868.97 733.168 869.59 732.995C870.289 732.772 870.98 732.521 871.666 732.223C872.153 731.994 872.615 731.734 873.078 731.456C873.707 731.053 874.301 730.629 874.88 730.167L874.863 730.147ZM883.896 729.41C881.887 732.691 879.02 735.39 875.615 737.184C871.892 739.146 867.646 740.139 863.438 739.781C860.52 739.53 857.765 738.712 855.167 737.4C852.76 736.13 850.589 734.417 848.821 732.358C847.798 731.166 846.905 729.845 846.193 728.437C844.552 725.209 843.633 721.567 843.883 717.93C844.104 714.798 844.755 711.69 846.159 708.86C847.521 706.1 849.417 703.686 851.522 701.931C852.369 701.204 853.274 700.564 854.222 699.974C854.945 699.541 855.71 699.176 856.473 698.829L856.539 698.806C857.216 698.499 857.928 698.213 858.628 697.971C858.761 697.926 858.893 697.881 859.025 697.836C859.196 697.775 859.384 697.716 859.563 697.665C859.79 697.59 860.015 697.534 860.24 697.478C860.297 697.463 860.343 697.458 860.381 697.442C860.635 697.379 860.878 697.324 861.122 697.269C861.375 697.205 861.627 697.16 861.879 697.115L861.936 697.101C862.188 697.055 862.448 697.02 862.7 696.975C862.918 696.89 863.135 696.824 863.361 696.767C863.463 696.748 863.576 696.719 863.679 696.7C863.782 696.68 863.903 696.661 864.014 696.652C864.246 696.623 864.487 696.605 864.7 696.593C864.894 696.581 865.097 696.578 865.29 696.583C865.438 696.576 865.576 696.577 865.722 696.589C865.869 696.6 866.007 696.601 866.153 696.612C866.978 696.657 867.806 696.785 868.62 696.976L868.63 696.967C868.704 696.973 868.758 696.977 868.822 696.991C868.958 697.011 869.095 697.03 869.223 697.04C869.378 697.061 869.542 697.092 869.705 697.123C870.541 697.26 871.356 697.451 872.175 697.689C872.419 697.754 872.661 697.836 872.903 697.919C872.984 697.953 873.065 697.969 873.101 697.99C874.06 698.33 874.97 698.712 875.864 699.177C877.901 700.234 879.799 701.668 881.355 703.362C881.591 703.637 881.82 703.903 882.056 704.179C882.116 704.248 882.183 704.327 882.241 704.414C882.341 704.551 882.45 704.697 882.548 704.852C882.623 704.959 882.689 705.056 882.754 705.172L882.771 705.191C882.771 705.191 882.779 705.201 882.788 705.211C883.002 705.421 883.205 705.657 883.398 705.902C883.893 706.539 884.286 707.296 884.646 708.014C884.725 708.186 884.813 708.349 884.892 708.521C884.971 708.692 885.05 708.864 885.121 709.026C885.184 709.16 885.239 709.284 885.293 709.426C885.387 709.636 885.472 709.854 885.558 710.054C885.575 710.074 885.572 710.11 885.589 710.13L885.705 710.424C886.41 712.283 886.847 714.268 886.999 716.259C887.358 720.844 886.285 725.495 883.876 729.427L883.896 729.41Z" fill="#512A8B"/>
<path d="M1288.75 378.954C1287.08 380.521 1284.35 380.368 1282.2 380.72C1273.91 381.614 1262.76 379.649 1259.13 371.178C1257.91 368.083 1259.69 362.317 1262.92 360.556C1263.43 360.2 1263.98 359.919 1264.56 359.696C1265.58 359.296 1266.67 359.112 1267.74 359.083C1267.92 359.069 1268.08 359.082 1268.26 359.086C1268.48 359.103 1268.71 359.093 1268.92 359.1C1269.37 359.125 1269.8 359.167 1270.25 359.228C1270.81 359.327 1271.38 359.453 1271.92 359.641C1278.03 361.084 1283.33 368.717 1286.6 373.284C1287.45 374.97 1289.84 376.993 1288.75 378.954Z" fill="#512A8B"/>
<path d="M1303.92 352.314C1302.83 354.311 1300.17 355.02 1298.24 356.023C1290.63 359.439 1279.42 361.032 1273.34 354.104C1271.22 351.53 1271.13 345.501 1273.66 342.831C1274.05 342.345 1274.48 341.89 1274.97 341.504C1275.82 340.805 1276.8 340.29 1277.8 339.925C1277.97 339.873 1278.13 339.821 1278.29 339.778C1278.51 339.712 1278.72 339.636 1278.94 339.588C1279.36 339.482 1279.8 339.378 1280.23 339.3C1280.79 339.214 1281.37 339.157 1281.95 339.173C1288.21 338.657 1295.61 344.268 1300.13 347.595C1301.46 348.931 1304.35 350.11 1303.92 352.314Z" fill="#512A8B"/>
<path d="M1310.78 325.565C1310.11 327.751 1307.65 328.954 1305.97 330.317C1299.19 335.176 1288.51 338.965 1281.18 333.369C1278.59 331.275 1277.3 325.385 1279.25 322.256C1279.54 321.707 1279.87 321.18 1280.27 320.704C1280.97 319.855 1281.82 319.165 1282.74 318.6C1282.88 318.509 1283.04 318.429 1283.19 318.349C1283.39 318.244 1283.58 318.13 1283.77 318.034C1284.18 317.844 1284.58 317.654 1284.99 317.501C1285.53 317.312 1286.09 317.143 1286.65 317.038C1292.69 315.29 1301.05 319.326 1306.14 321.684C1307.71 322.744 1310.78 323.328 1310.78 325.565Z" fill="#512A8B"/>
<path d="M1315.36 301.83C1314.69 304.016 1312.23 305.219 1310.54 306.581C1303.76 311.441 1293.09 315.23 1285.75 309.633C1283.17 307.539 1281.87 301.64 1283.83 298.521C1284.1 297.961 1284.44 297.444 1284.84 296.968C1285.53 296.119 1286.39 295.42 1287.3 294.854C1287.45 294.764 1287.6 294.684 1287.76 294.603C1287.96 294.499 1288.15 294.385 1288.34 294.289C1288.74 294.099 1289.15 293.918 1289.56 293.756C1290.09 293.557 1290.66 293.398 1291.22 293.293C1297.25 291.535 1305.62 295.58 1310.7 297.939C1312.27 298.989 1315.35 299.582 1315.35 301.82L1315.36 301.83Z" fill="#512A8B"/>
<path d="M1308.74 272.938C1305.6 280.672 1298.6 289.575 1289.42 288.763C1286.11 288.382 1281.88 284.081 1281.85 280.406C1281.79 279.793 1281.8 279.168 1281.87 278.557C1282.01 277.462 1282.37 276.421 1282.85 275.463C1282.92 275.313 1283 275.162 1283.09 275.013C1283.21 274.828 1283.31 274.624 1283.41 274.43C1283.65 274.052 1283.89 273.674 1284.16 273.326C1284.51 272.874 1284.9 272.435 1285.32 272.043C1289.49 267.334 1298.71 266.28 1304.27 265.544C1306.17 265.597 1309.08 264.447 1310.28 266.343C1310.88 268.553 1309.44 270.883 1308.75 272.939L1308.74 272.938Z" fill="#512A8B"/>
<path d="M1276.11 283.07C1275.43 283.893 1274.61 284.631 1273.65 285.184C1273.12 285.502 1272.56 285.763 1271.96 285.948C1268.59 287.403 1262.95 285.232 1261.27 282.361C1256.85 274.261 1262.22 264.285 1268.05 258.322C1269.65 256.861 1271.22 254.624 1273.48 254.28C1275.7 254.634 1275.81 257.754 1276.6 259.472C1278.16 264.858 1280.88 273.748 1278.23 279.438C1278.03 279.985 1277.79 280.519 1277.51 281.013C1277.29 281.392 1277.05 281.77 1276.8 282.137C1276.67 282.321 1276.53 282.494 1276.4 282.669C1276.3 282.808 1276.2 282.948 1276.09 283.077L1276.11 283.07Z" fill="#512A8B"/>
<path d="M1251.96 283.988C1251.28 284.81 1250.46 285.549 1249.5 286.111C1248.97 286.43 1248.4 286.681 1247.81 286.875C1244.43 288.321 1238.8 286.16 1237.12 283.288C1232.7 275.189 1238.07 265.213 1243.9 259.249C1245.5 257.788 1247.07 255.551 1249.33 255.208C1251.55 255.561 1251.66 258.682 1252.46 260.391C1254.02 265.776 1256.73 274.657 1254.09 280.357C1253.89 280.904 1253.64 281.428 1253.37 281.932C1253.15 282.311 1252.91 282.689 1252.66 283.056C1252.54 283.231 1252.39 283.413 1252.26 283.587C1252.16 283.727 1252.05 283.857 1251.95 283.996L1251.96 283.988Z" fill="#512A8B"/>
<path d="M1228.15 288.203C1227.69 288.628 1227.19 288.976 1226.65 289.285C1223.62 291.384 1217.67 290.367 1215.46 287.887C1209.52 280.833 1212.79 269.987 1217.34 262.987C1218.62 261.235 1219.72 258.722 1221.86 257.946C1224.1 257.85 1224.83 260.889 1225.95 262.411C1228.55 267.379 1232.97 275.543 1231.51 281.655C1231.43 282.238 1231.29 282.789 1231.13 283.338C1230.98 283.769 1230.82 284.162 1230.64 284.572C1230.56 284.768 1230.44 284.971 1230.36 285.176C1230.28 285.327 1230.22 285.488 1230.14 285.638C1229.63 286.575 1228.97 287.464 1228.15 288.203Z" fill="#512A8B"/>
<path d="M1207.49 297.205C1205.26 300.128 1199.29 301.008 1196.42 299.334C1188.59 294.454 1188.35 283.129 1190.49 275.08C1191.17 273.024 1191.43 270.29 1193.23 268.881C1195.32 268.092 1196.96 270.759 1198.51 271.862C1202.53 275.787 1209.26 282.175 1209.76 288.447C1209.86 289.016 1209.91 289.591 1209.92 290.162C1209.91 290.613 1209.89 291.044 1209.84 291.492C1209.83 291.712 1209.77 291.928 1209.75 292.157C1209.73 292.321 1209.7 292.503 1209.67 292.666C1209.48 293.72 1209.13 294.771 1208.58 295.723C1208.27 296.261 1207.9 296.767 1207.48 297.213L1207.49 297.205Z" fill="#512A8B"/>
<path d="M1192.4 308.103C1192.08 311.762 1187.51 315.704 1184.17 315.827C1174.94 315.895 1168.69 306.46 1166.2 298.489C1165.67 296.377 1164.43 293.934 1165.21 291.793C1166.56 290 1169.37 291.384 1171.26 291.491C1176.75 292.665 1185.86 294.465 1189.64 299.486C1190.04 299.913 1190.37 300.38 1190.68 300.846C1190.92 301.223 1191.13 301.608 1191.33 302.001C1191.44 302.202 1191.51 302.41 1191.62 302.612C1191.7 302.765 1191.76 302.917 1191.83 303.079C1192.23 304.067 1192.5 305.137 1192.55 306.246C1192.58 306.865 1192.53 307.478 1192.42 308.096L1192.4 308.103Z" fill="#512A8B"/>
<path d="M1181.28 332.206C1180.89 332.637 1180.45 333.018 1179.98 333.35C1179.14 333.949 1178.21 334.357 1177.24 334.624C1177.09 334.667 1176.93 334.701 1176.77 334.735C1176.57 334.775 1176.36 334.833 1176.16 334.882C1175.76 334.953 1175.35 335.013 1174.94 335.056C1174.42 335.099 1173.87 335.103 1173.34 335.063C1167.49 335.122 1160.99 329.424 1157.01 326.035C1155.86 324.695 1153.25 323.41 1153.8 321.398C1154.95 319.608 1157.46 319.146 1159.31 318.33C1166.61 315.655 1177.12 314.92 1182.31 321.771C1184.12 324.293 1183.8 329.904 1181.28 332.216L1181.28 332.206Z" fill="#512A8B"/>
<path d="M1182.36 354.028C1182.19 354.171 1182.03 354.315 1181.86 354.459C1181.51 354.727 1181.16 354.994 1180.79 355.242C1180.31 355.547 1179.81 355.84 1179.28 356.057C1173.81 359.074 1164.81 356.997 1159.35 355.825C1157.59 355.147 1154.49 355.261 1153.99 353.086C1154.17 350.816 1156.29 349.1 1157.62 347.406C1163.13 341.207 1172.65 335.194 1181 339.008C1183.98 340.478 1186.52 345.911 1185.3 349.363C1185.15 349.959 1184.95 350.542 1184.67 351.092C1184.18 352.076 1183.49 352.936 1182.74 353.67C1182.61 353.78 1182.49 353.899 1182.35 354L1182.36 354.028Z" fill="#512A8B"/>
<path d="M1194.8 373.945C1190.67 378.648 1181.5 379.743 1175.98 380.482C1174.1 380.449 1171.21 381.6 1170.01 379.722C1169.41 377.531 1170.82 375.208 1171.5 373.152C1174.58 365.45 1181.5 356.568 1190.64 357.33C1193.93 357.702 1198.16 361.956 1198.2 365.605C1198.26 366.217 1198.26 366.834 1198.19 367.446C1198.06 368.531 1197.72 369.574 1197.24 370.532C1197.17 370.682 1197.09 370.833 1197 370.982C1196.88 371.167 1196.78 371.371 1196.68 371.565C1196.44 371.935 1196.2 372.312 1195.94 372.66C1195.59 373.112 1195.22 373.553 1194.8 373.945Z" fill="#512A8B"/>
<path d="M1214.5 385.714C1212.57 391.699 1204.54 396.362 1199.74 399.264C1197.99 399.986 1195.78 402.203 1193.93 400.956C1192.5 399.171 1192.87 396.456 1192.68 394.296C1192.45 385.955 1195.27 374.993 1204.02 372.052C1207.21 371.08 1212.8 373.311 1214.31 376.668C1214.62 377.207 1214.86 377.787 1215.03 378.38C1215.35 379.426 1215.45 380.538 1215.39 381.593C1215.39 381.768 1215.37 381.941 1215.34 382.114C1215.32 382.342 1215.31 382.572 1215.28 382.782C1215.21 383.218 1215.14 383.655 1215.04 384.089C1214.89 384.639 1214.73 385.189 1214.49 385.722L1214.5 385.714Z" fill="#512A8B"/>
<path d="M1230.46 406.609C1229.25 408.063 1228.34 411.05 1226.11 410.825C1224.01 409.919 1223.07 407.342 1221.9 405.522C1217.8 398.258 1215.19 387.24 1221.55 380.553C1223.91 378.201 1229.92 377.564 1232.8 379.828C1233.33 380.163 1233.8 380.559 1234.24 381.006C1235 381.792 1235.62 382.714 1236.06 383.686C1236.12 383.838 1236.2 383.992 1236.26 384.162C1236.34 384.371 1236.43 384.58 1236.52 384.78C1236.67 385.197 1236.81 385.612 1236.92 386.045C1237.05 386.598 1237.17 387.168 1237.2 387.741C1238.28 393.929 1233.38 401.813 1230.48 406.61L1230.46 406.609Z" fill="#512A8B"/>
<path d="M1263.07 397.24C1262.89 399.123 1263.82 402.104 1261.85 403.178C1259.61 403.615 1257.38 402.018 1255.39 401.184C1247.9 397.5 1239.52 389.89 1240.98 380.785C1241.6 377.518 1246.19 373.596 1249.86 373.831C1250.48 373.813 1251.1 373.861 1251.71 373.99C1252.79 374.21 1253.81 374.63 1254.73 375.178C1254.87 375.263 1255.02 375.357 1255.16 375.46C1255.34 375.593 1255.54 375.7 1255.72 375.834C1256.08 376.091 1256.43 376.357 1256.76 376.65C1257.18 377.023 1257.59 377.441 1257.96 377.883C1262.35 382.38 1262.74 391.654 1263.07 397.259L1263.07 397.24Z" fill="#512A8B"/>
<path d="M1231.53 367.78C1239.86 366.906 1246.51 360.95 1251.77 354.888C1264.17 338.147 1268.88 317.146 1272.38 297.019C1252.86 297.103 1231.96 295.231 1214.16 304.774C1203.11 310.661 1195.88 322.41 1195.32 334.871C1194.57 342.557 1198.23 349.714 1203.56 355.047C1210.69 362.58 1220.83 368.731 1231.54 367.771L1231.53 367.78ZM1255.98 358.109C1249.85 365.044 1241.95 371.346 1232.53 372.552C1215.81 374.268 1199.12 362.212 1192.1 347.589C1185.66 330.635 1195.13 310.034 1210.64 301.596C1228.1 291.936 1253.92 292.121 1273.28 294.657C1273.67 293.858 1274.29 292.902 1275.14 292.645C1278.48 294.759 1277.5 299.362 1277.03 302.659C1275.9 310.335 1274.2 317.985 1271.86 325.366C1268.08 336.872 1263.62 348.592 1255.97 358.118L1255.98 358.109Z" fill="#512A8B"/>
<path d="M1198.6 413.577C1233.67 428.629 1269.1 416.62 1293.02 388.339C1302.61 375.748 1308.2 360.578 1312.96 345.684C1318.33 327.763 1322.65 309.521 1326.44 291.193C1329.57 275.605 1331.93 259.81 1335.63 244.367C1292.82 248.235 1247.83 239.709 1206.78 255.606C1182.59 264.265 1159.86 280.355 1149.27 304.36C1135.91 333.089 1147.96 365.535 1167.21 388.467C1175.85 399.033 1186.33 407.991 1198.61 413.569L1198.6 413.577ZM1179.89 499.535C1173.55 512.126 1155.46 511.417 1146.74 501.857C1143.46 497.831 1142.68 492.064 1144.35 487.192C1142.83 491.081 1137.06 491.754 1133.29 491.742C1133.29 491.742 1133.29 491.742 1133.26 491.75C1133.26 491.75 1133.24 491.748 1133.22 491.747C1133.22 491.747 1133.21 491.755 1133.2 491.754C1127.03 491.402 1119.94 489.389 1116.07 484.314C1114.43 481.666 1114.73 477.914 1116.63 475.463C1118.79 472.911 1122.54 472.683 1125.63 473.093C1132.35 473.937 1143.4 478.62 1144.67 485.963C1144.63 486.273 1144.56 486.554 1144.47 486.832C1144.9 485.696 1145.46 484.597 1146.16 483.591C1148.66 480.007 1152.2 476.503 1156.84 476.424C1165.26 476.008 1176.31 484.576 1170.84 493.43C1168.85 497.311 1164.52 500.12 1160.09 499.303C1158.9 498.973 1157.92 497.996 1157.51 496.842C1157.92 496.56 1158.44 496.369 1158.9 496.193C1161.23 495.616 1163.39 496.14 1165.16 494.176C1169.19 489.097 1166.05 483.222 1160.2 481.689C1154.34 479.594 1149.91 485.756 1149.12 490.907C1148.52 495.373 1150.74 500.035 1154.85 502.034C1160.05 504.963 1167.23 505.042 1171.8 500.916C1177.25 494.169 1175.92 485.016 1174.07 477.187C1173.25 474.095 1171.55 471.314 1169.92 468.602C1169.5 467.548 1167.58 465.477 1166.67 463.778C1166.5 463.553 1166.31 463.318 1166.15 463.084C1162.51 457.715 1159.95 451.259 1160.8 444.676C1161.43 436.115 1164.59 428.014 1171.14 422.254C1175.61 418.488 1181 414.748 1186.82 413.47C1178.43 408.456 1170.79 401.805 1164.11 393.625C1155.98 384.313 1149.04 373.37 1144.37 361.652C1143.5 363.988 1142.1 366.118 1140.69 367.908C1134.04 376.212 1124.72 382.277 1114.13 383.669C1102.27 385.305 1088.86 381.417 1082.04 371.054C1081.27 369.918 1080.58 368.761 1080 367.602C1065.54 355.661 1040.99 375.673 1057.4 390.331C1061 392.788 1065.57 391.379 1068.82 388.984C1073.72 385.224 1072.66 377.529 1067.52 374.494C1066.36 373.678 1064.98 374.346 1063.81 374.689C1061.6 375.331 1060.49 377.346 1058.75 378.631C1058.46 378.885 1058.09 379.307 1057.66 379.284C1057.25 379.271 1056.84 378.991 1056.55 378.729C1054.64 376.872 1055.74 373.724 1057.56 372.214C1060.44 369.764 1064.77 368.18 1068.48 369.393C1075.05 372.279 1078.82 380.54 1076.16 387.307C1073.52 394.103 1065.25 397.919 1058.29 396.227C1054.28 395.268 1051.2 392.16 1049.11 388.759C1039.16 371.629 1061.55 352.466 1077.84 361.572C1073.8 343.632 1089.94 325.611 1109.86 329.434C1117.64 331.142 1122.87 339.027 1123.79 346.601C1125.17 356.779 1116.49 367.018 1105.96 365.431C1094.32 363.834 1087.22 350.558 1097.94 342.556C1101.54 340.474 1108.83 339.898 1111.07 344.175C1111.6 345.467 1111.51 347.063 1110.31 347.892C1110.25 347.887 1110.19 347.855 1110.14 347.842C1108.49 347.707 1107.25 346.563 1105.7 346.251C1101.33 345.411 1098.03 349.054 1098.02 353.233C1099.84 361.097 1110.82 363.565 1115.49 356.749C1119.21 352.052 1119.15 345.381 1116.42 340.265C1111.49 331.032 1098.81 333.203 1091.77 338.669C1080.73 346.517 1080.08 362.746 1089.28 372.261C1097.13 380.225 1109.87 380.655 1119.89 377.083C1126.62 374.42 1132.15 369.659 1136.69 364.122C1138.88 361.352 1140.86 358.299 1141.54 354.778C1141.6 354.571 1141.65 354.373 1141.73 354.185C1136.79 338.045 1136.39 320.852 1143.18 304.743C1152.61 281.514 1173.09 264.368 1195.97 255.066C1221.47 243.414 1249.67 240.834 1277.38 240.942C1291.53 240.807 1305.67 241.196 1319.82 241.319C1324.23 241.333 1328.67 241.286 1333.06 241.473C1334.4 241.64 1336.14 241.257 1337.1 242.389C1339.24 240.343 1340.76 243.368 1340.74 245.402C1339.87 251.679 1338.4 257.901 1337.35 264.174C1335.7 273.219 1334.21 282.303 1332.44 291.329C1329.76 305.027 1326.43 318.612 1322.97 332.131C1318.81 348 1314.19 363.908 1306.44 378.452C1293.67 402.31 1269.35 420.046 1242.44 423.802C1224.55 426.497 1207.55 423.965 1192.6 416.618C1190.91 416.904 1189.2 417.141 1187.63 417.877C1178.75 421.748 1170.64 428.771 1167.73 438.253C1164.56 447.937 1166.38 456.555 1173.63 463.83C1180.57 471.321 1191.42 476.928 1201.61 473.47C1216.53 467.971 1213.7 447.618 1200.88 441.355C1194.6 438.343 1186.75 443.913 1187.27 450.775C1188.57 460.165 1200.89 457.975 1195.59 448.575C1194.98 447.156 1195.41 446.232 1196.87 445.753C1200.25 444.631 1203.09 448.042 1203.25 451.194C1203.48 467.61 1182.01 466.459 1180.87 451.17C1180.25 442.956 1187.35 435 1195.61 434.839C1202.86 434.49 1209.07 439.402 1212.94 445.148C1217.96 452.133 1219.14 462.001 1214.56 469.496C1209.09 479.455 1196.16 481.516 1186.09 478.215C1183.96 477.518 1181.89 476.587 1179.92 475.488C1180.74 477.659 1181.3 479.902 1181.54 482.122C1182.28 487.96 1182.84 494.218 1179.87 499.552L1179.89 499.535Z" fill="#512A8B"/>
<path d="M1147.24 456.558C1148.46 461.476 1142.61 464.703 1138.75 466.222C1132.89 468.215 1125.58 469.001 1120.11 465.757C1117.59 463.916 1116.47 460.323 1117.31 457.348C1118.34 454.168 1121.74 452.549 1124.76 451.776C1131.3 450.047 1143.3 450.236 1147.23 456.576L1147.24 456.558Z" fill="#512A8B"/>
<path d="M1127.5 434.576C1123.18 438.988 1117 442.972 1110.64 442.524C1107.57 442.013 1104.95 439.3 1104.35 436.271C1103.85 432.973 1106.16 429.982 1108.5 427.933C1113.56 423.439 1124.36 418.224 1130.74 422.108C1134.04 425.951 1130.29 431.447 1127.52 434.541L1127.5 434.558L1127.5 434.576Z" fill="#512A8B"/>
<path d="M1108.58 411.99C1107.55 418.09 1104.75 424.957 1099.24 428.247C1096.43 429.569 1092.73 428.855 1090.52 426.687C1088.22 424.257 1088.42 420.496 1089.18 417.48C1090.78 410.908 1096.67 400.447 1104.13 400.013C1109 401.278 1109.08 407.867 1108.59 411.982L1108.58 411.99Z" fill="#512A8B"/>
<path d="M1081.27 422.152C1079.15 424.449 1075.46 425.152 1072.59 423.985C1069.56 422.603 1068.31 419.036 1067.9 415.948C1066.92 409.263 1068.46 397.355 1075.2 394.15C1080.24 393.494 1082.77 399.682 1083.85 403.686C1085.17 409.717 1085.12 417.069 1081.27 422.152Z" fill="#512A8B"/>
<path d="M1062.28 424.273C1061.13 427.178 1057.94 429.163 1054.84 429.101C1051.52 428.893 1049.08 426.009 1047.58 423.289C1044.26 417.4 1041.43 405.731 1046.57 400.323C1050.99 397.916 1055.55 402.693 1058.01 406.029C1061.42 411.189 1064.06 418.111 1062.28 424.264L1062.28 424.273Z" fill="#512A8B"/>
<path d="M1045.92 432.398C1046.63 435.435 1045.14 438.885 1042.56 440.603C1039.7 442.337 1036.07 441.35 1033.27 439.968C1027.19 437.027 1018.21 429.049 1019.36 421.679C1021.62 417.174 1028.1 418.506 1032.03 419.856C1037.78 422.155 1043.88 426.331 1045.92 432.398Z" fill="#512A8B"/>
<path d="M1036.14 457.541C1034.14 460.215 1030.39 460.675 1027.3 460.438C1020.55 459.987 1009.23 455.975 1007.53 448.709C1007.94 443.722 1014.37 442.501 1018.5 442.273C1018.52 442.274 1018.54 442.276 1018.57 442.269C1024.77 442.235 1032 443.828 1036.19 448.687C1037.98 451.236 1037.9 455.005 1036.15 457.551L1036.14 457.541Z" fill="#512A8B"/>
<path d="M1036.26 475.265C1035.51 478.523 1032.27 480.448 1029.35 481.487C1022.99 483.81 1011.03 484.701 1006.52 478.75C1004.87 473.974 1010.37 470.223 1014.06 468.359C1019.7 465.844 1026.94 464.389 1032.7 467.131C1035.38 468.734 1036.82 472.215 1036.25 475.255L1036.26 475.265Z" fill="#512A8B"/>
<path d="M1040.8 499.413C1036.15 504.325 1025.84 510.471 1019.16 507.153C1015.52 503.616 1018.8 497.808 1021.27 494.489L1021.29 494.472C1025.21 489.707 1031.03 485.197 1037.4 485.085C1040.51 485.322 1043.35 487.795 1044.21 490.77C1044.99 494.016 1042.95 497.184 1040.79 499.431L1040.8 499.413Z" fill="#512A8B"/>
<path d="M1058.06 512.737C1055.27 518.896 1047.56 528.085 1040.14 527.141C1035.57 524.997 1036.75 518.439 1038.01 514.502C1037.98 514.538 1037.98 514.574 1037.96 514.609L1038.02 514.457C1040.17 508.674 1044.18 502.516 1050.17 500.303C1053.18 499.511 1056.67 500.91 1058.46 503.45C1060.26 506.267 1059.38 509.919 1058.07 512.747L1058.06 512.737Z" fill="#512A8B"/>
<path d="M1079.98 514.412C1081.2 521.061 1080.09 533.019 1073.46 536.463C1068.49 537.308 1065.72 531.268 1064.49 527.308C1062.94 521.315 1062.71 513.932 1066.39 508.706C1068.42 506.33 1072.09 505.495 1075 506.555C1078.08 507.831 1079.45 511.342 1079.98 514.412Z" fill="#512A8B"/>
<path d="M1102.25 529.996C1097.94 532.65 1093.11 528.073 1090.49 524.863L1090.46 524.833C1086.8 519.867 1083.83 513.14 1085.27 506.925C1086.26 503.971 1089.35 501.803 1092.45 501.709C1095.78 501.742 1098.37 504.481 1100.01 507.129C1103.63 512.829 1107.09 524.335 1102.24 530.004L1102.25 529.996Z" fill="#512A8B"/>
<path d="M1125.72 514.901C1122.3 518.608 1116.42 515.507 1113.03 513.131C1108.14 509.333 1103.45 503.625 1103.17 497.242C1103.35 494.134 1105.72 491.221 1108.68 490.296C1111.9 489.428 1115.12 491.386 1117.42 493.486C1122.44 498.004 1128.86 508.152 1125.72 514.919L1125.72 514.901Z" fill="#512A8B"/>
<path d="M1053.74 487.88C1071.5 505.211 1102.12 496.315 1107.97 472.326C1114.2 448.31 1091.7 426.115 1067.86 432.665C1043.47 439.136 1035.5 470.578 1053.72 487.879L1053.74 487.88ZM1110.6 479.754C1099.5 505.323 1064.29 509.742 1047.11 487.853C1030.43 467.133 1040.89 435.412 1066.56 428.68C1096.71 420.412 1123.28 451.231 1110.58 479.753L1110.6 479.754Z" fill="#512A8B"/>
<path d="M1085.86 477.147C1086.44 476.648 1087 476.12 1087.53 475.562C1088 475.036 1088.44 474.49 1088.84 473.922C1089.21 473.37 1089.55 472.806 1089.86 472.232C1090.14 471.646 1090.42 471.05 1090.66 470.433C1090.87 469.823 1091.05 469.22 1091.21 468.606C1091.35 467.936 1091.47 467.272 1091.54 466.596C1091.59 465.937 1091.62 465.277 1091.62 464.613C1091.59 463.949 1091.52 463.29 1091.43 462.638C1091.31 461.938 1091.15 461.235 1091.02 460.793C1091 460.709 1090.97 460.633 1090.94 460.538C1090.74 459.878 1090.48 459.242 1090.21 458.604C1089.89 457.935 1089.53 457.282 1089.2 456.75C1088.97 456.382 1088.77 456.018 1088.59 455.626C1088.56 455.55 1088.53 455.474 1088.5 455.398C1088.48 455.35 1088.45 455.284 1088.44 455.246C1088.38 455.058 1088.32 454.869 1088.26 454.68C1088.15 454.599 1088.06 454.509 1087.97 454.418C1087.19 453.715 1086.52 452.908 1085.73 452.213C1085.27 451.809 1084.78 451.422 1084.27 451.07C1083.69 450.667 1083.09 450.289 1082.46 449.956C1082.41 449.934 1082.37 449.912 1082.33 449.882C1082.33 449.882 1082.33 449.882 1082.32 449.872C1082.03 449.776 1081.74 449.699 1081.45 449.612C1081.12 449.513 1080.78 449.432 1080.45 449.352C1079.79 449.2 1079.13 449.085 1078.47 449.016L1078.43 449.014C1077.52 448.925 1076.61 448.902 1075.7 448.915C1074.85 448.942 1073.99 449.015 1073.15 449.153C1072.51 449.27 1071.88 449.406 1071.26 449.58C1070.62 449.78 1069.99 449.999 1069.38 450.265C1068.82 450.526 1068.27 450.843 1067.75 451.171C1067.03 451.614 1066.35 452.096 1065.75 452.594C1065.23 453.042 1064.73 453.519 1064.26 454.027C1063.78 454.561 1063.32 455.106 1062.91 455.682C1062.53 456.233 1062.19 456.796 1061.87 457.38C1061.86 457.388 1061.85 457.415 1061.85 457.433C1061.53 458.044 1061.26 458.668 1061.01 459.312C1060.78 459.957 1060.59 460.615 1060.43 461.284C1060.32 461.791 1060.23 462.291 1060.17 462.802C1060.12 463.397 1060.1 463.994 1060.1 464.592C1060.13 465.285 1060.21 465.972 1060.29 466.651C1060.44 467.435 1060.6 468.221 1060.83 468.984C1061.05 469.701 1061.31 470.402 1061.6 471.088C1061.91 471.746 1062.25 472.38 1062.63 472.998C1063.04 473.637 1063.48 474.251 1063.96 474.849C1064.42 475.391 1064.93 475.899 1065.44 476.399C1065.99 476.873 1066.54 477.32 1067.11 477.741C1067.71 478.146 1068.34 478.535 1068.98 478.869C1069.55 479.152 1070.13 479.408 1070.72 479.637C1071.32 479.84 1071.93 480.034 1072.54 480.181C1073.25 480.327 1073.95 480.455 1074.67 480.538C1075.33 480.588 1075.99 480.62 1076.66 480.615C1077.33 480.584 1078.01 480.516 1078.69 480.43C1079.33 480.322 1079.97 480.168 1080.59 479.995C1081.29 479.772 1081.98 479.521 1082.67 479.223C1083.15 478.994 1083.61 478.734 1084.08 478.456C1084.71 478.053 1085.3 477.629 1085.88 477.167L1085.86 477.147ZM1094.9 476.41C1092.89 479.691 1090.02 482.39 1086.61 484.184C1082.89 486.146 1078.65 487.139 1074.44 486.781C1071.52 486.53 1068.76 485.712 1066.17 484.4C1063.76 483.13 1061.59 481.417 1059.82 479.358C1058.8 478.166 1057.9 476.845 1057.19 475.437C1055.55 472.209 1054.63 468.567 1054.88 464.93C1055.1 461.798 1055.76 458.69 1057.16 455.86C1058.52 453.1 1060.42 450.686 1062.52 448.931C1063.37 448.204 1064.27 447.564 1065.22 446.974C1065.95 446.541 1066.71 446.176 1067.47 445.829L1067.54 445.806C1068.22 445.499 1068.93 445.213 1069.63 444.971C1069.76 444.926 1069.89 444.881 1070.03 444.836C1070.2 444.775 1070.38 444.716 1070.56 444.665C1070.79 444.59 1071.02 444.534 1071.24 444.478C1071.3 444.463 1071.34 444.458 1071.38 444.442C1071.63 444.379 1071.88 444.324 1072.12 444.269C1072.38 444.205 1072.63 444.16 1072.88 444.115L1072.94 444.101C1073.19 444.055 1073.45 444.02 1073.7 443.975C1073.92 443.89 1074.14 443.824 1074.36 443.767C1074.46 443.748 1074.58 443.719 1074.68 443.7C1074.78 443.68 1074.9 443.661 1075.01 443.652C1075.25 443.623 1075.49 443.605 1075.7 443.593C1075.89 443.581 1076.1 443.578 1076.29 443.583C1076.44 443.576 1076.58 443.577 1076.72 443.589C1076.87 443.6 1077.01 443.601 1077.15 443.612C1077.98 443.657 1078.81 443.785 1079.62 443.976L1079.63 443.967C1079.7 443.973 1079.76 443.977 1079.82 443.991C1079.96 444.011 1080.1 444.03 1080.22 444.04C1080.38 444.061 1080.54 444.092 1080.7 444.123C1081.54 444.26 1082.36 444.451 1083.18 444.689C1083.42 444.754 1083.66 444.836 1083.9 444.919C1083.98 444.953 1084.07 444.969 1084.1 444.99C1085.06 445.33 1085.97 445.712 1086.86 446.177C1088.9 447.234 1090.8 448.668 1092.35 450.362C1092.59 450.637 1092.82 450.903 1093.06 451.179C1093.12 451.248 1093.18 451.327 1093.24 451.414C1093.34 451.551 1093.45 451.697 1093.55 451.852C1093.62 451.959 1093.69 452.056 1093.75 452.172L1093.77 452.191C1093.77 452.191 1093.78 452.201 1093.79 452.211C1094 452.421 1094.2 452.657 1094.4 452.902C1094.89 453.539 1095.29 454.296 1095.65 455.014C1095.72 455.186 1095.81 455.349 1095.89 455.521C1095.97 455.692 1096.05 455.864 1096.12 456.026C1096.18 456.16 1096.24 456.284 1096.29 456.426C1096.39 456.636 1096.47 456.854 1096.56 457.054C1096.57 457.074 1096.57 457.11 1096.59 457.13L1096.7 457.424C1097.41 459.283 1097.85 461.268 1098 463.259C1098.36 467.844 1097.29 472.495 1094.88 476.427L1094.9 476.41Z" fill="#512A8B"/>
</svg>
