<svg width="1440" height="86" viewBox="0 0 1440 86" fill="none" xmlns="http://www.w3.org/2000/svg">
<mask id="mask0_19_4648" style="mask-type:luminance" maskUnits="userSpaceOnUse" x="0" y="0" width="1440" height="86">
<path d="M0 0L1439.87 1.1485e-05V85.9406H0V0Z" fill="white"/>
</mask>
<g mask="url(#mask0_19_4648)">
<path d="M0 0L1439.89 1.1485e-05V85.9406H0V0Z" fill="#D72327"/>
</g>
<mask id="mask1_19_4648" style="mask-type:luminance" maskUnits="userSpaceOnUse" x="15" y="11" width="717" height="62">
<path d="M15.7656 11.7207H731.317V72.2487H15.7656V11.7207Z" fill="white"/>
</mask>
<g mask="url(#mask1_19_4648)">
<path d="M14.1445 2.896H735.488V81.7482L14.1445 81.7481V2.896ZM14.8658 76.9361L14.9559 79.6633L15.9589 80.9706H733.99V76.9361H14.8658ZM14.8658 9.33083V75.3133H733.99V9.33084L14.8658 9.33083ZM734.035 3.7074L16.004 3.70739C14.5953 3.70739 14.5953 7.74184 16.004 7.74184L734.035 7.74185V3.7074Z" fill="#FFFCF5"/>
</g>
<mask id="mask2_19_4648" style="mask-type:luminance" maskUnits="userSpaceOnUse" x="21" y="11" width="708" height="62">
<path d="M21.2188 11.7217H728.036V72.2497H21.2188V11.7217Z" fill="white"/>
</mask>
<g mask="url(#mask2_19_4648)">
<path d="M37.7987 54.3755C35.759 51.468 37.0775 45.4952 35.9844 43.0836C35.3533 41.7312 33.3135 41.596 32.2767 40.6832C23.7571 33.2116 30.0454 16.3525 38.5651 11.7321C37.5734 22.2915 47.5468 24.6017 45.9127 35.4316C45.3718 39.1055 41.3824 42.723 37.8438 42.3623C36.4352 59.8975 48.809 67.2452 62.5915 70.5021L59.1881 61.757C45.4169 62.2529 45.9127 43.2301 53.7562 35.1161L57.509 41.4608C59.8643 44.7627 62.8169 45.5403 64.3044 50.1608C66.7161 57.4972 60.732 59.8525 60.8672 61.8922C64.9017 76.8467 80.8479 69.33 90.3255 65.6562C91.8581 63.932 86.0206 63.346 85.4684 63.346C83.6089 63.4361 81.1635 65.6562 78.3574 65.2054C70.7956 64.0672 65.8033 47.8956 70.6942 41.5059C71.6972 40.9649 72.4635 43.6358 73.7369 44.5824C79.4054 48.8873 92.3653 48.6619 86.5615 61.5767C96.2081 64.9801 103.015 53.8797 108.041 46.7123C102.327 46.9828 97.7521 49.2029 91.7229 47.5801C76.9487 43.5456 78.1771 28.1403 68.6093 23.6438L61.4533 21.3787C69.0714 16.9385 77.4558 13.321 85.5135 18.8431C88.3308 12.4984 99.4312 11.0108 102.508 17.3442C103.871 20.1616 99.4763 20.8828 98.293 24.782C95.8475 32.8059 100.197 32.7608 103.511 37.1559C106.001 40.4127 105.145 45.36 109.123 44.6726C111.117 44.3119 117.101 34.5752 119.141 32.1635C132.822 15.8567 147.642 6.60451 168.715 12.9041C189.789 19.2037 197.948 40.007 211.99 55.1419L210.908 42.8131C198.038 38.418 203.065 16.9836 213.083 12.4984C212.677 21.6491 226.539 30.3604 219.022 39.4661C217.433 41.4157 212.768 42.182 212.407 43.5456C213.399 53.0119 214.311 59.1763 222.008 64.2926C226.539 67.2903 233.019 70.3668 238.236 70.0062C235.836 69.0596 234.788 62.5797 233.841 61.9373C232.838 61.2612 231.069 61.757 229.942 61.3964C221.828 58.6354 222.189 46.8025 225.277 39.8267C229.356 30.8112 228.984 36.4684 231.576 40.2775C234.743 44.898 240.547 47.2983 239.679 54.6911C239.138 59.4918 233.064 59.2665 237.831 66.4676C243.127 74.4914 258.578 69.3751 264.832 64.4279C257.676 61.2611 253.687 69.2399 247.432 60.8554C243.443 55.4574 242.767 47.8956 244.852 41.5509C247.072 42.4074 247.838 44.4021 250.238 45.7206C257.541 49.5748 264.922 48.8873 261.846 61.6218C266.782 66.6479 280.88 50.9722 281.781 47.5801C282.277 45.7206 281.015 46.532 280.238 46.7123C271.402 48.3915 266.151 49.7551 258.533 43.185C250.926 36.6037 249.382 21.6491 236.693 22.2915C242.631 16.2173 252.875 13.9521 260.031 18.8431C264.922 12.2279 273.667 10.9094 278.017 18.6627C278.017 19.3389 272.045 22.3366 272.27 28.2305C272.495 34.1131 277.386 34.9358 279.516 38.8801C281.331 42.2271 279.787 46.2616 284.633 44.5824C297.739 23.4184 315.049 6.51436 340.326 12.1378C359.18 16.3074 370.055 34.4737 381.347 49.6198L385.787 54.4206L384.694 42.8582C371.554 37.6066 377.177 17.8964 386.869 11.7771C387.646 24.6468 405.001 35.2964 386.238 43.5907C387.004 47.535 386.914 51.0623 388.232 54.9615C391.399 64.2475 402.916 68.0566 410.929 70.5021L407.627 62.0275C397.834 62.0275 395.974 53.6881 397.428 44.5373C397.744 42.5426 402.364 31.8029 403.908 35.612C404.088 41.9566 410.929 44.1767 412.833 49.9354C415.471 57.9479 409.757 58.2297 409.847 61.9373C409.937 64.6645 413.701 69.9611 416.147 70.457C423.393 71.9558 432.093 68.6877 438.708 65.6562C440.162 64.0222 435.136 63.3009 434.538 63.3009C430.515 63.3911 429.107 67.3354 423.934 63.6165C417.736 59.1312 416.192 48.7521 418.727 41.5509L424.125 45.7206C432.003 47.9407 438.618 51.2877 435.722 61.6218C441.345 66.3775 454.801 52.1104 456.435 47.5801C456.841 46.4419 456.3 46.2616 455.342 46.3968C452.761 46.7574 450.496 48.2562 447.183 48.3464C441.616 48.4816 436.758 46.8926 432.408 43.1399C424.486 36.2881 423.258 21.6041 410.568 22.2464C416.733 16.3074 426.571 13.8169 433.907 18.798C439.215 11.9574 446.867 11.0559 451.995 18.6177C447.138 21.8858 444.016 27.8135 447.96 33.482C451.172 38.1025 452.085 36.1078 454.891 43.6358C455.161 44.4021 454.711 45.0332 456.063 44.8078C457.652 44.943 458.294 44.5373 459.466 43.5907C461.912 41.596 466.713 33.3919 469.395 30.259C483.166 14.0874 499.259 6.79609 519.51 13.5915C538.589 19.9813 547.74 42.2722 561.522 56.0096L559.212 42.4525C549.239 38.5533 550.602 25.909 555.764 17.9415C556.53 16.7131 560.97 11.101 562.289 12.5885C560.97 20.8377 569.354 24.6919 569.726 32.2537C570.042 38.835 566.819 41.2354 561.477 42.8131C560.114 59.0862 571.991 68.5074 585.582 70.457C587.848 70.7725 584.264 66.1972 583.768 65.1604C583.317 64.2025 583.002 61.8472 582.866 61.7119C582.596 61.4415 578.291 61.7119 575.925 60.0328C569.4 55.3672 571.62 37.6968 577.423 35.1161C578.742 34.5188 578.381 35.7021 578.607 36.198C579.238 37.787 579.418 39.0604 580.421 40.6381C583.768 45.946 589.391 46.9377 588.073 55.5025C587.577 58.9058 584.309 59.2214 584.546 61.757C585.808 75.7649 606.701 70.457 613.271 64.3828C606.296 61.3062 603.613 69.1948 596.953 61.9824C591.927 56.5956 591.792 48.5718 593.291 41.4608C593.922 40.8184 598.046 45.1233 599.263 45.8108C606.115 49.6198 613.767 49.1127 610.285 61.5767C616.303 64.4279 621.115 59.1312 625.093 54.7812C625.871 53.9248 630.807 47.9407 630.987 47.535C631.573 45.9911 630.221 46.2616 629.308 46.4869C622.197 48.3464 618.252 49.5748 611.096 45.8559C599.173 39.6915 599.816 22.021 585.132 22.2013C591.612 16.1271 601.619 13.7267 609.147 19.0234C611.818 12.9041 620.067 11.4165 624.732 15.7665C629.815 20.5222 621.566 20.1165 621.34 27.4078C621.115 34.7104 624.777 33.8877 627.64 38.3279C629.544 41.2354 629.725 47.7153 633.894 43.4104C638.47 38.6434 642.685 30.721 647.575 25.6836C664.57 8.14843 687.909 5.92835 706.853 21.3787C715.237 28.2305 721.03 38.2377 727.915 46.7123C727.464 47.3998 726.383 48.4366 725.74 47.9407C725.334 47.6252 722.393 41.596 720.984 40.6381C715.778 37.2009 716.634 43.3653 714.55 46.6222C712.465 49.8903 708.52 50.1608 708.025 55.6828C707.439 62.5797 713.919 65.2956 713.919 66.0619C710.741 70.1415 707.168 72.4066 702.086 70.9078C699.595 70.1865 696.428 65.9267 695.831 65.8816C695.335 65.8816 692.214 67.7411 690.58 68.0115C684.686 68.9244 676.482 67.5157 672.503 62.4444C688.9 61.3513 685.553 42.3173 701.5 37.246C708.205 35.1161 712.059 37.5165 718.404 37.8771C713.603 30.5858 706.391 19.2488 696.924 23.0127C702.953 35.9275 689.768 35.7021 684.1 40.007C682.826 40.9537 682.06 43.6358 681.068 43.0836C676.673 36.4684 680.651 21.0631 688.495 19.801C692.89 19.1135 696.654 22.607 701.409 20.1616C694.614 13.3661 672.548 8.23858 671.41 22.9226C671.275 24.5116 673.63 25.6385 674.352 27.0472C677.755 33.437 672.086 39.4661 667.782 43.1399C666.384 43.9062 665.607 50.2059 664.074 49.5184C662.8 48.9775 660.085 43.185 659.589 41.5059C657.087 32.8059 659.397 22.021 669.506 22.8775L673.675 13.321C658.856 16.3074 647.395 24.1059 648.207 42.2722C654.867 42.4976 657.132 47.2082 656.321 54.0149C655.644 60.0328 647.305 65.3858 648.894 72.9025C640.6 68.5074 634.075 50.882 642.73 44.0866C643.631 43.4104 646.392 42.4525 646.572 42.2271C647.035 41.4157 646.809 31.0816 648.161 28.6813C633.613 44.357 625.42 64.7997 604.121 71.2797C582.821 77.7596 567.777 67.0649 553.859 50.4312C552.27 48.5267 547.064 40.0521 545.745 39.8718C540.764 39.2407 541.992 42.9033 539.772 46.3066C536.639 51.1525 531.253 50.9271 533.878 60.0779C535.186 64.6645 541.767 64.1574 536.865 68.8793C531.974 73.5899 524.13 71.46 521.279 65.6111C513.796 70.5472 503.789 68.5525 497.264 62.4444C511.993 62.8952 511.621 44.4472 523.139 38.6885C527.534 36.5135 532.695 36.198 537.507 36.7502C538.724 36.8854 544.348 40.007 543.84 37.0657C543.615 35.7923 535.918 26.5964 534.464 25.5484C530.971 22.9677 526.44 21.1984 522.361 23.0127C526.531 35.3415 516.839 35.5218 510.043 39.7366C508.274 40.8184 507.406 42.9934 505.378 43.0836C503.879 36.3783 504.195 27.5881 509.041 22.562C515.205 16.1722 519.961 23.1931 526.812 20.1616C527.173 18.4824 525.764 18.8881 524.818 18.3472C517.47 13.9972 502.786 9.06125 497.76 19.2037C494.311 26.1907 498.616 23.7791 499.8 27.7684C503.147 39.2407 490.514 40.1873 490.514 50.3411C484.304 45.946 481.622 33.8427 485.747 27.0472C489.105 21.5139 494.041 23.6438 494.909 22.8775C495.179 22.6521 496.261 17.8063 497.264 16.2173C498.03 15.034 499.439 15.3608 499.394 14.1324C485.116 14.9889 471.75 25.1427 473.519 42.2271C476.686 41.7763 480.766 45.2698 481.442 48.4816C483.662 58.9058 472.742 62.6698 474.195 72.8574C464.357 67.5608 458.103 47.4448 471.119 42.1369L472.742 30.2139C459.557 43.6809 450.902 64.0672 432.454 70.457C411.019 77.8948 395.388 69.285 380.975 52.3358C379.172 50.2058 373.278 41.01 372.14 40.2324C367.79 37.3362 367.384 43.9964 365.479 46.6673C362.358 51.0172 357.14 52.5161 360.138 60.5399C361.174 63.346 365.389 64.3828 364.623 66.6029C362.493 72.8123 349.263 72.8123 347.674 65.5661C340.101 69.9611 329.676 68.5975 323.287 62.343C328.685 62.7149 333.891 58.8157 336.934 54.2403C338.748 51.468 339.605 48.0309 341.825 45.0332C347.313 37.6517 355.145 35.657 363.575 36.6487C364.307 36.7502 370.968 39.8267 369.92 37.0206C363.8 30.6309 358.594 19.2938 348.485 22.9226C353.106 34.8907 342.783 35.657 336.156 39.6464C334.353 40.7283 333.531 42.9033 331.491 42.9934C329.045 33.437 332.043 17.9866 343.639 19.7108C345.003 19.9362 346.04 21.1082 347.358 21.1533C347.899 21.1533 353.748 20.5673 352.204 18.8431C342.411 14.0874 326.104 7.06656 322.611 23.3283L322.746 24.3313C331.085 29.7631 324.38 38.6434 318.937 43.3653C316.356 46.7123 317.359 53.1922 313.144 46.4419C307.566 37.5616 308.704 21.6491 321.067 22.7423C320.796 18.798 325.281 16.5328 324.47 13.1858C318.486 14.9889 312.739 16.623 307.566 20.5673C301.582 25.1877 299.407 33.7074 299.587 41.6411C304.94 43.2752 308.152 45.6755 307.836 52.2005C307.476 59.5369 299.181 63.8869 300.41 71.8657C299.136 73.3194 294.651 67.7411 293.885 66.5127C288.938 58.5903 287.45 45.8108 297.322 41.9566L299.677 28.4559C297.683 30.0336 295.789 32.0734 294.11 34.068C282.739 47.9407 275.302 64.5744 257.316 70.5021C230.889 79.2471 212.497 62.4895 197.948 40.4578C192.009 37.8771 193.779 40.4578 192.144 43.9062C189.383 49.8452 180.188 53.3726 186.206 62.0275C187.434 63.7517 190.51 64.6645 190.105 65.8365C188.843 69.285 183.49 71.46 180.143 71.0993C175.973 70.6824 172.75 65.7013 172.029 65.6562C171.341 65.6111 169.448 67.3804 168.129 67.6509C161.244 69.285 154.257 67.1551 148.69 62.6247C161.514 62.343 162.461 48.2562 170.53 41.3255C178.599 34.3836 186.115 35.9275 195.277 38.0574C195.863 37.5165 193.553 34.3836 193.057 33.6623C188.797 27.7684 181.27 19.4741 173.843 22.8324C177.1 36.0627 169.076 34.6653 162.19 38.7336C160.883 39.5112 157.75 43.6809 156.804 42.9033C153.445 33.7074 157.705 17.4457 168.941 19.6206C170.079 19.846 170.89 21.0631 171.984 21.1533C173.663 21.3336 176.198 19.7108 178.238 20.3419C179.771 19.0684 173.336 16.5779 172.705 16.3074C164.951 13.0393 151.992 9.37679 148.464 20.5673C146.695 26.1456 152.409 25.4582 151.451 32.6256C150.504 39.7816 141.849 41.8214 141.984 49.3381C140.125 51.3328 136.226 42.9483 135.82 41.1452C134.682 36.198 134.637 27.9037 138.761 24.5116C141.252 22.4718 144.43 23.3283 145.692 22.4267C146.47 21.8858 148.104 15.1242 150.098 13.9521C136.045 15.3608 124.258 24.2862 124.303 40.8184C124.72 42.4976 133.735 42.8131 133.149 52.1555C132.687 58.996 123.581 64.4279 125.711 71.8657C114.926 68.7778 109.855 45.7206 122.77 41.596L124.212 29.2673C111.208 43.6809 101.2 64.8899 82.2115 70.8627C55.9763 79.157 36.0294 60.6301 22.123 38.5082C21.2102 37.0657 21.6271 35.657 22.4836 35.7021C26.9238 40.6832 30.5976 47.8055 35.0377 52.6062C35.8041 53.4627 36.2999 54.5108 37.6184 54.1952L37.7987 54.3755ZM35.6238 15.8116C32.3218 21.8407 29.5045 26.371 30.5074 33.8427C31.7245 43.2752 45.6873 42.4525 44.5041 31.5775C44.0082 27.1373 37.7086 22.021 37.2127 16.9385L35.6688 15.8116H35.6238ZM52.618 39.1055C50.8487 43.7259 49.3048 49.4283 50.7135 54.4206C52.8885 62.1176 64.9919 60.585 62.6365 51.1074C61.904 48.2562 56.8328 42.9483 54.7029 40.4127C54.0718 39.6464 54.0267 38.6885 52.618 39.0604V39.1055ZM96.1631 32.5805C96.58 29.673 95.8024 26.6415 96.58 23.7791C97.5267 20.3419 103.601 18.7078 98.4733 16.2173C93.357 13.7267 89.1422 16.4877 86.2009 21.3787C80.307 17.9415 73.1509 16.3976 67.3922 21.0631C70.5139 22.4267 72.9706 24.2862 75.1907 27.0923C79.0335 32.0283 80.9381 41.1002 87.3729 42.3623C87.6434 36.8403 91.5426 33.8427 96.1631 32.6256V32.5805ZM71.1111 45.5403C70.7393 51.1525 71.021 56.1899 74.7737 60.4497C81.479 68.0566 90.3255 57.5873 83.7554 51.5131L71.1111 45.5403ZM88.9619 43.4104C89.8184 46.6672 104.367 47.9407 104.412 43.5907C104.412 41.1002 99.296 34.8907 97.3914 34.6202C94.0331 34.1131 87.9702 39.6464 88.9168 43.4104H88.9619ZM123.626 68.8793C123.897 62.8051 130.467 58.6805 131.064 53.1922C132.326 41.2805 117.192 41.1452 116.921 53.1922C116.831 58.5452 119.457 65.8816 123.626 68.8793ZM137.127 37.6968C137.454 40.3226 138.581 43.5456 140.26 45.5403C143.066 40.1423 150.098 37.3813 149.546 30.6759C149.276 27.2275 147.878 25.7287 144.7 25.4131C137.95 24.737 136.406 31.6226 137.127 37.6968ZM154.719 63.2558C154.493 65.2054 154.719 64.5293 155.756 64.935C161.74 67.3354 168.039 67.4706 172.84 62.4444C175.646 68.5975 181.901 72.046 187.254 66.8395C183.85 62.0725 181.27 58.41 183.535 51.9751C178.463 51.1976 174.339 47.1631 173.888 41.5059C164.861 46.1263 164.861 60.4948 154.674 63.2558H154.719ZM157.66 39.1055C162.731 37.0657 178.869 31.7578 171.026 23.3734C163.193 14.9889 155.575 31.6677 157.66 39.1055ZM176.288 40.007C174.474 44.4021 180.458 50.5214 183.985 50.0706C184.267 50.0706 188.381 47.073 188.572 46.8926C189.699 45.7657 192.009 40.2775 190.972 39.1055C185.89 37.9673 181.179 37.787 176.288 39.9619V40.007ZM211.674 15.8116C206.603 19.7108 203.47 29.1771 205.702 35.5669C208.237 42.8131 219.293 41.8665 219.112 33.0763C218.977 26.0555 212.362 22.6521 211.629 15.7665L211.674 15.8116ZM225.186 52.2005C227.091 64.3828 241.178 59.8074 237.188 49.5748C236.197 47.073 229.536 42.5877 228.308 39.1055C225.367 42.2722 224.454 47.7604 225.186 52.1555V52.2005ZM242.767 19.801C242.361 21.7506 243.082 21.1082 243.713 21.559C245.347 22.7874 247.162 23.5537 248.661 25.2328C253.597 30.5858 254.915 40.1873 261.981 42.3173C262.612 37.0206 266.917 33.437 271.628 32.6706C269.453 26.1907 271.673 22.562 275.347 17.8063C270.591 12.859 262.973 15.5411 261.249 22.2013C255.727 16.9385 249.382 17.5809 242.767 19.801ZM245.708 45.5403C243.713 52.9669 251.467 69.3751 259.074 61.2611C266.692 53.1472 250.791 47.5801 245.708 45.5403ZM278.975 45.5403C280.283 41.9566 274.986 35.5218 272.36 34.8006C267.548 33.437 261.53 42.5877 264.607 44.8529C267.683 47.118 275.347 46.2616 278.93 45.5403H278.975ZM299.001 68.0566C299.317 62.1176 306.202 57.4521 306.394 51.468C306.619 44.8529 298.595 41.8214 294.245 46.3968C289.4 51.468 292.521 65.7915 299.001 68.0566ZM319.264 40.2775C326.555 36.2881 327.141 23.734 317.134 25.5033C310.192 26.7317 310.789 40.9649 314.868 45.5854L319.218 40.3226L319.264 40.2775ZM344.361 45.0332C339.425 50.3411 337.836 61.4415 329.316 63.6615C334.669 67.5608 342.963 68.0115 347.448 62.4895C349.849 68.0566 358.323 72.7221 361.806 66.1972C358.053 61.9824 356.509 57.9029 358.143 52.0653C353.838 50.4763 348.846 48.121 349.308 42.3173C348.485 41.4608 345.138 44.2669 344.406 45.0332H344.361ZM332.404 37.787C332.629 38.5082 333.26 39.3309 334.072 39.0604C337.926 35.1612 351.934 33.9779 347.133 25.0074C341.419 14.2226 330.048 29.6279 332.404 37.787ZM350.84 39.9619C349.984 45.36 354.289 49.0226 358.684 50.2058C362.493 48.1661 365.615 45.1684 366.257 40.3676C361.997 36.4684 355.743 38.5533 350.84 39.9619ZM385.562 15.8116C376.219 20.973 376.67 46.8025 389.776 39.2858C399.558 33.7074 386.193 22.6972 385.562 15.8116ZM399.062 52.2005C400.696 62.6698 412.743 61.4865 411.436 51.6483C410.884 47.5801 404.179 43.0836 402.229 39.1506C399.378 42.8131 398.341 47.4899 399.107 52.2005H399.062ZM435.136 22.2013C429.512 17.0738 422.176 16.8484 415.921 20.973C426.346 23.6438 426.886 37.7419 435.541 43.0836C436.443 37.5616 440.297 33.437 445.515 32.6256C443.34 26.1456 445.56 22.5169 449.222 17.7612C444.467 12.8139 436.86 15.496 435.136 22.1563V22.2013ZM419.584 45.5403C417.409 53.0119 425.388 69.33 432.961 61.2611C440.522 53.1922 424.666 47.5801 419.584 45.5403ZM452.851 45.5403C454.666 42.182 447.78 34.8456 445.875 34.5752C444.782 34.4287 440.387 36.8403 439.531 37.8771C432.183 47.1631 447.453 47.2082 452.851 45.5403ZM471.389 68.8793L478.185 57.3619C486.254 43.8612 466.172 38.0123 465.766 53.3275C465.586 59.6271 468.482 63.932 471.434 68.8793H471.389ZM491.595 41.8214C493.004 40.2775 495.134 39.1956 496.486 37.1108C504.645 25.0976 486.434 19.3389 485.566 34.068C485.431 36.2881 486.795 43.771 488.339 45.1684C490.052 46.7123 490.469 43.0385 491.55 41.8214H491.595ZM518.248 45.0332C513.3 50.3411 511.756 61.2161 503.192 63.6615C509.356 68.1918 515.881 66.8846 522 63.2108C523.95 68.1918 530.836 71.6403 535.005 67.696C536.82 65.9718 533.653 64.0222 532.74 62.1176C531.117 58.5452 531.207 55.9082 531.974 52.1104C527.669 50.5214 522.688 48.1661 523.139 42.3623C522.316 41.5059 518.969 44.3119 518.248 45.0783V45.0332ZM506.234 37.787C506.46 38.5082 507.136 39.3309 507.914 39.0604C511.813 35.3866 525.674 33.8427 520.964 25.0074C515.25 14.2226 503.879 29.6279 506.234 37.787ZM524.728 39.962C524.22 42.6779 524.998 44.357 526.486 46.3517C532.019 53.6881 538.679 47.8956 540.133 40.3676C535.873 36.4684 529.618 38.5533 524.728 39.962ZM553.679 32.0283C554.727 43.5456 568.047 42.6328 568.182 33.0763C567.27 26.4612 561.838 22.2013 559.798 15.7665C556.395 19.9362 553.138 26.326 553.679 31.9832V32.0283ZM577.919 39.1055C575.338 37.1559 573.344 49.0226 573.659 51.3328C575.519 65.2956 592.152 58.996 584.906 47.9858C582.821 44.7627 578.607 43.5907 577.919 39.1055ZM620.067 32.6256C618.523 26.957 619.706 22.3817 623.741 18.4824C619.887 11.5968 612.088 16.5328 609.372 22.2013C605.067 16.8033 596.367 16.8935 591.251 21.0181C594.192 22.3366 596.142 23.6889 598.272 26.2358C602.577 31.3521 604.436 40.8635 611.187 42.3173C610.736 36.8403 615.717 33.6623 620.067 32.6256ZM594.192 45.5403C593.922 50.4312 594.598 55.2771 597.505 59.2214C604.707 68.9694 613.452 57.993 607.918 51.9301L594.192 45.5403ZM612.73 44.6726C617.757 45.946 623.605 47.9858 628.136 44.2669C628.406 41.3706 622.557 34.3836 620.563 34.4287C616.9 34.4287 611.412 40.2775 612.73 44.6726ZM647.44 68.8793C647.53 62.7149 654.506 58.0944 654.867 52.3808C655.329 45.5403 648.747 41.7312 643.676 45.9009C637.512 51.0172 641.456 64.8448 647.395 68.8793H647.44ZM672.413 27.2726C671.951 26.6866 670.002 25.6385 669.28 25.4582C658.811 23.5086 659.634 38.6434 663.026 45.5403C664.435 45.9009 664.435 44.9881 665.111 44.1767C668.469 40.1423 676.673 32.9862 672.413 27.2726ZM697.781 42.3173C694.479 39.2407 685.914 59.6722 682.601 60.8104L678.161 64.0222C684.415 67.8312 691.436 67.2452 697.014 62.3994C698.558 69.7808 705.759 70.7275 711.067 67.2001C711.879 65.9718 707.484 62.7149 706.943 60.8104C706.21 58.3198 707.123 53.1021 706.481 52.0653C705.94 51.1074 696.113 48.2562 697.736 42.2722L697.781 42.3173ZM681.519 39.1055C688.81 36.0177 704.351 30.9464 692.078 21.559C683.964 19.6657 680.381 32.2537 681.519 39.1055ZM714.775 39.1055C709.794 37.6066 694.344 37.2911 701.049 46.3968C701.77 47.3998 706.717 50.4312 707.664 50.2059C709.974 49.71 716.094 42.6328 714.82 39.1055H714.775Z" fill="#FFFCF5"/>
</g>
<path d="M96.1634 32.5811C91.5429 33.7982 87.6437 36.841 87.3732 42.3179C80.9384 41.0557 79.0339 31.9838 75.191 27.0478C72.9709 24.2417 70.5593 22.3823 67.3926 21.0187C73.1062 16.3531 80.3073 17.8971 86.2012 21.3342C89.1425 16.4433 93.0868 13.5471 98.4736 16.1728C103.871 18.7986 97.5721 20.3425 96.5803 23.7346C95.7577 26.597 96.5804 29.6285 96.1634 32.536V32.5811Z" fill="#2F3081"/>
<path d="M242.764 19.8014C249.379 17.5813 255.724 16.939 261.246 22.2018C262.97 15.4965 270.588 12.8595 275.344 17.8067C271.715 22.5624 269.45 26.1912 271.625 32.6711C266.915 33.4825 262.61 37.0211 261.979 42.3177C254.913 40.2329 253.594 30.6313 248.658 25.2333C247.114 23.5992 245.3 22.7878 243.711 21.5595C243.08 21.0636 242.359 21.706 242.764 19.8014Z" fill="#2F3081"/>
<path d="M697.78 42.3179C696.157 48.302 705.984 51.1081 706.525 52.1111C707.167 53.1929 706.254 58.3656 706.987 60.8561C707.528 62.7607 711.878 66.0175 711.112 67.2459C705.804 70.7732 698.557 69.8266 697.059 62.4451C691.48 67.2459 684.414 67.877 678.205 64.0679L682.645 60.8561C685.958 59.7179 694.478 39.2865 697.825 42.363L697.78 42.3179Z" fill="#2F3081"/>
<path d="M435.134 22.2018C436.858 15.4965 444.465 12.8595 449.221 17.8067C445.603 22.5624 443.338 26.1912 445.513 32.6711C440.295 33.4825 436.396 37.6071 435.54 43.1404C426.93 37.7874 426.389 23.6894 415.92 21.0185C422.174 16.8488 429.511 17.0742 435.134 22.2469V22.2018Z" fill="#2F3081"/>
<path d="M154.719 63.2563C164.906 60.4953 164.951 46.1268 173.933 41.5063C174.384 47.1636 178.508 51.198 183.58 51.9756C181.314 58.3654 183.895 62.0279 187.298 66.84C181.945 72.0464 175.702 68.5981 172.885 62.445C168.039 67.4711 161.784 67.2909 155.8 64.9355C154.809 64.5298 154.538 65.2059 154.764 63.2563H154.719Z" fill="#2F3081"/>
<path d="M518.245 45.0335C518.966 44.2672 522.359 41.4611 523.136 42.3176C522.685 48.1213 527.666 50.4766 531.971 52.0656C531.16 55.8634 531.115 58.5005 532.738 62.0729C533.605 63.9774 536.772 65.927 535.003 67.6512C530.833 71.6406 523.948 68.1471 521.998 63.166C515.879 66.8849 509.354 68.1471 503.189 63.6168C511.754 61.1713 513.298 50.2963 518.245 44.9884V45.0335Z" fill="#2F3081"/>
<path d="M620.068 32.6262C615.718 33.6629 610.782 36.8409 611.187 42.3178C604.392 40.819 602.532 31.3527 598.273 26.2364C596.143 23.6895 594.148 22.3372 591.252 21.0187C596.368 16.9391 605.068 16.8039 609.373 22.2019C612.089 16.5334 619.932 11.5974 623.741 18.483C619.707 22.4273 618.524 26.9576 620.068 32.6262Z" fill="#2F3081"/>
<path d="M344.361 45.0335C345.094 44.2672 348.486 41.4611 349.263 42.3176C348.801 48.1213 353.794 50.4766 358.098 52.0656C356.464 57.8581 358.008 61.9827 361.761 66.1975C358.324 72.7225 349.804 68.0569 347.404 62.4898C342.919 68.0569 334.624 67.5611 329.271 63.6619C337.791 61.4418 339.38 50.3865 344.316 45.0335H344.361Z" fill="#2F3081"/>
<path d="M553.678 32.0282C553.182 26.3709 556.394 19.9361 559.797 15.8115C561.837 22.2013 567.268 26.5062 568.181 33.1213C568.046 42.6778 554.681 43.5455 553.678 32.0733V32.0282Z" fill="#2F3081"/>
<path d="M211.675 15.8115C212.362 22.6971 219.023 26.1005 219.158 33.1213C219.338 41.9115 208.283 42.8581 205.747 35.6119C203.527 29.2221 206.649 19.7558 211.72 15.8566L211.675 15.8115Z" fill="#2F3081"/>
<path d="M647.44 68.8801C641.501 64.8457 637.557 51.0632 643.721 45.9018C648.747 41.687 655.374 45.4961 654.912 52.3817C654.551 58.0953 647.575 62.7158 647.485 68.8801H647.44Z" fill="#2F3081"/>
<path d="M123.623 68.8793C119.454 65.8816 116.828 58.5452 116.918 53.1923C117.143 41.1903 132.323 41.2805 131.061 53.1923C130.464 58.6805 123.894 62.8051 123.623 68.8793Z" fill="#2F3081"/>
<path d="M299.001 68.0568C292.521 65.7917 289.444 51.4682 294.245 46.397C298.595 41.8216 306.574 44.8982 306.393 51.4682C306.202 57.4523 299.316 62.1178 299.001 68.0568Z" fill="#2F3081"/>
<path d="M471.39 68.8788C468.482 63.9315 465.586 59.6266 465.721 53.327C466.127 38.0118 486.254 43.8607 478.14 57.3614L471.345 68.8788H471.39Z" fill="#2F3081"/>
<path d="M385.562 15.8115C386.193 22.6971 399.559 33.7073 389.777 39.2857C376.671 46.8024 376.22 20.9729 385.562 15.8115Z" fill="#2F3081"/>
<path d="M35.6227 15.8115L37.1666 16.9384C37.6625 22.021 44.0071 27.1373 44.4579 31.5774C45.6412 42.4524 31.7235 43.2751 30.4613 33.8426C29.4583 26.3709 32.3208 21.8406 35.5776 15.8115H35.6227Z" fill="#2F3081"/>
<path d="M594.191 45.54L607.917 51.9298C613.451 57.9927 604.706 68.9691 597.504 59.2211C594.597 55.2768 593.921 50.4309 594.191 45.54Z" fill="#2F3081"/>
<path d="M577.916 39.105C578.603 43.5902 582.818 44.8073 584.903 47.9853C592.104 58.9955 575.47 65.2951 573.656 51.3323C573.34 49.0221 575.335 37.1103 577.916 39.105Z" fill="#2F3081"/>
<path d="M319.265 40.2781L314.915 45.5409C310.835 40.9655 310.238 26.6872 317.18 25.4588C327.187 23.6895 326.601 36.2436 319.31 40.233L319.265 40.2781Z" fill="#2F3081"/>
<path d="M419.584 45.54C424.666 47.5798 440.793 52.8764 432.961 61.2609C425.117 69.6453 417.409 53.0116 419.584 45.54Z" fill="#2F3081"/>
<path d="M506.23 37.7871C503.875 29.6281 515.246 14.2228 520.96 25.0076C525.67 33.8428 511.809 35.3867 507.91 39.0606C507.132 39.331 506.456 38.5084 506.23 37.7871Z" fill="#2F3081"/>
<path d="M491.595 41.8214C490.468 43.0836 490.051 46.7123 488.383 45.1684C486.839 43.771 485.475 36.2881 485.611 34.068C486.478 19.2938 504.645 25.0976 496.531 37.1108C495.133 39.1505 493.003 40.2775 491.64 41.8214H491.595Z" fill="#2F3081"/>
<path d="M157.658 39.1062C155.573 31.6684 163.462 15.3165 171.023 23.3741C178.596 31.443 162.729 37.0665 157.658 39.1062Z" fill="#2F3081"/>
<path d="M245.704 45.54C250.786 47.5798 266.913 52.8764 259.069 61.2609C251.237 69.6453 243.709 52.9215 245.704 45.54Z" fill="#2F3081"/>
<path d="M332.402 37.7871C330.047 29.6281 341.418 14.2228 347.131 25.0076C351.887 33.9781 337.879 35.1614 334.07 39.0606C333.304 39.331 332.628 38.5084 332.402 37.7871Z" fill="#2F3081"/>
<path d="M681.519 39.1054C680.336 32.2536 683.965 19.6656 692.079 21.5589C704.351 30.9463 688.811 36.0175 681.519 39.1054Z" fill="#2F3081"/>
<path d="M672.413 27.2738C676.673 33.0325 668.468 40.1886 665.11 44.178C664.479 44.9443 664.434 45.9022 663.025 45.5416C659.588 38.6447 658.811 23.5099 669.28 25.4595C670.046 25.5947 671.951 26.6428 672.413 27.2738Z" fill="#2F3081"/>
<path d="M52.6176 39.1055C54.0263 38.7336 54.0263 39.6465 54.7025 40.4579C56.8324 42.9935 61.9036 48.3014 62.6361 51.1525C65.0365 60.585 52.9332 62.1628 50.7131 54.4657C49.3044 49.4283 50.8483 43.726 52.6176 39.1506V39.1055Z" fill="#2F3081"/>
<path d="M225.185 52.1999C224.498 47.8048 225.366 42.2715 228.307 39.1499C229.49 42.6321 236.195 47.0723 237.187 49.6192C241.177 59.8518 227.09 64.3821 225.185 52.2449V52.1999Z" fill="#2F3081"/>
<path d="M71.1104 45.54L83.7547 51.5128C90.3248 57.587 81.4783 68.0563 74.773 60.4495C71.0203 56.1896 70.7385 51.1522 71.1104 45.54Z" fill="#2F3081"/>
<path d="M137.127 37.697C136.405 31.6227 137.949 24.7371 144.7 25.4133C147.878 25.7288 149.23 27.2277 149.545 30.6761C150.098 37.3814 143.111 40.1424 140.259 45.5405C138.535 43.5909 137.453 40.3678 137.127 37.697Z" fill="#2F3081"/>
<path d="M399.061 52.1999C398.34 47.4893 399.377 42.8124 402.183 39.1499C404.133 43.0829 410.838 47.5794 411.39 51.6477C412.697 61.4859 400.65 62.7142 399.016 52.1999H399.061Z" fill="#2F3081"/>
<path d="M350.84 39.9624C355.742 38.5538 361.997 36.4689 366.256 40.3681C365.659 45.1689 362.538 48.1666 358.683 50.2063C354.288 49.0681 349.983 45.3605 350.84 39.9624Z" fill="#2F3081"/>
<path d="M524.727 39.9624C529.618 38.5538 535.872 36.4689 540.132 40.3681C538.678 47.8961 532.018 53.7337 526.485 46.3522C524.997 44.3575 524.22 42.6784 524.727 39.9624Z" fill="#2F3081"/>
<path d="M714.773 39.1048C716.092 42.6322 709.972 49.7544 707.617 50.2052C706.67 50.3855 701.768 47.3991 701.002 46.3961C694.297 37.2905 709.792 37.606 714.728 39.1048H714.773Z" fill="#2F3081"/>
<path d="M88.9591 43.4111C87.9674 39.602 94.0754 34.0687 97.4337 34.6209C99.3382 34.8914 104.454 41.1009 104.454 43.5914C104.409 47.9414 89.8155 46.713 89.0041 43.4111H88.9591Z" fill="#2F3081"/>
<path d="M612.729 44.6726C611.411 40.2775 616.899 34.4738 620.562 34.4287C622.556 34.4287 628.405 41.4157 628.135 44.2669C623.604 47.9858 617.755 45.901 612.729 44.6726Z" fill="#2F3081"/>
<path d="M278.973 45.5401C275.344 46.2614 267.738 47.1629 264.65 44.8527C261.573 42.5425 267.591 33.3917 272.403 34.8004C275.029 35.5667 280.325 42.0015 279.018 45.5401H278.973Z" fill="#2F3081"/>
<path d="M452.85 45.5404C447.497 47.2082 432.182 47.1632 439.53 37.8772C440.386 36.8404 444.781 34.4287 445.875 34.5752C447.779 34.8006 454.665 42.1821 452.85 45.5404Z" fill="#2F3081"/>
<mask id="mask3_19_4648" style="mask-type:luminance" maskUnits="userSpaceOnUse" x="715" y="11" width="716" height="62">
<path d="M715.043 11.7207H1430.6V72.2487H715.043V11.7207Z" fill="white"/>
</mask>
<g mask="url(#mask3_19_4648)">
<path d="M713.435 2.89624H1434.78V81.7484H713.435V2.89624ZM714.157 76.9364L714.247 79.6636L715.238 80.9708H1433.28V76.9364H714.157ZM714.157 9.33108V75.3136H1433.28V9.33108H714.157ZM1433.32 3.70764H715.284C713.886 3.70764 713.886 7.74209 715.284 7.74209H1433.32V3.70764Z" fill="#FFFCF5"/>
</g>
<mask id="mask4_19_4648" style="mask-type:luminance" maskUnits="userSpaceOnUse" x="719" y="11" width="711" height="62">
<path d="M719.383 11.7207H1429.08V72.2487H719.383V11.7207Z" fill="white"/>
</mask>
<g mask="url(#mask4_19_4648)">
<path d="M737.086 54.3753C735.046 51.4678 736.354 45.495 735.272 43.0834C734.629 41.731 732.601 41.5958 731.553 40.683C723.033 33.2114 729.333 16.3523 737.853 11.7318C736.861 22.2913 746.823 24.6015 745.189 35.4314C744.648 39.1053 740.659 42.7227 737.131 42.3621C735.723 59.8973 748.096 67.245 761.868 70.5019L758.476 61.7568C744.693 62.2527 745.189 43.2299 753.032 35.1159L756.796 41.4606C759.152 44.7625 762.093 45.5401 763.592 50.1606C765.992 57.497 760.008 59.8523 760.143 61.892C764.178 76.8465 780.135 69.3298 789.602 65.656C791.146 63.9318 785.297 63.3458 784.756 63.3458C782.896 63.4359 780.451 65.656 777.645 65.2052C770.072 64.067 765.091 47.8954 769.982 41.5057C770.973 40.9647 771.751 43.6356 773.013 44.5822C778.682 48.8871 791.641 48.6617 785.838 61.5765C795.496 64.9799 802.291 53.8795 807.317 46.7121C801.615 46.9826 797.039 49.2027 791.01 47.5799C776.236 43.5454 777.453 28.1401 767.897 23.6436L760.741 21.3785C768.348 16.9383 776.732 13.3208 784.801 18.8429C787.607 12.4982 798.707 11.0106 801.795 17.344C803.148 20.1614 798.752 20.8826 797.58 24.7818C795.135 32.8057 799.485 32.7606 802.787 37.1557C805.277 40.4125 804.421 45.3598 808.41 44.6724C810.405 44.3117 816.389 34.575 818.429 32.1633C832.11 15.8565 846.929 6.60426 868.003 12.9039C889.077 19.2035 897.225 40.0068 911.278 55.1416L910.184 42.8129C897.315 38.4178 902.352 16.9834 912.359 12.4982C911.954 21.6489 925.826 30.3602 918.298 39.4659C916.721 41.4155 912.044 42.1818 911.683 43.5454C912.686 53.0117 913.588 59.1761 921.296 64.2924C925.826 67.2901 932.306 70.3666 937.513 70.006C935.112 69.0594 934.076 62.5795 933.118 61.9371C932.126 61.2609 930.357 61.7568 929.218 61.3962C921.116 58.6352 921.476 46.8023 924.553 39.8265C928.632 30.811 928.272 36.4682 930.853 40.2773C934.031 44.8977 939.823 47.2981 938.967 54.6909C938.426 59.4916 932.351 59.2663 937.107 66.4674C942.415 74.4912 957.865 69.3749 964.12 64.4276C956.953 61.2609 952.963 69.2397 946.72 60.8552C942.731 55.4572 942.043 47.8954 944.128 41.5507C946.348 42.4072 947.126 44.4019 949.526 45.7204C956.817 49.5746 964.21 48.8871 961.122 61.6216C966.069 66.6477 980.156 50.972 981.069 47.5799C981.565 45.7204 980.291 46.5318 979.525 46.7121C970.69 48.3913 965.427 49.7549 957.82 43.1848C950.202 36.6035 948.658 21.6489 935.98 22.2913C941.908 16.2171 952.152 13.9519 959.308 18.8429C964.21 12.2277 972.955 10.9092 977.305 18.6625C977.305 19.3387 971.321 22.3364 971.546 28.2303C971.772 34.1129 976.674 34.9356 978.804 38.8799C980.607 42.2269 979.074 46.2613 983.92 44.5822C997.015 23.4182 1014.32 6.51411 1039.61 12.1376C1058.46 16.3072 1069.34 34.4735 1080.62 49.6196L1085.06 54.4204L1083.98 42.858C1070.84 37.6064 1076.45 17.8962 1086.15 11.7769C1086.92 24.6466 1104.27 35.2962 1085.51 43.5905C1086.29 47.5348 1086.2 51.0621 1087.5 54.9613C1090.68 64.2473 1102.19 68.0564 1110.21 70.5019L1106.9 62.0273C1097.12 62.0273 1095.26 53.6879 1096.71 44.5371C1097.03 42.5424 1101.65 31.8027 1103.19 35.6117C1103.37 41.9564 1110.21 44.1765 1112.12 49.9352C1114.74 57.9477 1109.03 58.2295 1109.12 61.9371C1109.21 64.6643 1112.97 69.9609 1115.42 70.4568C1122.68 71.9556 1131.38 68.6875 1137.99 65.656C1139.45 64.022 1134.41 63.3007 1133.82 63.3007C1129.79 63.3909 1128.38 67.3352 1123.22 63.6163C1117.01 59.131 1115.46 48.7519 1118.01 41.5507L1123.4 45.7204C1131.29 47.9405 1137.9 51.2875 1135.01 61.6216C1140.62 66.3773 1154.07 52.1102 1155.71 47.5799C1156.11 46.4417 1155.57 46.2613 1154.63 46.3966C1152.03 46.7572 1149.77 48.256 1146.47 48.3462C1140.89 48.4814 1136.04 46.8924 1131.69 43.1397C1123.76 36.2879 1122.54 21.6039 1109.85 22.2462C1116.02 16.3072 1125.84 13.8167 1133.19 18.7978C1138.49 11.9572 1146.15 11.0557 1151.27 18.6175C1146.42 21.8856 1143.29 27.8133 1147.23 33.4818C1150.46 38.1023 1151.36 36.1076 1154.16 43.6356C1154.45 44.4019 1153.98 45.033 1155.35 44.8076C1156.94 44.9428 1157.57 44.5371 1158.75 43.5905C1161.2 41.5958 1166 33.3917 1168.67 30.2588C1182.45 14.0872 1198.53 6.79585 1218.79 13.5913C1237.87 19.9811 1247.02 42.272 1260.79 56.0094L1258.48 42.4523C1248.52 38.5531 1249.87 25.9088 1255.05 17.9413C1255.81 16.7129 1260.25 11.1008 1261.57 12.5883C1260.25 20.8375 1268.64 24.6917 1269 32.2535C1269.31 38.8348 1266.1 41.2352 1260.75 42.8129C1259.4 59.0859 1271.26 68.5072 1284.87 70.4568C1287.13 70.7723 1283.55 66.1969 1283.05 65.1602C1282.59 64.2023 1282.27 61.847 1282.14 61.7117C1281.87 61.4413 1277.56 61.7117 1275.21 60.0326C1268.68 55.367 1270.9 37.6966 1276.71 35.1159C1278.01 34.5186 1277.65 35.7019 1277.88 36.1978C1278.52 37.7867 1278.7 39.0602 1279.69 40.6379C1283.05 45.9458 1288.66 46.9375 1287.36 55.5023C1286.85 58.9056 1283.59 59.2212 1283.82 61.7568C1285.09 75.7647 1305.97 70.4568 1312.54 64.3826C1305.57 61.306 1302.9 69.1946 1296.24 61.9822C1291.2 56.5954 1291.06 48.5716 1292.56 41.4606C1293.19 40.8182 1297.32 45.1231 1298.55 45.8106C1305.39 49.6196 1313.05 49.1125 1309.56 61.5765C1315.59 64.4277 1320.39 59.131 1324.38 54.781C1325.14 53.9246 1330.09 47.9405 1330.27 47.5348C1330.86 45.9909 1329.49 46.2614 1328.59 46.4867C1321.48 48.3462 1317.54 49.5746 1310.37 45.8557C1298.46 39.6913 1299.09 22.0208 1284.4 22.2011C1290.88 16.1269 1300.9 13.7265 1308.43 19.0232C1311.1 12.9039 1319.35 11.4163 1324.02 15.7663C1329.09 20.522 1320.84 20.1163 1320.61 27.4076C1320.39 34.7102 1324.06 33.8875 1326.91 38.3277C1328.82 41.2352 1329 47.7151 1333.17 43.4102C1337.74 38.6432 1341.96 30.7208 1346.85 25.6834C1363.84 8.14818 1387.18 5.9281 1406.12 21.3785C1414.51 28.2303 1420.31 38.2375 1427.2 46.7121C1426.75 47.3996 1425.65 48.4363 1425.02 47.9405C1424.62 47.625 1421.67 41.5958 1420.27 40.6379C1415.05 37.2007 1415.92 43.3651 1413.83 46.622C1411.75 49.8901 1407.8 50.1606 1407.31 55.6826C1406.71 62.5795 1413.19 65.2954 1413.19 66.0617C1410.02 70.1412 1406.44 72.4064 1401.37 70.9076C1398.88 70.1863 1395.7 65.9265 1395.11 65.8814C1394.62 65.8814 1391.49 67.7409 1389.86 68.0113C1383.97 68.9242 1375.77 67.5155 1371.78 62.4442C1388.18 61.3511 1384.83 42.3171 1400.78 37.2458C1407.49 35.1159 1411.34 37.5163 1417.69 37.8769C1412.88 30.5856 1405.67 19.2486 1396.21 23.0125C1402.23 35.9273 1389.04 35.7019 1383.38 40.0068C1382.11 40.9535 1381.34 43.6356 1380.34 43.0834C1375.95 36.4682 1379.93 21.0629 1387.78 19.8008C1392.17 19.1133 1395.93 22.6068 1400.69 20.1614C1393.89 13.3659 1371.82 8.23833 1370.69 22.9224C1370.56 24.5114 1372.91 25.6383 1373.64 27.047C1377.04 33.4368 1371.37 39.4659 1367.07 43.1397C1365.66 43.906 1364.89 50.2056 1363.35 49.5182C1362.08 48.9773 1359.36 43.1848 1358.86 41.5057C1356.37 32.8057 1358.68 22.0208 1368.79 22.8773L1372.96 13.3208C1358.14 16.3072 1346.67 24.1057 1347.49 42.272C1354.15 42.4974 1356.42 47.208 1355.6 54.0147C1354.92 60.0326 1346.58 65.3856 1348.17 72.9023C1339.87 68.5072 1333.35 50.8818 1342 44.0864C1342.91 43.4102 1345.68 42.4523 1345.86 42.2269C1346.31 41.4155 1346.08 31.0814 1347.45 28.6811C1332.9 44.3568 1324.69 64.7995 1303.39 71.2795C1282.09 77.7594 1267.05 67.0647 1253.14 50.431C1251.55 48.5265 1246.35 40.0519 1245.03 39.8716C1240.05 39.2405 1241.26 42.9031 1239.04 46.3064C1235.92 51.1523 1230.52 50.9269 1233.15 60.0777C1234.47 64.6643 1241.04 64.1572 1236.15 68.8791C1231.25 73.5897 1223.41 71.4598 1220.55 65.6109C1213.08 70.5469 1203.06 68.5523 1196.54 62.4442C1211.27 62.895 1210.9 44.447 1222.41 38.6883C1226.81 36.5133 1231.98 36.1978 1236.78 36.75C1238.01 36.8852 1243.62 40.0068 1243.12 37.0655C1242.9 35.7921 1235.19 26.5962 1233.75 25.5482C1230.25 22.9675 1225.72 21.1982 1221.64 23.0125C1225.81 35.3413 1216.11 35.5216 1209.32 39.7364C1207.55 40.8182 1206.69 42.9932 1204.65 43.0834C1203.15 36.3781 1203.47 27.5879 1208.32 22.5618C1214.49 16.172 1219.24 23.1929 1226.08 20.1614C1226.45 18.4822 1225.05 18.8879 1224.09 18.347C1216.75 13.997 1202.07 9.061 1197.03 19.2035C1193.6 26.1905 1197.9 23.7789 1199.07 27.7682C1202.43 39.2405 1189.79 40.1871 1189.79 50.3409C1183.58 45.9458 1180.91 33.8425 1185.03 27.047C1188.38 21.5137 1193.32 23.6436 1194.18 22.8773C1194.45 22.6519 1195.54 17.8061 1196.54 16.2171C1197.31 15.0338 1198.71 15.3606 1198.67 14.1322C1184.4 14.9887 1171.02 25.1425 1172.79 42.2269C1175.97 41.7761 1180.05 45.2696 1180.73 48.4814C1182.95 58.9056 1172.03 62.6696 1173.47 72.8572C1163.64 67.5605 1157.39 47.4446 1170.39 42.1367L1172.03 30.2137C1158.84 43.6807 1150.19 64.067 1131.74 70.4568C1110.3 77.8946 1094.67 69.2848 1080.26 52.3356C1078.44 50.2056 1072.55 41.0098 1071.42 40.2322C1067.07 37.336 1066.67 43.9962 1064.76 46.667C1061.63 51.017 1056.42 52.5159 1059.41 60.5397C1060.46 63.3458 1064.67 64.3826 1063.9 66.6026C1061.77 72.8121 1048.54 72.8121 1046.95 65.5659C1039.38 69.9609 1028.96 68.5973 1022.57 62.3428C1027.96 62.7147 1033.17 58.8155 1036.21 54.2401C1038.02 51.4678 1038.89 48.0306 1041.11 45.033C1046.59 37.6515 1054.43 35.6568 1062.86 36.6485C1063.58 36.75 1070.24 39.8265 1069.2 37.0204C1063.08 30.6307 1057.87 19.2936 1047.77 22.9224C1052.39 34.8905 1042.06 35.6568 1035.44 39.6462C1033.63 40.7281 1032.81 42.9031 1030.77 42.9932C1028.33 33.4368 1031.32 17.9864 1042.91 19.7106C1044.28 19.936 1045.32 21.108 1046.63 21.1531C1047.17 21.1531 1053.02 20.5671 1051.48 18.8429C1041.69 14.0872 1025.38 7.06631 1021.89 23.3281L1022.03 24.3311C1030.37 29.7629 1023.65 38.6432 1018.22 43.3651C1015.64 46.7121 1016.63 53.192 1012.42 46.4417C1006.85 37.5614 1007.98 21.6489 1020.35 22.7421C1020.08 18.7978 1024.57 16.5326 1023.75 13.1856C1017.77 14.9887 1012.01 16.6228 1006.85 20.5671C1000.87 25.1875 998.694 33.7072 998.875 41.6409C1004.21 43.275 1007.44 45.6753 1007.12 52.2003C1006.76 59.5367 998.469 63.8867 999.684 71.8655C998.424 73.3192 993.939 67.7409 993.161 66.5125C988.225 58.5901 986.726 45.8106 996.61 41.9564L998.965 28.4557C996.97 30.0334 995.066 32.0732 993.387 34.0678C982.016 47.9405 974.589 64.5742 956.592 70.5019C930.176 79.2469 911.773 62.4893 897.225 40.4576C891.297 37.8769 893.055 40.4576 891.432 43.906C888.66 49.845 879.464 53.3723 885.493 62.0273C886.722 63.7515 889.798 64.6643 889.392 65.8363C888.119 69.2848 882.777 71.4598 879.419 71.0991C875.249 70.6822 872.037 65.7011 871.305 65.656C870.629 65.6109 868.724 67.3802 867.406 67.6507C860.52 69.2848 853.544 67.1548 847.966 62.6245C860.791 62.3428 861.748 48.256 869.817 41.3253C877.875 34.3834 885.403 35.9273 894.554 38.0572C895.14 37.5163 892.83 34.3834 892.334 33.6621C888.074 27.7682 880.557 19.4739 873.119 22.8322C876.387 36.0625 868.364 34.6651 861.478 38.7334C860.159 39.511 857.038 43.6807 856.08 42.9031C852.733 33.7072 856.993 17.4454 868.228 19.6204C869.355 19.8458 870.178 21.0629 871.26 21.1531C872.939 21.3334 875.475 19.7106 877.514 20.3417C879.058 19.0682 872.623 16.5777 871.992 16.3072C864.239 13.0391 851.279 9.37654 847.741 20.5671C845.971 26.1454 851.685 25.458 850.738 32.6254C849.78 39.7814 841.125 41.8212 841.261 49.3379C839.401 51.3326 835.513 42.9481 835.096 41.145C833.969 36.1978 833.924 27.9035 838.049 24.5114C840.539 22.4716 843.706 23.3281 844.98 22.4265C845.746 21.8856 847.38 15.1239 849.375 13.9519C835.322 15.3606 823.545 24.286 823.59 40.8182C823.996 42.4974 833.011 42.8129 832.425 52.1553C831.975 58.9958 822.869 64.4276 824.999 71.8655C814.214 68.7776 809.132 45.7204 822.046 41.5958L823.5 29.2671C810.495 43.6807 800.477 64.8897 781.488 70.8625C755.252 79.1568 735.317 60.6299 721.399 38.508C720.498 37.0655 720.903 35.6568 721.76 35.7019C726.211 40.683 729.874 47.8053 734.314 52.606C735.091 53.4625 735.587 54.5106 736.906 54.195L737.086 54.3753ZM734.911 15.8114C731.598 21.8405 728.792 26.3708 729.784 33.8424C731.012 43.2749 744.964 42.4523 743.791 31.5773C743.296 27.1371 736.996 22.0208 736.489 16.9383L734.956 15.8114H734.911ZM751.905 39.1053C750.136 43.7257 748.592 49.4281 750.001 54.4204C752.176 62.1174 764.268 60.5848 761.913 51.1072C761.191 48.256 756.12 42.9481 753.99 40.4125C753.348 39.6462 753.303 38.6883 751.905 39.0602V39.1053ZM795.45 32.5803C795.856 29.6728 795.09 26.6413 795.856 23.7789C796.814 20.3417 802.877 18.7076 797.761 16.2171C792.644 13.7265 788.43 16.4875 785.477 21.3785C779.583 17.9413 772.427 16.3974 766.668 21.0629C769.801 22.4265 772.247 24.286 774.467 27.0921C778.321 32.0281 780.226 41.1 786.66 42.3621C786.931 36.8401 790.83 33.8424 795.45 32.6254V32.5803ZM770.387 45.5401C770.027 51.1523 770.297 56.1897 774.061 60.4495C780.766 68.0564 789.602 57.5871 783.032 51.5129L770.387 45.5401ZM788.249 43.4102C789.106 46.667 803.655 47.9405 803.7 43.5905C803.7 41.1 798.572 34.8905 796.668 34.62C793.321 34.1129 787.246 39.6462 788.193 43.4102H788.249ZM822.914 68.8791C823.185 62.8049 829.755 58.6802 830.341 53.192C831.614 41.2803 816.479 41.145 816.209 53.192C816.119 58.545 818.744 65.8814 822.914 68.8791ZM836.415 37.6966C836.73 40.3224 837.869 43.5454 839.536 45.5401C842.354 40.1421 849.375 37.381 848.834 30.6757C848.563 27.2273 847.155 25.7285 843.988 25.4129C837.226 24.7368 835.694 31.6224 836.415 37.6966ZM853.995 63.2556C853.77 65.2052 853.995 64.5291 855.043 64.9348C861.027 67.3352 867.316 67.4704 872.128 62.4442C874.934 68.5973 881.188 72.0458 886.53 66.8393C883.138 62.0723 880.557 58.4098 882.822 51.9749C877.74 51.1973 873.615 47.1629 873.164 41.5057C864.149 46.1261 864.149 60.4946 853.95 63.2556H853.995ZM856.948 39.1053C862.019 37.0655 878.157 31.7576 870.313 23.3732C862.47 14.9887 854.863 31.6675 856.948 39.1053ZM875.565 40.0068C873.75 44.4019 879.734 50.5212 883.273 50.0704C883.544 50.0704 887.668 47.0727 887.848 46.8924C888.987 45.7655 891.297 40.2773 890.249 39.1053C885.178 37.9671 880.467 37.7867 875.565 39.9617V40.0068ZM910.962 15.8114C905.88 19.7106 902.758 29.1769 904.978 35.5667C907.514 42.8129 918.569 41.8663 918.389 33.0761C918.253 26.0553 911.638 22.6519 910.917 15.7663L910.962 15.8114ZM924.463 52.2003C926.367 64.3826 940.465 59.8072 936.476 49.5746C935.473 47.0727 928.813 42.5875 927.596 39.1053C924.643 42.272 923.742 47.7602 924.463 52.1553V52.2003ZM942.043 19.8008C941.637 21.7504 942.37 21.108 943.001 21.5588C944.635 22.7871 946.438 23.5535 947.937 25.2326C952.873 30.5856 954.192 40.1871 961.257 42.3171C961.9 37.0204 966.205 33.4368 970.915 32.6704C968.74 26.1905 970.96 22.5618 974.634 17.8061C969.867 12.8588 962.26 15.5409 960.536 22.2011C955.003 16.9383 948.658 17.5807 942.043 19.8008ZM944.996 45.5401C943.001 52.9667 950.743 69.3749 958.361 61.2609C965.979 53.147 950.067 47.5799 944.996 45.5401ZM978.252 45.5401C979.57 41.9564 974.262 35.5216 971.637 34.8003C966.836 33.4368 960.807 42.5875 963.894 44.8527C966.971 47.1178 974.634 46.2613 978.207 45.5401H978.252ZM998.289 68.0564C998.604 62.1174 1005.49 57.4519 1005.67 51.4678C1005.89 44.8527 997.872 41.8212 993.522 46.3966C988.676 51.4678 991.809 65.7912 998.289 68.0564ZM1018.54 40.2773C1025.84 36.2879 1026.42 23.7338 1016.41 25.5031C1009.48 26.7314 1010.06 40.9647 1014.14 45.5852L1018.49 40.3224L1018.54 40.2773ZM1043.64 45.033C1038.71 50.3409 1037.12 61.4413 1028.6 63.6613C1033.94 67.5605 1042.24 68.0113 1046.72 62.4893C1049.12 68.0564 1057.6 72.7219 1061.09 66.1969C1057.33 61.9822 1055.78 57.9027 1057.42 52.0651C1053.11 50.4761 1048.13 48.1208 1048.58 42.3171C1047.77 41.4606 1044.41 44.2667 1043.69 45.033H1043.64ZM1031.68 37.7867C1031.9 38.508 1032.54 39.3307 1033.36 39.0602C1037.21 35.161 1051.21 33.9777 1046.41 25.0072C1040.69 14.2224 1029.32 29.6277 1031.68 37.7867ZM1050.12 39.9617C1049.26 45.3598 1053.56 49.0224 1057.97 50.2056C1061.77 48.1659 1064.9 45.1682 1065.53 40.3674C1061.27 36.4682 1055.01 38.5531 1050.12 39.9617ZM1084.83 15.8114C1075.5 20.9728 1075.95 46.8023 1089.05 39.2856C1098.84 33.7072 1085.46 22.697 1084.83 15.8114ZM1098.33 52.2003C1099.97 62.6696 1112.03 61.4863 1110.71 51.6481C1110.17 47.5799 1103.46 43.0834 1101.51 39.1503C1098.66 42.8129 1097.61 47.4897 1098.38 52.2003H1098.33ZM1134.41 22.2011C1128.8 17.0736 1121.45 16.8482 1115.19 20.9728C1125.62 23.6436 1126.16 37.7417 1134.81 43.0834C1135.73 37.5614 1139.58 33.4368 1144.79 32.6254C1142.61 26.1454 1144.83 22.5167 1148.51 17.761C1143.75 12.8137 1136.13 15.4958 1134.41 22.1561V22.2011ZM1118.87 45.5401C1116.69 53.0117 1124.67 69.3298 1132.23 61.2609C1139.81 53.192 1123.94 47.5799 1118.87 45.5401ZM1152.12 45.5401C1153.94 42.1818 1147.05 34.8454 1145.15 34.575C1144.07 34.4285 1139.67 36.8401 1138.8 37.8769C1131.47 47.1629 1146.74 47.208 1152.12 45.5401ZM1170.66 68.8791L1177.46 57.3617C1185.53 43.861 1165.46 38.0121 1165.05 53.3273C1164.86 59.6269 1167.77 63.9318 1170.71 68.8791H1170.66ZM1190.88 41.8212C1192.28 40.2773 1194.41 39.1954 1195.77 37.1106C1203.93 25.0974 1185.71 19.3387 1184.85 34.0678C1184.71 36.2879 1186.07 43.7708 1187.61 45.1682C1189.34 46.7121 1189.74 43.0383 1190.83 41.8212H1190.88ZM1217.52 45.033C1212.58 50.3409 1211.04 61.2159 1202.48 63.6613C1208.64 68.1916 1215.16 66.8844 1221.28 63.2106C1223.23 68.1916 1230.12 71.6401 1234.29 67.6958C1236.1 65.9716 1232.93 64.022 1232.02 62.1174C1230.39 58.545 1230.48 55.908 1231.25 52.1102C1226.94 50.5212 1221.96 48.1659 1222.41 42.3621C1221.6 41.5057 1218.24 44.3117 1217.52 45.0781V45.033ZM1205.51 37.7867C1205.74 38.508 1206.42 39.3307 1207.19 39.0602C1211.09 35.3864 1224.96 33.8425 1220.24 25.0072C1214.53 14.2224 1203.15 29.6277 1205.51 37.7867ZM1224 39.9617C1223.5 42.6777 1224.27 44.3568 1225.77 46.3515C1231.29 53.6879 1237.96 47.8954 1239.41 40.3674C1235.15 36.4682 1228.89 38.5531 1224 39.9617ZM1252.96 32.0281C1254 43.5454 1267.32 42.6326 1267.45 33.0761C1266.55 26.461 1261.11 22.2011 1259.07 15.7663C1255.68 19.936 1252.41 26.3257 1252.96 31.983V32.0281ZM1277.2 39.1053C1274.62 37.1557 1272.63 49.0224 1272.94 51.3326C1274.8 65.2954 1291.44 58.9958 1284.18 47.9856C1282.09 44.7625 1277.88 43.5905 1277.2 39.1053ZM1319.35 32.6254C1317.81 26.9568 1318.98 22.3815 1323.01 18.4822C1319.17 11.5966 1311.37 16.5326 1308.66 22.2011C1304.35 16.8031 1295.65 16.8932 1290.52 21.0179C1293.48 22.3364 1295.41 23.6887 1297.54 26.2356C1301.85 31.3519 1303.71 40.8633 1310.46 42.3171C1310.01 36.8401 1315 33.6621 1319.35 32.6254ZM1293.48 45.5401C1293.19 50.431 1293.88 55.2769 1296.78 59.2212C1303.98 68.9692 1312.74 57.9928 1307.2 51.9299L1293.48 45.5401ZM1312 44.6724C1317.04 45.9458 1322.88 47.9856 1327.41 44.2667C1327.69 41.3704 1321.84 34.3834 1319.85 34.4285C1316.17 34.4285 1310.7 40.2773 1312 44.6724ZM1346.71 68.8791C1346.8 62.7147 1353.79 58.0942 1354.15 52.3806C1354.6 45.5401 1348.03 41.731 1342.96 45.9007C1336.8 51.017 1340.74 64.8446 1346.67 68.8791H1346.71ZM1371.69 27.2724C1371.23 26.6864 1369.29 25.6383 1368.56 25.458C1358.09 23.5084 1358.91 38.6432 1362.31 45.5401C1363.71 45.9007 1363.71 44.9879 1364.39 44.1765C1367.74 40.1421 1375.95 32.986 1371.69 27.2724ZM1397.06 42.3171C1393.75 39.2405 1385.19 59.672 1381.88 60.8102L1377.44 64.022C1383.7 67.831 1390.72 67.245 1396.3 62.3992C1397.83 69.7806 1405.04 70.7273 1410.34 67.1999C1411.16 65.9716 1406.76 62.7147 1406.22 60.8102C1405.49 58.3196 1406.4 53.1019 1405.76 52.0651C1405.22 51.1072 1395.39 48.256 1397.02 42.272L1397.06 42.3171ZM1380.79 39.1053C1388.09 36.0175 1403.63 30.9462 1391.35 21.5588C1383.24 19.6655 1379.66 32.2535 1380.79 39.1053ZM1414.06 39.1053C1409.08 37.6064 1393.62 37.2909 1400.32 46.3966C1401.05 47.3996 1405.99 50.431 1406.95 50.2056C1409.26 49.7098 1415.37 42.6326 1414.1 39.1053H1414.06Z" fill="#FFFCF5"/>
</g>
<path d="M795.454 32.5811C790.833 33.7982 786.934 36.841 786.664 42.3179C780.229 41.0557 778.324 31.9838 774.47 27.0478C772.25 24.2417 769.85 22.3823 766.672 21.0187C772.385 16.3531 779.586 17.8971 785.48 21.3342C788.433 16.4433 792.366 13.5471 797.764 16.1728C803.151 18.7986 796.862 20.3425 795.859 23.7346C795.048 26.597 795.859 29.6285 795.454 32.536V32.5811Z" fill="#2F3082"/>
<path d="M942.042 19.8014C948.657 17.5813 955.002 16.939 960.535 22.2018C962.26 15.4965 969.867 12.8595 974.633 17.8067C971.005 22.5624 968.74 26.1912 970.915 32.6711C966.204 33.4825 961.899 37.0211 961.257 42.3177C954.191 40.2329 952.872 30.6313 947.936 25.2333C946.392 23.5992 944.589 22.7878 943 21.5595C942.369 21.0636 941.637 21.706 942.042 19.8014Z" fill="#2F3082"/>
<path d="M1397.07 42.3179C1395.43 48.302 1405.27 51.1081 1405.81 52.1111C1406.44 53.1929 1405.54 58.3656 1406.26 60.8561C1406.8 62.7607 1411.16 66.0175 1410.39 67.2459C1405.09 70.7732 1397.83 69.8266 1396.35 62.4451C1390.77 67.2459 1383.7 67.877 1377.49 64.0679L1381.93 60.8561C1385.23 59.7179 1393.75 39.2865 1397.11 42.363L1397.07 42.3179Z" fill="#2F3082"/>
<path d="M1134.41 22.2018C1136.13 15.4965 1143.75 12.8595 1148.51 17.8067C1144.88 22.5624 1142.61 26.1912 1144.79 32.6711C1139.58 33.4825 1135.68 37.6071 1134.82 43.1404C1126.21 37.7874 1125.66 23.6894 1115.19 21.0185C1121.45 16.8488 1128.8 17.0742 1134.41 22.2469V22.2018Z" fill="#2F3082"/>
<path d="M853.996 63.2563C864.195 60.4953 864.24 46.1268 873.21 41.5063C873.661 47.1636 877.786 51.198 882.868 51.9756C880.603 58.3654 883.184 62.0279 886.576 66.84C881.234 72.0464 874.979 68.5981 872.173 62.445C867.316 67.4711 861.073 67.2909 855.089 64.9355C854.086 64.5298 853.815 65.2059 854.041 63.2563H853.996Z" fill="#2F3082"/>
<path d="M1217.52 45.0335C1218.24 44.2672 1221.65 41.4611 1222.41 42.3176C1221.96 48.1213 1226.94 50.4766 1231.25 52.0656C1230.44 55.8634 1230.39 58.5005 1232.02 62.0729C1232.88 63.9774 1236.06 65.927 1234.29 67.6512C1230.12 71.6406 1223.23 68.1471 1221.28 63.166C1215.17 66.8849 1208.64 68.1471 1202.48 63.6168C1211.04 61.1713 1212.58 50.2963 1217.52 44.9884V45.0335Z" fill="#2F3082"/>
<path d="M1319.35 32.6262C1315 33.6629 1310.05 36.8409 1310.46 42.3178C1303.66 40.819 1301.8 31.3527 1297.54 26.2364C1295.41 23.6895 1293.43 22.3372 1290.52 21.0187C1295.65 16.9391 1304.35 16.8039 1308.66 22.2019C1311.37 16.5334 1319.22 11.5974 1323.01 18.483C1318.98 22.4273 1317.81 26.9576 1319.35 32.6262Z" fill="#2F3082"/>
<path d="M1043.65 45.0335C1044.37 44.2672 1047.77 41.4611 1048.54 42.3176C1048.09 48.1213 1053.07 50.4766 1057.37 52.0656C1055.74 57.8581 1057.28 61.9827 1061.05 66.1975C1057.6 72.7225 1049.08 68.0569 1046.68 62.4898C1042.19 68.0569 1033.9 67.5611 1028.56 63.6619C1037.08 61.4418 1038.65 50.3865 1043.6 45.0335H1043.65Z" fill="#2F3082"/>
<path d="M1252.96 32.0282C1252.45 26.3709 1255.68 19.9361 1259.07 15.8115C1261.11 22.2013 1266.55 26.5062 1267.45 33.1213C1267.32 42.6778 1253.95 43.5455 1252.96 32.0733V32.0282Z" fill="#2F3082"/>
<path d="M910.963 15.8115C911.64 22.6971 918.3 26.1005 918.435 33.1213C918.615 41.9115 907.56 42.8581 905.024 35.6119C902.804 29.2221 905.926 19.7558 911.008 15.8566L910.963 15.8115Z" fill="#2F3082"/>
<path d="M1346.71 68.8801C1340.79 64.8457 1336.84 51.0632 1343.01 45.9018C1348.03 41.687 1354.65 45.4961 1354.2 52.3817C1353.84 58.0953 1346.85 62.7158 1346.76 68.8801H1346.71Z" fill="#2F3082"/>
<path d="M822.914 68.8793C818.745 65.8816 816.119 58.5452 816.209 53.1923C816.434 41.1903 831.614 41.2805 830.341 53.1923C829.755 58.6805 823.185 62.8051 822.914 68.8793Z" fill="#2F3082"/>
<path d="M998.29 68.0568C991.81 65.7917 988.723 51.4682 993.523 46.397C997.873 41.8216 1005.85 44.8982 1005.67 51.4682C1005.49 57.4523 998.606 62.1178 998.29 68.0568Z" fill="#2F3082"/>
<path d="M1170.66 68.8788C1167.76 63.9315 1164.86 59.6266 1165 53.327C1165.41 38.0118 1185.52 43.8607 1177.41 57.3614L1170.62 68.8788H1170.66Z" fill="#2F3082"/>
<path d="M1084.83 15.8115C1085.47 22.6971 1098.84 33.7073 1089.05 39.2857C1075.95 46.8024 1075.5 20.9729 1084.83 15.8115Z" fill="#2F3082"/>
<path d="M734.913 15.8115L736.446 16.9384C736.953 22.021 743.298 27.1373 743.749 31.5774C744.921 42.4524 731.014 43.2751 729.741 33.8426C728.749 26.3709 731.6 21.8406 734.868 15.8115H734.913Z" fill="#2F3082"/>
<path d="M1293.48 45.54L1307.2 51.9298C1312.74 57.9927 1303.98 68.9691 1296.78 59.2211C1293.88 55.2768 1293.19 50.4309 1293.48 45.54Z" fill="#2F3082"/>
<path d="M1277.2 39.105C1277.88 43.5902 1282.09 44.8073 1284.18 47.9853C1291.39 58.9955 1274.76 65.2951 1272.94 51.3323C1272.63 49.0221 1274.62 37.1103 1277.2 39.105Z" fill="#2F3082"/>
<path d="M1018.54 40.2781L1014.19 45.5409C1010.11 40.9655 1009.52 26.6872 1016.45 25.4588C1026.47 23.6895 1025.88 36.2436 1018.58 40.233L1018.54 40.2781Z" fill="#2F3082"/>
<path d="M1118.87 45.54C1123.94 47.5798 1140.08 52.8764 1132.23 61.2609C1124.4 69.6453 1116.69 53.0116 1118.87 45.54Z" fill="#2F3082"/>
<path d="M1205.51 37.7871C1203.15 29.6281 1214.53 14.2228 1220.24 25.0076C1224.96 33.8428 1211.09 35.3867 1207.19 39.0606C1206.42 39.331 1205.74 38.5084 1205.51 37.7871Z" fill="#2F3082"/>
<path d="M1190.88 41.8214C1189.74 43.0836 1189.34 46.7123 1187.66 45.1684C1186.11 43.771 1184.76 36.2881 1184.9 34.068C1185.75 19.2938 1203.93 25.0976 1195.82 37.1108C1194.41 39.1505 1192.28 40.2775 1190.92 41.8214H1190.88Z" fill="#2F3082"/>
<path d="M856.947 39.1062C854.862 31.6684 862.74 15.3165 870.313 23.3741C877.875 31.443 862.019 37.0665 856.947 39.1062Z" fill="#2F3082"/>
<path d="M944.995 45.54C950.066 47.5798 966.204 52.8764 958.36 61.2609C950.517 69.6453 943 52.9215 944.995 45.54Z" fill="#2F3082"/>
<path d="M1031.68 37.7871C1029.32 29.6281 1040.69 14.2228 1046.4 25.0076C1051.16 33.9781 1037.16 35.1614 1033.35 39.0606C1032.59 39.331 1031.9 38.5084 1031.68 37.7871Z" fill="#2F3082"/>
<path d="M1380.79 39.1054C1379.62 32.2536 1383.24 19.6656 1391.35 21.5589C1403.63 30.9463 1388.09 36.0175 1380.79 39.1054Z" fill="#2F3082"/>
<path d="M1371.69 27.2738C1375.95 33.0325 1367.74 40.1886 1364.4 44.178C1363.75 44.9443 1363.71 45.9022 1362.31 45.5416C1358.86 38.6447 1358.1 23.5099 1368.57 25.4595C1369.33 25.5947 1371.24 26.6428 1371.69 27.2738Z" fill="#2F3082"/>
<path d="M751.906 39.1055C753.304 38.7336 753.304 39.6465 753.991 40.4579C756.121 42.9935 761.192 48.3014 761.914 51.1525C764.314 60.585 752.222 62.1628 750.002 54.4657C748.593 49.4283 750.137 43.726 751.906 39.1506V39.1055Z" fill="#2F3082"/>
<path d="M924.464 52.1999C923.788 47.8048 924.644 42.2715 927.597 39.1499C928.769 42.6321 935.474 47.0723 936.477 49.6192C940.466 59.8518 926.368 64.3821 924.464 52.2449V52.1999Z" fill="#2F3082"/>
<path d="M770.389 45.54L783.033 51.5128C789.603 57.587 780.768 68.0563 774.063 60.4495C770.299 56.1896 770.028 51.1522 770.389 45.54Z" fill="#2F3082"/>
<path d="M836.418 37.697C835.697 31.6227 837.23 24.7371 843.991 25.4133C847.158 25.7288 848.522 27.2277 848.837 30.6761C849.378 37.3814 842.402 40.1424 839.54 45.5405C837.827 43.5909 836.734 40.3678 836.418 37.697Z" fill="#2F3082"/>
<path d="M1098.33 52.1999C1097.61 47.4893 1098.66 42.8124 1101.47 39.1499C1103.42 43.0829 1110.12 47.5794 1110.66 51.6477C1111.98 61.4859 1099.92 62.7142 1098.29 52.1999H1098.33Z" fill="#2F3082"/>
<path d="M1050.12 39.9624C1055.01 38.5538 1061.27 36.4689 1065.53 40.3681C1064.94 45.1689 1061.81 48.1666 1057.97 50.2063C1053.56 49.0681 1049.26 45.3605 1050.12 39.9624Z" fill="#2F3082"/>
<path d="M1224 39.9624C1228.89 38.5538 1235.15 36.4689 1239.4 40.3681C1237.96 47.8961 1231.29 53.7337 1225.77 46.3522C1224.27 44.3575 1223.5 42.6784 1224 39.9624Z" fill="#2F3082"/>
<path d="M1414.06 39.1048C1415.37 42.6322 1409.26 49.7544 1406.9 50.2052C1405.95 50.3855 1401.06 47.3991 1400.28 46.3961C1393.57 37.2905 1409.08 37.606 1414.02 39.1048H1414.06Z" fill="#2F3082"/>
<path d="M788.252 43.4111C787.249 39.602 793.368 34.0687 796.715 34.6209C798.62 34.8914 803.747 41.1009 803.747 43.5914C803.702 47.9414 789.109 46.713 788.297 43.4111H788.252Z" fill="#2F3082"/>
<path d="M1312 44.6726C1310.7 40.2775 1316.17 34.4738 1319.85 34.4287C1321.84 34.4287 1327.69 41.4157 1327.41 44.2669C1322.88 47.9858 1317.04 45.901 1312 44.6726Z" fill="#2F3082"/>
<path d="M978.251 45.5401C974.634 46.2614 967.016 47.1629 963.939 44.8527C960.851 42.5425 966.88 33.3917 971.681 34.8004C974.307 35.5667 979.615 42.0015 978.296 45.5401H978.251Z" fill="#2F3082"/>
<path d="M1152.12 45.5404C1146.78 47.2082 1131.47 47.1632 1138.8 37.8772C1139.67 36.8404 1144.07 34.4287 1145.15 34.5752C1147.05 34.8006 1153.94 42.1821 1152.12 45.5404Z" fill="#2F3082"/>
</svg>
