<svg width="600" height="709" viewBox="0 0 600 709" fill="none" xmlns="http://www.w3.org/2000/svg">
<g filter="url(#filter0_d_2134_19387)">
<mask id="mask0_2134_19387" style="mask-type:luminance" maskUnits="userSpaceOnUse" x="4" y="0" width="592" height="701">
<path d="M4 0H596V700.369H4V0Z" fill="white"/>
</mask>
<g mask="url(#mask0_2134_19387)">
<path d="M53.1805 420.746C51.3308 406.709 48.274 390.219 36.212 373.099C25.8343 358.373 12.9351 349.071 4.01758 343.691C10.3065 341.498 27.2459 334.755 39.8433 318.134C52.1291 301.914 53.239 285.729 53.2876 279.632V150.957C53.2876 107.757 92.2286 72.749 140.272 72.749C140.272 32.5706 176.497 0 221.172 0H378.941C423.616 0 459.841 32.5706 459.841 72.749C507.884 72.749 546.825 107.757 546.825 150.948V279.624C546.718 285.38 547.205 302.482 560.328 319.26C572.994 335.445 589.875 341.708 595.988 343.682C587.83 348.529 574.649 357.753 563.794 373.099C550.009 392.595 547.409 411.505 546.825 420.737V549.412C546.825 592.604 507.884 627.612 459.841 627.612C459.841 667.79 423.616 700.361 378.941 700.361H221.172C176.497 700.361 140.272 667.79 140.272 627.612C134.48 627.612 103.658 627.096 78.7648 604.71C53.862 582.324 53.2876 554.618 53.2876 549.412C55.5365 526.301 59.8589 471.458 53.1708 420.737L53.1805 420.746Z" fill="#2F3082"/>
</g>
</g>
<defs>
<filter id="filter0_d_2134_19387" x="0.0175781" y="0" width="599.971" height="708.361" filterUnits="userSpaceOnUse" color-interpolation-filters="sRGB">
<feFlood flood-opacity="0" result="BackgroundImageFix"/>
<feColorMatrix in="SourceAlpha" type="matrix" values="0 0 0 0 0 0 0 0 0 0 0 0 0 0 0 0 0 0 127 0" result="hardAlpha"/>
<feOffset dy="4"/>
<feGaussianBlur stdDeviation="2"/>
<feComposite in2="hardAlpha" operator="out"/>
<feColorMatrix type="matrix" values="0 0 0 0 0 0 0 0 0 0 0 0 0 0 0 0 0 0 0.25 0"/>
<feBlend mode="normal" in2="BackgroundImageFix" result="effect1_dropShadow_2134_19387"/>
<feBlend mode="normal" in="SourceGraphic" in2="effect1_dropShadow_2134_19387" result="shape"/>
</filter>
</defs>
</svg>
