<svg width="270" height="193" viewBox="0 0 270 193" fill="none" xmlns="http://www.w3.org/2000/svg">
<path fill-rule="evenodd" clip-rule="evenodd" d="M73.2152 8.69933C73.2152 8.69933 68.2715 11.8049 66.2777 18.1917C64.3961 24.218 66.7943 29.7224 69.2849 32.8374C71.782 35.9594 95.5643 49.4981 95.5643 49.4981C95.5643 49.4981 102.454 46.6804 105.316 42.4982C108.171 38.3137 109.428 33.5957 109.428 33.5957C109.428 33.5957 110.026 34.9624 109.967 36.3057C109.908 37.6467 111.82 33.3733 111.956 28.9127C112.09 24.4544 111.649 21.4002 109.481 18.0957C109.481 18.0957 112.392 19.0529 112.932 19.1044C113.471 19.1559 110.958 16.3101 109.143 13.3823C107.325 10.4569 103.122 6.95579 99.2617 6.22093C99.2617 6.22093 101.607 5.4065 102.629 4.54526C103.654 3.68402 101.321 4.44229 97.0943 2.86959C92.8694 1.2969 84.9558 -1.01534 80.7067 3.99997C80.7067 3.99997 79.889 3.11533 80.0604 1.9007C80.2341 0.683734 80.5836 -0.95917 78.7987 0.707137C77.0159 2.3711 76.4818 4.56866 76.9126 6.19285C76.9126 6.19285 75.5387 6.71006 73.3164 6.24433C70.6697 5.69436 70.4059 6.13434 73.2152 8.69933Z" fill="#283F63"/>
<path fill-rule="evenodd" clip-rule="evenodd" d="M49.9231 15.225C49.9231 15.225 50.1869 14.2304 50.3979 12.1709C50.6067 10.1114 50.5474 8.52703 50.1231 7.736C49.6967 6.94965 48.1535 6.24756 48.1535 6.24756C48.1535 6.24756 47.2765 4.44083 46.2851 3.29173C45.3135 2.17306 43.6912 2.5007 43.201 4.18807C43.201 4.18807 41.5304 2.59198 40.5588 5.25058C40.5588 5.25058 38.554 4.44083 38.3166 6.86306C38.3166 6.86306 36.5163 6.67817 36.7053 8.57851C36.8944 10.4718 37.8748 11.3963 38.6507 11.4829C38.6507 11.4829 38.7321 13.6523 39.563 15.2016C40.3917 16.7509 42.8075 19.0468 43.5087 20.1022C44.2034 21.1648 54.957 21.7662 49.9231 15.225Z" fill="#FAB48C"/>
<path fill-rule="evenodd" clip-rule="evenodd" d="M43.9057 8.39772C43.8353 8.29942 43.7716 8.18475 43.7057 8.05837C42.8923 6.42717 42.9627 4.48938 42.9627 4.48938C42.9671 4.33258 43.0924 4.21323 43.2374 4.21791C43.3825 4.22493 43.5012 4.34428 43.4968 4.49874C43.4968 4.49874 43.4309 6.29143 44.1871 7.79391C44.2464 7.92029 44.3102 8.02327 44.3805 8.10986C44.3959 8.12624 44.4069 8.13794 44.4179 8.15666C44.5476 8.31113 44.6817 8.40708 44.8223 8.45389C45.0334 8.52878 45.2422 8.48197 45.3895 8.38602C45.2312 8.20815 45.0597 7.98816 44.8861 7.72605C44.1497 6.60503 44.2618 5.46296 44.6179 4.93638C44.8223 4.62512 45.1125 4.49406 45.3983 4.55725C46.1479 4.72342 48.0141 5.91698 48.0141 5.91698C48.1372 5.99655 48.1746 6.16973 48.0955 6.29611C48.0141 6.42717 47.8515 6.46929 47.7284 6.38738C47.7284 6.38738 45.9874 5.25701 45.2862 5.10255C45.2378 5.09085 45.1938 5.10723 45.1521 5.14233C45.0751 5.20084 45.0158 5.29679 44.9674 5.42317C44.7894 5.88889 44.8333 6.65184 45.3345 7.4101C45.8841 8.24794 46.3853 8.56388 46.6293 8.8494C46.7458 8.9945 46.8161 9.13024 46.8381 9.28704C46.8601 9.43448 46.8447 9.61234 46.7524 9.83233C46.4336 10.6187 45.4972 11.5408 45.1125 13.6424C45.0861 13.7922 44.9454 13.8951 44.8004 13.8647C44.6553 13.8366 44.5586 13.6985 44.5915 13.5441C44.9894 11.3816 45.939 10.4291 46.2622 9.61936C46.2995 9.52107 46.3215 9.4415 46.3105 9.37129C46.2929 9.26364 46.2072 9.18172 46.0951 9.07875C46.0028 8.98748 45.8907 8.88918 45.7654 8.76983C45.4906 8.9945 45.0751 9.11854 44.6443 8.9711C44.5432 8.93599 44.4399 8.8845 44.3321 8.80961C44.2024 9.14896 43.9497 9.58426 43.4529 9.80191C43.0814 9.96807 42.6769 9.93999 42.2878 9.75042C42.2021 9.71064 42.1208 9.65915 42.035 9.60064C41.9823 9.72702 41.9053 9.8651 41.8042 10.0032C41.6108 10.2606 41.3294 10.5017 40.9359 10.5766C40.6985 10.6234 40.4457 10.5883 40.1929 10.4853C40.1644 10.5953 40.1226 10.7263 40.0676 10.8527C39.8962 11.2365 39.5774 11.6344 39.0125 11.6859C38.8652 11.6976 38.7355 11.5876 38.7267 11.4378C38.7157 11.288 38.8235 11.1523 38.9729 11.1406C39.3071 11.1055 39.4851 10.8644 39.5884 10.6351C39.6632 10.4572 39.7005 10.284 39.7115 10.1927C39.6588 10.1459 39.5994 10.1015 39.5445 10.05C38.9422 9.48129 38.4014 8.48899 38.1706 7.33521C38.1442 7.18543 38.2343 7.03565 38.3816 7.00289C38.5267 6.96778 38.6674 7.05905 38.6982 7.20883C38.9048 8.22921 39.3774 9.12556 39.9116 9.63107C40.2193 9.92361 40.5468 10.0898 40.8502 10.0313C41.1579 9.96807 41.3514 9.73872 41.4701 9.53277C41.5404 9.4181 41.5822 9.30342 41.6108 9.22385C41.3624 8.94769 41.1404 8.59664 40.9843 8.19645C40.4237 6.76183 40.36 5.47466 40.36 5.47466C40.3534 5.3202 40.4611 5.18914 40.6128 5.17744C40.7579 5.16574 40.8876 5.28041 40.892 5.43487C40.892 5.43487 40.9579 6.64014 41.4811 7.98348C41.7119 8.58026 42.101 9.03896 42.5208 9.24491C42.7626 9.36661 43.0176 9.39469 43.2484 9.29172C43.7123 9.10917 43.8639 8.61537 43.9057 8.39772Z" fill="#EE6748"/>
<path fill-rule="evenodd" clip-rule="evenodd" d="M41.7129 19.7767C41.7239 19.325 44.3068 17.1602 46.9095 15.7209C49.2967 14.401 50.5475 14.1014 50.8508 14.291C51.1454 14.4806 56.6563 25.4192 58.6061 28.3048C60.5581 31.1928 68.7684 39.2833 73.0219 42.2461C77.2688 45.2066 94.173 46.9923 94.173 46.9923C94.173 46.9923 104.447 44.2026 111.013 51.8742C117.577 59.5481 106.808 73.9294 106.808 73.9294L81.7795 87.6928C81.7795 87.6928 71.4084 73.2928 67.4692 61.2472C67.4692 61.2472 63.3344 56.15 58.7468 50.6011C54.1591 45.0522 53.06 43.0652 50.5211 38.6584C47.9778 34.2516 41.7019 20.2307 41.7129 19.7767Z" fill="#004AAD"/>
<path fill-rule="evenodd" clip-rule="evenodd" d="M77.7637 50.3362C77.7637 50.3362 80.3466 55.1104 82.492 56.6433C84.3407 57.9633 85.9696 57.0459 87.4292 56.0582C88.891 55.0777 92.3355 50.9727 92.9664 48.8664C93.5973 46.7625 77.7637 50.3362 77.7637 50.3362Z" fill="#FAB48C"/>
<path fill-rule="evenodd" clip-rule="evenodd" d="M98.118 27.6173C98.6038 29.5504 99.0193 31.7667 99.2171 33.5968C99.2171 33.5968 100.642 30.5381 102.958 31.0787C105.278 31.6169 106.418 35.0081 105.724 37.9475C105.029 40.8846 102.765 43.2741 100.274 41.5282C100.274 41.5282 97.6806 48.7481 89.3362 51.285C80.5346 53.9529 74.7291 49.8948 71.456 45.9303C67.5696 41.2239 68.3522 37.6784 68.5896 34.9917C68.827 32.305 68.5038 29.4709 68.7676 28.3288C68.7676 28.3288 70.1371 25.057 72.2056 23.0607C74.2763 21.0691 79.9257 18.3614 81.9898 15.457C81.9898 15.457 83.2933 19.576 87.8216 21.6261C92.3565 23.6739 87.6612 20.2945 87.3798 16.3347C87.3798 16.3347 90.7013 20.3577 94.0425 22.354C96.0957 23.5779 97.4124 25.9651 98.118 27.6173Z" fill="#FAB48C"/>
<path fill-rule="evenodd" clip-rule="evenodd" d="M79.7232 51.9604C79.5341 51.9042 79.4198 51.6912 79.4748 51.49C79.5275 51.2887 79.7275 51.1693 79.9166 51.2255C79.9166 51.2255 85.0538 52.7467 90.4921 50.486C90.6746 50.4111 90.8856 50.5023 90.956 50.7036C91.0263 50.9002 90.9406 51.1225 90.7515 51.1974C85.0802 53.5565 79.7232 51.9604 79.7232 51.9604Z" fill="#EE6748"/>
<path fill-rule="evenodd" clip-rule="evenodd" d="M100.78 35.1566C100.668 35.3298 100.71 35.5708 100.872 35.6902C101.035 35.8119 101.261 35.7651 101.374 35.5942C101.374 35.5942 101.53 35.3461 101.774 35.173C101.961 35.0372 102.216 34.9389 102.484 35.1566C102.818 35.4257 102.948 35.8516 102.948 36.315C102.948 36.851 102.787 37.429 102.517 37.9579C102.35 38.2903 102.172 38.4681 101.978 38.5079C101.675 38.5711 101.385 38.3183 101.154 38.0445C101.017 37.8877 100.791 37.8713 100.646 38.0141C100.501 38.1592 100.49 38.4003 100.62 38.5547C101.028 39.0368 101.585 39.3645 102.112 39.2545C102.468 39.1866 102.84 38.9221 103.148 38.3183C103.541 37.5437 103.741 36.6614 103.638 35.9148C103.563 35.3625 103.33 34.8874 102.915 34.5481C102.334 34.0777 101.778 34.2438 101.369 34.5434C101.013 34.7962 100.78 35.1566 100.78 35.1566Z" fill="#EE6748"/>
<path fill-rule="evenodd" clip-rule="evenodd" d="M81.4295 32.9576C81.3701 32.7564 81.1701 32.6417 80.981 32.7049C80.7942 32.7681 80.6865 32.981 80.7392 33.1823C80.7392 33.1823 80.858 33.6059 80.858 34.0201C80.858 34.1348 80.847 34.2495 80.814 34.3455C80.7986 34.404 80.7722 34.4554 80.7283 34.4906C80.6205 34.5701 80.4974 34.5935 80.3678 34.6052C80.2425 34.6216 80.1194 34.6286 79.9963 34.645C79.5808 34.7082 79.2093 34.8697 79.0027 35.4992C78.6641 36.55 79.295 37.5376 80.2381 38.2655C80.4007 38.3919 80.6271 38.3521 80.7392 38.1789C80.858 38.0081 80.8206 37.767 80.6579 37.6453C80.2974 37.3715 79.9853 37.0555 79.7962 36.7045C79.6401 36.412 79.5742 36.0913 79.6819 35.752C79.7962 35.408 80.0336 35.408 80.2644 35.3846C80.5678 35.3565 80.8733 35.3097 81.1393 35.1154C81.3745 34.9376 81.5108 34.645 81.5526 34.3057C81.6405 33.7042 81.4295 32.9576 81.4295 32.9576Z" fill="#283F63"/>
<path fill-rule="evenodd" clip-rule="evenodd" d="M76.5195 24.9999C76.7261 25.166 77.0229 25.1192 77.1789 24.9016C77.335 24.6839 77.2911 24.368 77.0866 24.2018C77.0866 24.2018 75.1566 22.6642 73.1562 23.7197C72.9254 23.8391 72.8331 24.1386 72.9474 24.3844C73.0595 24.6324 73.3409 24.7284 73.5717 24.609C75.0753 23.8227 76.5195 24.9999 76.5195 24.9999ZM90.5352 26.624C90.7353 26.7949 91.032 26.7551 91.1925 26.5421C91.3551 26.3315 91.3178 26.0156 91.1177 25.8424C91.1177 25.8424 88.7613 23.8625 86.0179 24.5856C85.7695 24.6488 85.6134 24.925 85.6794 25.1894C85.7431 25.4515 85.9959 25.62 86.2443 25.5498C88.5524 24.9484 90.5352 26.624 90.5352 26.624Z" fill="#283F63"/>
<path fill-rule="evenodd" clip-rule="evenodd" d="M74.6304 26.1816C76.8726 26.2893 78.6026 28.4143 78.4949 30.9114C78.3872 33.4062 76.4835 35.3463 74.2369 35.2363C71.9948 35.1287 70.2626 33.006 70.3703 30.5089C70.4802 28.0118 72.3817 26.0717 74.6304 26.1816ZM87.7185 27.2605C90.1211 27.3799 91.9808 29.5845 91.8687 32.1846C91.7544 34.7847 89.7167 36.7973 87.314 36.678C84.9092 36.5563 83.0495 34.354 83.1638 31.7539C83.2716 29.1609 85.3137 27.1459 87.7185 27.2605ZM92.5699 31.4778L99.292 32.0348C99.4899 32.0512 99.6635 31.892 99.6789 31.6861C99.6943 31.4731 99.5448 31.2882 99.3514 31.2718L92.4556 30.6985C91.9435 28.3792 90.0618 26.6052 87.7493 26.4976C85.5555 26.3876 83.6167 27.8058 82.8187 29.884C82.3219 29.5845 80.7041 28.7583 79.0884 29.4651C78.607 27.2254 76.8352 25.5217 74.6612 25.4117C72.5971 25.3087 70.7704 26.6801 70.0164 28.6834L68.5986 28.5009C68.3985 28.4705 68.2205 28.6203 68.1985 28.8332C68.1721 29.0462 68.3128 29.2334 68.5106 29.2568L69.79 29.423C69.7131 29.7623 69.6647 30.1134 69.6493 30.4691C69.524 33.3945 71.5683 35.8682 74.1996 35.9946C76.8352 36.121 79.0818 33.8602 79.2071 30.9395C79.2181 30.7031 79.2115 30.4738 79.1961 30.2515C80.8557 29.3902 82.5703 30.6166 82.5703 30.6166C82.5747 30.6236 82.5813 30.6236 82.5857 30.6283C82.5044 30.9793 82.4516 31.3467 82.4362 31.7188C82.3065 34.7449 84.4718 37.3028 87.2701 37.4409C90.0684 37.579 92.4512 35.2363 92.5809 32.2197C92.5963 31.9716 92.5897 31.7259 92.5699 31.4778Z" fill="#EE6748"/>
<path fill-rule="evenodd" clip-rule="evenodd" d="M73.9079 27.8107C73.1649 27.7779 72.534 28.494 72.49 29.4231C72.4527 30.3476 73.0198 31.1292 73.7628 31.169C74.5058 31.2041 75.1367 30.481 75.1806 29.5565C75.218 28.6274 74.6531 27.8458 73.9079 27.8107ZM86.9256 29.051C86.1387 29.0112 85.466 29.7789 85.422 30.7618C85.3781 31.7424 85.9826 32.5685 86.7695 32.6083C87.5565 32.6504 88.2313 31.8805 88.2731 30.8999C88.3171 29.9169 87.7126 29.0908 86.9256 29.051Z" fill="#283F63"/>
<path fill-rule="evenodd" clip-rule="evenodd" d="M86.8159 42.8193C86.9829 42.274 87.0731 41.7123 87.0687 41.1553C87.0687 40.9143 84.244 41.3098 81.8018 41.1881C78.4605 41.0336 76.5239 40.2309 76.337 40.5632C76.2117 40.7809 76.5041 43.3529 77.7922 45.2181C78.4231 46.1355 79.2958 46.8868 80.4763 47.1068C83.435 47.6567 86.0179 45.4124 86.8159 42.8193Z" fill="#283F63"/>
<path fill-rule="evenodd" clip-rule="evenodd" d="M77.7949 45.2169C78.4258 46.1343 79.2985 46.8855 80.4789 47.1055C83.4333 47.6555 86.0162 45.4065 86.8141 42.8181C85.1369 42.4623 80.6943 41.917 77.7949 45.2169Z" fill="#EE6748"/>
<path fill-rule="evenodd" clip-rule="evenodd" d="M84.2431 65.2175C84.7707 65.2175 85.1972 65.6715 85.1972 66.2332C85.1972 66.7948 84.7707 67.2489 84.2431 67.2489C83.7156 67.2489 83.2891 66.7948 83.2891 66.2332C83.2891 65.6715 83.7156 65.2175 84.2431 65.2175ZM84.1948 60.5158C84.7224 60.5158 85.1488 60.9698 85.1488 61.5315C85.1488 62.0955 84.7224 62.5495 84.1948 62.5495C83.6672 62.5495 83.2408 62.0955 83.2408 61.5315C83.2408 60.9698 83.6672 60.5158 84.1948 60.5158ZM65.2155 55.2547C65.1606 55.0535 65.2683 54.8405 65.4573 54.7773C65.6464 54.7211 65.8464 54.8358 65.9058 55.0371C65.9058 55.0371 66.7674 58.1357 67.5984 60.3613C67.6731 60.5579 67.5808 60.7802 67.3983 60.8621C67.2137 60.9417 67.0049 60.8434 66.9301 60.6492C66.0882 58.3931 65.2155 55.2547 65.2155 55.2547ZM87.3646 57.7682C87.1711 57.7284 87.0415 57.5272 87.0788 57.3212C87.1162 57.1129 87.3052 56.9749 87.4987 57.017C87.4987 57.017 90.7652 57.6816 93.6932 60.1671C93.8823 60.3285 94.0493 60.4245 94.1988 60.4011C94.2911 60.3894 94.3659 60.3285 94.4428 60.2349C94.5549 60.0922 94.6516 59.8909 94.7439 59.6335C95.2605 58.1076 95.3638 54.9224 95.0891 50.5483C95.0715 50.3354 95.2232 50.1575 95.4232 50.1411C95.6232 50.1224 95.7947 50.2839 95.8057 50.4969C96.0914 55.0184 95.9574 58.3182 95.4232 59.8979C95.2012 60.5462 94.8956 60.93 94.5615 61.0845C94.1944 61.2506 93.746 61.1874 93.2514 60.7638C90.4641 58.4001 87.3646 57.7682 87.3646 57.7682ZM74.8151 58.8752C74.9821 58.7956 75.3338 58.6224 75.6394 58.4399C76.8902 57.6933 78.9653 56.4928 81.8493 56.7759C82.0493 56.7923 82.1944 56.9819 82.1724 57.1878C82.157 57.4008 81.979 57.5553 81.7856 57.5319C78.6311 57.2229 76.5077 58.8354 75.4459 59.4205C75.2085 59.5516 75.0085 59.6381 74.859 59.6686C74.67 59.7013 74.5183 59.6686 74.3996 59.5867C74.2765 59.5001 74.1688 59.3643 74.1248 59.1163C74.0545 58.7371 74.1204 57.8127 74.2611 56.7057C74.5667 54.2437 75.1975 50.8362 75.1975 50.8362C75.2349 50.6279 75.424 50.4898 75.6174 50.532C75.813 50.5717 75.9427 50.773 75.9032 50.979C75.9032 50.979 75.2789 54.3654 74.9711 56.804C74.8524 57.7167 74.7821 58.4844 74.8151 58.8752Z" fill="#283F63"/>
<path fill-rule="evenodd" clip-rule="evenodd" d="M22.4177 61.6201C22.4177 61.6201 18.7291 55.217 17.641 53.3167C16.5529 51.4164 16.3265 51.2666 19.7425 51.9265C23.6992 52.6918 57.3691 62.1725 81.2525 83.0856C81.2525 83.0856 100.082 60.6676 129.466 43.698C158.849 26.7213 182.264 20.8167 183.188 21.2075C184.104 21.5983 215.589 59.8251 229.701 77.4313C243.814 95.0446 270.087 130.861 269.79 131.619C269.557 132.209 264.345 133.037 259.59 134.884C259.59 134.884 264.545 141.966 264.361 142.455C264.022 143.344 258.751 155.717 258.751 155.717L67.5951 151.308L1.90625 73.8226C1.90625 73.8226 10.288 62.1327 11.0969 61.798C11.9059 61.461 18.6104 61.2714 22.4177 61.6201Z" fill="#FFF0E0"/>
<path fill-rule="evenodd" clip-rule="evenodd" d="M185.603 47.6286C185.473 47.4671 185.491 47.226 185.64 47.088C185.792 46.9499 186.018 46.9686 186.148 47.1231C186.148 47.1231 238.98 111.646 261.135 146.528C261.247 146.699 261.204 146.94 261.036 147.062C260.869 147.181 260.65 147.137 260.535 146.959C238.397 112.104 185.603 47.6286 185.603 47.6286ZM110.871 65.0008C110.697 65.1084 110.477 65.0452 110.381 64.8627C110.277 64.6778 110.337 64.4438 110.51 64.3408C110.51 64.3408 140.113 45.7516 172.867 39.847C173.06 39.8119 173.249 39.95 173.282 40.1606C173.313 40.3689 173.183 40.5702 172.985 40.6029C140.362 46.4865 110.871 65.0008 110.871 65.0008ZM89.1042 80.9664C88.9415 81.0858 88.7151 81.0413 88.603 80.8681C88.4887 80.695 88.5327 80.4539 88.6953 80.3345C88.6953 80.3345 117.301 59.1757 158.301 48.4383C158.495 48.3845 158.688 48.5109 158.737 48.7192C158.787 48.9251 158.668 49.1311 158.473 49.1826C117.619 59.8802 89.1042 80.9664 89.1042 80.9664ZM8.75335 66.9854C8.55552 67.0134 8.37746 66.866 8.34889 66.6577C8.32251 66.4518 8.46319 66.2575 8.65663 66.2271C8.65663 66.2271 29.0274 63.283 53.2405 72.4945C53.4296 72.5647 53.5263 72.787 53.456 72.9836C53.3922 73.1825 53.1812 73.2878 52.9987 73.213C28.968 64.0693 8.75335 66.9854 8.75335 66.9854ZM23.0768 62.0098C22.8768 61.9935 22.7317 61.8086 22.7471 61.5956C22.7647 61.385 22.9361 61.2305 23.1362 61.2469C23.1362 61.2469 54.5089 63.8868 79.6277 81.8721C79.7948 81.9938 79.8388 82.2279 79.7245 82.4057C79.6124 82.5836 79.3903 82.6304 79.2233 82.5087C54.2605 64.6333 23.0768 62.0098 23.0768 62.0098ZM180.585 31.9157C180.235 31.9438 179.712 32.0233 179.006 32.1497C173.97 33.0741 160.036 36.6899 137.014 46.5263C108.246 58.813 83.3911 82.4923 83.3911 82.4923C83.2438 82.6351 83.013 82.6187 82.8833 82.4642C82.7492 82.3074 82.7646 82.0617 82.9097 81.9236C82.9097 81.9236 107.864 58.16 136.744 45.8195C159.842 35.9551 173.825 32.3276 178.881 31.3985C179.787 31.2323 180.413 31.1504 180.758 31.141C180.967 31.1293 181.103 31.1504 181.167 31.1738C181.2 31.1855 181.292 31.2323 181.404 31.3517C181.62 31.5716 182.139 32.1778 182.919 33.1326C191.63 43.6851 233.713 97.4353 259.458 134.124C259.577 134.293 259.544 134.534 259.388 134.658C259.232 134.784 259.005 134.752 258.887 134.578C233.148 97.9127 191.085 44.1907 182.385 33.6241C181.928 33.0695 181.519 32.592 181.242 32.2761C180.747 34.5087 178.817 43.3247 177.47 51.0197C177.432 51.2257 177.243 51.3637 177.05 51.3239C176.854 51.2842 176.727 51.0829 176.764 50.8769C178.153 42.9339 180.165 33.802 180.585 31.9157Z" fill="#EE6748"/>
<path fill-rule="evenodd" clip-rule="evenodd" d="M108.726 53.2167C108.726 53.2167 107.145 53.7339 106.747 54.8526C106.349 55.9713 106.64 58.4567 107.594 59.4373C108.548 60.4202 109.776 59.0418 109.884 57.888C109.884 57.888 110.385 59.3413 111.544 59.009C112.704 58.6743 112.676 56.8723 112.676 56.8723C112.676 56.8723 113.243 58.3256 114.32 57.9114C115.314 57.5393 115.34 56.5634 115.404 55.7489C115.404 55.7489 116.532 56.4768 117.312 55.0024C117.813 54.0545 117.037 51.5691 118.072 50.9091C118.466 50.6634 117.716 49.98 116.428 49.7624C115.923 49.6758 115.21 49.8934 114.758 49.9286C112.843 50.0666 112.063 51.1057 111.491 51.2883C110.59 51.5761 109.475 52.3859 108.726 53.2167Z" fill="#FAB48C"/>
<path fill-rule="evenodd" clip-rule="evenodd" d="M114.257 50.6131C114.246 50.4001 114.398 50.2223 114.596 50.2106C114.796 50.1989 114.963 50.3603 114.974 50.5733C114.974 50.5733 115.126 53.4028 115.669 55.3359C115.728 55.5371 115.616 55.7501 115.427 55.8133C115.238 55.8765 115.038 55.7548 114.978 55.5535C114.418 53.5455 114.257 50.6131 114.257 50.6131ZM111.34 51.9167C111.318 51.7037 111.466 51.5188 111.664 51.4977C111.864 51.4743 112.042 51.6288 112.057 51.8418C112.057 51.8418 112.253 53.8544 112.892 56.3913C112.947 56.5926 112.835 56.8056 112.64 56.8617C112.446 56.9132 112.253 56.7939 112.198 56.5926C111.54 53.9808 111.34 51.9167 111.34 51.9167ZM108.672 53.9995C108.652 53.7866 108.791 53.597 108.986 53.5736C109.184 53.5455 109.362 53.7 109.384 53.9059C109.384 53.9059 109.584 55.6565 109.929 57.3556C109.971 57.5638 109.848 57.7698 109.654 57.8096C109.459 57.8564 109.265 57.723 109.228 57.517C108.878 55.7829 108.672 53.9995 108.672 53.9995Z" fill="#EE6748"/>
<mask id="mask0_2229_270" style="mask-type:luminance" maskUnits="userSpaceOnUse" x="0" y="48" width="261" height="145">
<path d="M0 48.0127H260.955V193H0V48.0127Z" fill="white"/>
</mask>
<g mask="url(#mask0_2229_270)">
<path fill-rule="evenodd" clip-rule="evenodd" d="M3.71829 72.1619C1.92896 72.4311 0.00992885 72.7751 0.291299 73.7276C0.495731 74.4297 25.0013 105.591 31.231 114.32C37.4585 123.05 63.2939 155.416 69.3324 163.762C76.4634 173.615 79.8596 180.708 80.829 181.546C81.8006 182.384 108.144 180.783 127.532 184.277C146.01 187.608 155.605 191.263 158.155 192.295C159.804 192.967 162.02 191.675 166.781 187.853C171.54 184.032 194.175 173.287 220.43 165.971C245.21 159.067 260.462 157.455 260.875 156.261C261.479 154.532 215.018 92.6842 199.974 74.1138C184.925 55.541 179.108 48.9764 177.976 48.616C176.849 48.2532 146.696 54.7734 124.287 64.3289C101.879 73.8844 88.7975 82.8361 82.0468 86.7796C82.0468 86.7725 36.289 67.2777 3.71829 72.1619Z" fill="#EE6748"/>
</g>
<path fill-rule="evenodd" clip-rule="evenodd" d="M83.1275 88.4881C83.0022 88.3219 83.0352 88.0809 83.1913 87.9498C83.3473 87.8234 83.5738 87.8515 83.699 88.0177C83.699 88.0177 139.463 164.862 158.049 191.326C158.167 191.493 158.135 191.734 157.978 191.86C157.822 191.986 157.596 191.951 157.477 191.785C138.885 165.323 83.1275 88.4881 83.1275 88.4881Z" fill="#283F63"/>
<path fill-rule="evenodd" clip-rule="evenodd" d="M144.694 161.654C144.578 161.488 144.608 161.247 144.765 161.121C144.921 160.994 145.147 161.027 145.266 161.193C145.266 161.193 157.848 178.952 161.502 183.983C161.62 184.15 161.594 184.391 161.438 184.524C161.282 184.655 161.055 184.62 160.932 184.454C157.281 179.41 144.694 161.654 144.694 161.654ZM92.9046 91.2998C92.7793 91.1336 92.8079 90.8926 92.9639 90.7615C93.12 90.6281 93.3464 90.6562 93.4695 90.8177C93.4695 90.8177 131.661 141.729 143.013 158.158C143.131 158.331 143.094 158.565 142.938 158.692C142.777 158.818 142.551 158.778 142.437 158.612C131.079 142.192 92.9046 91.2998 92.9046 91.2998Z" fill="#283F63"/>
<path fill-rule="evenodd" clip-rule="evenodd" d="M122.993 97.9291C122.82 98.8606 141.467 120.616 142.388 121.793C142.388 121.793 155.098 116.593 168.364 112.76C181.626 108.931 195.079 106.74 195.108 105.931C195.134 105.121 176.17 81.4182 175.394 80.8682C174.618 80.3182 161.719 82.6071 147.094 87.503C137.693 90.6484 123.165 97 122.993 97.9291Z" fill="#FAB48C"/>
</svg>
