<svg width="232" height="190" viewBox="0 0 232 190" fill="none" xmlns="http://www.w3.org/2000/svg">
<path d="M222.774 95.5244C222.774 95.5244 219.929 111.976 224.721 125.885L158.862 185.408L156.768 142.485L222.774 95.5244Z" fill="#FEE7DC"/>
<path d="M214.544 87.4502C214.544 87.4502 224.273 87.4502 225.47 87.4502C226.666 87.4502 226.625 94.0288 226.046 95.0774C225.47 96.1237 166.197 146.672 164.401 149.665C162.607 152.655 163.952 172.996 166.348 173.442C168.743 173.891 224.081 121.697 226.046 121.547C228.014 121.399 229.268 126.334 228.118 128.128C226.967 129.922 164.908 187.984 160.116 189.63C155.327 191.275 6.79385 141.139 5.14803 136.653C3.49991 132.165 3.80083 98.8158 3.80083 98.8158L214.544 87.4502Z" fill="#E2551E"/>
<path d="M156.715 147.831C156.678 147.831 156.641 147.826 156.603 147.817C135.317 142.444 21.436 108.019 20.2879 107.671C20.0495 107.597 19.9129 107.345 19.987 107.107C20.0587 106.868 20.311 106.729 20.5518 106.803C21.6953 107.151 134.754 141.326 156.594 146.879L222.475 88.9402C222.663 88.7758 222.948 88.7944 223.114 88.9819C223.281 89.1694 223.262 89.4541 223.073 89.6207L157.015 147.717C156.932 147.791 156.823 147.831 156.715 147.831Z" fill="black"/>
<path d="M158.908 187.515C158.707 187.515 158.521 187.378 158.468 187.172C156.216 178.168 156.26 148.629 156.264 147.377C156.264 147.127 156.466 146.923 156.716 146.923C156.718 146.923 156.718 146.923 156.718 146.923C156.968 146.925 157.17 147.127 157.17 147.377C157.17 147.684 157.123 178.057 159.348 186.952C159.408 187.196 159.262 187.441 159.019 187.501C158.982 187.51 158.945 187.515 158.908 187.515Z" fill="black"/>
<path d="M228.114 45.9854C228.114 45.9854 224.913 58.6681 228.098 73.4063L190.459 103.843L183.281 94.5496L188.883 72.0452L228.114 45.9854Z" fill="#FEE7DC"/>
<mask id="mask0_2465_75" style="mask-type:luminance" maskUnits="userSpaceOnUse" x="0" y="38" width="232" height="75">
<path d="M0 38.8193H231.493V112.893H0V38.8193Z" fill="white"/>
</mask>
<g mask="url(#mask0_2465_75)">
<path d="M0.248494 72.7921C-0.348721 75.7828 1.34802 104.549 1.94523 107.542C2.54476 110.532 180.494 114.421 185.283 112.028C190.073 109.634 231.01 75.5351 231.308 73.8916C231.609 72.2458 230.635 68.8801 228.989 68.5075C227.343 68.1325 194.114 99.5395 193.068 99.2409C192.019 98.9423 192.094 80.0976 192.767 78.4518C193.441 76.8083 229.693 48.1419 230.387 45.2253C231.081 42.311 229.213 39.4175 228.091 39.0448C226.968 38.6698 92.7359 42.4337 90.5646 42.4337C88.3933 42.4337 0.848024 69.8014 0.248494 72.7921Z" fill="#5B5EA6"/>
</g>
<path d="M222.773 6.29102C222.773 6.29102 219.581 20.4483 222.773 36.8995L185.156 70.8991L177.971 60.5288L183.559 35.4041L222.773 6.29102Z" fill="#FEE7DC"/>
<path d="M9.0369 32.4128C8.43737 35.4035 10.8332 71.5952 11.4304 74.5859C12.0299 77.5766 178.493 80.5071 183.283 78.1136C188.072 75.7201 225.692 42.5816 225.99 40.9358C226.291 39.2923 225.317 35.9266 223.671 35.5539C222.025 35.1789 188.796 66.586 187.748 66.2874C186.702 65.9865 186.776 41.1603 187.449 39.5168C188.123 37.871 224.372 9.20701 225.067 6.29038C225.764 3.37374 223.896 0.482572 222.773 0.107576C221.65 -0.265105 82.2675 0.450165 80.0986 0.450165C77.9273 0.450165 9.63643 29.4221 9.0369 32.4128Z" fill="#CB9D10"/>
<path d="M178.683 35.4998C163.025 35.4998 14.5849 33.4697 13.0618 33.4489C12.7284 33.4442 12.4622 33.1688 12.4669 32.8354C12.4715 32.5044 12.74 32.2405 13.071 32.2405C13.0733 32.2405 13.0756 32.2405 13.078 32.2405C14.6011 32.2614 163.016 34.2915 178.676 34.2915C178.833 34.2915 178.974 34.2915 179.106 34.2915C182.025 31.9651 214.312 6.2501 220.545 2.15987C220.826 1.97701 221.201 2.05339 221.383 2.33348C221.566 2.61126 221.488 2.98625 221.21 3.16912C214.863 7.33111 180.046 35.0854 179.694 35.3655C179.588 35.4512 179.458 35.4975 179.321 35.4975C179.143 35.4998 178.928 35.4998 178.683 35.4998Z" fill="#5B5EA6"/>
<path d="M27.1672 72.8837C26.8547 72.8837 26.5885 72.6429 26.5654 72.3258C26.4681 71.0758 24.2413 41.6364 26.4566 33.3031C26.5422 32.9814 26.8709 32.7892 27.195 32.8749C27.5167 32.9605 27.7089 33.2915 27.6232 33.6133C25.4612 41.7498 27.7459 71.93 27.769 72.2332C27.7968 72.5666 27.5468 72.8559 27.2135 72.8814C27.1973 72.8837 27.1834 72.8837 27.1672 72.8837Z" fill="#5B5EA6"/>
<path d="M181.784 76.8318C181.49 76.8318 181.233 76.6188 181.186 76.3225C181.147 76.0795 177.381 51.9339 178.71 34.8462C178.735 34.5151 179.027 34.2536 179.36 34.2906C179.691 34.3161 179.941 34.6077 179.913 34.9388C178.598 51.8876 182.341 75.892 182.381 76.1327C182.432 76.4614 182.207 76.7716 181.876 76.8225C181.846 76.8295 181.814 76.8318 181.784 76.8318Z" fill="#5B5EA6"/>
<path d="M164.385 76.8318C164.093 76.8318 163.836 76.6188 163.79 76.3225C163.751 76.0795 159.984 51.9339 161.313 34.8462C161.339 34.5151 161.637 34.2536 161.961 34.2906C162.295 34.3161 162.545 34.6077 162.517 34.9388C161.2 51.8876 164.945 75.892 164.982 76.1327C165.035 76.4614 164.811 76.7716 164.48 76.8225C164.447 76.8295 164.417 76.8318 164.385 76.8318Z" fill="#5B5EA6"/>
<path d="M156.715 76.8318C156.423 76.8318 156.166 76.6188 156.12 76.3225C156.081 76.0795 152.314 51.9339 153.643 34.8462C153.669 34.5151 153.96 34.2536 154.291 34.2906C154.625 34.3161 154.872 34.6077 154.847 34.9388C153.53 51.8876 157.275 75.892 157.312 76.1327C157.365 76.4614 157.138 76.7716 156.81 76.8225C156.777 76.8295 156.745 76.8318 156.715 76.8318Z" fill="#5B5EA6"/>
<path d="M158.216 109.029C109.129 109.029 6.82446 105.02 5.60457 104.971L5.18328 104.955L5.16939 104.536C5.13698 103.622 4.4194 82.0987 5.18791 79.4923L5.28744 79.1543L5.63929 79.1682C6.93557 79.2168 135.756 83.9714 177.95 81.7353L178.445 81.7075L178.427 82.2052C178.068 91.1032 178.424 99.7999 179.482 108.054L179.545 108.529L179.068 108.564C174.61 108.892 167.325 109.029 158.216 109.029ZM6.06058 104.085C14.6785 104.42 149.795 109.631 178.524 107.696C177.524 99.6865 177.181 91.2699 177.501 82.6635C135.918 84.7815 13.7596 80.3719 5.98419 80.0872C5.51429 82.9922 5.81522 96.6217 6.06058 104.085Z" fill="#CB9D10"/>
<path d="M184.883 111.009C184.647 111.009 184.448 110.826 184.432 110.587C184.416 110.356 182.893 87.3492 182.83 70.898C182.83 70.648 183.031 70.4443 183.281 70.4443C183.284 70.4443 183.284 70.4443 183.284 70.4443C183.534 70.4443 183.735 70.6457 183.737 70.8957C183.798 87.3191 185.321 110.296 185.335 110.525C185.353 110.775 185.163 110.99 184.913 111.009C184.904 111.009 184.893 111.009 184.883 111.009Z" fill="#CB9D10"/>
<path d="M80.3093 147.093C80.3093 147.093 81.0778 140.602 77.4551 140.945C73.8325 141.285 75.6103 152.211 78.7537 153.16C81.8995 154.111 88.374 147.641 85.7606 144.803C83.1495 141.966 80.3093 147.093 80.3093 147.093Z" fill="black"/>
<path d="M136.287 23.733C128.764 23.733 120.586 23.6913 112.584 23.6126C100.595 23.4946 61.3367 23.0131 59.4987 21.7307C59.2626 21.5663 59.2071 21.3511 59.1955 21.2353C59.1399 20.7307 59.0126 19.5455 72.5842 12.7354C79.0564 9.48777 86.6582 6.02485 88.6628 5.69152C92.2761 5.09199 133.956 5.66143 135.729 5.68457L187.655 5.89985C187.844 5.89985 188.02 5.98781 188.134 6.13827C188.296 6.35123 188.444 6.72623 188.238 7.31187C187.018 10.7725 172.456 21.8186 167.463 23.0709C165.606 23.5362 152.461 23.733 136.287 23.733ZM60.7441 20.8673C64.6653 21.5247 85.4406 22.145 113.07 22.4112C141.653 22.6844 164.912 22.4645 167.169 21.8997C172.014 20.6844 185.851 9.81184 187.048 7.10354L135.718 6.89289C135.278 6.88595 92.3687 6.30262 88.8595 6.88363C85.1674 7.49705 63.9061 18.1636 60.7441 20.8673Z" fill="#5B5EA6"/>
</svg>
