<svg width="592" height="701" viewBox="0 0 592 701" fill="none" xmlns="http://www.w3.org/2000/svg">
<mask id="mask0_2083_78" style="mask-type:luminance" maskUnits="userSpaceOnUse" x="0" y="0" width="592" height="701">
<path d="M0 0H592V700.369H0V0Z" fill="white"/>
</mask>
<g mask="url(#mask0_2083_78)">
<path d="M49.1805 420.746C47.3308 406.709 44.274 390.219 32.212 373.099C21.8343 358.373 8.93506 349.071 0.0175781 343.691C6.30654 341.498 23.2459 334.755 35.8433 318.134C48.1291 301.914 49.239 285.729 49.2876 279.632V150.957C49.2876 107.757 88.2286 72.749 136.272 72.749C136.272 32.5706 172.497 0 217.172 0H374.941C419.616 0 455.841 32.5706 455.841 72.749C503.884 72.749 542.825 107.757 542.825 150.948V279.624C542.718 285.38 543.205 302.482 556.328 319.26C568.994 335.445 585.875 341.708 591.988 343.682C583.83 348.529 570.649 357.753 559.794 373.099C546.009 392.595 543.41 411.505 542.825 420.737V549.412C542.825 592.604 503.884 627.612 455.841 627.612C455.841 667.79 419.616 700.361 374.941 700.361H217.172C172.497 700.361 136.272 667.79 136.272 627.612C130.48 627.612 99.6578 627.096 74.7648 604.71C49.862 582.324 49.2876 554.618 49.2876 549.412C51.5365 526.301 55.8589 471.458 49.1708 420.737L49.1805 420.746Z" fill="#2F3082"/>
</g>
<mask id="mask1_2083_78" style="mask-type:luminance" maskUnits="userSpaceOnUse" x="25" y="0" width="539" height="699">
<path d="M561.695 698.919L25.9894 697.778L27.4764 0.000301241L563.182 1.14194L561.695 698.919Z" fill="white"/>
</mask>
<g mask="url(#mask1_2083_78)">
<path d="M518.083 279.636C519.727 293.624 522.458 310.059 533.337 327.139C542.697 341.83 554.349 351.123 562.407 356.501C556.712 358.673 541.369 365.358 529.934 381.894C518.782 398.03 517.744 414.153 517.687 420.227L517.413 548.426C517.322 591.467 482.009 626.27 438.534 626.177C438.449 666.207 405.6 698.587 365.173 698.501L222.406 698.196C181.979 698.11 149.268 665.59 149.354 625.561C105.879 625.468 70.715 590.515 70.8067 547.483L71.0799 419.284C71.189 413.549 70.7849 396.51 58.9453 379.768C47.5185 363.618 32.2561 357.346 26.7279 355.368C34.1206 350.554 46.0682 341.39 55.9234 326.121C68.4391 306.725 70.8313 287.89 71.3795 278.693L71.6527 150.493C71.7444 107.462 107.057 72.6587 150.532 72.7514C150.617 32.7217 183.466 0.341471 223.893 0.427624L366.66 0.731874C407.087 0.818028 439.798 33.338 439.712 73.3676C444.954 73.3788 472.844 73.9517 495.322 96.3031C517.809 118.655 518.27 146.259 518.259 151.445C516.175 174.467 512.147 229.099 518.092 279.645L518.083 279.636Z" fill="#ECCA19"/>
</g>
</svg>
