<svg width="350" height="418" viewBox="0 0 350 418" fill="none" xmlns="http://www.w3.org/2000/svg">
<mask id="mask0_33_2667" style="mask-type:luminance" maskUnits="userSpaceOnUse" x="0" y="0" width="350" height="418">
<path d="M0 0H350V418H0V0Z" fill="white"/>
</mask>
<g mask="url(#mask0_33_2667)">
<path d="M29.0757 251.113C27.9821 242.736 26.1749 232.894 19.0436 222.676C12.9081 213.887 5.28193 208.335 0.00976562 205.124C3.7279 203.816 13.7427 199.791 21.1905 189.871C28.4541 180.191 29.1102 170.531 29.139 166.892V90.0953C29.139 64.3121 52.1615 43.4186 80.5656 43.4186C80.5656 19.4391 101.982 0 128.395 0H221.671C248.083 0 269.5 19.4391 269.5 43.4186C297.904 43.4186 320.927 64.3121 320.927 90.0901V166.887C320.863 170.323 321.151 180.529 328.91 190.544C336.398 200.203 346.378 203.941 349.992 205.119C345.169 208.012 337.376 213.517 330.959 222.676C322.809 234.311 321.272 245.597 320.927 251.108V327.905C320.927 353.683 297.904 374.576 269.5 374.576C269.5 398.556 248.083 417.995 221.671 417.995H128.395C101.982 417.995 80.5656 398.556 80.5656 374.576C77.141 374.576 58.9187 374.269 44.2015 360.908C29.4786 347.547 29.139 331.012 29.139 327.905C30.4686 314.111 33.0241 281.379 29.07 251.108L29.0757 251.113Z" fill="#2F3082"/>
</g>
<mask id="mask1_33_2667" style="mask-type:luminance" maskUnits="userSpaceOnUse" x="17" y="0" width="317" height="418">
<path d="M17 0H333.719V417.63H17V0Z" fill="white"/>
</mask>
<g mask="url(#mask1_33_2667)">
<path d="M43.3118 250.891C42.3223 242.521 40.6869 232.688 34.2337 222.479C28.6816 213.698 21.7806 208.151 17.0098 204.943C20.3743 203.635 29.4368 199.615 36.1764 189.703C42.7494 180.031 43.3431 170.38 43.3691 166.745V90.0156C43.3691 64.2552 64.2025 43.3802 89.9056 43.3802C89.9056 19.4219 109.286 0 133.187 0H217.593C241.494 0 260.874 19.4219 260.874 43.3802C286.577 43.3802 307.411 64.2552 307.411 90.0104V166.74C307.354 170.172 307.614 180.37 314.635 190.375C321.411 200.026 330.442 203.76 333.713 204.938C329.348 207.828 322.296 213.328 316.489 222.479C309.114 234.104 307.723 245.38 307.411 250.885V327.615C307.411 353.37 286.577 374.245 260.874 374.245C260.874 398.203 241.494 417.625 217.593 417.625H133.187C109.286 417.625 89.9056 398.203 89.9056 374.245C86.8066 374.245 70.3171 373.938 56.9994 360.589C43.6764 347.24 43.3691 330.719 43.3691 327.615C44.5723 313.833 46.8848 281.13 43.3066 250.885L43.3118 250.891Z" fill="#F46B22"/>
</g>
</svg>
