<svg width="158" height="428" viewBox="0 0 158 428" fill="none" xmlns="http://www.w3.org/2000/svg">
<path d="M89.1064 405.043C89.3918 407.797 91.8851 410.744 90.7854 414.278C94.1937 414.026 97.7447 415.965 101.103 414.949C103.159 414.328 106.425 408.855 110.085 409.241C110.345 408.897 108.708 407.478 108.406 406.731C109.212 407.318 110.144 407.789 110.925 408.41C112.646 409.795 112.679 410.651 113.443 411.768C108.431 410.567 103.554 416.721 100.062 417.292C97.7531 417.669 94.2609 416.142 91.6165 416.813C91.7927 420.817 94.9996 421.85 97.4929 423.521C97.5768 423.571 97.1067 424.981 98.0386 425.225C102.605 426.408 112.352 424.629 116.801 422.681C114.442 428.482 99.1719 429.422 94.7562 426.064C91.0708 423.252 87.6289 409.82 88.2585 405.052H89.098L89.1064 405.043Z" fill="#56706A"/>
<path d="M68.1179 236.306L61.402 303.062L63.0642 302.625C62.7871 306.277 65.6834 310.298 66.2375 313.312C66.7328 315.982 65.4399 325.132 66.0192 325.292C67.9668 325.837 67.2281 323.504 67.27 322.362C67.3624 319.969 68.034 314.874 67.8661 313.22C67.6562 311.18 65.1377 307.587 64.76 303.876C64.1387 297.731 65.2217 290.789 64.718 284.543L68.949 236.306C75.9252 236.885 82.9181 237.464 89.9363 237.145L91.1955 311.029L91.6237 301.786L94.1421 303.028C91.0276 296.514 93.1767 289.387 92.8997 282.855C92.8493 281.714 91.6405 280.446 91.5817 278.717C91.1536 264.89 91.9595 250.963 91.6069 237.137C102.89 236.465 113.887 233.712 124.347 229.581C124.985 234.753 126.37 240.092 126.849 245.129C129.636 274.242 135.009 346.43 111.755 367.258C104.787 373.495 95.3426 372.673 87.4094 368.937C86.8638 363.052 85.0169 358.116 84.1858 352.432C82.5236 341.108 82.7419 329.657 79.854 318.567C82.809 318.349 84.6559 317.627 87.401 316.888C87.166 322.345 87.3423 327.768 89.5165 332.839C91.7496 333.124 90.4736 331.605 90.1713 330.497C88.5176 324.595 86.0662 317.468 90.7506 312.254C88.442 313.488 87.9551 315.545 85.0505 316.62C80.9621 318.139 77.2768 317.51 73.1381 316.888C73.3731 318.24 74.54 318.391 75.6565 318.559C75.1361 332.217 74.1119 345.272 71.7361 358.712C71.224 361.625 69.268 365.554 68.9406 368.089C61.998 370.381 50.6565 367.61 44.5954 363.891C44.2092 363.656 41.1786 361.004 40.7841 360.567C19.2679 336.692 30.7606 260.139 30.324 228.733C42.3287 233.342 55.3325 235.156 68.1011 236.289L68.1179 236.306ZM94.1505 284.165C93.8735 285.391 94.5031 285.92 95.4098 286.658C95.7708 285.827 94.5451 283.342 94.1505 284.165ZM72.3154 316.074L69.8221 315.638C70.6784 316.922 72.4665 317.728 72.3154 316.074Z" fill="#EBD7CA"/>
<path d="M68.9572 236.306L64.7262 284.543C65.2298 290.789 64.1469 297.731 64.7681 303.876C65.1459 307.595 67.6644 311.18 67.8742 313.22C68.0505 314.874 67.3705 319.969 67.2782 322.362C67.2362 323.504 67.975 325.837 66.0274 325.292C65.4481 325.132 66.7325 315.982 66.2456 313.312C65.6916 310.298 62.7953 306.277 63.0724 302.625L61.4102 303.062L68.1261 236.306C68.4031 236.331 68.6885 236.28 68.9656 236.306H68.9572Z" fill="#CCB6A9"/>
<path d="M91.6237 237.145C91.9763 250.971 91.162 264.899 91.5985 278.725C91.6489 280.463 92.8662 281.73 92.9165 282.864C93.1936 289.395 91.0445 296.514 94.159 303.037L91.6405 301.794L91.1368 312.632L89.9531 237.153C90.5072 237.128 91.078 237.187 91.6321 237.153L91.6237 237.145Z" fill="#CCB6A9"/>
<path d="M75.6732 318.576C74.4979 318.82 70.3005 317.292 71.5094 315.923C75.648 316.553 80.9788 318.156 85.0671 316.637C87.9718 315.554 88.4503 313.506 90.7673 312.271C86.0829 317.485 88.5342 324.612 90.188 330.514C90.4986 331.613 91.7747 333.133 89.5332 332.856C87.359 327.785 87.1827 322.362 87.4177 316.905C84.6726 317.644 82.8257 318.366 79.8707 318.584C78.687 318.668 76.7646 318.358 75.6732 318.584V318.576Z" fill="#CCB6A9"/>
<path d="M94.1499 284.165C94.5445 283.351 95.7701 285.827 95.4092 286.658C94.5025 285.911 93.8729 285.391 94.1499 284.165Z" fill="#CCB6A9"/>
<path d="M72.3156 316.074C72.4667 317.728 70.6702 316.922 69.8223 315.638L72.3156 316.074Z" fill="#CCB6A9"/>
<path d="M42.9355 411.759C51.2801 411.902 55.5279 419.189 64.7623 416.805C66.0383 426.4 48.9127 424.209 43.6071 421.766C42.6837 421.338 41.9197 418.903 39.5859 419.323C39.8294 416.939 41.4244 413.648 42.9439 411.768L42.9355 411.759Z" fill="#DA9D7E"/>
<path d="M113.45 411.759C115.347 414.53 115.943 414.572 116.808 418.475L113.458 417.636C114.449 423.344 111.779 421.9 107.573 422.673C107.951 419.172 106.356 419.172 106.734 422.673C106.532 422.698 105.836 423.453 104.711 423.554C102.352 423.764 99.8752 423.353 97.4995 423.512C95.0146 421.833 91.8077 420.801 91.623 416.805C94.2674 416.133 97.7597 417.661 100.068 417.283C103.561 416.712 108.43 410.559 113.45 411.759ZM105.886 417.636C106.49 416.461 105.357 415.394 105.063 415.965C104.459 417.141 105.592 418.207 105.886 417.636ZM106.314 418.475V419.315C106.86 419.038 106.86 418.752 106.314 418.475Z" fill="#DA9D7E"/>
<path d="M68.9593 405.043C66.8102 417.938 66.8018 428.742 50.8766 427.735C44.74 427.349 38.8215 426.618 39.5771 419.315C41.9109 418.895 42.6832 421.329 43.5983 421.758C48.9038 424.209 66.0295 426.392 64.7534 416.796C55.519 419.18 51.2796 411.893 42.9267 411.751C44.6812 409.576 45.4116 409.996 46.2846 409.232C50.1295 408.938 54.8474 415.016 57.0973 415.528C59.0869 415.982 63.0493 413.547 65.5929 414.269C65.1396 410.097 67.2719 407.604 67.2803 403.364C67.742 403.759 68.5144 404.943 68.9593 405.043Z" fill="#56706A"/>
<path d="M107.576 422.673C111.782 421.9 114.452 423.353 113.461 417.636L116.81 418.475C117.339 420.868 117.969 419.835 116.81 422.673C112.37 424.62 102.615 426.4 98.0479 425.216C97.116 424.973 97.5778 423.571 97.5022 423.512C99.878 423.353 102.354 423.756 104.713 423.554C105.838 423.453 106.535 422.706 106.737 422.673C107.014 422.639 107.307 422.723 107.576 422.673Z" fill="#3F534E"/>
<path d="M107.574 422.673C107.305 422.723 107.011 422.639 106.734 422.673C106.356 419.172 107.951 419.172 107.574 422.673Z" fill="#B67C5C"/>
<path d="M105.886 417.636C105.592 418.207 104.459 417.141 105.064 415.965C105.357 415.394 106.491 416.461 105.886 417.636Z" fill="#B67C5C"/>
<path d="M106.314 418.475C106.86 418.752 106.86 419.038 106.314 419.315V418.475Z" fill="#B67C5C"/>
<path d="M68.9573 368.106C67.6225 378.675 67.3035 392.736 67.2783 403.364C67.2699 407.604 65.146 410.097 65.591 414.269C63.0473 413.547 59.0933 415.99 57.0953 415.529C54.8539 415.017 50.1359 408.939 46.2827 409.232C46.4254 409.107 46.1903 408.015 46.2827 407.553C49.2293 406.345 50.5473 400.048 50.5557 397.051C50.5809 389.882 47.0718 375.678 45.4432 368.097L44.6037 367.258C44.4106 366.284 44.738 364.958 44.6037 363.9C50.6648 367.619 62.0063 370.389 68.9489 368.097L68.9573 368.106Z" fill="#DEA081"/>
<path d="M108.415 406.722C108.717 407.469 110.354 408.88 110.094 409.232C106.434 408.855 103.168 414.32 101.112 414.941C97.7536 415.957 94.2026 414.026 90.7942 414.269C91.8856 410.735 89.4007 407.788 89.1153 405.035C88.7963 401.937 90.0723 397.521 89.9883 393.66C89.8708 388.447 88.7207 381.974 88.2758 376.492V374.813C88.259 373.991 88.3765 373.092 88.2758 372.295C88.2254 371.909 87.8308 371.556 87.4363 371.455C87.3355 370.633 87.5118 369.759 87.4363 368.937C95.3695 372.673 104.814 373.495 111.782 367.258C111.135 376.14 105.964 388.732 105.981 397.169C105.981 398.898 107.702 404.926 108.424 406.714L108.415 406.722Z" fill="#DEA081"/>
<path d="M45.4508 368.106C45.4424 368.047 44.7456 367.929 44.6113 367.266L45.4508 368.106Z" fill="#EBD7CA"/>
<path d="M88.266 376.501C88.182 375.401 88.2744 375.309 88.266 374.822V376.501Z" fill="#EBD7CA"/>
<path d="M88.2653 372.303C87.8791 372.202 87.4678 371.85 87.4258 371.463C87.8203 371.564 88.2149 371.917 88.2653 372.303Z" fill="#EBD7CA"/>
<path d="M107.012 34.5839C106.928 35.096 106.323 38.2105 106.189 38.3616C105.115 38.5463 104.25 39.6041 103.478 39.9903C103.175 40.1414 103.033 40.1665 102.84 39.8727C102.672 39.6125 102.546 36.6407 102.437 35.9355C101.799 31.8892 100.833 27.3391 98.449 23.9056C85.353 26.4073 71.0061 25.3411 58.9761 19.683C54.0651 25.3411 53.8301 33.3079 53.7797 40.3428C53.0242 39.6209 51.0765 39.0248 50.4973 38.3113C50.1531 37.8831 49.4647 35.7424 49.2464 35.0624C47.2317 28.8922 45.1497 18.1887 54.2918 16.5768C51.1521 6.01604 62.0151 1.87735 70.8885 0.567745C82.2636 -1.11963 99.5404 0.534165 105.635 11.2964C107.809 15.1329 106.945 16.3418 107.113 20.2622C107.331 25.274 107.826 29.463 107.02 34.5839H107.012Z" fill="#0C0609"/>
<path d="M67.4111 68.911L68.0155 68.7935C74.8406 72.5628 84.075 73.5534 91.3785 72.9909C91.5464 73.3099 92.3607 74.1158 92.3859 74.1914C92.8728 75.5346 89.2882 81.1424 88.2304 82.3512C86.669 84.1394 81.0696 88.4627 78.6434 88.3704C77.9131 88.3452 75.2351 86.9684 74.4964 86.5319C69.5434 83.6189 66.5296 79.2199 64.8926 73.9479C65.6649 72.2941 66.815 70.6235 67.4111 68.911Z" fill="#D3866B"/>
<path d="M88.6022 65.5527C89.1395 68.1468 90.1133 70.6484 91.381 72.9906C91.5237 73.7378 90.9864 73.4356 90.5079 73.4691C83.6408 73.9476 77.756 73.1585 71.3255 70.8331C70.0327 70.363 68.3873 69.8509 67.4219 68.9107C67.7577 67.9369 67.9004 66.5769 68.1774 65.5527C68.3957 65.7626 73.164 67.2401 73.9279 67.3996C78.5116 68.3902 84.4803 67.727 88.6106 65.5527H88.6022Z" fill="#A55E4C"/>
<path d="M77.5033 96.2695C77.9398 96.5969 78.8129 97.0503 79.0143 97.2266C85.2769 102.566 87.9801 110.625 89.5835 118.256L103.737 121.715C103.603 128.002 103.15 133.291 101.974 139.478C93.9825 136.112 86.7544 131.352 79.5264 126.76C78.8464 127.322 78.1832 126.474 78.0153 125.803C77.965 125.778 77.9482 125.618 77.8391 125.601C69.9059 130.596 61.9307 135.768 53.2923 139.722C52.9313 139.377 52.7467 138.958 52.6627 138.488C51.7393 133.333 51.4538 128.254 51.3027 123.041C51.3027 122.831 51.3783 122.613 51.4538 122.386C51.5294 122.159 51.6553 121.941 51.7728 121.723L65.8427 118.306C67.4797 111.632 69.5617 103.984 74.3468 98.6705C75.0687 97.8646 76.4035 96.4122 77.5033 96.2695Z" fill="#D3866B"/>
<path d="M49.2472 35.0623L49.5914 35.0287C50.1791 37.4213 51.4131 38.8148 53.2936 39.1926C53.4363 32.3675 53.7217 24.4847 58.9266 19.2715C71.4098 24.8121 85.1439 25.8531 98.6093 23.5025C102.11 28.0358 102.807 34.1473 103.277 39.52C104.058 38.9156 104.897 38.4035 105.787 37.967L106.484 34.7685L107.029 34.5838C107.382 35.5072 108.171 35.3393 108.742 36.4223C110.698 40.1496 107.416 47.8058 103.596 49.6779C103 49.9633 102.001 49.9465 101.615 50.4334C99.3397 56.4609 94.882 61.6658 89.1231 64.9566C88.846 65.1161 88.6781 65.5107 88.611 65.5442C88.5354 65.8213 88.4347 66.1151 88.1828 66.2998C86.974 67.1813 83.3138 67.8948 81.702 68.1047C77.0848 68.7091 72.4172 67.8696 68.2701 66.1235C68.1274 66.0647 68.1526 65.7457 68.1778 65.5442C63.6445 61.2712 60.211 59.8525 56.7859 53.7074C56.4333 53.0694 55.4343 50.3998 55.258 50.2403C55.0313 50.0304 52.9998 49.5771 52.1603 48.9895C48.8946 46.6725 45.7382 38.1852 49.2556 35.0707L49.2472 35.0623Z" fill="#D3866B"/>
<path d="M71.6955 54.2701C71.0155 54.2701 70.2012 53.9847 69.6723 54.1274C68.7405 54.3709 68.3879 55.4874 67.666 55.9491C67.2294 51.122 76.0944 50.5344 79.6623 50.6603C83.0119 50.7778 90.2147 51.441 90.1139 55.7141C89.0898 55.4958 88.5273 54.2282 87.4024 54.077C86.8231 53.9931 85.7234 54.2953 85.0686 54.2785C83.4736 55.202 80.5689 54.6647 78.9403 53.7077C76.9171 54.7654 73.8026 55.2355 71.6955 54.2785V54.2701Z" fill="#030303"/>
<path d="M85.0684 54.2699C85.5973 54.4043 84.7662 54.8912 84.6487 54.9499C81.7272 56.545 75.4814 56.5869 72.5264 55.0423C72.1654 54.8576 71.8632 54.6477 71.6953 54.2699C73.7856 54.2699 75.5989 54.3959 77.6389 53.8082C78.0587 53.6907 78.7974 53.145 78.8814 53.145C78.9821 53.145 80.0818 53.8418 80.7115 53.9761C81.9875 54.2531 83.742 54.2364 85.0684 54.2699Z" fill="#F1F1ED"/>
<path d="M95.0318 30.9826C96.333 31.1673 98.1631 32.4769 97.8021 33.8621C96.1903 33.0478 94.8387 32.8127 93.017 32.905C90.3894 33.0394 86.8384 34.8694 86.5781 30.9826C89.1805 31.2428 92.5217 30.63 95.0318 30.9826Z" fill="#070404"/>
<path d="M71.6957 31.4695C71.7377 35.583 67.1541 33.0982 64.5097 33.1317C63.1077 33.1485 61.7897 33.7278 60.5977 34.349C61.4791 29.5387 68.1615 31.8557 71.6957 31.4695Z" fill="#0A0504"/>
<path d="M95.4121 39.8644L95.093 39.4531C95.8738 38.7395 95.6471 38.0595 94.4298 37.4047C95.4708 41.6945 88.6122 41.9547 88.9228 37.7825C88.4946 38.0007 88.1924 38.1435 87.8398 37.6985C88.5282 35.9272 92.0457 35.0373 93.9094 35.4067C95.0511 35.6334 98.5098 37.9336 97.4268 39.0165C97.1246 39.3187 95.899 39.7133 95.4037 39.856L95.4121 39.8644Z" fill="#1A0D10"/>
<path d="M95.411 39.8647C94.009 41.5353 90.6091 41.3926 88.8713 40.2089C87.78 39.4702 87.3519 38.9749 87.8472 37.7072L89.6101 36.9853C88.0654 42.0558 96.3764 40.9897 93.3962 36.6243C94.1685 36.3053 96.2589 38.0095 96.1161 38.7398C96.1077 38.807 95.5117 39.7388 95.411 39.8647Z" fill="#F0F0EC"/>
<path d="M92.7662 38.0093C93.0814 38.0093 93.337 37.765 93.337 37.4636C93.337 37.1623 93.0814 36.918 92.7662 36.918C92.4509 36.918 92.1953 37.1623 92.1953 37.4636C92.1953 37.765 92.4509 38.0093 92.7662 38.0093Z" fill="#D5D2D0"/>
<path d="M70.6866 37.7069C70.5943 38.0679 70.3172 38.135 69.8639 37.9C70.1325 42.0135 63.0892 41.535 64.3904 37.4047C63.1312 38.0091 62.8625 38.6639 63.5929 39.3607L63.3746 39.8728C60.2349 39.2264 60.831 37.7573 62.9969 36.2714C65.1627 34.7855 68.1765 35.1296 70.1829 36.8674C70.8461 37.4466 70.6027 37.5306 70.6866 37.7153V37.7069Z" fill="#1F0E12"/>
<path d="M63.3754 39.8645C63.0648 39.5203 62.5359 38.7899 62.6535 38.3534C62.7878 37.8497 64.7774 36.2882 65.3902 36.624C62.2757 40.8802 70.7462 42.1311 69.1763 36.985L70.6874 37.707C70.9308 38.2358 71.4429 38.3534 71.0652 39.1425C70.0242 41.3252 65.1132 41.7617 63.367 39.8645H63.3754Z" fill="#F0F0ED"/>
<path d="M66.0201 38.0088C66.3353 38.0088 66.5909 37.7645 66.5909 37.4631C66.5909 37.1618 66.3353 36.9175 66.0201 36.9175C65.7048 36.9175 65.4492 37.1618 65.4492 37.4631C65.4492 37.7645 65.7048 38.0088 66.0201 38.0088Z" fill="#DBD9D6"/>
<path d="M104.232 245.935C104.241 245.632 104.4 245.515 104.635 245.347C105.29 244.902 107.473 244.188 108.438 243.685C114.709 240.453 121.014 236.406 126.932 232.604" fill="#EBCF98"/>
<path d="M31.8418 234.282C34.226 234.366 37.181 235.399 39.1538 236.683L39.2629 237.145" fill="#C7A16B"/>
<path d="M38.5586 237.682C38.6677 237.288 38.6509 236.834 39.1546 236.683C42.2272 237.472 42.8568 238.387 45.4844 239.907C49.3209 242.115 52.9139 243.953 57.0694 245.565C62.9122 247.84 69.3931 249.771 75.7481 248.335C77.4102 247.957 78.8038 246.942 80.2813 246.53C80.3233 245.884 80.5751 245.918 80.785 246.53L81.2887 249.166C86.2417 249.771 91.0436 249.267 95.921 248.444" fill="#EBCF98"/>
<path d="M54.2917 81.3943L54.4428 81.982C52.0838 83.2664 55.5593 93.8692 56.105 94.2469C56.4828 93.7097 56.8857 93.5082 57.3223 93.6341C62.5691 89.6633 71.2998 90.763 75.9926 95.078C76.6809 94.6583 77.7639 95.5481 77.5036 96.2785C77.1007 96.8661 76.5382 97.4034 75.8079 97.8651C70.1497 103.851 68.2021 110.869 66.2041 118.55C61.5869 119.86 56.9193 121.043 52.193 122.11L51.7732 121.715C51.471 121.371 51.1436 121.228 50.791 121.287L33.0442 126.903C32.5909 126.769 32.5405 126.416 32.6748 125.988C36.2594 123.596 39.0801 120.12 41.2628 116.468C36.2678 122.336 29.8877 127.138 22.9031 130.353C22.4414 130.63 28.9223 128.154 29.0482 128.104C30.4166 128.565 31.3148 128.364 32.7 127.869C37.8881 126.072 43.0425 124.217 48.1718 122.294C49.9096 121.455 50.8666 121.665 51.0513 122.924C51.3031 128.716 51.8572 134.517 52.9485 140.075L53.2843 139.714C53.7293 139.252 54.1994 138.79 54.7786 138.48C62.6111 134.265 70.3008 129.967 77.7975 125.216C77.9989 125.358 78.0661 125.552 78.0073 125.795L78.5278 126.567C79.275 166.46 80.0305 206.344 80.7777 246.212L80.2824 246.522C79.9969 247.286 78.2088 248.033 77.319 248.319C70.6534 250.451 63.9794 248.713 57.6413 246.296L57.0788 245.565C53.8468 243.928 50.0607 241.46 46.6356 238.933C42.6228 235.987 37.9552 232.452 34.3706 229.094C34.2531 228.985 33.9005 228.347 33.9005 228.213C35.059 202.978 36.3938 178.431 37.9132 154.59C38.0727 153.582 38.4673 152.508 38.291 151.467C34.933 153.07 31.298 154.506 27.6966 155.547C18.5881 158.183 3.96421 160.542 0.446742 149.301C-0.686572 145.683 0.59785 141.191 1.41216 137.489C6.9528 112.296 23.7342 82.3513 54.3085 81.3691L54.2917 81.3943Z" fill="#FAA62C"/>
<path d="M125.177 152.197C124.573 151.752 123.893 151.391 123.12 151.114C116.027 148.847 109.185 145.816 102.62 142.005C103.669 134.618 104.249 127.196 104.492 119.767C108.413 120.439 104.979 119.263 104.316 119.557C104.14 119.633 104.215 121.11 104.232 121.421L103.728 121.715C103.661 121.891 103.518 122.151 103.376 122.126C98.6577 121.144 93.839 119.809 89.2134 118.525C87.4505 111.196 85.1755 103.59 79.341 98.2004L78.9968 97.2434C78.9549 96.1941 80.701 94.8341 81.7756 95.0859C84.6718 92.2485 89.6416 91.0144 93.7215 91.2411C95.7279 91.3586 98.5738 91.7532 99.6903 93.3986C100.337 92.8361 101.067 93.6504 101.453 94.2129C101.898 94.2968 103.846 86.6994 103.947 85.8851C104.291 83.0392 103.628 81.9899 101.352 80.2773L101.445 79.7148C125.656 81.7632 141.186 99.7199 150.177 119.633C158.295 137.623 165.658 164.411 133.035 155.143C131.91 154.824 125.496 152.793 125.152 152.197H125.177Z" fill="#FAA62C"/>
<path d="M64.8868 73.9478C65.7179 74.8209 66.3223 75.9207 66.7085 77.2471C67.9425 80.8401 74.6333 87.5056 78.6796 87.8834C82.726 88.2612 91.7505 78.7581 91.9268 74.5019L92.3801 74.1829C92.8082 73.8891 93.1608 73.9227 93.6477 74.0486C94.8566 74.3592 100.271 78.691 101.463 79.7068C102.017 80.1769 103.797 81.6963 104.041 82.1749C105.703 85.4237 102.832 91.5352 101.85 94.8344C101.497 95.4304 100.951 94.2048 100.691 94.0033C100.473 93.8354 99.9775 93.5416 99.7005 93.3905C93.7737 86.154 87.553 90.234 81.7857 95.0694C80.8203 95.6823 79.8381 96.4546 79.007 97.2269C78.4278 97.7054 77.2357 96.9835 77.4959 96.2699C76.9922 95.8921 76.5221 95.422 75.9848 95.0694C74.054 93.5919 71.7202 91.8878 69.4956 90.6537C65.3317 88.3535 62.4019 89.1678 59.195 92.3495L57.323 93.6255C57.0123 93.9781 56.7101 94.4146 56.3827 94.7588C56.2316 94.9183 56.3995 95.2206 55.8119 95.0694C54.88 91.2833 51.1863 84.7689 54.2924 81.3857L63.3757 74.0654L64.8868 73.9395V73.9478Z" fill="#C7822A"/>
<path d="M57.0641 245.565C56.8207 245.607 56.5856 245.632 56.3422 245.623C56.0987 245.615 55.8804 245.615 55.6957 245.531C50.8099 243.491 46.0668 240.947 41.7602 238.16L39.46 237.254L39.1494 236.674C36.5889 236.02 34.2887 235.189 31.8374 234.273C30.8384 233.896 25.8015 232.133 25.5664 231.47C29.4029 205.832 33.9361 180.227 37.8901 154.581C38.3099 155.638 38.2007 157.183 38.1504 158.308C38.058 160.331 37.7306 162.505 37.6215 164.529C36.505 185.751 35.5312 206.914 34.3559 228.137L34.7085 228.766C41.7098 234.475 48.6104 240.41 56.552 244.943C56.6779 245.019 57.6182 245.355 57.0557 245.548L57.0641 245.565Z" fill="#C7822A"/>
<path d="M103.737 121.715C103.754 121.035 103.477 119.314 104.149 119.104C104.946 118.852 111.058 120.481 112.367 120.825C114.986 121.505 117.589 122.269 120.133 123.159C116.103 119.901 111.906 115.385 109.983 110.617C109.891 110.39 109.505 109.702 110.033 109.727C115.633 117.803 124.221 124.561 133.749 127.969C133.808 128.405 133.212 128.179 132.935 128.145C132.12 128.044 131.021 127.809 130.215 127.608C125.531 126.466 120.804 124.015 116.036 122.621C112.35 121.547 108.531 120.732 104.745 120.044C104.98 127.364 104.182 134.634 103.024 141.837C106.155 143.592 109.337 145.279 112.644 146.723C114.39 147.487 124.683 150.963 125.052 151.491C125.237 151.752 125.119 152.104 125.178 152.205C124.825 152.465 124.607 152.684 124.112 152.65C123.524 152.6 120.687 151.533 119.881 151.248C116.061 149.88 111.62 147.932 108.019 146.094C106.919 145.531 102.293 143.113 101.714 142.484C101.269 141.997 101.815 140.259 101.966 139.487L101.714 138.093C102.537 132.88 103.099 127.641 103.385 122.386L103.737 121.723V121.715Z" fill="#C7822A"/>
<path d="M53.2848 139.713C53.4863 140.88 53.9732 142.333 54.0488 143.432C54.0656 143.718 53.9984 143.961 53.671 143.785C53.033 143.457 51.7486 135.978 51.5639 134.744C50.9426 130.571 50.7412 126.391 50.5145 122.185C50.1703 122.134 49.8681 122.26 49.5575 122.353C46.4094 123.226 31.9366 129.144 30.224 128.901C29.8882 128.85 29.6364 128.489 29.309 128.531C28.4191 128.666 25.1619 130.252 23.7096 130.647C22.2572 131.041 20.8889 131.234 19.4785 131.545L27.2774 127.566C33.6407 123.78 38.9799 118.886 43.3201 113.068C43.6978 113.253 43.2445 113.647 43.1522 113.865C41.3305 117.971 38.132 122.252 34.6229 125.19C34.0773 125.652 33.2798 125.971 32.8516 126.508L50.6992 120.808L51.7737 120.749C51.7821 121.068 51.7737 121.387 51.7737 121.706C51.8913 128.103 52.2103 133.375 53.2848 139.705V139.713Z" fill="#C7822A"/>
<path d="M75.9828 95.0691C70.2155 91.3166 63.6339 90.4855 57.3125 93.6252C59.8394 90.7458 63.0882 87.774 67.3948 89.1927C70.4086 90.1833 73.0949 92.5507 75.5463 94.3976C75.6722 94.4899 76.5117 94.918 75.9744 95.0691H75.9828Z" fill="#856439"/>
<path d="M95.4345 249.133C90.9852 249.838 86.4268 250.031 81.7508 249.703C80.5839 249.653 80.0047 247.143 80.777 246.53C81.3814 240.981 81.3814 235.323 80.7938 229.564L81.2807 228.766L81.8432 228.708C86.2841 232.595 86.6199 223.427 81.8515 227.331H81.2807C80.9533 221.748 80.6259 216.166 80.5084 210.575C80.055 188.227 79.6437 165.872 79.2911 143.525C79.2491 140.729 79.2743 137.933 79.3163 135.138C79.3583 132.342 79.4254 129.547 79.5178 126.751L80.3824 126.919C86.9221 131.117 93.6968 134.937 100.698 138.395L101.974 139.478L102.394 139.906C102.167 140.637 102.066 141.367 102.075 142.106C107.204 145.531 113.198 148.117 119.133 150.45L119.881 151.239L133.766 227.7L133.388 228.54C131.071 229.656 129.073 231.235 126.941 232.603C126.773 232.863 126.588 233.115 126.387 233.342C126.185 233.568 125.984 233.795 125.732 233.954C118.982 238.311 111.779 242.786 104.719 245.926" fill="#FAA62C"/>
<path d="M79.5169 126.751C80.0542 160.272 80.7846 193.802 81.2799 227.323C81.9179 227.835 81.9095 228.254 81.2799 228.766C81.3554 233.887 82.1362 240.822 81.5485 245.699C81.5233 245.909 81.5485 246.11 81.4142 246.303C81.2631 246.538 80.9944 246.48 80.7762 246.53C80.6251 246.564 80.4068 246.488 80.2725 246.53L78.0059 125.794C78.476 126.004 79.0552 126.458 79.5169 126.751Z" fill="#C7822A"/>
<path d="M82.7818 137.648C84.0615 137.648 85.0988 136.663 85.0988 135.448C85.0988 134.234 84.0615 133.249 82.7818 133.249C81.5022 133.249 80.4648 134.234 80.4648 135.448C80.4648 136.663 81.5022 137.648 82.7818 137.648Z" fill="#ECEFC9"/>
<path d="M83.5723 170.061C84.8473 170.061 85.8809 169.076 85.8809 167.862C85.8809 166.647 84.8473 165.662 83.5723 165.662C82.2973 165.662 81.2637 166.647 81.2637 167.862C81.2637 169.076 82.2973 170.061 83.5723 170.061Z" fill="#ECEFC9"/>
<path d="M83.5709 200.056C84.8505 200.056 85.8879 199.071 85.8879 197.857C85.8879 196.642 84.8505 195.657 83.5709 195.657C82.2913 195.657 81.2539 196.642 81.2539 197.857C81.2539 199.071 82.2913 200.056 83.5709 200.056Z" fill="#ECEFC9"/>
<path d="M81.2812 228.767C81.2812 228.288 81.2812 227.81 81.2812 227.323C82.935 224.158 87.5606 226.618 85.3192 229.363C84.0684 230.899 82.1879 230.202 81.2812 228.758V228.767Z" fill="#ECEFC9"/>
<path d="M99.6999 93.3905C94.1341 90.2424 86.8473 91.8375 81.7852 95.0695L82.9269 93.634C88.9208 89.0504 93.303 86.2129 99.4481 92.5426C99.6327 92.7357 100.296 93.1807 99.6999 93.3905Z" fill="#846439"/>
</svg>
