<svg width="569" height="546" viewBox="0 0 569 546" fill="none" xmlns="http://www.w3.org/2000/svg">
<mask id="mask0_36_5554" style="mask-type:luminance" maskUnits="userSpaceOnUse" x="0" y="263" width="384" height="283">
<path d="M0 263H384V546H0V263Z" fill="white"/>
</mask>
<g mask="url(#mask0_36_5554)">
<path d="M370.884 383.492C370.96 379.253 370.038 375.013 367.967 371.108C364.588 364.891 358.072 357.877 343.567 356.239C350.936 347.983 348.865 340.067 345.411 334.189C343.188 330.341 339.734 326.892 335.591 323.895C319.552 312.307 326.226 303.316 326.226 303.316C326.226 303.316 314.033 308.235 298.303 296.419C294.236 293.361 289.557 290.876 284.341 289.177C276.049 286.52 264.62 284.994 252.805 291.383C250.045 281.717 240.99 277.194 233.008 274.816C227.716 273.289 221.963 272.61 216.211 272.67C193.73 272.838 189.815 263.055 189.815 263.055C189.815 263.055 185.9 272.894 163.502 272.726C157.742 272.67 151.99 273.345 146.698 274.872C138.255 277.361 128.745 282.169 126.516 292.854C115.32 287.428 104.579 288.954 96.5967 291.5C91.3808 293.138 86.7015 295.684 82.6348 298.736C66.9048 310.497 54.7047 305.578 54.7047 305.578C54.7047 305.578 61.3794 314.569 45.3462 326.157C41.2037 329.154 37.8254 332.602 35.5268 336.451C31.9211 342.557 29.8498 350.98 38.52 359.688C25.3979 361.726 19.26 368.395 16.0395 374.278C13.9682 378.178 13.0463 382.417 13.1221 386.661C13.2736 403.169 0 406.054 0 406.054C0 406.054 13.3494 408.939 13.1221 425.447C13.0463 429.691 13.9682 433.931 16.0395 437.83C19.4115 444.053 25.9347 451.061 40.4333 452.704C33.0703 460.96 35.1416 468.876 38.5958 474.754C40.8185 478.598 44.2727 482.047 48.4152 485.044C64.4483 496.636 57.7737 505.628 57.7737 505.628C57.7737 505.628 69.9738 500.708 85.7038 512.525C89.7705 515.577 94.4497 518.067 99.6657 519.761C107.951 522.419 119.38 523.945 131.202 517.56C133.961 527.226 143.016 531.75 151.068 534.123C156.366 535.649 162.119 536.329 167.871 536.273C190.276 536.161 194.191 545.944 194.191 545.944C194.191 545.944 198.1 536.161 220.505 536.273C226.258 536.329 232.01 535.649 237.308 534.123C245.745 531.638 255.261 526.83 257.484 516.145C268.686 521.572 279.428 520.045 287.41 517.499C292.626 515.861 297.305 513.316 301.371 510.263C317.102 498.447 329.295 503.366 329.295 503.366C329.295 503.366 322.621 494.375 338.66 482.782C342.803 479.785 346.175 476.336 348.48 472.492C352.085 466.386 354.156 457.963 345.486 449.256C358.608 447.217 364.746 440.544 367.967 434.61C370.038 430.705 370.96 426.466 370.884 422.226C370.726 405.714 384 402.834 384 402.834C384 402.834 370.651 400.06 370.884 383.492Z" fill="#FFC81E"/>
</g>
<mask id="mask1_36_5554" style="mask-type:luminance" maskUnits="userSpaceOnUse" x="0" y="262" width="381" height="272">
<path d="M0 262H381V533.531H0V262Z" fill="white"/>
</mask>
<g mask="url(#mask1_36_5554)">
<path d="M367.987 377.609C368.062 373.541 367.147 369.473 365.092 365.727C361.74 359.761 355.274 353.032 340.883 351.46C348.194 343.539 346.139 335.943 342.712 330.304C340.507 326.611 337.079 323.302 332.969 320.427C317.055 309.308 323.678 300.682 323.678 300.682C323.678 300.682 311.579 305.401 295.972 294.064C291.937 291.13 287.294 288.746 282.119 287.116C273.893 284.567 262.552 283.102 250.83 289.233C248.092 279.958 239.107 275.618 231.188 273.336C225.937 271.872 220.229 271.22 214.522 271.278C192.217 271.439 188.332 262.053 188.332 262.053C188.332 262.053 184.448 271.492 162.224 271.332C156.51 271.278 150.802 271.925 145.552 273.39C137.175 275.779 127.739 280.392 125.528 290.644C114.419 285.437 103.762 286.902 95.8421 289.344C90.6668 290.916 86.0242 293.359 81.9892 296.288C66.3821 307.571 54.2773 302.852 54.2773 302.852C54.2773 302.852 60.8999 311.478 44.992 322.597C40.8818 325.473 37.5298 328.781 35.2492 332.474C31.6717 338.332 29.6166 346.414 38.219 354.769C25.1995 356.725 19.1095 363.123 15.9142 368.767C13.8591 372.509 12.9443 376.577 13.0195 380.649C13.1699 396.488 0 399.256 0 399.256C0 399.256 13.2451 402.024 13.0195 417.863C12.9443 421.935 13.8591 426.003 15.9142 429.745C19.2599 435.715 25.7321 442.439 40.1175 444.015C32.812 451.937 34.867 459.532 38.2942 465.172C40.4997 468.86 43.9268 472.169 48.037 475.044C63.9448 486.167 57.3223 494.794 57.3223 494.794C57.3223 494.794 69.4271 490.074 85.0342 501.412C89.0692 504.341 93.7118 506.73 98.8871 508.355C107.107 510.905 118.448 512.369 130.177 506.243C132.915 515.517 141.899 519.857 149.888 522.135C155.144 523.599 160.852 524.251 166.56 524.198C188.79 524.09 192.674 533.476 192.674 533.476C192.674 533.476 196.552 524.09 218.782 524.198C224.49 524.251 230.198 523.599 235.454 522.135C243.825 519.75 253.267 515.138 255.472 504.885C266.587 510.092 277.245 508.627 285.164 506.185C290.339 504.613 294.982 502.171 299.017 499.241C314.624 487.904 326.723 492.624 326.723 492.624C326.723 492.624 320.1 483.997 336.014 472.874C340.124 469.999 343.47 466.69 345.757 463.002C349.335 457.143 351.39 449.061 342.787 440.707C355.807 438.751 361.897 432.348 365.092 426.655C367.147 422.908 368.062 418.84 367.987 414.773C367.83 398.93 381 396.166 381 396.166C381 396.166 367.755 393.505 367.987 377.609Z" fill="#303182"/>
</g>
<mask id="mask2_36_5554" style="mask-type:luminance" maskUnits="userSpaceOnUse" x="63" y="173" width="506" height="283">
<path d="M63.666 173.055H568.166V455.862H63.666V173.055Z" fill="white"/>
</mask>
<g mask="url(#mask2_36_5554)">
<path fill-rule="evenodd" clip-rule="evenodd" d="M377.416 177.826L94.8431 340.945V329.836L63.666 332.602V356.669C63.666 362.534 67.7441 367.82 74.2806 371.534V371.55L213.416 451.977H214.031C219.546 454.435 226.354 455.867 233.692 455.867C241.051 455.867 247.859 454.435 253.369 451.977H253.682L255.135 451.133C256.161 450.602 257.145 450.023 258.067 449.435L557.734 276.414V276.289C564.171 272.581 568.166 267.331 568.166 261.508V237.461L537.15 234.529L526.041 239.596L422.989 180.065C421.942 179.367 420.817 178.711 419.604 178.112L419.114 177.826H419.01C413.333 175.102 406.176 173.482 398.411 173.482C390.64 173.482 383.484 175.102 377.807 177.826H377.416Z" fill="#6B675E"/>
</g>
<mask id="mask3_36_5554" style="mask-type:luminance" maskUnits="userSpaceOnUse" x="63" y="138" width="506" height="295">
<path d="M63.666 138.148H568.213V432.633H63.666V138.148Z" fill="white"/>
</mask>
<g mask="url(#mask3_36_5554)">
<path fill-rule="evenodd" clip-rule="evenodd" d="M377.416 142.586L74.2806 317.596V317.737C67.7441 321.451 63.666 326.737 63.666 332.602C63.666 338.466 67.7441 343.753 74.2806 347.466V347.487L213.416 427.909H214.031C219.546 430.367 226.354 431.82 233.692 431.82C241.051 431.82 247.859 430.367 253.369 427.909H253.682L255.135 427.065C256.161 426.534 257.145 425.982 258.067 425.362L557.734 252.367V252.221C564.171 248.534 568.166 243.284 568.166 237.461C568.166 231.602 564.13 226.331 557.63 222.617L422.989 144.846C421.942 144.143 420.817 143.492 419.604 142.878L419.114 142.586H419.01C413.333 139.862 406.176 138.242 398.411 138.242C390.64 138.242 383.484 139.862 377.807 142.586H377.416Z" fill="#EDEBE5"/>
</g>
<path fill-rule="evenodd" clip-rule="evenodd" d="M447.443 173.482L498.88 203.186L488.771 209.029L437.422 179.389L447.443 173.482Z" fill="#6B675E"/>
<path fill-rule="evenodd" clip-rule="evenodd" d="M377.682 154.357L542.542 249.54L274.896 404.066L110.281 309.029L377.682 154.357Z" fill="#CFAF08"/>
<path fill-rule="evenodd" clip-rule="evenodd" d="M377.005 158.945L534.589 249.924L276.229 399.107L118.891 308.247L377.005 158.945Z" fill="#F8E372"/>
<path fill-rule="evenodd" clip-rule="evenodd" d="M163.667 353.737C176.088 353.737 184.943 359.847 183.489 367.388C182.01 374.914 170.755 381.024 158.354 381.024C145.932 381.024 137.057 374.914 138.531 367.388C140.005 359.847 151.26 353.737 163.667 353.737Z" fill="#6B675E"/>
<path d="M428.832 248.305C428.832 248.305 436.426 267.472 441.098 272.701C443.467 275.347 471.556 258.899 475.249 254.508C478.947 250.05 451.624 257.295 447.999 254.508C444.374 251.722 439.285 238.409 439.285 238.409L428.832 248.305Z" fill="#F7B668"/>
<path d="M334.249 233.737C328.743 250.534 323.238 248.513 323.238 255.065C323.238 260.013 328.811 263.571 333.618 262.664C338.29 261.758 345.332 242.659 346.098 241.336C346.165 241.336 338.639 235.899 334.249 233.737Z" fill="#F7B668"/>
<path d="M409.177 107.93C410.083 111.904 410.922 113.575 410.849 119.221C410.849 119.221 417.542 166.268 423.953 186.273C430.713 207.601 437.474 229.763 440.474 232.763C441.307 232.065 442.562 232.414 442.911 233.461L445.005 240.013C445.005 240.013 434.828 253.883 422.281 254.44C422.281 254.44 417.542 247.258 418.031 245.794C418.516 244.331 419.771 244.055 419.771 244.055C419.771 244.055 407.922 223.211 403.25 207.185C400.396 197.424 396.281 188.013 390.776 179.44L388.823 176.305C388.823 176.305 389.453 191.154 380.391 204.742C371.328 218.336 355.927 238.268 355.927 238.268L357.109 238.336C357.531 238.617 357.667 239.174 357.458 239.591L352.51 247.539C352.302 247.956 351.812 248.096 351.396 247.888C347.562 246.075 332.437 239.315 329.161 229.279C329.094 228.997 329.094 228.721 329.302 228.513L332.37 220.982C333.276 219.659 335.156 219.518 336.271 220.633C336.271 220.633 360.526 182.924 361.781 177.07C363.036 171.216 361.713 120.06 370.911 113.435C379.901 106.883 409.177 107.93 409.177 107.93Z" fill="#FC8760"/>
<path d="M353.624 238.336C353.556 238.336 353.483 238.336 353.348 238.268C348.118 236.315 344.145 231.857 340.311 227.534C338.848 225.862 337.457 224.331 335.988 222.935C335.712 222.654 335.712 222.237 335.988 221.961C336.27 221.68 336.686 221.68 336.967 221.961C338.431 223.424 339.827 224.956 341.358 226.628C345.051 230.81 348.884 235.133 353.832 236.945C354.181 237.086 354.389 237.503 354.254 237.852C354.181 238.128 353.905 238.336 353.624 238.336Z" fill="#0D0B39"/>
<path d="M420.743 246.701C420.4 246.701 420.051 246.425 420.051 246.076C420.051 245.66 420.327 245.378 420.676 245.311C427.993 244.68 433.639 239.316 438.796 233.811C439.077 233.529 439.493 233.529 439.775 233.811C440.051 234.087 440.051 234.503 439.775 234.785C434.478 240.43 428.624 246.076 420.743 246.701C420.816 246.701 420.816 246.701 420.743 246.701Z" fill="#0D0B39"/>
<path d="M323.306 247.539C323.306 247.539 326.858 248.305 326.931 249.56C326.999 250.815 328.322 255.206 334.738 253.883C341.218 252.555 341.634 252.279 343.66 253.394C345.681 254.508 350.697 263.638 355.436 265.31C360.249 266.914 367.567 267.612 367.358 272.42C367.009 278.487 355.436 275.211 349.166 274.44C342.889 273.675 319.056 266.847 317.52 265.034C315.916 263.154 321.145 246.841 323.306 247.539Z" fill="#3F3C40"/>
<path d="M432.807 263.498C432.594 262.524 433.224 261.617 434.198 261.477C435.661 261.201 437.755 260.435 438.38 260.503C446.12 261.617 447.651 256.529 448 253.742C448.068 252.904 448.838 252.211 449.745 252.211C451.484 252.211 454.901 252.071 461.729 251.232C476.713 249.352 482.083 247.123 479.854 254.44C477.62 261.758 455.526 269.492 450.995 272.977C448.276 275.071 444.307 276.253 441.656 276.883C439.917 277.3 438.172 276.466 437.333 274.862C435.802 271.727 433.5 266.638 432.807 263.498Z" fill="#3F3C40"/>
<path d="M386.802 174.003C386.594 174.003 386.318 173.868 386.245 173.659C385.339 172.196 384.505 170.8 383.667 169.477C374.255 154.56 369.099 146.404 368.125 126.399C368.125 125.982 368.401 125.706 368.823 125.706C369.167 125.706 369.516 125.982 369.516 126.399C370.495 146.055 375.583 154.144 384.854 168.847C385.688 170.17 386.594 171.565 387.5 173.029C387.708 173.378 387.641 173.795 387.292 174.003C387.083 173.935 386.943 174.003 386.802 174.003Z" fill="#0D0B39"/>
<path d="M357.599 68.2008C357.599 68.2008 331.948 76.4977 331.115 80.3987C330.276 84.2998 333.969 112.529 333.969 112.529C333.969 112.529 326.583 112.81 327.557 119.289C328.604 125.706 333.969 146.753 337.667 147.102C341.359 147.519 367.01 149.539 369.38 142.154C371.818 134.763 375.51 88.4144 368.542 77.9612C361.641 67.4352 357.599 68.2008 357.599 68.2008Z" fill="#0D0B39"/>
<path d="M343.937 75.2428C343.87 75.2428 343.797 75.2428 343.729 75.2428C342.963 75.1022 342.474 74.4043 342.541 73.6387C343.87 64.9928 349.932 61.0918 355.37 61.0918C355.578 61.0918 355.718 61.0918 355.927 61.1595C356.067 61.1595 356.203 61.1595 356.343 61.1595C357.109 61.1595 357.739 61.7897 357.739 62.5553C357.739 63.321 357.109 63.9512 356.343 63.9512C356.135 63.9512 355.854 63.9512 355.646 63.8783C355.578 63.8783 355.437 63.8783 355.37 63.8783C349.515 63.8783 346.099 68.9668 345.333 74.0553C345.26 74.7533 344.635 75.2428 343.937 75.2428Z" fill="#0D0B39"/>
<path d="M428.343 119.711C429.88 121.31 431.411 122.638 433.291 123.82C433.291 123.82 434.827 124.31 437.333 125.565C439.775 126.888 445.562 129.466 446.885 133.299C448.208 137.065 448.557 139.227 447.374 141.456C447.374 141.456 445.63 144.732 442.702 143.685C442.702 143.685 441.588 144.872 439.702 142.57C439.702 142.57 439.359 143.617 434.479 135.951C433.015 133.648 422.557 125.914 422.557 125.914L428.343 119.711Z" fill="#F7B668"/>
<path d="M378.437 25.9609C378.437 25.9609 375.375 45.5495 373.562 47.7109C371.677 49.8672 395.724 62.0651 398.166 55.862C400.604 49.6589 399.979 46.7318 399.979 46.7318C399.979 46.7318 393.984 37.2526 394.468 28.888L378.437 25.9609Z" fill="#F7B668"/>
<path d="M399.973 23.3831C399.973 35.305 396.702 37.3258 390.15 37.3258C385.062 37.3258 380.458 34.7477 377.952 29.3102C376.697 26.5186 375.932 23.0342 375.932 18.7842V18.7165C375.932 6.51855 381.229 1.84668 388.755 1.84668C393.911 1.84668 398.723 4.9821 399.208 11.1852C399.416 13.9769 399.973 18.7842 399.973 23.3831Z" fill="#F7B668"/>
<path d="M394.193 15.9242C393.985 15.9242 393.703 15.7836 393.563 15.5752C393.354 15.2263 393.495 14.8096 393.771 14.6013C393.844 14.5336 394.61 14.1117 396.006 13.9763C396.839 13.8356 397.469 13.9763 397.818 14.044C397.886 14.044 397.953 14.044 398.026 14.1117C398.375 14.1117 398.724 14.4606 398.651 14.8096C398.651 15.1586 398.375 15.5075 397.953 15.5075C397.818 15.5075 397.677 15.5075 397.469 15.4398C397.12 15.3669 396.703 15.2992 396.073 15.3669C395.026 15.5075 394.401 15.8565 394.401 15.8565C394.469 15.8565 394.334 15.9242 394.193 15.9242Z" fill="#0D0B39"/>
<path d="M384.854 17.1127C384.641 17.1127 384.365 16.972 384.292 16.7637C384.083 16.4147 384.156 15.9981 384.505 15.7845C386.245 14.6699 388.823 14.3939 391.266 14.9512C391.615 15.0189 391.891 15.4408 391.75 15.7845C391.615 16.1335 391.266 16.4147 390.917 16.2741C388.896 15.7845 386.662 16.0658 385.271 16.972C385.13 17.0397 384.99 17.1127 384.854 17.1127Z" fill="#0D0B39"/>
<path d="M392.24 26.5911C392.099 26.5911 391.963 26.5181 391.891 26.3827C391.823 26.1692 391.891 26.0338 392.099 25.9609C393.427 25.4765 394.12 24.4296 394.12 22.8254C394.12 21.1536 393.495 19.2004 392.865 17.7369C392.797 17.5286 392.865 17.3879 393.078 17.3202C393.286 17.2525 393.427 17.3202 393.495 17.5286C394.12 19.0598 394.75 21.0859 394.75 22.8931C394.75 24.8463 393.911 26.1015 392.307 26.7317C392.307 26.5911 392.307 26.5911 392.24 26.5911Z" fill="#0D0B39"/>
<path d="M395.932 18.9251C395.932 18.5033 396.005 17.8783 396.421 17.7376C397.119 17.4616 397.395 18.3679 397.395 19.4095C397.395 19.8314 397.187 20.6647 396.838 20.6647C395.932 20.6647 395.932 19.3418 395.932 18.9251Z" fill="#0D0B39"/>
<path d="M388.125 19.2737C388.125 18.8518 388.266 18.1539 388.823 18.0185C389.802 17.7372 390.219 18.7164 390.219 19.831C390.219 20.2477 389.938 21.1539 389.453 21.1539C388.125 21.0862 388.125 19.6904 388.125 19.2737Z" fill="#0D0B39"/>
<path d="M386.66 12.7216C391.748 12.7216 401.785 9.86224 400.67 5.82057C399.905 3.10182 395.514 0.315364 389.103 0.523697C385.827 0.591405 382.483 1.1487 378.993 1.91432C377.181 2.3362 375.233 4.1487 374.952 6.02891C374.743 7.35182 373.488 8.33099 373.488 8.33099C373.488 8.33099 370.353 9.86224 371.051 15.5081C371.957 23.0341 377.53 22.4091 379.691 23.456C379.764 23.0341 379.415 19.6904 379.483 18.5758C379.623 16.5549 379.691 13.1383 378.926 12.2997C378.858 12.232 383.176 12.7216 386.66 12.7216Z" fill="#0D0B39"/>
<path d="M375.932 20.0397C375.234 18.8522 374.677 17.8105 373.979 17.8105C372.865 17.8105 372.234 18.8522 372.234 20.1803C372.234 23.8001 373.214 25.8939 376.839 25.9616C377.115 25.6126 377.396 24.847 377.464 24.4303C377.604 23.4564 376.839 21.571 375.932 20.0397Z" fill="#F7B668"/>
<path d="M391.4 31.3311C390.009 31.3311 388.895 30.8415 387.988 29.8675C387.848 29.7269 387.848 29.5186 387.988 29.3779C388.124 29.2373 388.337 29.2373 388.473 29.3779C389.728 30.7008 391.332 30.8415 393.77 30.2842C393.983 30.2165 394.118 30.3519 394.191 30.5654C394.259 30.7738 394.118 30.9092 393.91 30.9821C393.077 31.1904 392.171 31.3311 391.4 31.3311Z" fill="#0D0B39"/>
<path d="M380.249 7.63314C381.437 7.28418 382.968 7.00293 384.572 7.00293C388.895 7.00293 390.218 9.37272 390.218 10.9092C390.218 13.4873 385.338 14.6019 382.692 14.6019C380.39 14.6019 378.229 13.904 378.229 11.5342C378.229 11.2581 378.229 10.9092 378.301 10.5602C378.51 9.37272 379.067 7.9821 380.249 7.63314Z" fill="#0D0B39"/>
<path d="M371.468 8.7474C372.656 8.39844 374.187 8.11719 375.791 8.11719C380.114 8.11719 381.437 10.487 381.437 12.0234C381.437 14.6016 376.557 15.7161 373.906 15.7161C371.609 15.7161 369.447 15.0182 369.447 12.6484C369.447 12.3724 369.447 12.0234 369.515 11.6745C369.796 10.487 370.286 9.09635 371.468 8.7474Z" fill="#0D0B39"/>
<path d="M373.49 6.09668C374.677 5.74772 376.208 5.47168 377.813 5.47168C382.135 5.47168 383.458 7.84147 383.458 9.37272C383.458 11.9508 378.578 13.0706 375.932 13.0706C373.63 13.0706 371.469 12.3727 371.469 10.0029C371.469 9.72168 371.469 9.37272 371.536 9.02376C371.818 7.84147 372.307 6.44564 373.49 6.09668Z" fill="#0D0B39"/>
<path d="M390.568 6.86751C391.75 6.51855 393.286 6.2373 394.891 6.2373C399.208 6.2373 400.536 8.6071 400.536 10.1436C400.536 12.7217 395.656 13.8363 393.005 13.8363C390.708 13.8363 388.547 13.1383 388.547 10.7686C388.547 10.4873 388.547 10.1436 388.615 9.7946C388.896 8.6071 389.38 7.21126 390.568 6.86751Z" fill="#0D0B39"/>
<path d="M366.239 40.18C368.265 39.1383 370.702 38.1592 373.004 38.1592C380.947 38.1592 385.895 51.1227 394.541 49.5915C400.046 48.6175 399.208 45.6904 397.817 42.8311C398.166 42.7581 399.765 42.9717 400.114 42.9717C406.874 42.9717 408.062 57.0498 409.176 61.3727C409.176 61.3727 411.338 81.5133 410.359 89.3883L430.713 115.946C430.713 115.946 425.14 127.378 419.77 128.003L410.359 119.081C410.359 119.081 413.775 125.493 412.52 126.472C411.265 127.378 370.213 129.326 362.754 122.847C362.754 122.847 364.916 110.3 366.452 106.466C366.452 106.466 349.931 108.487 346.374 102.909C342.822 97.3363 344.702 92.2477 344.702 92.2477C344.702 92.2477 361.155 43.8779 366.239 40.18Z" fill="#7CA53A"/>
<path d="M359.969 121.175L358.922 117.128L360.943 116.571C378.719 111.904 389.594 104.513 393.146 94.5498C399.141 77.8883 383.948 56.8415 374.885 44.2946C374.047 43.18 373.281 42.0654 372.583 41.0863L370.703 38.9248C370.422 38.6488 370.635 38.1592 371.052 38.1592L374.885 38.0186L376 38.6488C376.698 39.6227 377.464 40.7373 378.302 41.8571C387.849 55.0967 403.813 77.2633 397.12 96.0133C393.078 107.305 381.297 115.597 362.057 120.685L359.969 121.175Z" fill="#0D0B39"/>
<path d="M383.457 86.1851C383.457 86.1851 387.15 85.6278 388.546 83.6747C389.936 81.7216 390.707 78.8674 392.447 77.6799C393.77 76.7737 397.259 76.7737 398.999 76.8414C399.629 76.8414 400.254 77.1226 400.743 77.6799C401.301 78.3049 401.999 79.2112 401.785 79.7008C401.785 79.7008 403.53 81.1643 403.04 82.7008L402.483 83.1174C402.483 83.1174 403.53 84.0914 403.113 85.2789C402.905 85.8362 403.389 87.1591 402.556 87.5758C401.717 87.9976 400.254 88.6226 399.348 89.0393C398.441 89.4612 398.858 91.4091 392.238 92.8726C384.504 94.6174 383.874 94.3362 383.874 94.3362L383.457 86.1851Z" fill="#F7B668"/>
<path d="M380.389 107.024C379.973 107.024 379.764 107.024 379.551 107.024C378.993 106.956 378.02 106.883 373.28 106.883H367.566C367.145 106.883 366.868 106.607 366.868 106.186C366.868 105.769 367.145 105.493 367.566 105.493H373.28C378.02 105.493 378.993 105.561 379.624 105.628C379.832 105.628 380.04 105.628 380.389 105.628C382.827 105.628 383.108 105.352 383.108 98.7324C383.108 97.196 383.108 95.7324 383.04 94.8262C383.04 94.3366 383.04 93.9928 383.04 93.7793V90.9928C383.04 88.347 382.759 86.8105 382.202 86.2533C381.853 85.9043 381.228 85.9043 380.181 85.9043H379.691C379.275 85.9043 377.603 85.9772 375.16 85.9772C370.072 86.1126 361.639 86.321 357.53 86.321C357.108 86.321 356.832 86.0449 356.832 85.6283C356.832 85.2064 357.108 84.9303 357.53 84.9303C361.639 84.9303 370.072 84.722 375.16 84.5814C377.53 84.5137 379.275 84.5137 379.691 84.5137H380.113C381.228 84.5137 382.27 84.5137 383.108 85.2793C384.014 86.1126 384.363 87.7845 384.363 90.9928V93.7116C384.363 93.9928 384.363 94.3366 384.363 94.7585C384.363 95.7324 384.431 97.196 384.431 98.7324C384.504 104.587 384.504 107.024 380.389 107.024Z" fill="#0D0B39"/>
<path d="M369.515 84.5131C369.447 84.5131 369.307 84.5131 369.239 84.4402C368.89 84.2996 368.749 83.8829 368.89 83.534C369.655 81.7944 370.494 80.9558 371.4 79.9819C373.004 78.3048 375.025 76.1485 378.301 67.9923C378.437 67.6433 378.859 67.435 379.208 67.5756C379.551 67.711 379.765 68.1329 379.624 68.4819C376.208 76.9142 374.119 79.1433 372.442 80.9558C371.536 81.8621 370.843 82.6277 370.145 84.1642C370.072 84.3725 369.796 84.5131 369.515 84.5131Z" fill="#0D0B39"/>
<path d="M440.681 135.321C440.608 135.321 440.473 135.321 440.4 135.321C439.009 135.045 438.868 134.415 438.868 133.581C438.868 132.816 438.795 131.837 436.775 130.514C436.426 130.232 435.733 130.097 435.035 129.883C433.572 129.467 431.686 128.909 430.504 127.378C430.363 127.238 430.436 127.029 430.572 126.889C430.712 126.748 430.92 126.821 431.061 126.956C432.108 128.352 433.848 128.842 435.243 129.191C436.082 129.399 436.707 129.607 437.197 129.956C439.493 131.488 439.566 132.743 439.566 133.581C439.566 134.206 439.566 134.415 440.54 134.623C440.681 134.696 440.889 134.623 441.03 134.488C441.447 134.139 441.795 133.373 441.795 132.743C441.795 131.42 440.889 130.232 440.124 129.326C439.983 129.191 439.983 128.977 440.191 128.842C440.332 128.701 440.54 128.701 440.681 128.909C441.514 129.883 442.493 131.212 442.493 132.743C442.493 133.581 442.072 134.555 441.447 135.045C441.238 135.253 440.957 135.321 440.681 135.321Z" fill="#0D0B39"/>
<path d="M446.255 142.43C446.047 142.43 445.906 142.295 445.906 142.081C445.906 140.201 444.724 133.024 442.146 133.024C441.938 133.024 441.797 132.883 441.797 132.675C441.797 132.467 441.938 132.326 442.146 132.326C445.63 132.326 446.604 140.899 446.604 142.081C446.604 142.222 446.469 142.43 446.255 142.43Z" fill="#0D0B39"/>
<path d="M444.582 143.336C444.441 143.336 444.233 143.195 444.233 143.06C443.884 140.758 442.91 136.648 440.889 135.185C440.749 135.044 440.681 134.836 440.822 134.695C440.957 134.555 441.165 134.487 441.306 134.622C443.4 136.086 444.441 139.992 444.931 142.919C445.004 143.128 444.863 143.268 444.582 143.336C444.655 143.336 444.655 143.336 444.582 143.336Z" fill="#0D0B39"/>
<path d="M442.636 143.477C442.495 143.477 442.354 143.409 442.287 143.195C441.448 140.268 440.193 137.831 438.38 135.529C438.24 135.393 438.313 135.185 438.453 135.044C438.589 134.904 438.797 134.971 438.938 135.112C440.823 137.482 442.073 139.992 442.979 143.06C443.052 143.268 442.912 143.409 442.771 143.477C442.703 143.477 442.703 143.477 442.636 143.477Z" fill="#0D0B39"/>
<path d="M439.775 142.43C439.634 142.43 439.426 142.295 439.426 142.154C439.077 140.133 438.103 138.738 437.197 137.482C436.988 137.206 436.848 136.993 436.707 136.717C436.566 136.576 436.639 136.368 436.775 136.227C436.915 136.087 437.124 136.159 437.264 136.3C437.405 136.508 437.613 136.784 437.754 137.066C438.66 138.389 439.702 139.852 440.051 142.014C440.191 142.222 440.051 142.363 439.775 142.43C439.842 142.43 439.842 142.43 439.775 142.43Z" fill="#0D0B39"/>
<path d="M396.281 80.7474C396.214 80.7474 396.073 80.6745 396.005 80.6068C395.865 80.4661 395.932 80.2578 396.073 80.1172C396.839 79.4922 397.885 79.2109 399.208 79.2109C399.63 79.2109 400.115 79.2839 400.536 79.2839C400.953 79.2839 401.37 79.3516 401.719 79.3516C401.927 79.3516 402.068 79.4922 402.068 79.7005C402.068 79.9089 401.927 80.0495 401.719 80.0495C401.302 80.0495 400.953 80.0495 400.464 79.9818C400.047 79.9818 399.63 79.9089 399.208 79.9089C398.026 79.9089 397.12 80.1901 396.49 80.6745C396.49 80.6745 396.354 80.7474 396.281 80.7474Z" fill="#0D0B39"/>
<path d="M397.676 83.7422C397.603 83.7422 397.467 83.7422 397.395 83.6745C397.259 83.5339 397.259 83.3255 397.395 83.1849C398.092 82.487 398.931 82.2109 400.046 82.2109C400.952 82.2109 401.926 82.4193 402.624 82.6276C402.832 82.7005 402.905 82.8359 402.905 83.0443C402.832 83.2578 402.691 83.3255 402.483 83.3255C401.785 83.1172 400.879 82.9089 400.046 82.9089C399.139 82.9089 398.441 83.1849 397.952 83.7422C397.884 83.6745 397.816 83.7422 397.676 83.7422Z" fill="#0D0B39"/>
<path d="M402.692 86.2529H402.625C401.718 86.0446 400.744 85.8363 399.906 85.8363C399.348 85.8363 398.932 85.904 398.442 86.1123C398.234 86.1852 398.093 86.1123 398.026 85.904C397.953 85.6956 398.026 85.555 398.234 85.4873C398.791 85.279 399.281 85.2061 399.979 85.2061C400.88 85.2061 401.927 85.4144 402.833 85.6279C403.041 85.6956 403.114 85.8363 403.114 86.0446C403.041 86.1123 402.906 86.2529 402.692 86.2529Z" fill="#0D0B39"/>
<path d="M340.035 142.919C339.827 142.919 339.613 142.779 339.478 142.638C336.061 137.555 334.598 122.565 334.457 116.503C334.457 116.086 334.738 115.805 335.155 115.805C335.504 115.805 335.853 116.086 335.853 116.503C335.988 123.122 337.525 137.341 340.592 141.945C340.801 142.294 340.728 142.711 340.384 142.919C340.311 142.852 340.171 142.919 340.035 142.919Z" fill="#F7B668"/>
<path d="M410.849 118.383C410.5 118.383 410.151 118.107 410.151 117.69C410.083 115.878 410.016 114.065 409.943 112.253C409.734 107.513 409.594 102.701 409.594 97.9611C409.594 95.6642 409.594 93.3621 409.734 91.06C409.734 90.6433 410.083 90.3673 410.5 90.435C410.922 90.435 411.198 90.784 411.13 91.2006C410.99 93.4298 410.99 95.7319 410.99 97.9611C410.99 102.701 411.198 107.513 411.339 112.253C411.406 114.065 411.479 115.878 411.547 117.69C411.547 118.034 411.266 118.383 410.849 118.383Z" fill="#0D0B39"/>
<path d="M320.962 310.097C320.691 310.097 320.415 310.102 320.144 310.097C319.092 310.086 318.222 309.685 317.624 308.821C316.931 307.821 316.249 306.81 315.644 305.753C314.051 302.951 312.571 300.092 311.394 297.081C311.155 296.461 310.858 295.857 310.639 295.227C310.41 294.581 310.509 294.211 311.103 293.956C312.644 293.284 313.801 292.092 315.118 291.123C315.499 290.847 315.868 290.555 316.275 290.316C318.009 289.3 319.988 289.711 321.16 291.362C321.571 291.935 321.941 292.55 322.233 293.185C323.316 295.503 324.379 297.826 325.405 300.164C326.025 301.566 326.587 302.987 327.15 304.414C327.452 305.185 327.639 305.987 327.618 306.831C327.582 308.092 327.025 308.941 325.816 309.295C324.238 309.758 322.629 310.102 320.962 310.097Z" fill="#E6A486"/>
<path d="M330.323 316.191C327.734 316.123 325.151 316.102 322.568 315.967C321.125 315.894 319.687 315.649 318.255 315.441C317.838 315.378 317.417 315.217 317.036 315.019C316.057 314.519 315.5 313.727 315.479 312.576C315.463 311.717 315.396 310.852 315.338 309.993C315.255 308.665 315.609 307.42 316.036 306.196C316.323 305.352 316.922 304.785 317.807 304.639C320.104 304.259 322.281 303.477 324.469 302.727C324.838 302.602 325.219 302.488 325.594 302.384C326.364 302.175 327.151 302.134 327.911 302.41C328.906 302.769 329.901 303.134 330.87 303.555C332.489 304.253 334.083 305.019 335.708 305.712C336.573 306.081 337.463 306.384 338.364 306.665C339.588 307.05 340.245 307.92 340.437 309.134C340.698 310.774 340.396 312.352 339.687 313.842C339.286 314.691 338.599 315.29 337.672 315.524C336.88 315.727 336.068 315.868 335.255 315.998C333.854 316.222 332.443 316.154 331.031 316.16C330.792 316.16 330.557 316.16 330.323 316.16C330.323 316.17 330.323 316.18 330.323 316.191Z" fill="#7D8456"/>
<mask id="mask4_36_5554" style="mask-type:luminance" maskUnits="userSpaceOnUse" x="314" y="311" width="29" height="7">
<path d="M314.066 311.3H342.066V317.091H314.066V311.3Z" fill="white"/>
</mask>
<g mask="url(#mask4_36_5554)">
<path d="M324.494 316.654C322.811 316.654 321.124 316.644 319.441 316.654C318.374 316.659 317.327 316.508 316.29 316.289C314.967 316.003 314.264 315.17 314.155 313.826C314.098 313.065 314.374 312.717 315.124 312.649C315.395 312.628 315.671 312.638 315.947 312.638C317.551 312.633 319.165 312.722 320.764 312.612C323.582 312.43 326.41 312.529 329.217 312.347C330.978 312.227 332.744 312.269 334.494 312.097C335.785 311.967 337.072 311.894 338.363 311.935C339.061 311.951 339.77 312.055 340.452 312.206C341.238 312.383 341.587 313.055 341.384 313.836C341.061 315.081 340.202 315.904 338.921 316.013C337.051 316.175 335.165 316.201 333.296 316.388C330.363 316.68 327.431 316.659 324.494 316.654Z" fill="#382A22"/>
</g>
<path d="M334.062 307.696C333.681 307.738 333.39 307.483 333.437 307.207C333.577 306.347 333.895 305.555 334.442 304.868C334.603 304.67 334.9 304.634 335.077 304.774C335.27 304.93 335.405 305.144 335.312 305.389C335.062 306.045 334.801 306.701 334.499 307.332C334.416 307.514 334.166 307.618 334.062 307.696Z" fill="#382A22"/>
<path d="M329.922 306.06C329.547 306.07 329.208 305.727 329.318 305.445C329.615 304.669 330.01 303.945 330.734 303.482C330.859 303.399 331.125 303.44 331.271 303.524C331.495 303.643 331.604 303.919 331.469 304.133C331.073 304.758 330.63 305.352 330.188 305.951C330.13 306.029 329.979 306.034 329.922 306.06Z" fill="#382A22"/>
<path d="M208.666 284.024C208.682 285.144 208.255 286.06 207.572 286.857C207.197 287.3 206.765 287.711 206.317 288.092C204.551 289.592 202.854 291.159 201.239 292.821C200.505 293.581 199.827 294.399 199.077 295.144C198.666 295.56 198.187 295.915 197.697 296.232C196.921 296.743 196.114 296.722 195.432 296.076C194.098 294.805 192.656 293.639 191.598 292.107C191.27 291.628 191.025 291.081 190.786 290.55C190.218 289.305 190.505 288.159 191.291 287.123C192.104 286.06 192.906 284.993 193.791 283.998C195.15 282.477 196.562 281.003 197.973 279.534C198.88 278.597 199.906 277.831 201.088 277.264C201.885 276.878 202.583 276.873 203.27 277.435C204.874 278.764 206.458 280.118 207.833 281.685C208.416 282.352 208.755 283.144 208.666 284.024Z" fill="#E6A486"/>
<path d="M192.618 284.425C193.077 284.456 193.358 284.649 193.618 285.003C195.144 287.076 196.926 288.894 198.92 290.503C199.197 290.722 199.462 290.961 199.702 291.222C200.129 291.69 200.598 292.097 201.144 292.42C201.311 292.519 201.467 292.638 201.629 292.758C202.483 293.388 202.759 294.227 202.504 295.253C202.353 295.862 202.238 296.487 202.019 297.076C201.374 298.795 201.53 300.565 201.691 302.326C201.863 304.216 202.447 306.008 203.228 307.743C203.707 308.815 204.113 309.93 204.467 311.055C205.202 313.383 204.212 314.06 202.858 314.8C201.712 315.425 200.577 315.357 199.519 314.638C198.644 314.05 197.759 313.435 197.019 312.69C195.447 311.102 193.941 309.44 192.452 307.774C191.009 306.164 189.598 304.524 188.212 302.873C187.228 301.696 186.249 300.513 185.363 299.263C184.223 297.649 183.915 295.831 184.29 293.873C184.618 292.154 185.493 290.737 186.504 289.368C187.879 287.503 189.598 286.034 191.53 284.8C191.848 284.597 192.249 284.545 192.618 284.425Z" fill="#7D8456"/>
<mask id="mask5_36_5554" style="mask-type:luminance" maskUnits="userSpaceOnUse" x="182" y="292" width="22" height="26">
<path d="M182.051 292.815H203.926V317.091H182.051V292.815Z" fill="white"/>
</mask>
<g mask="url(#mask5_36_5554)">
<path d="M182.051 294.935C182.176 294.597 182.311 294.06 182.556 293.581C182.806 293.097 183.467 292.987 183.884 293.336C184.207 293.612 184.499 293.946 184.754 294.295C186.171 296.274 187.681 298.185 189.28 300.024C190.077 300.946 190.884 301.857 191.707 302.753C192.895 304.06 194.108 305.352 195.296 306.659C195.905 307.331 196.488 308.019 197.072 308.711C198.65 310.576 200.353 312.31 202.134 313.977C202.561 314.378 202.983 314.8 203.358 315.253C203.806 315.789 203.676 316.263 203.04 316.576C202.868 316.664 202.665 316.696 202.493 316.789C201.525 317.31 200.728 317.196 200.02 316.279C199.691 315.857 199.186 315.565 198.733 315.258C197.431 314.368 196.233 313.357 195.139 312.222C194.587 311.659 194.02 311.118 193.467 310.56C191.134 308.217 189.02 305.69 187.113 302.987C186.863 302.633 186.577 302.31 186.301 301.977C184.993 300.404 183.702 298.821 182.723 297.013C182.4 296.425 182.108 295.826 182.051 294.935Z" fill="#382A22"/>
</g>
<path d="M201.984 299.149C202.031 299.545 201.698 299.904 201.401 299.826C200.531 299.597 199.661 299.357 198.927 298.789C198.838 298.716 198.729 298.628 198.703 298.529C198.661 298.357 198.604 298.123 198.687 297.998C198.776 297.868 199.01 297.774 199.182 297.769C199.364 297.769 199.547 297.894 199.729 297.966C200.343 298.216 200.968 298.446 201.567 298.732C201.76 298.821 201.885 299.045 201.984 299.149Z" fill="#382A22"/>
<path d="M200.479 303.185C200.13 303.185 199.776 303.221 199.432 303.175C199.213 303.149 199 303.018 198.807 302.899C198.619 302.784 198.609 302.419 198.791 302.284C198.942 302.169 199.125 302.044 199.296 302.034C200 302.008 200.697 302.018 201.395 302.029C201.51 302.029 201.625 302.07 201.729 302.122C201.958 302.237 202.072 302.43 202.062 302.69C202.046 302.951 201.89 303.138 201.64 303.175C201.255 303.227 200.869 303.227 200.484 303.247C200.479 303.227 200.479 303.206 200.479 303.185Z" fill="#382A22"/>
<mask id="mask6_36_5554" style="mask-type:luminance" maskUnits="userSpaceOnUse" x="191" y="12" width="108" height="120">
<path d="M191.4 12.3623H298.067V131.3H191.4V12.3623Z" fill="white"/>
</mask>
<g mask="url(#mask6_36_5554)">
<path d="M221.234 120.123C220.619 120.493 220.281 121.071 219.942 121.628C219.182 122.888 218.775 124.284 218.531 125.727C218.421 126.347 218.338 126.972 218.27 127.597C218.223 128.039 217.999 128.321 217.588 128.461C217.229 128.581 216.973 128.399 216.749 128.17C215.958 127.352 215.14 126.55 214.4 125.685C212.452 123.404 210.88 120.873 209.588 118.159C209.265 117.487 208.979 116.795 208.676 116.112C208.614 115.982 208.531 115.857 208.411 115.633C208.265 115.81 208.15 115.904 208.088 116.029C207.635 116.982 207.208 117.94 206.984 118.998C206.702 120.336 206.265 121.649 205.89 122.972C205.848 123.123 205.801 123.274 205.739 123.414C205.374 124.19 204.723 124.383 204.005 123.883C203.124 123.274 202.416 122.482 201.729 121.67C201.432 121.315 201.072 121.008 200.76 120.664C200.447 120.315 200.114 119.972 199.869 119.576C198.775 117.805 197.791 115.972 197.02 114.024C196.452 112.597 195.932 111.159 195.588 109.659C195.525 109.404 195.416 109.159 195.307 108.847C194.911 109.102 194.744 109.461 194.577 109.805C194.255 110.477 193.973 111.17 193.656 111.847C193.525 112.128 193.369 112.409 193.171 112.638C192.963 112.894 192.51 112.831 192.38 112.529C192.239 112.211 192.13 111.862 192.088 111.524C191.89 109.842 191.671 108.164 191.551 106.482C191.458 105.227 191.452 103.967 191.505 102.706C191.557 101.414 191.676 100.118 191.838 98.8311C192.223 95.8259 192.791 92.8571 193.942 90.0342C195.109 87.1696 196.708 84.5707 198.572 82.1175C199.546 80.8363 200.505 79.5394 201.458 78.2425C201.827 77.7373 202.166 77.2113 202.333 76.5967C202.077 76.4144 201.947 76.6384 201.812 76.7269C200.609 77.5446 199.416 78.3728 198.223 79.1957C197.932 79.3936 197.635 79.5967 197.322 79.753C197.119 79.8623 196.885 79.93 196.656 79.9509C196.229 79.9821 195.885 79.6228 195.947 79.2061C195.984 78.9405 196.062 78.6644 196.187 78.4248C196.926 76.9509 197.614 75.4405 198.447 74.0186C199.88 71.5759 201.567 69.2946 203.432 67.1592C204.671 65.7425 206.036 64.43 207.369 63.0967C209.671 60.7894 211.994 58.503 214.307 56.2009C214.583 55.9248 214.833 55.628 215.083 55.3519C214.916 55.0655 214.729 55.1905 214.557 55.2321C213.374 55.4978 212.197 55.805 211.01 56.0238C210.437 56.1332 209.838 56.0863 209.249 56.0967C209.135 56.1019 209.01 56.0811 208.9 56.0446C208.494 55.8988 208.046 55.7894 207.947 55.279C207.848 54.753 208.213 54.4821 208.604 54.2738C209.051 54.0342 209.505 53.7998 209.984 53.6228C211.452 53.0707 212.926 52.5394 214.406 52.0186C217.89 50.7946 221.281 49.3675 224.598 47.7373C226.958 46.5811 229.281 45.3571 231.536 43.9925C233.416 42.8571 235.223 41.6123 236.989 40.2946C238.499 39.1696 239.994 38.029 241.437 36.8155C242.999 35.503 244.577 34.2061 246.13 32.8832C247.895 31.3832 249.64 29.8571 251.395 28.3467C252.614 27.2946 253.807 26.2165 255.051 25.2009C256.692 23.8623 258.364 22.555 260.046 21.2686C261.885 19.8623 263.801 18.5603 265.817 17.4092C269.135 15.5082 272.572 13.904 276.301 13.003C277.176 12.7894 278.072 12.6905 278.963 12.5655C280.176 12.3936 281.38 12.3675 282.598 12.3623C284.093 12.3571 285.562 12.5707 287.02 12.8988C287.551 13.0186 288.067 13.2165 288.588 13.3936C289.14 13.5863 289.692 13.7998 290.244 13.9978C291.171 14.3259 292.031 14.7842 292.833 15.3728C293.749 16.0446 294.63 16.7321 295.343 17.654C296.343 18.93 296.895 20.3623 297.218 21.9248C297.437 22.9717 297.489 24.0238 297.468 25.0915C297.447 26.1905 297.499 27.2946 297.432 28.3936C297.338 29.9248 297.156 31.4457 297.01 32.9717C297.01 33.0082 296.999 33.0446 296.999 33.0863C296.911 35.6019 296.572 38.1071 296.739 40.6228C296.812 41.7582 297.005 42.8832 297.109 44.0186C297.176 44.7582 297.208 45.5082 297.213 46.253C297.244 49.0707 296.744 51.7998 295.786 54.4509C295.327 55.7165 294.666 56.8832 293.921 57.9873C293.02 59.3207 292.088 60.6384 291.104 61.9092C288.926 64.7113 286.999 67.6696 285.281 70.7738C284.218 72.6957 283.109 74.6019 282.161 76.5863C280.76 79.5394 279.749 82.6436 278.827 85.779C277.76 89.3936 276.801 93.0446 275.729 96.6592C275.145 98.6123 274.546 100.571 273.63 102.409C272.619 104.43 271.338 106.253 269.838 107.935C269.161 108.696 268.52 109.503 267.781 110.201C266.244 111.664 264.671 113.081 263.093 114.493C261.359 116.034 259.64 117.586 257.854 119.06C255.583 120.935 253.255 122.737 250.942 124.555C250.354 125.019 249.729 125.425 249.119 125.852C248.926 125.987 248.729 126.118 248.525 126.237C247.4 126.914 246.812 126.847 245.952 125.654C245.661 125.253 245.51 124.737 245.301 124.274C245.171 123.987 245.088 123.675 244.911 123.425C244.827 123.305 244.567 123.222 244.411 123.253C244.192 123.3 243.994 123.456 243.796 123.581C241.702 124.899 239.614 126.222 237.52 127.539C236.624 128.102 235.723 128.659 234.822 129.217C234.156 129.628 233.484 130.039 232.817 130.451C232.619 130.571 232.421 130.706 232.208 130.805C231.687 131.039 231.15 130.789 231.031 130.227C230.963 129.92 230.968 129.602 230.963 129.289C230.947 128.217 231.182 127.18 231.369 126.138C231.406 125.951 231.432 125.769 231.499 125.357C231.223 125.638 231.083 125.753 230.979 125.888C230.531 126.487 230.093 127.092 229.645 127.69C229.458 127.94 229.27 128.196 229.051 128.42C228.109 129.362 226.942 129.399 226.098 128.347C225.781 127.946 225.484 127.529 225.192 127.112C223.958 125.373 223.051 123.451 222.114 121.545C221.874 121.06 221.692 120.529 221.234 120.123Z" fill="#7B514B"/>
</g>
<path d="M288.395 60.6803C288.28 62.0085 288.119 63.3366 287.973 64.6647C287.759 66.5397 287.577 68.4199 287.322 70.2897C286.989 72.7428 286.541 75.1751 285.853 77.5553C285.4 79.1074 284.895 80.6387 284.114 82.0605C283.739 82.748 283.301 83.3991 282.671 83.8991C281.817 84.5762 280.89 84.6439 279.9 84.2793C279.338 84.071 278.879 83.7012 278.447 83.2949C277.176 82.1074 276.166 80.7064 275.259 79.2272C274.364 77.7845 273.671 76.2533 272.973 74.7116C271.608 71.696 270.463 68.6022 269.358 65.4928C268.801 63.9355 268.4 62.3418 268.369 60.6647C268.338 59.3887 268.77 58.3835 269.765 57.5762C270.556 56.9355 271.306 56.2376 272.015 55.5033C273.108 54.3783 273.697 52.9564 274.114 51.4668C274.124 51.4199 274.14 51.373 274.15 51.3262C275.952 51.9303 277.827 52.1908 279.749 52.1439C280.739 52.123 281.655 51.9355 282.499 51.6022C282.936 52.6126 283.645 53.4408 284.577 54.0866C285.16 54.4876 285.77 54.8522 286.348 55.2533C286.733 55.5241 287.114 55.8053 287.452 56.123C288.114 56.748 288.452 57.5345 288.457 58.4408C288.463 59.1855 288.457 59.9355 288.395 60.6803Z" fill="#F7B668"/>
<path d="M282.499 51.6018C281.656 51.9351 280.739 52.1226 279.749 52.1435C277.827 52.1903 275.952 51.9299 274.15 51.3258C274.557 49.8101 274.645 48.2424 274.713 46.6799C274.744 46.0914 274.723 45.4976 274.739 44.9091C274.749 44.5445 274.864 44.2164 275.156 43.9716C275.52 43.6695 276.077 43.831 276.192 44.2841C276.249 44.5133 276.244 44.7528 276.249 44.9872C276.26 45.2945 276.255 45.5966 276.255 46.0705C277.119 45.357 278.031 45.1278 278.926 44.883C279.114 44.831 279.307 44.7685 279.499 44.7424C280.317 44.6383 280.911 44.9455 281.135 45.7476C281.369 46.5705 281.468 47.4403 281.645 48.2841C281.833 49.1643 281.999 50.0549 282.255 50.9195C282.322 51.1539 282.406 51.3831 282.499 51.6018Z" fill="#C46E5B"/>
<path d="M241.354 170.18C241.229 170.352 241.141 170.466 241.057 170.586C240.495 171.404 239.922 171.628 239.057 171.247C238.526 171.018 238.047 170.654 237.573 170.315C237.287 170.112 237.057 169.836 236.776 169.57C236.578 169.753 236.412 169.914 236.24 170.076C235.708 170.565 235.109 170.586 234.49 170.299C233.917 170.034 233.427 169.643 233.031 169.143C232.089 167.951 231.49 166.586 230.943 165.19C230.302 163.539 229.953 161.794 229.563 160.07C229.271 158.768 228.979 157.461 228.75 156.143C228.599 155.294 228.537 154.43 228.458 153.57C228.302 151.898 227.714 150.352 227.047 148.841C226.162 146.826 225.203 144.841 224.313 142.826C223.787 141.643 223.302 140.44 222.859 139.221C221.953 136.742 221.068 134.263 220.219 131.768C219.547 129.794 218.958 127.794 218.635 125.727C218.297 123.591 217.953 121.461 218.005 119.279C218.047 117.555 218.391 115.951 219.193 114.404C220.297 112.268 221.583 110.247 222.938 108.268C223.938 106.81 225.026 105.409 225.953 103.904C226.88 102.404 228.25 101.94 229.854 101.977C231.453 102.008 232.932 102.471 234.245 103.445C235.729 104.555 237.068 105.82 238.287 107.211C238.891 107.898 239.38 108.654 239.75 109.487C240.162 110.398 240.172 111.294 239.781 112.227C239.219 113.581 238.406 114.789 237.625 116.008C236.88 117.169 236.219 118.372 235.594 119.602C234.583 121.581 234.224 123.68 234.276 125.883C234.313 127.31 234.63 128.685 234.87 130.081C235.375 132.992 236.12 135.852 237.146 138.622C237.734 140.206 238.391 141.768 239.057 143.32C239.583 144.549 240.172 145.747 240.724 146.966C240.99 147.549 241.339 148.049 241.875 148.424C242.708 149.013 243.521 149.638 244.333 150.253C245.537 151.164 246.448 152.346 247.328 153.555C247.578 153.898 247.76 154.31 247.891 154.721C248.307 156.034 247.573 157.112 246.193 157.19C245.693 157.216 245.193 157.112 244.688 157.065C244.469 157.357 244.693 157.602 244.776 157.836C245.151 158.872 245.589 159.883 245.932 160.93C246.188 161.711 246.344 162.523 246.516 163.331C246.578 163.638 246.568 163.961 246.557 164.273C246.521 165.299 246.151 165.674 245.13 165.742C244.979 165.758 244.823 165.747 244.662 165.747C244.438 166.091 244.662 166.388 244.682 166.68C244.703 166.992 244.776 167.305 244.802 167.612C244.859 168.242 244.927 168.867 244.938 169.492C244.943 169.799 244.87 170.122 244.771 170.414C244.443 171.346 243.693 171.664 242.802 171.247C242.521 171.117 242.276 170.904 242.026 170.716C241.813 170.56 241.615 170.388 241.354 170.18Z" fill="#F7B668"/>
<path d="M292.884 100.279C292.837 98.5553 292.936 96.7585 293.332 94.9772C293.717 93.2376 294.582 91.7585 295.655 90.3835C295.774 90.2324 295.92 90.0918 296.066 89.9668C297.811 88.472 299.795 87.5241 302.076 87.2012C302.618 87.123 303.16 87.0293 303.707 86.9824C304.014 86.9512 304.337 86.9668 304.639 87.0293C305.061 87.1074 305.394 87.5137 305.254 87.8887C304.853 88.9512 305.212 89.9928 305.295 91.0293C305.42 92.6335 305.686 94.2272 305.879 95.8262C306.441 100.477 307.425 105.05 308.644 109.571C308.728 109.873 308.832 110.17 308.92 110.472C309.212 111.451 309.79 112.227 310.597 112.831C311.451 113.467 312.332 114.055 313.342 114.41C315.306 115.097 317.264 115.79 319.233 116.462C321.899 117.368 324.587 118.248 327.259 119.16C329.931 120.066 332.592 120.993 335.264 121.915C335.743 122.081 336.233 122.232 336.701 122.436C337.931 122.967 338.743 123.883 339.061 125.196C339.3 126.186 339.53 127.186 339.675 128.196C339.92 129.826 340.092 131.467 340.274 133.107C340.321 133.535 340.326 133.977 340.28 134.404C340.16 135.467 339.649 135.946 338.582 135.962C337.097 135.982 335.608 135.977 334.123 135.769C331.446 135.389 328.759 135.092 326.082 134.727C324.181 134.467 322.285 134.165 320.389 133.863C318.337 133.54 316.28 133.232 314.238 132.868C311.686 132.41 309.175 131.779 306.78 130.764C304.603 129.831 302.582 128.639 300.873 126.967C299.915 126.029 299.092 124.988 298.42 123.816C297.129 121.545 296.207 119.128 295.498 116.623C294.785 114.087 294.129 111.535 293.738 108.925C293.321 106.087 292.826 103.253 292.884 100.279Z" fill="#F7B668"/>
<path d="M266.817 32.1641C266.937 32.0287 267.025 31.9766 267.036 31.9089C267.229 30.9714 267.89 30.5547 268.744 30.3307C269.307 30.1849 269.88 30.0287 270.442 29.8724C271.354 29.6224 272.223 29.2682 273.01 28.7318C274.703 27.5912 276.354 26.4037 277.739 24.8724C278.583 23.9401 278.999 23.9714 279.874 24.8307C280.687 25.6276 281.489 26.4349 282.343 27.1849C284.677 29.237 287.468 30.3255 290.458 30.9714C290.958 31.0807 291.463 31.1745 291.942 31.3412C292.723 31.6016 292.979 32.0599 292.828 32.888C292.744 33.3516 292.609 33.7995 292.494 34.2578C291.859 36.862 291.031 39.3932 289.749 41.763C288.656 43.7787 287.468 45.7057 285.817 47.3255C284.27 48.8464 282.453 49.6953 280.255 49.7474C278.109 49.7943 276.025 49.4714 274.031 48.7057C271.713 47.8255 269.942 46.2839 268.765 44.0599C267.895 42.4089 267.333 40.6641 266.999 38.8359C266.916 38.4141 266.828 37.9974 266.734 37.5443C266.406 37.5026 266.14 37.4714 265.88 37.4349C265.025 37.3307 264.161 37.2682 263.322 37.1016C262.791 36.9974 262.26 36.7839 261.791 36.5182C260.312 35.6641 260.385 33.9453 261.666 33.0234C262.416 32.487 263.275 32.2057 264.197 32.1745C264.864 32.1484 265.531 32.1641 266.197 32.1641C266.427 32.1641 266.656 32.1641 266.817 32.1641Z" fill="#F7B668"/>
<path d="M294.447 135.242C294.593 137.018 294.676 138.789 294.557 140.549C294.343 143.695 294.52 146.846 294.333 149.987C293.999 155.612 294.244 161.237 294.166 166.867C294.156 167.805 294.328 168.747 294.317 169.69C294.291 171.539 294.213 173.383 294.13 175.232C294.051 176.919 293.968 178.607 293.848 180.289C293.713 182.091 293.541 183.888 293.359 185.685C293.265 186.622 293.114 187.555 292.979 188.487C292.749 190.081 292.515 191.674 292.27 193.268C292.057 194.664 291.828 196.055 291.619 197.456C291.416 198.81 291.234 200.174 291.046 201.534C290.828 203.091 290.64 204.648 290.39 206.2C290.015 208.523 289.588 210.841 289.192 213.164C288.426 217.659 287.437 222.112 286.078 226.461C284.624 231.112 283.01 235.726 280.786 240.081C280.286 241.065 279.807 242.06 279.296 243.039C278.807 243.982 278.291 244.898 277.697 245.779C276.291 247.867 274.723 249.831 273.088 251.742C272.682 252.221 272.27 252.695 271.854 253.174C269.781 255.544 267.458 257.659 265.098 259.737C264.098 260.617 263.124 261.534 262.14 262.435C260.317 264.112 258.39 265.659 256.406 267.138C254.078 268.872 251.749 270.612 249.4 272.325C248.416 273.044 247.416 273.732 246.38 274.372C243.166 276.346 239.963 278.325 236.713 280.232C231.77 283.133 226.791 285.971 221.828 288.831C220.322 289.69 218.76 290.414 217.13 291.003C215.635 291.549 214.13 291.57 212.624 291.112C211.119 290.654 209.687 290.003 208.296 289.279C207.286 288.753 206.317 288.159 205.333 287.581C204.072 286.841 202.963 285.909 201.874 284.94C200.109 283.372 198.52 281.628 196.999 279.82C195.926 278.544 195.161 277.081 194.822 275.424C194.421 273.461 194.598 271.555 195.786 269.898C196.729 268.591 197.76 267.346 198.859 266.174C199.906 265.06 201.088 264.075 202.208 263.034C202.468 262.794 202.734 262.56 202.994 262.315C204.926 260.471 206.838 258.612 208.791 256.784C210.223 255.44 211.703 254.148 213.161 252.836C213.249 252.758 213.338 252.674 213.421 252.591C215.947 250.174 218.473 247.758 220.999 245.341C222.39 244.008 223.781 242.68 225.182 241.357C227.89 238.789 230.562 236.185 233.333 233.685C236.864 230.497 240.187 227.096 243.635 223.825C246.119 221.471 248.479 218.997 250.734 216.424C252.604 214.289 254.296 212.034 255.562 209.476C256.708 207.138 257.598 204.706 258.036 202.122C258.338 200.346 258.671 198.57 258.916 196.779C258.932 196.664 258.947 196.549 258.963 196.435C259.15 194.956 259.197 193.456 259.291 191.966C259.348 191.023 259.395 190.081 259.421 189.138V189.128C259.458 187.674 259.473 186.221 259.505 184.768C259.578 180.956 259.645 177.138 259.729 173.32C259.765 171.711 259.812 170.101 259.916 168.492C260.015 166.883 260.197 165.279 260.338 163.674C260.442 162.461 260.531 161.247 260.645 160.039C260.77 158.628 260.916 157.226 261.046 155.815C261.072 155.581 261.088 155.346 261.104 155.112C261.296 151.695 261.494 148.273 261.39 144.851C261.317 142.367 261.614 139.898 261.609 137.419C261.604 136.081 261.744 134.747 261.916 133.43C262.041 132.419 262.265 131.398 262.619 130.456C263.14 129.081 264.218 128.143 265.442 127.383C267.359 126.2 269.4 125.299 271.562 124.68C273.176 124.216 274.807 123.789 276.442 123.372C277.505 123.096 278.598 123.013 279.682 122.857C281.015 122.664 282.343 122.633 283.671 122.674C285.473 122.726 287.26 122.971 289.005 123.43C289.76 123.628 290.479 123.956 291.301 124.253C291.926 124.055 292.52 123.799 293.161 124.029C293.473 124.138 293.666 123.883 293.911 123.779C294.197 123.664 294.494 123.815 294.557 124.096C294.598 124.284 294.588 124.487 294.624 124.68C294.843 125.82 294.65 126.924 294.458 128.049C294.348 128.659 294.39 129.305 294.39 129.935C294.39 131.7 294.307 133.482 294.447 135.242Z" fill="#93C2CC"/>
<path d="M279.296 243.039C278.807 243.982 278.291 244.899 277.697 245.779C276.291 247.868 274.723 249.831 273.088 251.743C273.015 251.628 272.947 251.508 272.89 251.373C272.489 250.477 272.093 249.576 271.801 248.638C271.343 247.18 270.963 245.696 270.567 244.216C269.942 241.899 269.307 239.591 268.723 237.269C267.874 233.878 267.072 230.472 266.234 227.076C265.359 223.529 264.463 219.987 263.588 216.44C263.062 214.305 262.562 212.164 262.041 210.029C261.239 206.706 260.385 203.399 259.619 200.071C259.374 198.977 259.135 197.883 258.916 196.779C258.932 196.664 258.947 196.55 258.963 196.435C259.15 194.956 259.197 193.456 259.291 191.966C259.348 191.024 259.395 190.081 259.421 189.138V189.128C259.702 189.425 259.942 189.758 260.114 190.144C260.421 190.821 260.729 191.503 261.025 192.185C261.489 193.232 261.947 194.274 262.39 195.326C262.952 196.664 263.52 198.003 264.046 199.357C265.072 201.998 266.005 204.67 267.093 207.279C269.807 213.784 272.067 220.446 274.468 227.065C275.135 228.914 275.854 230.743 276.505 232.597C277.609 235.753 278.484 238.977 279.14 242.253C279.197 242.513 279.244 242.779 279.296 243.039Z" fill="#8AB2BC"/>
<path d="M267.625 125.524C269.192 125.524 270.771 125.415 272.333 125.55C275.854 125.847 279.385 125.654 282.911 125.779C283.614 125.8 284.317 125.92 285 126.097C285.864 126.321 286.416 126.941 286.557 127.831C286.703 128.722 286.765 129.623 286.854 130.524C287 131.93 287.14 133.337 287.271 134.743C287.375 135.878 287.453 137.014 287.573 138.149C287.724 139.592 287.89 141.04 288.099 142.477C288.338 144.191 288.63 145.894 288.896 147.597C289.385 150.701 290.021 153.774 290.765 156.826C291.458 159.691 292.021 162.587 292.76 165.436C294.146 170.795 295.494 176.17 297.198 181.446C298.14 184.363 298.994 187.311 299.927 190.227C300.739 192.774 301.614 195.3 302.468 197.837C303.146 199.847 303.849 201.847 304.505 203.868C305.494 206.93 306.396 210.029 307.453 213.071C308.88 217.196 310.036 221.404 311.276 225.587C313.323 232.519 315.224 239.493 317.276 246.425C318.432 250.342 319.573 254.269 320.958 258.118C321.463 259.524 321.875 260.962 322.312 262.389C323.005 264.644 323.713 266.894 324.349 269.165C324.786 270.712 325.125 272.285 325.479 273.852C325.906 275.727 326.317 277.607 326.698 279.498C326.948 280.727 327.119 281.972 327.349 283.206C327.552 284.285 327.744 285.368 328.021 286.43C328.422 287.956 328.729 289.498 328.901 291.061C329.073 292.566 328.708 293.941 327.578 295.055C326.224 296.389 324.708 297.514 323.062 298.43C320.323 299.967 317.536 301.42 314.755 302.868C313.39 303.576 311.932 304.071 310.406 304.264C308.479 304.503 306.562 304.43 304.734 303.675C303.588 303.201 302.593 302.519 301.885 301.477C301.463 300.863 301.005 300.264 300.666 299.602C299.609 297.54 298.588 295.456 297.573 293.368C295.109 288.311 293.041 283.081 290.823 277.915C289.692 275.279 288.744 272.566 287.703 269.894C287.021 268.134 286.307 266.389 285.63 264.628C284.776 262.384 283.937 260.139 283.104 257.889C281.953 254.795 280.791 251.701 279.682 248.592C278.088 244.113 276.547 239.613 274.968 235.123C272.984 229.488 270.979 223.863 269.005 218.222C267.692 214.472 266.422 210.712 265.13 206.956C263.979 203.613 262.812 200.274 261.682 196.92C261.156 195.357 260.698 193.769 260.218 192.191C259.422 189.602 258.625 187.009 257.849 184.41C255.791 177.524 253.849 170.602 252.104 163.623C251.343 160.571 250.718 157.498 250.218 154.394C249.885 152.337 249.515 150.29 249.218 148.232C249.047 147.024 249.047 145.8 248.869 144.597C248.536 142.321 248.708 140.035 248.666 137.759C248.651 136.774 248.718 135.8 248.823 134.821C248.958 133.529 248.989 132.232 249.166 130.946C249.25 130.326 249.343 129.701 249.448 129.081C249.515 128.696 249.755 128.462 250.146 128.384C251.771 128.071 253.323 127.545 254.859 126.946C256.734 126.206 258.687 125.894 260.692 125.706C263.005 125.488 265.317 125.555 267.625 125.524Z" fill="#B8DBE4"/>
<path d="M306.145 88.0856C306.004 88.7731 305.686 89.3408 305.166 89.7887C304.785 90.1221 304.374 90.4293 303.952 90.7054C303.259 91.1585 302.551 91.5804 301.853 92.0179C301.442 92.2835 301.15 92.6064 301.093 93.1429C301.03 93.7679 300.905 94.3825 300.759 94.9971C299.822 98.8929 298.869 102.784 297.926 106.679C297.759 107.367 297.608 108.054 297.504 108.757C297.379 109.648 297.306 110.549 297.207 111.445C297.072 112.653 296.926 113.862 296.791 115.07C296.77 115.268 296.749 115.466 296.754 115.659C296.806 117.435 296.608 119.195 296.442 120.955C296.291 122.554 296.041 124.153 295.593 125.705C295.546 125.856 295.483 126.002 295.436 126.153C295.041 127.455 294.202 128.237 292.89 128.685C290.655 129.435 288.421 130.174 286.108 130.612C284.723 130.872 283.322 131.023 281.931 131.226C280.999 131.356 280.067 131.497 279.14 131.606C278.051 131.742 276.962 131.862 275.869 131.971C274.78 132.075 273.681 132.127 272.593 132.263C270.02 132.596 267.436 132.711 264.843 132.664C262.765 132.632 260.686 132.627 258.608 132.56C256.608 132.487 254.614 132.315 252.619 132.247C251.082 132.195 249.572 132.007 248.077 131.7C247.624 131.612 247.181 131.419 246.765 131.211C246.582 131.117 246.426 130.997 246.317 130.851C246.749 131.002 247.223 131.054 247.681 131.013C248.145 130.976 248.483 130.784 248.718 130.362C249.337 129.284 249.666 128.148 249.666 126.882C249.66 125.466 248.447 127.216 246.931 126.711C246.749 125.794 249.171 126.731 249.067 125.825C249.186 125.096 250.093 120.247 250.202 119.513C250.442 117.851 250.64 116.523 250.827 114.846C250.973 113.56 250.582 112.096 250.702 110.81C250.822 109.518 250.822 108.31 250.952 107.023C250.978 106.789 251.311 105.367 251.332 105.127C251.41 104.268 251.39 101.825 251.457 100.966C251.478 100.737 249.358 102.377 249.358 101.924C249.348 101.945 249.332 101.966 249.317 101.992C249.114 102.278 249.009 102.414 248.921 102.56C247.989 104.065 247.077 105.57 246.15 107.075C245.509 108.112 244.858 109.153 244.197 110.185C243.504 111.273 242.666 112.268 241.879 113.299C241.619 113.643 241.343 113.976 241.056 114.299C240.712 114.674 240.374 115.065 239.983 115.382C239.16 116.054 238.291 116.252 237.27 115.711C235.52 114.799 233.827 113.825 232.228 112.679C230.884 111.721 229.587 110.695 228.249 109.742C227.077 108.909 226.14 107.851 225.311 106.705C224.577 105.685 223.926 104.606 223.239 103.554C223.171 103.455 223.124 103.346 223.067 103.242C222.494 102.195 222.577 101.205 223.364 100.299C224.056 99.4919 224.749 98.6898 225.468 97.9085C226.884 96.3825 228.353 94.8981 229.728 93.3356C230.718 92.221 231.64 91.0439 232.504 89.8252C234.228 87.3929 235.952 84.9502 237.567 82.4346C238.754 80.5856 239.749 78.6116 240.837 76.7002C241.634 75.2991 242.421 73.8929 243.244 72.5075C243.832 71.5335 244.473 70.5908 245.093 69.6325C245.806 68.5179 246.785 67.6793 247.874 66.9502C249.64 65.7731 251.452 64.6846 253.436 63.9033C254.061 63.6637 254.634 63.3096 255.249 63.0387C256.462 62.5075 257.692 61.9762 258.921 61.4762C260.087 61.0023 261.249 60.5231 262.442 60.1273C264.489 59.4502 266.494 58.6637 268.452 57.7575C268.916 57.5439 269.374 57.32 269.837 57.1116C270.015 57.0335 270.202 56.9554 270.39 56.9241C270.754 56.8616 270.921 57.3929 271.015 57.6533C271.176 58.1012 271.306 58.5543 271.426 59.0127C271.65 59.8616 271.843 60.7262 272.186 61.5387C272.541 62.3721 272.723 63.3096 272.999 64.1741C273.744 66.5075 274.515 68.8356 275.489 71.0856C275.801 71.8148 276.14 72.5335 276.499 73.2366C277.462 75.1116 278.926 76.6325 280.296 78.2054C280.587 78.5439 281.53 79.3877 281.749 78.5752C282.421 76.1168 282.64 73.5439 283.02 71.0283C283.369 68.6325 283.791 66.2366 284.207 63.8408C284.478 62.2939 284.676 60.7314 284.843 59.1689C284.931 58.3721 285.009 57.5804 285.087 56.7835C285.145 56.1846 285.072 55.2314 285.462 54.7262C285.916 54.1377 287.025 54.8252 287.561 54.9866C289.629 55.6116 291.759 56.0075 293.9 56.2679C295.452 56.4606 296.994 56.7523 298.546 56.9554C299.119 57.0335 299.468 57.2887 299.697 57.8096C300.681 60.0387 301.567 62.2991 302.27 64.6429C303.197 67.7314 304.093 70.8252 304.817 73.9658C305.285 75.9918 305.676 78.0387 305.89 80.1116C305.983 81.0491 306.197 81.9762 306.259 82.9137C306.379 84.6377 306.499 86.3668 306.145 88.0856Z" fill="#E77365"/>
<path d="M249.667 126.883C249.667 128.149 249.339 129.284 248.719 130.362C248.484 130.784 248.146 130.977 247.682 131.013C247.224 131.055 246.75 131.003 246.318 130.852C246.151 130.638 246.068 130.373 246.073 130.065C246.073 129.711 246.036 129.347 246.089 129.003C246.391 126.904 246.594 124.789 247.042 122.716C247.156 122.17 247.255 121.628 247.344 121.081C247.448 121.987 247.651 122.878 247.828 123.795C249.349 124.3 249.661 125.466 249.667 126.883Z" fill="#E77365"/>
<path d="M278.437 15.3984C279.01 15.4453 279.365 15.4453 279.713 15.5078C279.99 15.5599 280.198 15.737 280.286 16.0339C280.37 16.3151 280.193 16.6276 279.917 16.6536C279.802 16.6641 279.667 16.6849 279.568 16.6484C278.979 16.4297 278.401 16.5807 277.828 16.6901C276.505 16.9401 275.271 17.4609 274.052 17.9974C271.161 19.2578 268.469 20.8776 266.031 22.888C264.458 24.1849 262.917 25.5286 261.453 26.9505C259.677 28.6745 258.031 30.5286 256.276 32.2734C254.38 34.1589 252.463 36.0182 250.495 37.8255C248.354 39.7943 246.042 41.5495 243.656 43.2161C240.016 45.7526 236.328 48.2214 232.479 50.4401C231.463 51.0286 230.396 51.5339 229.338 52.0443C229.068 52.1745 228.74 52.2214 228.437 52.2161C228.286 52.2161 228.062 52.0286 228.016 51.8776C227.974 51.7422 228.073 51.4974 228.187 51.3776C228.344 51.2109 228.578 51.112 228.786 51.0078C234.625 47.987 240.052 44.3151 245.344 40.4297C247.052 39.1693 248.656 37.7891 250.25 36.3828C253.088 33.888 255.661 31.1328 258.307 28.4453C259.88 26.8516 261.432 25.2318 263.094 23.737C267.104 20.1172 271.604 17.3099 276.807 15.737C277.406 15.5599 278.031 15.4818 278.437 15.3984Z" fill="#704540"/>
<path d="M206.687 72.8936C206.479 72.8363 206.323 72.805 206.182 72.753C205.911 72.654 205.807 72.2425 206.036 72.0759C206.286 71.8936 206.562 71.7269 206.849 71.628C208.104 71.1748 209.364 70.7478 210.63 70.3207C214.599 68.9509 218.489 67.3884 222.354 65.7478C223.005 65.4717 223.661 65.2217 224.312 64.9509C228.125 63.3623 231.781 61.4613 235.255 59.2269C237.166 57.9925 239.005 56.654 240.755 55.1853C242.619 53.628 244.521 52.1019 246.396 50.5498C247.635 49.5238 248.843 48.4665 250.078 47.43C250.38 47.18 250.708 46.9613 251.031 46.7425C251.25 46.5967 251.479 46.5863 251.672 46.7894C251.864 47.003 251.885 47.3259 251.703 47.5498C251.583 47.7009 251.427 47.8311 251.281 47.9509C250.619 48.5082 249.942 49.0498 249.286 49.6123C247.255 51.3467 245.239 53.0915 243.198 54.8155C238.375 58.8936 233.166 62.3832 227.39 64.9561C224.135 66.404 220.812 67.7269 217.51 69.0759C214.385 70.3467 211.208 71.4769 208.005 72.5394C207.562 72.6853 207.104 72.7842 206.687 72.8936Z" fill="#704540"/>
<path d="M199.54 108.93C199.598 108.717 199.655 108.363 199.77 108.034C200.061 107.217 200.332 106.389 200.691 105.613C201.77 103.295 202.952 101.029 204.384 98.9095C205.238 97.6334 206.056 96.3365 206.941 95.0918C208.165 93.3626 209.41 91.6386 210.702 89.9615C211.514 88.9043 212.431 87.9303 213.296 86.9147C214.744 85.2011 216.384 83.6803 218.035 82.1699C220.035 80.347 222.066 78.5605 224.098 76.774C225.837 75.2428 227.582 73.722 229.348 72.222C229.853 71.7897 230.415 71.4303 230.962 71.0449C231.087 70.9615 231.244 70.8782 231.389 70.8782C231.525 70.873 231.728 70.9407 231.796 71.0501C231.889 71.1907 231.926 71.4095 231.905 71.5813C231.884 71.7168 231.749 71.8522 231.629 71.9459C230.603 72.7949 229.556 73.623 228.535 74.4772C227.514 75.3313 226.504 76.2115 225.504 77.0865C224.259 78.1699 223.004 79.2376 221.79 80.3574C220.03 81.9772 218.296 83.6334 216.572 85.2897C213.697 88.0449 211.238 91.149 208.941 94.3938C207.785 96.0293 206.655 97.6855 205.561 99.3626C203.65 102.3 201.983 105.368 200.827 108.696C200.728 108.988 200.587 109.279 200.4 109.524C200.306 109.649 200.056 109.727 199.895 109.706C199.629 109.675 199.535 109.436 199.525 109.18C199.52 109.144 199.53 109.102 199.54 108.93Z" fill="#704540"/>
<path d="M301.416 89.5241C301.426 91.8939 301.083 93.8835 300.369 95.8314C299.468 98.3002 298.531 100.758 297.916 103.326C297.473 105.16 297.067 106.993 296.947 108.878C296.906 109.425 296.786 109.967 296.676 110.503C296.635 110.712 296.458 110.868 296.249 110.816C296.077 110.769 295.911 110.639 295.801 110.498C295.718 110.389 295.697 110.201 295.697 110.05C295.708 109.264 295.666 108.472 295.775 107.696C296.286 104.066 297.26 100.555 298.577 97.1387C298.947 96.1856 299.286 95.2168 299.572 94.2377C300.234 92.0189 300.312 89.7637 300.031 87.472C299.781 85.4668 299.197 83.5554 298.63 81.6387C298.176 80.097 297.76 78.5397 297.333 76.9877C297.031 75.8887 296.713 74.8002 296.458 73.6908C296.208 72.5814 296.02 71.4616 295.801 70.3418C295.749 70.0814 295.812 69.8731 296.072 69.7741C296.354 69.6647 296.713 69.7325 296.812 69.9512C296.973 70.3054 297.109 70.6804 297.187 71.0606C297.369 71.9408 297.458 72.8418 297.687 73.7116C298.317 76.097 298.999 78.4772 299.661 80.8575C300.067 82.295 300.525 83.7168 300.88 85.1647C301.255 86.6908 301.463 88.2533 301.416 89.5241Z" fill="#AF524B"/>
<path d="M243.473 64.258C243.275 64.0913 243.04 63.9872 242.962 63.8101C242.905 63.6851 243.004 63.4195 243.113 63.2945C243.264 63.1226 243.483 63.008 243.691 62.9038C246.071 61.6903 248.348 60.2945 250.566 58.8205C253.868 56.633 257.092 54.3257 260.061 51.6851C260.665 51.1486 261.087 50.409 261.603 49.7684C261.769 49.5601 261.941 49.3309 262.165 49.1955C262.29 49.1174 262.577 49.1434 262.696 49.2372C262.816 49.3309 262.91 49.6017 262.863 49.7476C262.759 50.0757 262.582 50.3934 262.389 50.6903C261.551 51.9403 260.478 52.9715 259.311 53.9143C256.566 56.1382 253.712 58.2111 250.769 60.1538C248.775 61.4768 246.749 62.758 244.587 63.7893C244.238 63.9559 243.874 64.0913 243.473 64.258Z" fill="#704540"/>
<path d="M216.02 106.915C215.697 106.915 215.411 106.623 215.473 106.29C215.572 105.753 215.692 105.212 215.848 104.686C216.078 103.936 216.328 103.191 216.604 102.457C217.739 99.4305 219.14 96.5294 220.578 93.644C221.421 91.9461 222.375 90.3211 223.531 88.8263C224.01 88.2065 224.572 87.6544 225.114 87.0815C225.244 86.9461 225.427 86.8107 225.598 86.7794C225.77 86.7482 226.015 86.8003 226.125 86.9149C226.223 87.0242 226.27 87.3055 226.197 87.4305C226.031 87.7378 225.796 88.019 225.562 88.2742C224.078 89.868 222.906 91.6805 221.927 93.6232C220.338 96.7846 218.812 99.9774 217.614 103.316C217.26 104.311 216.984 105.337 216.661 106.347C216.536 106.759 216.343 106.92 216.02 106.915Z" fill="#704540"/>
<path d="M228.332 99.4717C228.504 99.5394 228.624 99.5602 228.712 99.6279C228.801 99.6956 228.874 99.7998 228.926 99.904C229.692 101.336 230.738 102.56 231.843 103.722C233.27 105.232 234.744 106.701 236.369 108.003C237.166 108.633 237.962 109.263 238.759 109.894C239.233 110.269 239.343 110.565 239.098 110.857C238.848 111.159 238.551 111.18 238.051 110.868C237.718 110.664 237.395 110.44 237.087 110.201C236.535 109.763 235.978 109.326 235.457 108.857C234.379 107.883 233.317 106.899 232.27 105.894C230.936 104.623 229.785 103.18 228.645 101.737C228.384 101.399 228.166 101.013 228.004 100.618C227.905 100.383 227.91 100.076 227.962 99.8206C227.994 99.68 228.212 99.5811 228.332 99.4717Z" fill="#AF524B"/>
<path d="M284.203 20.8779C284.661 20.9769 285.13 21.0394 285.573 21.1748C285.984 21.2998 286.39 21.4665 286.76 21.6748C288.37 22.5811 289.817 23.7061 291.13 25.0081C291.609 25.4873 291.979 26.0394 292.172 26.6904C292.25 26.9352 292.245 27.2321 292.198 27.4873C292.125 27.8675 291.604 27.9717 291.359 27.68C291.239 27.529 291.114 27.3623 291.067 27.18C290.916 26.6279 290.583 26.2008 290.208 25.7998C288.989 24.5029 287.583 23.4456 286.015 22.6279C285.474 22.3415 284.838 22.2373 284.245 22.0602C284.021 21.9977 283.781 21.9769 283.573 21.8883C283.265 21.7581 283.245 21.279 283.541 21.1227C283.745 21.0133 283.974 20.9613 284.203 20.8779Z" fill="#704540"/>
<path d="M226.744 102.57C226.953 102.753 227.125 102.852 227.229 102.997C227.552 103.492 227.843 104.003 228.166 104.497C229.307 106.242 230.583 107.878 232.182 109.242C232.328 109.367 232.494 109.497 232.588 109.659C232.656 109.773 232.692 109.997 232.63 110.086C232.531 110.221 232.328 110.362 232.171 110.362C231.953 110.357 231.697 110.273 231.526 110.133C230.927 109.638 230.291 109.159 229.776 108.581C228.604 107.258 227.578 105.815 226.64 104.315C226.411 103.94 226.177 103.56 226.307 103.112C226.364 102.924 226.567 102.779 226.744 102.57Z" fill="#AF524B"/>
<path d="M292.468 44.4923C292.421 44.6694 292.364 44.9403 292.27 45.1955C291.661 46.9194 290.713 48.4298 289.442 49.7423C289.265 49.9246 289.01 50.0705 288.76 50.1486C288.447 50.2476 288.119 49.8673 288.244 49.5653C288.348 49.3205 288.499 49.0757 288.676 48.8778C289.89 47.5236 290.864 46.034 291.338 44.2476C291.379 44.0809 291.536 43.909 291.687 43.8101C292.015 43.6069 292.473 43.9715 292.468 44.4923Z" fill="#704540"/>
<path d="M263.479 38.2898C263.495 37.7065 263.547 37.1232 263.625 36.545C263.672 36.2169 263.74 35.8732 263.969 35.6336C264.479 35.1284 265.177 35.7377 265.214 36.3107C265.281 37.42 265.109 38.5034 264.896 39.5867C264.87 39.6961 264.807 39.8002 264.745 39.9044C264.089 41.0607 263.469 39.4825 263.469 38.8471C263.469 38.6596 263.474 38.4721 263.479 38.2898Z" fill="#F5CF9B"/>
<path d="M245.264 166.055C245.035 166.196 244.858 166.394 244.681 166.394C244.472 166.389 244.222 166.264 244.071 166.108C243.78 165.8 243.514 165.451 243.285 165.087C242.806 164.326 242.337 163.555 241.91 162.764C241.748 162.467 241.686 162.102 241.67 161.759C241.66 161.618 241.853 161.389 241.998 161.337C242.144 161.295 242.379 161.384 242.514 161.493C242.655 161.608 242.733 161.811 242.821 161.983C243.405 163.144 244.056 164.253 244.858 165.274C245.019 165.483 245.108 165.743 245.264 166.055Z" fill="#C46E5B"/>
<path d="M237.734 169.232C237.708 169.592 237.338 169.837 237.119 169.701C236.895 169.561 236.656 169.383 236.531 169.165C236.192 168.592 235.88 168.003 235.619 167.394C235.317 166.67 235.083 165.925 234.827 165.186C234.786 165.076 234.723 164.941 234.755 164.852C234.812 164.68 234.9 164.462 235.046 164.394C235.182 164.326 235.478 164.352 235.562 164.456C235.796 164.758 235.989 165.102 236.14 165.451C236.484 166.243 236.781 167.05 237.114 167.842C237.255 168.16 237.463 168.451 237.609 168.769C237.692 168.941 237.713 169.139 237.734 169.232Z" fill="#C46E5B"/>
<path d="M242.327 169.795C242.353 170.227 242.004 170.503 241.697 170.394C241.556 170.342 241.395 170.274 241.306 170.159C240.405 169.066 239.728 167.842 239.233 166.519C239.181 166.383 239.192 166.196 239.244 166.066C239.301 165.936 239.431 165.774 239.551 165.748C239.718 165.717 239.921 165.774 240.088 165.842C240.176 165.883 240.233 166.024 240.28 166.123C240.801 167.264 241.369 168.368 242.135 169.373C242.244 169.519 242.291 169.717 242.327 169.795Z" fill="#C46E5B"/>
<path d="M302.676 89.2117C302.426 89.1961 302.17 89.1284 302.144 88.8576C302.129 88.6961 302.222 88.4409 302.353 88.3523C302.967 87.9409 303.603 87.5503 304.254 87.1961C304.384 87.1232 304.66 87.1753 304.78 87.2794C304.899 87.3836 304.915 87.6128 304.952 87.7951C304.962 87.8628 304.92 87.9513 304.879 88.019C304.577 88.5346 303.321 89.2117 302.676 89.2117Z" fill="#AF524B"/>
<path d="M303.052 86.3625C302.974 86.3573 302.88 86.3781 302.823 86.3364C302.672 86.2323 302.458 86.1125 302.427 85.9718C302.401 85.8208 302.542 85.6229 302.646 85.4666C302.708 85.3833 302.838 85.3312 302.948 85.3C303.51 85.1281 304.068 84.951 304.635 84.8052C304.958 84.7218 305.203 84.8833 305.281 85.1593C305.359 85.4354 305.245 85.6854 304.963 85.8416C304.531 86.0864 303.5 86.3677 303.052 86.3625Z" fill="#AF524B"/>
<path d="M282.641 38.138C282.693 38.5182 282.693 38.9088 282.594 39.2838C282.422 39.9557 281.953 40.4348 281.484 40.9192C281.437 40.9713 281.354 40.9974 281.281 41.0286C281.005 41.1536 280.687 41.1067 280.526 40.914C280.364 40.7161 280.38 40.4192 280.578 40.1588C280.625 40.0963 280.677 40.0338 280.734 39.9869C281.557 39.3515 281.542 38.5286 281.255 37.6536C280.979 36.7838 280.474 35.8046 280.542 34.8776C280.562 34.5755 280.786 34.3307 281.114 34.4036C281.286 34.4401 281.427 34.5703 281.531 34.7213C281.818 35.1432 281.927 35.6536 282.057 36.138C282.182 36.6015 282.37 37.0494 282.5 37.513C282.562 37.7161 282.609 37.9244 282.641 38.138Z" fill="#513B30"/>
<path d="M281.234 44.4508C280.484 44.5758 279.718 44.5185 278.984 44.2633C278.275 44.0133 277.103 43.4091 277.244 42.4873C277.307 42.0966 277.749 41.9039 278.051 42.1487C278.202 42.2737 278.312 42.4456 278.458 42.5758C278.978 43.0341 279.588 43.2894 280.28 43.2841C280.786 43.2789 281.275 43.1644 281.76 43.0289C281.952 42.9769 282.145 42.9248 282.338 42.9404C282.853 42.9821 282.905 43.5185 282.609 43.8675C282.447 44.0602 282.208 44.18 281.968 44.2633C281.723 44.3466 281.478 44.4091 281.234 44.4508Z" fill="#513B30"/>
<path d="M273.38 35.7106C273.369 35.2471 273.463 34.7419 273.734 34.3565C273.916 34.0961 274.218 33.8981 274.536 33.9242C274.697 33.9346 274.854 34.0075 274.984 34.1065C275.203 34.2783 275.348 34.5283 275.421 34.7992C275.651 35.6117 275.401 36.7679 274.598 37.1794C274.234 37.3669 273.901 37.2627 273.677 36.9242C273.562 36.7471 273.494 36.544 273.458 36.3408C273.411 36.1325 273.385 35.9242 273.38 35.7106Z" fill="#513B30"/>
<path d="M287.384 35.3572C287.369 36.029 287.249 36.4665 286.811 36.7634C286.29 37.1124 285.665 36.9353 285.468 36.352C285.28 35.8103 285.322 35.2686 285.608 34.7634C285.884 34.2947 286.29 34.128 286.806 34.2738C287.186 34.3832 287.358 34.654 287.384 35.1853C287.389 35.2999 287.384 35.4197 287.384 35.3572Z" fill="#513B30"/>
<path d="M274.656 31.0341C274.947 31.0029 275.281 31.3674 275.208 31.6487C275.182 31.7581 275.145 31.8831 275.067 31.9612C274.526 32.5393 273.833 32.8883 273.109 33.1695C272.869 33.2581 272.656 33.1279 272.515 32.9091C272.364 32.6799 272.401 32.357 272.656 32.1851C273.239 31.7997 273.843 31.4508 274.442 31.0914C274.505 31.0549 274.588 31.0497 274.656 31.0341Z" fill="#513B30"/>
<path d="M289.062 33.0028C289.052 33.3153 288.677 33.5445 288.365 33.3986C287.896 33.1799 287.526 32.8413 287.312 32.357C287.177 32.0497 287.432 31.6851 287.755 31.7059C288.266 31.7372 288.984 32.383 289.068 32.883C289.073 32.9195 289.062 32.9611 289.062 33.0028Z" fill="#513B30"/>
<path d="M333.004 130.029C333.004 128.06 332.963 126.097 333.015 124.133C333.051 122.8 333.218 121.472 333.327 120.139C333.431 118.847 333.525 117.56 333.64 116.269C333.707 115.566 333.801 114.863 333.905 114.165C334.004 113.514 334.348 113.102 335.036 113.003C335.541 112.93 336.025 112.873 336.546 112.904C337.952 112.988 339.364 113.003 340.775 112.993C342.15 112.982 343.515 113.014 344.869 113.253C346.067 113.456 347.26 113.685 348.457 113.894C349.109 114.008 349.484 114.368 349.609 115.04C349.765 115.821 349.718 116.597 349.64 117.383C349.494 118.79 349.343 120.196 349.218 121.602C349.067 123.279 348.931 124.962 348.796 126.644C348.765 127.071 348.78 127.508 348.754 127.941C348.525 131.227 348.478 134.534 347.827 137.784C347.645 138.68 347.562 139.92 346.671 140.415C346.286 140.628 345.843 140.701 345.405 140.758C343.504 141.014 341.504 141.034 339.598 140.795C337.681 140.555 335.775 139.977 334.155 138.894C332.582 137.847 333.036 135.956 333.004 134.274C332.978 132.857 332.999 131.446 332.999 130.029C332.999 130.029 332.999 130.029 333.004 130.029Z" fill="#7D875B"/>
<mask id="mask7_36_5554" style="mask-type:luminance" maskUnits="userSpaceOnUse" x="330" y="109" width="23" height="9">
<path d="M330.066 109.967H352.691V117.279H330.066V109.967Z" fill="white"/>
</mask>
<g mask="url(#mask7_36_5554)">
<path d="M335.921 110.18C339.483 110.258 343.051 110.305 346.618 110.43C347.983 110.477 349.342 110.696 350.702 110.847C350.9 110.868 351.092 110.909 351.28 110.967C351.837 111.144 352.249 111.493 352.389 112.081C352.686 113.316 352.822 114.561 352.525 115.821C352.363 116.488 351.978 116.951 351.296 117.102C350.952 117.175 350.598 117.227 350.249 117.212C348.723 117.154 347.197 117.071 345.671 116.998C343.285 116.873 340.9 116.758 338.509 116.618C337.259 116.545 336.014 116.446 334.764 116.337C333.941 116.264 333.124 116.165 332.311 116.034C331.931 115.972 331.551 115.837 331.191 115.686C330.509 115.383 330.046 114.811 330.249 113.857C330.441 112.941 330.785 112.045 331.186 111.201C331.546 110.456 332.176 110.029 333.092 110.092C334.03 110.154 334.978 110.107 335.921 110.107C335.921 110.128 335.921 110.154 335.921 110.18Z" fill="#5F6642"/>
</g>
<path d="M336.083 110.925C335.38 110.925 334.677 110.93 333.969 110.92C333.177 110.909 332.932 110.654 332.906 109.857C332.901 109.701 332.896 109.539 332.906 109.383C332.953 108.722 333.271 108.336 333.917 108.315C334.932 108.289 335.953 108.321 336.969 108.352C337.354 108.367 337.745 108.456 338.13 108.518C338.953 108.659 339.516 109.341 339.479 110.175C339.464 110.482 339.266 110.696 339.005 110.789C338.75 110.878 338.469 110.914 338.198 110.92C337.495 110.935 336.792 110.925 336.083 110.925Z" fill="#5F6642"/>
<path d="M339.88 131.732C340.015 133.622 339.838 136.05 338.083 136.185C337.307 136.242 336.802 135.774 336.385 134.685C335.64 132.747 335.932 130.914 336.864 129.133C337.369 128.169 338.697 127.862 339.322 128.925C339.51 129.237 339.588 129.602 339.656 129.961C339.729 130.372 339.828 131.013 339.88 131.732Z" fill="#5F6642"/>
<path d="M338.406 121.607C338.447 122.404 338.333 123.169 337.916 123.872C337.593 124.419 337.13 124.732 336.479 124.706C335.802 124.68 335.406 124.273 335.182 123.685C334.687 122.367 334.656 120.992 334.812 119.628C334.895 118.883 335.385 118.581 336.145 118.617C337.599 118.685 338.187 119.227 338.364 120.669C338.395 120.977 338.395 121.289 338.406 121.607Z" fill="#5F6642"/>
<path d="M342.76 132.815C342.703 132.154 342.723 131.503 342.932 130.956C343.369 129.784 344.625 129.69 345.036 130.888C345.114 131.102 345.156 131.346 345.286 131.529C346.223 132.846 345.979 134.273 345.703 135.706C345.677 135.857 345.598 136.003 345.515 136.138C345.093 136.852 344.098 136.987 343.588 136.279C343.354 135.956 343.265 135.55 343.177 135.159C343.036 134.477 342.833 133.638 342.76 132.815Z" fill="#5F6642"/>
<path d="M344.254 125.123C344.249 125.607 344.134 126.102 343.905 126.592C343.447 127.545 342.39 127.748 341.733 126.847C341.483 126.503 341.364 126.081 341.311 125.66C341.186 124.639 342.176 120.967 343.567 122.998C344.02 123.66 344.265 124.383 344.254 125.123Z" fill="#5F6642"/>
<path d="M347.625 119.93C347.62 120.826 346.641 121.284 345.854 120.956C345.162 120.659 344.724 119.659 345.151 118.992C345.271 118.805 345.464 118.628 345.662 118.544C346.334 118.268 347.615 119.185 347.625 119.93Z" fill="#5F6642"/>
<path d="M278.926 111.659C278.598 111.477 278.426 111.394 278.265 111.289C277.593 110.842 277.338 110.336 277.489 109.727C277.635 109.128 278.072 108.763 278.906 108.717C279.484 108.685 280.067 108.774 280.65 108.857C281.025 108.909 281.395 109.055 281.859 109.185C281.989 108.883 282.104 108.607 282.229 108.336C282.458 107.842 282.614 107.289 282.937 106.868C283.791 105.732 285.296 105.925 285.88 107.222C286.286 108.123 286.213 109.066 285.973 109.998C285.88 110.373 285.76 110.743 285.63 111.18C286.062 111.456 286.484 111.67 286.828 111.972C287.322 112.404 287.817 112.857 288.208 113.378C288.604 113.904 288.489 114.508 288.124 115.034C287.775 115.534 287.265 115.722 286.687 115.623C286.307 115.555 285.947 115.388 285.583 115.248C285.307 115.138 285.036 115.003 284.598 114.8C284.578 115.399 284.614 115.862 284.531 116.305C284.426 116.873 284.301 117.467 284.041 117.972C283.739 118.56 283.171 118.883 282.479 118.805C281.77 118.732 281.338 118.289 281.156 117.633C281.01 117.107 280.926 116.56 280.843 116.019C280.791 115.675 280.796 115.326 280.765 114.868C280.442 114.967 280.203 115.034 279.963 115.112C279.484 115.269 279.01 115.477 278.515 115.586C277.937 115.711 277.416 115.513 277.072 115.019C276.723 114.519 276.739 113.951 277.041 113.456C277.286 113.066 277.624 112.722 277.953 112.399C278.203 112.154 278.505 111.972 278.926 111.659Z" fill="#F2BCB9"/>
<path d="M245.473 88.4349C245.067 88.5078 244.723 88.6067 244.379 88.6224C243.369 88.6692 242.765 87.9661 242.916 86.9609C243.015 86.2994 243.442 85.8307 243.879 85.3776C244.098 85.1588 244.353 84.9661 244.593 84.7682C244.832 84.5703 245.077 84.3776 245.41 84.1119C245.15 83.9401 244.947 83.7994 244.733 83.6692C244.53 83.5494 244.311 83.4661 244.114 83.3359C243.619 83.0026 243.369 82.5338 243.473 81.9244C243.572 81.3359 243.994 80.914 244.712 80.8672C245.369 80.8203 246.041 80.8984 246.697 80.9609C247.041 80.9922 247.374 81.1172 247.791 81.2213C247.921 80.8619 248.03 80.5338 248.166 80.2161C248.348 79.789 248.509 79.3307 248.765 78.9453C249.155 78.3672 249.707 77.9713 250.457 78.138C251.249 78.3099 251.608 78.9036 251.744 79.6484C251.884 80.4088 251.707 81.138 251.442 81.8411C251.259 82.3151 251.046 82.7786 250.822 83.2994C251.067 83.4765 251.28 83.6276 251.494 83.7786C251.848 84.0234 252.239 84.2265 252.546 84.5182C252.983 84.9453 253.239 85.4869 253.035 86.1172C252.827 86.7838 252.322 87.138 251.671 87.2734C251.364 87.3359 251.046 87.3255 250.733 87.3359C250.426 87.3411 250.119 87.3359 249.702 87.3359C249.64 87.7161 249.582 88.0494 249.53 88.3828C249.431 89.0026 249.374 89.6328 249.218 90.2317C249.015 90.9765 248.504 91.4765 247.712 91.5234C246.926 91.5703 246.332 91.1432 246.035 90.4505C245.78 89.8463 245.676 89.1797 245.473 88.4349Z" fill="#F2BCB9"/>
<path d="M291.255 82.6383C290.978 82.9456 290.791 83.2008 290.557 83.4039C289.494 84.3414 288.041 83.8467 287.781 82.456C287.708 82.0758 287.697 81.6904 287.645 81.18C287.249 81.2373 286.921 81.2946 286.593 81.3362C285.755 81.4404 285.171 81.2008 284.874 80.6279C284.551 79.9925 284.661 79.2842 285.281 78.7008C285.645 78.3623 286.103 78.1123 286.546 77.8675C286.88 77.6852 287.26 77.581 287.734 77.3987C287.499 77.0446 287.312 76.7685 287.13 76.4821C286.755 75.8987 286.577 75.2685 286.728 74.5758C286.885 73.8727 287.296 73.3623 287.994 73.1539C288.692 72.9456 289.307 73.1279 289.796 73.6852C290.051 73.9717 290.312 74.2529 290.619 74.5862C291.38 73.9144 292.109 73.2685 293.15 73.7842C293.728 74.0706 293.853 74.5081 293.817 76.0342C294.067 76.0914 294.327 76.1435 294.583 76.2217C295.468 76.4821 295.978 77.0914 295.911 77.7789C295.848 78.4404 295.291 78.9039 294.406 79.0185C294.103 79.055 293.791 79.0654 293.499 79.081C293.317 79.5654 293.645 79.8831 293.734 80.2425C293.859 80.7373 294.072 81.2164 294.119 81.7164C294.182 82.3779 293.921 82.956 293.307 83.2946C292.697 83.6331 292.176 83.4404 291.697 83.0185C291.583 82.9144 291.463 82.8154 291.255 82.6383Z" fill="#F2BCB9"/>
<path d="M271.306 107.748C271.551 108.123 271.785 108.431 271.968 108.774C272.27 109.352 272.41 109.962 272.025 110.566C271.619 111.212 270.973 111.347 270.28 111.295C269.895 111.269 269.514 111.154 269.067 111.066C268.926 111.295 268.796 111.519 268.645 111.743C268.447 112.029 268.275 112.352 268.02 112.587C267.207 113.337 266.145 113.097 265.738 112.071C265.577 111.675 265.514 111.243 265.379 110.701C265.041 110.701 264.702 110.696 264.369 110.701C263.676 110.701 263.129 110.446 262.869 109.785C262.608 109.134 262.775 108.514 263.254 108.045C263.613 107.691 264.056 107.425 264.488 107.16C264.884 106.915 265.317 106.727 265.817 106.467C265.744 106.056 265.634 105.686 265.603 105.311C265.561 104.806 265.473 104.274 265.582 103.795C265.884 102.483 267.4 102.092 268.337 103.066C268.634 103.368 268.843 103.753 269.139 104.17C269.416 104.045 269.692 103.925 269.968 103.806C270.291 103.665 270.608 103.488 270.942 103.404C272.103 103.118 273.119 104.009 272.9 105.191C272.796 105.738 272.436 106.253 272.134 106.748C271.916 107.102 271.598 107.399 271.306 107.748Z" fill="#F2BCB9"/>
<path d="M268.63 86.6022C269.458 86.0136 270.307 85.399 271.322 86.0345C272.38 86.6959 272.02 87.748 271.869 88.748C272.854 89.4824 273.51 90.399 272.968 91.6647C272.359 93.0865 271.072 93.1282 269.755 93.0292C269.265 93.6386 268.958 94.4615 268.041 94.524C267.171 94.5865 266.692 94.0188 266.302 93.3053C265.463 93.3157 264.52 93.649 263.989 92.6647C263.52 91.7845 264.052 91.0865 264.494 90.3261C264.411 90.1751 264.322 90.0084 264.234 89.8365C263.77 88.9303 263.869 88.4667 264.64 87.7897C264.838 87.6178 265.031 87.4095 265.145 87.1803C265.916 85.6022 266.864 85.3678 268.312 86.4251C268.375 86.4667 268.447 86.498 268.63 86.6022Z" fill="#F2BCB9"/>
<path d="M241.452 105.545C241.239 105.951 241.083 106.316 240.869 106.634C240.249 107.555 238.989 107.509 238.458 106.529C238.255 106.154 238.15 105.722 238.025 105.311C237.921 104.977 237.859 104.634 237.77 104.259C237.473 104.196 237.208 104.149 236.947 104.092C235.713 103.811 235.281 102.707 236.036 101.67C236.353 101.233 236.781 100.873 237.228 100.394C237.213 100.154 237.182 99.8055 237.171 99.4565C237.161 98.7638 237.307 98.1232 237.755 97.5815C238.525 96.6596 239.713 96.8055 240.244 97.8888C240.38 98.1649 240.468 98.4617 240.619 98.8524C240.978 98.7117 241.281 98.5399 241.609 98.4721C242.135 98.368 242.676 98.2482 243.202 98.2742C243.744 98.3055 244.14 98.6649 244.281 99.2221C244.426 99.7742 244.239 100.243 243.827 100.597C243.442 100.92 243.015 101.186 242.551 101.524C242.775 101.779 242.942 101.988 243.119 102.18C243.39 102.467 243.687 102.722 243.926 103.035C244.322 103.566 244.52 104.154 244.176 104.795C243.848 105.41 243.286 105.66 242.614 105.665C242.265 105.67 241.921 105.597 241.452 105.545Z" fill="#F2BCB9"/>
<path d="M290.999 101.337C290.493 101.144 290.056 100.993 289.629 100.811C289.087 100.587 288.696 100.217 288.66 99.597C288.629 98.92 288.999 98.4564 289.582 98.222C290.082 98.0241 290.624 97.9148 291.16 97.8314C291.535 97.7741 291.931 97.821 292.342 97.821C292.519 97.3783 292.629 96.9981 292.816 96.6648C293.103 96.1595 293.394 95.6387 293.79 95.2168C294.249 94.7325 294.879 94.6075 295.519 94.8835C296.15 95.1543 296.493 95.6543 296.535 96.3418C296.545 96.5033 296.566 96.6648 296.54 96.8158C296.337 97.7689 296.196 98.6335 296.915 99.545C297.431 100.196 296.952 101.384 296.051 101.675C294.858 102.066 294.061 102.712 293.54 103.847C293.29 104.394 292.691 104.654 292.045 104.587C291.363 104.524 290.837 103.91 290.827 103.092C290.821 102.55 290.931 102.009 290.999 101.337Z" fill="#F2BCB9"/>
<path d="M266.01 69.1958C266.297 68.8156 266.531 68.4458 266.823 68.1385C267.088 67.8573 267.396 67.5813 267.74 67.4094C268.885 66.826 269.995 67.5031 270.052 68.8052C270.068 69.0344 270.047 69.2844 269.979 69.5031C269.812 70.05 269.969 70.4354 270.349 70.8729C271.286 71.9458 270.943 73.1542 269.609 73.6958C269.359 73.7948 269.099 73.8729 268.849 73.9563C268.687 74.3469 268.562 74.7219 268.38 75.0604C268.01 75.7531 267.432 76.0865 266.635 76.0031C265.937 75.9302 265.562 75.5552 265.333 74.6854C265.234 74.3052 265.167 73.9198 265.073 73.5031C264.724 73.3885 264.38 73.3104 264.068 73.1594C263.615 72.9458 263.125 72.7427 262.75 72.4146C261.948 71.7271 261.995 70.6385 262.802 69.9563C263.396 69.451 264.099 69.2323 264.865 69.201C265.213 69.1854 265.562 69.1958 266.01 69.1958Z" fill="#F2BCB9"/>
<path d="M255.067 115.987C254.629 115.94 254.306 115.695 254.14 115.258C253.931 114.721 254.103 114.2 254.598 113.82C255.087 113.445 255.707 113.352 256.114 113.648C256.285 113.773 256.452 113.987 256.515 114.19C256.733 114.919 255.843 116.018 255.067 115.987Z" fill="#F2BCB9"/>
<path d="M279.025 81.6694C279.01 82.4871 277.718 83.2475 276.984 82.8673C276.557 82.6433 276.353 82.1433 276.489 81.6641C276.671 81.0391 277.499 80.56 278.182 80.685C278.671 80.7787 279.036 81.2006 279.025 81.6694Z" fill="#F2BCB9"/>
<path d="M288.983 66.9143C288.494 66.8726 288.056 66.732 287.806 66.2684C287.577 65.8361 287.702 65.2893 288.087 65.0028C288.52 64.6799 289.551 64.7163 289.973 65.0705C290.337 65.3778 290.441 65.9403 290.197 66.3466C289.915 66.7997 289.462 66.8882 288.983 66.9143Z" fill="#F2BCB9"/>
<path d="M259.344 99.8467C259.328 99.9665 259.344 100.232 259.229 100.42C259.104 100.638 258.896 100.862 258.667 100.956C258.276 101.118 257.88 101.013 257.615 100.67C257.224 100.17 257.167 99.5863 257.38 99.0081C257.532 98.6071 257.88 98.4092 258.308 98.4092C258.922 98.4144 259.334 98.9456 259.344 99.8467Z" fill="#F2BCB9"/>
<path d="M248.118 95.8314C248.092 96.5293 247.483 97.1023 246.816 97.0554C246.275 97.0189 245.9 96.5814 245.936 96.0241C245.972 95.3731 246.525 94.7898 247.113 94.7793C247.686 94.7741 248.144 95.2481 248.118 95.8314Z" fill="#F2BCB9"/>
<path d="M268.337 119.816C267.738 119.805 267.295 119.493 267.186 119.06C267.087 118.67 267.275 118.227 267.696 117.977C267.889 117.863 268.118 117.774 268.342 117.732C268.915 117.639 269.394 117.93 269.54 118.42C269.681 118.909 269.436 119.425 268.92 119.649C268.712 119.743 268.478 119.774 268.337 119.816Z" fill="#F2BCB9"/>
<path d="M231.51 97.321C231.479 97.9772 230.797 98.6283 230.203 98.5762C229.688 98.5293 229.323 98.0762 229.349 97.5033C229.375 96.7949 229.979 96.2168 230.641 96.2689C231.167 96.3053 231.542 96.7585 231.51 97.321Z" fill="#F2BCB9"/>
<path d="M292.729 117.555C292.703 118.138 292.235 118.529 291.61 118.472C290.969 118.419 290.537 117.914 290.584 117.284C290.636 116.685 291.11 116.274 291.693 116.326C292.266 116.383 292.75 116.956 292.729 117.555Z" fill="#F2BCB9"/>
<path d="M303.583 79.0289C303.578 79.6852 303.13 80.1956 302.547 80.206C301.99 80.2164 301.615 79.7841 301.609 79.1175C301.609 78.4195 302.01 77.8883 302.563 77.8623C303.135 77.8362 303.594 78.3623 303.583 79.0289Z" fill="#F2BCB9"/>
<path d="M262.526 81.097C262.537 81.7168 262.115 82.1335 261.495 82.1179C260.891 82.097 260.432 81.67 260.396 81.1023C260.365 80.4773 260.859 79.9252 261.453 79.92C262.042 79.9148 262.516 80.4356 262.526 81.097Z" fill="#F2BCB9"/>
<path d="M245.546 73.1227C246.139 73.1018 246.697 73.6383 246.691 74.2164C246.686 74.7529 246.264 75.1852 245.723 75.1956C245.129 75.206 244.566 74.6695 244.566 74.0966C244.572 73.5862 245.02 73.1383 245.546 73.1227Z" fill="#F2BCB9"/>
<path d="M256.322 69.6016C256.926 69.5964 257.426 70.1068 257.421 70.7162C257.416 71.2683 257.02 71.6641 256.463 71.6589C255.833 71.6589 255.364 71.1849 255.369 70.5547C255.369 69.9974 255.765 69.6016 256.322 69.6016Z" fill="#F2BCB9"/>
<path d="M265.531 63.2062C265.515 63.774 265.031 64.175 264.4 64.1437C263.817 64.1125 263.437 63.7323 263.432 63.175C263.426 62.5708 263.864 62.149 264.489 62.1594C265.093 62.175 265.546 62.6333 265.531 63.2062Z" fill="#F2BCB9"/>
<path d="M287.083 97.8992C287.094 98.519 286.583 99.0346 285.974 99.019C285.422 99.0034 285.041 98.5815 285.057 98.0086C285.073 97.42 285.526 96.9669 286.099 96.9565C286.656 96.9409 287.073 97.3419 287.083 97.8992Z" fill="#F2BCB9"/>
<path d="M239.307 92.4873C238.713 92.4717 238.249 92.0081 238.27 91.4665C238.291 90.9144 238.791 90.5081 239.39 90.5498C239.942 90.5863 240.359 90.9925 240.364 91.5081C240.374 92.0654 239.9 92.5081 239.307 92.4873Z" fill="#F2BCB9"/>
<path d="M297.77 66.4615C297.228 66.4615 296.79 66.0084 296.811 65.4772C296.837 64.998 297.244 64.5917 297.728 64.5709C298.254 64.5397 298.733 64.9772 298.749 65.4928C298.764 66.0188 298.311 66.4615 297.77 66.4615Z" fill="#F2BCB9"/>
<path d="M277.712 98.4301C277.707 98.9717 277.28 99.378 276.743 99.3467C276.212 99.3207 275.821 98.8728 275.858 98.3363C275.889 97.8467 276.274 97.4874 276.774 97.4717C277.311 97.4665 277.722 97.8832 277.712 98.4301Z" fill="#F2BCB9"/>
<path d="M296.681 88.8312C296.681 89.3156 296.29 89.7167 295.79 89.7427C295.233 89.7739 294.801 89.3677 294.801 88.8208C294.801 88.3156 295.165 87.9354 295.676 87.9094C296.223 87.8833 296.676 88.3 296.681 88.8312Z" fill="#F2BCB9"/>
<path d="M283.03 123.67C283.025 124.159 282.634 124.576 282.155 124.607C281.634 124.633 281.166 124.18 281.176 123.654C281.181 123.123 281.655 122.675 282.171 122.717C282.645 122.753 283.035 123.185 283.03 123.67Z" fill="#F2BCB9"/>
<path d="M345.364 135.508C345.109 135.32 344.879 135.175 344.671 135.013C343.551 134.143 343.374 132.701 344.249 131.581C344.348 131.456 344.468 131.352 344.567 131.232C344.671 131.117 344.76 130.992 344.874 130.846C344.645 130.596 344.432 130.372 344.218 130.143C343.744 129.617 343.655 129.018 343.994 128.398C344.197 128.029 344.463 127.685 344.739 127.357C344.911 127.154 345.15 127.008 345.4 126.805C345.197 126.523 344.999 126.289 344.843 126.023C344.343 125.18 344.442 124.503 345.135 123.784C345.65 123.247 346.286 122.961 347.015 122.925C347.796 122.878 348.583 122.852 349.364 122.904C350.53 122.977 351.432 124.159 351.187 125.315C351.046 125.987 351.051 126.596 351.244 127.268C351.385 127.768 351.296 128.357 351.249 128.904C351.213 129.289 351.077 129.664 350.989 130.018C351.01 130.128 351.004 130.221 351.046 130.279C352.254 132.029 352.129 133.815 351.192 135.617C351.015 135.956 350.952 136.242 351.025 136.617C351.265 137.789 351.015 138.883 350.411 139.904C350.004 140.586 349.374 140.862 348.614 140.779C347.51 140.664 346.458 140.346 345.515 139.747C345.187 139.539 344.869 139.284 344.614 138.997C343.885 138.175 343.869 137.305 344.546 136.43C344.78 136.128 345.057 135.852 345.364 135.508Z" fill="#F7B668"/>
<path d="M249.665 126.883C249.665 128.148 249.337 129.284 248.717 130.362C248.483 130.784 248.144 130.977 247.681 131.013C247.222 131.055 246.748 131.003 246.316 130.852C245.363 130.513 244.603 129.685 244.592 128.273C244.582 127.299 244.811 126.393 245.28 125.565C245.597 125.013 245.665 124.466 245.577 123.872C245.535 123.596 245.478 123.326 245.436 123.06C245.347 122.555 245.217 122.055 245.175 121.544C245.071 120.06 244.993 118.57 244.92 117.081C244.821 115.065 245.144 113.086 245.425 111.102C245.613 109.747 245.858 108.404 246.149 107.076C247.077 105.57 247.988 104.065 248.92 102.56C249.009 102.414 249.113 102.279 249.316 101.992C249.175 102.924 249.071 103.867 248.832 104.773C248.118 107.482 247.608 110.221 247.316 112.997C247.186 114.284 247.045 115.565 247.175 116.872C247.29 118.003 247.243 119.148 247.285 120.289C247.29 120.549 247.316 120.815 247.342 121.081C247.446 121.987 247.649 122.878 247.827 123.794C249.347 124.299 249.66 125.466 249.665 126.883Z" fill="#7D875B"/>
<path d="M295.312 61.8779C295.328 64.1331 294.937 66.3415 294.484 68.5394C293.458 73.5915 292.276 78.6071 290.792 83.5446C289.859 86.6331 288.818 89.6904 287.729 92.7269C286.687 95.654 285.552 98.5498 284.396 101.43C283.338 104.06 282.219 106.659 281.099 109.258C279.333 113.352 277.958 117.571 276.943 121.909C276.562 123.519 276.25 125.138 275.891 126.753C275.786 127.227 275.844 127.675 275.937 128.144C276.078 128.873 276.177 129.617 276.245 130.357C276.364 131.748 275.344 132.253 274.396 132.347C272.755 132.503 271.5 131.352 271.479 129.685C271.474 129.331 271.505 128.977 271.557 128.628C271.734 127.414 272.104 126.253 272.542 125.112C272.838 124.336 273.224 123.602 273.963 123.138C274.328 122.914 274.463 122.576 274.568 122.175C274.974 120.612 275.427 119.065 275.823 117.503C276.552 114.633 277.641 111.888 278.745 109.154C280.042 105.946 281.463 102.789 282.755 99.581C283.88 96.7685 284.917 93.9248 285.963 91.081C287.141 87.9092 288.167 84.6852 289.099 81.43C290.281 77.3467 291.25 73.2112 292.172 69.0654C292.505 67.6071 292.776 66.1383 293.016 64.6644C293.297 62.956 293.458 61.2321 293.146 59.5029C292.969 58.5602 292.766 57.6644 291.937 57.0342C291.495 56.6956 291.432 56.2737 291.62 55.8831C291.823 55.456 292.286 55.2581 292.818 55.3623C293.26 55.4508 293.604 55.7008 293.896 56.0394C294.344 56.5498 294.625 57.1487 294.833 57.7894C295.26 59.1227 295.307 60.4977 295.312 61.8779Z" fill="#7D875B"/>
<path d="M263.119 123.998C265.197 124.04 267.275 124.035 269.348 124.144C270.317 124.191 271.317 124.331 272.228 124.639C274.348 125.368 275.041 126.436 275.218 128.686C275.322 130.05 275.337 131.436 275.134 132.805C275.03 133.503 275.041 134.222 275.03 134.925C275.009 137.41 274.733 139.868 274.327 142.316C274.166 143.279 273.916 144.243 273.577 145.16C272.952 146.868 271.77 148.019 269.916 148.258C268.207 148.477 266.488 148.644 264.775 148.722C262.072 148.847 259.369 148.91 256.666 148.946C254.551 148.977 252.431 148.982 250.317 148.894C248.837 148.826 247.348 148.66 245.916 148.206C245.692 148.139 245.462 148.071 245.244 147.993C243.431 147.347 242.801 146.503 242.765 144.587C242.728 143.05 242.801 141.519 243.098 140.008C243.478 138.076 243.879 136.154 244.254 134.222C244.541 132.722 244.796 131.206 245.072 129.701C245.145 129.316 245.254 128.941 245.353 128.561C245.499 128.008 245.744 127.555 246.327 127.321C246.598 127.217 246.811 126.93 246.999 126.691C247.426 126.149 247.957 125.769 248.582 125.503C249.744 125.014 250.952 124.717 252.207 124.55C255.832 124.087 259.478 124.102 263.119 123.998Z" fill="#7D875B"/>
<path d="M261.249 137.446C261.207 137.691 261.176 137.805 261.171 137.925C261.124 139.102 260.437 139.837 259.405 140.186C258.135 140.613 256.864 140.587 255.734 139.686C255.082 139.165 254.822 138.524 255.051 137.706C255.088 137.566 255.114 137.415 255.14 137.316C254.088 136.227 253.082 135.18 252.077 134.134C250.624 132.634 249.426 130.936 248.254 129.217C248.103 128.993 247.984 128.727 247.947 128.467C247.921 128.311 248.036 128.061 248.171 127.982C248.301 127.899 248.556 127.915 248.713 127.993C248.869 128.071 248.999 128.253 249.098 128.415C250.234 130.222 251.577 131.857 253.004 133.425C253.744 134.232 254.562 134.977 255.343 135.743C255.744 136.139 256.192 136.29 256.728 135.998C256.895 135.904 257.098 135.868 257.286 135.811C258.025 135.607 258.754 135.581 259.442 136.003C259.51 136.045 259.577 136.076 259.645 136.118C260.129 136.404 260.588 136.415 261.072 136.087C262.207 135.321 263.416 134.644 264.494 133.805C266.077 132.581 267.562 131.238 269.103 129.967C269.52 129.613 269.973 129.3 270.437 129.009C270.713 128.837 271.025 128.941 271.161 129.17C271.296 129.404 271.254 129.634 271.093 129.821C270.89 130.061 270.671 130.295 270.431 130.493C268.395 132.149 266.515 134.003 264.332 135.482C263.687 135.92 263.025 136.337 262.364 136.759C261.999 136.988 261.635 137.212 261.249 137.446Z" fill="#989979"/>
<path d="M256.436 92.7527C256.78 92.7267 257.004 92.6798 257.228 92.7006C257.572 92.7267 257.77 93.1225 257.592 93.4038C257.483 93.5652 257.348 93.7163 257.197 93.8309C256.556 94.284 255.905 94.7163 255.264 95.1694C255.014 95.3517 254.728 95.5236 254.566 95.7684C253.712 97.0861 252.889 98.4298 252.061 99.7579C252.27 100.56 252.176 101.336 252.113 102.123C251.999 103.69 251.796 105.242 251.514 106.789C251.473 107.024 251.514 107.279 251.436 107.492C251.181 108.201 251.41 108.8 251.77 109.388C252.348 110.341 253.025 111.195 253.884 111.909C254.056 112.055 254.238 112.221 254.358 112.414C254.494 112.633 254.431 112.904 254.228 113.044C254.092 113.133 253.827 113.175 253.697 113.102C253.322 112.893 252.978 112.628 252.65 112.352C252.322 112.081 252.03 111.774 251.65 111.409C251.447 111.826 251.488 112.175 251.54 112.498C251.77 113.935 252.004 115.367 252.28 116.789C252.374 117.289 252.603 117.758 252.744 118.253C252.895 118.789 252.759 119.164 252.415 119.242C252.103 119.31 251.816 119.128 251.619 118.685C251.452 118.294 251.316 117.899 251.087 117.284C250.947 118.341 250.869 119.159 250.728 119.966C250.66 120.341 250.509 120.716 250.332 121.06C250.181 121.357 249.655 121.294 249.577 120.982C249.494 120.643 249.436 120.279 249.483 119.945C249.691 118.383 249.983 116.841 250.171 115.279C250.29 114.284 250.509 113.289 250.301 112.253C250.134 111.409 250.16 110.529 250.119 109.664C250.066 108.518 250.197 107.388 250.389 106.263C250.577 105.138 250.78 104.018 250.947 102.893C250.994 102.56 250.957 102.211 250.957 101.867C250.639 101.857 250.587 102.081 250.483 102.232C249.29 103.992 248.113 105.758 246.926 107.513C244.978 110.383 242.842 113.102 240.27 115.44C240.066 115.623 239.863 115.815 239.634 115.961C239.389 116.123 239.113 116.117 238.853 115.966C238.655 115.846 238.551 115.524 238.686 115.352C238.832 115.169 239.004 115.003 239.181 114.852C240.749 113.529 242.072 111.977 243.337 110.367C245.827 107.211 247.967 103.82 250.108 100.435C251.915 97.5756 253.691 94.6954 255.473 91.8256C255.723 91.4246 255.931 90.9975 256.186 90.6017C256.332 90.3777 256.514 90.159 256.717 89.9871C256.983 89.7684 257.415 89.9715 257.405 90.3204C257.395 90.6225 257.327 90.9402 257.212 91.2215C256.999 91.7163 256.728 92.185 256.436 92.7527Z" fill="#AF524B"/>
</svg>
