<svg width="20" height="20" viewBox="0 0 20 20" fill="none" xmlns="http://www.w3.org/2000/svg">
<circle cx="10" cy="10" r="10" transform="matrix(-1 0 0 1 20 0)" fill="#ECCA19"/>
<path d="M8.04074 14.3603C7.97567 14.3603 7.91216 14.3513 7.84958 14.3328C7.7873 14.3145 7.72905 14.2872 7.67484 14.2516C7.62031 14.216 7.57228 14.1732 7.53046 14.1233C7.48863 14.0734 7.45455 14.0186 7.42883 13.9588C7.40312 13.899 7.38639 13.8367 7.37895 13.772C7.37121 13.7072 7.37307 13.6428 7.38453 13.5786C7.39568 13.5145 7.41613 13.4532 7.44525 13.3949C7.47469 13.3367 7.51156 13.284 7.55617 13.2366L10.4295 10.1669L7.55617 7.0968C7.52891 7.06458 7.50474 7.03019 7.48398 6.99332C7.46322 6.95645 7.44618 6.91803 7.43255 6.87775C7.41923 6.83778 7.40963 6.79658 7.40405 6.75475C7.39847 6.71261 7.39661 6.67048 7.39909 6.62834C7.40157 6.58621 7.40777 6.54438 7.41799 6.50348C7.42852 6.46228 7.44247 6.42262 7.46044 6.3842C7.4781 6.34578 7.49947 6.30953 7.52426 6.27514C7.54905 6.24106 7.57662 6.20915 7.6076 6.18034C7.63828 6.15121 7.67143 6.1255 7.70706 6.10288C7.743 6.08026 7.78049 6.06136 7.81983 6.04587C7.85887 6.03038 7.89946 6.01892 7.94097 6.01117C7.98249 6.00343 8.02432 5.99971 8.06645 6.00002C8.10859 6.00033 8.15042 6.00467 8.19193 6.01272C8.23345 6.02109 8.27373 6.03317 8.31276 6.04928C8.3518 6.06539 8.38898 6.08491 8.4243 6.10784C8.45962 6.13107 8.49246 6.15741 8.52283 6.18684L11.8206 9.71451C11.8491 9.74518 11.8745 9.77802 11.8968 9.81334C11.9194 9.84897 11.9383 9.88615 11.9535 9.92519C11.969 9.96423 11.9805 10.0042 11.9882 10.0454C11.9963 10.0866 12 10.1281 12 10.1699C12 10.2121 11.9963 10.2536 11.9882 10.2948C11.9805 10.336 11.969 10.376 11.9535 10.415C11.9383 10.4541 11.9194 10.4912 11.8968 10.5266C11.8745 10.5622 11.8491 10.595 11.8206 10.6257L8.52499 14.1503C8.46241 14.2175 8.38898 14.2692 8.30471 14.3058C8.22044 14.3424 8.13245 14.3606 8.04074 14.3603Z" fill="#2F3281"/>
</svg>
