<svg width="699" height="354" viewBox="0 0 699 354" fill="none" xmlns="http://www.w3.org/2000/svg">
<mask id="mask0_2123_75" style="mask-type:luminance" maskUnits="userSpaceOnUse" x="3" y="0" width="693" height="346">
<path d="M3 0H696V346H3V0Z" fill="white"/>
</mask>
<g mask="url(#mask0_2123_75)">
<path d="M103.139 57.6596C124.573 69.7006 108.192 21.5464 159.781 4.85482C169.018 1.90064 178.254 0.847662 187.668 0.847662C295.731 0.847662 403.617 0.847662 511.68 0.847662C542.005 -0.000568509 574.598 15.8428 583.143 54.2764C584.012 57.6596 584.358 59.5608 588.018 59.1416C650.414 49.8403 663.311 122.925 693.99 170.65C695.382 172.765 694.859 173.818 693.644 175.72C680.392 196.633 670.633 219.867 659.127 242.038C642.746 274.144 619.743 291.469 587.496 287.033C584.881 286.604 583.835 287.238 583.143 290.621C574.421 326.948 551.941 341.095 523.008 344.683C411.639 346.165 300.084 344.683 188.537 345.317C157.689 346.584 124.404 331.385 115.682 291.888C114.813 288.505 114.636 286.604 110.807 287.238C48.0574 296.324 35.683 223.669 4.83546 175.72C3.6125 173.818 3.7895 172.551 5.01246 170.65C36.906 122.71 42.6587 61.462 103.139 57.6596Z" fill="#D72327"/>
</g>
<g filter="url(#filter0_d_2123_75)">
<mask id="mask1_2123_75" style="mask-type:luminance" maskUnits="userSpaceOnUse" x="3" y="0" width="693" height="346">
<path d="M3 0H696V346H3V0Z" fill="white"/>
</mask>
<g mask="url(#mask1_2123_75)">
<path d="M103.139 57.6596C124.573 69.7006 108.192 21.5464 159.781 4.85482C169.018 1.90064 178.254 0.847662 187.668 0.847662C295.731 0.847662 403.617 0.847662 511.68 0.847662C542.005 -0.000568509 574.598 15.8428 583.143 54.2764C584.012 57.6596 584.358 59.5608 588.018 59.1416C650.414 49.8403 663.311 122.925 693.99 170.65C695.382 172.765 694.859 173.818 693.644 175.72C680.392 196.633 670.633 219.867 659.127 242.038C642.746 274.144 619.743 291.469 587.496 287.033C584.881 286.604 583.835 287.238 583.143 290.621C574.421 326.948 551.941 341.095 523.008 344.683C411.639 346.165 300.084 344.683 188.537 345.317C157.689 346.584 124.404 331.385 115.682 291.888C114.813 288.505 114.636 286.604 110.807 287.238C48.0574 296.324 35.683 223.669 4.83546 175.72C3.6125 173.818 3.7895 172.551 5.01246 170.65C36.906 122.71 42.6587 61.462 103.139 57.6596Z" fill="#D72327"/>
</g>
</g>
<mask id="mask2_2123_75" style="mask-type:luminance" maskUnits="userSpaceOnUse" x="23" y="1" width="653" height="345">
<path d="M23 1.14941H676V346H23V1.14941Z" fill="white"/>
</mask>
<g mask="url(#mask2_2123_75)">
<path d="M117.356 58.6167C137.553 70.6177 122.117 22.6236 170.729 5.9874C179.433 3.04303 188.136 1.99355 197.006 1.99355C298.832 1.99355 400.491 1.99355 502.316 1.99355C530.89 1.14814 561.603 16.9389 569.654 55.2448C570.473 58.6167 570.799 60.5116 574.248 60.0938C633.042 50.8234 645.195 123.665 674.103 171.232C675.414 173.34 674.922 174.39 673.777 176.285C661.29 197.128 652.094 220.285 641.253 242.382C625.817 274.382 604.142 291.649 573.756 287.228C571.292 286.8 570.306 287.432 569.654 290.804C561.436 327.011 540.253 341.111 512.991 344.687C408.049 346.164 302.933 344.687 197.825 345.318C168.758 346.582 137.394 331.432 129.176 292.067C128.357 288.695 128.19 286.8 124.581 287.432C65.454 296.489 53.7938 224.075 24.7268 176.285C23.5744 174.39 23.7412 173.126 24.8936 171.232C54.9462 123.451 60.3669 62.4065 117.356 58.6167Z" fill="#ECCA19"/>
</g>
<g filter="url(#filter1_i_2123_75)">
<mask id="mask3_2123_75" style="mask-type:luminance" maskUnits="userSpaceOnUse" x="23" y="1" width="653" height="345">
<path d="M23 1.14941H676V346H23V1.14941Z" fill="white"/>
</mask>
<g mask="url(#mask3_2123_75)">
<path d="M117.356 58.6167C137.553 70.6177 122.117 22.6236 170.729 5.9874C179.433 3.04303 188.136 1.99355 197.006 1.99355C298.832 1.99355 400.491 1.99355 502.316 1.99355C530.89 1.14814 561.603 16.9389 569.654 55.2448C570.473 58.6167 570.799 60.5116 574.248 60.0938C633.042 50.8234 645.195 123.665 674.103 171.232C675.414 173.34 674.922 174.39 673.777 176.285C661.29 197.128 652.094 220.285 641.253 242.382C625.817 274.382 604.142 291.649 573.756 287.228C571.292 286.8 570.306 287.432 569.654 290.804C561.436 327.011 540.253 341.111 512.991 344.687C408.049 346.164 302.933 344.687 197.825 345.318C168.758 346.582 137.394 331.432 129.176 292.067C128.357 288.695 128.19 286.8 124.581 287.432C65.454 296.489 53.7938 224.075 24.7268 176.285C23.5744 174.39 23.7412 173.126 24.8936 171.232C54.9462 123.451 60.3669 62.4065 117.356 58.6167Z" fill="#ECCA19"/>
</g>
</g>
<defs>
<filter id="filter0_d_2123_75" x="0.00195312" y="0.81543" width="698.818" height="352.574" filterUnits="userSpaceOnUse" color-interpolation-filters="sRGB">
<feFlood flood-opacity="0" result="BackgroundImageFix"/>
<feColorMatrix in="SourceAlpha" type="matrix" values="0 0 0 0 0 0 0 0 0 0 0 0 0 0 0 0 0 0 127 0" result="hardAlpha"/>
<feOffset dy="4"/>
<feGaussianBlur stdDeviation="2"/>
<feComposite in2="hardAlpha" operator="out"/>
<feColorMatrix type="matrix" values="0 0 0 0 0 0 0 0 0 0 0 0 0 0 0 0 0 0 0.25 0"/>
<feBlend mode="normal" in2="BackgroundImageFix" result="effect1_dropShadow_2123_75"/>
<feBlend mode="normal" in="SourceGraphic" in2="effect1_dropShadow_2123_75" result="shape"/>
</filter>
<filter id="filter1_i_2123_75" x="23.9414" y="1.96143" width="650.945" height="347.43" filterUnits="userSpaceOnUse" color-interpolation-filters="sRGB">
<feFlood flood-opacity="0" result="BackgroundImageFix"/>
<feBlend mode="normal" in="SourceGraphic" in2="BackgroundImageFix" result="shape"/>
<feColorMatrix in="SourceAlpha" type="matrix" values="0 0 0 0 0 0 0 0 0 0 0 0 0 0 0 0 0 0 127 0" result="hardAlpha"/>
<feOffset dy="7"/>
<feGaussianBlur stdDeviation="2"/>
<feComposite in2="hardAlpha" operator="arithmetic" k2="-1" k3="1"/>
<feColorMatrix type="matrix" values="0 0 0 0 0 0 0 0 0 0 0 0 0 0 0 0 0 0 0.25 0"/>
<feBlend mode="normal" in2="shape" result="effect1_innerShadow_2123_75"/>
</filter>
</defs>
</svg>
