<svg width="699" height="354" viewBox="0 0 699 354" fill="none" xmlns="http://www.w3.org/2000/svg">
<g filter="url(#filter0_d_2095_4586)">
<mask id="mask0_2095_4586" style="mask-type:luminance" maskUnits="userSpaceOnUse" x="3" y="0" width="693" height="346">
<path d="M3 0H696V346H3V0Z" fill="white"/>
</mask>
<g mask="url(#mask0_2095_4586)">
<path d="M103.139 57.6596C124.573 69.7006 108.192 21.5464 159.781 4.85482C169.018 1.90064 178.254 0.847662 187.668 0.847662C295.731 0.847662 403.617 0.847662 511.68 0.847662C542.005 -0.000568509 574.598 15.8428 583.143 54.2764C584.012 57.6596 584.358 59.5608 588.018 59.1416C650.414 49.8403 663.311 122.925 693.99 170.65C695.382 172.765 694.859 173.818 693.644 175.72C680.392 196.633 670.633 219.867 659.127 242.038C642.746 274.144 619.743 291.469 587.496 287.033C584.881 286.604 583.835 287.238 583.143 290.621C574.421 326.948 551.941 341.095 523.008 344.683C411.639 346.165 300.084 344.683 188.537 345.317C157.689 346.584 124.404 331.385 115.682 291.888C114.813 288.505 114.636 286.604 110.807 287.238C48.0574 296.324 35.683 223.669 4.83546 175.72C3.6125 173.818 3.7895 172.551 5.01246 170.65C36.906 122.71 42.6587 61.462 103.139 57.6596Z" fill="#D72327"/>
</g>
</g>
<defs>
<filter id="filter0_d_2095_4586" x="0.00195312" y="0.81543" width="698.818" height="352.574" filterUnits="userSpaceOnUse" color-interpolation-filters="sRGB">
<feFlood flood-opacity="0" result="BackgroundImageFix"/>
<feColorMatrix in="SourceAlpha" type="matrix" values="0 0 0 0 0 0 0 0 0 0 0 0 0 0 0 0 0 0 127 0" result="hardAlpha"/>
<feOffset dy="4"/>
<feGaussianBlur stdDeviation="2"/>
<feComposite in2="hardAlpha" operator="out"/>
<feColorMatrix type="matrix" values="0 0 0 0 0 0 0 0 0 0 0 0 0 0 0 0 0 0 0.25 0"/>
<feBlend mode="normal" in2="BackgroundImageFix" result="effect1_dropShadow_2095_4586"/>
<feBlend mode="normal" in="SourceGraphic" in2="effect1_dropShadow_2095_4586" result="shape"/>
</filter>
</defs>
</svg>
