<svg width="78" height="80" viewBox="0 0 78 80" fill="none" xmlns="http://www.w3.org/2000/svg">
<mask id="mask0_36_5659" style="mask-type:luminance" maskUnits="userSpaceOnUse" x="29" y="22" width="33" height="32">
<path d="M38.7395 22.8164L61.8723 33.0023L52.6753 53.8892L29.5425 43.7033L38.7395 22.8164Z" fill="white"/>
</mask>
<g mask="url(#mask0_36_5659)">
<mask id="mask1_36_5659" style="mask-type:luminance" maskUnits="userSpaceOnUse" x="-9" y="-13" width="81" height="97">
<path d="M-8.20578 6.25667L43.1939 -12.2036L71.1025 65.5006L19.7028 83.9608L-8.20578 6.25667Z" fill="white"/>
</mask>
<g mask="url(#mask1_36_5659)">
<mask id="mask2_36_5659" style="mask-type:luminance" maskUnits="userSpaceOnUse" x="-9" y="-13" width="81" height="97">
<path d="M-8.20651 6.25594L43.1932 -12.2043L71.1018 65.4998L19.7021 83.9601L-8.20651 6.25594Z" fill="white"/>
</mask>
<g mask="url(#mask2_36_5659)">
<path d="M38.7275 24.4506C38.7241 24.6177 38.7193 24.7905 38.7164 24.9684C38.7142 25.0564 38.714 25.1474 38.7128 25.2381C38.7106 25.412 38.7087 25.5924 38.7074 25.7761C38.7071 25.8766 38.7061 25.9788 38.7065 26.0826C38.7059 26.2719 38.7065 26.4681 38.7084 26.6658C38.7096 26.7701 38.71 26.8739 38.7105 26.9799C38.7139 27.2003 38.7169 27.4268 38.7224 27.6545C38.7243 27.7454 38.7257 27.835 38.7276 27.928C38.7435 28.5771 38.7705 29.2603 38.8111 29.9674C38.816 30.068 38.824 30.1711 38.8298 30.2721C38.8452 30.525 38.8611 30.7792 38.8797 31.0366C38.8896 31.1688 38.9012 31.3017 38.9111 31.4338C38.9303 31.6685 38.9495 31.9032 38.9724 32.1416C38.9854 32.2856 38.9998 32.4313 39.0143 32.5769C39.0371 32.808 39.0623 33.0411 39.0887 33.2737C39.1056 33.4257 39.1237 33.5772 39.1415 33.7295C39.1702 33.9663 39.2021 34.2056 39.2344 34.4461C39.254 34.5919 39.2736 34.7377 39.2941 34.8839C39.3327 35.1482 39.3735 35.4123 39.4174 35.6767C39.4368 35.8015 39.4557 35.925 39.4764 36.0493C39.6079 36.8258 39.7615 37.6046 39.9392 38.3783C39.9666 38.4993 39.9973 38.6175 40.0259 38.738C40.0891 39.0036 40.154 39.2679 40.2231 39.5319C40.2611 39.6764 40.3016 39.8199 40.3425 39.9625C40.4082 40.201 40.4761 40.4393 40.5478 40.6761C40.5938 40.8262 40.6414 40.975 40.6881 41.1234C40.7611 41.3524 40.8371 41.5796 40.915 41.8046C40.9665 41.954 41.0188 42.1017 41.0729 42.2501C41.156 42.4752 41.242 42.6985 41.3306 42.9208C41.3855 43.0602 41.4412 43.1999 41.4986 43.3383C41.5987 43.5772 41.7055 43.8128 41.8127 44.0475C41.8642 44.1613 41.9149 44.2768 41.9681 44.3893C42.2969 45.0745 42.6569 45.7316 43.0531 46.3543C43.1173 46.4559 43.1877 46.5529 43.2539 46.6522C43.3915 46.8584 43.5303 47.0641 43.676 47.2612C43.7592 47.3743 43.8465 47.4829 43.9322 47.5929C44.07 47.7699 44.2103 47.9437 44.3545 48.1109C44.4501 48.2221 44.5472 48.3298 44.646 48.4362C44.7915 48.5956 44.9425 48.75 45.0958 48.9013C45.199 49.0023 45.3035 49.1028 45.41 49.201C45.5713 49.3485 45.7387 49.4892 45.9073 49.6273C46.0142 49.7152 46.1198 49.8036 46.2295 49.8875C46.4194 50.0319 46.6182 50.1655 46.8174 50.2983C46.9158 50.3626 47.0098 50.4322 47.1103 50.4943C47.4134 50.6812 47.7267 50.8569 48.053 51.0152C48.7753 51.3657 49.4801 51.7536 50.1748 52.1621C50.2999 52.2349 50.4244 52.3065 50.5474 52.3816C51.21 52.7844 51.8585 53.2124 52.4884 53.6657C52.5382 53.7002 52.5893 53.7291 52.6378 53.764C52.6402 53.7588 52.6446 53.7534 52.6469 53.7481C52.6764 53.693 52.6979 53.6323 52.7253 53.5773C52.8404 53.3421 52.9484 53.1016 53.0426 52.8519C53.0841 52.7434 53.1171 52.6281 53.1549 52.5159C53.2251 52.309 53.2917 52.1006 53.3485 51.8837C53.3833 51.7524 53.4105 51.6167 53.4404 51.4822C53.4852 51.2735 53.5281 51.062 53.5621 50.8444C53.585 50.6995 53.604 50.5518 53.622 50.4037C53.6481 50.1827 53.6689 49.9572 53.6847 49.7285C53.6944 49.5757 53.7045 49.4219 53.7102 49.2663C53.7186 49.0259 53.7177 48.7783 53.714 48.5274C53.7121 48.3747 53.7124 48.2241 53.7052 48.0669C53.6936 47.7863 53.6696 47.4982 53.6438 47.2072C53.6317 47.073 53.6248 46.9412 53.6095 46.8046C53.5613 46.3717 53.5002 45.93 53.4209 45.4751C53.4208 45.473 53.4193 45.4692 53.4196 45.4661C53.2854 44.6959 53.1238 43.9544 52.9513 43.228C52.9168 43.0829 52.883 42.936 52.8472 42.7936C52.6711 42.097 52.4808 41.4183 52.2736 40.7614C52.2356 40.6431 52.1965 40.5274 52.1572 40.4096C51.9534 39.7878 51.7387 39.1811 51.5105 38.5957C51.487 38.535 51.4649 38.4708 51.4414 38.4102C51.1947 37.7905 50.9339 37.1959 50.6634 36.616C50.6083 36.4985 50.5532 36.381 50.4977 36.2644C50.2254 35.6983 49.9456 35.1467 49.6542 34.6193C49.6179 34.5541 49.581 34.4928 49.5453 34.4289C49.2668 33.9313 48.9807 33.4513 48.6893 32.9879C48.6442 32.9167 48.5998 32.8416 48.5543 32.7713C48.2456 32.2876 47.9295 31.8258 47.611 31.3787C47.5488 31.2916 47.4867 31.2067 47.4241 31.1205C47.0989 30.6745 46.7708 30.2421 46.4405 29.8337C46.4318 29.8226 46.4224 29.8132 46.4128 29.8016C46.0852 29.3966 45.7553 29.0136 45.4257 28.6443C45.3698 28.5809 45.3129 28.515 45.2554 28.453C44.93 28.0929 44.606 27.7513 44.2853 27.4257C44.2294 27.3697 44.1744 27.3161 44.1202 27.2608C43.8021 26.9438 43.4863 26.6382 43.1766 26.3541C43.1649 26.3427 43.1528 26.3321 43.142 26.3211C42.8211 26.0269 42.5086 25.7542 42.2028 25.4949C42.1486 25.449 42.0936 25.4028 42.0408 25.3586C41.7433 25.1113 41.4541 24.8761 41.1752 24.6601C41.1423 24.6351 41.1115 24.6121 41.0785 24.5871C40.8087 24.3793 40.5477 24.1848 40.2991 24.0072C40.2781 23.9906 40.2541 23.9738 40.2323 23.959C39.9735 23.7738 39.7288 23.6063 39.4998 23.4531C39.4679 23.4328 39.4373 23.412 39.4071 23.3924C39.1814 23.2438 38.9674 23.1066 38.7771 22.9893C38.7684 23.1709 38.7596 23.3692 38.7507 23.5821C38.7501 23.6143 38.749 23.6525 38.7477 23.6865C38.7412 23.8606 38.7355 24.0425 38.7293 24.2325C38.7314 24.3015 38.7304 24.3775 38.7275 24.4506Z" fill="#D9D9D9"/>
</g>
</g>
</g>
<mask id="mask3_36_5659" style="mask-type:luminance" maskUnits="userSpaceOnUse" x="0" y="0" width="10" height="11">
<path d="M3.92989 0.785461L9.32006 3.15887L6.05663 10.5703L0.666461 8.19694L3.92989 0.785461Z" fill="white"/>
</mask>
<g mask="url(#mask3_36_5659)">
<mask id="mask4_36_5659" style="mask-type:luminance" maskUnits="userSpaceOnUse" x="-9" y="-13" width="81" height="97">
<path d="M-8.20735 6.2546L43.1924 -12.2057L71.101 65.4985L19.7012 83.9587L-8.20735 6.2546Z" fill="white"/>
</mask>
<g mask="url(#mask4_36_5659)">
<mask id="mask5_36_5659" style="mask-type:luminance" maskUnits="userSpaceOnUse" x="-9" y="-13" width="81" height="97">
<path d="M-8.20615 6.25331L43.1936 -12.2069L71.1022 65.4972L19.7025 83.9575L-8.20615 6.25331Z" fill="white"/>
</mask>
<g mask="url(#mask5_36_5659)">
<path d="M7.77635 5.41339C8.02519 5.12181 8.26992 4.85146 8.51064 4.60448C7.87845 3.55209 6.66297 1.93806 5.37384 1.71397C4.75698 1.6068 4.15241 1.84754 3.52603 2.44945C1.38698 4.50524 3.34288 7.96297 4.55717 9.68435C5.37864 8.38489 6.44665 6.97507 7.77635 5.41339Z" fill="#D9D9D9"/>
</g>
</g>
</g>
<mask id="mask6_36_5659" style="mask-type:luminance" maskUnits="userSpaceOnUse" x="3" y="2" width="13" height="18">
<path d="M9.19391 2.83636L15.0333 5.40755L9.00084 19.1076L3.1615 16.5364L9.19391 2.83636Z" fill="white"/>
</mask>
<g mask="url(#mask6_36_5659)">
<mask id="mask7_36_5659" style="mask-type:luminance" maskUnits="userSpaceOnUse" x="-9" y="-13" width="81" height="97">
<path d="M-8.20602 6.2571L43.1937 -12.2032L71.1023 65.501L19.7026 83.9612L-8.20602 6.2571Z" fill="white"/>
</mask>
<g mask="url(#mask7_36_5659)">
<mask id="mask8_36_5659" style="mask-type:luminance" maskUnits="userSpaceOnUse" x="-9" y="-13" width="81" height="97">
<path d="M-8.20675 6.25637L43.1929 -12.2039L71.1015 65.5003L19.7018 83.9605L-8.20675 6.25637Z" fill="white"/>
</mask>
<g mask="url(#mask8_36_5659)">
<path d="M11.7561 8.94297C12.6232 7.99666 13.4356 7.26719 14.2071 6.72814C13.9619 5.87442 13.4384 4.61327 12.6168 4.39078C11.8155 4.17202 10.5984 4.96421 9.1916 6.61764C4.70872 11.8865 3.82559 14.7509 4.54639 17.1411C5.90595 15.1809 7.7219 13.2499 9.67003 11.1782C10.3478 10.4596 11.0488 9.71666 11.7561 8.94297Z" fill="#D9D9D9"/>
</g>
</g>
</g>
<mask id="mask9_36_5659" style="mask-type:luminance" maskUnits="userSpaceOnUse" x="1" y="9" width="77" height="71">
<path d="M21.6005 9.3717L77.5234 33.9958L57.5473 79.363L1.62428 54.7389L21.6005 9.3717Z" fill="white"/>
</mask>
<g mask="url(#mask9_36_5659)">
<mask id="mask10_36_5659" style="mask-type:luminance" maskUnits="userSpaceOnUse" x="-9" y="-13" width="81" height="97">
<path d="M-8.20559 6.256L43.1941 -12.2043L71.1027 65.4999L19.703 83.9601L-8.20559 6.256Z" fill="white"/>
</mask>
<g mask="url(#mask10_36_5659)">
<mask id="mask11_36_5659" style="mask-type:luminance" maskUnits="userSpaceOnUse" x="-9" y="-13" width="81" height="97">
<path d="M-8.2058 6.25411L43.1939 -12.2061L71.1025 65.498L19.7028 83.9583L-8.2058 6.25411Z" fill="white"/>
</mask>
<g mask="url(#mask11_36_5659)">
<path d="M32.4956 63.9431C34.4082 63.9976 36.3854 64.0554 38.4661 64.1777C50.1012 64.8567 58.5818 67.2859 62.2734 68.5311C61.2987 66.4439 59.3889 62.9363 56.303 59.5424C56.2953 59.5338 56.2867 59.5248 56.2785 59.5149C55.6661 58.8409 55.0294 58.1961 54.3708 57.5866C53.7121 56.975 53.0327 56.3983 52.3368 55.8594C50.7522 54.6222 49.0403 53.5553 47.2436 52.6856C34.7791 46.6494 36.9272 22.3938 37.0245 21.3641C37.0293 21.3222 37.035 21.2807 37.0446 21.2399C37.05 21.2182 37.0755 21.0985 37.0973 20.9038C37.1005 20.8728 37.1045 20.8327 37.1075 20.7973C37.1113 20.7602 37.1148 20.7262 37.1179 20.6857C37.1193 20.6611 37.12 20.631 37.1213 20.6044C37.1244 20.545 37.128 20.4869 37.1303 20.4198C37.1298 20.4112 37.1302 20.4009 37.1298 20.3924C37.1332 20.2085 37.1291 20.0014 37.1107 19.7744C37.1088 19.7526 37.1055 19.7291 37.1036 19.7073C37.0936 19.6087 37.0844 19.5083 37.0686 19.4039C37.0642 19.3758 37.0576 19.3456 37.0536 19.3166C37.0374 19.2153 37.02 19.1123 36.9981 19.0073C36.9913 18.9729 36.9796 18.9374 36.9719 18.9026C36.948 18.7999 36.9236 18.6959 36.8927 18.5901C36.8798 18.5457 36.862 18.4981 36.8477 18.452C36.8155 18.354 36.7862 18.2563 36.7487 18.156C36.7285 18.102 36.7022 18.0475 36.6794 17.9945C36.6413 17.9002 36.6046 17.8076 36.5596 17.7124C36.5328 17.6545 36.4973 17.597 36.4674 17.5388C36.42 17.4467 36.3742 17.3532 36.3199 17.2601C36.2844 17.2005 36.241 17.1395 36.202 17.0783C36.1443 16.988 36.0897 16.898 36.0261 16.8071C35.9791 16.7424 35.9232 16.6791 35.8733 16.6141C35.8064 16.5281 35.7447 16.4423 35.6706 16.3584C35.6124 16.2908 35.5435 16.226 35.481 16.1586C35.4045 16.0778 35.3323 15.9968 35.2503 15.9167C35.2338 15.9042 35.2265 15.8947 35.2108 15.8826C35.1374 15.8209 35.0828 15.7738 35.0456 15.7344C35.039 15.7304 35.0328 15.7256 35.0269 15.7199C33.7544 14.5992 31.9107 13.8031 29.5425 13.3511C29.5396 13.3529 29.5375 13.353 29.5342 13.3558C29.5221 13.3641 29.5047 13.3752 29.4901 13.3845C29.4119 13.436 29.3226 13.4962 29.2187 13.5656C29.1738 13.5962 29.1182 13.6345 29.0688 13.6682C28.9823 13.7266 28.8955 13.7857 28.7967 13.8532C28.7319 13.898 28.656 13.9515 28.5863 14.0004C28.4874 14.0679 28.3903 14.1362 28.2833 14.2127C28.1983 14.2727 28.1037 14.3399 28.0142 14.4053C27.9059 14.4822 27.7989 14.5587 27.6842 14.6433C27.581 14.7183 27.4699 14.7993 27.361 14.8802C27.2462 14.9647 27.1298 15.0507 27.0094 15.1411C26.8905 15.2302 26.7664 15.3243 26.6426 15.4175C26.5168 15.5129 26.3893 15.6097 26.2591 15.7105C26.1292 15.8104 25.9956 15.9139 25.8609 16.0201C25.7265 16.1254 25.5885 16.2343 25.4488 16.3446C25.3084 16.4566 25.1646 16.5714 25.0201 16.6879C24.8772 16.803 24.7312 16.923 24.5851 17.0431C24.4357 17.1658 24.2852 17.2912 24.1326 17.4189C23.9834 17.5438 23.8326 17.6722 23.6805 17.8011C23.5214 17.9363 23.3629 18.0729 23.2015 18.2134C23.0488 18.3462 22.8937 18.4842 22.7385 18.6202C22.5723 18.7669 22.407 18.9141 22.2384 19.0661C22.0831 19.2072 21.9242 19.354 21.7669 19.4995C21.5964 19.6559 21.4268 19.8127 21.254 19.9744C21.0941 20.126 20.933 20.2824 20.7711 20.4384C20.5994 20.6047 20.4259 20.7681 20.2527 20.9401C20.0898 21.1009 19.9259 21.2686 19.7618 21.4341C19.5901 21.6078 19.4169 21.7798 19.2441 21.9582C19.0775 22.132 18.9103 22.3119 18.7438 22.4878C18.575 22.669 18.405 22.8435 18.2363 23.029C17.9222 23.3714 17.6101 23.721 17.2996 24.0787C17.1351 24.2692 16.9722 24.4656 16.8092 24.6598C16.6347 24.8658 16.4593 25.0714 16.2868 25.2824C16.1309 25.4746 15.9779 25.6722 15.824 25.8673C15.6595 26.0766 15.4928 26.2839 15.332 26.4969C15.18 26.6971 15.0317 26.9031 14.882 27.1074C14.7234 27.3225 14.5652 27.5366 14.4111 27.7558C14.2642 27.9634 14.1222 28.1764 13.9789 28.3877C13.8284 28.6105 13.6774 28.8321 13.5306 29.0586C13.3921 29.2731 13.2573 29.4913 13.1232 29.7077C12.9812 29.9374 12.8389 30.168 12.701 30.4026C12.571 30.624 12.4455 30.8473 12.32 31.0728C12.1878 31.3089 12.056 31.5463 11.9304 31.7863C11.8106 32.0132 11.6952 32.2421 11.5803 32.4721C11.4591 32.7163 11.3385 32.9617 11.2237 33.2107C11.1169 33.4412 11.0124 33.6738 10.9114 33.9079C10.8014 34.1601 10.6958 34.4142 10.5941 34.669C10.5 34.9041 10.4085 35.1403 10.3202 35.379C10.2244 35.6395 10.135 35.9018 10.0475 36.1649C9.96771 36.4031 9.88882 36.6418 9.81695 36.8835C9.73524 37.1523 9.66396 37.4236 9.59267 37.6949C9.52887 37.935 9.46507 38.175 9.40906 38.4164C9.34462 38.696 9.29187 38.9775 9.23823 39.2587C9.19205 39.4992 9.14363 39.7376 9.10573 39.9807C9.05953 40.2735 9.02678 40.5691 8.99314 40.8643C8.96602 41.0996 8.93325 41.3334 8.91353 41.5708C8.88814 41.8854 8.87883 42.2039 8.86775 42.5216C8.86015 42.7435 8.84349 42.9645 8.84192 43.1869C8.84084 43.5509 8.8605 43.9178 8.87841 44.2838C8.88731 44.4658 8.88491 44.6449 8.89984 44.8275C8.94135 45.3778 9.00526 45.9297 9.0939 46.4871C9.09726 46.5033 9.10024 46.5203 9.10273 46.5361C9.12784 46.7336 9.16397 46.937 9.20456 47.135C12.3333 63.3575 20.3545 63.5901 32.4956 63.9431Z" fill="#D9D9D9"/>
</g>
</g>
</g>
<mask id="mask12_36_5659" style="mask-type:luminance" maskUnits="userSpaceOnUse" x="2" y="6" width="27" height="39">
<path d="M17.4071 6.71973L28.412 11.5654L13.8749 44.5802L2.86998 39.7345L17.4071 6.71973Z" fill="white"/>
</mask>
<g mask="url(#mask12_36_5659)">
<mask id="mask13_36_5659" style="mask-type:luminance" maskUnits="userSpaceOnUse" x="-9" y="-13" width="81" height="97">
<path d="M-8.20637 6.25496L43.1933 -12.2053L71.1019 65.4989L19.7022 83.9591L-8.20637 6.25496Z" fill="white"/>
</mask>
<g mask="url(#mask13_36_5659)">
<mask id="mask14_36_5659" style="mask-type:luminance" maskUnits="userSpaceOnUse" x="-9" y="-13" width="81" height="97">
<path d="M-8.20517 6.25368L43.1945 -12.2066L71.1031 65.4976L19.7034 83.9578L-8.20517 6.25368Z" fill="white"/>
</mask>
<g mask="url(#mask14_36_5659)">
<path d="M7.04312 41.4507C7.05051 41.3649 7.06317 41.2815 7.07056 41.1957C7.11027 40.744 7.16079 40.2938 7.22573 39.849C7.25123 39.6769 7.28198 39.5072 7.3101 39.3363C7.37057 38.9753 7.43794 38.6154 7.51409 38.2593C7.55289 38.0784 7.59295 37.897 7.63613 37.7181C7.72035 37.3603 7.81373 37.0055 7.91326 36.6534C7.95826 36.4941 8.00101 36.3328 8.04865 36.1747C8.18751 35.7142 8.33728 35.2575 8.49972 34.8053C8.51448 34.7647 8.52747 34.7233 8.54261 34.6818C8.7236 34.1875 8.91949 33.6997 9.12427 33.218C9.18587 33.0734 9.25322 32.9323 9.31619 32.7893C9.46579 32.4519 9.62104 32.116 9.78205 31.7836C9.86439 31.6157 9.94811 31.4493 10.0323 31.2843C10.191 30.9739 10.3527 30.666 10.5194 30.3613C10.606 30.2025 10.6918 30.0434 10.7811 29.8858C10.9732 29.5472 11.1702 29.2139 11.3716 28.8826C11.4395 28.7711 11.5056 28.6567 11.5744 28.5456C11.8462 28.1091 12.126 27.6782 12.413 27.2547C12.4815 27.154 12.5523 27.0574 12.6204 26.9575C12.8449 26.6332 13.0716 26.3109 13.303 25.9949C13.4084 25.8506 13.5151 25.7081 13.6228 25.5659C13.8246 25.2955 14.0291 25.0284 14.2351 24.7651C14.3482 24.6201 14.4622 24.4754 14.5775 24.3324C14.7924 24.0657 15.0083 23.8036 15.2253 23.5441C15.3303 23.4196 15.4328 23.294 15.538 23.1717C15.8436 22.8129 16.1517 22.4605 16.4611 22.117C16.4774 22.0991 16.4932 22.0798 16.5095 22.0619C16.832 21.7053 17.1562 21.3568 17.482 21.0164C17.5918 20.9003 17.7014 20.7893 17.81 20.6759C18.0323 20.447 18.2534 20.2207 18.4744 19.9996C18.5967 19.8764 18.7191 19.7554 18.8428 19.6339C19.057 19.4234 19.2701 19.2177 19.4824 19.0137C19.5989 18.9016 19.7153 18.7895 19.831 18.6812C20.0731 18.4526 20.3129 18.2315 20.5525 18.0133C20.633 17.9398 20.7138 17.8633 20.7948 17.7911C21.1093 17.5075 21.4199 17.2326 21.7261 16.9653C21.8146 16.888 21.9008 16.816 21.9894 16.7408C22.211 16.5493 22.4306 16.3621 22.6475 16.1811C22.7588 16.0877 22.8677 15.9974 22.977 15.9062C23.168 15.7483 23.3558 15.5954 23.5403 15.4451C23.6485 15.3587 23.755 15.2715 23.8612 15.1874C24.0533 15.0342 24.2388 14.8865 24.4245 14.7431C24.5117 14.6757 24.5993 14.6053 24.6849 14.5393C24.9451 14.3386 25.1986 14.1434 25.4408 13.962C25.4785 13.9335 25.5121 13.9096 25.5485 13.8816C25.7563 13.7259 25.9564 13.5784 26.1491 13.4381C26.2357 13.3746 26.3166 13.317 26.3999 13.2563C26.5384 13.1559 26.6715 13.0606 26.7996 12.9693C26.8818 12.9112 26.9597 12.8555 27.0382 12.801C27.1552 12.7184 27.2656 12.6413 27.3736 12.5674C27.4466 12.5158 27.5197 12.4663 27.5878 12.4187C27.6954 12.3456 27.7926 12.2795 27.8877 12.2156C27.9384 12.1814 27.9937 12.1439 28.041 12.1124C28.0423 12.1119 28.0431 12.1102 28.0452 12.1101C27.5515 11.502 26.6861 10.6747 25.4805 10.4109C24.7217 10.2455 23.9106 10.3178 23.0531 10.6262C22.3255 10.8872 21.5662 11.3175 20.7757 11.9162C20.1954 12.3541 19.5957 12.8955 18.9849 13.5189C18.6627 13.8463 18.34 14.1891 18.0133 14.5648C13.2 20.1082 9.17195 26.7514 6.63746 31.349C5.24861 33.8776 5.08991 36.8546 6.20291 39.5149L7.03749 41.5111C7.03742 41.4922 7.04066 41.4706 7.04312 41.4507Z" fill="#D9D9D9"/>
</g>
</g>
</g>
<mask id="mask15_36_5659" style="mask-type:luminance" maskUnits="userSpaceOnUse" x="1" y="4" width="20" height="28">
<path d="M11.5952 4.69666L20.3542 8.55344L10.3661 31.2371L1.60707 27.3803L11.5952 4.69666Z" fill="white"/>
</mask>
<g mask="url(#mask15_36_5659)">
<mask id="mask16_36_5659" style="mask-type:luminance" maskUnits="userSpaceOnUse" x="-9" y="-13" width="81" height="97">
<path d="M-8.20509 6.25661L43.1946 -12.2036L71.1032 65.5005L19.7035 83.9608L-8.20509 6.25661Z" fill="white"/>
</mask>
<g mask="url(#mask16_36_5659)">
<mask id="mask17_36_5659" style="mask-type:luminance" maskUnits="userSpaceOnUse" x="-9" y="-13" width="81" height="97">
<path d="M-8.20582 6.25588L43.1939 -12.2044L71.1025 65.4998L19.7028 83.96L-8.20582 6.25588Z" fill="white"/>
</mask>
<g mask="url(#mask17_36_5659)">
<path d="M5.89802 28.8734C6.04381 28.616 6.19911 28.3513 6.35266 28.0859C6.56639 27.717 6.78177 27.3468 7.00849 26.9628C7.17183 26.6869 7.341 26.4074 7.51172 26.1244C7.74707 25.7326 7.98798 25.3401 8.23615 24.9382C8.41841 24.6456 8.60194 24.3525 8.78992 24.054C9.04606 23.6483 9.30687 23.2416 9.57515 22.8297C9.77314 22.5252 9.96997 22.2233 10.1743 21.9163C10.4521 21.4971 10.7372 21.078 11.0268 20.6556C11.2351 20.3514 11.4405 20.0491 11.6544 19.7442C11.9609 19.3073 12.2759 18.8751 12.5927 18.4386C12.8039 18.1493 13.0108 17.8602 13.2263 17.5706C13.5816 17.0966 13.9475 16.6272 14.3143 16.1581C14.505 15.9153 14.6887 15.6694 14.8817 15.4286C15.4464 14.7241 16.0218 14.0286 16.6114 13.3486C16.8519 13.0712 17.0927 12.8075 17.3322 12.5537C17.4117 12.4683 17.4911 12.3901 17.5704 12.3077C17.7297 12.1432 17.8901 11.9813 18.0486 11.8259C18.1416 11.736 18.2339 11.6499 18.3263 11.5638C18.4724 11.4271 18.6175 11.2951 18.7636 11.1677C18.8587 11.085 18.953 11.004 19.0479 10.9242C19.1069 10.8758 19.1656 10.821 19.2242 10.7735C19.0455 9.71869 18.5331 7.90203 17.4962 7.55229C17.1868 7.44854 16.8168 7.47522 16.3938 7.62724C15.5042 7.94673 14.386 8.82121 13.1277 10.1944C12.4135 10.9744 11.7085 11.724 11.0246 12.4493C5.46804 18.3535 1.68873 22.3695 5.75918 29.115C5.80135 29.0382 5.85293 28.952 5.89802 28.8734Z" fill="#D9D9D9"/>
</g>
</g>
</g>
<mask id="mask18_36_5659" style="mask-type:luminance" maskUnits="userSpaceOnUse" x="26" y="13" width="44" height="44">
<path d="M39.6053 13.544L69.925 26.8944L56.7724 56.7649L26.4527 43.4145L39.6053 13.544Z" fill="white"/>
</mask>
<g mask="url(#mask18_36_5659)">
<mask id="mask19_36_5659" style="mask-type:luminance" maskUnits="userSpaceOnUse" x="-9" y="-13" width="81" height="97">
<path d="M-8.20371 6.25722L43.196 -12.203L71.1046 65.5011L19.7049 83.9614L-8.20371 6.25722Z" fill="white"/>
</mask>
<g mask="url(#mask19_36_5659)">
<mask id="mask20_36_5659" style="mask-type:luminance" maskUnits="userSpaceOnUse" x="-9" y="-13" width="81" height="97">
<path d="M-8.20274 6.25722L43.197 -12.203L71.1056 65.5011L19.7059 83.9614L-8.20274 6.25722Z" fill="white"/>
</mask>
<g mask="url(#mask20_36_5659)">
<path d="M39.1402 21.0295C39.2183 21.0733 39.3013 21.1203 39.3896 21.1718C39.4197 21.1892 39.4479 21.2059 39.4797 21.2241C39.5747 21.2795 39.6765 21.3411 39.7826 21.4045C39.8113 21.4224 39.8379 21.4383 39.8679 21.4557C39.9993 21.5356 40.1361 21.622 40.281 21.7141C40.2859 21.7173 40.2911 21.7196 40.2969 21.7232C40.6022 21.9194 40.938 22.1416 41.2966 22.3928C41.334 22.4197 41.3731 22.4474 41.4105 22.4743C41.5488 22.5719 41.6889 22.6723 41.8327 22.7786C41.8923 22.8216 41.9512 22.8664 42.0109 22.9115C42.1392 23.0078 42.2684 23.1045 42.4022 23.2074C42.4718 23.2611 42.5419 23.316 42.6119 23.371C42.7396 23.4712 42.87 23.5747 43.0005 23.6803C43.0751 23.7415 43.1507 23.803 43.2272 23.8671C43.3592 23.9765 43.493 24.0889 43.6287 24.2041C43.7045 24.27 43.7805 24.3328 43.8567 24.3999C43.9975 24.5226 44.1394 24.65 44.283 24.7782C44.3571 24.8454 44.4311 24.9104 44.5062 24.9801C44.6666 25.1272 44.8277 25.2799 44.9898 25.435C45.0492 25.4905 45.1058 25.5427 45.1653 25.6003C45.3883 25.8169 45.6126 26.0402 45.8394 26.2721C45.853 26.2864 45.8665 26.3008 45.8801 26.3151C46.0902 26.5302 46.3002 26.7526 46.5111 26.9826C46.5827 27.0602 46.6541 27.143 46.7262 27.2219C46.88 27.3912 47.0335 27.5635 47.1868 27.741C47.2728 27.8407 47.3582 27.9442 47.4446 28.0452C47.5841 28.2113 47.7236 28.3775 47.8629 28.5488C47.9534 28.6619 48.0456 28.7759 48.1358 28.8899C48.2717 29.0618 48.4059 29.2351 48.5403 29.4127C48.6312 29.5323 48.7212 29.6536 48.8118 29.7762C48.9459 29.9568 49.0782 30.1418 49.2105 30.3289C49.3004 30.4554 49.3903 30.5819 49.4799 30.7114C49.6139 30.9066 49.746 31.1061 49.8786 31.3091C49.963 31.4363 50.0464 31.5631 50.1305 31.6934C50.2746 31.9202 50.417 32.1536 50.5585 32.3888C50.6271 32.5017 50.696 32.6117 50.7639 32.7264C50.9712 33.0785 51.1751 33.4385 51.3765 33.8089C51.3906 33.834 51.4027 33.8613 51.4168 33.8864C51.6019 34.2318 51.7844 34.5834 51.9629 34.9438C52.0269 35.0746 52.0893 35.2111 52.1525 35.3436C52.2777 35.604 52.4021 35.8662 52.523 36.1362C52.5947 36.2945 52.6637 36.459 52.7326 36.6213C52.8406 36.8731 52.9487 37.1271 53.0537 37.3859C53.1245 37.5605 53.1933 37.7396 53.2613 37.9182C53.3605 38.1735 53.4577 38.4331 53.5517 38.6955C53.6192 38.8823 53.6842 39.0702 53.7496 39.2592C53.8404 39.5265 53.9288 39.799 54.0156 40.0729C54.0769 40.2643 54.1365 40.455 54.1949 40.6504C54.2798 40.9381 54.3615 41.2307 54.4416 41.5247C54.4934 41.7161 54.5472 41.9032 54.5958 42.0974C54.6805 42.4259 54.7575 42.7625 54.8341 43.1C54.8727 43.2667 54.9142 43.4295 54.9495 43.5991C55.0595 44.1104 55.1621 44.629 55.255 45.1602C55.255 45.1602 55.255 45.1602 55.2555 45.1614C55.2586 45.1806 55.2599 45.199 55.263 45.2181C55.3484 45.7166 55.4155 46.2039 55.4671 46.679C55.4851 46.8451 55.4906 47.0015 55.505 47.1639C55.533 47.4905 55.5588 47.8171 55.5708 48.1324C55.5772 48.3154 55.5725 48.4924 55.574 48.6722C55.5755 48.9567 55.5756 49.2395 55.5624 49.5144C55.5547 49.6985 55.5381 49.8766 55.5237 50.0567C55.5025 50.3165 55.4782 50.574 55.4454 50.8245C55.4215 51.0025 55.3914 51.1778 55.3613 51.351C55.3186 51.593 55.271 51.8318 55.2164 52.0654C55.1773 52.2325 55.1344 52.399 55.0883 52.5631C55.0235 52.7912 54.9529 53.0135 54.876 53.2332C54.8202 53.3908 54.7652 53.5468 54.7044 53.6991C54.6179 53.9145 54.5217 54.1235 54.4215 54.3297C54.353 54.4734 54.2862 54.6179 54.2119 54.7559C54.1835 54.8083 54.1614 54.8656 54.1322 54.9177C54.193 54.9675 54.2515 55.0226 54.3119 55.0733C54.5996 55.312 54.8816 55.5588 55.163 55.8094C55.2541 55.8903 55.3479 55.9652 55.4382 56.0479C55.3391 52.065 58.1577 49.3008 60.5005 47.9454C58.2327 44.8583 57.2677 41.8285 57.6296 38.9253C57.916 36.6287 58.9802 34.9041 59.8865 33.8116C56.0421 33.0395 53.5191 31.4667 52.3791 29.1223C51.2659 26.8359 51.7602 24.3931 52.3274 22.8172C48.852 23.2718 46.3519 22.658 44.8844 20.9812C43.4529 19.3464 43.3722 17.0987 43.5791 15.4323C41.3558 16.6518 39.5941 16.9989 38.2522 16.9496C38.2785 17.0062 38.2976 17.0628 38.3231 17.1191C38.3739 17.2367 38.4247 17.3523 38.469 17.4682C38.4994 17.5465 38.5251 17.6238 38.5516 17.7015C38.5905 17.8129 38.6265 17.924 38.6597 18.034C38.6829 18.1122 38.7038 18.1885 38.7234 18.2652C38.7505 18.3725 38.7767 18.4772 38.7981 18.5809C38.8151 18.6564 38.8303 18.7312 38.8438 18.8053C38.8621 18.9065 38.8793 19.0052 38.894 19.1028C38.9044 19.1744 38.9142 19.2448 38.922 19.3152C38.934 19.4116 38.9428 19.5035 38.9516 19.5953C38.9569 19.6616 38.9627 19.727 38.9659 19.7912C38.9715 19.8806 38.974 19.9655 38.9768 20.0495C38.9793 20.1103 38.981 20.1707 38.9821 20.2278C38.9822 20.3106 38.9809 20.3875 38.9799 20.4635C38.9781 20.5151 38.9777 20.5683 38.9762 20.6169C38.9729 20.6909 38.9689 20.7572 38.9641 20.8252C38.9615 20.8597 38.9599 20.8988 38.9572 20.9311C38.9894 20.9485 39.0261 20.9698 39.0596 20.9888C39.089 21.0007 39.1132 21.0145 39.1402 21.0295Z" fill="#D9D9D9"/>
</g>
</g>
</g>
</svg>
