<svg width="539" height="701" viewBox="0 0 539 701" fill="none" xmlns="http://www.w3.org/2000/svg">
<g filter="url(#filter0_i_2134_19412)">
<mask id="mask0_2134_19412" style="mask-type:luminance" maskUnits="userSpaceOnUse" x="0" y="0" width="539" height="701">
<path d="M538.754 698.337L3.05052 700.357L0.41963 2.58259L536.123 0.562769L538.754 698.337Z" fill="white"/>
</mask>
<g mask="url(#mask0_2134_19412)">
<path d="M492.668 279.318C494.395 293.296 497.223 309.715 508.202 326.73C517.648 341.366 529.356 350.59 537.445 355.92C531.763 358.126 516.46 364.901 505.123 381.504C494.066 397.706 493.122 413.835 493.101 419.909L493.585 548.108C493.747 591.148 458.641 626.159 415.166 626.323C415.317 666.352 382.659 698.926 342.233 699.078L199.466 699.616C159.04 699.769 126.137 667.442 125.987 627.413C82.5119 627.577 47.1425 592.832 46.9803 549.8L46.4969 421.601C46.5722 415.866 46.0675 398.83 34.1293 382.158C22.6074 366.076 7.30826 359.894 1.76847 357.948C9.1326 353.091 21.026 343.857 30.7909 328.53C43.1918 309.06 45.4729 290.211 45.9668 281.011L45.4835 152.812C45.3212 109.781 80.4275 74.7701 123.902 74.6062C123.751 34.5768 156.409 2.00323 196.836 1.8508L339.602 1.31252C380.028 1.16009 412.931 33.4865 413.082 73.5159C418.323 73.4961 446.216 73.9044 468.826 96.1229C491.445 118.341 492.068 145.942 492.088 151.129C490.14 174.162 486.434 228.817 492.677 279.327L492.668 279.318Z" fill="#ECCA19"/>
</g>
</g>
<defs>
<filter id="filter0_i_2134_19412" x="1.76855" y="1.31201" width="535.677" height="702.305" filterUnits="userSpaceOnUse" color-interpolation-filters="sRGB">
<feFlood flood-opacity="0" result="BackgroundImageFix"/>
<feBlend mode="normal" in="SourceGraphic" in2="BackgroundImageFix" result="shape"/>
<feColorMatrix in="SourceAlpha" type="matrix" values="0 0 0 0 0 0 0 0 0 0 0 0 0 0 0 0 0 0 127 0" result="hardAlpha"/>
<feOffset dy="7"/>
<feGaussianBlur stdDeviation="2"/>
<feComposite in2="hardAlpha" operator="arithmetic" k2="-1" k3="1"/>
<feColorMatrix type="matrix" values="0 0 0 0 0 0 0 0 0 0 0 0 0 0 0 0 0 0 0.25 0"/>
<feBlend mode="normal" in2="shape" result="effect1_innerShadow_2134_19412"/>
</filter>
</defs>
</svg>
