<svg width="653" height="345" viewBox="0 0 653 345" fill="none" xmlns="http://www.w3.org/2000/svg">
<g filter="url(#filter0_i_2095_4591)">
<mask id="mask0_2095_4591" style="mask-type:luminance" maskUnits="userSpaceOnUse" x="0" y="0" width="653" height="345">
<path d="M0 0H653V344.85H0V0Z" fill="white"/>
</mask>
<g mask="url(#mask0_2095_4591)">
<path d="M94.3562 57.4673C114.553 69.4683 99.1173 21.4741 147.729 4.83798C156.433 1.89361 165.136 0.844137 174.006 0.844137C275.832 0.844137 377.491 0.844137 479.316 0.844137C507.89 -0.00127554 538.603 15.7895 546.654 54.0954C547.473 57.4673 547.799 59.3622 551.248 58.9444C610.042 49.674 622.195 122.516 651.103 170.082C652.414 172.191 651.922 173.24 650.777 175.135C638.29 195.979 629.094 219.135 618.253 241.233C602.817 273.232 581.142 290.5 550.756 286.078C548.292 285.651 547.306 286.283 546.654 289.655C538.436 325.861 517.253 339.961 489.991 343.537C385.049 345.014 279.933 343.537 174.825 344.169C145.758 345.432 114.394 330.283 106.176 290.918C105.357 287.546 105.19 285.651 101.581 286.283C42.454 295.339 30.7938 222.925 1.7268 175.135C0.574429 173.24 0.74122 171.977 1.89359 170.082C31.9462 122.302 37.3669 61.2571 94.3562 57.4673Z" fill="#ECCA19"/>
</g>
</g>
<defs>
<filter id="filter0_i_2095_4591" x="0.941406" y="0.812012" width="650.945" height="347.429" filterUnits="userSpaceOnUse" color-interpolation-filters="sRGB">
<feFlood flood-opacity="0" result="BackgroundImageFix"/>
<feBlend mode="normal" in="SourceGraphic" in2="BackgroundImageFix" result="shape"/>
<feColorMatrix in="SourceAlpha" type="matrix" values="0 0 0 0 0 0 0 0 0 0 0 0 0 0 0 0 0 0 127 0" result="hardAlpha"/>
<feOffset dy="7"/>
<feGaussianBlur stdDeviation="2"/>
<feComposite in2="hardAlpha" operator="arithmetic" k2="-1" k3="1"/>
<feColorMatrix type="matrix" values="0 0 0 0 0 0 0 0 0 0 0 0 0 0 0 0 0 0 0.25 0"/>
<feBlend mode="normal" in2="shape" result="effect1_innerShadow_2095_4591"/>
</filter>
</defs>
</svg>
