<svg width="1439" height="58" viewBox="0 0 1439 58" fill="none" xmlns="http://www.w3.org/2000/svg">
<mask id="mask0_76_94741" style="mask-type:luminance" maskUnits="userSpaceOnUse" x="0" y="0" width="1439" height="58">
<path d="M0 0.0683594H1439V57.9309H0V0.0683594Z" fill="white"/>
</mask>
<g mask="url(#mask0_76_94741)">
<path d="M0 0.0683594H1439.1V57.9309H0V0.0683594Z" fill="#D72327"/>
</g>
<mask id="mask1_76_94741" style="mask-type:luminance" maskUnits="userSpaceOnUse" x="10" y="7" width="484" height="43">
<path d="M10.5078 7.49219H493.247V49.7083H10.5078V7.49219Z" fill="white"/>
</mask>
<g mask="url(#mask1_76_94741)">
<path d="M9.42773 2.92871H496.004V56.1199H9.42773V2.92871ZM9.91572 52.8762L9.97314 54.7133L10.6429 55.5936H494.999V52.8762H9.91572ZM9.91572 7.2728V51.7758H494.999V7.2728H9.91572ZM495.028 3.47411H10.6716C9.72436 3.47411 9.72436 6.20113 10.6716 6.20113H495.028V3.47411Z" fill="#FFFCF5"/>
</g>
<mask id="mask2_76_94741" style="mask-type:luminance" maskUnits="userSpaceOnUse" x="12" y="7" width="481" height="43">
<path d="M12.0332 7.49219H492.141V49.7083H12.0332V7.49219Z" fill="white"/>
</mask>
<g mask="url(#mask2_76_94741)">
<path d="M25.371 37.6523C23.9932 35.7003 24.883 31.6624 24.1463 30.0453C23.7253 29.1268 22.3474 29.0311 21.6393 28.4187C15.8982 23.3761 20.1466 12.0088 25.8877 8.88943C25.2179 16.0084 31.9446 17.568 30.8442 24.8784C30.4806 27.3566 27.7919 29.7966 25.3997 29.5573C24.4525 41.384 32.7962 46.3309 42.0967 48.5316L39.8003 42.6375C30.5093 42.9724 30.8442 30.1315 36.1356 24.6583L38.6712 28.945C40.2596 31.1744 42.2498 31.6911 43.2545 34.8104C44.8716 39.7669 40.8433 41.3553 40.9294 42.7236C43.6564 52.8183 54.4114 47.7375 60.8031 45.2688C61.8365 44.1014 57.8943 43.7091 57.5307 43.7091C56.2772 43.7665 54.6219 45.2688 52.7273 44.9626C47.6273 44.1971 44.2592 33.2795 47.5603 28.9737C48.2397 28.6005 48.7564 30.4089 49.608 31.05C53.4354 33.9589 62.1714 33.8058 58.2675 42.5131C64.774 44.8095 69.3573 37.3174 72.7541 32.4853C68.8981 32.6671 65.817 34.1694 61.7504 33.069C51.78 30.3515 52.6125 19.9506 46.1538 16.927L41.3313 15.396C46.46 12.4011 52.1149 9.9611 57.5594 13.6928C59.454 9.40613 66.9461 8.40144 69.0224 12.6786C69.941 14.5731 66.9748 15.0611 66.1806 17.6924C64.5253 23.0986 67.4628 23.0699 69.6922 26.0361C71.3763 28.2369 70.7926 31.5667 73.4909 31.1074C74.8305 30.8682 78.8684 24.2947 80.2463 22.6776C89.4703 11.6739 99.4693 5.43521 113.679 9.68362C127.897 13.932 133.399 27.9594 142.872 38.169L142.145 29.854C133.457 26.8973 136.853 12.4393 143.609 9.40613C143.331 15.5874 152.689 21.4528 147.618 27.5958C146.546 28.9067 143.398 29.433 143.149 30.3515C143.819 36.7337 144.432 40.896 149.627 44.3502C152.689 46.3692 157.062 48.4455 160.574 48.1967C158.957 47.5557 158.249 43.1829 157.607 42.7619C156.938 42.3026 155.742 42.6375 154.976 42.3887C149.513 40.5228 149.752 32.5523 151.828 27.8446C154.584 21.759 154.335 25.5769 156.076 28.1508C158.22 31.2605 162.133 32.8872 161.55 37.8628C161.186 41.1065 157.091 40.9534 160.296 45.8142C163.875 51.23 174.295 47.7757 178.515 44.4363C173.692 42.3026 170.994 47.68 166.784 42.0251C164.085 38.3891 163.636 33.2795 165.042 29.0024C166.535 29.5861 167.052 30.9256 168.678 31.8155C173.596 34.4086 178.582 33.9589 176.505 42.5418C179.835 45.9386 189.337 35.3654 189.949 33.069C190.284 31.8155 189.432 32.3609 188.916 32.4853C182.954 33.6144 179.404 34.533 174.266 30.1028C169.137 25.6725 168.094 15.5874 159.531 16.0084C163.54 11.9131 170.448 10.3821 175.28 13.6832C178.582 9.22433 184.476 8.33446 187.413 13.5684C187.413 14.0277 183.375 16.0371 183.528 20.0176C183.682 23.9885 186.983 24.5435 188.418 27.2035C189.643 29.4617 188.609 32.1791 191.872 31.05C200.713 16.7739 212.387 5.3778 229.448 9.16692C242.164 11.9801 249.494 24.2373 257.11 34.4468L260.105 37.681L259.368 29.8922C250.508 26.3423 254.297 13.0422 260.842 8.91814C261.358 17.5967 273.061 24.7827 260.411 30.3802C260.928 33.0403 260.87 35.4228 261.751 38.0542C263.894 44.3215 271.654 46.8859 277.07 48.5316L274.84 42.8193C268.238 42.8193 266.985 37.193 267.961 31.0213C268.171 29.6722 271.291 22.4288 272.334 25.0028C272.458 29.2799 277.07 30.7725 278.352 34.6573C280.122 40.0635 276.276 40.2549 276.333 42.7619C276.4 44.5894 278.936 48.168 280.582 48.5029C285.471 49.5172 291.346 47.3164 295.805 45.2688C296.781 44.1684 293.394 43.6709 292.992 43.6709C290.274 43.7378 289.327 46.3979 285.844 43.8909C281.653 40.8673 280.62 33.8632 282.323 29.0024L285.969 31.8155C291.279 33.3082 295.748 35.5759 293.786 42.5418C297.585 45.7568 306.656 36.1213 307.756 33.069C308.034 32.3035 307.67 32.1791 307.029 32.2748C305.287 32.514 303.756 33.5283 301.527 33.5857C297.767 33.6814 294.494 32.6097 291.557 30.074C286.208 25.4525 285.385 15.5491 276.821 15.9797C280.983 11.9801 287.614 10.296 292.571 13.6545C296.14 9.04253 301.307 8.43015 304.761 13.5397C301.489 15.7405 299.384 19.7401 302.044 23.5579C304.216 26.6772 304.828 25.3377 306.723 30.4089C306.904 30.9256 306.598 31.3562 307.517 31.2031C308.588 31.2988 309.01 31.0213 309.804 30.3802C311.459 29.0311 314.703 23.5005 316.502 21.3954C325.793 10.4778 336.643 5.5596 350.307 10.1429C363.177 14.4487 369.358 29.4904 378.649 38.7527L377.089 29.6148C370.363 26.9834 371.281 18.4579 374.764 13.0804C375.281 12.248 378.276 8.45885 379.166 9.47311C378.276 15.0324 383.931 17.635 384.179 22.735C384.39 27.1652 382.228 28.7919 378.62 29.854C377.702 40.829 385.71 47.1921 394.877 48.5029C396.408 48.723 393.987 45.6324 393.652 44.9243C393.346 44.2832 393.136 42.6949 393.04 42.6088C392.858 42.4174 389.959 42.6088 388.37 41.4701C383.969 38.3221 385.462 26.3998 389.375 24.6583C390.265 24.266 390.016 25.0602 390.169 25.3951C390.6 26.4667 390.724 27.3183 391.394 28.39C393.652 31.9686 397.441 32.6384 396.561 38.4178C396.226 40.7142 394.025 40.9247 394.179 42.6375C395.03 52.0816 409.125 48.5029 413.555 44.4076C408.847 42.3313 407.048 47.6513 402.551 42.7906C399.154 39.1545 399.068 33.7388 400.073 28.945C400.503 28.5144 403.288 31.4136 404.111 31.8729C408.723 34.4468 413.89 34.1119 411.536 42.5131C415.602 44.4363 418.846 40.8673 421.535 37.9298C422.052 37.3461 425.381 33.3082 425.506 33.0403C425.908 31.9973 424.989 32.1791 424.377 32.3322C419.573 33.5857 416.913 34.4086 412.091 31.9112C404.053 27.7489 404.474 15.8266 394.571 15.951C398.944 11.8557 405.699 10.2386 410.77 13.8076C412.579 9.68362 418.138 8.67893 421.286 11.6069C424.712 14.8219 419.152 14.5444 418.999 19.4626C418.846 24.3904 421.324 23.8354 423.248 26.8303C424.53 28.7919 424.654 33.1551 427.467 30.2558C430.548 27.0504 433.39 21.7016 436.691 18.3048C448.154 6.47818 463.904 4.97593 476.678 15.396C482.333 20.0176 486.246 26.7729 490.897 32.4853C490.591 32.9446 489.854 33.6527 489.423 33.3082C489.146 33.0977 487.165 29.0311 486.218 28.39C482.697 26.0649 483.28 30.2271 481.874 32.4279C480.467 34.6286 477.807 34.8104 477.472 38.5422C477.08 43.1829 481.443 45.02 481.443 45.5367C479.309 48.2924 476.888 49.8234 473.473 48.8091C471.788 48.3211 469.645 45.4506 469.253 45.4219C468.918 45.4219 466.803 46.6754 465.703 46.8572C461.732 47.4695 456.201 46.5223 453.503 43.0967C464.574 42.36 462.316 29.5191 473.071 26.1031C477.597 24.6583 480.19 26.2849 484.476 26.5241C481.233 21.6059 476.372 13.9607 469.98 16.4964C474.047 25.2133 465.158 25.0602 461.33 27.9594C460.479 28.6005 459.962 30.4089 459.282 30.0453C456.316 25.5769 459.015 15.1855 464.296 14.3339C467.263 13.8746 469.798 16.2285 473.013 14.5731C468.42 9.98981 453.541 6.53559 452.776 16.439C452.68 17.5106 454.269 18.2761 454.757 19.2234C457.053 23.5292 453.235 27.5958 450.326 30.074C449.379 30.5907 448.862 34.8392 447.819 34.3799C446.968 34.0163 445.131 30.1028 444.796 28.9737C443.112 23.0986 444.671 15.8266 451.494 16.4103L454.307 9.9611C444.308 11.9801 436.576 17.2331 437.122 29.4904C441.619 29.6435 443.14 32.8202 442.595 37.4131C442.136 41.4701 436.51 45.0774 437.581 50.1583C431.984 47.1921 427.582 35.2984 433.428 30.7151C434.031 30.2558 435.897 29.6148 436.022 29.4617C436.328 28.9067 436.175 21.9408 437.093 20.3238C427.276 30.8969 421.745 44.6851 407.383 49.0579C393.011 53.4307 382.869 46.2161 373.482 34.9922C372.41 33.7101 368.899 27.9977 368.009 27.8733C364.65 27.4427 365.473 29.921 363.971 32.2078C361.866 35.4802 358.23 35.3271 360 41.5084C360.89 44.5894 365.32 44.2545 362.019 47.4313C358.718 50.6176 353.426 49.1727 351.503 45.2305C346.461 48.5699 339.705 47.2208 335.304 43.0967C345.236 43.4029 344.987 30.9543 352.757 27.0791C355.723 25.6056 359.206 25.3951 362.449 25.7587C363.272 25.8543 367.061 27.9594 366.727 25.9787C366.573 25.1176 361.378 18.9172 360.402 18.2091C358.048 16.4677 354.986 15.2812 352.24 16.4964C355.043 24.8114 348.508 24.9358 343.925 27.7776C342.729 28.5144 342.145 29.9784 340.777 30.0453C339.763 25.5195 339.983 19.587 343.246 16.1902C347.408 11.8844 350.613 16.6208 355.235 14.5731C355.474 13.444 354.527 13.7215 353.886 13.3483C348.939 10.4204 339.026 7.08099 335.639 13.932C333.313 18.6397 336.222 17.0226 337.016 19.7114C339.275 27.4427 330.749 28.0838 330.749 34.9348C326.558 31.9686 324.759 23.8067 327.534 19.2234C329.802 15.4917 333.132 16.927 333.715 16.4103C333.897 16.2572 334.624 12.9847 335.304 11.9131C335.82 11.1189 336.768 11.339 336.739 10.5065C327.113 11.0902 318.09 17.9412 319.286 29.4617C321.42 29.1555 324.176 31.5093 324.635 33.6814C326.128 40.7142 318.76 43.2498 319.745 50.1296C313.105 46.551 308.895 32.9733 317.659 29.4043L318.76 21.3572C309.871 30.4376 304.034 44.1971 291.585 48.5029C277.127 53.5168 266.583 47.7088 256.861 36.2744C255.637 34.8392 251.666 28.6388 250.9 28.1125C247.972 26.1605 247.695 30.6577 246.413 32.4566C244.298 35.3941 240.786 36.3988 242.805 41.8146C243.504 43.7091 246.346 44.4076 245.829 45.9099C244.394 50.0913 235.466 50.0913 234.394 45.2018C229.294 48.168 222.262 47.2495 217.946 43.0298C221.592 43.2786 225.104 40.6472 227.151 37.5662C228.376 35.7003 228.96 33.3752 230.452 31.3562C234.155 26.371 239.437 25.0315 245.13 25.7013C245.618 25.7587 250.106 27.8446 249.407 25.95C245.274 21.6346 241.762 13.9894 234.949 16.439C238.069 24.5052 231.093 25.0315 226.634 27.7202C225.41 28.457 224.855 29.921 223.486 29.9784C221.831 23.5292 223.85 13.1091 231.677 14.2669C232.596 14.42 233.294 15.2142 234.184 15.2429C234.548 15.2429 238.49 14.8506 237.456 13.6928C230.854 10.4778 219.85 5.7414 217.497 16.7164L217.583 17.3862C223.209 21.051 218.683 27.0504 215.018 30.2271C213.277 32.4853 213.947 36.8581 211.105 32.3035C207.344 26.3136 208.11 15.5874 216.454 16.3146C216.272 13.6545 219.295 12.1331 218.75 9.86542C214.712 11.0902 210.827 12.1906 207.344 14.8506C203.307 17.9699 201.843 23.711 201.967 29.0598C205.574 30.1602 207.737 31.7868 207.526 36.1883C207.287 41.1352 201.689 44.0727 202.512 49.4502C201.661 50.4262 198.628 46.6754 198.111 45.8429C194.781 40.4941 193.767 31.8729 200.436 29.2799L202.024 20.1707C200.675 21.2423 199.393 22.6106 198.264 23.9598C190.59 33.3082 185.576 44.532 173.443 48.5316C155.627 54.4354 143.216 43.1255 133.399 28.2656C129.4 26.5241 130.586 28.2656 129.486 30.5907C127.62 34.5999 121.419 36.9825 125.486 42.8193C126.309 43.977 128.385 44.5894 128.108 45.3836C127.256 47.7088 123.649 49.1727 121.391 48.9335C118.578 48.656 116.406 45.2975 115.918 45.2688C115.458 45.2305 114.176 46.4266 113.286 46.6084C108.636 47.7088 103.928 46.2735 100.168 43.2211C108.827 43.0298 109.468 33.5283 114.903 28.8493C120.348 24.1703 125.419 25.2133 131.6 26.6485C131.993 26.2849 130.433 24.1703 130.098 23.6823C127.228 19.7114 122.147 14.1138 117.133 16.3816C119.334 25.2994 113.927 24.3521 109.277 27.1078C108.397 27.6245 106.282 30.4377 105.641 29.921C103.383 23.711 106.253 12.736 113.832 14.2095C114.597 14.3626 115.152 15.1855 115.879 15.2429C117.018 15.3673 118.731 14.2669 120.099 14.6975C121.142 13.8363 116.798 12.1619 116.377 11.9801C111.143 9.7793 102.407 7.30107 100.015 14.8506C98.8283 18.611 102.675 18.1517 102.034 22.9838C101.393 27.8063 95.5558 29.1842 95.6515 34.265C94.3981 35.6046 91.7667 29.9497 91.4892 28.7249C90.7238 25.3951 90.6951 19.7975 93.4795 17.5106C95.1635 16.1328 97.2973 16.7164 98.1585 16.1041C98.6752 15.7405 99.7755 11.1859 101.115 10.3821C91.6423 11.339 83.7005 17.3575 83.7292 28.5144C83.9971 29.6435 90.0827 29.854 89.6904 36.1596C89.3842 40.7716 83.2412 44.4363 84.6765 49.4502C77.3949 47.3739 73.9789 31.8155 82.6862 29.0311L83.6622 20.7161C74.8879 30.4377 68.1326 44.7425 55.3299 48.7804C37.6283 54.378 24.1845 41.872 14.7979 26.9547C14.1855 25.9787 14.463 25.0315 15.0371 25.0602C18.032 28.4187 20.5102 33.2221 23.5052 36.4658C24.0314 37.0399 24.3663 37.748 25.2466 37.5279L25.371 37.6523ZM23.9071 11.6356C21.6776 15.7022 19.783 18.7641 20.4528 23.8067C21.2757 30.1602 30.6911 29.6148 29.8969 22.2757C29.562 19.2808 25.3136 15.8266 24.9787 12.4011L23.9358 11.6356H23.9071ZM35.3701 27.3566C34.174 30.4664 33.1406 34.3225 34.0879 37.681C35.5519 42.8767 43.7138 41.8433 42.1254 35.4515C41.6375 33.5283 38.2119 29.9497 36.7767 28.2369C36.3461 27.7202 36.3174 27.0791 35.3701 27.3183V27.3566ZM64.7453 22.9455C65.0228 20.9936 64.4966 18.9459 65.0228 17.0226C65.6639 14.6975 69.7592 13.5971 66.305 11.9131C62.8508 10.2386 60.0089 12.0949 58.0187 15.396C54.0478 13.0804 49.2157 12.0375 45.3309 15.1855C47.4455 16.1041 49.0913 17.3575 50.5936 19.2521C53.1866 22.5819 54.4688 28.6962 58.8129 29.5573C58.9947 25.8256 61.626 23.8067 64.7453 22.9838V22.9455ZM47.8378 31.6911C47.5986 35.4802 47.7804 38.877 50.3161 41.7476C54.842 46.8859 60.8031 39.8243 56.3729 35.729L47.8378 31.6911ZM59.8845 30.2558C60.4682 32.4566 70.2759 33.3082 70.3046 30.3802C70.3046 28.6962 66.8504 24.5052 65.5682 24.3234C63.3101 23.9885 59.2147 27.7202 59.8558 30.2558H59.8845ZM83.2699 47.4313C83.4517 43.336 87.8819 40.5611 88.2838 36.8581C89.1354 28.8206 78.9258 28.7249 78.744 36.8581C78.6866 40.4654 80.4568 45.4219 83.2699 47.4313ZM92.3791 26.3998C92.5896 28.1795 93.3551 30.3515 94.4842 31.6911C96.3787 28.0551 101.115 26.1892 100.752 21.6634C100.57 19.3478 99.6224 18.3335 97.4791 18.123C92.9245 17.6637 91.8911 22.3044 92.3791 26.3998ZM104.234 43.6422C104.081 44.9626 104.234 44.5033 104.943 44.7712C108.98 46.3979 113.229 46.484 116.463 43.0967C118.358 47.2495 122.577 49.5746 126.185 46.063C123.898 42.848 122.147 40.3697 123.678 36.0352C120.252 35.5089 117.477 32.7915 117.171 28.9737C111.085 32.093 111.085 41.7763 104.206 43.6422H104.234ZM106.225 27.3566C109.65 25.9787 120.53 22.4001 115.238 16.7452C109.956 11.0902 104.818 22.3427 106.225 27.3566ZM118.788 27.9594C117.563 30.9256 121.601 35.0592 123.984 34.753C124.166 34.753 126.95 32.7341 127.074 32.6097C127.84 31.8442 129.4 28.1508 128.691 27.3566C125.266 26.5911 122.089 26.4667 118.788 27.9307V27.9594ZM142.661 11.6356C139.236 14.2669 137.131 20.6587 138.624 24.9645C140.336 29.854 147.8 29.2129 147.675 23.29C147.58 18.544 143.121 16.2572 142.633 11.6069L142.661 11.6356ZM151.771 36.1883C153.053 44.4076 162.564 41.317 159.875 34.4086C159.196 32.7341 154.708 29.7104 153.876 27.3566C151.895 29.4904 151.283 33.1934 151.771 36.1596V36.1883ZM163.636 14.3339C163.358 15.6448 163.846 15.2142 164.277 15.5204C165.377 16.3433 166.592 16.8695 167.607 17.9986C170.936 21.6059 171.826 28.0838 176.591 29.5191C177.022 25.95 179.921 23.5292 183.107 23.0125C181.634 18.6397 183.136 16.1902 185.614 12.9847C182.399 9.65491 177.261 11.4538 176.103 15.951C172.372 12.4011 168.094 12.8316 163.636 14.3339ZM165.616 31.6911C164.277 36.705 169.501 47.7757 174.639 42.3026C179.768 36.8294 169.042 33.069 165.616 31.6911ZM188.054 31.6911C188.944 29.2799 185.366 24.9358 183.595 24.4478C180.352 23.5292 176.285 29.7104 178.361 31.2318C180.447 32.7628 185.614 32.1791 188.026 31.6911H188.054ZM201.565 46.8859C201.776 42.8767 206.426 39.7286 206.55 35.7003C206.703 31.2318 201.288 29.1842 198.36 32.2748C195.087 35.7003 197.192 45.3549 201.565 46.8859ZM215.229 28.1508C220.147 25.4525 220.549 16.9939 213.794 18.1804C209.115 19.0033 209.516 28.6005 212.263 31.7198L215.2 28.1795L215.229 28.1508ZM232.165 31.3562C228.835 34.9348 227.764 42.4174 222.013 43.9196C225.62 46.551 231.218 46.8572 234.241 43.1255C235.868 46.8859 241.58 50.0339 243.934 45.6324C241.399 42.7906 240.356 40.0348 241.456 36.0926C238.557 35.021 235.189 33.4326 235.495 29.5191C234.949 28.945 232.682 30.8395 232.194 31.3562H232.165ZM224.099 26.4667C224.252 26.9547 224.673 27.5001 225.228 27.3183C227.821 24.6966 237.265 23.9024 234.031 17.8455C230.175 10.5735 222.501 20.9649 224.099 26.4667ZM236.538 27.9307C235.954 31.5667 238.863 34.045 241.82 34.8392C244.394 33.4613 246.499 31.4519 246.929 28.2082C244.059 25.5769 239.839 26.9834 236.538 27.9307ZM259.952 11.6356C253.656 15.1281 253.962 32.5523 262.794 27.4714C269.396 23.711 260.382 16.2859 259.952 11.6356ZM269.061 36.1883C270.161 43.2498 278.295 42.4557 277.405 35.8151C277.041 33.069 272.515 30.0453 271.204 27.3853C269.272 29.854 268.573 33.0116 269.09 36.1883H269.061ZM293.394 15.951C289.605 12.4967 284.648 12.3437 280.428 15.1281C287.461 16.927 287.825 26.438 293.671 30.0453C294.284 26.3136 296.877 23.5292 300.388 22.9838C298.924 18.611 300.427 16.1615 302.895 12.956C299.69 9.62621 294.552 11.4251 293.394 15.9223V15.951ZM282.907 31.6911C281.443 36.7337 286.82 47.7375 291.93 42.3026C297.03 36.8581 286.332 33.069 282.907 31.6911ZM305.345 31.6911C306.57 29.433 301.919 24.4765 300.637 24.2947C299.9 24.199 296.934 25.8256 296.36 26.5241C291.404 32.7915 301.709 32.8202 305.345 31.6911ZM317.851 47.4313L322.434 39.6712C327.869 30.562 314.33 26.6198 314.052 36.9538C313.937 41.2022 315.889 44.1014 317.879 47.4313H317.851ZM331.476 29.1842C332.424 28.1508 333.868 27.414 334.777 26.0074C340.279 17.9029 327.993 14.0277 327.419 23.9598C327.324 25.4525 328.242 30.5046 329.276 31.4519C330.443 32.4853 330.72 30.0071 331.448 29.1842H331.476ZM349.455 31.3562C346.126 34.9348 345.083 42.2739 339.303 43.9196C343.466 46.972 347.867 46.0917 351.991 43.6134C353.302 46.972 357.952 49.2971 360.765 46.6371C361.99 45.4793 359.847 44.1684 359.234 42.8767C358.134 40.4654 358.201 38.6952 358.718 36.1213C355.809 35.0592 352.45 33.4613 352.757 29.5573C352.202 28.9737 349.943 30.8682 349.455 31.3849V31.3562ZM341.351 26.4667C341.504 26.9547 341.963 27.5001 342.48 27.3183C345.111 24.8497 354.469 23.8067 351.293 17.8455C347.437 10.5735 339.763 20.9649 341.351 26.4667ZM353.828 27.9307C353.493 29.7679 354.01 30.8969 355.015 32.2461C358.746 37.193 363.244 33.2795 364.22 28.2082C361.349 25.5769 357.129 26.9834 353.828 27.9307ZM373.358 22.5819C374.066 30.3515 383.05 29.7392 383.137 23.29C382.524 18.8215 378.859 15.951 377.482 11.6069C375.195 14.42 372.994 18.7354 373.358 22.5532V22.5819ZM389.71 27.3566C387.969 26.0361 386.629 34.045 386.84 35.6046C388.093 45.02 399.307 40.7716 394.418 33.3465C393.011 31.1744 390.169 30.3802 389.71 27.3566ZM418.138 22.9838C417.105 19.1564 417.899 16.0754 420.616 13.444C418.014 8.79375 412.761 12.1331 410.923 15.951C408.024 12.3149 402.149 12.3724 398.695 15.1568C400.685 16.0371 401.996 16.9557 403.441 18.6684C406.34 22.1226 407.594 28.5431 412.148 29.5191C411.842 25.8256 415.21 23.6823 418.138 22.9838ZM400.685 31.6911C400.503 34.9922 400.963 38.2647 402.915 40.9247C407.775 47.4983 413.679 40.1018 409.947 36.0065L400.685 31.6911ZM413.191 31.1074C416.578 31.9686 420.521 33.3465 423.582 30.8395C423.764 28.878 419.822 24.1703 418.473 24.199C416.004 24.199 412.301 28.1508 413.191 31.1074ZM436.605 47.4313C436.663 43.2786 441.37 40.1592 441.619 36.3127C441.925 31.6911 437.485 29.1268 434.07 31.9399C429.907 35.3941 432.567 44.7138 436.576 47.4313H436.605ZM453.446 19.3765C453.14 18.9746 451.829 18.2761 451.341 18.1517C444.279 16.8408 444.825 27.0504 447.121 31.6911C448.068 31.9399 448.068 31.3275 448.528 30.7725C450.786 28.0551 456.316 23.223 453.446 19.3765ZM470.564 29.5191C468.334 27.4427 462.555 41.2309 460.325 41.9964L457.331 44.1684C461.55 46.7328 466.287 46.3309 470.047 43.068C471.08 48.0437 475.941 48.6847 479.52 46.3022C480.075 45.4793 477.109 43.2786 476.735 41.9964C476.247 40.3123 476.86 36.8007 476.429 36.0926C476.066 35.4515 469.435 33.5283 470.535 29.4904L470.564 29.5191ZM459.589 27.3566C464.516 25.2707 474.994 21.8452 466.717 15.5204C461.244 14.2382 458.823 22.735 459.589 27.3566ZM482.027 27.3566C478.668 26.3423 468.239 26.1318 472.764 32.2748C473.252 32.9446 476.582 34.9922 477.233 34.8392C478.783 34.5043 482.917 29.7392 482.055 27.3566H482.027Z" fill="#FFFCF5"/>
</g>
<path d="M64.7484 22.9456C61.6291 23.778 58.9978 25.8257 58.816 29.5191C54.4719 28.6675 53.1897 22.5532 50.5966 19.2234C49.0944 17.3289 47.4773 16.0754 45.334 15.1568C49.1901 12.0088 54.0509 13.0422 58.0218 15.3673C60.012 12.0662 62.6721 10.1142 66.3081 11.8844C69.9441 13.6546 65.6957 14.6975 65.0259 16.994C64.4709 18.9172 65.0259 20.9649 64.7484 22.9168V22.9456Z" fill="#2F3081"/>
<path d="M163.638 14.3338C168.097 12.8316 172.374 12.401 176.106 15.9509C177.263 11.425 182.402 9.65486 185.617 12.9847C183.167 16.1901 181.636 18.6397 183.11 23.0125C179.923 23.5579 177.024 25.95 176.594 29.519C171.828 28.1125 170.939 21.6346 167.609 17.9986C166.566 16.8982 165.341 16.3432 164.279 15.5203C163.848 15.1854 163.36 15.616 163.638 14.3338Z" fill="#2F3081"/>
<path d="M470.568 29.5181C469.467 33.556 476.098 35.4506 476.472 36.1204C476.893 36.8572 476.28 40.3401 476.778 42.0241C477.141 43.3063 480.079 45.5071 479.553 46.33C475.984 48.7221 471.084 48.0714 470.08 43.0958C466.319 46.33 461.554 46.7605 457.363 44.1962L460.358 42.0241C462.588 41.2587 468.338 27.4705 470.596 29.5564L470.568 29.5181Z" fill="#2F3081"/>
<path d="M293.395 15.9509C294.553 11.425 299.691 9.65486 302.896 12.9847C300.457 16.1901 298.926 18.6397 300.39 23.0125C296.878 23.5579 294.247 26.3423 293.672 30.074C287.864 26.4667 287.491 16.9556 280.43 15.1567C284.649 12.3436 289.606 12.4967 293.395 15.9796V15.9509Z" fill="#2F3081"/>
<path d="M104.239 43.6421C111.119 41.7763 111.148 32.093 117.204 28.9736C117.511 32.7915 120.295 35.5089 123.711 36.0352C122.19 40.341 123.931 42.8192 126.218 46.0629C122.611 49.5746 118.391 47.2494 116.496 43.0967C113.233 46.484 109.014 46.3691 104.976 44.7712C104.306 44.5033 104.124 44.9626 104.277 43.6421H104.239Z" fill="#2F3081"/>
<path d="M349.457 31.3555C349.945 30.8388 352.241 28.9442 352.758 29.5183C352.452 33.4318 355.81 35.0202 358.719 36.0919C358.164 38.6658 358.135 40.436 359.236 42.8472C359.82 44.1294 361.953 45.4498 360.767 46.6076C357.954 49.2964 353.303 46.9425 351.992 43.584C347.868 46.0909 343.467 46.9425 339.305 43.8902C345.084 42.2348 346.127 34.9054 349.457 31.3268V31.3555Z" fill="#2F3081"/>
<path d="M418.14 22.9843C415.212 23.6828 411.873 25.8261 412.151 29.5195C407.567 28.5148 406.314 22.1231 403.443 18.6689C401.998 16.9561 400.659 16.0375 398.697 15.1572C402.151 12.4015 408.027 12.3154 410.926 15.9514C412.763 12.1336 418.054 8.7942 420.619 13.4445C417.901 16.1045 417.107 19.1569 418.14 22.9843Z" fill="#2F3081"/>
<path d="M232.167 31.3555C232.655 30.8388 234.952 28.9442 235.468 29.5183C235.162 33.4318 238.521 35.0202 241.429 36.0919C240.329 40.0054 241.372 42.7898 243.908 45.6316C241.583 50.0332 235.832 46.8851 234.215 43.1247C231.191 46.8851 225.594 46.5502 221.986 43.9189C227.737 42.4166 228.809 34.9628 232.138 31.3555H232.167Z" fill="#2F3081"/>
<path d="M373.359 22.5821C373.024 18.7643 375.196 14.4202 377.483 11.6357C378.86 15.9511 382.525 18.8504 383.138 23.3189C383.051 29.768 374.028 30.3517 373.359 22.6108V22.5821Z" fill="#2F3081"/>
<path d="M142.666 11.6357C143.125 16.286 147.622 18.5825 147.708 23.3189C147.833 29.2513 140.369 29.8924 138.666 25.0029C137.164 20.6875 139.269 14.2958 142.694 11.674L142.666 11.6357Z" fill="#2F3081"/>
<path d="M436.607 47.4318C432.598 44.7143 429.938 35.4233 434.1 31.9404C437.488 29.0986 441.956 31.6629 441.65 36.3132C441.401 40.1597 436.693 43.2791 436.636 47.4318H436.607Z" fill="#2F3081"/>
<path d="M83.2733 47.4311C80.4602 45.4218 78.69 40.4653 78.7474 36.858C78.9005 28.7535 89.1388 28.8205 88.2872 36.858C87.8853 40.561 83.4551 43.3358 83.2733 47.4311Z" fill="#2F3081"/>
<path d="M201.567 46.8853C197.194 45.3543 195.118 35.6997 198.362 32.2742C201.29 29.1836 206.677 31.2599 206.552 35.6997C206.428 39.7281 201.778 42.8761 201.567 46.8853Z" fill="#2F3081"/>
<path d="M317.854 47.4309C315.892 44.1011 313.94 41.2018 314.026 36.9534C314.304 26.6194 327.872 30.5617 322.408 39.6709L317.815 47.4309H317.854Z" fill="#2F3081"/>
<path d="M259.954 11.6357C260.385 16.286 269.398 23.7112 262.796 27.4716C253.964 32.5524 253.658 15.1282 259.954 11.6357Z" fill="#2F3081"/>
<path d="M23.9082 11.6357L24.9416 12.4012C25.2861 15.8267 29.5632 19.281 29.8694 22.2759C30.6636 29.6149 21.2769 30.1603 20.4253 23.8068C19.7459 18.7643 21.6788 15.7023 23.8795 11.6357H23.9082Z" fill="#2F3081"/>
<path d="M400.689 31.6914L409.951 36.0068C413.683 40.1021 407.779 47.4985 402.918 40.925C400.966 38.265 400.507 34.9925 400.689 31.6914Z" fill="#2F3081"/>
<path d="M389.713 27.357C390.172 30.3807 393.014 31.2035 394.42 33.3469C399.281 40.772 388.067 45.0204 386.842 35.605C386.632 34.0454 387.971 26.0079 389.713 27.357Z" fill="#2F3081"/>
<path d="M215.232 28.1502L212.295 31.6905C209.549 28.5999 209.147 18.974 213.826 18.1511C220.581 16.9551 220.189 25.4232 215.261 28.1119L215.232 28.1502Z" fill="#2F3081"/>
<path d="M282.909 31.6914C286.335 33.0693 297.214 36.6479 291.932 42.3029C286.641 47.9578 281.445 36.734 282.909 31.6914Z" fill="#2F3081"/>
<path d="M341.356 26.4667C339.768 20.9649 347.442 10.5735 351.298 17.8455C354.474 23.8067 345.116 24.8497 342.485 27.3183C341.968 27.5001 341.509 26.9547 341.356 26.4667Z" fill="#2F3081"/>
<path d="M331.479 29.1842C330.723 30.0454 330.445 32.4853 329.316 31.4519C328.273 30.5047 327.355 25.4525 327.45 23.9598C328.024 13.9895 340.282 17.903 334.818 26.0075C333.871 27.3853 332.426 28.1508 331.517 29.1842H331.479Z" fill="#2F3081"/>
<path d="M106.227 27.3562C104.821 22.3423 110.141 11.3003 115.241 16.7448C120.35 22.1892 109.653 25.9783 106.227 27.3562Z" fill="#2F3081"/>
<path d="M165.618 31.6914C169.043 33.0693 179.923 36.6479 174.641 42.3029C169.35 47.9578 164.278 36.6766 165.618 31.6914Z" fill="#2F3081"/>
<path d="M224.104 26.4667C222.507 20.9649 230.18 10.5735 234.037 17.8455C237.242 23.9024 227.798 24.6966 225.234 27.3183C224.707 27.5001 224.258 26.9547 224.104 26.4667Z" fill="#2F3081"/>
<path d="M459.592 27.3561C458.797 22.7345 461.247 14.2377 466.72 15.5199C474.997 21.8446 464.519 25.2702 459.592 27.3561Z" fill="#2F3081"/>
<path d="M453.448 19.3761C456.319 23.2514 450.788 28.0834 448.53 30.7722C448.1 31.2985 448.071 31.9395 447.124 31.6908C444.798 27.0501 444.282 16.8405 451.343 18.1514C451.86 18.2471 453.142 18.9456 453.448 19.3761Z" fill="#2F3081"/>
<path d="M35.3748 27.3559C36.3221 27.1071 36.3221 27.7195 36.7814 28.2649C38.2166 29.9777 41.6421 33.5563 42.1301 35.4796C43.7472 41.8426 35.5853 42.9143 34.0926 37.7186C33.1453 34.3218 34.1787 30.4657 35.3748 27.3846V27.3559Z" fill="#2F3081"/>
<path d="M151.773 36.1878C151.314 33.2215 151.897 29.4898 153.878 27.3848C154.682 29.7386 159.198 32.7335 159.878 34.4463C162.566 41.3547 153.055 44.4071 151.773 36.2165V36.1878Z" fill="#2F3081"/>
<path d="M47.8393 31.6914L56.3744 35.7293C60.8046 39.8246 54.8434 46.8862 50.3175 41.7479C47.7819 38.8773 47.6001 35.4805 47.8393 31.6914Z" fill="#2F3081"/>
<path d="M92.3837 26.4001C91.8957 22.3048 92.9291 17.6641 97.4837 18.1234C99.627 18.3339 100.546 19.3481 100.756 21.6637C101.12 26.1896 96.4216 28.0554 94.4887 31.6915C93.3309 30.3806 92.5942 28.2085 92.3837 26.4001Z" fill="#2F3081"/>
<path d="M269.063 36.1878C268.575 33.011 269.273 29.8534 271.168 27.3848C272.488 30.0448 277.014 33.0684 277.378 35.8146C278.267 42.4551 270.134 43.278 269.034 36.1878H269.063Z" fill="#2F3081"/>
<path d="M236.54 27.931C239.841 26.9837 244.061 25.5771 246.932 28.2085C246.53 31.4522 244.425 33.4616 241.822 34.8394C238.865 34.074 235.956 31.567 236.54 27.931Z" fill="#2F3081"/>
<path d="M353.832 27.931C357.133 26.9837 361.353 25.5771 364.224 28.2085C363.248 33.2798 358.75 37.222 355.019 32.2464C354.014 30.8972 353.497 29.7681 353.832 27.931Z" fill="#2F3081"/>
<path d="M482.028 27.3568C482.918 29.7394 478.784 34.5332 477.196 34.8394C476.555 34.9638 473.254 32.9448 472.737 32.275C468.211 26.1321 478.67 26.3426 481.999 27.3568H482.028Z" fill="#2F3081"/>
<path d="M59.8871 30.256C59.2173 27.6916 63.3413 23.9599 65.5995 24.3235C66.8817 24.5053 70.3359 28.6963 70.3359 30.3804C70.3072 33.3083 60.4708 32.4854 59.9158 30.256H59.8871Z" fill="#2F3081"/>
<path d="M413.196 31.1077C412.306 28.151 416.009 24.2375 418.478 24.1992C419.827 24.1992 423.769 28.9069 423.587 30.8397C420.525 33.3467 416.583 31.9401 413.196 31.1077Z" fill="#2F3081"/>
<path d="M188.059 31.6913C185.619 32.1793 180.481 32.7916 178.404 31.232C176.319 29.6723 180.385 23.5006 183.629 24.4479C185.399 24.9646 188.978 29.3087 188.088 31.6913H188.059Z" fill="#2F3081"/>
<path d="M305.346 31.6905C301.739 32.8196 291.405 32.7909 296.362 26.5235C296.936 25.825 299.902 24.1984 300.639 24.2941C301.921 24.4472 306.571 29.4324 305.346 31.6905Z" fill="#2F3081"/>
<mask id="mask3_76_94741" style="mask-type:luminance" maskUnits="userSpaceOnUse" x="480" y="7" width="484" height="43">
<path d="M480.834 7.49219H963.573V49.7083H480.834V7.49219Z" fill="white"/>
</mask>
<g mask="url(#mask3_76_94741)">
<path d="M479.754 2.92773H966.34V56.1189H479.754V2.92773ZM480.242 52.8752L480.309 54.7123L480.979 55.5926H965.326V52.8752H480.242ZM480.242 7.27182V51.7748H965.326V7.27182H480.242ZM965.354 3.47314H481.007C480.06 3.47314 480.06 6.20015 481.007 6.20015H965.354V3.47314Z" fill="#FFFCF5"/>
</g>
<mask id="mask4_76_94741" style="mask-type:luminance" maskUnits="userSpaceOnUse" x="482" y="7" width="481" height="43">
<path d="M482.346 7.49219H962.454V49.7083H482.346V7.49219Z" fill="white"/>
</mask>
<g mask="url(#mask4_76_94741)">
<path d="M495.712 37.6523C494.334 35.7003 495.224 31.6624 494.487 30.0453C494.057 29.1268 492.679 29.0311 491.98 28.4187C486.23 23.3761 490.478 12.0088 496.229 8.88943C495.559 16.0084 502.286 17.568 501.185 24.8784C500.812 27.3566 498.123 29.7966 495.741 29.5573C494.793 41.384 503.137 46.3309 512.428 48.5316L510.141 42.6375C500.841 42.9724 501.185 30.1315 506.467 24.6583L509.003 28.945C510.591 31.1744 512.581 31.6911 513.596 34.8104C515.213 39.7669 511.175 41.3553 511.27 42.7236C513.988 52.8183 524.752 47.7375 531.135 45.2688C532.178 44.1014 528.235 43.7091 527.862 43.7091C526.609 43.7665 524.963 45.2688 523.068 44.9626C517.959 44.1971 514.6 33.2795 517.901 28.9737C518.571 28.6005 519.097 30.4089 519.949 31.05C523.767 33.9589 532.512 33.8058 528.599 42.5131C535.115 44.8095 539.698 37.3174 543.086 32.4853C539.239 32.6671 536.148 34.1694 532.082 33.069C522.121 30.3515 522.944 19.9506 516.495 16.927L511.663 15.396C516.801 12.4011 522.456 9.9611 527.9 13.6928C529.795 9.40613 537.278 8.40144 539.363 12.6786C540.272 14.5731 537.316 15.0611 536.522 17.6924C534.866 23.0986 537.804 23.0699 540.033 26.0361C541.717 28.2369 541.134 31.5667 543.822 31.1074C545.172 30.8682 549.2 24.2947 550.578 22.6776C559.811 11.6739 569.81 5.43521 584.02 9.68362C598.238 13.932 603.74 27.9594 613.213 38.169L612.476 29.854C603.798 26.8973 607.194 12.4393 613.95 9.40613C613.672 15.5874 623.021 21.4528 617.949 27.5958C616.878 28.9067 613.73 29.433 613.49 30.3515C614.16 36.7337 614.773 40.896 619.968 44.3502C623.021 46.3692 627.393 48.4455 630.915 48.1967C629.288 47.5557 628.59 43.1829 627.948 42.7619C627.269 42.3026 626.083 42.6375 625.317 42.3887C619.844 40.5228 620.093 32.5523 622.169 27.8446C624.915 21.759 624.676 25.5769 626.417 28.1508C628.561 31.2605 632.474 32.8872 631.891 37.8628C631.527 41.1065 627.422 40.9534 630.637 45.8142C634.216 51.23 644.636 47.7757 648.856 44.4363C644.023 42.3026 641.335 47.68 637.115 42.0251C634.426 38.3891 633.967 33.2795 635.374 29.0024C636.876 29.5861 637.393 30.9256 639.01 31.8155C643.937 34.4086 648.913 33.9589 646.837 42.5418C650.166 45.9386 659.678 35.3654 660.29 33.069C660.625 31.8155 659.764 32.3609 659.247 32.4853C653.286 33.6144 649.745 34.533 644.607 30.1028C639.469 25.6725 638.435 15.5874 629.872 16.0084C633.881 11.9131 640.78 10.3821 645.612 13.6832C648.913 9.22433 654.817 8.33446 657.754 13.5684C657.754 14.0277 653.716 16.0371 653.869 20.0176C654.023 23.9885 657.324 24.5435 658.759 27.2035C659.984 29.4617 658.941 32.1791 662.213 31.05C671.045 16.7739 682.728 5.3778 699.779 9.16692C712.496 11.9801 719.835 24.2373 727.442 34.4468L730.436 37.681L729.709 29.8922C720.839 26.3423 724.628 13.0422 731.173 8.91814C731.69 17.5967 743.402 24.7827 730.743 30.3802C731.269 33.0403 731.202 35.4228 732.092 38.0542C734.235 44.3215 741.995 46.8859 747.401 48.5316L745.172 42.8193C738.57 42.8193 737.316 37.193 738.292 31.0213C738.512 29.6722 741.632 22.4288 742.665 25.0028C742.789 29.2799 747.401 30.7725 748.693 34.6573C750.463 40.0635 746.607 40.2549 746.674 42.7619C746.732 44.5894 749.267 48.168 750.923 48.5029C755.812 49.5172 761.678 47.3164 766.146 45.2688C767.122 44.1684 763.725 43.6709 763.333 43.6709C760.615 43.7378 759.668 46.3979 756.176 43.8909C751.994 40.8673 750.951 33.8632 752.664 29.0024L756.3 31.8155C761.62 33.3082 766.079 35.5759 764.127 42.5418C767.916 45.7568 776.997 36.1213 778.097 33.069C778.375 32.3035 778.001 32.1791 777.36 32.2748C775.619 32.514 774.088 33.5283 771.858 33.5857C768.098 33.6814 764.826 32.6097 761.898 30.074C756.549 25.4525 755.716 15.5491 747.162 15.9797C751.315 11.9801 757.955 10.296 762.902 13.6545C766.481 9.04253 771.648 8.43015 775.102 13.5397C771.83 15.7405 769.725 19.7401 772.375 23.5579C774.547 26.6772 775.16 25.3377 777.054 30.4089C777.236 30.9256 776.93 31.3562 777.848 31.2031C778.92 31.2988 779.351 31.0213 780.145 30.3802C781.79 29.0311 785.034 23.5005 786.843 21.3954C796.134 10.4778 806.984 5.5596 820.648 10.1429C833.518 14.4487 839.689 29.4904 848.98 38.7527L847.421 29.6148C840.704 26.9834 841.613 18.4579 845.105 13.0804C845.622 12.248 848.617 8.45885 849.507 9.47311C848.617 15.0324 854.272 17.635 854.521 22.735C854.731 27.1652 852.559 28.7919 848.952 29.854C848.033 40.829 856.042 47.1921 865.218 48.5029C866.739 48.723 864.328 45.6324 863.993 44.9243C863.687 44.2832 863.477 42.6949 863.381 42.6088C863.199 42.4174 860.29 42.6088 858.702 41.4701C854.3 38.3221 855.803 26.3998 859.716 24.6583C860.597 24.266 860.357 25.0602 860.51 25.3951C860.931 26.4667 861.056 27.3183 861.726 28.39C863.993 31.9686 867.782 32.6384 866.893 38.4178C866.558 40.7142 864.357 40.9247 864.51 42.6375C865.371 52.0816 879.456 48.5029 883.896 44.4076C879.188 42.3313 877.38 47.6513 872.892 42.7906C869.495 39.1545 869.4 33.7388 870.414 28.945C870.835 28.5144 873.619 31.4136 874.442 31.8729C879.064 34.4468 884.231 34.1119 881.877 42.5131C885.943 44.4363 889.178 40.8673 891.866 37.9298C892.393 37.3461 895.722 33.3082 895.847 33.0403C896.239 31.9973 895.321 32.1791 894.718 32.3322C889.914 33.5857 887.254 34.4086 882.422 31.9112C874.385 27.7489 874.815 15.8266 864.912 15.951C869.285 11.8557 876.04 10.2386 881.111 13.8076C882.91 9.68362 888.479 8.67893 891.627 11.6069C895.053 14.8219 889.484 14.5444 889.331 19.4626C889.178 24.3904 891.656 23.8354 893.579 26.8303C894.861 28.7919 894.986 33.1551 897.799 30.2558C900.889 27.0504 903.731 21.7016 907.032 18.3048C918.495 6.47818 934.236 4.97593 947.019 15.396C952.674 20.0176 956.578 26.7729 961.228 32.4853C960.922 32.9446 960.185 33.6527 959.764 33.3082C959.487 33.0977 957.497 29.0311 956.549 28.39C953.038 26.0649 953.621 30.2271 952.215 32.4279C950.808 34.6286 948.148 34.8104 947.813 38.5422C947.411 43.1829 951.784 45.02 951.784 45.5367C949.641 48.2924 947.23 49.8234 943.804 48.8091C942.12 48.3211 939.986 45.4506 939.584 45.4219C939.249 45.4219 937.144 46.6754 936.044 46.8572C932.063 47.4695 926.533 46.5223 923.844 43.0967C934.905 42.36 932.647 29.5191 943.412 26.1031C947.928 24.6583 950.531 26.2849 954.808 26.5241C951.574 21.6059 946.713 13.9607 940.321 16.4964C944.388 25.2133 935.489 25.0602 931.671 27.9594C930.81 28.6005 930.293 30.4089 929.624 30.0453C926.657 25.5769 929.346 15.1855 934.637 14.3339C937.604 13.8746 940.139 16.2285 943.345 14.5731C938.761 9.98981 923.873 6.53559 923.107 16.439C923.021 17.5106 924.61 18.2761 925.098 19.2234C927.394 23.5292 923.567 27.5958 920.667 30.074C919.72 30.5907 919.194 34.8392 918.16 34.3799C917.299 34.0163 915.472 30.1028 915.137 28.9737C913.453 23.0986 915.012 15.8266 921.825 16.4103L924.638 9.9611C914.639 11.9801 906.908 17.2331 907.463 29.4904C911.951 29.6435 913.481 32.8202 912.936 37.4131C912.477 41.4701 906.851 45.0774 907.922 50.1583C902.325 47.1921 897.923 35.2984 903.76 30.7151C904.372 30.2558 906.238 29.6148 906.363 29.4617C906.669 28.9067 906.516 21.9408 907.425 20.3238C897.617 30.8969 892.086 44.6851 877.715 49.0579C863.352 53.4307 853.2 46.2161 843.813 34.9922C842.751 33.7101 839.23 27.9977 838.35 27.8733C834.982 27.4427 835.805 29.921 834.312 32.2078C832.197 35.4802 828.561 35.3271 830.341 41.5084C831.221 44.5894 835.651 44.2545 832.35 47.4313C829.049 50.6176 823.767 49.1727 821.835 45.2305C816.792 48.5699 810.037 47.2208 805.635 43.0967C815.577 43.4029 815.328 30.9543 823.088 27.0791C826.054 25.6056 829.537 25.3951 832.781 25.7587C833.604 25.8543 837.403 27.9594 837.058 25.9787C836.905 25.1176 831.709 18.9172 830.733 18.2091C828.379 16.4677 825.327 15.2812 822.571 16.4964C825.384 24.8114 818.84 24.9358 814.256 27.7776C813.07 28.5144 812.486 29.9784 811.108 30.0453C810.104 25.5195 810.314 19.587 813.587 16.1902C817.739 11.8844 820.954 16.6208 825.566 14.5731C825.815 13.444 824.868 13.7215 824.227 13.3483C819.27 10.4204 809.367 7.08099 805.97 13.932C803.654 18.6397 806.554 17.0226 807.348 19.7114C809.616 27.4427 801.081 28.0838 801.081 34.9348C796.899 31.9686 795.091 23.8067 797.875 19.2234C800.133 15.4917 803.463 16.927 804.047 16.4103C804.229 16.2572 804.965 12.9847 805.635 11.9131C806.161 11.1189 807.109 11.339 807.07 10.5065C797.445 11.0902 788.431 17.9412 789.617 29.4617C791.761 29.1555 794.507 31.5093 794.966 33.6814C796.469 40.7142 789.101 43.2498 790.077 50.1296C783.446 46.551 779.226 32.9733 788 29.4043L789.101 21.3572C780.202 30.4376 774.365 44.1971 761.926 48.5029C747.468 53.5168 736.924 47.7088 727.202 36.2744C725.978 34.8392 722.007 28.6388 721.241 28.1125C718.304 26.1605 718.026 30.6577 716.744 32.4566C714.639 35.3941 711.118 36.3988 713.137 41.8146C713.845 43.7091 716.687 44.4076 716.17 45.9099C714.725 50.0913 705.807 50.0913 704.736 45.2018C699.626 48.168 692.593 47.2495 688.287 43.0298C691.923 43.2786 695.445 40.6472 697.492 37.5662C698.707 35.7003 699.291 33.3752 700.793 31.3562C704.487 26.371 709.778 25.0315 715.462 25.7013C715.95 25.7587 720.447 27.8446 719.739 25.95C715.615 21.6346 712.103 13.9894 705.281 16.439C708.4 24.5052 701.434 25.0315 696.966 27.7202C695.741 28.457 695.196 29.921 693.818 29.9784C692.172 23.5292 694.191 13.1091 702.008 14.2669C702.927 14.42 703.635 15.2142 704.515 15.2429C704.889 15.2429 708.831 14.8506 707.788 13.6928C701.186 10.4778 690.182 5.7414 687.828 16.7164L687.924 17.3862C693.54 21.051 689.024 27.0504 685.35 30.2271C683.608 32.4853 684.278 36.8581 681.436 32.3035C677.676 26.3136 678.441 15.5874 686.785 16.3146C686.603 13.6545 689.636 12.1331 689.081 9.86542C685.044 11.0902 681.168 12.1906 677.676 14.8506C673.648 17.9699 672.174 23.711 672.298 29.0598C675.906 30.1602 678.078 31.7868 677.867 36.1883C677.618 41.1352 672.021 44.0727 672.853 49.4502C671.992 50.4262 668.969 46.6754 668.452 45.8429C665.112 40.4941 664.108 31.8729 670.767 29.2799L672.365 20.1707C671.016 21.2423 669.734 22.6106 668.605 23.9598C660.931 33.3082 655.917 44.532 643.784 48.5316C625.958 54.4354 613.548 43.1255 603.74 28.2656C599.731 26.5241 600.927 28.2656 599.827 30.5907C597.961 34.5999 591.751 36.9825 595.817 42.8193C596.64 43.977 598.726 44.5894 598.449 45.3836C597.588 47.7088 593.98 49.1727 591.722 48.9335C588.909 48.656 586.737 45.2975 586.249 45.2688C585.79 45.2305 584.508 46.4266 583.618 46.6084C578.977 47.7088 574.269 46.2735 570.509 43.2211C579.159 43.0298 579.8 33.5283 585.244 28.8493C590.679 24.1703 595.76 25.2133 601.932 26.6485C602.334 26.2849 600.774 24.1703 600.439 23.6823C597.559 19.7114 592.488 14.1138 587.474 16.3816C589.675 25.2994 584.268 24.3521 579.618 27.1078C578.728 27.6245 576.623 30.4377 575.982 29.921C573.714 23.711 576.594 12.736 584.173 14.2095C584.938 14.3626 585.484 15.1855 586.22 15.2429C587.349 15.3673 589.062 14.2669 590.44 14.6975C591.483 13.8363 587.139 12.1619 586.708 11.9801C581.484 9.7793 572.738 7.30107 570.356 14.8506C569.16 18.611 573.016 18.1517 572.375 22.9838C571.734 27.8063 565.897 29.1842 565.983 34.265C564.729 35.6046 562.098 29.9497 561.83 28.7249C561.065 25.3951 561.036 19.7975 563.811 17.5106C565.495 16.1328 567.638 16.7164 568.49 16.1041C569.007 15.7405 570.107 11.1859 571.456 10.3821C561.983 11.339 554.032 17.3575 554.061 28.5144C554.338 29.6435 560.424 29.854 560.022 36.1596C559.716 40.7716 553.573 44.4363 555.008 49.4502C547.736 47.3739 544.31 31.8155 553.027 29.0311L554.003 20.7161C545.229 30.4377 538.474 44.7425 525.661 48.7804C507.969 54.378 494.516 41.872 485.129 26.9547C484.517 25.9787 484.794 25.0315 485.378 25.0602C488.373 28.4187 490.851 33.2221 493.846 36.4658C494.363 37.0399 494.698 37.748 495.588 37.5279L495.712 37.6523ZM494.238 11.6356C492.009 15.7022 490.114 18.7641 490.784 23.8067C491.617 30.1602 501.032 29.6148 500.228 22.2757C499.893 19.2808 495.645 15.8266 495.31 12.4011L494.277 11.6356H494.238ZM505.702 27.3566C504.515 30.4664 503.472 34.3225 504.419 37.681C505.883 42.8767 514.045 41.8433 512.457 35.4515C511.969 33.5283 508.543 29.9497 507.108 28.2369C506.687 27.7202 506.649 27.0791 505.702 27.3183V27.3566ZM535.077 22.9455C535.354 20.9936 534.838 18.9459 535.354 17.0226C535.995 14.6975 540.091 13.5971 536.636 11.9131C533.182 10.2386 530.34 12.0949 528.36 15.396C524.379 13.0804 519.547 12.0375 515.672 15.1855C517.777 16.1041 519.432 17.3575 520.925 19.2521C523.528 22.5819 524.81 28.6962 529.154 29.5573C529.336 25.8256 531.967 23.8067 535.077 22.9838V22.9455ZM518.179 31.6911C517.93 35.4802 518.112 38.877 520.657 41.7476C525.173 46.8859 531.135 39.8243 526.704 35.729L518.179 31.6911ZM530.216 30.2558C530.8 32.4566 540.617 33.3082 540.646 30.3802C540.646 28.6962 537.191 24.5052 535.909 24.3234C533.641 23.9885 529.546 27.7202 530.187 30.2558H530.216ZM553.601 47.4313C553.793 43.336 558.223 40.5611 558.615 36.8581C559.476 28.8206 549.267 28.7249 549.085 36.8581C549.018 40.4654 550.788 45.4219 553.601 47.4313ZM562.711 26.3998C562.931 28.1795 563.696 30.3515 564.825 31.6911C566.72 28.0551 571.456 26.1892 571.093 21.6634C570.911 19.3478 569.954 18.3335 567.82 18.123C563.266 17.6637 562.223 22.3044 562.711 26.3998ZM574.575 43.6422C574.422 44.9626 574.575 44.5033 575.274 44.7712C579.312 46.3979 583.56 46.484 586.804 43.0967C588.699 47.2495 592.918 49.5746 596.526 46.063C594.229 42.848 592.488 40.3697 594.019 36.0352C590.593 35.5089 587.809 32.7915 587.502 28.9737C581.417 32.093 581.417 41.7763 574.547 43.6422H574.575ZM576.566 27.3566C579.982 25.9787 590.871 22.4001 585.579 16.7452C580.288 11.0902 575.159 22.3427 576.566 27.3566ZM589.129 27.9594C587.904 30.9256 591.933 35.0592 594.325 34.753C594.507 34.753 597.291 32.7341 597.406 32.6097C598.171 31.8442 599.731 28.1508 599.032 27.3566C595.607 26.5911 592.43 26.4667 589.129 27.9307V27.9594ZM613.002 11.6356C609.577 14.2669 607.462 20.6587 608.965 24.9645C610.677 29.854 618.131 29.2129 618.007 23.29C617.921 18.544 613.452 16.2572 612.964 11.6069L613.002 11.6356ZM622.112 36.1883C623.394 44.4076 632.895 41.317 630.207 34.4086C629.537 32.7341 625.04 29.7104 624.217 27.3566C622.226 29.4904 621.614 33.1934 622.112 36.1596V36.1883ZM633.967 14.3339C633.69 15.6448 634.178 15.2142 634.608 15.5204C635.708 16.3433 636.933 16.8695 637.938 17.9986C641.277 21.6059 642.158 28.0838 646.932 29.5191C647.353 25.95 650.262 23.5292 653.439 23.0125C651.975 18.6397 653.468 16.1902 655.946 12.9847C652.74 9.65491 647.602 11.4538 646.444 15.951C642.713 12.4011 638.435 12.8316 633.967 14.3339ZM635.957 31.6911C634.608 36.705 639.832 47.7757 644.971 42.3026C650.109 36.8294 639.383 33.069 635.957 31.6911ZM658.395 31.6911C659.276 29.2799 655.697 24.9358 653.927 24.4478C650.693 23.5292 646.626 29.7104 648.702 31.2318C650.779 32.7628 655.946 32.1791 658.357 31.6911H658.395ZM671.906 46.8859C672.117 42.8767 676.767 39.7286 676.882 35.7003C677.035 31.2318 671.629 29.1842 668.691 32.2748C665.419 35.7003 667.533 45.3549 671.906 46.8859ZM685.57 28.1508C690.488 25.4525 690.89 16.9939 684.135 18.1804C679.456 19.0033 679.848 28.6005 682.604 31.7198L685.532 28.1795L685.57 28.1508ZM702.506 31.3562C699.167 34.9348 698.095 42.4174 692.354 43.9196C695.961 46.551 701.549 46.8572 704.582 43.1255C706.199 46.8859 711.912 50.0339 714.266 45.6324C711.73 42.7906 710.697 40.0348 711.797 36.0926C708.888 35.021 705.53 33.4326 705.836 29.5191C705.281 28.945 703.023 30.8395 702.535 31.3562H702.506ZM694.43 26.4667C694.583 26.9547 695.014 27.5001 695.559 27.3183C698.162 24.6966 707.606 23.9024 704.362 17.8455C700.516 10.5735 692.842 20.9649 694.43 26.4667ZM706.869 27.9307C706.295 31.5667 709.194 34.045 712.161 34.8392C714.725 33.4613 716.84 31.4519 717.27 28.2082C714.39 25.5769 710.17 26.9834 706.869 27.9307ZM730.283 11.6356C723.987 15.1281 724.293 32.5523 733.135 27.4714C739.737 23.711 730.714 16.2859 730.283 11.6356ZM739.393 36.1883C740.493 43.2498 748.626 42.4557 747.746 35.8151C747.373 33.069 742.847 30.0453 741.536 27.3853C739.613 29.854 738.905 33.0116 739.431 36.1883H739.393ZM763.725 15.951C759.936 12.4967 754.989 12.3437 750.769 15.1281C757.802 16.927 758.166 26.438 764.003 30.0453C764.615 26.3136 767.218 23.5292 770.729 22.9838C769.265 18.611 770.758 16.1615 773.236 12.956C770.021 9.62621 764.893 11.4251 763.725 15.9223V15.951ZM753.248 31.6911C751.774 36.7337 757.161 47.7375 762.261 42.3026C767.371 36.8581 756.664 33.069 753.248 31.6911ZM775.686 31.6911C776.901 29.433 772.26 24.4765 770.978 24.2947C770.241 24.199 767.275 25.8256 766.691 26.5241C761.745 32.7915 772.04 32.8202 775.686 31.6911ZM788.182 47.4313L792.766 39.6712C798.21 30.562 784.671 26.6198 784.393 36.9538C784.269 41.2022 786.23 44.1014 788.211 47.4313H788.182ZM801.817 29.1842C802.765 28.1508 804.2 27.414 805.118 26.0074C810.62 17.9029 798.334 14.0277 797.751 23.9598C797.655 25.4525 798.574 30.5046 799.617 31.4519C800.774 32.4853 801.052 30.0071 801.789 29.1842H801.817ZM819.787 31.3562C816.457 34.9348 815.424 42.2739 809.644 43.9196C813.797 46.972 818.199 46.0917 822.332 43.6134C823.643 46.972 828.293 49.2971 831.097 46.6371C832.322 45.4793 830.188 44.1684 829.575 42.8767C828.475 40.4654 828.533 38.6952 829.049 36.1213C826.15 35.0592 822.782 33.4613 823.088 29.5573C822.543 28.9737 820.284 30.8682 819.787 31.3849V31.3562ZM811.692 26.4667C811.845 26.9547 812.304 27.5001 812.821 27.3183C815.452 24.8497 824.801 23.8067 821.624 17.8455C817.778 10.5735 810.104 20.9649 811.692 26.4667ZM824.16 27.9307C823.825 29.7679 824.342 30.8969 825.356 32.2461C829.087 37.193 833.575 33.2795 834.551 28.2082C831.681 25.5769 827.461 26.9834 824.16 27.9307ZM843.699 22.5819C844.397 30.3515 853.382 29.7392 853.478 23.29C852.865 18.8215 849.2 15.951 847.823 11.6069C845.526 14.42 843.325 18.7354 843.699 22.5532V22.5819ZM860.051 27.3566C858.31 26.0361 856.96 34.045 857.171 35.6046C858.424 45.02 869.648 40.7716 864.759 33.3465C863.352 31.1744 860.51 30.3802 860.051 27.3566ZM888.479 22.9838C887.436 19.1564 888.23 16.0754 890.957 13.444C888.355 8.79375 883.102 12.1331 881.264 15.951C878.356 12.3149 872.49 12.3724 869.036 15.1568C871.026 16.0371 872.337 16.9557 873.772 18.6684C876.681 22.1226 877.935 28.5431 882.489 29.5191C882.183 25.8256 885.542 23.6823 888.479 22.9838ZM871.026 31.6911C870.835 34.9922 871.294 38.2647 873.256 40.9247C878.116 47.4983 884.011 40.1018 880.288 36.0065L871.026 31.6911ZM883.523 31.1074C886.919 31.9686 890.862 33.3465 893.914 30.8395C894.105 28.878 890.154 24.1703 888.814 24.199C886.336 24.199 882.642 28.1508 883.523 31.1074ZM906.937 47.4313C907.004 43.2786 911.711 40.1592 911.951 36.3127C912.257 31.6911 907.827 29.1268 904.401 31.9399C900.248 35.3941 902.908 44.7138 906.908 47.4313H906.937ZM923.787 19.3765C923.481 18.9746 922.16 18.2761 921.672 18.1517C914.611 16.8408 915.166 27.0504 917.452 31.6911C918.4 31.9399 918.4 31.3275 918.859 30.7725C921.127 28.0551 926.657 23.223 923.787 19.3765ZM940.905 29.5191C938.666 27.4427 932.896 41.2309 930.657 41.9964L927.662 44.1684C931.882 46.7328 936.618 46.3309 940.378 43.068C941.421 48.0437 946.282 48.6847 949.861 46.3022C950.406 45.4793 947.44 43.2786 947.076 41.9964C946.588 40.3123 947.201 36.8007 946.77 36.0926C946.407 35.4515 939.766 33.5283 940.866 29.4904L940.905 29.5191ZM929.93 27.3566C934.848 25.2707 945.335 21.8452 937.049 15.5204C931.575 14.2382 929.164 22.735 929.93 27.3566ZM952.368 27.3566C949 26.3423 938.58 26.1318 943.106 32.2748C943.594 32.9446 946.923 34.9922 947.564 34.8392C949.124 34.5043 953.248 29.7392 952.397 27.3566H952.368Z" fill="#FFFCF5"/>
</g>
<path d="M535.077 22.9456C531.967 23.778 529.336 25.8257 529.154 29.5191C524.81 28.6675 523.528 22.5532 520.925 19.2234C519.432 17.3289 517.806 16.0754 515.672 15.1568C519.518 12.0088 524.379 13.0422 528.36 15.3673C530.34 12.0662 533 10.1142 536.636 11.8844C540.272 13.6546 536.024 14.6975 535.354 16.994C534.809 18.9172 535.354 20.9649 535.077 22.9168V22.9456Z" fill="#2F3082"/>
<path d="M633.97 14.3338C638.438 12.8316 642.716 12.401 646.447 15.9509C647.605 11.425 652.743 9.65486 655.949 12.9847C653.499 16.1901 651.978 18.6397 653.442 23.0125C650.265 23.5579 647.356 25.95 646.935 29.519C642.161 28.1125 641.28 21.6346 637.941 17.9986C636.907 16.8982 635.683 16.3432 634.611 15.5203C634.18 15.1854 633.692 15.616 633.97 14.3338Z" fill="#2F3082"/>
<path d="M940.908 29.5181C939.807 33.556 946.438 35.4506 946.802 36.1204C947.232 36.8572 946.62 40.3401 947.108 42.0241C947.472 43.3063 950.409 45.5071 949.892 46.33C946.314 48.7221 941.424 48.0714 940.42 43.0958C936.659 46.33 931.885 46.7605 927.703 44.1962L930.698 42.0241C932.928 41.2587 938.669 27.4705 940.936 29.5564L940.908 29.5181Z" fill="#2F3082"/>
<path d="M763.725 15.9509C764.893 11.425 770.021 9.65486 773.236 12.9847C770.787 16.1901 769.265 18.6397 770.729 23.0125C767.218 23.5579 764.586 26.3423 764.003 30.074C758.195 26.4667 757.831 16.9556 750.77 15.1567C754.989 12.3436 759.936 12.4967 763.725 15.9796V15.9509Z" fill="#2F3082"/>
<path d="M574.577 43.6421C581.456 41.7763 581.485 32.093 587.532 28.9736C587.839 32.7915 590.623 35.5089 594.049 36.0352C592.518 40.341 594.259 42.8192 596.555 46.0629C592.948 49.5746 588.728 47.2494 586.834 43.0967C583.561 46.484 579.342 46.3691 575.313 44.7712C574.634 44.5033 574.452 44.9626 574.605 43.6421H574.577Z" fill="#2F3082"/>
<path d="M819.787 31.3555C820.285 30.8388 822.572 28.9442 823.088 29.5183C822.782 33.4318 826.15 35.0202 829.049 36.0919C828.504 38.6658 828.475 40.436 829.576 42.8472C830.15 44.1294 832.293 45.4498 831.097 46.6076C828.294 49.2964 823.643 46.9425 822.332 43.584C818.199 46.0909 813.797 46.9425 809.645 43.8902C815.424 42.2348 816.457 34.9054 819.787 31.3268V31.3555Z" fill="#2F3082"/>
<path d="M888.478 22.9843C885.541 23.6828 882.211 25.8261 882.488 29.5195C877.896 28.5148 876.642 22.1231 873.772 18.6689C872.336 16.9561 870.987 16.0375 869.035 15.1572C872.489 12.4015 878.355 12.3154 881.264 15.9514C883.101 12.1336 888.383 8.7942 890.957 13.4445C888.23 16.1045 887.435 19.1569 888.478 22.9843Z" fill="#2F3082"/>
<path d="M702.505 31.3555C702.993 30.8388 705.28 28.9442 705.806 29.5183C705.5 33.4318 708.859 35.0202 711.758 36.0919C710.657 40.0054 711.7 42.7898 714.236 45.6316C711.911 50.0332 706.17 46.8851 704.553 43.1247C701.52 46.8851 695.932 46.5502 692.324 43.9189C698.065 42.4166 699.137 34.9628 702.467 31.3555H702.505Z" fill="#2F3082"/>
<path d="M843.7 22.5821C843.356 18.7643 845.528 14.4202 847.824 11.6357C849.202 15.9511 852.867 18.8504 853.479 23.3189C853.384 29.768 844.37 30.3517 843.7 22.6108V22.5821Z" fill="#2F3082"/>
<path d="M613.004 11.6357C613.454 16.286 617.951 18.5825 618.047 23.3189C618.162 29.2513 610.708 29.8924 608.995 25.0029C607.502 20.6875 609.607 14.2958 613.033 11.674L613.004 11.6357Z" fill="#2F3082"/>
<path d="M906.937 47.4318C902.937 44.7143 900.277 35.4233 904.43 31.9404C907.826 29.0986 912.285 31.6629 911.979 36.3132C911.74 40.1597 907.032 43.2791 906.975 47.4318H906.937Z" fill="#2F3082"/>
<path d="M553.602 47.4311C550.789 45.4218 549.019 40.4653 549.086 36.858C549.239 28.7535 559.477 28.8205 558.616 36.858C558.224 40.561 553.794 43.3358 553.602 47.4311Z" fill="#2F3082"/>
<path d="M671.908 46.8853C667.535 45.3543 665.459 35.6997 668.693 32.2742C671.63 29.1836 677.008 31.2599 676.884 35.6997C676.769 39.7281 672.118 42.8761 671.908 46.8853Z" fill="#2F3082"/>
<path d="M788.183 47.4309C786.231 44.1011 784.269 41.2018 784.365 36.9534C784.642 26.6194 798.21 30.5617 792.737 39.6709L788.154 47.4309H788.183Z" fill="#2F3082"/>
<path d="M730.284 11.6357C730.714 16.286 739.737 23.7112 733.135 27.4716C724.294 32.5524 723.987 15.1282 730.284 11.6357Z" fill="#2F3082"/>
<path d="M494.241 11.6357L495.284 12.4012C495.619 15.8267 499.896 19.281 500.202 22.2759C500.997 29.6149 491.619 30.1603 490.758 23.8068C490.088 18.7643 492.012 15.7023 494.213 11.6357H494.241Z" fill="#2F3082"/>
<path d="M871.028 31.6914L880.29 36.0068C884.013 40.1021 878.118 47.4985 873.258 40.925C871.296 38.265 870.837 34.9925 871.028 31.6914Z" fill="#2F3082"/>
<path d="M860.054 27.357C860.513 30.3807 863.355 31.2035 864.762 33.3469C869.623 40.772 858.399 45.0204 857.174 35.605C856.964 34.0454 858.313 26.0079 860.054 27.357Z" fill="#2F3082"/>
<path d="M685.572 28.1502L682.635 31.6905C679.879 28.5999 679.487 18.974 684.166 18.1511C690.921 16.9551 690.519 25.4232 685.601 28.1119L685.572 28.1502Z" fill="#2F3082"/>
<path d="M753.248 31.6914C756.664 33.0693 767.553 36.6479 762.262 42.3029C756.97 47.9578 751.774 36.734 753.248 31.6914Z" fill="#2F3082"/>
<path d="M811.694 26.4667C810.105 20.9649 817.779 10.5735 821.626 17.8455C824.803 23.8067 815.454 24.8497 812.823 27.3183C812.306 27.5001 811.847 26.9547 811.694 26.4667Z" fill="#2F3082"/>
<path d="M801.817 29.1842C801.051 30.0454 800.774 32.4853 799.645 31.4519C798.612 30.5047 797.693 25.4525 797.779 23.9598C798.363 13.9895 810.62 17.903 805.147 26.0075C804.199 27.3853 802.764 28.1508 801.846 29.1842H801.817Z" fill="#2F3082"/>
<path d="M576.567 27.3562C575.161 22.3423 580.471 11.3003 585.581 16.7448C590.681 22.1892 579.983 25.9783 576.567 27.3562Z" fill="#2F3082"/>
<path d="M635.961 31.6914C639.386 33.0693 650.266 36.6479 644.974 42.3029C639.683 47.9578 634.612 36.6766 635.961 31.6914Z" fill="#2F3082"/>
<path d="M694.432 26.4667C692.844 20.9649 700.518 10.5735 704.364 17.8455C707.579 23.9024 698.135 24.6966 695.561 27.3183C695.045 27.5001 694.585 26.9547 694.432 26.4667Z" fill="#2F3082"/>
<path d="M929.93 27.3561C929.136 22.7345 931.576 14.2377 937.049 15.5199C945.335 21.8446 934.848 25.2702 929.93 27.3561Z" fill="#2F3082"/>
<path d="M923.788 19.3761C926.658 23.2514 921.128 28.0834 918.86 30.7722C918.439 31.2985 918.401 31.9395 917.453 31.6908C915.138 27.0501 914.612 16.8405 921.673 18.1514C922.19 18.2471 923.482 18.9456 923.788 19.3761Z" fill="#2F3082"/>
<path d="M505.703 27.3559C506.651 27.1071 506.651 27.7195 507.11 28.2649C508.545 29.9777 511.971 33.5563 512.459 35.4796C514.085 41.8426 505.923 42.9143 504.421 37.7186C503.474 34.3218 504.517 30.4657 505.703 27.3846V27.3559Z" fill="#2F3082"/>
<path d="M622.114 36.1878C621.655 33.2215 622.229 29.4898 624.219 27.3848C625.013 29.7386 629.539 32.7335 630.209 34.4463C632.898 41.3547 623.396 44.4071 622.114 36.2165V36.1878Z" fill="#2F3082"/>
<path d="M518.18 31.6914L526.705 35.7293C531.136 39.8246 525.174 46.8862 520.658 41.7479C518.113 38.8773 517.931 35.4805 518.18 31.6914Z" fill="#2F3082"/>
<path d="M562.711 26.4001C562.223 22.3048 563.266 17.6641 567.821 18.1234C569.955 18.3339 570.873 19.3481 571.093 21.6637C571.457 26.1896 566.749 28.0554 564.826 31.6915C563.659 30.3806 562.931 28.2085 562.711 26.4001Z" fill="#2F3082"/>
<path d="M739.394 36.1878C738.906 33.011 739.614 29.8534 741.508 27.3848C742.819 30.0448 747.345 33.0684 747.709 35.8146C748.598 42.4551 740.465 43.278 739.365 36.1878H739.394Z" fill="#2F3082"/>
<path d="M706.87 27.931C710.171 26.9837 714.391 25.5771 717.271 28.2085C716.869 31.4522 714.764 33.4616 712.161 34.8394C709.195 34.074 706.296 31.567 706.87 27.931Z" fill="#2F3082"/>
<path d="M824.16 27.931C827.461 26.9837 831.681 25.5771 834.552 28.2085C833.576 33.2798 829.088 37.222 825.356 32.2464C824.342 30.8972 823.825 29.7681 824.16 27.931Z" fill="#2F3082"/>
<path d="M952.37 27.3568C953.251 29.7394 949.127 34.5332 947.538 34.8394C946.897 34.9638 943.596 32.9448 943.07 32.275C938.553 26.1321 949.002 26.3426 952.332 27.3568H952.37Z" fill="#2F3082"/>
<path d="M530.215 30.256C529.545 27.6916 533.669 23.9599 535.937 24.3235C537.219 24.5053 540.674 28.6963 540.674 30.3804C540.645 33.3083 530.799 32.4854 530.253 30.256H530.215Z" fill="#2F3082"/>
<path d="M883.525 31.1077C882.645 28.151 886.338 24.2375 888.817 24.1992C890.156 24.1992 894.108 28.9069 893.917 30.8397C890.864 33.3467 886.922 31.9401 883.525 31.1077Z" fill="#2F3082"/>
<path d="M658.396 31.6913C655.947 32.1793 650.808 32.7916 648.732 31.232C646.656 29.6723 650.722 23.5006 653.956 24.4479C655.736 24.9646 659.305 29.3087 658.425 31.6913H658.396Z" fill="#2F3082"/>
<path d="M775.687 31.6905C772.08 32.8196 761.746 32.7909 766.693 26.5235C767.277 25.825 770.243 24.1984 770.98 24.2941C772.262 24.4472 776.903 29.4324 775.687 31.6905Z" fill="#2F3082"/>
<mask id="mask5_76_94741" style="mask-type:luminance" maskUnits="userSpaceOnUse" x="951" y="7" width="484" height="43">
<path d="M951.994 7.49219H1434.73V49.7083H951.994V7.49219Z" fill="white"/>
</mask>
<g mask="url(#mask5_76_94741)">
<path d="M950.914 2.92871H1437.5V56.1199H950.914V2.92871ZM951.402 52.8762L951.469 54.7133L952.139 55.5936H1436.49V52.8762H951.402ZM951.402 7.2728V51.7758H1436.49V7.2728H951.402ZM1436.51 3.47411H952.168C951.22 3.47411 951.22 6.20113 952.168 6.20113H1436.51V3.47411Z" fill="#FFFCF5"/>
</g>
<mask id="mask6_76_94741" style="mask-type:luminance" maskUnits="userSpaceOnUse" x="955" y="7" width="478" height="43">
<path d="M955.105 7.49219H1432.76V49.7083H955.105V7.49219Z" fill="white"/>
</mask>
<g mask="url(#mask6_76_94741)">
<path d="M966.872 37.6523C965.494 35.7003 966.384 31.6624 965.647 30.0453C965.217 29.1268 963.839 29.0311 963.14 28.4187C957.39 23.3761 961.638 12.0088 967.389 8.88943C966.719 16.0084 973.446 17.568 972.345 24.8784C971.972 27.3566 969.283 29.7966 966.901 29.5573C965.954 41.384 974.297 46.3309 983.588 48.5316L981.301 42.6375C972.001 42.9724 972.345 30.1315 977.627 24.6583L980.163 28.945C981.751 31.1744 983.741 31.6911 984.756 34.8104C986.373 39.7669 982.335 41.3553 982.431 42.7236C985.148 52.8183 995.913 47.7375 1002.29 45.2688C1003.34 44.1014 999.395 43.7091 999.022 43.7091C997.769 43.7665 996.123 45.2688 994.228 44.9626C989.119 44.1971 985.76 33.2795 989.062 28.9737C989.731 28.6005 990.258 30.4089 991.109 31.05C994.927 33.9589 1003.67 33.8058 999.759 42.5131C1006.28 44.8095 1010.86 37.3174 1014.25 32.4853C1010.4 32.6671 1007.31 34.1694 1003.24 33.069C993.281 30.3515 994.104 19.9506 987.655 16.927L982.823 15.396C987.961 12.4011 993.616 9.9611 999.061 13.6928C1000.96 9.40613 1008.44 8.40144 1010.52 12.6786C1011.44 14.5731 1008.48 15.0611 1007.68 17.6924C1006.03 23.0986 1008.96 23.0699 1011.19 26.0361C1012.88 28.2369 1012.29 31.5667 1014.98 31.1074C1016.33 30.8682 1020.36 24.2947 1021.74 22.6776C1030.97 11.6739 1040.97 5.43521 1055.18 9.68362C1069.4 13.932 1074.9 27.9594 1084.37 38.169L1083.64 29.854C1074.96 26.8973 1078.35 12.4393 1085.11 9.40613C1084.83 15.5874 1094.18 21.4528 1089.11 27.5958C1088.04 28.9067 1084.89 29.433 1084.65 30.3515C1085.32 36.7337 1085.93 40.896 1091.13 44.3502C1094.18 46.3692 1098.55 48.4455 1102.07 48.1967C1100.45 47.5557 1099.75 43.1829 1099.11 42.7619C1098.43 42.3026 1097.24 42.6375 1096.48 42.3887C1091 40.5228 1091.25 32.5523 1093.33 27.8446C1096.08 21.759 1095.84 25.5769 1097.58 28.1508C1099.72 31.2605 1103.63 32.8872 1103.05 37.8628C1102.69 41.1065 1098.58 40.9534 1101.8 45.8142C1105.38 51.23 1115.8 47.7757 1120.02 44.4363C1115.18 42.3026 1112.49 47.68 1108.28 42.0251C1105.59 38.3891 1105.13 33.2795 1106.53 29.0024C1108.04 29.5861 1108.55 30.9256 1110.17 31.8155C1115.1 34.4086 1120.07 33.9589 1118 42.5418C1121.33 45.9386 1130.84 35.3654 1131.45 33.069C1131.78 31.8155 1130.92 32.3609 1130.41 32.4853C1124.45 33.6144 1120.91 34.533 1115.77 30.1028C1110.63 25.6725 1109.6 15.5874 1101.03 16.0084C1105.04 11.9131 1111.95 10.3821 1116.77 13.6832C1120.07 9.22433 1125.98 8.33446 1128.91 13.5684C1128.91 14.0277 1124.88 16.0371 1125.03 20.0176C1125.18 23.9885 1128.48 24.5435 1129.92 27.2035C1131.14 29.4617 1130.1 32.1791 1133.37 31.05C1142.21 16.7739 1153.89 5.3778 1170.94 9.16692C1183.66 11.9801 1190.99 24.2373 1198.6 34.4468L1201.6 37.681L1200.87 29.8922C1192 26.3423 1195.79 13.0422 1202.33 8.91814C1202.85 17.5967 1214.56 24.7827 1201.9 30.3802C1202.43 33.0403 1202.36 35.4228 1203.25 38.0542C1205.4 44.3215 1213.16 46.8859 1218.56 48.5316L1216.33 42.8193C1209.73 42.8193 1208.48 37.193 1209.45 31.0213C1209.67 29.6722 1212.79 22.4288 1213.83 25.0028C1213.95 29.2799 1218.56 30.7725 1219.85 34.6573C1221.62 40.0635 1217.77 40.2549 1217.83 42.7619C1217.89 44.5894 1220.43 48.168 1222.08 48.5029C1226.97 49.5172 1232.84 47.3164 1237.31 45.2688C1238.28 44.1684 1234.89 43.6709 1234.49 43.6709C1231.78 43.7378 1230.83 46.3979 1227.34 43.8909C1223.15 40.8673 1222.11 33.8632 1223.82 29.0024L1227.46 31.8155C1232.78 33.3082 1237.24 35.5759 1235.29 42.5418C1239.08 45.7568 1248.16 36.1213 1249.26 33.069C1249.53 32.3035 1249.16 32.1791 1248.52 32.2748C1246.78 32.514 1245.25 33.5283 1243.02 33.5857C1239.26 33.6814 1235.99 32.6097 1233.06 30.074C1227.71 25.4525 1226.88 15.5491 1218.32 15.9797C1222.48 11.9801 1229.12 10.296 1234.06 13.6545C1237.64 9.04253 1242.81 8.43015 1246.26 13.5397C1242.99 15.7405 1240.88 19.7401 1243.54 23.5579C1245.71 26.6772 1246.32 25.3377 1248.21 30.4089C1248.4 30.9256 1248.1 31.3562 1249.01 31.2031C1250.08 31.2988 1250.51 31.0213 1251.3 30.3802C1252.95 29.0311 1256.19 23.5005 1258 21.3954C1267.29 10.4778 1278.14 5.5596 1291.81 10.1429C1304.68 14.4487 1310.85 29.4904 1320.14 38.7527L1318.58 29.6148C1311.86 26.9834 1312.77 18.4579 1316.27 13.0804C1316.78 12.248 1319.78 8.45885 1320.67 9.47311C1319.78 15.0324 1325.43 17.635 1325.68 22.735C1325.89 27.1652 1323.72 28.7919 1320.11 29.854C1319.19 40.829 1327.2 47.1921 1336.38 48.5029C1337.9 48.723 1335.49 45.6324 1335.15 44.9243C1334.85 44.2832 1334.64 42.6949 1334.54 42.6088C1334.36 42.4174 1331.45 42.6088 1329.86 41.4701C1325.46 38.3221 1326.96 26.3998 1330.88 24.6583C1331.76 24.266 1331.52 25.0602 1331.67 25.3951C1332.09 26.4667 1332.22 27.3183 1332.9 28.39C1335.15 31.9686 1338.94 32.6384 1338.05 38.4178C1337.72 40.7142 1335.52 40.9247 1335.67 42.6375C1336.53 52.0816 1350.62 48.5029 1355.06 44.4076C1350.35 42.3313 1348.54 47.6513 1344.05 42.7906C1340.66 39.1545 1340.56 33.7388 1341.57 28.945C1342 28.5144 1344.78 31.4136 1345.6 31.8729C1350.22 34.4468 1355.39 34.1119 1353.04 42.5131C1357.1 44.4363 1360.34 40.8673 1363.03 37.9298C1363.55 37.3461 1366.88 33.3082 1367.01 33.0403C1367.4 31.9973 1366.48 32.1791 1365.88 32.3322C1361.07 33.5857 1358.41 34.4086 1353.58 31.9112C1345.54 27.7489 1345.98 15.8266 1336.07 15.951C1340.44 11.8557 1347.2 10.2386 1352.27 13.8076C1354.07 9.68362 1359.64 8.67893 1362.79 11.6069C1366.21 14.8219 1360.64 14.5444 1360.49 19.4626C1360.34 24.3904 1362.82 23.8354 1364.74 26.8303C1366.03 28.7919 1366.15 33.1551 1368.96 30.2558C1372.05 27.0504 1374.89 21.7016 1378.19 18.3048C1389.66 6.47818 1405.4 4.97593 1418.18 15.396C1423.83 20.0176 1427.75 26.7729 1432.39 32.4853C1432.08 32.9446 1431.35 33.6527 1430.92 33.3082C1430.65 33.0977 1428.66 29.0311 1427.71 28.39C1424.2 26.0649 1424.78 30.2271 1423.37 32.4279C1421.97 34.6286 1419.31 34.8104 1418.97 38.5422C1418.57 43.1829 1422.94 45.02 1422.94 45.5367C1420.8 48.2924 1418.39 49.8234 1414.96 48.8091C1413.28 48.3211 1411.15 45.4506 1410.74 45.4219C1410.41 45.4219 1408.3 46.6754 1407.2 46.8572C1403.22 47.4695 1397.69 46.5223 1395 43.0967C1406.08 42.36 1403.81 29.5191 1414.57 26.1031C1419.09 24.6583 1421.69 26.2849 1425.97 26.5241C1422.73 21.6059 1417.87 13.9607 1411.48 16.4964C1415.55 25.2133 1406.65 25.0602 1402.83 27.9594C1401.97 28.6005 1401.45 30.4089 1400.78 30.0453C1397.82 25.5769 1400.51 15.1855 1405.8 14.3339C1408.76 13.8746 1411.3 16.2285 1414.5 14.5731C1409.92 9.98981 1395.03 6.53559 1394.27 16.439C1394.18 17.5106 1395.77 18.2761 1396.26 19.2234C1398.55 23.5292 1394.73 27.5958 1391.83 30.074C1390.88 30.5907 1390.35 34.8392 1389.32 34.3799C1388.46 34.0163 1386.63 30.1028 1386.3 28.9737C1384.61 23.0986 1386.17 15.8266 1392.99 16.4103L1395.8 9.9611C1385.8 11.9801 1378.07 17.2331 1378.62 29.4904C1383.11 29.6435 1384.64 32.8202 1384.1 37.4131C1383.64 41.4701 1378.01 45.0774 1379.08 50.1583C1373.48 47.1921 1369.08 35.2984 1374.92 30.7151C1375.53 30.2558 1377.4 29.6148 1377.52 29.4617C1377.83 28.9067 1377.68 21.9408 1378.59 20.3238C1368.78 30.8969 1363.25 44.6851 1348.87 49.0579C1334.51 53.4307 1324.36 46.2161 1314.97 34.9922C1313.91 33.7101 1310.39 27.9977 1309.51 27.8733C1306.14 27.4427 1306.96 29.921 1305.47 32.2078C1303.36 35.4802 1299.72 35.3271 1301.5 41.5084C1302.38 44.5894 1306.81 44.2545 1303.51 47.4313C1300.21 50.6176 1294.93 49.1727 1292.99 45.2305C1287.95 48.5699 1281.2 47.2208 1276.8 43.0967C1286.74 43.4029 1286.49 30.9543 1294.25 27.0791C1297.21 25.6056 1300.71 25.3951 1303.94 25.7587C1304.76 25.8543 1308.56 27.9594 1308.22 25.9787C1308.07 25.1176 1302.87 18.9172 1301.89 18.2091C1299.54 16.4677 1296.49 15.2812 1293.73 16.4964C1296.54 24.8114 1290 24.9358 1285.42 27.7776C1284.23 28.5144 1283.65 29.9784 1282.27 30.0453C1281.26 25.5195 1281.47 19.587 1284.75 16.1902C1288.9 11.8844 1292.11 16.6208 1296.73 14.5731C1296.98 13.444 1296.03 13.7215 1295.39 13.3483C1290.43 10.4204 1280.53 7.08099 1277.13 13.932C1274.81 18.6397 1277.71 17.0226 1278.51 19.7114C1280.78 27.4427 1272.24 28.0838 1272.24 34.9348C1268.06 31.9686 1266.25 23.8067 1269.04 19.2234C1271.29 15.4917 1274.62 16.927 1275.21 16.4103C1275.39 16.2572 1276.13 12.9847 1276.8 11.9131C1277.32 11.1189 1278.27 11.339 1278.23 10.5065C1268.6 11.0902 1259.59 17.9412 1260.78 29.4617C1262.92 29.1555 1265.67 31.5093 1266.13 33.6814C1267.63 40.7142 1260.26 43.2498 1261.24 50.1296C1254.61 46.551 1250.39 32.9733 1259.16 29.4043L1260.26 21.3572C1251.36 30.4376 1245.53 44.1971 1233.09 48.5029C1218.63 53.5168 1208.08 47.7088 1198.36 36.2744C1197.14 34.8392 1193.17 28.6388 1192.4 28.1125C1189.46 26.1605 1189.19 30.6577 1187.9 32.4566C1185.8 35.3941 1182.28 36.3988 1184.3 41.8146C1185 43.7091 1187.85 44.4076 1187.33 45.9099C1185.89 50.0913 1176.97 50.0913 1175.9 45.2018C1170.79 48.168 1163.75 47.2495 1159.45 43.0298C1163.08 43.2786 1166.6 40.6472 1168.65 37.5662C1169.87 35.7003 1170.45 33.3752 1171.95 31.3562C1175.65 26.371 1180.94 25.0315 1186.62 25.7013C1187.11 25.7587 1191.61 27.8446 1190.9 25.95C1186.78 21.6346 1183.26 13.9894 1176.44 16.439C1179.56 24.5052 1172.59 25.0315 1168.13 27.7202C1166.91 28.457 1166.36 29.921 1164.98 29.9784C1163.33 23.5292 1165.35 13.1091 1173.17 14.2669C1174.09 14.42 1174.8 15.2142 1175.68 15.2429C1176.05 15.2429 1179.99 14.8506 1178.95 13.6928C1172.35 10.4778 1161.34 5.7414 1158.99 16.7164L1159.08 17.3862C1164.71 21.051 1160.18 27.0504 1156.51 30.2271C1154.77 32.4853 1155.45 36.8581 1152.6 32.3035C1148.84 26.3136 1149.6 15.5874 1157.95 16.3146C1157.76 13.6545 1160.8 12.1331 1160.24 9.86542C1156.2 11.0902 1152.33 12.1906 1148.84 14.8506C1144.81 17.9699 1143.33 23.711 1143.46 29.0598C1147.07 30.1602 1149.24 31.7868 1149.03 36.1883C1148.78 41.1352 1143.18 44.0727 1144.01 49.4502C1143.15 50.4262 1140.13 46.6754 1139.61 45.8429C1136.27 40.4941 1135.27 31.8729 1141.93 29.2799L1143.53 20.1707C1142.18 21.2423 1140.89 22.6106 1139.77 23.9598C1132.09 33.3082 1127.08 44.532 1114.94 48.5316C1097.12 54.4354 1084.71 43.1255 1074.9 28.2656C1070.89 26.5241 1072.09 28.2656 1070.99 30.5907C1069.12 34.5999 1062.91 36.9825 1066.98 42.8193C1067.8 43.977 1069.89 44.5894 1069.61 45.3836C1068.75 47.7088 1065.15 49.1727 1062.88 48.9335C1060.07 48.656 1057.9 45.2975 1057.41 45.2688C1056.95 45.2305 1055.67 46.4266 1054.79 46.6084C1050.14 47.7088 1045.43 46.2735 1041.67 43.2211C1050.32 43.0298 1050.96 33.5283 1056.4 28.8493C1061.84 24.1703 1066.92 25.2133 1073.09 26.6485C1073.49 26.2849 1071.93 24.1703 1071.6 23.6823C1068.72 19.7114 1063.65 14.1138 1058.63 16.3816C1060.83 25.2994 1055.43 24.3521 1050.78 27.1078C1049.89 27.6245 1047.78 30.4377 1047.14 29.921C1044.87 23.711 1047.75 12.736 1055.33 14.2095C1056.1 14.3626 1056.64 15.1855 1057.38 15.2429C1058.51 15.3673 1060.22 14.2669 1061.6 14.6975C1062.64 13.8363 1058.3 12.1619 1057.87 11.9801C1052.64 9.7793 1043.9 7.30107 1041.52 14.8506C1040.32 18.611 1044.18 18.1517 1043.53 22.9838C1042.89 27.8063 1037.06 29.1842 1037.14 34.265C1035.89 35.6046 1033.26 29.9497 1032.99 28.7249C1032.22 25.3951 1032.2 19.7975 1034.97 17.5106C1036.66 16.1328 1038.8 16.7164 1039.65 16.1041C1040.17 15.7405 1041.27 11.1859 1042.62 10.3821C1033.14 11.339 1025.19 17.3575 1025.22 28.5144C1025.5 29.6435 1031.58 29.854 1031.18 36.1596C1030.88 40.7716 1024.73 44.4363 1026.17 49.4502C1018.9 47.3739 1015.47 31.8155 1024.19 29.0311L1025.16 20.7161C1016.39 30.4377 1009.63 44.7425 996.822 48.7804C979.129 54.378 965.676 41.872 956.289 26.9547C955.677 25.9787 955.955 25.0315 956.538 25.0602C959.533 28.4187 962.011 33.2221 965.006 36.4658C965.523 37.0399 965.858 37.748 966.748 37.5279L966.872 37.6523ZM965.399 11.6356C963.169 15.7022 961.275 18.7641 961.944 23.8067C962.777 30.1602 972.192 29.6148 971.398 22.2757C971.054 19.2808 966.805 15.8266 966.47 12.4011L965.437 11.6356H965.399ZM976.862 27.3566C975.675 30.4664 974.632 34.3225 975.58 37.681C977.053 42.8767 985.205 41.8433 983.617 35.4515C983.129 33.5283 979.704 29.9497 978.268 28.2369C977.847 27.7202 977.809 27.0791 976.862 27.3183V27.3566ZM1006.24 22.9455C1006.51 20.9936 1006 18.9459 1006.51 17.0226C1007.16 14.6975 1011.25 13.5971 1007.8 11.9131C1004.34 10.2386 1001.5 12.0949 999.52 15.396C995.539 13.0804 990.717 12.0375 986.832 15.1855C988.937 16.1041 990.592 17.3575 992.085 19.2521C994.688 22.5819 995.97 28.6962 1000.31 29.5573C1000.5 25.8256 1003.13 23.8067 1006.24 22.9838V22.9455ZM989.339 31.6911C989.09 35.4802 989.272 38.877 991.817 41.7476C996.334 46.8859 1002.29 39.8243 997.865 35.729L989.339 31.6911ZM1001.38 30.2558C1001.96 32.4566 1011.78 33.3082 1011.81 30.3802C1011.81 28.6962 1008.35 24.5052 1007.07 24.3234C1004.8 23.9885 1000.71 27.7202 1001.35 30.2558H1001.38ZM1024.76 47.4313C1024.95 43.336 1029.38 40.5611 1029.78 36.8581C1030.64 28.8206 1020.43 28.7249 1020.25 36.8581C1020.18 40.4654 1021.95 45.4219 1024.76 47.4313ZM1033.87 26.3998C1034.09 28.1795 1034.86 30.3515 1035.99 31.6911C1037.88 28.0551 1042.62 26.1892 1042.25 21.6634C1042.07 19.3478 1041.12 18.3335 1038.98 18.123C1034.43 17.6637 1033.38 22.3044 1033.87 26.3998ZM1045.74 43.6422C1045.58 44.9626 1045.74 44.5033 1046.43 44.7712C1050.47 46.3979 1054.72 46.484 1057.96 43.0967C1059.86 47.2495 1064.08 49.5746 1067.69 46.063C1065.39 42.848 1063.65 40.3697 1065.18 36.0352C1061.75 35.5089 1058.97 32.7915 1058.66 28.9737C1052.59 32.093 1052.59 41.7763 1045.71 43.6422H1045.74ZM1047.73 27.3566C1051.14 25.9787 1062.03 22.4001 1056.74 16.7452C1051.45 11.0902 1046.32 22.3427 1047.73 27.3566ZM1060.29 27.9594C1059.06 30.9256 1063.09 35.0592 1065.48 34.753C1065.67 34.753 1068.45 32.7341 1068.57 32.6097C1069.33 31.8442 1070.89 28.1508 1070.19 27.3566C1066.77 26.5911 1063.59 26.4667 1060.29 27.9307V27.9594ZM1084.16 11.6356C1080.74 14.2669 1078.62 20.6587 1080.12 24.9645C1081.84 29.854 1089.29 29.2129 1089.18 23.29C1089.08 18.544 1084.62 16.2572 1084.12 11.6069L1084.16 11.6356ZM1093.27 36.1883C1094.55 44.4076 1104.06 41.317 1101.37 34.4086C1100.7 32.7341 1096.2 29.7104 1095.38 27.3566C1093.39 29.4904 1092.77 33.1934 1093.27 36.1596V36.1883ZM1105.13 14.3339C1104.85 15.6448 1105.34 15.2142 1105.77 15.5204C1106.87 16.3433 1108.09 16.8695 1109.1 17.9986C1112.44 21.6059 1113.32 28.0838 1118.09 29.5191C1118.51 25.95 1121.42 23.5292 1124.6 23.0125C1123.14 18.6397 1124.63 16.1902 1127.11 12.9847C1123.9 9.65491 1118.76 11.4538 1117.6 15.951C1113.87 12.4011 1109.6 12.8316 1105.13 14.3339ZM1107.12 31.6911C1105.77 36.705 1110.99 47.7757 1116.13 42.3026C1121.27 36.8294 1110.54 33.069 1107.12 31.6911ZM1129.56 31.6911C1130.44 29.2799 1126.87 24.9358 1125.09 24.4478C1121.85 23.5292 1117.79 29.7104 1119.86 31.2318C1121.94 32.7628 1127.11 32.1791 1129.52 31.6911H1129.56ZM1143.07 46.8859C1143.28 42.8767 1147.93 39.7286 1148.04 35.7003C1148.19 31.2318 1142.79 29.1842 1139.85 32.2748C1136.58 35.7003 1138.69 45.3549 1143.07 46.8859ZM1156.73 28.1508C1161.65 25.4525 1162.05 16.9939 1155.29 18.1804C1150.62 19.0033 1151.01 28.6005 1153.76 31.7198L1156.7 28.1795L1156.73 28.1508ZM1173.67 31.3562C1170.33 34.9348 1169.26 42.4174 1163.51 43.9196C1167.12 46.551 1172.72 46.8572 1175.74 43.1255C1177.36 46.8859 1183.07 50.0339 1185.43 45.6324C1182.89 42.7906 1181.86 40.0348 1182.96 36.0926C1180.05 35.021 1176.69 33.4326 1177 29.5191C1176.44 28.945 1174.18 30.8395 1173.69 31.3562H1173.67ZM1165.59 26.4667C1165.74 26.9547 1166.17 27.5001 1166.72 27.3183C1169.32 24.6966 1178.77 23.9024 1175.52 17.8455C1171.68 10.5735 1164 20.9649 1165.59 26.4667ZM1178.03 27.9307C1177.46 31.5667 1180.35 34.045 1183.32 34.8392C1185.89 33.4613 1188 31.4519 1188.43 28.2082C1185.55 25.5769 1181.33 26.9834 1178.03 27.9307ZM1201.44 11.6356C1195.15 15.1281 1195.45 32.5523 1204.29 27.4714C1210.9 23.711 1201.87 16.2859 1201.44 11.6356ZM1210.55 36.1883C1211.65 43.2498 1219.79 42.4557 1218.91 35.8151C1218.53 33.069 1214.01 30.0453 1212.7 27.3853C1210.77 29.854 1210.06 33.0116 1210.59 36.1883H1210.55ZM1234.89 15.951C1231.1 12.4967 1226.15 12.3437 1221.93 15.1281C1228.96 16.927 1229.33 26.438 1235.16 30.0453C1235.78 26.3136 1238.38 23.5292 1241.89 22.9838C1240.43 18.611 1241.92 16.1615 1244.4 12.956C1241.19 9.62621 1236.05 11.4251 1234.89 15.9223V15.951ZM1224.41 31.6911C1222.93 36.7337 1228.32 47.7375 1233.42 42.3026C1238.53 36.8581 1227.82 33.069 1224.41 31.6911ZM1246.85 31.6911C1248.06 29.433 1243.42 24.4765 1242.14 24.2947C1241.4 24.199 1238.44 25.8256 1237.85 26.5241C1232.9 32.7915 1243.2 32.8202 1246.85 31.6911ZM1259.34 47.4313L1263.93 39.6712C1269.37 30.562 1255.83 26.6198 1255.55 36.9538C1255.43 41.2022 1257.39 44.1014 1259.37 47.4313H1259.34ZM1272.98 29.1842C1273.92 28.1508 1275.36 27.414 1276.28 26.0074C1281.78 17.9029 1269.49 14.0277 1268.91 23.9598C1268.82 25.4525 1269.73 30.5046 1270.78 31.4519C1271.93 32.4853 1272.21 30.0071 1272.95 29.1842H1272.98ZM1290.95 31.3562C1287.62 34.9348 1286.58 42.2739 1280.8 43.9196C1284.96 46.972 1289.36 46.0917 1293.49 43.6134C1294.8 46.972 1299.45 49.2971 1302.26 46.6371C1303.48 45.4793 1301.35 44.1684 1300.74 42.8767C1299.64 40.4654 1299.69 38.6952 1300.21 36.1213C1297.31 35.0592 1293.95 33.4613 1294.25 29.5573C1293.7 28.9737 1291.44 30.8682 1290.95 31.3849V31.3562ZM1282.85 26.4667C1283.01 26.9547 1283.46 27.5001 1283.98 27.3183C1286.61 24.8497 1295.96 23.8067 1292.78 17.8455C1288.94 10.5735 1281.26 20.9649 1282.85 26.4667ZM1295.32 27.9307C1294.98 29.7679 1295.5 30.8969 1296.52 32.2461C1300.25 37.193 1304.74 33.2795 1305.71 28.2082C1302.84 25.5769 1298.62 26.9834 1295.32 27.9307ZM1314.86 22.5819C1315.56 30.3515 1324.54 29.7392 1324.64 23.29C1324.03 18.8215 1320.36 15.951 1318.98 11.6069C1316.69 14.42 1314.49 18.7354 1314.86 22.5532V22.5819ZM1331.21 27.3566C1329.47 26.0361 1328.12 34.045 1328.33 35.6046C1329.58 45.02 1340.81 40.7716 1335.92 33.3465C1334.51 31.1744 1331.67 30.3802 1331.21 27.3566ZM1359.64 22.9838C1358.6 19.1564 1359.39 16.0754 1362.12 13.444C1359.51 8.79375 1354.26 12.1331 1352.42 15.951C1349.52 12.3149 1343.65 12.3724 1340.2 15.1568C1342.19 16.0371 1343.5 16.9557 1344.93 18.6684C1347.84 22.1226 1349.09 28.5431 1353.65 29.5191C1353.34 25.8256 1356.7 23.6823 1359.64 22.9838ZM1342.19 31.6911C1342 34.9922 1342.45 38.2647 1344.42 40.9247C1349.28 47.4983 1355.17 40.1018 1351.45 36.0065L1342.19 31.6911ZM1354.68 31.1074C1358.08 31.9686 1362.02 33.3465 1365.07 30.8395C1365.27 28.878 1361.32 24.1703 1359.97 24.199C1357.5 24.199 1353.8 28.1508 1354.68 31.1074ZM1378.1 47.4313C1378.16 43.2786 1382.87 40.1592 1383.11 36.3127C1383.42 31.6911 1378.99 29.1268 1375.56 31.9399C1371.41 35.3941 1374.07 44.7138 1378.07 47.4313H1378.1ZM1394.95 19.3765C1394.64 18.9746 1393.32 18.2761 1392.83 18.1517C1385.77 16.8408 1386.33 27.0504 1388.61 31.6911C1389.56 31.9399 1389.56 31.3275 1390.02 30.7725C1392.29 28.0551 1397.82 23.223 1394.95 19.3765ZM1412.06 29.5191C1409.83 27.4427 1404.06 41.2309 1401.82 41.9964L1398.82 44.1684C1403.04 46.7328 1407.78 46.3309 1411.54 43.068C1412.58 48.0437 1417.44 48.6847 1421.02 46.3022C1421.57 45.4793 1418.6 43.2786 1418.24 41.9964C1417.75 40.3123 1418.36 36.8007 1417.93 36.0926C1417.57 35.4515 1410.93 33.5283 1412.03 29.4904L1412.06 29.5191ZM1401.09 27.3566C1406.01 25.2707 1416.5 21.8452 1408.21 15.5204C1402.74 14.2382 1400.32 22.735 1401.09 27.3566ZM1423.53 27.3566C1420.16 26.3423 1409.74 26.1318 1414.27 32.2748C1414.75 32.9446 1418.08 34.9922 1418.72 34.8392C1420.28 34.5043 1424.41 29.7392 1423.56 27.3566H1423.53Z" fill="#FFFCF5"/>
</g>
<path d="M1006.24 22.9456C1003.13 23.778 1000.5 25.8257 1000.32 29.5191C995.974 28.6675 994.692 22.5532 992.089 19.2234C990.596 17.3289 988.97 16.0754 986.836 15.1568C990.682 12.0088 995.543 13.0422 999.524 15.3673C1001.5 12.0662 1004.16 10.1142 1007.8 11.8844C1011.45 13.6546 1007.19 14.6975 1006.52 16.994C1005.97 18.9172 1006.52 20.9649 1006.24 22.9168V22.9456Z" fill="#2F3082"/>
<path d="M1105.13 14.3338C1109.6 12.8316 1113.88 12.401 1117.61 15.9509C1118.77 11.425 1123.9 9.65486 1127.11 12.9847C1124.67 16.1901 1123.14 18.6397 1124.6 23.0125C1121.43 23.5579 1118.52 25.95 1118.1 29.519C1113.32 28.1125 1112.44 21.6346 1109.1 17.9986C1108.07 16.8982 1106.84 16.3432 1105.77 15.5203C1105.34 15.1854 1104.85 15.616 1105.13 14.3338Z" fill="#2F3082"/>
<path d="M1412.07 29.5181C1410.97 33.556 1417.6 35.4506 1417.96 36.1204C1418.39 36.8572 1417.78 40.3401 1418.27 42.0241C1418.64 43.3063 1421.57 45.5071 1421.05 46.33C1417.47 48.7221 1412.58 48.0714 1411.58 43.0958C1407.82 46.33 1403.04 46.7605 1398.86 44.1962L1401.86 42.0241C1404.09 41.2587 1409.83 27.4705 1412.1 29.5564L1412.07 29.5181Z" fill="#2F3082"/>
<path d="M1234.89 15.9509C1236.06 11.425 1241.19 9.65486 1244.4 12.9847C1241.95 16.1901 1240.43 18.6397 1241.89 23.0125C1238.38 23.5579 1235.75 26.3423 1235.17 30.074C1229.36 26.4667 1229 16.9556 1221.93 15.1567C1226.15 12.3436 1231.1 12.4967 1234.89 15.9796V15.9509Z" fill="#2F3082"/>
<path d="M1045.74 43.6421C1052.62 41.7763 1052.65 32.093 1058.69 28.9736C1059 32.7915 1061.79 35.5089 1065.21 36.0352C1063.68 40.341 1065.42 42.8192 1067.72 46.0629C1064.11 49.5746 1059.89 47.2494 1058 43.0967C1054.72 46.484 1050.5 46.3691 1046.48 44.7712C1045.8 44.5033 1045.61 44.9626 1045.77 43.6421H1045.74Z" fill="#2F3082"/>
<path d="M1290.95 31.3555C1291.45 30.8388 1293.74 28.9442 1294.25 29.5183C1293.96 33.4318 1297.31 35.0202 1300.21 36.0919C1299.67 38.6658 1299.64 40.436 1300.74 42.8472C1301.31 44.1294 1303.46 45.4498 1302.26 46.6076C1299.46 49.2964 1294.81 46.9425 1293.5 43.584C1289.36 46.0909 1284.96 46.9425 1280.81 43.8902C1286.59 42.2348 1287.62 34.9054 1290.95 31.3268V31.3555Z" fill="#2F3082"/>
<path d="M1359.64 22.9843C1356.7 23.6828 1353.38 25.8261 1353.65 29.5195C1349.06 28.5148 1347.81 22.1231 1344.94 18.6689C1343.5 16.9561 1342.15 16.0375 1340.2 15.1572C1343.65 12.4015 1349.52 12.3154 1352.43 15.9514C1354.26 12.1336 1359.55 8.7942 1362.12 13.4445C1359.39 16.1045 1358.6 19.1569 1359.64 22.9843Z" fill="#2F3082"/>
<path d="M1173.67 31.3555C1174.16 30.8388 1176.44 28.9442 1176.97 29.5183C1176.66 33.4318 1180.02 35.0202 1182.93 36.0919C1181.83 40.0054 1182.86 42.7898 1185.4 45.6316C1183.07 50.0332 1177.33 46.8851 1175.72 43.1247C1172.68 46.8851 1167.1 46.5502 1163.49 43.9189C1169.23 42.4166 1170.3 34.9628 1173.63 31.3555H1173.67Z" fill="#2F3082"/>
<path d="M1314.86 22.5821C1314.53 18.7643 1316.69 14.4202 1318.99 11.6357C1320.36 15.9511 1324.03 18.8504 1324.64 23.3189C1324.55 29.768 1315.53 30.3517 1314.86 22.6108V22.5821Z" fill="#2F3082"/>
<path d="M1084.17 11.6357C1084.63 16.286 1089.11 18.5825 1089.21 23.3189C1089.32 29.2513 1081.87 29.8924 1080.16 25.0029C1078.66 20.6875 1080.77 14.2958 1084.19 11.674L1084.17 11.6357Z" fill="#2F3082"/>
<path d="M1378.1 47.4318C1374.1 44.7143 1371.44 35.4233 1375.59 31.9404C1378.99 29.0986 1383.45 31.6629 1383.15 36.3132C1382.9 40.1597 1378.2 43.2791 1378.14 47.4318H1378.1Z" fill="#2F3082"/>
<path d="M1024.76 47.4311C1021.95 45.4218 1020.18 40.4653 1020.25 36.858C1020.4 28.7535 1030.64 28.8205 1029.78 36.858C1029.39 40.561 1024.96 43.3358 1024.76 47.4311Z" fill="#2F3082"/>
<path d="M1143.07 46.8853C1138.7 45.3543 1136.62 35.6997 1139.85 32.2742C1142.79 29.1836 1148.17 31.2599 1148.04 35.6997C1147.93 39.7281 1143.28 42.8761 1143.07 46.8853Z" fill="#2F3082"/>
<path d="M1259.34 47.4309C1257.39 44.1011 1255.43 41.2018 1255.52 36.9534C1255.8 26.6194 1269.37 30.5617 1263.9 39.6709L1259.31 47.4309H1259.34Z" fill="#2F3082"/>
<path d="M1201.44 11.6357C1201.87 16.286 1210.9 23.7112 1204.3 27.4716C1195.45 32.5524 1195.15 15.1282 1201.44 11.6357Z" fill="#2F3082"/>
<path d="M965.401 11.6357L966.444 12.4012C966.779 15.8267 971.056 19.281 971.363 22.2759C972.157 29.6149 962.78 30.1603 961.918 23.8068C961.249 18.7643 963.172 15.7023 965.373 11.6357H965.401Z" fill="#2F3082"/>
<path d="M1342.19 31.6914L1351.45 36.0068C1355.17 40.1021 1349.28 47.4985 1344.42 40.925C1342.46 38.265 1342.01 34.9925 1342.19 31.6914Z" fill="#2F3082"/>
<path d="M1331.21 27.357C1331.67 30.3807 1334.52 31.2035 1335.92 33.3469C1340.78 40.772 1329.56 45.0204 1328.33 35.605C1328.12 34.0454 1329.47 26.0079 1331.21 27.357Z" fill="#2F3082"/>
<path d="M1156.73 28.1502L1153.79 31.6905C1151.04 28.5999 1150.65 18.974 1155.33 18.1511C1162.08 16.9551 1161.68 25.4232 1156.76 28.1119L1156.73 28.1502Z" fill="#2F3082"/>
<path d="M1224.41 31.6914C1227.83 33.0693 1238.72 36.6479 1233.43 42.3029C1228.13 47.9578 1222.94 36.734 1224.41 31.6914Z" fill="#2F3082"/>
<path d="M1282.85 26.4667C1281.27 20.9649 1288.94 10.5735 1292.79 17.8455C1295.96 23.8067 1286.61 24.8497 1283.98 27.3183C1283.47 27.5001 1283.01 26.9547 1282.85 26.4667Z" fill="#2F3082"/>
<path d="M1272.98 29.1842C1272.21 30.0454 1271.94 32.4853 1270.81 31.4519C1269.77 30.5047 1268.86 25.4525 1268.94 23.9598C1269.52 13.9895 1281.78 17.903 1276.31 26.0075C1275.36 27.3853 1273.93 28.1508 1273.01 29.1842H1272.98Z" fill="#2F3082"/>
<path d="M1047.73 27.3562C1046.32 22.3423 1051.63 11.3003 1056.74 16.7448C1061.84 22.1892 1051.14 25.9783 1047.73 27.3562Z" fill="#2F3082"/>
<path d="M1107.12 31.6914C1110.55 33.0693 1121.43 36.6479 1116.13 42.3029C1110.85 47.9578 1105.77 36.6766 1107.12 31.6914Z" fill="#2F3082"/>
<path d="M1165.59 26.4667C1164 20.9649 1171.68 10.5735 1175.52 17.8455C1178.74 23.9024 1169.3 24.6966 1166.72 27.3183C1166.2 27.5001 1165.75 26.9547 1165.59 26.4667Z" fill="#2F3082"/>
<path d="M1401.09 27.3561C1400.3 22.7345 1402.74 14.2377 1408.21 15.5199C1416.5 21.8446 1406.01 25.2702 1401.09 27.3561Z" fill="#2F3082"/>
<path d="M1394.95 19.3761C1397.82 23.2514 1392.29 28.0834 1390.02 30.7722C1389.6 31.2985 1389.56 31.9395 1388.61 31.6908C1386.3 27.0501 1385.77 16.8405 1392.83 18.1514C1393.36 18.2471 1394.64 18.9456 1394.95 19.3761Z" fill="#2F3082"/>
<path d="M976.863 27.3559C977.811 27.1071 977.811 27.7195 978.27 28.2649C979.705 29.9777 983.131 33.5563 983.619 35.4796C985.245 41.8426 977.084 42.9143 975.581 37.7186C974.634 34.3218 975.677 30.4657 976.863 27.3846V27.3559Z" fill="#2F3082"/>
<path d="M1093.27 36.1878C1092.81 33.2215 1093.39 29.4898 1095.38 27.3848C1096.17 29.7386 1100.7 32.7335 1101.37 34.4463C1104.06 41.3547 1094.56 44.4071 1093.27 36.2165V36.1878Z" fill="#2F3082"/>
<path d="M989.34 31.6914L997.865 35.7293C1002.3 39.8246 996.335 46.8862 991.818 41.7479C989.273 38.8773 989.091 35.4805 989.34 31.6914Z" fill="#2F3082"/>
<path d="M1033.87 26.4001C1033.38 22.3048 1034.43 17.6641 1038.98 18.1234C1041.12 18.3339 1042.03 19.3481 1042.25 21.6637C1042.62 26.1896 1037.91 28.0554 1035.99 31.6915C1034.82 30.3806 1034.09 28.2085 1033.87 26.4001Z" fill="#2F3082"/>
<path d="M1210.55 36.1878C1210.07 33.011 1210.77 29.8534 1212.67 27.3848C1213.98 30.0448 1218.51 33.0684 1218.87 35.8146C1219.76 42.4551 1211.63 43.278 1210.52 36.1878H1210.55Z" fill="#2F3082"/>
<path d="M1178.03 27.931C1181.34 26.9837 1185.55 25.5771 1188.44 28.2085C1188.03 31.4522 1185.93 33.4616 1183.33 34.8394C1180.36 34.074 1177.46 31.567 1178.03 27.931Z" fill="#2F3082"/>
<path d="M1295.32 27.931C1298.63 26.9837 1302.85 25.5771 1305.72 28.2085C1304.74 33.2798 1300.25 37.222 1296.52 32.2464C1295.51 30.8972 1294.99 29.7681 1295.32 27.931Z" fill="#2F3082"/>
<path d="M1423.53 27.3568C1424.41 29.7394 1420.29 34.5332 1418.7 34.8394C1418.06 34.9638 1414.76 32.9448 1414.23 32.275C1409.71 26.1321 1420.16 26.3426 1423.49 27.3568H1423.53Z" fill="#2F3082"/>
<path d="M1001.38 30.256C1000.71 27.6916 1004.83 23.9599 1007.1 24.3235C1008.38 24.5053 1011.84 28.6963 1011.84 30.3804C1011.81 33.3083 1001.96 32.4854 1001.42 30.256H1001.38Z" fill="#2F3082"/>
<path d="M1354.69 31.1077C1353.81 28.151 1357.5 24.2375 1359.98 24.1992C1361.33 24.1992 1365.27 28.9069 1365.08 30.8397C1362.02 33.3467 1358.08 31.9401 1354.69 31.1077Z" fill="#2F3082"/>
<path d="M1129.56 31.6913C1127.11 32.1793 1121.97 32.7916 1119.9 31.232C1117.82 29.6723 1121.89 23.5006 1125.12 24.4479C1126.9 24.9646 1130.47 29.3087 1129.59 31.6913H1129.56Z" fill="#2F3082"/>
<path d="M1246.85 31.6905C1243.24 32.8196 1232.91 32.7909 1237.85 26.5235C1238.44 25.825 1241.4 24.1984 1242.14 24.2941C1243.42 24.4472 1248.06 29.4324 1246.85 31.6905Z" fill="#2F3082"/>
</svg>
