<svg width="205" height="451" viewBox="0 0 205 451" fill="none" xmlns="http://www.w3.org/2000/svg">
<ellipse cx="102.5" cy="425.5" rx="102.5" ry="25.5" fill="#C32024"/>
<path d="M119.106 405.043C119.392 407.797 121.885 410.744 120.785 414.278C124.194 414.026 127.745 415.965 131.103 414.949C133.159 414.328 136.425 408.855 140.085 409.241C140.345 408.897 138.708 407.478 138.406 406.731C139.212 407.318 140.144 407.789 140.925 408.41C142.646 409.795 142.679 410.651 143.443 411.768C138.431 410.567 133.554 416.721 130.062 417.292C127.753 417.669 124.261 416.142 121.616 416.813C121.793 420.817 125 421.85 127.493 423.521C127.577 423.571 127.107 424.981 128.039 425.225C132.605 426.408 142.352 424.629 146.801 422.681C144.442 428.482 129.172 429.422 124.756 426.064C121.071 423.252 117.629 409.82 118.258 405.052H119.098L119.106 405.043Z" fill="#56706A"/>
<path d="M98.1179 236.306L91.402 303.062L93.0642 302.625C92.7871 306.277 95.6834 310.298 96.2375 313.312C96.7328 315.982 95.4399 325.132 96.0192 325.292C97.9668 325.837 97.2281 323.504 97.27 322.362C97.3624 319.969 98.034 314.874 97.8661 313.22C97.6562 311.18 95.1377 307.587 94.76 303.876C94.1387 297.731 95.2217 290.789 94.718 284.543L98.949 236.306C105.925 236.885 112.918 237.464 119.936 237.145L121.196 311.029L121.624 301.786L124.142 303.028C121.028 296.514 123.177 289.387 122.9 282.855C122.849 281.714 121.64 280.446 121.582 278.717C121.154 264.89 121.959 250.963 121.607 237.137C132.89 236.465 143.887 233.712 154.347 229.581C154.985 234.753 156.37 240.092 156.849 245.129C159.636 274.242 165.009 346.43 141.755 367.258C134.787 373.495 125.343 372.673 117.409 368.937C116.864 363.052 115.017 358.116 114.186 352.432C112.524 341.108 112.742 329.657 109.854 318.567C112.809 318.349 114.656 317.627 117.401 316.888C117.166 322.345 117.342 327.768 119.517 332.839C121.75 333.124 120.474 331.605 120.171 330.497C118.518 324.595 116.066 317.468 120.751 312.254C118.442 313.488 117.955 315.545 115.05 316.62C110.962 318.139 107.277 317.51 103.138 316.888C103.373 318.24 104.54 318.391 105.657 318.559C105.136 332.217 104.112 345.272 101.736 358.712C101.224 361.625 99.268 365.554 98.9406 368.089C91.998 370.381 80.6565 367.61 74.5954 363.891C74.2092 363.656 71.1786 361.004 70.7841 360.567C49.2679 336.692 60.7606 260.139 60.324 228.733C72.3287 233.342 85.3325 235.156 98.1011 236.289L98.1179 236.306ZM124.151 284.165C123.874 285.391 124.503 285.92 125.41 286.658C125.771 285.827 124.545 283.342 124.151 284.165ZM102.315 316.074L99.8221 315.638C100.678 316.922 102.466 317.728 102.315 316.074Z" fill="#EBD7CA"/>
<path d="M98.9572 236.306L94.7262 284.543C95.2298 290.789 94.1469 297.731 94.7681 303.876C95.1459 307.595 97.6644 311.18 97.8742 313.22C98.0505 314.874 97.3705 319.969 97.2782 322.362C97.2362 323.504 97.975 325.837 96.0274 325.292C95.4481 325.132 96.7325 315.982 96.2456 313.312C95.6916 310.298 92.7953 306.277 93.0724 302.625L91.4102 303.062L98.1261 236.306C98.4031 236.331 98.6885 236.28 98.9656 236.306H98.9572Z" fill="#CCB6A9"/>
<path d="M121.624 237.145C121.976 250.971 121.162 264.899 121.599 278.725C121.649 280.463 122.866 281.73 122.917 282.864C123.194 289.395 121.044 296.514 124.159 303.037L121.641 301.794L121.137 312.632L119.953 237.153C120.507 237.128 121.078 237.187 121.632 237.153L121.624 237.145Z" fill="#CCB6A9"/>
<path d="M105.673 318.576C104.498 318.82 100.3 317.292 101.509 315.923C105.648 316.553 110.979 318.156 115.067 316.637C117.972 315.554 118.45 313.506 120.767 312.271C116.083 317.485 118.534 324.612 120.188 330.514C120.499 331.613 121.775 333.133 119.533 332.856C117.359 327.785 117.183 322.362 117.418 316.905C114.673 317.644 112.826 318.366 109.871 318.584C108.687 318.668 106.765 318.358 105.673 318.584V318.576Z" fill="#CCB6A9"/>
<path d="M124.15 284.165C124.544 283.351 125.77 285.827 125.409 286.658C124.503 285.911 123.873 285.391 124.15 284.165Z" fill="#CCB6A9"/>
<path d="M102.316 316.074C102.467 317.728 100.67 316.922 99.8223 315.638L102.316 316.074Z" fill="#CCB6A9"/>
<path d="M72.9355 411.759C81.2801 411.902 85.5279 419.189 94.7623 416.805C96.0383 426.4 78.9127 424.209 73.6071 421.766C72.6837 421.338 71.9197 418.903 69.5859 419.323C69.8294 416.939 71.4244 413.648 72.9439 411.768L72.9355 411.759Z" fill="#DA9D7E"/>
<path d="M143.45 411.759C145.347 414.53 145.943 414.572 146.808 418.475L143.458 417.636C144.449 423.344 141.779 421.9 137.573 422.673C137.951 419.172 136.356 419.172 136.734 422.673C136.532 422.698 135.836 423.453 134.711 423.554C132.352 423.764 129.875 423.353 127.499 423.512C125.015 421.833 121.808 420.801 121.623 416.805C124.267 416.133 127.76 417.661 130.068 417.283C133.561 416.712 138.43 410.559 143.45 411.759ZM135.886 417.636C136.49 416.461 135.357 415.394 135.063 415.965C134.459 417.141 135.592 418.207 135.886 417.636ZM136.314 418.475V419.315C136.86 419.038 136.86 418.752 136.314 418.475Z" fill="#DA9D7E"/>
<path d="M98.9593 405.043C96.8102 417.938 96.8018 428.742 80.8766 427.735C74.74 427.349 68.8215 426.618 69.5771 419.315C71.9109 418.895 72.6832 421.329 73.5983 421.758C78.9038 424.209 96.0295 426.392 94.7534 416.796C85.519 419.18 81.2796 411.893 72.9267 411.751C74.6812 409.576 75.4116 409.996 76.2846 409.232C80.1295 408.938 84.8474 415.016 87.0973 415.528C89.0869 415.982 93.0493 413.547 95.5929 414.269C95.1396 410.097 97.2719 407.604 97.2803 403.364C97.742 403.759 98.5144 404.943 98.9593 405.043Z" fill="#56706A"/>
<path d="M137.576 422.673C141.782 421.9 144.452 423.353 143.461 417.636L146.81 418.475C147.339 420.868 147.969 419.835 146.81 422.673C142.37 424.62 132.615 426.4 128.048 425.216C127.116 424.973 127.578 423.571 127.502 423.512C129.878 423.353 132.354 423.756 134.713 423.554C135.838 423.453 136.535 422.706 136.737 422.673C137.014 422.639 137.307 422.723 137.576 422.673Z" fill="#3F534E"/>
<path d="M137.574 422.673C137.305 422.723 137.011 422.639 136.734 422.673C136.356 419.172 137.951 419.172 137.574 422.673Z" fill="#B67C5C"/>
<path d="M135.886 417.636C135.592 418.207 134.459 417.141 135.064 415.965C135.357 415.394 136.491 416.461 135.886 417.636Z" fill="#B67C5C"/>
<path d="M136.314 418.475C136.86 418.752 136.86 419.038 136.314 419.315V418.475Z" fill="#B67C5C"/>
<path d="M98.9573 368.106C97.6225 378.675 97.3035 392.736 97.2783 403.364C97.2699 407.604 95.146 410.097 95.591 414.269C93.0473 413.547 89.0933 415.99 87.0953 415.529C84.8539 415.017 80.1359 408.939 76.2827 409.232C76.4254 409.107 76.1903 408.015 76.2827 407.553C79.2293 406.345 80.5473 400.048 80.5557 397.051C80.5809 389.882 77.0718 375.678 75.4432 368.097L74.6037 367.258C74.4106 366.284 74.738 364.958 74.6037 363.9C80.6648 367.619 92.0063 370.389 98.9489 368.097L98.9573 368.106Z" fill="#DEA081"/>
<path d="M138.415 406.722C138.717 407.469 140.354 408.88 140.094 409.232C136.434 408.855 133.168 414.32 131.112 414.941C127.754 415.957 124.203 414.026 120.794 414.269C121.886 410.735 119.401 407.788 119.115 405.035C118.796 401.937 120.072 397.521 119.988 393.66C119.871 388.447 118.721 381.974 118.276 376.492V374.813C118.259 373.991 118.377 373.092 118.276 372.295C118.225 371.909 117.831 371.556 117.436 371.455C117.336 370.633 117.512 369.759 117.436 368.937C125.369 372.673 134.814 373.495 141.782 367.258C141.135 376.14 135.964 388.732 135.981 397.169C135.981 398.898 137.702 404.926 138.424 406.714L138.415 406.722Z" fill="#DEA081"/>
<path d="M75.4508 368.106C75.4424 368.047 74.7456 367.929 74.6113 367.266L75.4508 368.106Z" fill="#EBD7CA"/>
<path d="M118.266 376.501C118.182 375.401 118.274 375.309 118.266 374.822V376.501Z" fill="#EBD7CA"/>
<path d="M118.265 372.303C117.879 372.202 117.468 371.85 117.426 371.463C117.82 371.564 118.215 371.917 118.265 372.303Z" fill="#EBD7CA"/>
<path d="M137.012 34.5839C136.928 35.096 136.323 38.2105 136.189 38.3616C135.115 38.5463 134.25 39.6041 133.478 39.9903C133.175 40.1414 133.033 40.1665 132.84 39.8727C132.672 39.6125 132.546 36.6407 132.437 35.9355C131.799 31.8892 130.833 27.3391 128.449 23.9056C115.353 26.4073 101.006 25.3411 88.9761 19.683C84.0651 25.3411 83.8301 33.3079 83.7797 40.3428C83.0242 39.6209 81.0765 39.0248 80.4973 38.3113C80.1531 37.8831 79.4647 35.7424 79.2464 35.0624C77.2317 28.8922 75.1497 18.1887 84.2918 16.5768C81.1521 6.01604 92.0151 1.87735 100.889 0.567745C112.264 -1.11963 129.54 0.534165 135.635 11.2964C137.809 15.1329 136.945 16.3418 137.113 20.2622C137.331 25.274 137.826 29.463 137.02 34.5839H137.012Z" fill="#0C0609"/>
<path d="M97.4111 68.911L98.0155 68.7935C104.841 72.5628 114.075 73.5534 121.379 72.9909C121.546 73.3099 122.361 74.1158 122.386 74.1914C122.873 75.5346 119.288 81.1424 118.23 82.3512C116.669 84.1394 111.07 88.4627 108.643 88.3704C107.913 88.3452 105.235 86.9684 104.496 86.5319C99.5434 83.6189 96.5296 79.2199 94.8926 73.9479C95.6649 72.2941 96.815 70.6235 97.4111 68.911Z" fill="#D3866B"/>
<path d="M118.602 65.5527C119.14 68.1468 120.113 70.6484 121.381 72.9906C121.524 73.7378 120.986 73.4356 120.508 73.4691C113.641 73.9476 107.756 73.1585 101.326 70.8331C100.033 70.363 98.3873 69.8509 97.4219 68.9107C97.7577 67.9369 97.9004 66.5769 98.1774 65.5527C98.3957 65.7626 103.164 67.2401 103.928 67.3996C108.512 68.3902 114.48 67.727 118.611 65.5527H118.602Z" fill="#A55E4C"/>
<path d="M107.503 96.2695C107.94 96.5969 108.813 97.0503 109.014 97.2266C115.277 102.566 117.98 110.625 119.584 118.256L133.737 121.715C133.603 128.002 133.15 133.291 131.974 139.478C123.982 136.112 116.754 131.352 109.526 126.76C108.846 127.322 108.183 126.474 108.015 125.803C107.965 125.778 107.948 125.618 107.839 125.601C99.9059 130.596 91.9307 135.768 83.2923 139.722C82.9313 139.377 82.7467 138.958 82.6627 138.488C81.7393 133.333 81.4538 128.254 81.3027 123.041C81.3027 122.831 81.3783 122.613 81.4538 122.386C81.5294 122.159 81.6553 121.941 81.7728 121.723L95.8427 118.306C97.4797 111.632 99.5617 103.984 104.347 98.6705C105.069 97.8646 106.404 96.4122 107.503 96.2695Z" fill="#D3866B"/>
<path d="M79.2472 35.0623L79.5914 35.0287C80.1791 37.4213 81.4131 38.8148 83.2936 39.1926C83.4363 32.3675 83.7217 24.4847 88.9266 19.2715C101.41 24.8121 115.144 25.8531 128.609 23.5025C132.11 28.0358 132.807 34.1473 133.277 39.52C134.058 38.9156 134.897 38.4035 135.787 37.967L136.484 34.7685L137.029 34.5838C137.382 35.5072 138.171 35.3393 138.742 36.4223C140.698 40.1496 137.416 47.8058 133.596 49.6779C133 49.9633 132.001 49.9465 131.615 50.4334C129.34 56.4609 124.882 61.6658 119.123 64.9566C118.846 65.1161 118.678 65.5107 118.611 65.5442C118.535 65.8213 118.435 66.1151 118.183 66.2998C116.974 67.1813 113.314 67.8948 111.702 68.1047C107.085 68.7091 102.417 67.8696 98.2701 66.1235C98.1274 66.0647 98.1526 65.7457 98.1778 65.5442C93.6445 61.2712 90.211 59.8525 86.7859 53.7074C86.4333 53.0694 85.4343 50.3998 85.258 50.2403C85.0313 50.0304 82.9998 49.5771 82.1603 48.9895C78.8946 46.6725 75.7382 38.1852 79.2556 35.0707L79.2472 35.0623Z" fill="#D3866B"/>
<path d="M101.696 54.2701C101.016 54.2701 100.201 53.9847 99.6723 54.1274C98.7405 54.3709 98.3879 55.4874 97.666 55.9491C97.2294 51.122 106.094 50.5344 109.662 50.6603C113.012 50.7778 120.215 51.441 120.114 55.7141C119.09 55.4958 118.527 54.2282 117.402 54.077C116.823 53.9931 115.723 54.2953 115.069 54.2785C113.474 55.202 110.569 54.6647 108.94 53.7077C106.917 54.7654 103.803 55.2355 101.696 54.2785V54.2701Z" fill="#030303"/>
<path d="M115.068 54.2699C115.597 54.4043 114.766 54.8912 114.649 54.9499C111.727 56.545 105.481 56.5869 102.526 55.0423C102.165 54.8576 101.863 54.6477 101.695 54.2699C103.786 54.2699 105.599 54.3959 107.639 53.8082C108.059 53.6907 108.797 53.145 108.881 53.145C108.982 53.145 110.082 53.8418 110.711 53.9761C111.987 54.2531 113.742 54.2364 115.068 54.2699Z" fill="#F1F1ED"/>
<path d="M125.032 30.9826C126.333 31.1673 128.163 32.4769 127.802 33.8621C126.19 33.0478 124.839 32.8127 123.017 32.905C120.389 33.0394 116.838 34.8694 116.578 30.9826C119.181 31.2428 122.522 30.63 125.032 30.9826Z" fill="#070404"/>
<path d="M101.696 31.4695C101.738 35.583 97.1541 33.0982 94.5097 33.1317C93.1077 33.1485 91.7897 33.7278 90.5977 34.349C91.4791 29.5387 98.1615 31.8557 101.696 31.4695Z" fill="#0A0504"/>
<path d="M125.412 39.8644L125.093 39.4531C125.874 38.7395 125.647 38.0595 124.43 37.4047C125.471 41.6945 118.612 41.9547 118.923 37.7825C118.495 38.0007 118.192 38.1435 117.84 37.6985C118.528 35.9272 122.046 35.0373 123.909 35.4067C125.051 35.6334 128.51 37.9336 127.427 39.0165C127.125 39.3187 125.899 39.7133 125.404 39.856L125.412 39.8644Z" fill="#1A0D10"/>
<path d="M125.411 39.8647C124.009 41.5353 120.609 41.3926 118.871 40.2089C117.78 39.4702 117.352 38.9749 117.847 37.7072L119.61 36.9853C118.065 42.0558 126.376 40.9897 123.396 36.6243C124.169 36.3053 126.259 38.0095 126.116 38.7398C126.108 38.807 125.512 39.7388 125.411 39.8647Z" fill="#F0F0EC"/>
<path d="M122.766 38.0093C123.081 38.0093 123.337 37.765 123.337 37.4636C123.337 37.1623 123.081 36.918 122.766 36.918C122.451 36.918 122.195 37.1623 122.195 37.4636C122.195 37.765 122.451 38.0093 122.766 38.0093Z" fill="#D5D2D0"/>
<path d="M100.687 37.7069C100.594 38.0679 100.317 38.135 99.8639 37.9C100.133 42.0135 93.0892 41.535 94.3904 37.4047C93.1312 38.0091 92.8625 38.6639 93.5929 39.3607L93.3746 39.8728C90.2349 39.2264 90.831 37.7573 92.9969 36.2714C95.1627 34.7855 98.1765 35.1296 100.183 36.8674C100.846 37.4466 100.603 37.5306 100.687 37.7153V37.7069Z" fill="#1F0E12"/>
<path d="M93.3754 39.8645C93.0648 39.5203 92.5359 38.7899 92.6535 38.3534C92.7878 37.8497 94.7774 36.2882 95.3902 36.624C92.2757 40.8802 100.746 42.1311 99.1763 36.985L100.687 37.707C100.931 38.2358 101.443 38.3534 101.065 39.1425C100.024 41.3252 95.1132 41.7617 93.367 39.8645H93.3754Z" fill="#F0F0ED"/>
<path d="M96.0201 38.0088C96.3353 38.0088 96.5909 37.7645 96.5909 37.4631C96.5909 37.1618 96.3353 36.9175 96.0201 36.9175C95.7048 36.9175 95.4492 37.1618 95.4492 37.4631C95.4492 37.7645 95.7048 38.0088 96.0201 38.0088Z" fill="#DBD9D6"/>
<path d="M134.232 245.935C134.241 245.632 134.4 245.515 134.635 245.347C135.29 244.902 137.473 244.188 138.438 243.685C144.709 240.453 151.014 236.406 156.932 232.604" fill="#EBCF98"/>
<path d="M61.8418 234.282C64.226 234.366 67.181 235.399 69.1538 236.683L69.2629 237.145" fill="#C7A16B"/>
<path d="M68.5586 237.682C68.6677 237.288 68.6509 236.834 69.1546 236.683C72.2272 237.472 72.8568 238.387 75.4844 239.907C79.3209 242.115 82.9139 243.953 87.0694 245.565C92.9122 247.84 99.3931 249.771 105.748 248.335C107.41 247.957 108.804 246.942 110.281 246.53C110.323 245.884 110.575 245.918 110.785 246.53L111.289 249.166C116.242 249.771 121.044 249.267 125.921 248.444" fill="#EBCF98"/>
<path d="M84.2917 81.3943L84.4428 81.982C82.0838 83.2664 85.5593 93.8692 86.105 94.2469C86.4828 93.7097 86.8857 93.5082 87.3223 93.6341C92.5691 89.6633 101.3 90.763 105.993 95.078C106.681 94.6583 107.764 95.5481 107.504 96.2785C107.101 96.8661 106.538 97.4034 105.808 97.8651C100.15 103.851 98.2021 110.869 96.2041 118.55C91.5869 119.86 86.9193 121.043 82.193 122.11L81.7732 121.715C81.471 121.371 81.1436 121.228 80.791 121.287L63.0442 126.903C62.5909 126.769 62.5405 126.416 62.6748 125.988C66.2594 123.596 69.0801 120.12 71.2628 116.468C66.2678 122.336 59.8877 127.138 52.9031 130.353C52.4414 130.63 58.9223 128.154 59.0482 128.104C60.4166 128.565 61.3148 128.364 62.7 127.869C67.8881 126.072 73.0425 124.217 78.1718 122.294C79.9096 121.455 80.8666 121.665 81.0513 122.924C81.3031 128.716 81.8572 134.517 82.9485 140.075L83.2843 139.714C83.7293 139.252 84.1994 138.79 84.7786 138.48C92.6111 134.265 100.301 129.967 107.797 125.216C107.999 125.358 108.066 125.552 108.007 125.795L108.528 126.567C109.275 166.46 110.031 206.344 110.778 246.212L110.282 246.522C109.997 247.286 108.209 248.033 107.319 248.319C100.653 250.451 93.9794 248.713 87.6413 246.296L87.0788 245.565C83.8468 243.928 80.0607 241.46 76.6356 238.933C72.6228 235.987 67.9552 232.452 64.3706 229.094C64.2531 228.985 63.9005 228.347 63.9005 228.213C65.059 202.978 66.3938 178.431 67.9132 154.59C68.0727 153.582 68.4673 152.508 68.291 151.467C64.933 153.07 61.298 154.506 57.6966 155.547C48.5881 158.183 33.9642 160.542 30.4467 149.301C29.3134 145.683 30.5978 141.191 31.4122 137.489C36.9528 112.296 53.7342 82.3513 84.3085 81.3691L84.2917 81.3943Z" fill="#FAA62C"/>
<path d="M155.177 152.197C154.573 151.752 153.893 151.391 153.12 151.114C146.027 148.847 139.185 145.816 132.62 142.005C133.669 134.618 134.249 127.196 134.492 119.767C138.413 120.439 134.979 119.263 134.316 119.557C134.14 119.633 134.215 121.11 134.232 121.421L133.728 121.715C133.661 121.891 133.518 122.151 133.376 122.126C128.658 121.144 123.839 119.809 119.213 118.525C117.451 111.196 115.175 103.59 109.341 98.2004L108.997 97.2434C108.955 96.1941 110.701 94.8341 111.776 95.0859C114.672 92.2485 119.642 91.0144 123.722 91.2411C125.728 91.3586 128.574 91.7532 129.69 93.3986C130.337 92.8361 131.067 93.6504 131.453 94.2129C131.898 94.2968 133.846 86.6994 133.947 85.8851C134.291 83.0392 133.628 81.9899 131.352 80.2773L131.445 79.7148C155.656 81.7632 171.186 99.7199 180.177 119.633C188.295 137.623 195.658 164.411 163.035 155.143C161.91 154.824 155.496 152.793 155.152 152.197H155.177Z" fill="#FAA62C"/>
<path d="M94.8868 73.9478C95.7179 74.8209 96.3223 75.9207 96.7085 77.2471C97.9425 80.8401 104.633 87.5056 108.68 87.8834C112.726 88.2612 121.75 78.7581 121.927 74.5019L122.38 74.1829C122.808 73.8891 123.161 73.9227 123.648 74.0486C124.857 74.3592 130.271 78.691 131.463 79.7068C132.017 80.1769 133.797 81.6963 134.041 82.1749C135.703 85.4237 132.832 91.5352 131.85 94.8344C131.497 95.4304 130.951 94.2048 130.691 94.0033C130.473 93.8354 129.978 93.5416 129.7 93.3905C123.774 86.154 117.553 90.234 111.786 95.0694C110.82 95.6823 109.838 96.4546 109.007 97.2269C108.428 97.7054 107.236 96.9835 107.496 96.2699C106.992 95.8921 106.522 95.422 105.985 95.0694C104.054 93.5919 101.72 91.8878 99.4956 90.6537C95.3317 88.3535 92.4019 89.1678 89.195 92.3495L87.323 93.6255C87.0123 93.9781 86.7101 94.4146 86.3827 94.7588C86.2316 94.9183 86.3995 95.2206 85.8119 95.0694C84.88 91.2833 81.1863 84.7689 84.2924 81.3857L93.3757 74.0654L94.8868 73.9395V73.9478Z" fill="#C7822A"/>
<path d="M87.0641 245.565C86.8207 245.607 86.5856 245.632 86.3422 245.623C86.0987 245.615 85.8804 245.615 85.6957 245.531C80.8099 243.491 76.0668 240.947 71.7602 238.16L69.46 237.254L69.1494 236.674C66.5889 236.02 64.2887 235.189 61.8374 234.273C60.8384 233.896 55.8015 232.133 55.5664 231.47C59.4029 205.832 63.9361 180.227 67.8901 154.581C68.3099 155.638 68.2007 157.183 68.1504 158.308C68.058 160.331 67.7306 162.505 67.6215 164.529C66.505 185.751 65.5312 206.914 64.3559 228.137L64.7085 228.766C71.7098 234.475 78.6104 240.41 86.552 244.943C86.6779 245.019 87.6182 245.355 87.0557 245.548L87.0641 245.565Z" fill="#C7822A"/>
<path d="M133.737 121.715C133.754 121.035 133.477 119.314 134.149 119.104C134.946 118.852 141.058 120.481 142.367 120.825C144.986 121.505 147.589 122.269 150.133 123.159C146.103 119.901 141.906 115.385 139.983 110.617C139.891 110.39 139.505 109.702 140.033 109.727C145.633 117.803 154.221 124.561 163.749 127.969C163.808 128.405 163.212 128.179 162.935 128.145C162.12 128.044 161.021 127.809 160.215 127.608C155.53 126.466 150.804 124.015 146.036 122.621C142.35 121.547 138.531 120.732 134.745 120.044C134.98 127.364 134.182 134.634 133.024 141.837C136.155 143.592 139.337 145.279 142.644 146.723C144.39 147.487 154.683 150.963 155.052 151.491C155.237 151.752 155.119 152.104 155.178 152.205C154.825 152.465 154.607 152.684 154.112 152.65C153.524 152.6 150.687 151.533 149.881 151.248C146.061 149.88 141.62 147.932 138.019 146.094C136.919 145.531 132.293 143.113 131.714 142.484C131.269 141.997 131.815 140.259 131.966 139.487L131.714 138.093C132.537 132.88 133.099 127.641 133.385 122.386L133.737 121.723V121.715Z" fill="#C7822A"/>
<path d="M83.2848 139.713C83.4863 140.88 83.9732 142.333 84.0488 143.432C84.0656 143.718 83.9984 143.961 83.671 143.785C83.033 143.457 81.7486 135.978 81.5639 134.744C80.9426 130.571 80.7412 126.391 80.5145 122.185C80.1703 122.134 79.8681 122.26 79.5575 122.353C76.4094 123.226 61.9366 129.144 60.224 128.901C59.8882 128.85 59.6364 128.489 59.309 128.531C58.4191 128.666 55.1619 130.252 53.7096 130.647C52.2572 131.041 50.8889 131.234 49.4785 131.545L57.2774 127.566C63.6407 123.78 68.9799 118.886 73.3201 113.068C73.6978 113.253 73.2445 113.647 73.1522 113.865C71.3305 117.971 68.132 122.252 64.6229 125.19C64.0773 125.652 63.2798 125.971 62.8516 126.508L80.6992 120.808L81.7737 120.749C81.7821 121.068 81.7737 121.387 81.7737 121.706C81.8913 128.103 82.2103 133.375 83.2848 139.705V139.713Z" fill="#C7822A"/>
<path d="M105.983 95.0691C100.215 91.3166 93.6339 90.4855 87.3125 93.6252C89.8394 90.7458 93.0882 87.774 97.3948 89.1927C100.409 90.1833 103.095 92.5507 105.546 94.3976C105.672 94.4899 106.512 94.918 105.974 95.0691H105.983Z" fill="#856439"/>
<path d="M125.435 249.133C120.985 249.838 116.427 250.031 111.751 249.703C110.584 249.653 110.005 247.143 110.777 246.53C111.381 240.981 111.381 235.323 110.794 229.564L111.281 228.766L111.843 228.708C116.284 232.595 116.62 223.427 111.852 227.331H111.281C110.953 221.748 110.626 216.166 110.508 210.575C110.055 188.227 109.644 165.872 109.291 143.525C109.249 140.729 109.274 137.933 109.316 135.138C109.358 132.342 109.425 129.547 109.518 126.751L110.382 126.919C116.922 131.117 123.697 134.937 130.698 138.395L131.974 139.478L132.394 139.906C132.167 140.637 132.066 141.367 132.075 142.106C137.204 145.531 143.198 148.117 149.133 150.45L149.881 151.239L163.766 227.7L163.388 228.54C161.071 229.656 159.073 231.235 156.941 232.603C156.773 232.863 156.588 233.115 156.387 233.342C156.185 233.568 155.984 233.795 155.732 233.954C148.982 238.311 141.779 242.786 134.719 245.926" fill="#FAA62C"/>
<path d="M109.517 126.751C110.054 160.272 110.785 193.802 111.28 227.322C111.918 227.835 111.909 228.254 111.28 228.766C111.355 233.887 112.136 240.822 111.549 245.699C111.523 245.909 111.549 246.11 111.414 246.303C111.263 246.538 110.994 246.48 110.776 246.53C110.625 246.564 110.407 246.488 110.272 246.53L108.006 125.794C108.476 126.004 109.055 126.458 109.517 126.751Z" fill="#C7822A"/>
<path d="M112.782 137.648C114.061 137.648 115.099 136.663 115.099 135.448C115.099 134.234 114.061 133.249 112.782 133.249C111.502 133.249 110.465 134.234 110.465 135.448C110.465 136.663 111.502 137.648 112.782 137.648Z" fill="#ECEFC9"/>
<path d="M113.572 170.061C114.847 170.061 115.881 169.076 115.881 167.862C115.881 166.647 114.847 165.662 113.572 165.662C112.297 165.662 111.264 166.647 111.264 167.862C111.264 169.076 112.297 170.061 113.572 170.061Z" fill="#ECEFC9"/>
<path d="M113.571 200.056C114.851 200.056 115.888 199.071 115.888 197.857C115.888 196.642 114.851 195.657 113.571 195.657C112.291 195.657 111.254 196.642 111.254 197.857C111.254 199.071 112.291 200.056 113.571 200.056Z" fill="#ECEFC9"/>
<path d="M111.281 228.767C111.281 228.288 111.281 227.81 111.281 227.323C112.935 224.158 117.561 226.618 115.319 229.363C114.068 230.899 112.188 230.202 111.281 228.758V228.767Z" fill="#ECEFC9"/>
<path d="M129.7 93.3905C124.134 90.2424 116.847 91.8375 111.785 95.0695L112.927 93.634C118.921 89.0504 123.303 86.2129 129.448 92.5426C129.633 92.7357 130.296 93.1807 129.7 93.3905Z" fill="#846439"/>
</svg>
